  0
SECTION
  2
HEADER
  9
$ACADVER
  1
AC1009
  9
$EXTMIN
 10
0.0
 20
0.0
 30
0.0
  9
$EXTMAX
 10
1000.0
 20
1000.0
 30
0.0
  9
$FILLMODE
 70
 0
  9
$SPLFRAME
 70
 1
  0
ENDSEC
  0
SECTION
  2
TABLES
  0
TABLE
  2
LAYER
 70
1
  0
LAYER
  2
0
 70
     0
 62
     7
  6
CONTINUOUS
  0
ENDTAB
  0
ENDSEC
  0
SECTION
  2
ENTITIES
  0
LINE
  8
0
 62
     0
 10
6.58333
 20
7.11111
 30
0.0
 11
6.76383
 21
7.56597
 31
0.0
  0
LINE
  8
0
 62
     0
 10
6.76383
 20
7.56597
 30
0.0
 11
6.91667
 21
7.95833
 31
0.0
  0
LINE
  8
0
 62
     0
 10
6.91667
 20
7.95833
 30
0.0
 11
6.97217
 21
7.54172
 31
0.0
  0
LINE
  8
0
 62
     0
 10
6.97217
 20
7.54172
 30
0.0
 11
7.05556
 21
7.09722
 31
0.0
  0
LINE
  8
0
 62
     0
 10
7.05556
 20
7.09722
 30
0.0
 11
6.97917
 21
7.0981
 31
0.0
  0
LINE
  8
0
 62
     0
 10
6.97917
 20
7.0981
 30
0.0
 11
6.875
 21
7.10069
 31
0.0
  0
LINE
  8
0
 62
     0
 10
6.875
 20
7.10069
 30
0.0
 11
6.74306
 21
7.10504
 31
0.0
  0
LINE
  8
0
 62
     0
 10
6.74306
 20
7.10504
 30
0.0
 11
6.58333
 21
7.11111
 31
0.0
  0
LINE
  8
0
 62
     0
 10
6.18056
 20
6.11111
 30
0.0
 11
6.36285
 21
6.11199
 31
0.0
  0
LINE
  8
0
 62
     0
 10
6.36285
 20
6.11199
 30
0.0
 11
6.60417
 21
6.11458
 31
0.0
  0
LINE
  8
0
 62
     0
 10
6.60417
 20
6.11458
 30
0.0
 11
6.90451
 21
6.11893
 31
0.0
  0
LINE
  8
0
 62
     0
 10
6.90451
 20
6.11893
 30
0.0
 11
7.26389
 21
6.125
 31
0.0
  0
LINE
  8
0
 62
     0
 10
7.26389
 20
6.125
 30
0.0
 11
7.41297
 21
5.56125
 31
0.0
  0
LINE
  8
0
 62
     0
 10
7.41297
 20
5.56125
 30
0.0
 11
7.57915
 21
5.02263
 31
0.0
  0
LINE
  8
0
 62
     0
 10
7.57915
 20
5.02263
 30
0.0
 11
7.76237
 21
4.50917
 31
0.0
  0
LINE
  8
0
 62
     0
 10
7.76237
 20
4.50917
 30
0.0
 11
7.96263
 21
4.02089
 31
0.0
  0
LINE
  8
0
 62
     0
 10
7.96263
 20
4.02089
 30
0.0
 11
8.1799
 21
3.55778
 31
0.0
  0
LINE
  8
0
 62
     0
 10
8.1799
 20
3.55778
 30
0.0
 11
8.41422
 21
3.11985
 31
0.0
  0
LINE
  8
0
 62
     0
 10
8.41422
 20
3.11985
 30
0.0
 11
8.66558
 21
2.70708
 31
0.0
  0
LINE
  8
0
 62
     0
 10
8.66558
 20
2.70708
 30
0.0
 11
8.93397
 21
2.3195
 31
0.0
  0
LINE
  8
0
 62
     0
 10
8.93397
 20
2.3195
 30
0.0
 11
9.2194
 21
1.95708
 31
0.0
  0
LINE
  8
0
 62
     0
 10
9.2194
 20
1.95708
 30
0.0
 11
9.52186
 21
1.61985
 31
0.0
  0
LINE
  8
0
 62
     0
 10
9.52186
 20
1.61985
 30
0.0
 11
9.84136
 21
1.30778
 31
0.0
  0
LINE
  8
0
 62
     0
 10
9.84136
 20
1.30778
 30
0.0
 11
10.1779
 21
1.02089
 31
0.0
  0
LINE
  8
0
 62
     0
 10
10.1779
 20
1.02089
 30
0.0
 11
10.5315
 21
0.759169
 31
0.0
  0
LINE
  8
0
 62
     0
 10
10.5315
 20
0.759169
 30
0.0
 11
10.9021
 21
0.522624
 31
0.0
  0
LINE
  8
0
 62
     0
 10
10.9021
 20
0.522624
 30
0.0
 11
11.2897
 21
0.311253
 31
0.0
  0
LINE
  8
0
 62
     0
 10
11.2897
 20
0.311253
 30
0.0
 11
11.6944
 21
0.125
 31
0.0
  0
LINE
  8
0
 62
     0
 10
11.6944
 20
0.125
 30
0.0
 11
11.8409
 21
0.0781793
 31
0.0
  0
LINE
  8
0
 62
     0
 10
11.8409
 20
0.0781793
 30
0.0
 11
12.0026
 21
0.0556099
 31
0.0
  0
LINE
  8
0
 62
     0
 10
12.0026
 20
0.0556099
 30
0.0
 11
12.1795
 21
0.057346
 31
0.0
  0
LINE
  8
0
 62
     0
 10
12.1795
 20
0.057346
 30
0.0
 11
12.3715
 21
0.0833876
 31
0.0
  0
LINE
  8
0
 62
     0
 10
12.3715
 20
0.0833876
 30
0.0
 11
12.5788
 21
0.133735
 31
0.0
  0
LINE
  8
0
 62
     0
 10
12.5788
 20
0.133735
 30
0.0
 11
12.8012
 21
0.208387
 31
0.0
  0
LINE
  8
0
 62
     0
 10
12.8012
 20
0.208387
 30
0.0
 11
13.0388
 21
0.307346
 31
0.0
  0
LINE
  8
0
 62
     0
 10
13.0388
 20
0.307346
 30
0.0
 11
13.2917
 21
0.430556
 31
0.0
  0
LINE
  8
0
 62
     0
 10
13.2917
 20
0.430556
 30
0.0
 11
13.487
 21
0.541721
 31
0.0
  0
LINE
  8
0
 62
     0
 10
13.487
 20
0.541721
 30
0.0
 11
13.6424
 21
0.652778
 31
0.0
  0
LINE
  8
0
 62
     0
 10
13.6424
 20
0.652778
 30
0.0
 11
13.7578
 21
0.763889
 31
0.0
  0
LINE
  8
0
 62
     0
 10
13.7578
 20
0.763889
 30
0.0
 11
13.8333
 21
0.875
 31
0.0
  0
LINE
  8
0
 62
     0
 10
13.8333
 20
0.875
 30
0.0
 11
13.8733
 21
0.993056
 31
0.0
  0
LINE
  8
0
 62
     0
 10
13.8733
 20
0.993056
 30
0.0
 11
13.8542
 21
1.09722
 31
0.0
  0
LINE
  8
0
 62
     0
 10
13.8542
 20
1.09722
 30
0.0
 11
13.776
 21
1.1875
 31
0.0
  0
LINE
  8
0
 62
     0
 10
13.776
 20
1.1875
 30
0.0
 11
13.6389
 21
1.26389
 31
0.0
  0
LINE
  8
0
 62
     0
 10
13.6389
 20
1.26389
 30
0.0
 11
13.3049
 21
1.4184
 31
0.0
  0
LINE
  8
0
 62
     0
 10
13.3049
 20
1.4184
 30
0.0
 11
12.9837
 21
1.59375
 31
0.0
  0
LINE
  8
0
 62
     0
 10
12.9837
 20
1.59375
 30
0.0
 11
12.6751
 21
1.78993
 31
0.0
  0
LINE
  8
0
 62
     0
 10
12.6751
 20
1.78993
 30
0.0
 11
12.3793
 21
2.00694
 31
0.0
  0
LINE
  8
0
 62
     0
 10
12.3793
 20
2.00694
 30
0.0
 11
12.0961
 21
2.24479
 31
0.0
  0
LINE
  8
0
 62
     0
 10
12.0961
 20
2.24479
 30
0.0
 11
11.8257
 21
2.50347
 31
0.0
  0
LINE
  8
0
 62
     0
 10
11.8257
 20
2.50347
 30
0.0
 11
11.5679
 21
2.78299
 31
0.0
  0
LINE
  8
0
 62
     0
 10
11.5679
 20
2.78299
 30
0.0
 11
11.3229
 21
3.08333
 31
0.0
  0
LINE
  8
0
 62
     0
 10
11.3229
 20
3.08333
 30
0.0
 11
11.0906
 21
3.40457
 31
0.0
  0
LINE
  8
0
 62
     0
 10
11.0906
 20
3.40457
 30
0.0
 11
10.8709
 21
3.74658
 31
0.0
  0
LINE
  8
0
 62
     0
 10
10.8709
 20
3.74658
 30
0.0
 11
10.6639
 21
4.10943
 31
0.0
  0
LINE
  8
0
 62
     0
 10
10.6639
 20
4.10943
 30
0.0
 11
10.4696
 21
4.49311
 31
0.0
  0
LINE
  8
0
 62
     0
 10
10.4696
 20
4.49311
 30
0.0
 11
10.288
 21
4.89763
 31
0.0
  0
LINE
  8
0
 62
     0
 10
10.288
 20
4.89763
 30
0.0
 11
10.1191
 21
5.32297
 31
0.0
  0
LINE
  8
0
 62
     0
 10
10.1191
 20
5.32297
 30
0.0
 11
9.96294
 21
5.76915
 31
0.0
  0
LINE
  8
0
 62
     0
 10
9.96294
 20
5.76915
 30
0.0
 11
9.81944
 21
6.23611
 31
0.0
  0
LINE
  8
0
 62
     0
 10
9.81944
 20
6.23611
 30
0.0
 11
10.3055
 21
6.26133
 31
0.0
  0
LINE
  8
0
 62
     0
 10
10.3055
 20
6.26133
 30
0.0
 11
10.6944
 21
6.28125
 31
0.0
  0
LINE
  8
0
 62
     0
 10
10.6944
 20
6.28125
 30
0.0
 11
10.9861
 21
6.29601
 31
0.0
  0
LINE
  8
0
 62
     0
 10
10.9861
 20
6.29601
 30
0.0
 11
11.1806
 21
6.30556
 31
0.0
  0
LINE
  8
0
 62
     0
 10
11.1806
 20
6.30556
 30
0.0
 11
11.4844
 21
6.34814
 31
0.0
  0
LINE
  8
0
 62
     0
 10
11.4844
 20
6.34814
 30
0.0
 11
11.8125
 21
6.44797
 31
0.0
  0
LINE
  8
0
 62
     0
 10
11.8125
 20
6.44797
 30
0.0
 11
12.1649
 21
6.60508
 31
0.0
  0
LINE
  8
0
 62
     0
 10
12.1649
 20
6.60508
 30
0.0
 11
12.5417
 21
6.81944
 31
0.0
  0
LINE
  8
0
 62
     0
 10
12.5417
 20
6.81944
 30
0.0
 11
12.6857
 21
6.91151
 31
0.0
  0
LINE
  8
0
 62
     0
 10
12.6857
 20
6.91151
 30
0.0
 11
12.7847
 21
6.99311
 31
0.0
  0
LINE
  8
0
 62
     0
 10
12.7847
 20
6.99311
 30
0.0
 11
12.8385
 21
7.06429
 31
0.0
  0
LINE
  8
0
 62
     0
 10
12.8385
 20
7.06429
 30
0.0
 11
12.8472
 21
7.125
 31
0.0
  0
LINE
  8
0
 62
     0
 10
12.8472
 20
7.125
 30
0.0
 11
12.7943
 21
7.18419
 31
0.0
  0
LINE
  8
0
 62
     0
 10
12.7943
 20
7.18419
 30
0.0
 11
12.6771
 21
7.22239
 31
0.0
  0
LINE
  8
0
 62
     0
 10
12.6771
 20
7.22239
 30
0.0
 11
12.4957
 21
7.23975
 31
0.0
  0
LINE
  8
0
 62
     0
 10
12.4957
 20
7.23975
 30
0.0
 11
12.25
 21
7.23611
 31
0.0
  0
LINE
  8
0
 62
     0
 10
12.25
 20
7.23611
 30
0.0
 11
11.7348
 21
7.2099
 31
0.0
  0
LINE
  8
0
 62
     0
 10
11.7348
 20
7.2099
 30
0.0
 11
11.2726
 21
7.18668
 31
0.0
  0
LINE
  8
0
 62
     0
 10
11.2726
 20
7.18668
 30
0.0
 11
10.8633
 21
7.1665
 31
0.0
  0
LINE
  8
0
 62
     0
 10
10.8633
 20
7.1665
 30
0.0
 11
10.5069
 21
7.14936
 31
0.0
  0
LINE
  8
0
 62
     0
 10
10.5069
 20
7.14936
 30
0.0
 11
10.2036
 21
7.13525
 31
0.0
  0
LINE
  8
0
 62
     0
 10
10.2036
 20
7.13525
 30
0.0
 11
9.95313
 21
7.12418
 31
0.0
  0
LINE
  8
0
 62
     0
 10
9.95313
 20
7.12418
 30
0.0
 11
9.75564
 21
7.11615
 31
0.0
  0
LINE
  8
0
 62
     0
 10
9.75564
 20
7.11615
 30
0.0
 11
9.61111
 21
7.11111
 31
0.0
  0
LINE
  8
0
 62
     0
 10
9.61111
 20
7.11111
 30
0.0
 11
9.49419
 21
7.68647
 31
0.0
  0
LINE
  8
0
 62
     0
 10
9.49419
 20
7.68647
 30
0.0
 11
9.39344
 21
8.28754
 31
0.0
  0
LINE
  8
0
 62
     0
 10
9.39344
 20
8.28754
 30
0.0
 11
9.30886
 21
8.91433
 31
0.0
  0
LINE
  8
0
 62
     0
 10
9.30886
 20
8.91433
 30
0.0
 11
9.24046
 21
9.56685
 31
0.0
  0
LINE
  8
0
 62
     0
 10
9.24046
 20
9.56685
 30
0.0
 11
9.18821
 21
10.2451
 31
0.0
  0
LINE
  8
0
 62
     0
 10
9.18821
 20
10.2451
 30
0.0
 11
9.15213
 21
10.949
 31
0.0
  0
LINE
  8
0
 62
     0
 10
9.15213
 20
10.949
 30
0.0
 11
9.13222
 21
11.6787
 31
0.0
  0
LINE
  8
0
 62
     0
 10
9.13222
 20
11.6787
 30
0.0
 11
9.12847
 21
12.434
 31
0.0
  0
LINE
  8
0
 62
     0
 10
9.12847
 20
12.434
 30
0.0
 11
9.1409
 21
13.2151
 31
0.0
  0
LINE
  8
0
 62
     0
 10
9.1409
 20
13.2151
 30
0.0
 11
9.16949
 21
14.0219
 31
0.0
  0
LINE
  8
0
 62
     0
 10
9.16949
 20
14.0219
 30
0.0
 11
9.21425
 21
14.8544
 31
0.0
  0
LINE
  8
0
 62
     0
 10
9.21425
 20
14.8544
 30
0.0
 11
9.27518
 21
15.7126
 31
0.0
  0
LINE
  8
0
 62
     0
 10
9.27518
 20
15.7126
 30
0.0
 11
9.35226
 21
16.5967
 31
0.0
  0
LINE
  8
0
 62
     0
 10
9.35226
 20
16.5967
 30
0.0
 11
9.44553
 21
17.5062
 31
0.0
  0
LINE
  8
0
 62
     0
 10
9.44553
 20
17.5062
 30
0.0
 11
9.55496
 21
18.4417
 31
0.0
  0
LINE
  8
0
 62
     0
 10
9.55496
 20
18.4417
 30
0.0
 11
9.68056
 21
19.4028
 31
0.0
  0
LINE
  8
0
 62
     0
 10
9.68056
 20
19.4028
 30
0.0
 11
9.67708
 21
19.5504
 31
0.0
  0
LINE
  8
0
 62
     0
 10
9.67708
 20
19.5504
 30
0.0
 11
9.625
 21
19.6736
 31
0.0
  0
LINE
  8
0
 62
     0
 10
9.625
 20
19.6736
 30
0.0
 11
9.52431
 21
19.7726
 31
0.0
  0
LINE
  8
0
 62
     0
 10
9.52431
 20
19.7726
 30
0.0
 11
9.375
 21
19.8472
 31
0.0
  0
LINE
  8
0
 62
     0
 10
9.375
 20
19.8472
 30
0.0
 11
9.204
 21
19.8907
 31
0.0
  0
LINE
  8
0
 62
     0
 10
9.204
 20
19.8907
 30
0.0
 11
9.01042
 21
19.9097
 31
0.0
  0
LINE
  8
0
 62
     0
 10
9.01042
 20
19.9097
 30
0.0
 11
8.79428
 21
19.9046
 31
0.0
  0
LINE
  8
0
 62
     0
 10
8.79428
 20
19.9046
 30
0.0
 11
8.55556
 21
19.875
 31
0.0
  0
LINE
  8
0
 62
     0
 10
8.55556
 20
19.875
 30
0.0
 11
8.32026
 21
19.8308
 31
0.0
  0
LINE
  8
0
 62
     0
 10
8.32026
 20
19.8308
 30
0.0
 11
8.10064
 21
19.7674
 31
0.0
  0
LINE
  8
0
 62
     0
 10
8.10064
 20
19.7674
 30
0.0
 11
7.89665
 21
19.685
 31
0.0
  0
LINE
  8
0
 62
     0
 10
7.89665
 20
19.685
 30
0.0
 11
7.70833
 21
19.5833
 31
0.0
  0
LINE
  8
0
 62
     0
 10
7.70833
 20
19.5833
 30
0.0
 11
7.52425
 21
19.4688
 31
0.0
  0
LINE
  8
0
 62
     0
 10
7.52425
 20
19.4688
 30
0.0
 11
7.38883
 21
19.3472
 31
0.0
  0
LINE
  8
0
 62
     0
 10
7.38883
 20
19.3472
 30
0.0
 11
7.30203
 21
19.2188
 31
0.0
  0
LINE
  8
0
 62
     0
 10
7.30203
 20
19.2188
 30
0.0
 11
7.26389
 21
19.0833
 31
0.0
  0
LINE
  8
0
 62
     0
 10
7.26389
 20
19.0833
 30
0.0
 11
7.01785
 21
17.5287
 31
0.0
  0
LINE
  8
0
 62
     0
 10
7.01785
 20
17.5287
 30
0.0
 11
6.74501
 21
16.0179
 31
0.0
  0
LINE
  8
0
 62
     0
 10
6.74501
 20
16.0179
 30
0.0
 11
6.44536
 21
14.5506
 31
0.0
  0
LINE
  8
0
 62
     0
 10
6.44536
 20
14.5506
 30
0.0
 11
6.11893
 21
13.1268
 31
0.0
  0
LINE
  8
0
 62
     0
 10
6.11893
 20
13.1268
 30
0.0
 11
5.76568
 21
11.7467
 31
0.0
  0
LINE
  8
0
 62
     0
 10
5.76568
 20
11.7467
 30
0.0
 11
5.38564
 21
10.4102
 31
0.0
  0
LINE
  8
0
 62
     0
 10
5.38564
 20
10.4102
 30
0.0
 11
4.97879
 21
9.11735
 31
0.0
  0
LINE
  8
0
 62
     0
 10
4.97879
 20
9.11735
 30
0.0
 11
4.54514
 21
7.86806
 31
0.0
  0
LINE
  8
0
 62
     0
 10
4.54514
 20
7.86806
 30
0.0
 11
4.08469
 21
6.66243
 31
0.0
  0
LINE
  8
0
 62
     0
 10
4.08469
 20
6.66243
 30
0.0
 11
3.59744
 21
5.50043
 31
0.0
  0
LINE
  8
0
 62
     0
 10
3.59744
 20
5.50043
 30
0.0
 11
3.08339
 21
4.38206
 31
0.0
  0
LINE
  8
0
 62
     0
 10
3.08339
 20
4.38206
 30
0.0
 11
2.54254
 21
3.30729
 31
0.0
  0
LINE
  8
0
 62
     0
 10
2.54254
 20
3.30729
 30
0.0
 11
1.97487
 21
2.27615
 31
0.0
  0
LINE
  8
0
 62
     0
 10
1.97487
 20
2.27615
 30
0.0
 11
1.38043
 21
1.28863
 31
0.0
  0
LINE
  8
0
 62
     0
 10
1.38043
 20
1.28863
 30
0.0
 11
0.759169
 21
0.344726
 31
0.0
  0
LINE
  8
0
 62
     0
 10
0.759169
 20
0.344726
 30
0.0
 11
0.111111
 21
-0.555556
 31
0.0
  0
LINE
  8
0
 62
     0
 10
0.111111
 20
-0.555556
 30
0.0
 11
0.0294596
 21
-0.692708
 31
0.0
  0
LINE
  8
0
 62
     0
 10
0.0294596
 20
-0.692708
 30
0.0
 11
0.00689019
 21
-0.8125
 31
0.0
  0
LINE
  8
0
 62
     0
 10
0.00689019
 20
-0.8125
 30
0.0
 11
0.0433485
 21
-0.914931
 31
0.0
  0
LINE
  8
0
 62
     0
 10
0.0433485
 20
-0.914931
 30
0.0
 11
0.138889
 21
-1
 31
0.0
  0
LINE
  8
0
 62
     0
 10
0.138889
 20
-1
 30
0.0
 11
0.260417
 21
-1.05382
 31
0.0
  0
LINE
  8
0
 62
     0
 10
0.260417
 20
-1.05382
 30
0.0
 11
0.416667
 21
-1.09028
 31
0.0
  0
LINE
  8
0
 62
     0
 10
0.416667
 20
-1.09028
 30
0.0
 11
0.607639
 21
-1.10938
 31
0.0
  0
LINE
  8
0
 62
     0
 10
0.607639
 20
-1.10938
 30
0.0
 11
0.833333
 21
-1.11111
 31
0.0
  0
LINE
  8
0
 62
     0
 10
0.833333
 20
-1.11111
 30
0.0
 11
1.11241
 21
-1.09044
 31
0.0
  0
LINE
  8
0
 62
     0
 10
1.11241
 20
-1.09044
 30
0.0
 11
1.36632
 21
-1.05637
 31
0.0
  0
LINE
  8
0
 62
     0
 10
1.36632
 20
-1.05637
 30
0.0
 11
1.59506
 21
-1.00884
 31
0.0
  0
LINE
  8
0
 62
     0
 10
1.59506
 20
-1.00884
 30
0.0
 11
1.79861
 21
-0.947863
 31
0.0
  0
LINE
  8
0
 62
     0
 10
1.79861
 20
-0.947863
 30
0.0
 11
1.977
 21
-0.873426
 31
0.0
  0
LINE
  8
0
 62
     0
 10
1.977
 20
-0.873426
 30
0.0
 11
2.13021
 21
-0.785536
 31
0.0
  0
LINE
  8
0
 62
     0
 10
2.13021
 20
-0.785536
 30
0.0
 11
2.25825
 21
-0.68419
 31
0.0
  0
LINE
  8
0
 62
     0
 10
2.25825
 20
-0.68419
 30
0.0
 11
2.36111
 21
-0.569444
 31
0.0
  0
LINE
  8
0
 62
     0
 10
2.36111
 20
-0.569444
 30
0.0
 11
2.9069
 21
0.179036
 31
0.0
  0
LINE
  8
0
 62
     0
 10
2.9069
 20
0.179036
 30
0.0
 11
3.43317
 21
0.952257
 31
0.0
  0
LINE
  8
0
 62
     0
 10
3.43317
 20
0.952257
 30
0.0
 11
3.93989
 21
1.75022
 31
0.0
  0
LINE
  8
0
 62
     0
 10
3.93989
 20
1.75022
 30
0.0
 11
4.42708
 21
2.57292
 31
0.0
  0
LINE
  8
0
 62
     0
 10
4.42708
 20
2.57292
 30
0.0
 11
4.89469
 21
3.42042
 31
0.0
  0
LINE
  8
0
 62
     0
 10
4.89469
 20
3.42042
 30
0.0
 11
5.34283
 21
4.29258
 31
0.0
  0
LINE
  8
0
 62
     0
 10
5.34283
 20
4.29258
 30
0.0
 11
5.77143
 21
5.18951
 31
0.0
  0
LINE
  8
0
 62
     0
 10
5.77143
 20
5.18951
 30
0.0
 11
6.18056
 21
6.11111
 31
0.0
  0
ENDSEC
  0
EOF
