  0
SECTION
  2
HEADER
  9
$ACADVER
  1
AC1009
  9
$EXTMIN
 10
0.0
 20
0.0
 30
0.0
  9
$EXTMAX
 10
1000.0
 20
1000.0
 30
0.0
  9
$FILLMODE
 70
 0
  9
$SPLFRAME
 70
 1
  0
ENDSEC
  0
SECTION
  2
TABLES
  0
TABLE
  2
LAYER
 70
1
  0
LAYER
  2
0
 70
     0
 62
     7
  6
CONTINUOUS
  0
ENDTAB
  0
ENDSEC
  0
SECTION
  2
ENTITIES
  0
LINE
  8
0
 62
     0
 10
3.08333
 20
15.625
 30
0.0
 11
2.9809
 21
15.5625
 31
0.0
  0
LINE
  8
0
 62
     0
 10
2.9809
 20
15.5625
 30
0.0
 11
2.92361
 21
15.4861
 31
0.0
  0
LINE
  8
0
 62
     0
 10
2.92361
 20
15.4861
 30
0.0
 11
2.91146
 21
15.3958
 31
0.0
  0
LINE
  8
0
 62
     0
 10
2.91146
 20
15.3958
 30
0.0
 11
2.94444
 21
15.2917
 31
0.0
  0
LINE
  8
0
 62
     0
 10
2.94444
 20
15.2917
 30
0.0
 11
3.00694
 21
15.2006
 31
0.0
  0
LINE
  8
0
 62
     0
 10
3.00694
 20
15.2006
 30
0.0
 11
3.09722
 21
15.1076
 31
0.0
  0
LINE
  8
0
 62
     0
 10
3.09722
 20
15.1076
 30
0.0
 11
3.21528
 21
15.0131
 31
0.0
  0
LINE
  8
0
 62
     0
 10
3.21528
 20
15.0131
 30
0.0
 11
3.36111
 21
14.9167
 31
0.0
  0
LINE
  8
0
 62
     0
 10
3.36111
 20
14.9167
 30
0.0
 11
3.67361
 21
14.75
 31
0.0
  0
LINE
  8
0
 62
     0
 10
3.67361
 20
14.75
 30
0.0
 11
4
 21
14.6389
 31
0.0
  0
LINE
  8
0
 62
     0
 10
4
 20
14.6389
 30
0.0
 11
4.16922
 21
14.6076
 31
0.0
  0
LINE
  8
0
 62
     0
 10
4.16922
 20
14.6076
 30
0.0
 11
4.31592
 21
14.5972
 31
0.0
  0
LINE
  8
0
 62
     0
 10
4.31592
 20
14.5972
 30
0.0
 11
4.44006
 21
14.6076
 31
0.0
  0
LINE
  8
0
 62
     0
 10
4.44006
 20
14.6076
 30
0.0
 11
4.54167
 21
14.6389
 31
0.0
  0
LINE
  8
0
 62
     0
 10
4.54167
 20
14.6389
 30
0.0
 11
5.09413
 21
14.9035
 31
0.0
  0
LINE
  8
0
 62
     0
 10
5.09413
 20
14.9035
 30
0.0
 11
5.61279
 21
15.1554
 31
0.0
  0
LINE
  8
0
 62
     0
 10
5.61279
 20
15.1554
 30
0.0
 11
6.0976
 21
15.3947
 31
0.0
  0
LINE
  8
0
 62
     0
 10
6.0976
 20
15.3947
 30
0.0
 11
6.54861
 21
15.6215
 31
0.0
  0
LINE
  8
0
 62
     0
 10
6.54861
 20
15.6215
 30
0.0
 11
6.96571
 21
15.8357
 31
0.0
  0
LINE
  8
0
 62
     0
 10
6.96571
 20
15.8357
 30
0.0
 11
7.34896
 21
16.0374
 31
0.0
  0
LINE
  8
0
 62
     0
 10
7.34896
 20
16.0374
 30
0.0
 11
7.69835
 21
16.2264
 31
0.0
  0
LINE
  8
0
 62
     0
 10
7.69835
 20
16.2264
 30
0.0
 11
8.01389
 21
16.4028
 31
0.0
  0
LINE
  8
0
 62
     0
 10
8.01389
 20
16.4028
 30
0.0
 11
8.92014
 21
16.9506
 31
0.0
  0
LINE
  8
0
 62
     0
 10
8.92014
 20
16.9506
 30
0.0
 11
9.76389
 21
17.5104
 31
0.0
  0
LINE
  8
0
 62
     0
 10
9.76389
 20
17.5104
 30
0.0
 11
10.5451
 21
18.0825
 31
0.0
  0
LINE
  8
0
 62
     0
 10
10.5451
 20
18.0825
 30
0.0
 11
11.2639
 21
18.6667
 31
0.0
  0
LINE
  8
0
 62
     0
 10
11.2639
 20
18.6667
 30
0.0
 11
11.3203
 21
18.7406
 31
0.0
  0
LINE
  8
0
 62
     0
 10
11.3203
 20
18.7406
 30
0.0
 11
11.3367
 21
18.8229
 31
0.0
  0
LINE
  8
0
 62
     0
 10
11.3367
 20
18.8229
 30
0.0
 11
11.3133
 21
18.9142
 31
0.0
  0
LINE
  8
0
 62
     0
 10
11.3133
 20
18.9142
 30
0.0
 11
11.25
 21
19.0139
 31
0.0
  0
LINE
  8
0
 62
     0
 10
11.25
 20
19.0139
 30
0.0
 11
11.0486
 21
19.2049
 31
0.0
  0
LINE
  8
0
 62
     0
 10
11.0486
 20
19.2049
 30
0.0
 11
10.75
 21
19.3889
 31
0.0
  0
LINE
  8
0
 62
     0
 10
10.75
 20
19.3889
 30
0.0
 11
10.4201
 21
19.5243
 31
0.0
  0
LINE
  8
0
 62
     0
 10
10.4201
 20
19.5243
 30
0.0
 11
10.0972
 21
19.5972
 31
0.0
  0
LINE
  8
0
 62
     0
 10
10.0972
 20
19.5972
 30
0.0
 11
9.92796
 21
19.606
 31
0.0
  0
LINE
  8
0
 62
     0
 10
9.92796
 20
19.606
 30
0.0
 11
9.78125
 21
19.5903
 31
0.0
  0
LINE
  8
0
 62
     0
 10
9.78125
 20
19.5903
 30
0.0
 11
9.65712
 21
19.5504
 31
0.0
  0
LINE
  8
0
 62
     0
 10
9.65712
 20
19.5504
 30
0.0
 11
9.55556
 21
19.4861
 31
0.0
  0
LINE
  8
0
 62
     0
 10
9.55556
 20
19.4861
 30
0.0
 11
9.02604
 21
19.0551
 31
0.0
  0
LINE
  8
0
 62
     0
 10
9.02604
 20
19.0551
 30
0.0
 11
8.41667
 21
18.6094
 31
0.0
  0
LINE
  8
0
 62
     0
 10
8.41667
 20
18.6094
 30
0.0
 11
7.72743
 21
18.1489
 31
0.0
  0
LINE
  8
0
 62
     0
 10
7.72743
 20
18.1489
 30
0.0
 11
6.95833
 21
17.6736
 31
0.0
  0
LINE
  8
0
 62
     0
 10
6.95833
 20
17.6736
 30
0.0
 11
6.10938
 21
17.1836
 31
0.0
  0
LINE
  8
0
 62
     0
 10
6.10938
 20
17.1836
 30
0.0
 11
5.18056
 21
16.6789
 31
0.0
  0
LINE
  8
0
 62
     0
 10
5.18056
 20
16.6789
 30
0.0
 11
4.17188
 21
16.1593
 31
0.0
  0
LINE
  8
0
 62
     0
 10
4.17188
 20
16.1593
 30
0.0
 11
3.08333
 21
15.625
 31
0.0
  0
ENDSEC
  0
EOF
