  0
SECTION
  2
HEADER
  9
$ACADVER
  1
AC1009
  9
$EXTMIN
 10
0.0
 20
0.0
 30
0.0
  9
$EXTMAX
 10
1000.0
 20
1000.0
 30
0.0
  9
$FILLMODE
 70
 0
  9
$SPLFRAME
 70
 1
  0
ENDSEC
  0
SECTION
  2
TABLES
  0
TABLE
  2
LAYER
 70
1
  0
LAYER
  2
0
 70
     0
 62
     7
  6
CONTINUOUS
  0
ENDTAB
  0
ENDSEC
  0
SECTION
  2
ENTITIES
  0
LINE
  8
0
 62
     0
 10
30.5694
 20
7.11111
 30
0.0
 11
30.75
 21
7.56597
 31
0.0
  0
LINE
  8
0
 62
     0
 10
30.75
 20
7.56597
 30
0.0
 11
30.9028
 21
7.95833
 31
0.0
  0
LINE
  8
0
 62
     0
 10
30.9028
 20
7.95833
 30
0.0
 11
30.9583
 21
7.54172
 31
0.0
  0
LINE
  8
0
 62
     0
 10
30.9583
 20
7.54172
 30
0.0
 11
31.0417
 21
7.09722
 31
0.0
  0
LINE
  8
0
 62
     0
 10
31.0417
 20
7.09722
 30
0.0
 11
30.9653
 21
7.0981
 31
0.0
  0
LINE
  8
0
 62
     0
 10
30.9653
 20
7.0981
 30
0.0
 11
30.8611
 21
7.10069
 31
0.0
  0
LINE
  8
0
 62
     0
 10
30.8611
 20
7.10069
 30
0.0
 11
30.7292
 21
7.10504
 31
0.0
  0
LINE
  8
0
 62
     0
 10
30.7292
 20
7.10504
 30
0.0
 11
30.5694
 21
7.11111
 31
0.0
  0
LINE
  8
0
 62
     0
 10
30.1667
 20
6.11111
 30
0.0
 11
30.349
 21
6.11199
 31
0.0
  0
LINE
  8
0
 62
     0
 10
30.349
 20
6.11199
 30
0.0
 11
30.5903
 21
6.11458
 31
0.0
  0
LINE
  8
0
 62
     0
 10
30.5903
 20
6.11458
 30
0.0
 11
30.8907
 21
6.11893
 31
0.0
  0
LINE
  8
0
 62
     0
 10
30.8907
 20
6.11893
 30
0.0
 11
31.25
 21
6.125
 31
0.0
  0
LINE
  8
0
 62
     0
 10
31.25
 20
6.125
 30
0.0
 11
31.399
 21
5.56125
 31
0.0
  0
LINE
  8
0
 62
     0
 10
31.399
 20
5.56125
 30
0.0
 11
31.5653
 21
5.02263
 31
0.0
  0
LINE
  8
0
 62
     0
 10
31.5653
 20
5.02263
 30
0.0
 11
31.7485
 21
4.50917
 31
0.0
  0
LINE
  8
0
 62
     0
 10
31.7485
 20
4.50917
 30
0.0
 11
31.9488
 21
4.02089
 31
0.0
  0
LINE
  8
0
 62
     0
 10
31.9488
 20
4.02089
 30
0.0
 11
32.166
 21
3.55778
 31
0.0
  0
LINE
  8
0
 62
     0
 10
32.166
 20
3.55778
 30
0.0
 11
32.4003
 21
3.11985
 31
0.0
  0
LINE
  8
0
 62
     0
 10
32.4003
 20
3.11985
 30
0.0
 11
32.6517
 21
2.70708
 31
0.0
  0
LINE
  8
0
 62
     0
 10
32.6517
 20
2.70708
 30
0.0
 11
32.9201
 21
2.3195
 31
0.0
  0
LINE
  8
0
 62
     0
 10
32.9201
 20
2.3195
 30
0.0
 11
33.2056
 21
1.95708
 31
0.0
  0
LINE
  8
0
 62
     0
 10
33.2056
 20
1.95708
 30
0.0
 11
33.5079
 21
1.61985
 31
0.0
  0
LINE
  8
0
 62
     0
 10
33.5079
 20
1.61985
 30
0.0
 11
33.8275
 21
1.30778
 31
0.0
  0
LINE
  8
0
 62
     0
 10
33.8275
 20
1.30778
 30
0.0
 11
34.164
 21
1.02089
 31
0.0
  0
LINE
  8
0
 62
     0
 10
34.164
 20
1.02089
 30
0.0
 11
34.5176
 21
0.759169
 31
0.0
  0
LINE
  8
0
 62
     0
 10
34.5176
 20
0.759169
 30
0.0
 11
34.8882
 21
0.522624
 31
0.0
  0
LINE
  8
0
 62
     0
 10
34.8882
 20
0.522624
 30
0.0
 11
35.2758
 21
0.311253
 31
0.0
  0
LINE
  8
0
 62
     0
 10
35.2758
 20
0.311253
 30
0.0
 11
35.6806
 21
0.125
 31
0.0
  0
LINE
  8
0
 62
     0
 10
35.6806
 20
0.125
 30
0.0
 11
35.8271
 21
0.0781793
 31
0.0
  0
LINE
  8
0
 62
     0
 10
35.8271
 20
0.0781793
 30
0.0
 11
35.9887
 21
0.0556099
 31
0.0
  0
LINE
  8
0
 62
     0
 10
35.9887
 20
0.0556099
 30
0.0
 11
36.1656
 21
0.057346
 31
0.0
  0
LINE
  8
0
 62
     0
 10
36.1656
 20
0.057346
 30
0.0
 11
36.3576
 21
0.0833876
 31
0.0
  0
LINE
  8
0
 62
     0
 10
36.3576
 20
0.0833876
 30
0.0
 11
36.5649
 21
0.133735
 31
0.0
  0
LINE
  8
0
 62
     0
 10
36.5649
 20
0.133735
 30
0.0
 11
36.7874
 21
0.208387
 31
0.0
  0
LINE
  8
0
 62
     0
 10
36.7874
 20
0.208387
 30
0.0
 11
37.025
 21
0.307346
 31
0.0
  0
LINE
  8
0
 62
     0
 10
37.025
 20
0.307346
 30
0.0
 11
37.2778
 21
0.430556
 31
0.0
  0
LINE
  8
0
 62
     0
 10
37.2778
 20
0.430556
 30
0.0
 11
37.4731
 21
0.541721
 31
0.0
  0
LINE
  8
0
 62
     0
 10
37.4731
 20
0.541721
 30
0.0
 11
37.6285
 21
0.652778
 31
0.0
  0
LINE
  8
0
 62
     0
 10
37.6285
 20
0.652778
 30
0.0
 11
37.7439
 21
0.763889
 31
0.0
  0
LINE
  8
0
 62
     0
 10
37.7439
 20
0.763889
 30
0.0
 11
37.8194
 21
0.875
 31
0.0
  0
LINE
  8
0
 62
     0
 10
37.8194
 20
0.875
 30
0.0
 11
37.8594
 21
0.993056
 31
0.0
  0
LINE
  8
0
 62
     0
 10
37.8594
 20
0.993056
 30
0.0
 11
37.8403
 21
1.09722
 31
0.0
  0
LINE
  8
0
 62
     0
 10
37.8403
 20
1.09722
 30
0.0
 11
37.7622
 21
1.1875
 31
0.0
  0
LINE
  8
0
 62
     0
 10
37.7622
 20
1.1875
 30
0.0
 11
37.625
 21
1.26389
 31
0.0
  0
LINE
  8
0
 62
     0
 10
37.625
 20
1.26389
 30
0.0
 11
37.291
 21
1.4184
 31
0.0
  0
LINE
  8
0
 62
     0
 10
37.291
 20
1.4184
 30
0.0
 11
36.9697
 21
1.59375
 31
0.0
  0
LINE
  8
0
 62
     0
 10
36.9697
 20
1.59375
 30
0.0
 11
36.6613
 21
1.78993
 31
0.0
  0
LINE
  8
0
 62
     0
 10
36.6613
 20
1.78993
 30
0.0
 11
36.3654
 21
2.00694
 31
0.0
  0
LINE
  8
0
 62
     0
 10
36.3654
 20
2.00694
 30
0.0
 11
36.0824
 21
2.24479
 31
0.0
  0
LINE
  8
0
 62
     0
 10
36.0824
 20
2.24479
 30
0.0
 11
35.8118
 21
2.50347
 31
0.0
  0
LINE
  8
0
 62
     0
 10
35.8118
 20
2.50347
 30
0.0
 11
35.554
 21
2.78299
 31
0.0
  0
LINE
  8
0
 62
     0
 10
35.554
 20
2.78299
 30
0.0
 11
35.309
 21
3.08333
 31
0.0
  0
LINE
  8
0
 62
     0
 10
35.309
 20
3.08333
 30
0.0
 11
35.0767
 21
3.40457
 31
0.0
  0
LINE
  8
0
 62
     0
 10
35.0767
 20
3.40457
 30
0.0
 11
34.8569
 21
3.74658
 31
0.0
  0
LINE
  8
0
 62
     0
 10
34.8569
 20
3.74658
 30
0.0
 11
34.65
 21
4.10943
 31
0.0
  0
LINE
  8
0
 62
     0
 10
34.65
 20
4.10943
 30
0.0
 11
34.4557
 21
4.49311
 31
0.0
  0
LINE
  8
0
 62
     0
 10
34.4557
 20
4.49311
 30
0.0
 11
34.2742
 21
4.89763
 31
0.0
  0
LINE
  8
0
 62
     0
 10
34.2742
 20
4.89763
 30
0.0
 11
34.1053
 21
5.32297
 31
0.0
  0
LINE
  8
0
 62
     0
 10
34.1053
 20
5.32297
 30
0.0
 11
33.949
 21
5.76915
 31
0.0
  0
LINE
  8
0
 62
     0
 10
33.949
 20
5.76915
 30
0.0
 11
33.8056
 21
6.23611
 31
0.0
  0
LINE
  8
0
 62
     0
 10
33.8056
 20
6.23611
 30
0.0
 11
34.2917
 21
6.26133
 31
0.0
  0
LINE
  8
0
 62
     0
 10
34.2917
 20
6.26133
 30
0.0
 11
34.6806
 21
6.28125
 31
0.0
  0
LINE
  8
0
 62
     0
 10
34.6806
 20
6.28125
 30
0.0
 11
34.9722
 21
6.29601
 31
0.0
  0
LINE
  8
0
 62
     0
 10
34.9722
 20
6.29601
 30
0.0
 11
35.1667
 21
6.30556
 31
0.0
  0
LINE
  8
0
 62
     0
 10
35.1667
 20
6.30556
 30
0.0
 11
35.4706
 21
6.34814
 31
0.0
  0
LINE
  8
0
 62
     0
 10
35.4706
 20
6.34814
 30
0.0
 11
35.7986
 21
6.44797
 31
0.0
  0
LINE
  8
0
 62
     0
 10
35.7986
 20
6.44797
 30
0.0
 11
36.1511
 21
6.60508
 31
0.0
  0
LINE
  8
0
 62
     0
 10
36.1511
 20
6.60508
 30
0.0
 11
36.5278
 21
6.81944
 31
0.0
  0
LINE
  8
0
 62
     0
 10
36.5278
 20
6.81944
 30
0.0
 11
36.6718
 21
6.91151
 31
0.0
  0
LINE
  8
0
 62
     0
 10
36.6718
 20
6.91151
 30
0.0
 11
36.7708
 21
6.99311
 31
0.0
  0
LINE
  8
0
 62
     0
 10
36.7708
 20
6.99311
 30
0.0
 11
36.8246
 21
7.06429
 31
0.0
  0
LINE
  8
0
 62
     0
 10
36.8246
 20
7.06429
 30
0.0
 11
36.8333
 21
7.125
 31
0.0
  0
LINE
  8
0
 62
     0
 10
36.8333
 20
7.125
 30
0.0
 11
36.7804
 21
7.18419
 31
0.0
  0
LINE
  8
0
 62
     0
 10
36.7804
 20
7.18419
 30
0.0
 11
36.6632
 21
7.22239
 31
0.0
  0
LINE
  8
0
 62
     0
 10
36.6632
 20
7.22239
 30
0.0
 11
36.4818
 21
7.23975
 31
0.0
  0
LINE
  8
0
 62
     0
 10
36.4818
 20
7.23975
 30
0.0
 11
36.2361
 21
7.23611
 31
0.0
  0
LINE
  8
0
 62
     0
 10
36.2361
 20
7.23611
 30
0.0
 11
35.721
 21
7.2099
 31
0.0
  0
LINE
  8
0
 62
     0
 10
35.721
 20
7.2099
 30
0.0
 11
35.2587
 21
7.18668
 31
0.0
  0
LINE
  8
0
 62
     0
 10
35.2587
 20
7.18668
 30
0.0
 11
34.8494
 21
7.1665
 31
0.0
  0
LINE
  8
0
 62
     0
 10
34.8494
 20
7.1665
 30
0.0
 11
34.4931
 21
7.14936
 31
0.0
  0
LINE
  8
0
 62
     0
 10
34.4931
 20
7.14936
 30
0.0
 11
34.1897
 21
7.13525
 31
0.0
  0
LINE
  8
0
 62
     0
 10
34.1897
 20
7.13525
 30
0.0
 11
33.9393
 21
7.12418
 31
0.0
  0
LINE
  8
0
 62
     0
 10
33.9393
 20
7.12418
 30
0.0
 11
33.7418
 21
7.11615
 31
0.0
  0
LINE
  8
0
 62
     0
 10
33.7418
 20
7.11615
 30
0.0
 11
33.5972
 21
7.11111
 31
0.0
  0
LINE
  8
0
 62
     0
 10
33.5972
 20
7.11111
 30
0.0
 11
33.4803
 21
7.68647
 31
0.0
  0
LINE
  8
0
 62
     0
 10
33.4803
 20
7.68647
 30
0.0
 11
33.3796
 21
8.28754
 31
0.0
  0
LINE
  8
0
 62
     0
 10
33.3796
 20
8.28754
 30
0.0
 11
33.295
 21
8.91433
 31
0.0
  0
LINE
  8
0
 62
     0
 10
33.295
 20
8.91433
 30
0.0
 11
33.2265
 21
9.56685
 31
0.0
  0
LINE
  8
0
 62
     0
 10
33.2265
 20
9.56685
 30
0.0
 11
33.1743
 21
10.2451
 31
0.0
  0
LINE
  8
0
 62
     0
 10
33.1743
 20
10.2451
 30
0.0
 11
33.1382
 21
10.949
 31
0.0
  0
LINE
  8
0
 62
     0
 10
33.1382
 20
10.949
 30
0.0
 11
33.1183
 21
11.6787
 31
0.0
  0
LINE
  8
0
 62
     0
 10
33.1183
 20
11.6787
 30
0.0
 11
33.1146
 21
12.434
 31
0.0
  0
LINE
  8
0
 62
     0
 10
33.1146
 20
12.434
 30
0.0
 11
33.1269
 21
13.2151
 31
0.0
  0
LINE
  8
0
 62
     0
 10
33.1269
 20
13.2151
 30
0.0
 11
33.1556
 21
14.0219
 31
0.0
  0
LINE
  8
0
 62
     0
 10
33.1556
 20
14.0219
 30
0.0
 11
33.2004
 21
14.8544
 31
0.0
  0
LINE
  8
0
 62
     0
 10
33.2004
 20
14.8544
 30
0.0
 11
33.2613
 21
15.7126
 31
0.0
  0
LINE
  8
0
 62
     0
 10
33.2613
 20
15.7126
 30
0.0
 11
33.3383
 21
16.5967
 31
0.0
  0
LINE
  8
0
 62
     0
 10
33.3383
 20
16.5967
 30
0.0
 11
33.4317
 21
17.5062
 31
0.0
  0
LINE
  8
0
 62
     0
 10
33.4317
 20
17.5062
 30
0.0
 11
33.5411
 21
18.4417
 31
0.0
  0
LINE
  8
0
 62
     0
 10
33.5411
 20
18.4417
 30
0.0
 11
33.6667
 21
19.4028
 31
0.0
  0
LINE
  8
0
 62
     0
 10
33.6667
 20
19.4028
 30
0.0
 11
33.6632
 21
19.5504
 31
0.0
  0
LINE
  8
0
 62
     0
 10
33.6632
 20
19.5504
 30
0.0
 11
33.6111
 21
19.6736
 31
0.0
  0
LINE
  8
0
 62
     0
 10
33.6111
 20
19.6736
 30
0.0
 11
33.5104
 21
19.7726
 31
0.0
  0
LINE
  8
0
 62
     0
 10
33.5104
 20
19.7726
 30
0.0
 11
33.3611
 21
19.8472
 31
0.0
  0
LINE
  8
0
 62
     0
 10
33.3611
 20
19.8472
 30
0.0
 11
33.1901
 21
19.8907
 31
0.0
  0
LINE
  8
0
 62
     0
 10
33.1901
 20
19.8907
 30
0.0
 11
32.9965
 21
19.9097
 31
0.0
  0
LINE
  8
0
 62
     0
 10
32.9965
 20
19.9097
 30
0.0
 11
32.7804
 21
19.9046
 31
0.0
  0
LINE
  8
0
 62
     0
 10
32.7804
 20
19.9046
 30
0.0
 11
32.5417
 21
19.875
 31
0.0
  0
LINE
  8
0
 62
     0
 10
32.5417
 20
19.875
 30
0.0
 11
32.3061
 21
19.8308
 31
0.0
  0
LINE
  8
0
 62
     0
 10
32.3061
 20
19.8308
 30
0.0
 11
32.0864
 21
19.7674
 31
0.0
  0
LINE
  8
0
 62
     0
 10
32.0864
 20
19.7674
 30
0.0
 11
31.8825
 21
19.685
 31
0.0
  0
LINE
  8
0
 62
     0
 10
31.8825
 20
19.685
 30
0.0
 11
31.6944
 21
19.5833
 31
0.0
  0
LINE
  8
0
 62
     0
 10
31.6944
 20
19.5833
 30
0.0
 11
31.5104
 21
19.4688
 31
0.0
  0
LINE
  8
0
 62
     0
 10
31.5104
 20
19.4688
 30
0.0
 11
31.375
 21
19.3472
 31
0.0
  0
LINE
  8
0
 62
     0
 10
31.375
 20
19.3472
 30
0.0
 11
31.2882
 21
19.2188
 31
0.0
  0
LINE
  8
0
 62
     0
 10
31.2882
 20
19.2188
 30
0.0
 11
31.25
 21
19.0833
 31
0.0
  0
LINE
  8
0
 62
     0
 10
31.25
 20
19.0833
 30
0.0
 11
31.004
 21
17.5287
 31
0.0
  0
LINE
  8
0
 62
     0
 10
31.004
 20
17.5287
 30
0.0
 11
30.7311
 21
16.0179
 31
0.0
  0
LINE
  8
0
 62
     0
 10
30.7311
 20
16.0179
 30
0.0
 11
30.4315
 21
14.5506
 31
0.0
  0
LINE
  8
0
 62
     0
 10
30.4315
 20
14.5506
 30
0.0
 11
30.105
 21
13.1268
 31
0.0
  0
LINE
  8
0
 62
     0
 10
30.105
 20
13.1268
 30
0.0
 11
29.7518
 21
11.7467
 31
0.0
  0
LINE
  8
0
 62
     0
 10
29.7518
 20
11.7467
 30
0.0
 11
29.3718
 21
10.4102
 31
0.0
  0
LINE
  8
0
 62
     0
 10
29.3718
 20
10.4102
 30
0.0
 11
28.9649
 21
9.11735
 31
0.0
  0
LINE
  8
0
 62
     0
 10
28.9649
 20
9.11735
 30
0.0
 11
28.5313
 21
7.86806
 31
0.0
  0
LINE
  8
0
 62
     0
 10
28.5313
 20
7.86806
 30
0.0
 11
28.0708
 21
6.66243
 31
0.0
  0
LINE
  8
0
 62
     0
 10
28.0708
 20
6.66243
 30
0.0
 11
27.5836
 21
5.50043
 31
0.0
  0
LINE
  8
0
 62
     0
 10
27.5836
 20
5.50043
 30
0.0
 11
27.0694
 21
4.38206
 31
0.0
  0
LINE
  8
0
 62
     0
 10
27.0694
 20
4.38206
 30
0.0
 11
26.5286
 21
3.30729
 31
0.0
  0
LINE
  8
0
 62
     0
 10
26.5286
 20
3.30729
 30
0.0
 11
25.961
 21
2.27615
 31
0.0
  0
LINE
  8
0
 62
     0
 10
25.961
 20
2.27615
 30
0.0
 11
25.3665
 21
1.28863
 31
0.0
  0
LINE
  8
0
 62
     0
 10
25.3665
 20
1.28863
 30
0.0
 11
24.7453
 21
0.344726
 31
0.0
  0
LINE
  8
0
 62
     0
 10
24.7453
 20
0.344726
 30
0.0
 11
24.0972
 21
-0.555556
 31
0.0
  0
LINE
  8
0
 62
     0
 10
24.0972
 20
-0.555556
 30
0.0
 11
24.0156
 21
-0.692708
 31
0.0
  0
LINE
  8
0
 62
     0
 10
24.0156
 20
-0.692708
 30
0.0
 11
23.9931
 21
-0.8125
 31
0.0
  0
LINE
  8
0
 62
     0
 10
23.9931
 20
-0.8125
 30
0.0
 11
24.0294
 21
-0.914931
 31
0.0
  0
LINE
  8
0
 62
     0
 10
24.0294
 20
-0.914931
 30
0.0
 11
24.125
 21
-1
 31
0.0
  0
LINE
  8
0
 62
     0
 10
24.125
 20
-1
 30
0.0
 11
24.2465
 21
-1.05382
 31
0.0
  0
LINE
  8
0
 62
     0
 10
24.2465
 20
-1.05382
 30
0.0
 11
24.4028
 21
-1.09028
 31
0.0
  0
LINE
  8
0
 62
     0
 10
24.4028
 20
-1.09028
 30
0.0
 11
24.5938
 21
-1.10938
 31
0.0
  0
LINE
  8
0
 62
     0
 10
24.5938
 20
-1.10938
 30
0.0
 11
24.8194
 21
-1.11111
 31
0.0
  0
LINE
  8
0
 62
     0
 10
24.8194
 20
-1.11111
 30
0.0
 11
25.0985
 21
-1.09044
 31
0.0
  0
LINE
  8
0
 62
     0
 10
25.0985
 20
-1.09044
 30
0.0
 11
25.3525
 21
-1.05637
 31
0.0
  0
LINE
  8
0
 62
     0
 10
25.3525
 20
-1.05637
 30
0.0
 11
25.5811
 21
-1.00884
 31
0.0
  0
LINE
  8
0
 62
     0
 10
25.5811
 20
-1.00884
 30
0.0
 11
25.7847
 21
-0.947863
 31
0.0
  0
LINE
  8
0
 62
     0
 10
25.7847
 20
-0.947863
 30
0.0
 11
25.9631
 21
-0.873426
 31
0.0
  0
LINE
  8
0
 62
     0
 10
25.9631
 20
-0.873426
 30
0.0
 11
26.1164
 21
-0.785536
 31
0.0
  0
LINE
  8
0
 62
     0
 10
26.1164
 20
-0.785536
 30
0.0
 11
26.2443
 21
-0.68419
 31
0.0
  0
LINE
  8
0
 62
     0
 10
26.2443
 20
-0.68419
 30
0.0
 11
26.3472
 21
-0.569444
 31
0.0
  0
LINE
  8
0
 62
     0
 10
26.3472
 20
-0.569444
 30
0.0
 11
26.8931
 21
0.179036
 31
0.0
  0
LINE
  8
0
 62
     0
 10
26.8931
 20
0.179036
 30
0.0
 11
27.4193
 21
0.952257
 31
0.0
  0
LINE
  8
0
 62
     0
 10
27.4193
 20
0.952257
 30
0.0
 11
27.926
 21
1.75022
 31
0.0
  0
LINE
  8
0
 62
     0
 10
27.926
 20
1.75022
 30
0.0
 11
28.4132
 21
2.57292
 31
0.0
  0
LINE
  8
0
 62
     0
 10
28.4132
 20
2.57292
 30
0.0
 11
28.8808
 21
3.42042
 31
0.0
  0
LINE
  8
0
 62
     0
 10
28.8808
 20
3.42042
 30
0.0
 11
29.329
 21
4.29258
 31
0.0
  0
LINE
  8
0
 62
     0
 10
29.329
 20
4.29258
 30
0.0
 11
29.7575
 21
5.18951
 31
0.0
  0
LINE
  8
0
 62
     0
 10
29.7575
 20
5.18951
 30
0.0
 11
30.1667
 21
6.11111
 31
0.0
  0
LINE
  8
0
 62
     0
 10
28.3472
 20
20.9167
 30
0.0
 11
28.3692
 21
20.8132
 31
0.0
  0
LINE
  8
0
 62
     0
 10
28.3692
 20
20.8132
 30
0.0
 11
28.4343
 21
20.7254
 31
0.0
  0
LINE
  8
0
 62
     0
 10
28.4343
 20
20.7254
 30
0.0
 11
28.5426
 21
20.6535
 31
0.0
  0
LINE
  8
0
 62
     0
 10
28.5426
 20
20.6535
 30
0.0
 11
28.6944
 21
20.5972
 31
0.0
  0
LINE
  8
0
 62
     0
 10
28.6944
 20
20.5972
 30
0.0
 11
28.8499
 21
20.5633
 31
0.0
  0
LINE
  8
0
 62
     0
 10
28.8499
 20
20.5633
 30
0.0
 11
29.0243
 21
20.5451
 31
0.0
  0
LINE
  8
0
 62
     0
 10
29.0243
 20
20.5451
 30
0.0
 11
29.2179
 21
20.5425
 31
0.0
  0
LINE
  8
0
 62
     0
 10
29.2179
 20
20.5425
 30
0.0
 11
29.4306
 21
20.5556
 31
0.0
  0
LINE
  8
0
 62
     0
 10
29.4306
 20
20.5556
 30
0.0
 11
29.8301
 21
20.6319
 31
0.0
  0
LINE
  8
0
 62
     0
 10
29.8301
 20
20.6319
 30
0.0
 11
30.1667
 21
20.75
 31
0.0
  0
LINE
  8
0
 62
     0
 10
30.1667
 20
20.75
 30
0.0
 11
30.3125
 21
20.8221
 31
0.0
  0
LINE
  8
0
 62
     0
 10
30.3125
 20
20.8221
 30
0.0
 11
30.4167
 21
20.8993
 31
0.0
  0
LINE
  8
0
 62
     0
 10
30.4167
 20
20.8993
 30
0.0
 11
30.4792
 21
20.9818
 31
0.0
  0
LINE
  8
0
 62
     0
 10
30.4792
 20
20.9818
 30
0.0
 11
30.5
 21
21.0694
 31
0.0
  0
LINE
  8
0
 62
     0
 10
30.5
 20
21.0694
 30
0.0
 11
30.5
 21
22.75
 31
0.0
  0
LINE
  8
0
 62
     0
 10
30.5
 20
22.75
 30
0.0
 11
30.4792
 21
22.8525
 31
0.0
  0
LINE
  8
0
 62
     0
 10
30.4792
 20
22.8525
 30
0.0
 11
30.4167
 21
22.9375
 31
0.0
  0
LINE
  8
0
 62
     0
 10
30.4167
 20
22.9375
 30
0.0
 11
30.3125
 21
23.0053
 31
0.0
  0
LINE
  8
0
 62
     0
 10
30.3125
 20
23.0053
 30
0.0
 11
30.1667
 21
23.0556
 31
0.0
  0
LINE
  8
0
 62
     0
 10
30.1667
 20
23.0556
 30
0.0
 11
30.0113
 21
23.0894
 31
0.0
  0
LINE
  8
0
 62
     0
 10
30.0113
 20
23.0894
 30
0.0
 11
29.8368
 21
23.1076
 31
0.0
  0
LINE
  8
0
 62
     0
 10
29.8368
 20
23.1076
 30
0.0
 11
29.6432
 21
23.1103
 31
0.0
  0
LINE
  8
0
 62
     0
 10
29.6432
 20
23.1103
 30
0.0
 11
29.4306
 21
23.0972
 31
0.0
  0
LINE
  8
0
 62
     0
 10
29.4306
 20
23.0972
 30
0.0
 11
29.2231
 21
23.0704
 31
0.0
  0
LINE
  8
0
 62
     0
 10
29.2231
 20
23.0704
 30
0.0
 11
29.0313
 21
23.0313
 31
0.0
  0
LINE
  8
0
 62
     0
 10
29.0313
 20
23.0313
 30
0.0
 11
28.855
 21
22.9801
 31
0.0
  0
LINE
  8
0
 62
     0
 10
28.855
 20
22.9801
 30
0.0
 11
28.6944
 21
22.9167
 31
0.0
  0
LINE
  8
0
 62
     0
 10
28.6944
 20
22.9167
 30
0.0
 11
28.5425
 21
22.8386
 31
0.0
  0
LINE
  8
0
 62
     0
 10
28.5425
 20
22.8386
 30
0.0
 11
28.434
 21
22.7569
 31
0.0
  0
LINE
  8
0
 62
     0
 10
28.434
 20
22.7569
 30
0.0
 11
28.3689
 21
22.6719
 31
0.0
  0
LINE
  8
0
 62
     0
 10
28.3689
 20
22.6719
 30
0.0
 11
28.3472
 21
22.5833
 31
0.0
  0
LINE
  8
0
 62
     0
 10
28.3472
 20
22.5833
 30
0.0
 11
28.3472
 21
20.9167
 31
0.0
  0
LINE
  8
0
 62
     0
 10
34.1806
 20
21.1806
 30
0.0
 11
34.2014
 21
21.105
 31
0.0
  0
LINE
  8
0
 62
     0
 10
34.2014
 20
21.105
 30
0.0
 11
34.2639
 21
21.0451
 31
0.0
  0
LINE
  8
0
 62
     0
 10
34.2639
 20
21.0451
 30
0.0
 11
34.3681
 21
21.0008
 31
0.0
  0
LINE
  8
0
 62
     0
 10
34.3681
 20
21.0008
 30
0.0
 11
34.5139
 21
20.9722
 31
0.0
  0
LINE
  8
0
 62
     0
 10
34.5139
 20
20.9722
 30
0.0
 11
34.851
 21
20.9549
 31
0.0
  0
LINE
  8
0
 62
     0
 10
34.851
 20
20.9549
 30
0.0
 11
35.25
 21
20.9861
 31
0.0
  0
LINE
  8
0
 62
     0
 10
35.25
 20
20.9861
 30
0.0
 11
35.4626
 21
21.0251
 31
0.0
  0
LINE
  8
0
 62
     0
 10
35.4626
 20
21.0251
 30
0.0
 11
35.6563
 21
21.0729
 31
0.0
  0
LINE
  8
0
 62
     0
 10
35.6563
 20
21.0729
 30
0.0
 11
35.8307
 21
21.1293
 31
0.0
  0
LINE
  8
0
 62
     0
 10
35.8307
 20
21.1293
 30
0.0
 11
35.9861
 21
21.1944
 31
0.0
  0
LINE
  8
0
 62
     0
 10
35.9861
 20
21.1944
 30
0.0
 11
36.1319
 21
21.2796
 31
0.0
  0
LINE
  8
0
 62
     0
 10
36.1319
 20
21.2796
 30
0.0
 11
36.2361
 21
21.3681
 31
0.0
  0
LINE
  8
0
 62
     0
 10
36.2361
 20
21.3681
 30
0.0
 11
36.2986
 21
21.4601
 31
0.0
  0
LINE
  8
0
 62
     0
 10
36.2986
 20
21.4601
 30
0.0
 11
36.3194
 21
21.5556
 31
0.0
  0
LINE
  8
0
 62
     0
 10
36.3194
 20
21.5556
 30
0.0
 11
36.3194
 21
23.2222
 31
0.0
  0
LINE
  8
0
 62
     0
 10
36.3194
 20
23.2222
 30
0.0
 11
36.2986
 21
23.2978
 31
0.0
  0
LINE
  8
0
 62
     0
 10
36.2986
 20
23.2978
 30
0.0
 11
36.2361
 21
23.3576
 31
0.0
  0
LINE
  8
0
 62
     0
 10
36.2361
 20
23.3576
 30
0.0
 11
36.1319
 21
23.4019
 31
0.0
  0
LINE
  8
0
 62
     0
 10
36.1319
 20
23.4019
 30
0.0
 11
35.9861
 21
23.4306
 31
0.0
  0
LINE
  8
0
 62
     0
 10
35.9861
 20
23.4306
 30
0.0
 11
35.8256
 21
23.4444
 31
0.0
  0
LINE
  8
0
 62
     0
 10
35.8256
 20
23.4444
 30
0.0
 11
35.6493
 21
23.4444
 31
0.0
  0
LINE
  8
0
 62
     0
 10
35.6493
 20
23.4444
 30
0.0
 11
35.4575
 21
23.4306
 31
0.0
  0
LINE
  8
0
 62
     0
 10
35.4575
 20
23.4306
 30
0.0
 11
35.25
 21
23.4028
 31
0.0
  0
LINE
  8
0
 62
     0
 10
35.25
 20
23.4028
 30
0.0
 11
35.0425
 21
23.3689
 31
0.0
  0
LINE
  8
0
 62
     0
 10
35.0425
 20
23.3689
 30
0.0
 11
34.8507
 21
23.3229
 31
0.0
  0
LINE
  8
0
 62
     0
 10
34.8507
 20
23.3229
 30
0.0
 11
34.6744
 21
23.2647
 31
0.0
  0
LINE
  8
0
 62
     0
 10
34.6744
 20
23.2647
 30
0.0
 11
34.5139
 21
23.1944
 31
0.0
  0
LINE
  8
0
 62
     0
 10
34.5139
 20
23.1944
 30
0.0
 11
34.3681
 21
23.1156
 31
0.0
  0
LINE
  8
0
 62
     0
 10
34.3681
 20
23.1156
 30
0.0
 11
34.2639
 21
23.0313
 31
0.0
  0
LINE
  8
0
 62
     0
 10
34.2639
 20
23.0313
 30
0.0
 11
34.2014
 21
22.9418
 31
0.0
  0
LINE
  8
0
 62
     0
 10
34.2014
 20
22.9418
 30
0.0
 11
34.1806
 21
22.8472
 31
0.0
  0
LINE
  8
0
 62
     0
 10
34.1806
 20
22.8472
 30
0.0
 11
34.1806
 21
21.1806
 31
0.0
  0
ENDSEC
  0
EOF
