  0
SECTION
  2
HEADER
  9
$ACADVER
  1
AC1009
  9
$EXTMIN
 10
0.0
 20
0.0
 30
0.0
  9
$EXTMAX
 10
1000.0
 20
1000.0
 30
0.0
  9
$FILLMODE
 70
 0
  9
$SPLFRAME
 70
 1
  0
ENDSEC
  0
SECTION
  2
TABLES
  0
TABLE
  2
LAYER
 70
1
  0
LAYER
  2
0
 70
     0
 62
     7
  6
CONTINUOUS
  0
ENDTAB
  0
ENDSEC
  0
SECTION
  2
ENTITIES
  0
LINE
  8
0
 62
     0
 10
6.90278
 20
15.1667
 30
0.0
 11
7.0664
 21
14.6662
 31
0.0
  0
LINE
  8
0
 62
     0
 10
7.0664
 20
14.6662
 30
0.0
 11
7.23785
 21
14.1372
 31
0.0
  0
LINE
  8
0
 62
     0
 10
7.23785
 20
14.1372
 30
0.0
 11
7.4171
 21
13.5794
 31
0.0
  0
LINE
  8
0
 62
     0
 10
7.4171
 20
13.5794
 30
0.0
 11
7.60417
 21
12.9931
 31
0.0
  0
LINE
  8
0
 62
     0
 10
7.60417
 20
12.9931
 30
0.0
 11
7.79904
 21
12.378
 31
0.0
  0
LINE
  8
0
 62
     0
 10
7.79904
 20
12.378
 30
0.0
 11
8.00174
 21
11.7344
 31
0.0
  0
LINE
  8
0
 62
     0
 10
8.00174
 20
11.7344
 30
0.0
 11
8.21224
 21
11.0621
 31
0.0
  0
LINE
  8
0
 62
     0
 10
8.21224
 20
11.0621
 30
0.0
 11
8.43056
 21
10.3611
 31
0.0
  0
LINE
  8
0
 62
     0
 10
8.43056
 20
10.3611
 30
0.0
 11
7.64144
 21
10.2605
 31
0.0
  0
LINE
  8
0
 62
     0
 10
7.64144
 20
10.2605
 30
0.0
 11
6.78814
 21
10.1528
 31
0.0
  0
LINE
  8
0
 62
     0
 10
6.78814
 20
10.1528
 30
0.0
 11
5.87061
 21
10.0383
 31
0.0
  0
LINE
  8
0
 62
     0
 10
5.87061
 20
10.0383
 30
0.0
 11
4.88889
 21
9.91667
 31
0.0
  0
LINE
  8
0
 62
     0
 10
4.88889
 20
9.91667
 30
0.0
 11
4.94233
 21
10.0641
 31
0.0
  0
LINE
  8
0
 62
     0
 10
4.94233
 20
10.0641
 30
0.0
 11
5.00543
 21
10.2357
 31
0.0
  0
LINE
  8
0
 62
     0
 10
5.00543
 20
10.2357
 30
0.0
 11
5.07818
 21
10.4313
 31
0.0
  0
LINE
  8
0
 62
     0
 10
5.07818
 20
10.4313
 30
0.0
 11
5.1606
 21
10.651
 31
0.0
  0
LINE
  8
0
 62
     0
 10
5.1606
 20
10.651
 30
0.0
 11
5.25265
 21
10.8949
 31
0.0
  0
LINE
  8
0
 62
     0
 10
5.25265
 20
10.8949
 30
0.0
 11
5.35439
 21
11.1628
 31
0.0
  0
LINE
  8
0
 62
     0
 10
5.35439
 20
11.1628
 30
0.0
 11
5.46576
 21
11.4548
 31
0.0
  0
LINE
  8
0
 62
     0
 10
5.46576
 20
11.4548
 30
0.0
 11
5.58681
 21
11.7708
 31
0.0
  0
LINE
  8
0
 62
     0
 10
5.58681
 20
11.7708
 30
0.0
 11
5.7175
 21
12.111
 31
0.0
  0
LINE
  8
0
 62
     0
 10
5.7175
 20
12.111
 30
0.0
 11
5.85786
 21
12.4753
 31
0.0
  0
LINE
  8
0
 62
     0
 10
5.85786
 20
12.4753
 30
0.0
 11
6.00786
 21
12.8636
 31
0.0
  0
LINE
  8
0
 62
     0
 10
6.00786
 20
12.8636
 30
0.0
 11
6.16754
 21
13.276
 31
0.0
  0
LINE
  8
0
 62
     0
 10
6.16754
 20
13.276
 30
0.0
 11
6.33686
 21
13.7126
 31
0.0
  0
LINE
  8
0
 62
     0
 10
6.33686
 20
13.7126
 30
0.0
 11
6.51585
 21
14.1732
 31
0.0
  0
LINE
  8
0
 62
     0
 10
6.51585
 20
14.1732
 30
0.0
 11
6.70449
 21
14.6579
 31
0.0
  0
LINE
  8
0
 62
     0
 10
6.70449
 20
14.6579
 30
0.0
 11
6.90278
 21
15.1667
 31
0.0
  0
LINE
  8
0
 62
     0
 10
12.1667
 20
8.61111
 30
0.0
 11
13.1055
 21
8.73529
 31
0.0
  0
LINE
  8
0
 62
     0
 10
13.1055
 20
8.73529
 30
0.0
 11
13.9983
 21
8.85075
 31
0.0
  0
LINE
  8
0
 62
     0
 10
13.9983
 20
8.85075
 30
0.0
 11
14.845
 21
8.95751
 31
0.0
  0
LINE
  8
0
 62
     0
 10
14.845
 20
8.95751
 30
0.0
 11
15.6458
 21
9.05561
 31
0.0
  0
LINE
  8
0
 62
     0
 10
15.6458
 20
9.05561
 30
0.0
 11
16.4006
 21
9.14501
 31
0.0
  0
LINE
  8
0
 62
     0
 10
16.4006
 20
9.14501
 30
0.0
 11
17.1094
 21
9.22575
 31
0.0
  0
LINE
  8
0
 62
     0
 10
17.1094
 20
9.22575
 30
0.0
 11
17.7721
 21
9.29779
 31
0.0
  0
LINE
  8
0
 62
     0
 10
17.7721
 20
9.29779
 30
0.0
 11
18.3889
 21
9.36111
 31
0.0
  0
LINE
  8
0
 62
     0
 10
18.3889
 20
9.36111
 30
0.0
 11
18.6771
 21
9.41064
 31
0.0
  0
LINE
  8
0
 62
     0
 10
18.6771
 20
9.41064
 30
0.0
 11
18.9444
 21
9.50353
 31
0.0
  0
LINE
  8
0
 62
     0
 10
18.9444
 20
9.50353
 30
0.0
 11
19.191
 21
9.63981
 31
0.0
  0
LINE
  8
0
 62
     0
 10
19.191
 20
9.63981
 30
0.0
 11
19.4167
 21
9.81944
 31
0.0
  0
LINE
  8
0
 62
     0
 10
19.4167
 20
9.81944
 30
0.0
 11
19.5921
 21
10.0061
 31
0.0
  0
LINE
  8
0
 62
     0
 10
19.5921
 20
10.0061
 30
0.0
 11
19.7292
 21
10.2049
 31
0.0
  0
LINE
  8
0
 62
     0
 10
19.7292
 20
10.2049
 30
0.0
 11
19.8282
 21
10.4158
 31
0.0
  0
LINE
  8
0
 62
     0
 10
19.8282
 20
10.4158
 30
0.0
 11
19.8889
 21
10.6389
 31
0.0
  0
LINE
  8
0
 62
     0
 10
19.8889
 20
10.6389
 30
0.0
 11
19.9063
 21
10.8629
 31
0.0
  0
LINE
  8
0
 62
     0
 10
19.9063
 20
10.8629
 30
0.0
 11
19.875
 21
11.0626
 31
0.0
  0
LINE
  8
0
 62
     0
 10
19.875
 20
11.0626
 30
0.0
 11
19.7951
 21
11.2379
 31
0.0
  0
LINE
  8
0
 62
     0
 10
19.7951
 20
11.2379
 30
0.0
 11
19.6667
 21
11.3889
 31
0.0
  0
LINE
  8
0
 62
     0
 10
19.6667
 20
11.3889
 30
0.0
 11
19.4713
 21
11.5243
 31
0.0
  0
LINE
  8
0
 62
     0
 10
19.4713
 20
11.5243
 30
0.0
 11
19.2326
 21
11.6111
 31
0.0
  0
LINE
  8
0
 62
     0
 10
19.2326
 20
11.6111
 30
0.0
 11
18.9504
 21
11.6493
 31
0.0
  0
LINE
  8
0
 62
     0
 10
18.9504
 20
11.6493
 30
0.0
 11
18.625
 21
11.6389
 31
0.0
  0
LINE
  8
0
 62
     0
 10
18.625
 20
11.6389
 30
0.0
 11
17.9576
 21
11.5705
 31
0.0
  0
LINE
  8
0
 62
     0
 10
17.9576
 20
11.5705
 30
0.0
 11
17.2265
 21
11.4905
 31
0.0
  0
LINE
  8
0
 62
     0
 10
17.2265
 20
11.4905
 30
0.0
 11
16.4317
 21
11.3987
 31
0.0
  0
LINE
  8
0
 62
     0
 10
16.4317
 20
11.3987
 30
0.0
 11
15.5729
 21
11.2951
 31
0.0
  0
LINE
  8
0
 62
     0
 10
15.5729
 20
11.2951
 30
0.0
 11
14.6504
 21
11.1799
 31
0.0
  0
LINE
  8
0
 62
     0
 10
14.6504
 20
11.1799
 30
0.0
 11
13.6641
 21
11.053
 31
0.0
  0
LINE
  8
0
 62
     0
 10
13.6641
 20
11.053
 30
0.0
 11
12.6139
 21
10.9143
 31
0.0
  0
LINE
  8
0
 62
     0
 10
12.6139
 20
10.9143
 30
0.0
 11
11.5
 21
10.7639
 31
0.0
  0
LINE
  8
0
 62
     0
 10
11.5
 20
10.7639
 30
0.0
 11
11.1829
 21
11.7861
 31
0.0
  0
LINE
  8
0
 62
     0
 10
11.1829
 20
11.7861
 30
0.0
 11
10.8776
 21
12.7622
 31
0.0
  0
LINE
  8
0
 62
     0
 10
10.8776
 20
12.7622
 30
0.0
 11
10.584
 21
13.6923
 31
0.0
  0
LINE
  8
0
 62
     0
 10
10.584
 20
13.6923
 30
0.0
 11
10.3021
 21
14.5764
 31
0.0
  0
LINE
  8
0
 62
     0
 10
10.3021
 20
14.5764
 30
0.0
 11
10.0319
 21
15.4146
 31
0.0
  0
LINE
  8
0
 62
     0
 10
10.0319
 20
15.4146
 30
0.0
 11
9.77344
 21
16.2067
 31
0.0
  0
LINE
  8
0
 62
     0
 10
9.77344
 20
16.2067
 30
0.0
 11
9.52669
 21
16.9528
 31
0.0
  0
LINE
  8
0
 62
     0
 10
9.52669
 20
16.9528
 30
0.0
 11
9.29167
 21
17.6528
 31
0.0
  0
LINE
  8
0
 62
     0
 10
9.29167
 20
17.6528
 30
0.0
 11
10.4383
 21
17.6489
 31
0.0
  0
LINE
  8
0
 62
     0
 10
10.4383
 20
17.6489
 30
0.0
 11
11.5239
 21
17.6476
 31
0.0
  0
LINE
  8
0
 62
     0
 10
11.5239
 20
17.6476
 30
0.0
 11
12.5485
 21
17.6489
 31
0.0
  0
LINE
  8
0
 62
     0
 10
12.5485
 20
17.6489
 30
0.0
 11
13.5122
 21
17.6528
 31
0.0
  0
LINE
  8
0
 62
     0
 10
13.5122
 20
17.6528
 30
0.0
 11
14.4149
 21
17.6593
 31
0.0
  0
LINE
  8
0
 62
     0
 10
14.4149
 20
17.6593
 30
0.0
 11
15.2565
 21
17.6685
 31
0.0
  0
LINE
  8
0
 62
     0
 10
15.2565
 20
17.6685
 30
0.0
 11
16.0372
 21
17.6801
 31
0.0
  0
LINE
  8
0
 62
     0
 10
16.0372
 20
17.6801
 30
0.0
 11
16.7569
 21
17.6944
 31
0.0
  0
LINE
  8
0
 62
     0
 10
16.7569
 20
17.6944
 30
0.0
 11
17.4157
 21
17.7114
 31
0.0
  0
LINE
  8
0
 62
     0
 10
17.4157
 20
17.7114
 30
0.0
 11
18.0135
 21
17.731
 31
0.0
  0
LINE
  8
0
 62
     0
 10
18.0135
 20
17.731
 30
0.0
 11
18.5503
 21
17.7531
 31
0.0
  0
LINE
  8
0
 62
     0
 10
18.5503
 20
17.7531
 30
0.0
 11
19.0261
 21
17.7778
 31
0.0
  0
LINE
  8
0
 62
     0
 10
19.0261
 20
17.7778
 30
0.0
 11
19.4408
 21
17.8051
 31
0.0
  0
LINE
  8
0
 62
     0
 10
19.4408
 20
17.8051
 30
0.0
 11
19.7947
 21
17.8351
 31
0.0
  0
LINE
  8
0
 62
     0
 10
19.7947
 20
17.8351
 30
0.0
 11
20.0875
 21
17.8676
 31
0.0
  0
LINE
  8
0
 62
     0
 10
20.0875
 20
17.8676
 30
0.0
 11
20.3194
 21
17.9028
 31
0.0
  0
LINE
  8
0
 62
     0
 10
20.3194
 20
17.9028
 30
0.0
 11
20.5765
 21
17.9636
 31
0.0
  0
LINE
  8
0
 62
     0
 10
20.5765
 20
17.9636
 30
0.0
 11
20.8133
 21
18.0417
 31
0.0
  0
LINE
  8
0
 62
     0
 10
20.8133
 20
18.0417
 30
0.0
 11
21.0297
 21
18.1372
 31
0.0
  0
LINE
  8
0
 62
     0
 10
21.0297
 20
18.1372
 30
0.0
 11
21.2257
 21
18.25
 31
0.0
  0
LINE
  8
0
 62
     0
 10
21.2257
 20
18.25
 30
0.0
 11
21.4013
 21
18.3803
 31
0.0
  0
LINE
  8
0
 62
     0
 10
21.4013
 20
18.3803
 30
0.0
 11
21.5564
 21
18.5278
 31
0.0
  0
LINE
  8
0
 62
     0
 10
21.5564
 20
18.5278
 30
0.0
 11
21.6911
 21
18.6928
 31
0.0
  0
LINE
  8
0
 62
     0
 10
21.6911
 20
18.6928
 30
0.0
 11
21.8056
 21
18.875
 31
0.0
  0
LINE
  8
0
 62
     0
 10
21.8056
 20
18.875
 30
0.0
 11
21.8636
 21
19.0235
 31
0.0
  0
LINE
  8
0
 62
     0
 10
21.8636
 20
19.0235
 30
0.0
 11
21.8715
 21
19.1493
 31
0.0
  0
LINE
  8
0
 62
     0
 10
21.8715
 20
19.1493
 30
0.0
 11
21.8289
 21
19.2526
 31
0.0
  0
LINE
  8
0
 62
     0
 10
21.8289
 20
19.2526
 30
0.0
 11
21.7361
 21
19.3333
 31
0.0
  0
LINE
  8
0
 62
     0
 10
21.7361
 20
19.3333
 30
0.0
 11
21.5764
 21
19.3976
 31
0.0
  0
LINE
  8
0
 62
     0
 10
21.5764
 20
19.3976
 30
0.0
 11
21.3611
 21
19.4236
 31
0.0
  0
LINE
  8
0
 62
     0
 10
21.3611
 20
19.4236
 30
0.0
 11
21.0903
 21
19.4115
 31
0.0
  0
LINE
  8
0
 62
     0
 10
21.0903
 20
19.4115
 30
0.0
 11
20.7639
 21
19.3611
 31
0.0
  0
LINE
  8
0
 62
     0
 10
20.7639
 20
19.3611
 30
0.0
 11
20.1592
 21
19.2618
 31
0.0
  0
LINE
  8
0
 62
     0
 10
20.1592
 20
19.2618
 30
0.0
 11
19.5121
 21
19.1796
 31
0.0
  0
LINE
  8
0
 62
     0
 10
19.5121
 20
19.1796
 30
0.0
 11
18.8224
 21
19.1142
 31
0.0
  0
LINE
  8
0
 62
     0
 10
18.8224
 20
19.1142
 30
0.0
 11
18.0903
 21
19.0657
 31
0.0
  0
LINE
  8
0
 62
     0
 10
18.0903
 20
19.0657
 30
0.0
 11
17.3154
 21
19.0343
 31
0.0
  0
LINE
  8
0
 62
     0
 10
17.3154
 20
19.0343
 30
0.0
 11
16.4982
 21
19.0199
 31
0.0
  0
LINE
  8
0
 62
     0
 10
16.4982
 20
19.0199
 30
0.0
 11
15.6383
 21
19.0224
 31
0.0
  0
LINE
  8
0
 62
     0
 10
15.6383
 20
19.0224
 30
0.0
 11
14.7361
 21
19.0417
 31
0.0
  0
LINE
  8
0
 62
     0
 10
14.7361
 20
19.0417
 30
0.0
 11
14.1167
 21
19.0583
 31
0.0
  0
LINE
  8
0
 62
     0
 10
14.1167
 20
19.0583
 30
0.0
 11
13.5292
 21
19.0736
 31
0.0
  0
LINE
  8
0
 62
     0
 10
13.5292
 20
19.0736
 30
0.0
 11
12.9738
 21
19.0875
 31
0.0
  0
LINE
  8
0
 62
     0
 10
12.9738
 20
19.0875
 30
0.0
 11
12.4505
 21
19.0999
 31
0.0
  0
LINE
  8
0
 62
     0
 10
12.4505
 20
19.0999
 30
0.0
 11
11.9591
 21
19.1108
 31
0.0
  0
LINE
  8
0
 62
     0
 10
11.9591
 20
19.1108
 30
0.0
 11
11.4997
 21
19.1206
 31
0.0
  0
LINE
  8
0
 62
     0
 10
11.4997
 20
19.1206
 30
0.0
 11
11.0724
 21
19.1288
 31
0.0
  0
LINE
  8
0
 62
     0
 10
11.0724
 20
19.1288
 30
0.0
 11
10.677
 21
19.1354
 31
0.0
  0
LINE
  8
0
 62
     0
 10
10.677
 20
19.1354
 30
0.0
 11
10.3137
 21
19.1408
 31
0.0
  0
LINE
  8
0
 62
     0
 10
10.3137
 20
19.1408
 30
0.0
 11
9.98236
 21
19.1449
 31
0.0
  0
LINE
  8
0
 62
     0
 10
9.98236
 20
19.1449
 30
0.0
 11
9.68306
 21
19.1474
 31
0.0
  0
LINE
  8
0
 62
     0
 10
9.68306
 20
19.1474
 30
0.0
 11
9.41575
 21
19.1485
 31
0.0
  0
LINE
  8
0
 62
     0
 10
9.41575
 20
19.1485
 30
0.0
 11
9.18044
 21
19.1482
 31
0.0
  0
LINE
  8
0
 62
     0
 10
9.18044
 20
19.1482
 30
0.0
 11
8.97715
 21
19.1465
 31
0.0
  0
LINE
  8
0
 62
     0
 10
8.97715
 20
19.1465
 30
0.0
 11
8.80588
 21
19.1435
 31
0.0
  0
LINE
  8
0
 62
     0
 10
8.80588
 20
19.1435
 30
0.0
 11
8.66667
 21
19.1389
 31
0.0
  0
LINE
  8
0
 62
     0
 10
8.66667
 20
19.1389
 30
0.0
 11
8.52083
 21
19.125
 31
0.0
  0
LINE
  8
0
 62
     0
 10
8.52083
 20
19.125
 30
0.0
 11
8.33333
 21
19.0833
 31
0.0
  0
LINE
  8
0
 62
     0
 10
8.33333
 20
19.0833
 30
0.0
 11
8.52778
 21
19.6389
 31
0.0
  0
LINE
  8
0
 62
     0
 10
8.52778
 20
19.6389
 30
0.0
 11
8.53293
 21
19.7543
 31
0.0
  0
LINE
  8
0
 62
     0
 10
8.53293
 20
19.7543
 30
0.0
 11
8.47911
 21
19.8507
 31
0.0
  0
LINE
  8
0
 62
     0
 10
8.47911
 20
19.8507
 30
0.0
 11
8.36626
 21
19.9279
 31
0.0
  0
LINE
  8
0
 62
     0
 10
8.36626
 20
19.9279
 30
0.0
 11
8.19444
 21
19.9861
 31
0.0
  0
LINE
  8
0
 62
     0
 10
8.19444
 20
19.9861
 30
0.0
 11
8
 21
20.0113
 31
0.0
  0
LINE
  8
0
 62
     0
 10
8
 20
20.0113
 30
0.0
 11
7.77778
 21
20.0174
 31
0.0
  0
LINE
  8
0
 62
     0
 10
7.77778
 20
20.0174
 30
0.0
 11
7.52778
 21
20.0043
 31
0.0
  0
LINE
  8
0
 62
     0
 10
7.52778
 20
20.0043
 30
0.0
 11
7.25
 21
19.9722
 31
0.0
  0
LINE
  8
0
 62
     0
 10
7.25
 20
19.9722
 30
0.0
 11
6.90511
 21
19.911
 31
0.0
  0
LINE
  8
0
 62
     0
 10
6.90511
 20
19.911
 30
0.0
 11
6.59978
 21
19.8386
 31
0.0
  0
LINE
  8
0
 62
     0
 10
6.59978
 20
19.8386
 30
0.0
 11
6.33393
 21
19.7547
 31
0.0
  0
LINE
  8
0
 62
     0
 10
6.33393
 20
19.7547
 30
0.0
 11
6.10758
 21
19.6597
 31
0.0
  0
LINE
  8
0
 62
     0
 10
6.10758
 20
19.6597
 30
0.0
 11
5.92074
 21
19.5533
 31
0.0
  0
LINE
  8
0
 62
     0
 10
5.92074
 20
19.5533
 30
0.0
 11
5.77339
 21
19.4358
 31
0.0
  0
LINE
  8
0
 62
     0
 10
5.77339
 20
19.4358
 30
0.0
 11
5.66553
 21
19.3068
 31
0.0
  0
LINE
  8
0
 62
     0
 10
5.66553
 20
19.3068
 30
0.0
 11
5.59722
 21
19.1667
 31
0.0
  0
LINE
  8
0
 62
     0
 10
5.59722
 20
19.1667
 30
0.0
 11
5.44271
 21
18.6875
 31
0.0
  0
LINE
  8
0
 62
     0
 10
5.44271
 20
18.6875
 30
0.0
 11
5.27083
 21
18.1736
 31
0.0
  0
LINE
  8
0
 62
     0
 10
5.27083
 20
18.1736
 30
0.0
 11
5.0816
 21
17.625
 31
0.0
  0
LINE
  8
0
 62
     0
 10
5.0816
 20
17.625
 30
0.0
 11
4.875
 21
17.0417
 31
0.0
  0
LINE
  8
0
 62
     0
 10
4.875
 20
17.0417
 30
0.0
 11
4.65104
 21
16.4236
 31
0.0
  0
LINE
  8
0
 62
     0
 10
4.65104
 20
16.4236
 30
0.0
 11
4.40972
 21
15.7708
 31
0.0
  0
LINE
  8
0
 62
     0
 10
4.40972
 20
15.7708
 30
0.0
 11
4.15104
 21
15.0833
 31
0.0
  0
LINE
  8
0
 62
     0
 10
4.15104
 20
15.0833
 30
0.0
 11
3.875
 21
14.3611
 31
0.0
  0
LINE
  8
0
 62
     0
 10
3.875
 20
14.3611
 30
0.0
 11
3.70182
 21
13.9129
 31
0.0
  0
LINE
  8
0
 62
     0
 10
3.70182
 20
13.9129
 30
0.0
 11
3.53662
 21
13.4847
 31
0.0
  0
LINE
  8
0
 62
     0
 10
3.53662
 20
13.4847
 30
0.0
 11
3.37935
 21
13.0765
 31
0.0
  0
LINE
  8
0
 62
     0
 10
3.37935
 20
13.0765
 30
0.0
 11
3.22999
 21
12.6884
 31
0.0
  0
LINE
  8
0
 62
     0
 10
3.22999
 20
12.6884
 30
0.0
 11
3.08854
 21
12.3204
 31
0.0
  0
LINE
  8
0
 62
     0
 10
3.08854
 20
12.3204
 30
0.0
 11
2.95503
 21
11.9725
 31
0.0
  0
LINE
  8
0
 62
     0
 10
2.95503
 20
11.9725
 30
0.0
 11
2.82943
 21
11.6446
 31
0.0
  0
LINE
  8
0
 62
     0
 10
2.82943
 20
11.6446
 30
0.0
 11
2.71175
 21
11.3369
 31
0.0
  0
LINE
  8
0
 62
     0
 10
2.71175
 20
11.3369
 30
0.0
 11
2.602
 21
11.0492
 31
0.0
  0
LINE
  8
0
 62
     0
 10
2.602
 20
11.0492
 30
0.0
 11
2.50017
 21
10.7815
 31
0.0
  0
LINE
  8
0
 62
     0
 10
2.50017
 20
10.7815
 30
0.0
 11
2.40625
 21
10.534
 31
0.0
  0
LINE
  8
0
 62
     0
 10
2.40625
 20
10.534
 30
0.0
 11
2.32026
 21
10.3065
 31
0.0
  0
LINE
  8
0
 62
     0
 10
2.32026
 20
10.3065
 30
0.0
 11
2.24219
 21
10.0991
 31
0.0
  0
LINE
  8
0
 62
     0
 10
2.24219
 20
10.0991
 30
0.0
 11
2.17204
 21
9.91174
 31
0.0
  0
LINE
  8
0
 62
     0
 10
2.17204
 20
9.91174
 30
0.0
 11
2.10981
 21
9.74447
 31
0.0
  0
LINE
  8
0
 62
     0
 10
2.10981
 20
9.74447
 30
0.0
 11
2.05556
 21
9.59722
 31
0.0
  0
LINE
  8
0
 62
     0
 10
2.05556
 20
9.59722
 30
0.0
 11
1.79335
 21
9.55279
 31
0.0
  0
LINE
  8
0
 62
     0
 10
1.79335
 20
9.55279
 30
0.0
 11
1.5555
 21
9.48182
 31
0.0
  0
LINE
  8
0
 62
     0
 10
1.5555
 20
9.48182
 30
0.0
 11
1.34196
 21
9.38439
 31
0.0
  0
LINE
  8
0
 62
     0
 10
1.34196
 20
9.38439
 30
0.0
 11
1.15272
 21
9.26047
 31
0.0
  0
LINE
  8
0
 62
     0
 10
1.15272
 20
9.26047
 30
0.0
 11
0.987793
 21
9.11008
 31
0.0
  0
LINE
  8
0
 62
     0
 10
0.987793
 20
9.11008
 30
0.0
 11
0.847168
 21
8.93321
 31
0.0
  0
LINE
  8
0
 62
     0
 10
0.847168
 20
8.93321
 30
0.0
 11
0.730849
 21
8.72988
 31
0.0
  0
LINE
  8
0
 62
     0
 10
0.730849
 20
8.72988
 30
0.0
 11
0.638889
 21
8.5
 31
0.0
  0
LINE
  8
0
 62
     0
 10
0.638889
 20
8.5
 30
0.0
 11
0.588488
 21
8.30382
 31
0.0
  0
LINE
  8
0
 62
     0
 10
0.588488
 20
8.30382
 30
0.0
 11
0.576335
 21
8.11806
 31
0.0
  0
LINE
  8
0
 62
     0
 10
0.576335
 20
8.11806
 30
0.0
 11
0.602376
 21
7.94271
 31
0.0
  0
LINE
  8
0
 62
     0
 10
0.602376
 20
7.94271
 30
0.0
 11
0.666667
 21
7.77778
 31
0.0
  0
LINE
  8
0
 62
     0
 10
0.666667
 20
7.77778
 30
0.0
 11
0.775174
 21
7.62592
 31
0.0
  0
LINE
  8
0
 62
     0
 10
0.775174
 20
7.62592
 30
0.0
 11
0.920139
 21
7.50353
 31
0.0
  0
LINE
  8
0
 62
     0
 10
0.920139
 20
7.50353
 30
0.0
 11
1.10151
 21
7.41064
 31
0.0
  0
LINE
  8
0
 62
     0
 10
1.10151
 20
7.41064
 30
0.0
 11
1.31944
 21
7.34722
 31
0.0
  0
LINE
  8
0
 62
     0
 10
1.31944
 20
7.34722
 30
0.0
 11
1.03754
 21
6.38456
 31
0.0
  0
LINE
  8
0
 62
     0
 10
1.03754
 20
6.38456
 30
0.0
 11
0.789063
 21
5.44097
 31
0.0
  0
LINE
  8
0
 62
     0
 10
0.789063
 20
5.44097
 30
0.0
 11
0.574001
 21
4.5165
 31
0.0
  0
LINE
  8
0
 62
     0
 10
0.574001
 20
4.5165
 30
0.0
 11
0.392361
 21
3.61111
 31
0.0
  0
LINE
  8
0
 62
     0
 10
0.392361
 20
3.61111
 30
0.0
 11
0.24414
 21
2.72483
 31
0.0
  0
LINE
  8
0
 62
     0
 10
0.24414
 20
2.72483
 30
0.0
 11
0.12934
 21
1.85764
 31
0.0
  0
LINE
  8
0
 62
     0
 10
0.12934
 20
1.85764
 30
0.0
 11
0.0479601
 21
1.00955
 31
0.0
  0
LINE
  8
0
 62
     0
 10
0.0479601
 20
1.00955
 30
0.0
 11
0
 21
0.180556
 31
0.0
  0
LINE
  8
0
 62
     0
 10
0
 20
0.180556
 30
0.0
 11
0.0225151
 21
0.0920682
 31
0.0
  0
LINE
  8
0
 62
     0
 10
0.0225151
 20
0.0920682
 30
0.0
 11
0.104112
 21
0.0208876
 31
0.0
  0
LINE
  8
0
 62
     0
 10
0.104112
 20
0.0208876
 30
0.0
 11
0.244737
 21
-0.0329318
 31
0.0
  0
LINE
  8
0
 62
     0
 10
0.244737
 20
-0.0329318
 30
0.0
 11
0.444444
 21
-0.0694444
 31
0.0
  0
LINE
  8
0
 62
     0
 10
0.444444
 20
-0.0694444
 30
0.0
 11
0.663194
 21
-0.0798611
 31
0.0
  0
LINE
  8
0
 62
     0
 10
0.663194
 20
-0.0798611
 30
0.0
 11
0.902778
 21
-0.0694444
 31
0.0
  0
LINE
  8
0
 62
     0
 10
0.902778
 20
-0.0694444
 30
0.0
 11
1.16319
 21
-0.0381944
 31
0.0
  0
LINE
  8
0
 62
     0
 10
1.16319
 20
-0.0381944
 30
0.0
 11
1.44444
 21
0.0138889
 31
0.0
  0
LINE
  8
0
 62
     0
 10
1.44444
 20
0.0138889
 30
0.0
 11
1.78993
 21
0.0957574
 31
0.0
  0
LINE
  8
0
 62
     0
 10
1.78993
 20
0.0957574
 30
0.0
 11
2.09028
 21
0.188422
 31
0.0
  0
LINE
  8
0
 62
     0
 10
2.09028
 20
0.188422
 30
0.0
 11
2.34549
 21
0.291938
 31
0.0
  0
LINE
  8
0
 62
     0
 10
2.34549
 20
0.291938
 30
0.0
 11
2.55556
 21
0.406304
 31
0.0
  0
LINE
  8
0
 62
     0
 10
2.55556
 20
0.406304
 30
0.0
 11
2.72049
 21
0.531521
 31
0.0
  0
LINE
  8
0
 62
     0
 10
2.72049
 20
0.531521
 30
0.0
 11
2.84028
 21
0.667589
 31
0.0
  0
LINE
  8
0
 62
     0
 10
2.84028
 20
0.667589
 30
0.0
 11
2.91493
 21
0.814507
 31
0.0
  0
LINE
  8
0
 62
     0
 10
2.91493
 20
0.814507
 30
0.0
 11
2.94444
 21
0.972222
 31
0.0
  0
LINE
  8
0
 62
     0
 10
2.94444
 20
0.972222
 30
0.0
 11
2.98714
 21
1.73785
 31
0.0
  0
LINE
  8
0
 62
     0
 10
2.98714
 20
1.73785
 30
0.0
 11
3.05985
 21
2.52083
 31
0.0
  0
LINE
  8
0
 62
     0
 10
3.05985
 20
2.52083
 30
0.0
 11
3.16249
 21
3.32118
 31
0.0
  0
LINE
  8
0
 62
     0
 10
3.16249
 20
3.32118
 30
0.0
 11
3.29514
 21
4.13889
 31
0.0
  0
LINE
  8
0
 62
     0
 10
3.29514
 20
4.13889
 30
0.0
 11
3.45768
 21
4.97396
 31
0.0
  0
LINE
  8
0
 62
     0
 10
3.45768
 20
4.97396
 30
0.0
 11
3.65018
 21
5.82639
 31
0.0
  0
LINE
  8
0
 62
     0
 10
3.65018
 20
5.82639
 30
0.0
 11
3.87261
 21
6.69618
 31
0.0
  0
LINE
  8
0
 62
     0
 10
3.87261
 20
6.69618
 30
0.0
 11
4.125
 21
7.58333
 31
0.0
  0
LINE
  8
0
 62
     0
 10
4.125
 20
7.58333
 30
0.0
 11
6.59028
 21
7.87847
 31
0.0
  0
LINE
  8
0
 62
     0
 10
6.59028
 20
7.87847
 30
0.0
 11
9.09722
 21
8.20833
 31
0.0
  0
LINE
  8
0
 62
     0
 10
9.09722
 20
8.20833
 30
0.0
 11
9.36638
 21
7.34136
 31
0.0
  0
LINE
  8
0
 62
     0
 10
9.36638
 20
7.34136
 30
0.0
 11
9.62869
 21
6.50087
 31
0.0
  0
LINE
  8
0
 62
     0
 10
9.62869
 20
6.50087
 30
0.0
 11
9.88417
 21
5.68685
 31
0.0
  0
LINE
  8
0
 62
     0
 10
9.88417
 20
5.68685
 30
0.0
 11
10.1328
 21
4.89931
 31
0.0
  0
LINE
  8
0
 62
     0
 10
10.1328
 20
4.89931
 30
0.0
 11
10.3746
 21
4.13824
 31
0.0
  0
LINE
  8
0
 62
     0
 10
10.3746
 20
4.13824
 30
0.0
 11
10.6096
 21
3.40365
 31
0.0
  0
LINE
  8
0
 62
     0
 10
10.6096
 20
3.40365
 30
0.0
 11
10.8377
 21
2.69553
 31
0.0
  0
LINE
  8
0
 62
     0
 10
10.8377
 20
2.69553
 30
0.0
 11
11.059
 21
2.01389
 31
0.0
  0
LINE
  8
0
 62
     0
 10
11.059
 20
2.01389
 30
0.0
 11
11.2735
 21
1.35872
 31
0.0
  0
LINE
  8
0
 62
     0
 10
11.2735
 20
1.35872
 30
0.0
 11
11.4811
 21
0.730035
 31
0.0
  0
LINE
  8
0
 62
     0
 10
11.4811
 20
0.730035
 30
0.0
 11
11.6819
 21
0.127821
 31
0.0
  0
LINE
  8
0
 62
     0
 10
11.6819
 20
0.127821
 30
0.0
 11
11.8759
 21
-0.447917
 31
0.0
  0
LINE
  8
0
 62
     0
 10
11.8759
 20
-0.447917
 30
0.0
 11
12.063
 21
-0.997179
 31
0.0
  0
LINE
  8
0
 62
     0
 10
12.063
 20
-0.997179
 30
0.0
 11
12.2433
 21
-1.51997
 31
0.0
  0
LINE
  8
0
 62
     0
 10
12.2433
 20
-1.51997
 30
0.0
 11
12.4167
 21
-2.01628
 31
0.0
  0
LINE
  8
0
 62
     0
 10
12.4167
 20
-2.01628
 30
0.0
 11
12.5833
 21
-2.48611
 31
0.0
  0
LINE
  8
0
 62
     0
 10
12.5833
 20
-2.48611
 30
0.0
 11
12.6771
 21
-2.65539
 31
0.0
  0
LINE
  8
0
 62
     0
 10
12.6771
 20
-2.65539
 30
0.0
 11
12.8194
 21
-2.78819
 31
0.0
  0
LINE
  8
0
 62
     0
 10
12.8194
 20
-2.78819
 30
0.0
 11
13.0104
 21
-2.88456
 31
0.0
  0
LINE
  8
0
 62
     0
 10
13.0104
 20
-2.88456
 30
0.0
 11
13.25
 21
-2.94444
 31
0.0
  0
LINE
  8
0
 62
     0
 10
13.25
 20
-2.94444
 30
0.0
 11
13.4999
 21
-2.97049
 31
0.0
  0
LINE
  8
0
 62
     0
 10
13.4999
 20
-2.97049
 30
0.0
 11
13.7638
 21
-2.96528
 31
0.0
  0
LINE
  8
0
 62
     0
 10
13.7638
 20
-2.96528
 30
0.0
 11
14.0417
 21
-2.92882
 31
0.0
  0
LINE
  8
0
 62
     0
 10
14.0417
 20
-2.92882
 30
0.0
 11
14.3333
 21
-2.86111
 31
0.0
  0
LINE
  8
0
 62
     0
 10
14.3333
 20
-2.86111
 30
0.0
 11
14.6164
 21
-2.7691
 31
0.0
  0
LINE
  8
0
 62
     0
 10
14.6164
 20
-2.7691
 30
0.0
 11
14.8681
 21
-2.65972
 31
0.0
  0
LINE
  8
0
 62
     0
 10
14.8681
 20
-2.65972
 30
0.0
 11
15.0885
 21
-2.53299
 31
0.0
  0
LINE
  8
0
 62
     0
 10
15.0885
 20
-2.53299
 30
0.0
 11
15.2778
 21
-2.38889
 31
0.0
  0
LINE
  8
0
 62
     0
 10
15.2778
 20
-2.38889
 30
0.0
 11
15.434
 21
-2.21522
 31
0.0
  0
LINE
  8
0
 62
     0
 10
15.434
 20
-2.21522
 30
0.0
 11
15.5278
 21
-2.04167
 31
0.0
  0
LINE
  8
0
 62
     0
 10
15.5278
 20
-2.04167
 30
0.0
 11
15.559
 21
-1.86806
 31
0.0
  0
LINE
  8
0
 62
     0
 10
15.559
 20
-1.86806
 30
0.0
 11
15.5278
 21
-1.69444
 31
0.0
  0
LINE
  8
0
 62
     0
 10
15.5278
 20
-1.69444
 30
0.0
 11
15.1007
 21
-0.47564
 31
0.0
  0
LINE
  8
0
 62
     0
 10
15.1007
 20
-0.47564
 30
0.0
 11
14.6528
 21
0.819444
 31
0.0
  0
LINE
  8
0
 62
     0
 10
14.6528
 20
0.819444
 30
0.0
 11
15.1985
 21
0.988986
 31
0.0
  0
LINE
  8
0
 62
     0
 10
15.1985
 20
0.988986
 30
0.0
 11
15.7108
 21
1.13634
 31
0.0
  0
LINE
  8
0
 62
     0
 10
15.7108
 20
1.13634
 30
0.0
 11
16.1899
 21
1.26156
 31
0.0
  0
LINE
  8
0
 62
     0
 10
16.1899
 20
1.26156
 30
0.0
 11
16.6354
 21
1.36458
 31
0.0
  0
LINE
  8
0
 62
     0
 10
16.6354
 20
1.36458
 30
0.0
 11
17.0475
 21
1.44553
 31
0.0
  0
LINE
  8
0
 62
     0
 10
17.0475
 20
1.44553
 30
0.0
 11
17.4261
 21
1.50435
 31
0.0
  0
LINE
  8
0
 62
     0
 10
17.4261
 20
1.50435
 30
0.0
 11
17.7714
 21
1.54101
 31
0.0
  0
LINE
  8
0
 62
     0
 10
17.7714
 20
1.54101
 30
0.0
 11
18.0833
 21
1.55556
 31
0.0
  0
LINE
  8
0
 62
     0
 10
18.0833
 20
1.55556
 30
0.0
 11
18.3308
 21
1.55578
 31
0.0
  0
LINE
  8
0
 62
     0
 10
18.3308
 20
1.55578
 30
0.0
 11
18.5632
 21
1.54238
 31
0.0
  0
LINE
  8
0
 62
     0
 10
18.5632
 20
1.54238
 30
0.0
 11
18.7801
 21
1.5154
 31
0.0
  0
LINE
  8
0
 62
     0
 10
18.7801
 20
1.5154
 30
0.0
 11
18.9818
 21
1.47488
 31
0.0
  0
LINE
  8
0
 62
     0
 10
18.9818
 20
1.47488
 30
0.0
 11
19.1682
 21
1.42079
 31
0.0
  0
LINE
  8
0
 62
     0
 10
19.1682
 20
1.42079
 30
0.0
 11
19.3392
 21
1.35314
 31
0.0
  0
LINE
  8
0
 62
     0
 10
19.3392
 20
1.35314
 30
0.0
 11
19.495
 21
1.27192
 31
0.0
  0
LINE
  8
0
 62
     0
 10
19.495
 20
1.27192
 30
0.0
 11
19.6354
 21
1.17714
 31
0.0
  0
LINE
  8
0
 62
     0
 10
19.6354
 20
1.17714
 30
0.0
 11
19.7606
 21
1.06879
 31
0.0
  0
LINE
  8
0
 62
     0
 10
19.7606
 20
1.06879
 30
0.0
 11
19.8704
 21
0.946886
 31
0.0
  0
LINE
  8
0
 62
     0
 10
19.8704
 20
0.946886
 30
0.0
 11
19.965
 21
0.811415
 31
0.0
  0
LINE
  8
0
 62
     0
 10
19.965
 20
0.811415
 30
0.0
 11
20.0443
 21
0.662381
 31
0.0
  0
LINE
  8
0
 62
     0
 10
20.0443
 20
0.662381
 30
0.0
 11
20.1082
 21
0.499783
 31
0.0
  0
LINE
  8
0
 62
     0
 10
20.1082
 20
0.499783
 30
0.0
 11
20.1569
 21
0.323622
 31
0.0
  0
LINE
  8
0
 62
     0
 10
20.1569
 20
0.323622
 30
0.0
 11
20.1903
 21
0.133898
 31
0.0
  0
LINE
  8
0
 62
     0
 10
20.1903
 20
0.133898
 30
0.0
 11
20.2083
 21
-0.0694444
 31
0.0
  0
LINE
  8
0
 62
     0
 10
20.2083
 20
-0.0694444
 30
0.0
 11
20.2439
 21
-0.214356
 31
0.0
  0
LINE
  8
0
 62
     0
 10
20.2439
 20
-0.214356
 30
0.0
 11
20.3368
 21
-0.329807
 31
0.0
  0
LINE
  8
0
 62
     0
 10
20.3368
 20
-0.329807
 30
0.0
 11
20.4869
 21
-0.415744
 31
0.0
  0
LINE
  8
0
 62
     0
 10
20.4869
 20
-0.415744
 30
0.0
 11
20.6944
 21
-0.472222
 31
0.0
  0
LINE
  8
0
 62
     0
 10
20.6944
 20
-0.472222
 30
0.0
 11
20.9201
 21
-0.5
 31
0.0
  0
LINE
  8
0
 62
     0
 10
20.9201
 20
-0.5
 30
0.0
 11
21.1667
 21
-0.5
 31
0.0
  0
LINE
  8
0
 62
     0
 10
21.1667
 20
-0.5
 30
0.0
 11
21.434
 21
-0.472222
 31
0.0
  0
LINE
  8
0
 62
     0
 10
21.434
 20
-0.472222
 30
0.0
 11
21.7222
 21
-0.416667
 31
0.0
  0
LINE
  8
0
 62
     0
 10
21.7222
 20
-0.416667
 30
0.0
 11
22.0139
 21
-0.337619
 31
0.0
  0
LINE
  8
0
 62
     0
 10
22.0139
 20
-0.337619
 30
0.0
 11
22.2778
 21
-0.239529
 31
0.0
  0
LINE
  8
0
 62
     0
 10
22.2778
 20
-0.239529
 30
0.0
 11
22.5139
 21
-0.122342
 31
0.0
  0
LINE
  8
0
 62
     0
 10
22.5139
 20
-0.122342
 30
0.0
 11
22.7222
 21
0.0138889
 31
0.0
  0
LINE
  8
0
 62
     0
 10
22.7222
 20
0.0138889
 30
0.0
 11
22.921
 21
0.177951
 31
0.0
  0
LINE
  8
0
 62
     0
 10
22.921
 20
0.177951
 30
0.0
 11
23.059
 21
0.350694
 31
0.0
  0
LINE
  8
0
 62
     0
 10
23.059
 20
0.350694
 30
0.0
 11
23.1363
 21
0.532118
 31
0.0
  0
LINE
  8
0
 62
     0
 10
23.1363
 20
0.532118
 30
0.0
 11
23.1528
 21
0.722222
 31
0.0
  0
LINE
  8
0
 62
     0
 10
23.1528
 20
0.722222
 30
0.0
 11
23.1314
 21
0.970921
 31
0.0
  0
LINE
  8
0
 62
     0
 10
23.1314
 20
0.970921
 30
0.0
 11
23.0933
 21
1.20649
 31
0.0
  0
LINE
  8
0
 62
     0
 10
23.0933
 20
1.20649
 30
0.0
 11
23.0388
 21
1.42904
 31
0.0
  0
LINE
  8
0
 62
     0
 10
23.0388
 20
1.42904
 30
0.0
 11
22.9674
 21
1.63846
 31
0.0
  0
LINE
  8
0
 62
     0
 10
22.9674
 20
1.63846
 30
0.0
 11
22.8794
 21
1.83485
 31
0.0
  0
LINE
  8
0
 62
     0
 10
22.8794
 20
1.83485
 30
0.0
 11
22.7749
 21
2.01812
 31
0.0
  0
LINE
  8
0
 62
     0
 10
22.7749
 20
2.01812
 30
0.0
 11
22.6535
 21
2.18838
 31
0.0
  0
LINE
  8
0
 62
     0
 10
22.6535
 20
2.18838
 30
0.0
 11
22.5156
 21
2.34549
 31
0.0
  0
LINE
  8
0
 62
     0
 10
22.5156
 20
2.34549
 30
0.0
 11
22.361
 21
2.48958
 31
0.0
  0
LINE
  8
0
 62
     0
 10
22.361
 20
2.48958
 30
0.0
 11
22.1897
 21
2.62056
 31
0.0
  0
LINE
  8
0
 62
     0
 10
22.1897
 20
2.62056
 30
0.0
 11
22.0018
 21
2.7385
 31
0.0
  0
LINE
  8
0
 62
     0
 10
22.0018
 20
2.7385
 30
0.0
 11
21.7972
 21
2.84332
 31
0.0
  0
LINE
  8
0
 62
     0
 10
21.7972
 20
2.84332
 30
0.0
 11
21.5761
 21
2.93511
 31
0.0
  0
LINE
  8
0
 62
     0
 10
21.5761
 20
2.93511
 30
0.0
 11
21.3382
 21
3.01378
 31
0.0
  0
LINE
  8
0
 62
     0
 10
21.3382
 20
3.01378
 30
0.0
 11
21.0836
 21
3.07943
 31
0.0
  0
LINE
  8
0
 62
     0
 10
21.0836
 20
3.07943
 30
0.0
 11
20.8125
 21
3.13194
 31
0.0
  0
LINE
  8
0
 62
     0
 10
20.8125
 20
3.13194
 30
0.0
 11
20.5246
 21
3.17144
 31
0.0
  0
LINE
  8
0
 62
     0
 10
20.5246
 20
3.17144
 30
0.0
 11
20.2201
 21
3.19781
 31
0.0
  0
LINE
  8
0
 62
     0
 10
20.2201
 20
3.19781
 30
0.0
 11
19.8989
 21
3.21115
 31
0.0
  0
LINE
  8
0
 62
     0
 10
19.8989
 20
3.21115
 30
0.0
 11
19.5611
 21
3.21137
 31
0.0
  0
LINE
  8
0
 62
     0
 10
19.5611
 20
3.21137
 30
0.0
 11
19.2067
 21
3.19857
 31
0.0
  0
LINE
  8
0
 62
     0
 10
19.2067
 20
3.19857
 30
0.0
 11
18.8356
 21
3.17264
 31
0.0
  0
LINE
  8
0
 62
     0
 10
18.8356
 20
3.17264
 30
0.0
 11
18.4478
 21
3.13368
 31
0.0
  0
LINE
  8
0
 62
     0
 10
18.4478
 20
3.13368
 30
0.0
 11
18.0433
 21
3.0816
 31
0.0
  0
LINE
  8
0
 62
     0
 10
18.0433
 20
3.0816
 30
0.0
 11
17.6222
 21
3.0165
 31
0.0
  0
LINE
  8
0
 62
     0
 10
17.6222
 20
3.0165
 30
0.0
 11
17.1846
 21
2.93826
 31
0.0
  0
LINE
  8
0
 62
     0
 10
17.1846
 20
2.93826
 30
0.0
 11
16.7301
 21
2.847
 31
0.0
  0
LINE
  8
0
 62
     0
 10
16.7301
 20
2.847
 30
0.0
 11
16.259
 21
2.74262
 31
0.0
  0
LINE
  8
0
 62
     0
 10
16.259
 20
2.74262
 30
0.0
 11
15.7714
 21
2.62522
 31
0.0
  0
LINE
  8
0
 62
     0
 10
15.7714
 20
2.62522
 30
0.0
 11
15.2669
 21
2.49468
 31
0.0
  0
LINE
  8
0
 62
     0
 10
15.2669
 20
2.49468
 30
0.0
 11
14.746
 21
2.35113
 31
0.0
  0
LINE
  8
0
 62
     0
 10
14.746
 20
2.35113
 30
0.0
 11
14.2083
 21
2.19444
 31
0.0
  0
LINE
  8
0
 62
     0
 10
14.2083
 20
2.19444
 30
0.0
 11
13.9911
 21
2.85069
 31
0.0
  0
LINE
  8
0
 62
     0
 10
13.9911
 20
2.85069
 30
0.0
 11
13.763
 21
3.54861
 31
0.0
  0
LINE
  8
0
 62
     0
 10
13.763
 20
3.54861
 30
0.0
 11
13.524
 21
4.28819
 31
0.0
  0
LINE
  8
0
 62
     0
 10
13.524
 20
4.28819
 30
0.0
 11
13.2742
 21
5.06944
 31
0.0
  0
LINE
  8
0
 62
     0
 10
13.2742
 20
5.06944
 30
0.0
 11
13.0136
 21
5.89236
 31
0.0
  0
LINE
  8
0
 62
     0
 10
13.0136
 20
5.89236
 30
0.0
 11
12.7421
 21
6.75694
 31
0.0
  0
LINE
  8
0
 62
     0
 10
12.7421
 20
6.75694
 30
0.0
 11
12.4598
 21
7.66319
 31
0.0
  0
LINE
  8
0
 62
     0
 10
12.4598
 20
7.66319
 30
0.0
 11
12.1667
 21
8.61111
 31
0.0
  0
ENDSEC
  0
EOF
