  0
SECTION
  2
HEADER
  9
$ACADVER
  1
AC1009
  9
$EXTMIN
 10
0.0
 20
0.0
 30
0.0
  9
$EXTMAX
 10
1000.0
 20
1000.0
 30
0.0
  9
$FILLMODE
 70
 0
  9
$SPLFRAME
 70
 1
  0
ENDSEC
  0
SECTION
  2
TABLES
  0
TABLE
  2
LAYER
 70
1
  0
LAYER
  2
0
 70
     0
 62
     7
  6
CONTINUOUS
  0
ENDTAB
  0
ENDSEC
  0
SECTION
  2
ENTITIES
  0
LINE
  8
0
 62
     0
 10
7.375
 20
18.3889
 30
0.0
 11
7.74393
 21
18.3071
 31
0.0
  0
LINE
  8
0
 62
     0
 10
7.74393
 20
18.3071
 30
0.0
 11
8.07986
 21
18.2006
 31
0.0
  0
LINE
  8
0
 62
     0
 10
8.07986
 20
18.2006
 30
0.0
 11
8.38282
 21
18.0693
 31
0.0
  0
LINE
  8
0
 62
     0
 10
8.38282
 20
18.0693
 30
0.0
 11
8.65278
 21
17.9132
 31
0.0
  0
LINE
  8
0
 62
     0
 10
8.65278
 20
17.9132
 30
0.0
 11
8.88976
 21
17.7324
 31
0.0
  0
LINE
  8
0
 62
     0
 10
8.88976
 20
17.7324
 30
0.0
 11
9.09375
 21
17.5269
 31
0.0
  0
LINE
  8
0
 62
     0
 10
9.09375
 20
17.5269
 30
0.0
 11
9.26476
 21
17.2967
 31
0.0
  0
LINE
  8
0
 62
     0
 10
9.26476
 20
17.2967
 30
0.0
 11
9.40278
 21
17.0417
 31
0.0
  0
LINE
  8
0
 62
     0
 10
9.40278
 20
17.0417
 30
0.0
 11
9.47374
 21
16.8351
 31
0.0
  0
LINE
  8
0
 62
     0
 10
9.47374
 20
16.8351
 30
0.0
 11
9.51303
 21
16.6042
 31
0.0
  0
LINE
  8
0
 62
     0
 10
9.51303
 20
16.6042
 30
0.0
 11
9.52061
 21
16.349
 31
0.0
  0
LINE
  8
0
 62
     0
 10
9.52061
 20
16.349
 30
0.0
 11
9.49653
 21
16.0694
 31
0.0
  0
LINE
  8
0
 62
     0
 10
9.49653
 20
16.0694
 30
0.0
 11
9.44075
 21
15.7657
 31
0.0
  0
LINE
  8
0
 62
     0
 10
9.44075
 20
15.7657
 30
0.0
 11
9.35331
 21
15.4375
 31
0.0
  0
LINE
  8
0
 62
     0
 10
9.35331
 20
15.4375
 30
0.0
 11
9.23415
 21
15.0851
 31
0.0
  0
LINE
  8
0
 62
     0
 10
9.23415
 20
15.0851
 30
0.0
 11
9.08333
 21
14.7083
 31
0.0
  0
LINE
  8
0
 62
     0
 10
9.08333
 20
14.7083
 30
0.0
 11
8.85286
 21
14.2532
 31
0.0
  0
LINE
  8
0
 62
     0
 10
8.85286
 20
14.2532
 30
0.0
 11
8.55035
 21
13.7839
 31
0.0
  0
LINE
  8
0
 62
     0
 10
8.55035
 20
13.7839
 30
0.0
 11
8.17578
 21
13.3001
 31
0.0
  0
LINE
  8
0
 62
     0
 10
8.17578
 20
13.3001
 30
0.0
 11
7.72917
 21
12.8021
 31
0.0
  0
LINE
  8
0
 62
     0
 10
7.72917
 20
12.8021
 30
0.0
 11
7.2105
 21
12.2897
 31
0.0
  0
LINE
  8
0
 62
     0
 10
7.2105
 20
12.2897
 30
0.0
 11
6.61979
 21
11.763
 31
0.0
  0
LINE
  8
0
 62
     0
 10
6.61979
 20
11.763
 30
0.0
 11
5.95703
 21
11.222
 31
0.0
  0
LINE
  8
0
 62
     0
 10
5.95703
 20
11.222
 30
0.0
 11
5.22222
 21
10.6667
 31
0.0
  0
LINE
  8
0
 62
     0
 10
5.22222
 20
10.6667
 30
0.0
 11
4.86025
 21
11.3785
 31
0.0
  0
LINE
  8
0
 62
     0
 10
4.86025
 20
11.3785
 30
0.0
 11
4.56597
 21
12.1111
 31
0.0
  0
LINE
  8
0
 62
     0
 10
4.56597
 20
12.1111
 30
0.0
 11
4.33942
 21
12.8646
 31
0.0
  0
LINE
  8
0
 62
     0
 10
4.33942
 20
12.8646
 30
0.0
 11
4.18056
 21
13.6389
 31
0.0
  0
LINE
  8
0
 62
     0
 10
4.18056
 20
13.6389
 30
0.0
 11
4.10872
 21
14.2275
 31
0.0
  0
LINE
  8
0
 62
     0
 10
4.10872
 20
14.2275
 30
0.0
 11
4.08768
 21
14.7917
 31
0.0
  0
LINE
  8
0
 62
     0
 10
4.08768
 20
14.7917
 30
0.0
 11
4.1174
 21
15.3317
 31
0.0
  0
LINE
  8
0
 62
     0
 10
4.1174
 20
15.3317
 30
0.0
 11
4.19792
 21
15.8472
 31
0.0
  0
LINE
  8
0
 62
     0
 10
4.19792
 20
15.8472
 30
0.0
 11
4.32921
 21
16.3386
 31
0.0
  0
LINE
  8
0
 62
     0
 10
4.32921
 20
16.3386
 30
0.0
 11
4.51129
 21
16.8056
 31
0.0
  0
LINE
  8
0
 62
     0
 10
4.51129
 20
16.8056
 30
0.0
 11
4.74414
 21
17.2483
 31
0.0
  0
LINE
  8
0
 62
     0
 10
4.74414
 20
17.2483
 30
0.0
 11
5.02778
 21
17.6667
 31
0.0
  0
LINE
  8
0
 62
     0
 10
5.02778
 20
17.6667
 30
0.0
 11
5.23156
 21
17.8967
 31
0.0
  0
LINE
  8
0
 62
     0
 10
5.23156
 20
17.8967
 30
0.0
 11
5.46094
 21
18.0868
 31
0.0
  0
LINE
  8
0
 62
     0
 10
5.46094
 20
18.0868
 30
0.0
 11
5.71593
 21
18.2369
 31
0.0
  0
LINE
  8
0
 62
     0
 10
5.71593
 20
18.2369
 30
0.0
 11
5.99653
 21
18.3472
 31
0.0
  0
LINE
  8
0
 62
     0
 10
5.99653
 20
18.3472
 30
0.0
 11
6.30274
 21
18.4175
 31
0.0
  0
LINE
  8
0
 62
     0
 10
6.30274
 20
18.4175
 30
0.0
 11
6.63456
 21
18.4479
 31
0.0
  0
LINE
  8
0
 62
     0
 10
6.63456
 20
18.4479
 30
0.0
 11
6.99197
 21
18.4383
 31
0.0
  0
LINE
  8
0
 62
     0
 10
6.99197
 20
18.4383
 30
0.0
 11
7.375
 21
18.3889
 31
0.0
  0
LINE
  8
0
 62
     0
 10
7.26389
 20
2.23611
 30
0.0
 11
6.85742
 21
1.94336
 31
0.0
  0
LINE
  8
0
 62
     0
 10
6.85742
 20
1.94336
 30
0.0
 11
6.45053
 21
1.71094
 31
0.0
  0
LINE
  8
0
 62
     0
 10
6.45053
 20
1.71094
 30
0.0
 11
6.04318
 21
1.53885
 31
0.0
  0
LINE
  8
0
 62
     0
 10
6.04318
 20
1.53885
 30
0.0
 11
5.63542
 21
1.42708
 31
0.0
  0
LINE
  8
0
 62
     0
 10
5.63542
 20
1.42708
 30
0.0
 11
5.22721
 21
1.37565
 31
0.0
  0
LINE
  8
0
 62
     0
 10
5.22721
 20
1.37565
 30
0.0
 11
4.81858
 21
1.38455
 31
0.0
  0
LINE
  8
0
 62
     0
 10
4.81858
 20
1.38455
 30
0.0
 11
4.4095
 21
1.45378
 31
0.0
  0
LINE
  8
0
 62
     0
 10
4.4095
 20
1.45378
 30
0.0
 11
4
 21
1.58333
 31
0.0
  0
LINE
  8
0
 62
     0
 10
4
 20
1.58333
 30
0.0
 11
3.61176
 21
1.76801
 31
0.0
  0
LINE
  8
0
 62
     0
 10
3.61176
 20
1.76801
 30
0.0
 11
3.27344
 21
1.99567
 31
0.0
  0
LINE
  8
0
 62
     0
 10
3.27344
 20
1.99567
 30
0.0
 11
2.98503
 21
2.26628
 31
0.0
  0
LINE
  8
0
 62
     0
 10
2.98503
 20
2.26628
 30
0.0
 11
2.74653
 21
2.57986
 31
0.0
  0
LINE
  8
0
 62
     0
 10
2.74653
 20
2.57986
 30
0.0
 11
2.55794
 21
2.93647
 31
0.0
  0
LINE
  8
0
 62
     0
 10
2.55794
 20
2.93647
 30
0.0
 11
2.41928
 21
3.33599
 31
0.0
  0
LINE
  8
0
 62
     0
 10
2.41928
 20
3.33599
 30
0.0
 11
2.33051
 21
3.77849
 31
0.0
  0
LINE
  8
0
 62
     0
 10
2.33051
 20
3.77849
 30
0.0
 11
2.29167
 21
4.26389
 31
0.0
  0
LINE
  8
0
 62
     0
 10
2.29167
 20
4.26389
 30
0.0
 11
2.31093
 21
4.72706
 31
0.0
  0
LINE
  8
0
 62
     0
 10
2.31093
 20
4.72706
 30
0.0
 11
2.39665
 21
5.19276
 31
0.0
  0
LINE
  8
0
 62
     0
 10
2.39665
 20
5.19276
 30
0.0
 11
2.54878
 21
5.66108
 31
0.0
  0
LINE
  8
0
 62
     0
 10
2.54878
 20
5.66108
 30
0.0
 11
2.76736
 21
6.13194
 31
0.0
  0
LINE
  8
0
 62
     0
 10
2.76736
 20
6.13194
 30
0.0
 11
3.05231
 21
6.60547
 31
0.0
  0
LINE
  8
0
 62
     0
 10
3.05231
 20
6.60547
 30
0.0
 11
3.40365
 21
7.0816
 31
0.0
  0
LINE
  8
0
 62
     0
 10
3.40365
 20
7.0816
 30
0.0
 11
3.8214
 21
7.56033
 31
0.0
  0
LINE
  8
0
 62
     0
 10
3.8214
 20
7.56033
 30
0.0
 11
4.30556
 21
8.04167
 31
0.0
  0
LINE
  8
0
 62
     0
 10
4.30556
 20
8.04167
 30
0.0
 11
4.50521
 21
7.82124
 31
0.0
  0
LINE
  8
0
 62
     0
 10
4.50521
 20
7.82124
 30
0.0
 11
4.72222
 21
7.59033
 31
0.0
  0
LINE
  8
0
 62
     0
 10
4.72222
 20
7.59033
 30
0.0
 11
4.9566
 21
7.34901
 31
0.0
  0
LINE
  8
0
 62
     0
 10
4.9566
 20
7.34901
 30
0.0
 11
5.20833
 21
7.09722
 31
0.0
  0
LINE
  8
0
 62
     0
 10
5.20833
 20
7.09722
 30
0.0
 11
5.47743
 21
6.83507
 31
0.0
  0
LINE
  8
0
 62
     0
 10
5.47743
 20
6.83507
 30
0.0
 11
5.76389
 21
6.5625
 31
0.0
  0
LINE
  8
0
 62
     0
 10
5.76389
 20
6.5625
 30
0.0
 11
6.06771
 21
6.27951
 31
0.0
  0
LINE
  8
0
 62
     0
 10
6.06771
 20
6.27951
 30
0.0
 11
6.38889
 21
5.98611
 31
0.0
  0
LINE
  8
0
 62
     0
 10
6.38889
 20
5.98611
 30
0.0
 11
6.86372
 21
5.55365
 31
0.0
  0
LINE
  8
0
 62
     0
 10
6.86372
 20
5.55365
 30
0.0
 11
7.28125
 21
5.17279
 31
0.0
  0
LINE
  8
0
 62
     0
 10
7.28125
 20
5.17279
 30
0.0
 11
7.6415
 21
4.84358
 31
0.0
  0
LINE
  8
0
 62
     0
 10
7.6415
 20
4.84358
 30
0.0
 11
7.94444
 21
4.56603
 31
0.0
  0
LINE
  8
0
 62
     0
 10
7.94444
 20
4.56603
 30
0.0
 11
8.19011
 21
4.34011
 31
0.0
  0
LINE
  8
0
 62
     0
 10
8.19011
 20
4.34011
 30
0.0
 11
8.37847
 21
4.16585
 31
0.0
  0
LINE
  8
0
 62
     0
 10
8.37847
 20
4.16585
 30
0.0
 11
8.50956
 21
4.04324
 31
0.0
  0
LINE
  8
0
 62
     0
 10
8.50956
 20
4.04324
 30
0.0
 11
8.58333
 21
3.97222
 31
0.0
  0
LINE
  8
0
 62
     0
 10
8.58333
 20
3.97222
 30
0.0
 11
8.34983
 21
3.48872
 31
0.0
  0
LINE
  8
0
 62
     0
 10
8.34983
 20
3.48872
 30
0.0
 11
8.05208
 21
3.03819
 31
0.0
  0
LINE
  8
0
 62
     0
 10
8.05208
 20
3.03819
 30
0.0
 11
7.69011
 21
2.62067
 31
0.0
  0
LINE
  8
0
 62
     0
 10
7.69011
 20
2.62067
 30
0.0
 11
7.26389
 21
2.23611
 31
0.0
  0
LINE
  8
0
 62
     0
 10
2.65278
 20
8.70833
 30
0.0
 11
2.16401
 21
8.24571
 31
0.0
  0
LINE
  8
0
 62
     0
 10
2.16401
 20
8.24571
 30
0.0
 11
1.71181
 21
7.71881
 31
0.0
  0
LINE
  8
0
 62
     0
 10
1.71181
 20
7.71881
 30
0.0
 11
1.29601
 21
7.12765
 31
0.0
  0
LINE
  8
0
 62
     0
 10
1.29601
 20
7.12765
 30
0.0
 11
0.916667
 21
6.47222
 31
0.0
  0
LINE
  8
0
 62
     0
 10
0.916667
 20
6.47222
 30
0.0
 11
0.574599
 21
5.77436
 31
0.0
  0
LINE
  8
0
 62
     0
 10
0.574599
 20
5.77436
 30
0.0
 11
0.312446
 21
5.08339
 31
0.0
  0
LINE
  8
0
 62
     0
 10
0.312446
 20
5.08339
 30
0.0
 11
0.130154
 21
4.39936
 31
0.0
  0
LINE
  8
0
 62
     0
 10
0.130154
 20
4.39936
 30
0.0
 11
0.0277778
 21
3.72222
 31
0.0
  0
LINE
  8
0
 62
     0
 10
0.0277778
 20
3.72222
 30
0.0
 11
0.00602214
 21
3.35568
 31
0.0
  0
LINE
  8
0
 62
     0
 10
0.00602214
 20
3.35568
 30
0.0
 11
0.0103624
 21
3.00608
 31
0.0
  0
LINE
  8
0
 62
     0
 10
0.0103624
 20
3.00608
 30
0.0
 11
0.0407443
 21
2.67339
 31
0.0
  0
LINE
  8
0
 62
     0
 10
0.0407443
 20
2.67339
 30
0.0
 11
0.0972222
 21
2.35764
 31
0.0
  0
LINE
  8
0
 62
     0
 10
0.0972222
 20
2.35764
 30
0.0
 11
0.179688
 21
2.05881
 31
0.0
  0
LINE
  8
0
 62
     0
 10
0.179688
 20
2.05881
 30
0.0
 11
0.288194
 21
1.77692
 31
0.0
  0
LINE
  8
0
 62
     0
 10
0.288194
 20
1.77692
 30
0.0
 11
0.422743
 21
1.51193
 31
0.0
  0
LINE
  8
0
 62
     0
 10
0.422743
 20
1.51193
 30
0.0
 11
0.583333
 21
1.26389
 31
0.0
  0
LINE
  8
0
 62
     0
 10
0.583333
 20
1.26389
 30
0.0
 11
0.800131
 21
0.999837
 31
0.0
  0
LINE
  8
0
 62
     0
 10
0.800131
 20
0.999837
 30
0.0
 11
1.04774
 21
0.763075
 31
0.0
  0
LINE
  8
0
 62
     0
 10
1.04774
 20
0.763075
 30
0.0
 11
1.32617
 21
0.553657
 31
0.0
  0
LINE
  8
0
 62
     0
 10
1.32617
 20
0.553657
 30
0.0
 11
1.63542
 21
0.371528
 31
0.0
  0
LINE
  8
0
 62
     0
 10
1.63542
 20
0.371528
 30
0.0
 11
1.97547
 21
0.216797
 31
0.0
  0
LINE
  8
0
 62
     0
 10
1.97547
 20
0.216797
 30
0.0
 11
2.34636
 21
0.0894097
 31
0.0
  0
LINE
  8
0
 62
     0
 10
2.34636
 20
0.0894097
 30
0.0
 11
2.74804
 21
-0.0106337
 31
0.0
  0
LINE
  8
0
 62
     0
 10
2.74804
 20
-0.0106337
 30
0.0
 11
3.18056
 21
-0.0833333
 31
0.0
  0
LINE
  8
0
 62
     0
 10
3.18056
 20
-0.0833333
 30
0.0
 11
3.70329
 21
-0.137098
 31
0.0
  0
LINE
  8
0
 62
     0
 10
3.70329
 20
-0.137098
 30
0.0
 11
4.2161
 21
-0.159668
 31
0.0
  0
LINE
  8
0
 62
     0
 10
4.2161
 20
-0.159668
 30
0.0
 11
4.71892
 21
-0.150988
 31
0.0
  0
LINE
  8
0
 62
     0
 10
4.71892
 20
-0.150988
 30
0.0
 11
5.21175
 21
-0.111111
 31
0.0
  0
LINE
  8
0
 62
     0
 10
5.21175
 20
-0.111111
 30
0.0
 11
5.69461
 21
-0.0399306
 31
0.0
  0
LINE
  8
0
 62
     0
 10
5.69461
 20
-0.0399306
 30
0.0
 11
6.16749
 21
0.0625
 31
0.0
  0
LINE
  8
0
 62
     0
 10
6.16749
 20
0.0625
 30
0.0
 11
6.63037
 21
0.196181
 31
0.0
  0
LINE
  8
0
 62
     0
 10
6.63037
 20
0.196181
 30
0.0
 11
7.08333
 21
0.361111
 31
0.0
  0
LINE
  8
0
 62
     0
 10
7.08333
 20
0.361111
 30
0.0
 11
7.51085
 21
0.550401
 31
0.0
  0
LINE
  8
0
 62
     0
 10
7.51085
 20
0.550401
 30
0.0
 11
7.9184
 21
0.763943
 31
0.0
  0
LINE
  8
0
 62
     0
 10
7.9184
 20
0.763943
 30
0.0
 11
8.30599
 21
1.00179
 31
0.0
  0
LINE
  8
0
 62
     0
 10
8.30599
 20
1.00179
 30
0.0
 11
8.67361
 21
1.26394
 31
0.0
  0
LINE
  8
0
 62
     0
 10
8.67361
 20
1.26394
 30
0.0
 11
9.02126
 21
1.5504
 31
0.0
  0
LINE
  8
0
 62
     0
 10
9.02126
 20
1.5504
 30
0.0
 11
9.34896
 21
1.86117
 31
0.0
  0
LINE
  8
0
 62
     0
 10
9.34896
 20
1.86117
 30
0.0
 11
9.65668
 21
2.19624
 31
0.0
  0
LINE
  8
0
 62
     0
 10
9.65668
 20
2.19624
 30
0.0
 11
9.94444
 21
2.55556
 31
0.0
  0
LINE
  8
0
 62
     0
 10
9.94444
 20
2.55556
 30
0.0
 11
10.5
 21
1.87158
 31
0.0
  0
LINE
  8
0
 62
     0
 10
10.5
 20
1.87158
 30
0.0
 11
10.9861
 21
1.18061
 31
0.0
  0
LINE
  8
0
 62
     0
 10
10.9861
 20
1.18061
 30
0.0
 11
11.4028
 21
0.482693
 31
0.0
  0
LINE
  8
0
 62
     0
 10
11.4028
 20
0.482693
 30
0.0
 11
11.75
 21
-0.222222
 31
0.0
  0
LINE
  8
0
 62
     0
 10
11.75
 20
-0.222222
 30
0.0
 11
11.8454
 21
-0.380208
 31
0.0
  0
LINE
  8
0
 62
     0
 10
11.8454
 20
-0.380208
 30
0.0
 11
11.9791
 21
-0.506944
 31
0.0
  0
LINE
  8
0
 62
     0
 10
11.9791
 20
-0.506944
 30
0.0
 11
12.151
 21
-0.602376
 31
0.0
  0
LINE
  8
0
 62
     0
 10
12.151
 20
-0.602376
 30
0.0
 11
12.3611
 21
-0.666667
 31
0.0
  0
LINE
  8
0
 62
     0
 10
12.3611
 20
-0.666667
 30
0.0
 11
12.5677
 21
-0.694444
 31
0.0
  0
LINE
  8
0
 62
     0
 10
12.5677
 20
-0.694444
 30
0.0
 11
12.7847
 21
-0.694444
 31
0.0
  0
LINE
  8
0
 62
     0
 10
12.7847
 20
-0.694444
 30
0.0
 11
13.0122
 21
-0.666667
 31
0.0
  0
LINE
  8
0
 62
     0
 10
13.0122
 20
-0.666667
 30
0.0
 11
13.25
 21
-0.611111
 31
0.0
  0
LINE
  8
0
 62
     0
 10
13.25
 20
-0.611111
 30
0.0
 11
13.4722
 21
-0.5338
 31
0.0
  0
LINE
  8
0
 62
     0
 10
13.4722
 20
-0.5338
 30
0.0
 11
13.6667
 21
-0.440972
 31
0.0
  0
LINE
  8
0
 62
     0
 10
13.6667
 20
-0.440972
 30
0.0
 11
13.8333
 21
-0.332465
 31
0.0
  0
LINE
  8
0
 62
     0
 10
13.8333
 20
-0.332465
 30
0.0
 11
13.9722
 21
-0.208333
 31
0.0
  0
LINE
  8
0
 62
     0
 10
13.9722
 20
-0.208333
 30
0.0
 11
14.085
 21
-0.0607096
 31
0.0
  0
LINE
  8
0
 62
     0
 10
14.085
 20
-0.0607096
 30
0.0
 11
14.1458
 21
0.0903321
 31
0.0
  0
LINE
  8
0
 62
     0
 10
14.1458
 20
0.0903321
 30
0.0
 11
14.1546
 21
0.244846
 31
0.0
  0
LINE
  8
0
 62
     0
 10
14.1546
 20
0.244846
 30
0.0
 11
14.1111
 21
0.402778
 31
0.0
  0
LINE
  8
0
 62
     0
 10
14.1111
 20
0.402778
 30
0.0
 11
13.8648
 21
0.908475
 31
0.0
  0
LINE
  8
0
 62
     0
 10
13.8648
 20
0.908475
 30
0.0
 11
13.5773
 21
1.41846
 31
0.0
  0
LINE
  8
0
 62
     0
 10
13.5773
 20
1.41846
 30
0.0
 11
13.2485
 21
1.93278
 31
0.0
  0
LINE
  8
0
 62
     0
 10
13.2485
 20
1.93278
 30
0.0
 11
12.8785
 21
2.45144
 31
0.0
  0
LINE
  8
0
 62
     0
 10
12.8785
 20
2.45144
 30
0.0
 11
12.4672
 21
2.97444
 31
0.0
  0
LINE
  8
0
 62
     0
 10
12.4672
 20
2.97444
 30
0.0
 11
12.0148
 21
3.50179
 31
0.0
  0
LINE
  8
0
 62
     0
 10
12.0148
 20
3.50179
 30
0.0
 11
11.5211
 21
4.03347
 31
0.0
  0
LINE
  8
0
 62
     0
 10
11.5211
 20
4.03347
 30
0.0
 11
10.9861
 21
4.56944
 31
0.0
  0
LINE
  8
0
 62
     0
 10
10.9861
 20
4.56944
 30
0.0
 11
11.1458
 21
5.13194
 31
0.0
  0
LINE
  8
0
 62
     0
 10
11.1458
 20
5.13194
 30
0.0
 11
11.2639
 21
5.70833
 31
0.0
  0
LINE
  8
0
 62
     0
 10
11.2639
 20
5.70833
 30
0.0
 11
11.3403
 21
6.29861
 31
0.0
  0
LINE
  8
0
 62
     0
 10
11.3403
 20
6.29861
 30
0.0
 11
11.375
 21
6.90278
 31
0.0
  0
LINE
  8
0
 62
     0
 10
11.375
 20
6.90278
 30
0.0
 11
11.3576
 21
7.09636
 31
0.0
  0
LINE
  8
0
 62
     0
 10
11.3576
 20
7.09636
 30
0.0
 11
11.2917
 21
7.26042
 31
0.0
  0
LINE
  8
0
 62
     0
 10
11.2917
 20
7.26042
 30
0.0
 11
11.1771
 21
7.39497
 31
0.0
  0
LINE
  8
0
 62
     0
 10
11.1771
 20
7.39497
 30
0.0
 11
11.0139
 21
7.5
 31
0.0
  0
LINE
  8
0
 62
     0
 10
11.0139
 20
7.5
 30
0.0
 11
10.8438
 21
7.5625
 31
0.0
  0
LINE
  8
0
 62
     0
 10
10.8438
 20
7.5625
 30
0.0
 11
10.6528
 21
7.59722
 31
0.0
  0
LINE
  8
0
 62
     0
 10
10.6528
 20
7.59722
 30
0.0
 11
10.4409
 21
7.60417
 31
0.0
  0
LINE
  8
0
 62
     0
 10
10.4409
 20
7.60417
 30
0.0
 11
10.2083
 21
7.58333
 31
0.0
  0
LINE
  8
0
 62
     0
 10
10.2083
 20
7.58333
 30
0.0
 11
9.97999
 21
7.54428
 31
0.0
  0
LINE
  8
0
 62
     0
 10
9.97999
 20
7.54428
 30
0.0
 11
9.76736
 21
7.48264
 31
0.0
  0
LINE
  8
0
 62
     0
 10
9.76736
 20
7.48264
 30
0.0
 11
9.57032
 21
7.39844
 31
0.0
  0
LINE
  8
0
 62
     0
 10
9.57032
 20
7.39844
 30
0.0
 11
9.38889
 21
7.29167
 31
0.0
  0
LINE
  8
0
 62
     0
 10
9.38889
 20
7.29167
 30
0.0
 11
9.22396
 21
7.15451
 31
0.0
  0
LINE
  8
0
 62
     0
 10
9.22396
 20
7.15451
 30
0.0
 11
9.10417
 21
7.00694
 31
0.0
  0
LINE
  8
0
 62
     0
 10
9.10417
 20
7.00694
 30
0.0
 11
9.02951
 21
6.84901
 31
0.0
  0
LINE
  8
0
 62
     0
 10
9.02951
 20
6.84901
 30
0.0
 11
9
 21
6.68056
 31
0.0
  0
LINE
  8
0
 62
     0
 10
9
 20
6.68056
 30
0.0
 11
8.98611
 21
6.38889
 31
0.0
  0
LINE
  8
0
 62
     0
 10
8.98611
 20
6.38889
 30
0.0
 11
8.50543
 21
6.82883
 31
0.0
  0
LINE
  8
0
 62
     0
 10
8.50543
 20
6.82883
 30
0.0
 11
8.05643
 21
7.25265
 31
0.0
  0
LINE
  8
0
 62
     0
 10
8.05643
 20
7.25265
 30
0.0
 11
7.63911
 21
7.66043
 31
0.0
  0
LINE
  8
0
 62
     0
 10
7.63911
 20
7.66043
 30
0.0
 11
7.25347
 21
8.05214
 31
0.0
  0
LINE
  8
0
 62
     0
 10
7.25347
 20
8.05214
 30
0.0
 11
6.89953
 21
8.42779
 31
0.0
  0
LINE
  8
0
 62
     0
 10
6.89953
 20
8.42779
 30
0.0
 11
6.57726
 21
8.78737
 31
0.0
  0
LINE
  8
0
 62
     0
 10
6.57726
 20
8.78737
 30
0.0
 11
6.28668
 21
9.13092
 31
0.0
  0
LINE
  8
0
 62
     0
 10
6.28668
 20
9.13092
 30
0.0
 11
6.02778
 21
9.45833
 31
0.0
  0
LINE
  8
0
 62
     0
 10
6.02778
 20
9.45833
 30
0.0
 11
6.36404
 21
9.70725
 31
0.0
  0
LINE
  8
0
 62
     0
 10
6.36404
 20
9.70725
 30
0.0
 11
6.67854
 21
9.93994
 31
0.0
  0
LINE
  8
0
 62
     0
 10
6.67854
 20
9.93994
 30
0.0
 11
6.97125
 21
10.1565
 31
0.0
  0
LINE
  8
0
 62
     0
 10
6.97125
 20
10.1565
 30
0.0
 11
7.24214
 21
10.3568
 31
0.0
  0
LINE
  8
0
 62
     0
 10
7.24214
 20
10.3568
 30
0.0
 11
7.49121
 21
10.541
 31
0.0
  0
LINE
  8
0
 62
     0
 10
7.49121
 20
10.541
 30
0.0
 11
7.71847
 21
10.709
 31
0.0
  0
LINE
  8
0
 62
     0
 10
7.71847
 20
10.709
 30
0.0
 11
7.92393
 21
10.8609
 31
0.0
  0
LINE
  8
0
 62
     0
 10
7.92393
 20
10.8609
 30
0.0
 11
8.10764
 21
10.9966
 31
0.0
  0
LINE
  8
0
 62
     0
 10
8.10764
 20
10.9966
 30
0.0
 11
8.26947
 21
11.1161
 31
0.0
  0
LINE
  8
0
 62
     0
 10
8.26947
 20
11.1161
 30
0.0
 11
8.4095
 21
11.2195
 31
0.0
  0
LINE
  8
0
 62
     0
 10
8.4095
 20
11.2195
 30
0.0
 11
8.52772
 21
11.3066
 31
0.0
  0
LINE
  8
0
 62
     0
 10
8.52772
 20
11.3066
 30
0.0
 11
8.62414
 21
11.3777
 31
0.0
  0
LINE
  8
0
 62
     0
 10
8.62414
 20
11.3777
 30
0.0
 11
8.69874
 21
11.4325
 31
0.0
  0
LINE
  8
0
 62
     0
 10
8.69874
 20
11.4325
 30
0.0
 11
8.75151
 21
11.4712
 31
0.0
  0
LINE
  8
0
 62
     0
 10
8.75151
 20
11.4712
 30
0.0
 11
8.7825
 21
11.4937
 31
0.0
  0
LINE
  8
0
 62
     0
 10
8.7825
 20
11.4937
 30
0.0
 11
8.79167
 21
11.5
 31
0.0
  0
LINE
  8
0
 62
     0
 10
8.79167
 20
11.5
 30
0.0
 11
9.34744
 21
12.004
 31
0.0
  0
LINE
  8
0
 62
     0
 10
9.34744
 20
12.004
 30
0.0
 11
9.8481
 21
12.5296
 31
0.0
  0
LINE
  8
0
 62
     0
 10
9.8481
 20
12.5296
 30
0.0
 11
10.2936
 21
13.0769
 31
0.0
  0
LINE
  8
0
 62
     0
 10
10.2936
 20
13.0769
 30
0.0
 11
10.684
 21
13.6459
 31
0.0
  0
LINE
  8
0
 62
     0
 10
10.684
 20
13.6459
 30
0.0
 11
11.0193
 21
14.2367
 31
0.0
  0
LINE
  8
0
 62
     0
 10
11.0193
 20
14.2367
 30
0.0
 11
11.2995
 21
14.849
 31
0.0
  0
LINE
  8
0
 62
     0
 10
11.2995
 20
14.849
 30
0.0
 11
11.5245
 21
15.4832
 31
0.0
  0
LINE
  8
0
 62
     0
 10
11.5245
 20
15.4832
 30
0.0
 11
11.6944
 21
16.1389
 31
0.0
  0
LINE
  8
0
 62
     0
 10
11.6944
 20
16.1389
 30
0.0
 11
11.7537
 21
16.4854
 31
0.0
  0
LINE
  8
0
 62
     0
 10
11.7537
 20
16.4854
 30
0.0
 11
11.7856
 21
16.8168
 31
0.0
  0
LINE
  8
0
 62
     0
 10
11.7856
 20
16.8168
 30
0.0
 11
11.7902
 21
17.1331
 31
0.0
  0
LINE
  8
0
 62
     0
 10
11.7902
 20
17.1331
 30
0.0
 11
11.7674
 21
17.434
 31
0.0
  0
LINE
  8
0
 62
     0
 10
11.7674
 20
17.434
 30
0.0
 11
11.7172
 21
17.7199
 31
0.0
  0
LINE
  8
0
 62
     0
 10
11.7172
 20
17.7199
 30
0.0
 11
11.6398
 21
17.9904
 31
0.0
  0
LINE
  8
0
 62
     0
 10
11.6398
 20
17.9904
 30
0.0
 11
11.5349
 21
18.2458
 31
0.0
  0
LINE
  8
0
 62
     0
 10
11.5349
 20
18.2458
 30
0.0
 11
11.4028
 21
18.4861
 31
0.0
  0
LINE
  8
0
 62
     0
 10
11.4028
 20
18.4861
 30
0.0
 11
11.2118
 21
18.7376
 31
0.0
  0
LINE
  8
0
 62
     0
 10
11.2118
 20
18.7376
 30
0.0
 11
10.9861
 21
18.9644
 31
0.0
  0
LINE
  8
0
 62
     0
 10
10.9861
 20
18.9644
 30
0.0
 11
10.7257
 21
19.1665
 31
0.0
  0
LINE
  8
0
 62
     0
 10
10.7257
 20
19.1665
 30
0.0
 11
10.4306
 21
19.3438
 31
0.0
  0
LINE
  8
0
 62
     0
 10
10.4306
 20
19.3438
 30
0.0
 11
10.1007
 21
19.4962
 31
0.0
  0
LINE
  8
0
 62
     0
 10
10.1007
 20
19.4962
 30
0.0
 11
9.73611
 21
19.6242
 31
0.0
  0
LINE
  8
0
 62
     0
 10
9.73611
 20
19.6242
 30
0.0
 11
9.33681
 21
19.7272
 31
0.0
  0
LINE
  8
0
 62
     0
 10
9.33681
 20
19.7272
 30
0.0
 11
8.90278
 21
19.8056
 31
0.0
  0
LINE
  8
0
 62
     0
 10
8.90278
 20
19.8056
 30
0.0
 11
8.12494
 21
19.8904
 31
0.0
  0
LINE
  8
0
 62
     0
 10
8.12494
 20
19.8904
 30
0.0
 11
7.38189
 21
19.9089
 31
0.0
  0
LINE
  8
0
 62
     0
 10
7.38189
 20
19.9089
 30
0.0
 11
6.67356
 21
19.861
 31
0.0
  0
LINE
  8
0
 62
     0
 10
6.67356
 20
19.861
 30
0.0
 11
5.99994
 21
19.7465
 31
0.0
  0
LINE
  8
0
 62
     0
 10
5.99994
 20
19.7465
 30
0.0
 11
5.36106
 21
19.5657
 31
0.0
  0
LINE
  8
0
 62
     0
 10
5.36106
 20
19.5657
 30
0.0
 11
4.75689
 21
19.3186
 31
0.0
  0
LINE
  8
0
 62
     0
 10
4.75689
 20
19.3186
 30
0.0
 11
4.18744
 21
19.005
 31
0.0
  0
LINE
  8
0
 62
     0
 10
4.18744
 20
19.005
 30
0.0
 11
3.65278
 21
18.625
 31
0.0
  0
LINE
  8
0
 62
     0
 10
3.65278
 20
18.625
 30
0.0
 11
3.3915
 21
18.4006
 31
0.0
  0
LINE
  8
0
 62
     0
 10
3.3915
 20
18.4006
 30
0.0
 11
3.14931
 21
18.1646
 31
0.0
  0
LINE
  8
0
 62
     0
 10
3.14931
 20
18.1646
 30
0.0
 11
2.92622
 21
17.9171
 31
0.0
  0
LINE
  8
0
 62
     0
 10
2.92622
 20
17.9171
 30
0.0
 11
2.72222
 21
17.6581
 31
0.0
  0
LINE
  8
0
 62
     0
 10
2.72222
 20
17.6581
 30
0.0
 11
2.53733
 21
17.3875
 31
0.0
  0
LINE
  8
0
 62
     0
 10
2.53733
 20
17.3875
 30
0.0
 11
2.37153
 21
17.1056
 31
0.0
  0
LINE
  8
0
 62
     0
 10
2.37153
 20
17.1056
 30
0.0
 11
2.22483
 21
16.8119
 31
0.0
  0
LINE
  8
0
 62
     0
 10
2.22483
 20
16.8119
 30
0.0
 11
2.09722
 21
16.5069
 31
0.0
  0
LINE
  8
0
 62
     0
 10
2.09722
 20
16.5069
 30
0.0
 11
1.98872
 21
16.1904
 31
0.0
  0
LINE
  8
0
 62
     0
 10
1.98872
 20
16.1904
 30
0.0
 11
1.89931
 21
15.8625
 31
0.0
  0
LINE
  8
0
 62
     0
 10
1.89931
 20
15.8625
 30
0.0
 11
1.829
 21
15.5229
 31
0.0
  0
LINE
  8
0
 62
     0
 10
1.829
 20
15.5229
 30
0.0
 11
1.77778
 21
15.1719
 31
0.0
  0
LINE
  8
0
 62
     0
 10
1.77778
 20
15.1719
 30
0.0
 11
1.74567
 21
14.8094
 31
0.0
  0
LINE
  8
0
 62
     0
 10
1.74567
 20
14.8094
 30
0.0
 11
1.73264
 21
14.4354
 31
0.0
  0
LINE
  8
0
 62
     0
 10
1.73264
 20
14.4354
 30
0.0
 11
1.73872
 21
14.0499
 31
0.0
  0
LINE
  8
0
 62
     0
 10
1.73872
 20
14.0499
 30
0.0
 11
1.76389
 21
13.6528
 31
0.0
  0
LINE
  8
0
 62
     0
 10
1.76389
 20
13.6528
 30
0.0
 11
1.83724
 21
13.068
 31
0.0
  0
LINE
  8
0
 62
     0
 10
1.83724
 20
13.068
 30
0.0
 11
1.94618
 21
12.494
 31
0.0
  0
LINE
  8
0
 62
     0
 10
1.94618
 20
12.494
 30
0.0
 11
2.09071
 21
11.9308
 31
0.0
  0
LINE
  8
0
 62
     0
 10
2.09071
 20
11.9308
 30
0.0
 11
2.27083
 21
11.3785
 31
0.0
  0
LINE
  8
0
 62
     0
 10
2.27083
 20
11.3785
 30
0.0
 11
2.48654
 21
10.8371
 31
0.0
  0
LINE
  8
0
 62
     0
 10
2.48654
 20
10.8371
 30
0.0
 11
2.73785
 21
10.3065
 31
0.0
  0
LINE
  8
0
 62
     0
 10
2.73785
 20
10.3065
 30
0.0
 11
3.02474
 21
9.78674
 31
0.0
  0
LINE
  8
0
 62
     0
 10
3.02474
 20
9.78674
 30
0.0
 11
3.34722
 21
9.27778
 31
0.0
  0
LINE
  8
0
 62
     0
 10
3.34722
 20
9.27778
 30
0.0
 11
3.14751
 21
9.11719
 31
0.0
  0
LINE
  8
0
 62
     0
 10
3.14751
 20
9.11719
 30
0.0
 11
2.96522
 21
8.96875
 31
0.0
  0
LINE
  8
0
 62
     0
 10
2.96522
 20
8.96875
 30
0.0
 11
2.80029
 21
8.83247
 31
0.0
  0
LINE
  8
0
 62
     0
 10
2.80029
 20
8.83247
 30
0.0
 11
2.65278
 21
8.70833
 31
0.0
  0
ENDSEC
  0
EOF
