  0
SECTION
  2
HEADER
  9
$ACADVER
  1
AC1009
  9
$EXTMIN
 10
0.0
 20
0.0
 30
0.0
  9
$EXTMAX
 10
1000.0
 20
1000.0
 30
0.0
  9
$FILLMODE
 70
 0
  9
$SPLFRAME
 70
 1
  0
ENDSEC
  0
SECTION
  2
TABLES
  0
TABLE
  2
LAYER
 70
1
  0
LAYER
  2
0
 70
     0
 62
     7
  6
CONTINUOUS
  0
ENDTAB
  0
ENDSEC
  0
SECTION
  2
ENTITIES
  0
LINE
  8
0
 62
     0
 10
6.30556
 20
11.2778
 30
0.0
 11
6.47217
 21
10.5391
 31
0.0
  0
LINE
  8
0
 62
     0
 10
6.47217
 20
10.5391
 30
0.0
 11
6.65272
 21
9.82292
 31
0.0
  0
LINE
  8
0
 62
     0
 10
6.65272
 20
9.82292
 30
0.0
 11
6.84717
 21
9.12935
 31
0.0
  0
LINE
  8
0
 62
     0
 10
6.84717
 20
9.12935
 30
0.0
 11
7.05556
 21
8.45833
 31
0.0
  0
LINE
  8
0
 62
     0
 10
7.05556
 20
8.45833
 30
0.0
 11
6.58154
 21
8.39242
 31
0.0
  0
LINE
  8
0
 62
     0
 10
6.58154
 20
8.39242
 30
0.0
 11
6.13189
 21
8.3195
 31
0.0
  0
LINE
  8
0
 62
     0
 10
6.13189
 20
8.3195
 30
0.0
 11
5.70654
 21
8.23964
 31
0.0
  0
LINE
  8
0
 62
     0
 10
5.70654
 20
8.23964
 30
0.0
 11
5.30556
 21
8.15278
 31
0.0
  0
LINE
  8
0
 62
     0
 10
5.30556
 20
8.15278
 30
0.0
 11
5.56592
 21
8.96789
 31
0.0
  0
LINE
  8
0
 62
     0
 10
5.56592
 20
8.96789
 30
0.0
 11
5.81939
 21
9.76042
 31
0.0
  0
LINE
  8
0
 62
     0
 10
5.81939
 20
9.76042
 30
0.0
 11
6.06592
 21
10.5304
 31
0.0
  0
LINE
  8
0
 62
     0
 10
6.06592
 20
10.5304
 30
0.0
 11
6.30556
 21
11.2778
 31
0.0
  0
LINE
  8
0
 62
     0
 10
10.9444
 20
6.93056
 30
0.0
 11
11.1458
 21
7.03472
 31
0.0
  0
LINE
  8
0
 62
     0
 10
11.1458
 20
7.03472
 30
0.0
 11
11.3194
 21
7.14583
 31
0.0
  0
LINE
  8
0
 62
     0
 10
11.3194
 20
7.14583
 30
0.0
 11
11.4652
 21
7.26389
 31
0.0
  0
LINE
  8
0
 62
     0
 10
11.4652
 20
7.26389
 30
0.0
 11
11.5833
 21
7.38889
 31
0.0
  0
LINE
  8
0
 62
     0
 10
11.5833
 20
7.38889
 30
0.0
 11
11.6736
 21
7.52083
 31
0.0
  0
LINE
  8
0
 62
     0
 10
11.6736
 20
7.52083
 30
0.0
 11
11.7361
 21
7.65972
 31
0.0
  0
LINE
  8
0
 62
     0
 10
11.7361
 20
7.65972
 30
0.0
 11
11.7708
 21
7.80556
 31
0.0
  0
LINE
  8
0
 62
     0
 10
11.7708
 20
7.80556
 30
0.0
 11
11.7778
 21
7.95833
 31
0.0
  0
LINE
  8
0
 62
     0
 10
11.7778
 20
7.95833
 30
0.0
 11
11.7554
 21
8.1135
 31
0.0
  0
LINE
  8
0
 62
     0
 10
11.7554
 20
8.1135
 30
0.0
 11
11.6953
 21
8.24567
 31
0.0
  0
LINE
  8
0
 62
     0
 10
11.6953
 20
8.24567
 30
0.0
 11
11.5974
 21
8.35482
 31
0.0
  0
LINE
  8
0
 62
     0
 10
11.5974
 20
8.35482
 30
0.0
 11
11.4618
 21
8.44097
 31
0.0
  0
LINE
  8
0
 62
     0
 10
11.4618
 20
8.44097
 30
0.0
 11
11.2884
 21
8.50413
 31
0.0
  0
LINE
  8
0
 62
     0
 10
11.2884
 20
8.50413
 30
0.0
 11
11.0773
 21
8.54428
 31
0.0
  0
LINE
  8
0
 62
     0
 10
11.0773
 20
8.54428
 30
0.0
 11
10.8283
 21
8.56142
 31
0.0
  0
LINE
  8
0
 62
     0
 10
10.8283
 20
8.56142
 30
0.0
 11
10.5417
 21
8.55556
 31
0.0
  0
LINE
  8
0
 62
     0
 10
10.5417
 20
8.55556
 30
0.0
 11
10.4479
 21
8.55214
 31
0.0
  0
LINE
  8
0
 62
     0
 10
10.4479
 20
8.55214
 30
0.0
 11
10.3056
 21
8.54167
 31
0.0
  0
LINE
  8
0
 62
     0
 10
10.3056
 20
8.54167
 30
0.0
 11
9.94336
 21
9.70074
 31
0.0
  0
LINE
  8
0
 62
     0
 10
9.94336
 20
9.70074
 30
0.0
 11
9.62761
 21
10.9071
 31
0.0
  0
LINE
  8
0
 62
     0
 10
9.62761
 20
10.9071
 30
0.0
 11
9.35829
 21
12.1608
 31
0.0
  0
LINE
  8
0
 62
     0
 10
9.35829
 20
12.1608
 30
0.0
 11
9.13542
 21
13.4618
 31
0.0
  0
LINE
  8
0
 62
     0
 10
9.13542
 20
13.4618
 30
0.0
 11
8.95899
 21
14.8101
 31
0.0
  0
LINE
  8
0
 62
     0
 10
8.95899
 20
14.8101
 30
0.0
 11
8.829
 21
16.2057
 31
0.0
  0
LINE
  8
0
 62
     0
 10
8.829
 20
16.2057
 30
0.0
 11
8.74544
 21
17.6486
 31
0.0
  0
LINE
  8
0
 62
     0
 10
8.74544
 20
17.6486
 30
0.0
 11
8.70833
 21
19.1389
 31
0.0
  0
LINE
  8
0
 62
     0
 10
8.70833
 20
19.1389
 30
0.0
 11
8.67443
 21
19.3629
 31
0.0
  0
LINE
  8
0
 62
     0
 10
8.67443
 20
19.3629
 30
0.0
 11
8.58675
 21
19.5486
 31
0.0
  0
LINE
  8
0
 62
     0
 10
8.58675
 20
19.5486
 30
0.0
 11
8.44526
 21
19.6963
 31
0.0
  0
LINE
  8
0
 62
     0
 10
8.44526
 20
19.6963
 30
0.0
 11
8.25
 21
19.8056
 31
0.0
  0
LINE
  8
0
 62
     0
 10
8.25
 20
19.8056
 30
0.0
 11
8.03646
 21
19.8654
 31
0.0
  0
LINE
  8
0
 62
     0
 10
8.03646
 20
19.8654
 30
0.0
 11
7.79861
 21
19.8924
 31
0.0
  0
LINE
  8
0
 62
     0
 10
7.79861
 20
19.8924
 30
0.0
 11
7.53646
 21
19.8863
 31
0.0
  0
LINE
  8
0
 62
     0
 10
7.53646
 20
19.8863
 30
0.0
 11
7.25
 21
19.8472
 31
0.0
  0
LINE
  8
0
 62
     0
 10
7.25
 20
19.8472
 30
0.0
 11
6.90842
 21
19.7728
 31
0.0
  0
LINE
  8
0
 62
     0
 10
6.90842
 20
19.7728
 30
0.0
 11
6.6059
 21
19.6814
 31
0.0
  0
LINE
  8
0
 62
     0
 10
6.6059
 20
19.6814
 30
0.0
 11
6.34244
 21
19.5731
 31
0.0
  0
LINE
  8
0
 62
     0
 10
6.34244
 20
19.5731
 30
0.0
 11
6.11806
 21
19.4479
 31
0.0
  0
LINE
  8
0
 62
     0
 10
6.11806
 20
19.4479
 30
0.0
 11
5.93267
 21
19.3057
 31
0.0
  0
LINE
  8
0
 62
     0
 10
5.93267
 20
19.3057
 30
0.0
 11
5.7864
 21
19.1467
 31
0.0
  0
LINE
  8
0
 62
     0
 10
5.7864
 20
19.1467
 30
0.0
 11
5.67919
 21
18.9707
 31
0.0
  0
LINE
  8
0
 62
     0
 10
5.67919
 20
18.9707
 30
0.0
 11
5.61111
 21
18.7778
 31
0.0
  0
LINE
  8
0
 62
     0
 10
5.61111
 20
18.7778
 30
0.0
 11
5.49104
 21
18.299
 31
0.0
  0
LINE
  8
0
 62
     0
 10
5.49104
 20
18.299
 30
0.0
 11
5.35656
 21
17.7828
 31
0.0
  0
LINE
  8
0
 62
     0
 10
5.35656
 20
17.7828
 30
0.0
 11
5.20763
 21
17.2292
 31
0.0
  0
LINE
  8
0
 62
     0
 10
5.20763
 20
17.2292
 30
0.0
 11
5.04428
 21
16.6381
 31
0.0
  0
LINE
  8
0
 62
     0
 10
5.04428
 20
16.6381
 30
0.0
 11
4.86649
 21
16.0094
 31
0.0
  0
LINE
  8
0
 62
     0
 10
4.86649
 20
16.0094
 30
0.0
 11
4.67426
 21
15.3435
 31
0.0
  0
LINE
  8
0
 62
     0
 10
4.67426
 20
15.3435
 30
0.0
 11
4.46761
 21
14.6401
 31
0.0
  0
LINE
  8
0
 62
     0
 10
4.46761
 20
14.6401
 30
0.0
 11
4.24653
 21
13.8993
 31
0.0
  0
LINE
  8
0
 62
     0
 10
4.24653
 20
13.8993
 30
0.0
 11
4.01101
 21
13.121
 31
0.0
  0
LINE
  8
0
 62
     0
 10
4.01101
 20
13.121
 30
0.0
 11
3.76107
 21
12.3053
 31
0.0
  0
LINE
  8
0
 62
     0
 10
3.76107
 20
12.3053
 30
0.0
 11
3.49669
 21
11.4522
 31
0.0
  0
LINE
  8
0
 62
     0
 10
3.49669
 20
11.4522
 30
0.0
 11
3.21789
 21
10.5616
 31
0.0
  0
LINE
  8
0
 62
     0
 10
3.21789
 20
10.5616
 30
0.0
 11
2.92464
 21
9.63362
 31
0.0
  0
LINE
  8
0
 62
     0
 10
2.92464
 20
9.63362
 30
0.0
 11
2.61697
 21
8.66818
 31
0.0
  0
LINE
  8
0
 62
     0
 10
2.61697
 20
8.66818
 30
0.0
 11
2.29486
 21
7.66531
 31
0.0
  0
LINE
  8
0
 62
     0
 10
2.29486
 20
7.66531
 30
0.0
 11
1.95833
 21
6.625
 31
0.0
  0
LINE
  8
0
 62
     0
 10
1.95833
 20
6.625
 30
0.0
 11
1.80903
 21
6.45139
 31
0.0
  0
LINE
  8
0
 62
     0
 10
1.80903
 20
6.45139
 30
0.0
 11
1.72222
 21
6.27778
 31
0.0
  0
LINE
  8
0
 62
     0
 10
1.72222
 20
6.27778
 30
0.0
 11
1.69786
 21
6.10417
 31
0.0
  0
LINE
  8
0
 62
     0
 10
1.69786
 20
6.10417
 30
0.0
 11
1.73611
 21
5.93056
 31
0.0
  0
LINE
  8
0
 62
     0
 10
1.73611
 20
5.93056
 30
0.0
 11
1.47244
 21
5.11501
 31
0.0
  0
LINE
  8
0
 62
     0
 10
1.47244
 20
5.11501
 30
0.0
 11
1.22309
 21
4.33507
 31
0.0
  0
LINE
  8
0
 62
     0
 10
1.22309
 20
4.33507
 30
0.0
 11
0.988064
 21
3.59071
 31
0.0
  0
LINE
  8
0
 62
     0
 10
0.988064
 20
3.59071
 30
0.0
 11
0.767361
 21
2.88194
 31
0.0
  0
LINE
  8
0
 62
     0
 10
0.767361
 20
2.88194
 30
0.0
 11
0.560981
 21
2.20876
 31
0.0
  0
LINE
  8
0
 62
     0
 10
0.560981
 20
2.20876
 30
0.0
 11
0.368924
 21
1.57118
 31
0.0
  0
LINE
  8
0
 62
     0
 10
0.368924
 20
1.57118
 30
0.0
 11
0.191189
 21
0.969185
 31
0.0
  0
LINE
  8
0
 62
     0
 10
0.191189
 20
0.969185
 30
0.0
 11
0.0277778
 21
0.402778
 31
0.0
  0
LINE
  8
0
 62
     0
 10
0.0277778
 20
0.402778
 30
0.0
 11
-0.000868056
 21
0.215332
 31
0.0
  0
LINE
  8
0
 62
     0
 10
-0.000868056
 20
0.215332
 30
0.0
 11
0.0381944
 21
0.0556099
 31
0.0
  0
LINE
  8
0
 62
     0
 10
0.0381944
 20
0.0556099
 30
0.0
 11
0.144965
 21
-0.0763346
 31
0.0
  0
LINE
  8
0
 62
     0
 10
0.144965
 20
-0.0763346
 30
0.0
 11
0.319444
 21
-0.180556
 31
0.0
  0
LINE
  8
0
 62
     0
 10
0.319444
 20
-0.180556
 30
0.0
 11
0.522569
 21
-0.242133
 31
0.0
  0
LINE
  8
0
 62
     0
 10
0.522569
 20
-0.242133
 30
0.0
 11
0.756944
 21
-0.274251
 31
0.0
  0
LINE
  8
0
 62
     0
 10
0.756944
 20
-0.274251
 30
0.0
 11
1.02257
 21
-0.276856
 31
0.0
  0
LINE
  8
0
 62
     0
 10
1.02257
 20
-0.276856
 30
0.0
 11
1.31944
 21
-0.25
 31
0.0
  0
LINE
  8
0
 62
     0
 10
1.31944
 20
-0.25
 30
0.0
 11
1.68772
 21
-0.188314
 31
0.0
  0
LINE
  8
0
 62
     0
 10
1.68772
 20
-0.188314
 30
0.0
 11
2.01476
 21
-0.107585
 31
0.0
  0
LINE
  8
0
 62
     0
 10
2.01476
 20
-0.107585
 30
0.0
 11
2.30057
 21
-0.00775825
 31
0.0
  0
LINE
  8
0
 62
     0
 10
2.30057
 20
-0.00775825
 30
0.0
 11
2.54514
 21
0.111165
 31
0.0
  0
LINE
  8
0
 62
     0
 10
2.54514
 20
0.111165
 30
0.0
 11
2.74849
 21
0.249186
 31
0.0
  0
LINE
  8
0
 62
     0
 10
2.74849
 20
0.249186
 30
0.0
 11
2.9106
 21
0.406304
 31
0.0
  0
LINE
  8
0
 62
     0
 10
2.9106
 20
0.406304
 30
0.0
 11
3.03147
 21
0.582519
 31
0.0
  0
LINE
  8
0
 62
     0
 10
3.03147
 20
0.582519
 30
0.0
 11
3.11111
 21
0.777778
 31
0.0
  0
LINE
  8
0
 62
     0
 10
3.11111
 20
0.777778
 30
0.0
 11
3.27322
 21
1.32422
 31
0.0
  0
LINE
  8
0
 62
     0
 10
3.27322
 20
1.32422
 30
0.0
 11
3.44706
 21
1.90104
 31
0.0
  0
LINE
  8
0
 62
     0
 10
3.44706
 20
1.90104
 30
0.0
 11
3.6326
 21
2.50825
 31
0.0
  0
LINE
  8
0
 62
     0
 10
3.6326
 20
2.50825
 30
0.0
 11
3.82986
 21
3.14583
 31
0.0
  0
LINE
  8
0
 62
     0
 10
3.82986
 20
3.14583
 30
0.0
 11
4.03885
 21
3.81381
 31
0.0
  0
LINE
  8
0
 62
     0
 10
4.03885
 20
3.81381
 30
0.0
 11
4.25956
 21
4.51215
 31
0.0
  0
LINE
  8
0
 62
     0
 10
4.25956
 20
4.51215
 30
0.0
 11
4.49197
 21
5.24089
 31
0.0
  0
LINE
  8
0
 62
     0
 10
4.49197
 20
5.24089
 30
0.0
 11
4.73611
 21
6
 31
0.0
  0
LINE
  8
0
 62
     0
 10
4.73611
 20
6
 30
0.0
 11
5.40104
 21
6.20404
 31
0.0
  0
LINE
  8
0
 62
     0
 10
5.40104
 20
6.20404
 30
0.0
 11
6.13194
 21
6.37158
 31
0.0
  0
LINE
  8
0
 62
     0
 10
6.13194
 20
6.37158
 30
0.0
 11
6.92882
 21
6.50265
 31
0.0
  0
LINE
  8
0
 62
     0
 10
6.92882
 20
6.50265
 30
0.0
 11
7.79167
 21
6.59722
 31
0.0
  0
LINE
  8
0
 62
     0
 10
7.79167
 20
6.59722
 30
0.0
 11
8.21886
 21
5.66585
 31
0.0
  0
LINE
  8
0
 62
     0
 10
8.21886
 20
5.66585
 30
0.0
 11
8.67751
 21
4.80561
 31
0.0
  0
LINE
  8
0
 62
     0
 10
8.67751
 20
4.80561
 30
0.0
 11
9.16764
 21
4.01654
 31
0.0
  0
LINE
  8
0
 62
     0
 10
9.16764
 20
4.01654
 30
0.0
 11
9.68924
 21
3.29867
 31
0.0
  0
LINE
  8
0
 62
     0
 10
9.68924
 20
3.29867
 30
0.0
 11
10.2423
 21
2.65196
 31
0.0
  0
LINE
  8
0
 62
     0
 10
10.2423
 20
2.65196
 30
0.0
 11
10.8268
 21
2.07644
 31
0.0
  0
LINE
  8
0
 62
     0
 10
10.8268
 20
2.07644
 30
0.0
 11
11.4428
 21
1.5721
 31
0.0
  0
LINE
  8
0
 62
     0
 10
11.4428
 20
1.5721
 30
0.0
 11
12.0903
 21
1.13894
 31
0.0
  0
LINE
  8
0
 62
     0
 10
12.0903
 20
1.13894
 30
0.0
 11
12.7692
 21
0.776964
 31
0.0
  0
LINE
  8
0
 62
     0
 10
12.7692
 20
0.776964
 30
0.0
 11
13.4796
 21
0.486165
 31
0.0
  0
LINE
  8
0
 62
     0
 10
13.4796
 20
0.486165
 30
0.0
 11
14.2215
 21
0.266547
 31
0.0
  0
LINE
  8
0
 62
     0
 10
14.2215
 20
0.266547
 30
0.0
 11
14.9949
 21
0.11811
 31
0.0
  0
LINE
  8
0
 62
     0
 10
14.9949
 20
0.11811
 30
0.0
 11
15.7996
 21
0.0408529
 31
0.0
  0
LINE
  8
0
 62
     0
 10
15.7996
 20
0.0408529
 30
0.0
 11
16.6358
 21
0.0347765
 31
0.0
  0
LINE
  8
0
 62
     0
 10
16.6358
 20
0.0347765
 30
0.0
 11
17.5036
 21
0.0998807
 31
0.0
  0
LINE
  8
0
 62
     0
 10
17.5036
 20
0.0998807
 30
0.0
 11
18.4028
 21
0.236111
 31
0.0
  0
LINE
  8
0
 62
     0
 10
18.4028
 20
0.236111
 30
0.0
 11
18.6883
 21
0.302572
 31
0.0
  0
LINE
  8
0
 62
     0
 10
18.6883
 20
0.302572
 30
0.0
 11
18.9479
 21
0.390679
 31
0.0
  0
LINE
  8
0
 62
     0
 10
18.9479
 20
0.390679
 30
0.0
 11
19.1815
 21
0.500489
 31
0.0
  0
LINE
  8
0
 62
     0
 10
19.1815
 20
0.500489
 30
0.0
 11
19.3889
 21
0.631999
 31
0.0
  0
LINE
  8
0
 62
     0
 10
19.3889
 20
0.631999
 30
0.0
 11
19.5704
 21
0.785211
 31
0.0
  0
LINE
  8
0
 62
     0
 10
19.5704
 20
0.785211
 30
0.0
 11
19.7257
 21
0.960124
 31
0.0
  0
LINE
  8
0
 62
     0
 10
19.7257
 20
0.960124
 30
0.0
 11
19.855
 21
1.15674
 31
0.0
  0
LINE
  8
0
 62
     0
 10
19.855
 20
1.15674
 30
0.0
 11
19.9583
 21
1.375
 31
0.0
  0
LINE
  8
0
 62
     0
 10
19.9583
 20
1.375
 30
0.0
 11
20.0035
 21
1.55126
 31
0.0
  0
LINE
  8
0
 62
     0
 10
20.0035
 20
1.55126
 30
0.0
 11
20
 21
1.70492
 31
0.0
  0
LINE
  8
0
 62
     0
 10
20
 20
1.70492
 30
0.0
 11
19.9479
 21
1.83599
 31
0.0
  0
LINE
  8
0
 62
     0
 10
19.9479
 20
1.83599
 30
0.0
 11
19.8472
 21
1.94444
 31
0.0
  0
LINE
  8
0
 62
     0
 10
19.8472
 20
1.94444
 30
0.0
 11
19.6675
 21
2.02696
 31
0.0
  0
LINE
  8
0
 62
     0
 10
19.6675
 20
2.02696
 30
0.0
 11
19.434
 21
2.06603
 31
0.0
  0
LINE
  8
0
 62
     0
 10
19.434
 20
2.06603
 30
0.0
 11
19.1467
 21
2.06168
 31
0.0
  0
LINE
  8
0
 62
     0
 10
19.1467
 20
2.06168
 30
0.0
 11
18.8056
 21
2.01389
 31
0.0
  0
LINE
  8
0
 62
     0
 10
18.8056
 20
2.01389
 30
0.0
 11
18.1661
 21
1.91917
 31
0.0
  0
LINE
  8
0
 62
     0
 10
18.1661
 20
1.91917
 30
0.0
 11
17.5464
 21
1.87804
 31
0.0
  0
LINE
  8
0
 62
     0
 10
17.5464
 20
1.87804
 30
0.0
 11
16.9465
 21
1.89051
 31
0.0
  0
LINE
  8
0
 62
     0
 10
16.9465
 20
1.89051
 30
0.0
 11
16.3664
 21
1.9566
 31
0.0
  0
LINE
  8
0
 62
     0
 10
16.3664
 20
1.9566
 30
0.0
 11
15.8058
 21
2.07628
 31
0.0
  0
LINE
  8
0
 62
     0
 10
15.8058
 20
2.07628
 30
0.0
 11
15.2651
 21
2.24957
 31
0.0
  0
LINE
  8
0
 62
     0
 10
15.2651
 20
2.24957
 30
0.0
 11
14.7443
 21
2.47646
 31
0.0
  0
LINE
  8
0
 62
     0
 10
14.7443
 20
2.47646
 30
0.0
 11
14.2431
 21
2.75694
 31
0.0
  0
LINE
  8
0
 62
     0
 10
14.2431
 20
2.75694
 30
0.0
 11
13.7616
 21
3.09104
 31
0.0
  0
LINE
  8
0
 62
     0
 10
13.7616
 20
3.09104
 30
0.0
 11
13.2999
 21
3.47874
 31
0.0
  0
LINE
  8
0
 62
     0
 10
13.2999
 20
3.47874
 30
0.0
 11
12.858
 21
3.92003
 31
0.0
  0
LINE
  8
0
 62
     0
 10
12.858
 20
3.92003
 30
0.0
 11
12.4358
 21
4.41493
 31
0.0
  0
LINE
  8
0
 62
     0
 10
12.4358
 20
4.41493
 30
0.0
 11
12.0333
 21
4.96343
 31
0.0
  0
LINE
  8
0
 62
     0
 10
12.0333
 20
4.96343
 30
0.0
 11
11.6506
 21
5.56554
 31
0.0
  0
LINE
  8
0
 62
     0
 10
11.6506
 20
5.56554
 30
0.0
 11
11.2877
 21
6.22125
 31
0.0
  0
LINE
  8
0
 62
     0
 10
11.2877
 20
6.22125
 30
0.0
 11
10.9444
 21
6.93056
 31
0.0
  0
LINE
  8
0
 62
     0
 10
7
 20
20.1806
 30
0.0
 11
7.52929
 21
20.3128
 31
0.0
  0
LINE
  8
0
 62
     0
 10
7.52929
 20
20.3128
 30
0.0
 11
8.01303
 21
20.4661
 31
0.0
  0
LINE
  8
0
 62
     0
 10
8.01303
 20
20.4661
 30
0.0
 11
8.45117
 21
20.6408
 31
0.0
  0
LINE
  8
0
 62
     0
 10
8.45117
 20
20.6408
 30
0.0
 11
8.84375
 21
20.8368
 31
0.0
  0
LINE
  8
0
 62
     0
 10
8.84375
 20
20.8368
 30
0.0
 11
9.19075
 21
21.054
 31
0.0
  0
LINE
  8
0
 62
     0
 10
9.19075
 20
21.054
 30
0.0
 11
9.49219
 21
21.2925
 31
0.0
  0
LINE
  8
0
 62
     0
 10
9.49219
 20
21.2925
 30
0.0
 11
9.74804
 21
21.5524
 31
0.0
  0
LINE
  8
0
 62
     0
 10
9.74804
 20
21.5524
 30
0.0
 11
9.95833
 21
21.8333
 31
0.0
  0
LINE
  8
0
 62
     0
 10
9.95833
 20
21.8333
 30
0.0
 11
10.0625
 21
22.04
 31
0.0
  0
LINE
  8
0
 62
     0
 10
10.0625
 20
22.04
 30
0.0
 11
10.125
 21
22.2708
 31
0.0
  0
LINE
  8
0
 62
     0
 10
10.125
 20
22.2708
 30
0.0
 11
10.1458
 21
22.5261
 31
0.0
  0
LINE
  8
0
 62
     0
 10
10.1458
 20
22.5261
 30
0.0
 11
10.125
 21
22.8056
 31
0.0
  0
LINE
  8
0
 62
     0
 10
10.125
 20
22.8056
 30
0.0
 11
10.0846
 21
22.9718
 31
0.0
  0
LINE
  8
0
 62
     0
 10
10.0846
 20
22.9718
 30
0.0
 11
10.0191
 21
23.1164
 31
0.0
  0
LINE
  8
0
 62
     0
 10
10.0191
 20
23.1164
 30
0.0
 11
9.92839
 21
23.2392
 31
0.0
  0
LINE
  8
0
 62
     0
 10
9.92839
 20
23.2392
 30
0.0
 11
9.8125
 21
23.3403
 31
0.0
  0
LINE
  8
0
 62
     0
 10
9.8125
 20
23.3403
 30
0.0
 11
9.67144
 21
23.4197
 31
0.0
  0
LINE
  8
0
 62
     0
 10
9.67144
 20
23.4197
 30
0.0
 11
9.50521
 21
23.4775
 31
0.0
  0
LINE
  8
0
 62
     0
 10
9.50521
 20
23.4775
 30
0.0
 11
9.31381
 21
23.5135
 31
0.0
  0
LINE
  8
0
 62
     0
 10
9.31381
 20
23.5135
 30
0.0
 11
9.09722
 21
23.5278
 31
0.0
  0
LINE
  8
0
 62
     0
 10
9.09722
 20
23.5278
 30
0.0
 11
8.53554
 21
23.5122
 31
0.0
  0
LINE
  8
0
 62
     0
 10
8.53554
 20
23.5122
 30
0.0
 11
7.98958
 21
23.4375
 31
0.0
  0
LINE
  8
0
 62
     0
 10
7.98958
 20
23.4375
 30
0.0
 11
7.45921
 21
23.3039
 31
0.0
  0
LINE
  8
0
 62
     0
 10
7.45921
 20
23.3039
 30
0.0
 11
6.94444
 21
23.1111
 31
0.0
  0
LINE
  8
0
 62
     0
 10
6.94444
 20
23.1111
 30
0.0
 11
6.66118
 21
22.9794
 31
0.0
  0
LINE
  8
0
 62
     0
 10
6.66118
 20
22.9794
 30
0.0
 11
6.40186
 21
22.8343
 31
0.0
  0
LINE
  8
0
 62
     0
 10
6.40186
 20
22.8343
 30
0.0
 11
6.16639
 21
22.6756
 31
0.0
  0
LINE
  8
0
 62
     0
 10
6.16639
 20
22.6756
 30
0.0
 11
5.95481
 21
22.5035
 31
0.0
  0
LINE
  8
0
 62
     0
 10
5.95481
 20
22.5035
 30
0.0
 11
5.76708
 21
22.3179
 31
0.0
  0
LINE
  8
0
 62
     0
 10
5.76708
 20
22.3179
 30
0.0
 11
5.60325
 21
22.119
 31
0.0
  0
LINE
  8
0
 62
     0
 10
5.60325
 20
22.119
 30
0.0
 11
5.46326
 21
21.9065
 31
0.0
  0
LINE
  8
0
 62
     0
 10
5.46326
 20
21.9065
 30
0.0
 11
5.34722
 21
21.6806
 31
0.0
  0
LINE
  8
0
 62
     0
 10
5.34722
 20
21.6806
 30
0.0
 11
5.32731
 21
21.626
 31
0.0
  0
LINE
  8
0
 62
     0
 10
5.32731
 20
21.626
 30
0.0
 11
5.32303
 21
21.5729
 31
0.0
  0
LINE
  8
0
 62
     0
 10
5.32303
 20
21.5729
 30
0.0
 11
5.33425
 21
21.5218
 31
0.0
  0
LINE
  8
0
 62
     0
 10
5.33425
 20
21.5218
 30
0.0
 11
5.36111
 21
21.4722
 31
0.0
  0
LINE
  8
0
 62
     0
 10
5.36111
 20
21.4722
 30
0.0
 11
5.125
 21
21.4028
 31
0.0
  0
LINE
  8
0
 62
     0
 10
5.125
 20
21.4028
 30
0.0
 11
4.78119
 21
21.25
 31
0.0
  0
LINE
  8
0
 62
     0
 10
4.78119
 20
21.25
 30
0.0
 11
4.44444
 21
21.0417
 31
0.0
  0
LINE
  8
0
 62
     0
 10
4.44444
 20
21.0417
 30
0.0
 11
4.32872
 21
20.9572
 31
0.0
  0
LINE
  8
0
 62
     0
 10
4.32872
 20
20.9572
 30
0.0
 11
4.23867
 21
20.8776
 31
0.0
  0
LINE
  8
0
 62
     0
 10
4.23867
 20
20.8776
 30
0.0
 11
4.17421
 21
20.8028
 31
0.0
  0
LINE
  8
0
 62
     0
 10
4.17421
 20
20.8028
 30
0.0
 11
4.13536
 21
20.7326
 31
0.0
  0
LINE
  8
0
 62
     0
 10
4.13536
 20
20.7326
 30
0.0
 11
4.12213
 21
20.6674
 31
0.0
  0
LINE
  8
0
 62
     0
 10
4.12213
 20
20.6674
 30
0.0
 11
4.1345
 21
20.6068
 31
0.0
  0
LINE
  8
0
 62
     0
 10
4.1345
 20
20.6068
 30
0.0
 11
4.17247
 21
20.551
 31
0.0
  0
LINE
  8
0
 62
     0
 10
4.17247
 20
20.551
 30
0.0
 11
4.23611
 21
20.5
 31
0.0
  0
LINE
  8
0
 62
     0
 10
4.23611
 20
20.5
 30
0.0
 11
4.51324
 21
20.3432
 31
0.0
  0
LINE
  8
0
 62
     0
 10
4.51324
 20
20.3432
 30
0.0
 11
4.8099
 21
20.2197
 31
0.0
  0
LINE
  8
0
 62
     0
 10
4.8099
 20
20.2197
 30
0.0
 11
5.12608
 21
20.1296
 31
0.0
  0
LINE
  8
0
 62
     0
 10
5.12608
 20
20.1296
 30
0.0
 11
5.46181
 21
20.0729
 31
0.0
  0
LINE
  8
0
 62
     0
 10
5.46181
 20
20.0729
 30
0.0
 11
5.81706
 21
20.0497
 31
0.0
  0
LINE
  8
0
 62
     0
 10
5.81706
 20
20.0497
 30
0.0
 11
6.19185
 21
20.06
 31
0.0
  0
LINE
  8
0
 62
     0
 10
6.19185
 20
20.06
 30
0.0
 11
6.58615
 21
20.1036
 31
0.0
  0
LINE
  8
0
 62
     0
 10
6.58615
 20
20.1036
 30
0.0
 11
7
 21
20.1806
 31
0.0
  0
ENDSEC
  0
EOF
