  0
SECTION
  2
HEADER
  9
$ACADVER
  1
AC1009
  9
$EXTMIN
 10
0.0
 20
0.0
 30
0.0
  9
$EXTMAX
 10
1000.0
 20
1000.0
 30
0.0
  9
$FILLMODE
 70
 0
  9
$SPLFRAME
 70
 1
  0
ENDSEC
  0
SECTION
  2
TABLES
  0
TABLE
  2
LAYER
 70
1
  0
LAYER
  2
0
 70
     0
 62
     7
  6
CONTINUOUS
  0
ENDTAB
  0
ENDSEC
  0
SECTION
  2
ENTITIES
  0
LINE
  8
0
 62
     0
 10
6.83333
 20
16.4444
 30
0.0
 11
7.11111
 21
16.4619
 31
0.0
  0
LINE
  8
0
 62
     0
 10
7.11111
 20
16.4619
 30
0.0
 11
7.41667
 21
16.5417
 31
0.0
  0
LINE
  8
0
 62
     0
 10
7.41667
 20
16.5417
 30
0.0
 11
7.69103
 21
16.6493
 31
0.0
  0
LINE
  8
0
 62
     0
 10
7.69103
 20
16.6493
 30
0.0
 11
7.90278
 21
16.7778
 31
0.0
  0
LINE
  8
0
 62
     0
 10
7.90278
 20
16.7778
 30
0.0
 11
7.98346
 21
16.8519
 31
0.0
  0
LINE
  8
0
 62
     0
 10
7.98346
 20
16.8519
 30
0.0
 11
8.03119
 21
16.9206
 31
0.0
  0
LINE
  8
0
 62
     0
 10
8.03119
 20
16.9206
 30
0.0
 11
8.04596
 21
16.9837
 31
0.0
  0
LINE
  8
0
 62
     0
 10
8.04596
 20
16.9837
 30
0.0
 11
8.02778
 21
17.0417
 31
0.0
  0
LINE
  8
0
 62
     0
 10
8.02778
 20
17.0417
 30
0.0
 11
7.88108
 21
17.29
 31
0.0
  0
LINE
  8
0
 62
     0
 10
7.88108
 20
17.29
 30
0.0
 11
7.73264
 21
17.5764
 31
0.0
  0
LINE
  8
0
 62
     0
 10
7.73264
 20
17.5764
 30
0.0
 11
7.58247
 21
17.9011
 31
0.0
  0
LINE
  8
0
 62
     0
 10
7.58247
 20
17.9011
 30
0.0
 11
7.43056
 21
18.2639
 31
0.0
  0
LINE
  8
0
 62
     0
 10
7.43056
 20
18.2639
 30
0.0
 11
7.39318
 21
18.356
 31
0.0
  0
LINE
  8
0
 62
     0
 10
7.39318
 20
18.356
 30
0.0
 11
7.33675
 21
18.4931
 31
0.0
  0
LINE
  8
0
 62
     0
 10
7.33675
 20
18.4931
 30
0.0
 11
7.26124
 21
18.6754
 31
0.0
  0
LINE
  8
0
 62
     0
 10
7.26124
 20
18.6754
 30
0.0
 11
7.16667
 21
18.9028
 31
0.0
  0
LINE
  8
0
 62
     0
 10
7.16667
 20
18.9028
 30
0.0
 11
7.08768
 21
19.0939
 31
0.0
  0
LINE
  8
0
 62
     0
 10
7.08768
 20
19.0939
 30
0.0
 11
7.01736
 21
19.2642
 31
0.0
  0
LINE
  8
0
 62
     0
 10
7.01736
 20
19.2642
 30
0.0
 11
6.95574
 21
19.4135
 31
0.0
  0
LINE
  8
0
 62
     0
 10
6.95574
 20
19.4135
 30
0.0
 11
6.90278
 21
19.5417
 31
0.0
  0
LINE
  8
0
 62
     0
 10
6.90278
 20
19.5417
 30
0.0
 11
6.72868
 21
19.9093
 31
0.0
  0
LINE
  8
0
 62
     0
 10
6.72868
 20
19.9093
 30
0.0
 11
6.54682
 21
20.2483
 31
0.0
  0
LINE
  8
0
 62
     0
 10
6.54682
 20
20.2483
 30
0.0
 11
6.35715
 21
20.5587
 31
0.0
  0
LINE
  8
0
 62
     0
 10
6.35715
 20
20.5587
 30
0.0
 11
6.15972
 21
20.8404
 31
0.0
  0
LINE
  8
0
 62
     0
 10
6.15972
 20
20.8404
 30
0.0
 11
5.95443
 21
21.0935
 31
0.0
  0
LINE
  8
0
 62
     0
 10
5.95443
 20
21.0935
 30
0.0
 11
5.74132
 21
21.3178
 31
0.0
  0
LINE
  8
0
 62
     0
 10
5.74132
 20
21.3178
 30
0.0
 11
5.5204
 21
21.5135
 31
0.0
  0
LINE
  8
0
 62
     0
 10
5.5204
 20
21.5135
 30
0.0
 11
5.29167
 21
21.6806
 31
0.0
  0
LINE
  8
0
 62
     0
 10
5.29167
 20
21.6806
 30
0.0
 11
5.12842
 21
21.7518
 31
0.0
  0
LINE
  8
0
 62
     0
 10
5.12842
 20
21.7518
 30
0.0
 11
4.9305
 21
21.7847
 31
0.0
  0
LINE
  8
0
 62
     0
 10
4.9305
 20
21.7847
 30
0.0
 11
4.69786
 21
21.7796
 31
0.0
  0
LINE
  8
0
 62
     0
 10
4.69786
 20
21.7796
 30
0.0
 11
4.43056
 21
21.7361
 31
0.0
  0
LINE
  8
0
 62
     0
 10
4.43056
 20
21.7361
 30
0.0
 11
4.16928
 21
21.6546
 31
0.0
  0
LINE
  8
0
 62
     0
 10
4.16928
 20
21.6546
 30
0.0
 11
3.96875
 21
21.5486
 31
0.0
  0
LINE
  8
0
 62
     0
 10
3.96875
 20
21.5486
 30
0.0
 11
3.829
 21
21.4185
 31
0.0
  0
LINE
  8
0
 62
     0
 10
3.829
 20
21.4185
 30
0.0
 11
3.75
 21
21.2639
 31
0.0
  0
LINE
  8
0
 62
     0
 10
3.75
 20
21.2639
 30
0.0
 11
3.57286
 21
20.6967
 31
0.0
  0
LINE
  8
0
 62
     0
 10
3.57286
 20
20.6967
 30
0.0
 11
3.38189
 21
20.1476
 31
0.0
  0
LINE
  8
0
 62
     0
 10
3.38189
 20
20.1476
 30
0.0
 11
3.17703
 21
19.6167
 31
0.0
  0
LINE
  8
0
 62
     0
 10
3.17703
 20
19.6167
 30
0.0
 11
2.95828
 21
19.1042
 31
0.0
  0
LINE
  8
0
 62
     0
 10
2.95828
 20
19.1042
 30
0.0
 11
2.72564
 21
18.6097
 31
0.0
  0
LINE
  8
0
 62
     0
 10
2.72564
 20
18.6097
 30
0.0
 11
2.47911
 21
18.1338
 31
0.0
  0
LINE
  8
0
 62
     0
 10
2.47911
 20
18.1338
 30
0.0
 11
2.21869
 21
17.6758
 31
0.0
  0
LINE
  8
0
 62
     0
 10
2.21869
 20
17.6758
 30
0.0
 11
1.94444
 21
17.2361
 31
0.0
  0
LINE
  8
0
 62
     0
 10
1.94444
 20
17.2361
 30
0.0
 11
1.90018
 21
17.145
 31
0.0
  0
LINE
  8
0
 62
     0
 10
1.90018
 20
17.145
 30
0.0
 11
1.89236
 21
17.066
 31
0.0
  0
LINE
  8
0
 62
     0
 10
1.89236
 20
17.066
 30
0.0
 11
1.92101
 21
16.9992
 31
0.0
  0
LINE
  8
0
 62
     0
 10
1.92101
 20
16.9992
 30
0.0
 11
1.98611
 21
16.9444
 31
0.0
  0
LINE
  8
0
 62
     0
 10
1.98611
 20
16.9444
 30
0.0
 11
2.07286
 21
16.9158
 31
0.0
  0
LINE
  8
0
 62
     0
 10
2.07286
 20
16.9158
 30
0.0
 11
2.18056
 21
16.8993
 31
0.0
  0
LINE
  8
0
 62
     0
 10
2.18056
 20
16.8993
 30
0.0
 11
2.30903
 21
16.895
 31
0.0
  0
LINE
  8
0
 62
     0
 10
2.30903
 20
16.895
 30
0.0
 11
2.45833
 21
16.9028
 31
0.0
  0
LINE
  8
0
 62
     0
 10
2.45833
 20
16.9028
 30
0.0
 11
2.74653
 21
16.9479
 31
0.0
  0
LINE
  8
0
 62
     0
 10
2.74653
 20
16.9479
 30
0.0
 11
3.02778
 21
17.0278
 31
0.0
  0
LINE
  8
0
 62
     0
 10
3.02778
 20
17.0278
 30
0.0
 11
3.27078
 21
17.1424
 31
0.0
  0
LINE
  8
0
 62
     0
 10
3.27078
 20
17.1424
 30
0.0
 11
3.41667
 21
17.2639
 31
0.0
  0
LINE
  8
0
 62
     0
 10
3.41667
 20
17.2639
 30
0.0
 11
3.80643
 21
17.9054
 31
0.0
  0
LINE
  8
0
 62
     0
 10
3.80643
 20
17.9054
 30
0.0
 11
4.17014
 21
18.5799
 31
0.0
  0
LINE
  8
0
 62
     0
 10
4.17014
 20
18.5799
 30
0.0
 11
4.50776
 21
19.2874
 31
0.0
  0
LINE
  8
0
 62
     0
 10
4.50776
 20
19.2874
 30
0.0
 11
4.81944
 21
20.0278
 31
0.0
  0
LINE
  8
0
 62
     0
 10
4.81944
 20
20.0278
 30
0.0
 11
5.00087
 21
19.7232
 31
0.0
  0
LINE
  8
0
 62
     0
 10
5.00087
 20
19.7232
 30
0.0
 11
5.19792
 21
19.3368
 31
0.0
  0
LINE
  8
0
 62
     0
 10
5.19792
 20
19.3368
 30
0.0
 11
5.41054
 21
18.869
 31
0.0
  0
LINE
  8
0
 62
     0
 10
5.41054
 20
18.869
 30
0.0
 11
5.63889
 21
18.3194
 31
0.0
  0
LINE
  8
0
 62
     0
 10
5.63889
 20
18.3194
 30
0.0
 11
5.86546
 21
17.7657
 31
0.0
  0
LINE
  8
0
 62
     0
 10
5.86546
 20
17.7657
 30
0.0
 11
6.07292
 21
17.2986
 31
0.0
  0
LINE
  8
0
 62
     0
 10
6.07292
 20
17.2986
 30
0.0
 11
6.26129
 21
16.9185
 31
0.0
  0
LINE
  8
0
 62
     0
 10
6.26129
 20
16.9185
 30
0.0
 11
6.43056
 21
16.625
 31
0.0
  0
LINE
  8
0
 62
     0
 10
6.43056
 20
16.625
 30
0.0
 11
6.49219
 21
16.5512
 31
0.0
  0
LINE
  8
0
 62
     0
 10
6.49219
 20
16.5512
 30
0.0
 11
6.57986
 21
16.4965
 31
0.0
  0
LINE
  8
0
 62
     0
 10
6.57986
 20
16.4965
 30
0.0
 11
6.69353
 21
16.461
 31
0.0
  0
LINE
  8
0
 62
     0
 10
6.69353
 20
16.461
 30
0.0
 11
6.83333
 21
16.4444
 31
0.0
  0
ENDSEC
  0
EOF
