  0
SECTION
  2
HEADER
  9
$ACADVER
  1
AC1009
  9
$EXTMIN
 10
0.0
 20
0.0
 30
0.0
  9
$EXTMAX
 10
1000.0
 20
1000.0
 30
0.0
  9
$FILLMODE
 70
 0
  9
$SPLFRAME
 70
 1
  0
ENDSEC
  0
SECTION
  2
TABLES
  0
TABLE
  2
LAYER
 70
1
  0
LAYER
  2
0
 70
     0
 62
     7
  6
CONTINUOUS
  0
ENDTAB
  0
ENDSEC
  0
SECTION
  2
ENTITIES
  0
LINE
  8
0
 62
     0
 10
2.93056
 20
18.9167
 30
0.0
 11
3.00174
 21
18.3924
 31
0.0
  0
LINE
  8
0
 62
     0
 10
3.00174
 20
18.3924
 30
0.0
 11
3.07639
 21
17.9167
 31
0.0
  0
LINE
  8
0
 62
     0
 10
3.07639
 20
17.9167
 30
0.0
 11
3.15451
 21
17.4896
 31
0.0
  0
LINE
  8
0
 62
     0
 10
3.15451
 20
17.4896
 30
0.0
 11
3.23611
 21
17.1111
 31
0.0
  0
LINE
  8
0
 62
     0
 10
3.23611
 20
17.1111
 30
0.0
 11
3.27171
 21
17.0365
 31
0.0
  0
LINE
  8
0
 62
     0
 10
3.27171
 20
17.0365
 30
0.0
 11
3.33681
 21
16.9792
 31
0.0
  0
LINE
  8
0
 62
     0
 10
3.33681
 20
16.9792
 30
0.0
 11
3.43143
 21
16.9393
 31
0.0
  0
LINE
  8
0
 62
     0
 10
3.43143
 20
16.9393
 30
0.0
 11
3.55556
 21
16.9167
 31
0.0
  0
LINE
  8
0
 62
     0
 10
3.55556
 20
16.9167
 30
0.0
 11
3.83681
 21
16.9271
 31
0.0
  0
LINE
  8
0
 62
     0
 10
3.83681
 20
16.9271
 30
0.0
 11
4.15278
 21
16.9861
 31
0.0
  0
LINE
  8
0
 62
     0
 10
4.15278
 20
16.9861
 30
0.0
 11
4.46528
 21
17.0868
 31
0.0
  0
LINE
  8
0
 62
     0
 10
4.46528
 20
17.0868
 30
0.0
 11
4.70833
 21
17.2222
 31
0.0
  0
LINE
  8
0
 62
     0
 10
4.70833
 20
17.2222
 30
0.0
 11
4.80897
 21
17.3064
 31
0.0
  0
LINE
  8
0
 62
     0
 10
4.80897
 20
17.3064
 30
0.0
 11
4.87494
 21
17.3924
 31
0.0
  0
LINE
  8
0
 62
     0
 10
4.87494
 20
17.3924
 30
0.0
 11
4.90619
 21
17.48
 31
0.0
  0
LINE
  8
0
 62
     0
 10
4.90619
 20
17.48
 30
0.0
 11
4.90278
 21
17.5694
 31
0.0
  0
LINE
  8
0
 62
     0
 10
4.90278
 20
17.5694
 30
0.0
 11
4.8055
 21
18.0208
 31
0.0
  0
LINE
  8
0
 62
     0
 10
4.8055
 20
18.0208
 30
0.0
 11
4.70833
 21
18.5417
 31
0.0
  0
LINE
  8
0
 62
     0
 10
4.70833
 20
18.5417
 30
0.0
 11
4.88103
 21
18.3611
 31
0.0
  0
LINE
  8
0
 62
     0
 10
4.88103
 20
18.3611
 30
0.0
 11
5.02425
 21
18.2083
 31
0.0
  0
LINE
  8
0
 62
     0
 10
5.02425
 20
18.2083
 30
0.0
 11
5.13797
 21
18.0833
 31
0.0
  0
LINE
  8
0
 62
     0
 10
5.13797
 20
18.0833
 30
0.0
 11
5.22222
 21
17.9861
 31
0.0
  0
LINE
  8
0
 62
     0
 10
5.22222
 20
17.9861
 30
0.0
 11
5.28901
 21
17.9393
 31
0.0
  0
LINE
  8
0
 62
     0
 10
5.28901
 20
17.9393
 30
0.0
 11
5.37842
 21
17.9097
 31
0.0
  0
LINE
  8
0
 62
     0
 10
5.37842
 20
17.9097
 30
0.0
 11
5.4904
 21
17.8976
 31
0.0
  0
LINE
  8
0
 62
     0
 10
5.4904
 20
17.8976
 30
0.0
 11
5.625
 21
17.9028
 31
0.0
  0
LINE
  8
0
 62
     0
 10
5.625
 20
17.9028
 30
0.0
 11
5.91319
 21
17.9444
 31
0.0
  0
LINE
  8
0
 62
     0
 10
5.91319
 20
17.9444
 30
0.0
 11
6.22222
 21
18.0417
 31
0.0
  0
LINE
  8
0
 62
     0
 10
6.22222
 20
18.0417
 30
0.0
 11
6.50342
 21
18.1597
 31
0.0
  0
LINE
  8
0
 62
     0
 10
6.50342
 20
18.1597
 30
0.0
 11
6.70833
 21
18.2917
 31
0.0
  0
LINE
  8
0
 62
     0
 10
6.70833
 20
18.2917
 30
0.0
 11
6.78212
 21
18.3707
 31
0.0
  0
LINE
  8
0
 62
     0
 10
6.78212
 20
18.3707
 30
0.0
 11
6.82292
 21
18.441
 31
0.0
  0
LINE
  8
0
 62
     0
 10
6.82292
 20
18.441
 30
0.0
 11
6.83074
 21
18.5026
 31
0.0
  0
LINE
  8
0
 62
     0
 10
6.83074
 20
18.5026
 30
0.0
 11
6.80556
 21
18.5556
 31
0.0
  0
LINE
  8
0
 62
     0
 10
6.80556
 20
18.5556
 30
0.0
 11
6.10764
 21
19.3021
 31
0.0
  0
LINE
  8
0
 62
     0
 10
6.10764
 20
19.3021
 30
0.0
 11
5.34722
 21
20.0139
 31
0.0
  0
LINE
  8
0
 62
     0
 10
5.34722
 20
20.0139
 30
0.0
 11
5.80556
 21
20.1458
 31
0.0
  0
LINE
  8
0
 62
     0
 10
5.80556
 20
20.1458
 30
0.0
 11
6.23611
 21
20.2917
 31
0.0
  0
LINE
  8
0
 62
     0
 10
6.23611
 20
20.2917
 30
0.0
 11
6.52078
 21
20.4271
 31
0.0
  0
LINE
  8
0
 62
     0
 10
6.52078
 20
20.4271
 30
0.0
 11
6.73611
 21
20.5833
 31
0.0
  0
LINE
  8
0
 62
     0
 10
6.73611
 20
20.5833
 30
0.0
 11
6.84636
 21
20.6979
 31
0.0
  0
LINE
  8
0
 62
     0
 10
6.84636
 20
20.6979
 30
0.0
 11
6.91319
 21
20.8194
 31
0.0
  0
LINE
  8
0
 62
     0
 10
6.91319
 20
20.8194
 30
0.0
 11
6.93664
 21
20.9479
 31
0.0
  0
LINE
  8
0
 62
     0
 10
6.93664
 20
20.9479
 30
0.0
 11
6.91667
 21
21.0833
 31
0.0
  0
LINE
  8
0
 62
     0
 10
6.91667
 20
21.0833
 30
0.0
 11
6.86458
 21
21.2101
 31
0.0
  0
LINE
  8
0
 62
     0
 10
6.86458
 20
21.2101
 30
0.0
 11
6.77778
 21
21.3125
 31
0.0
  0
LINE
  8
0
 62
     0
 10
6.77778
 20
21.3125
 30
0.0
 11
6.65625
 21
21.3907
 31
0.0
  0
LINE
  8
0
 62
     0
 10
6.65625
 20
21.3907
 30
0.0
 11
6.5
 21
21.4444
 31
0.0
  0
LINE
  8
0
 62
     0
 10
6.5
 20
21.4444
 30
0.0
 11
6.34978
 21
21.4749
 31
0.0
  0
LINE
  8
0
 62
     0
 10
6.34978
 20
21.4749
 30
0.0
 11
6.20481
 21
21.4826
 31
0.0
  0
LINE
  8
0
 62
     0
 10
6.20481
 20
21.4826
 30
0.0
 11
6.06506
 21
21.4679
 31
0.0
  0
LINE
  8
0
 62
     0
 10
6.06506
 20
21.4679
 30
0.0
 11
5.93056
 21
21.4306
 31
0.0
  0
LINE
  8
0
 62
     0
 10
5.93056
 20
21.4306
 30
0.0
 11
5.59369
 21
21.316
 31
0.0
  0
LINE
  8
0
 62
     0
 10
5.59369
 20
21.316
 30
0.0
 11
5.19444
 21
21.1944
 31
0.0
  0
LINE
  8
0
 62
     0
 10
5.19444
 20
21.1944
 30
0.0
 11
5.34332
 21
21.3533
 31
0.0
  0
LINE
  8
0
 62
     0
 10
5.34332
 20
21.3533
 30
0.0
 11
5.47743
 21
21.4965
 31
0.0
  0
LINE
  8
0
 62
     0
 10
5.47743
 20
21.4965
 30
0.0
 11
5.59679
 21
21.6242
 31
0.0
  0
LINE
  8
0
 62
     0
 10
5.59679
 20
21.6242
 30
0.0
 11
5.70139
 21
21.7361
 31
0.0
  0
LINE
  8
0
 62
     0
 10
5.70139
 20
21.7361
 30
0.0
 11
5.79124
 21
21.8325
 31
0.0
  0
LINE
  8
0
 62
     0
 10
5.79124
 20
21.8325
 30
0.0
 11
5.86632
 21
21.9132
 31
0.0
  0
LINE
  8
0
 62
     0
 10
5.86632
 20
21.9132
 30
0.0
 11
5.92665
 21
21.9783
 31
0.0
  0
LINE
  8
0
 62
     0
 10
5.92665
 20
21.9783
 30
0.0
 11
5.97222
 21
22.0278
 31
0.0
  0
LINE
  8
0
 62
     0
 10
5.97222
 20
22.0278
 30
0.0
 11
6.00493
 21
22.0675
 31
0.0
  0
LINE
  8
0
 62
     0
 10
6.00493
 20
22.0675
 30
0.0
 11
6.02686
 21
22.1033
 31
0.0
  0
LINE
  8
0
 62
     0
 10
6.02686
 20
22.1033
 30
0.0
 11
6.03792
 21
22.1351
 31
0.0
  0
LINE
  8
0
 62
     0
 10
6.03792
 20
22.1351
 30
0.0
 11
6.03814
 21
22.1632
 31
0.0
  0
LINE
  8
0
 62
     0
 10
6.03814
 20
22.1632
 30
0.0
 11
6.0275
 21
22.1872
 31
0.0
  0
LINE
  8
0
 62
     0
 10
6.0275
 20
22.1872
 30
0.0
 11
6.00603
 21
22.2075
 31
0.0
  0
LINE
  8
0
 62
     0
 10
6.00603
 20
22.2075
 30
0.0
 11
5.97368
 21
22.2237
 31
0.0
  0
LINE
  8
0
 62
     0
 10
5.97368
 20
22.2237
 30
0.0
 11
5.93056
 21
22.2361
 31
0.0
  0
LINE
  8
0
 62
     0
 10
5.93056
 20
22.2361
 30
0.0
 11
5.78472
 21
22.2604
 31
0.0
  0
LINE
  8
0
 62
     0
 10
5.78472
 20
22.2604
 30
0.0
 11
5.59722
 21
22.25
 31
0.0
  0
LINE
  8
0
 62
     0
 10
5.59722
 20
22.25
 30
0.0
 11
5.20915
 21
22.1893
 31
0.0
  0
LINE
  8
0
 62
     0
 10
5.20915
 20
22.1893
 30
0.0
 11
4.89231
 21
22.1042
 31
0.0
  0
LINE
  8
0
 62
     0
 10
4.89231
 20
22.1042
 30
0.0
 11
4.64665
 21
21.9949
 31
0.0
  0
LINE
  8
0
 62
     0
 10
4.64665
 20
21.9949
 30
0.0
 11
4.47222
 21
21.8611
 31
0.0
  0
LINE
  8
0
 62
     0
 10
4.47222
 20
21.8611
 30
0.0
 11
4.27778
 21
21.6528
 31
0.0
  0
LINE
  8
0
 62
     0
 10
4.27778
 20
21.6528
 30
0.0
 11
4.26389
 21
21.6944
 31
0.0
  0
LINE
  8
0
 62
     0
 10
4.26389
 20
21.6944
 30
0.0
 11
4.26389
 21
21.7361
 31
0.0
  0
LINE
  8
0
 62
     0
 10
4.26389
 20
21.7361
 30
0.0
 11
4.22917
 21
21.8056
 31
0.0
  0
LINE
  8
0
 62
     0
 10
4.22917
 20
21.8056
 30
0.0
 11
4.16667
 21
21.8611
 31
0.0
  0
LINE
  8
0
 62
     0
 10
4.16667
 20
21.8611
 30
0.0
 11
4.07639
 21
21.9028
 31
0.0
  0
LINE
  8
0
 62
     0
 10
4.07639
 20
21.9028
 30
0.0
 11
3.95833
 21
21.9306
 31
0.0
  0
LINE
  8
0
 62
     0
 10
3.95833
 20
21.9306
 30
0.0
 11
3.6875
 21
21.9306
 31
0.0
  0
LINE
  8
0
 62
     0
 10
3.6875
 20
21.9306
 30
0.0
 11
3.375
 21
21.875
 31
0.0
  0
LINE
  8
0
 62
     0
 10
3.375
 20
21.875
 30
0.0
 11
3.06944
 21
21.7778
 31
0.0
  0
LINE
  8
0
 62
     0
 10
3.06944
 20
21.7778
 30
0.0
 11
2.81944
 21
21.6528
 31
0.0
  0
LINE
  8
0
 62
     0
 10
2.81944
 20
21.6528
 30
0.0
 11
2.71615
 21
21.5694
 31
0.0
  0
LINE
  8
0
 62
     0
 10
2.71615
 20
21.5694
 30
0.0
 11
2.64236
 21
21.4861
 31
0.0
  0
LINE
  8
0
 62
     0
 10
2.64236
 20
21.4861
 30
0.0
 11
2.5981
 21
21.4028
 31
0.0
  0
LINE
  8
0
 62
     0
 10
2.5981
 20
21.4028
 30
0.0
 11
2.58333
 21
21.3194
 31
0.0
  0
LINE
  8
0
 62
     0
 10
2.58333
 20
21.3194
 30
0.0
 11
2.55203
 21
21.3021
 31
0.0
  0
LINE
  8
0
 62
     0
 10
2.55203
 20
21.3021
 30
0.0
 11
2.48611
 21
21.2778
 31
0.0
  0
LINE
  8
0
 62
     0
 10
2.48611
 20
21.2778
 30
0.0
 11
2.29514
 21
21.1979
 31
0.0
  0
LINE
  8
0
 62
     0
 10
2.29514
 20
21.1979
 30
0.0
 11
2.11111
 21
21.0972
 31
0.0
  0
LINE
  8
0
 62
     0
 10
2.11111
 20
21.0972
 30
0.0
 11
1.99393
 21
21.0053
 31
0.0
  0
LINE
  8
0
 62
     0
 10
1.99393
 20
21.0053
 30
0.0
 11
1.93403
 21
20.9236
 31
0.0
  0
LINE
  8
0
 62
     0
 10
1.93403
 20
20.9236
 30
0.0
 11
1.93143
 21
20.8525
 31
0.0
  0
LINE
  8
0
 62
     0
 10
1.93143
 20
20.8525
 30
0.0
 11
1.98611
 21
20.7917
 31
0.0
  0
LINE
  8
0
 62
     0
 10
1.98611
 20
20.7917
 30
0.0
 11
2.02078
 21
20.7708
 31
0.0
  0
LINE
  8
0
 62
     0
 10
2.02078
 20
20.7708
 30
0.0
 11
2.06944
 21
20.7361
 31
0.0
  0
LINE
  8
0
 62
     0
 10
2.06944
 20
20.7361
 30
0.0
 11
2.11458
 21
20.7118
 31
0.0
  0
LINE
  8
0
 62
     0
 10
2.11458
 20
20.7118
 30
0.0
 11
2.13889
 21
20.6944
 31
0.0
  0
LINE
  8
0
 62
     0
 10
2.13889
 20
20.6944
 30
0.0
 11
1.92708
 21
20.5729
 31
0.0
  0
LINE
  8
0
 62
     0
 10
1.92708
 20
20.5729
 30
0.0
 11
1.76389
 21
20.4028
 31
0.0
  0
LINE
  8
0
 62
     0
 10
1.76389
 20
20.4028
 30
0.0
 11
1.65967
 21
20.2188
 31
0.0
  0
LINE
  8
0
 62
     0
 10
1.65967
 20
20.2188
 30
0.0
 11
1.625
 21
20.0278
 31
0.0
  0
LINE
  8
0
 62
     0
 10
1.625
 20
20.0278
 30
0.0
 11
1.66319
 21
19.8472
 31
0.0
  0
LINE
  8
0
 62
     0
 10
1.66319
 20
19.8472
 30
0.0
 11
1.77778
 21
19.6944
 31
0.0
  0
LINE
  8
0
 62
     0
 10
1.77778
 20
19.6944
 30
0.0
 11
1.87674
 21
19.6325
 31
0.0
  0
LINE
  8
0
 62
     0
 10
1.87674
 20
19.6325
 30
0.0
 11
1.99306
 21
19.5864
 31
0.0
  0
LINE
  8
0
 62
     0
 10
1.99306
 20
19.5864
 30
0.0
 11
2.12674
 21
19.5561
 31
0.0
  0
LINE
  8
0
 62
     0
 10
2.12674
 20
19.5561
 30
0.0
 11
2.27778
 21
19.5417
 31
0.0
  0
LINE
  8
0
 62
     0
 10
2.27778
 20
19.5417
 30
0.0
 11
2.13753
 21
19.3983
 31
0.0
  0
LINE
  8
0
 62
     0
 10
2.13753
 20
19.3983
 30
0.0
 11
2.01557
 21
19.2735
 31
0.0
  0
LINE
  8
0
 62
     0
 10
2.01557
 20
19.2735
 30
0.0
 11
1.91183
 21
19.1674
 31
0.0
  0
LINE
  8
0
 62
     0
 10
1.91183
 20
19.1674
 30
0.0
 11
1.82639
 21
19.0799
 31
0.0
  0
LINE
  8
0
 62
     0
 10
1.82639
 20
19.0799
 30
0.0
 11
1.75911
 21
19.0111
 31
0.0
  0
LINE
  8
0
 62
     0
 10
1.75911
 20
19.0111
 30
0.0
 11
1.71007
 21
18.961
 31
0.0
  0
LINE
  8
0
 62
     0
 10
1.71007
 20
18.961
 30
0.0
 11
1.67925
 21
18.9296
 31
0.0
  0
LINE
  8
0
 62
     0
 10
1.67925
 20
18.9296
 30
0.0
 11
1.66667
 21
18.9167
 31
0.0
  0
LINE
  8
0
 62
     0
 10
1.66667
 20
18.9167
 30
0.0
 11
1.60678
 21
18.8403
 31
0.0
  0
LINE
  8
0
 62
     0
 10
1.60678
 20
18.8403
 30
0.0
 11
1.59375
 21
18.7778
 31
0.0
  0
LINE
  8
0
 62
     0
 10
1.59375
 20
18.7778
 30
0.0
 11
1.62761
 21
18.7292
 31
0.0
  0
LINE
  8
0
 62
     0
 10
1.62761
 20
18.7292
 30
0.0
 11
1.70833
 21
18.6944
 31
0.0
  0
LINE
  8
0
 62
     0
 10
1.70833
 20
18.6944
 30
0.0
 11
1.85417
 21
18.6806
 31
0.0
  0
LINE
  8
0
 62
     0
 10
1.85417
 20
18.6806
 30
0.0
 11
2.04167
 21
18.6944
 31
0.0
  0
LINE
  8
0
 62
     0
 10
2.04167
 20
18.6944
 30
0.0
 11
2.30556
 21
18.7292
 31
0.0
  0
LINE
  8
0
 62
     0
 10
2.30556
 20
18.7292
 30
0.0
 11
2.54167
 21
18.7778
 31
0.0
  0
LINE
  8
0
 62
     0
 10
2.54167
 20
18.7778
 30
0.0
 11
2.75
 21
18.8403
 31
0.0
  0
LINE
  8
0
 62
     0
 10
2.75
 20
18.8403
 30
0.0
 11
2.93056
 21
18.9167
 31
0.0
  0
ENDSEC
  0
EOF
