  0
SECTION
  2
HEADER
  9
$ACADVER
  1
AC1009
  9
$EXTMIN
 10
0.0
 20
0.0
 30
0.0
  9
$EXTMAX
 10
1000.0
 20
1000.0
 30
0.0
  9
$FILLMODE
 70
 0
  9
$SPLFRAME
 70
 1
  0
ENDSEC
  0
SECTION
  2
TABLES
  0
TABLE
  2
LAYER
 70
1
  0
LAYER
  2
0
 70
     0
 62
     7
  6
CONTINUOUS
  0
ENDTAB
  0
ENDSEC
  0
SECTION
  2
ENTITIES
  0
LINE
  8
0
 62
     0
 10
13.6667
 20
6.125
 30
0.0
 11
13.5002
 21
6.03
 31
0.0
  0
LINE
  8
0
 62
     0
 10
13.5002
 20
6.03
 30
0.0
 11
13.3272
 21
5.9879
 31
0.0
  0
LINE
  8
0
 62
     0
 10
13.3272
 20
5.9879
 30
0.0
 11
13.1477
 21
5.99875
 31
0.0
  0
LINE
  8
0
 62
     0
 10
13.1477
 20
5.99875
 30
0.0
 11
12.9617
 21
6.06256
 31
0.0
  0
LINE
  8
0
 62
     0
 10
12.9617
 20
6.06256
 30
0.0
 11
12.7693
 21
6.17931
 31
0.0
  0
LINE
  8
0
 62
     0
 10
12.7693
 20
6.17931
 30
0.0
 11
12.5703
 21
6.34901
 31
0.0
  0
LINE
  8
0
 62
     0
 10
12.5703
 20
6.34901
 30
0.0
 11
12.3648
 21
6.57167
 31
0.0
  0
LINE
  8
0
 62
     0
 10
12.3648
 20
6.57167
 30
0.0
 11
12.1528
 21
6.84722
 31
0.0
  0
LINE
  8
0
 62
     0
 10
12.1528
 20
6.84722
 30
0.0
 11
11.9459
 21
7.17296
 31
0.0
  0
LINE
  8
0
 62
     0
 10
11.9459
 20
7.17296
 30
0.0
 11
11.7908
 21
7.51129
 31
0.0
  0
LINE
  8
0
 62
     0
 10
11.7908
 20
7.51129
 30
0.0
 11
11.6872
 21
7.86219
 31
0.0
  0
LINE
  8
0
 62
     0
 10
11.6872
 20
7.86219
 30
0.0
 11
11.6354
 21
8.22569
 31
0.0
  0
LINE
  8
0
 62
     0
 10
11.6354
 20
8.22569
 30
0.0
 11
11.6351
 21
8.60178
 31
0.0
  0
LINE
  8
0
 62
     0
 10
11.6351
 20
8.60178
 30
0.0
 11
11.6866
 21
8.99046
 31
0.0
  0
LINE
  8
0
 62
     0
 10
11.6866
 20
8.99046
 30
0.0
 11
11.7897
 21
9.39171
 31
0.0
  0
LINE
  8
0
 62
     0
 10
11.7897
 20
9.39171
 30
0.0
 11
11.9444
 21
9.80556
 31
0.0
  0
LINE
  8
0
 62
     0
 10
11.9444
 20
9.80556
 30
0.0
 11
12.1042
 21
10.1155
 31
0.0
  0
LINE
  8
0
 62
     0
 10
12.1042
 20
10.1155
 30
0.0
 11
12.3194
 21
10.4618
 31
0.0
  0
LINE
  8
0
 62
     0
 10
12.3194
 20
10.4618
 30
0.0
 11
12.5903
 21
10.8446
 31
0.0
  0
LINE
  8
0
 62
     0
 10
12.5903
 20
10.8446
 30
0.0
 11
12.9167
 21
11.2639
 31
0.0
  0
LINE
  8
0
 62
     0
 10
12.9167
 20
11.2639
 30
0.0
 11
13.039
 21
11.4063
 31
0.0
  0
LINE
  8
0
 62
     0
 10
13.039
 20
11.4063
 30
0.0
 11
13.1284
 21
11.5001
 31
0.0
  0
LINE
  8
0
 62
     0
 10
13.1284
 20
11.5001
 30
0.0
 11
13.1848
 21
11.5452
 31
0.0
  0
LINE
  8
0
 62
     0
 10
13.1848
 20
11.5452
 30
0.0
 11
13.2083
 21
11.5417
 31
0.0
  0
LINE
  8
0
 62
     0
 10
13.2083
 20
11.5417
 30
0.0
 11
13.2083
 21
11.375
 31
0.0
  0
LINE
  8
0
 62
     0
 10
13.2083
 20
11.375
 30
0.0
 11
13.2153
 21
11.2049
 31
0.0
  0
LINE
  8
0
 62
     0
 10
13.2153
 20
11.2049
 30
0.0
 11
13.2361
 21
11.0556
 31
0.0
  0
LINE
  8
0
 62
     0
 10
13.2361
 20
11.0556
 30
0.0
 11
13.2925
 21
10.9567
 31
0.0
  0
LINE
  8
0
 62
     0
 10
13.2925
 20
10.9567
 30
0.0
 11
13.4201
 21
10.8959
 31
0.0
  0
LINE
  8
0
 62
     0
 10
13.4201
 20
10.8959
 30
0.0
 11
13.6189
 21
10.8733
 31
0.0
  0
LINE
  8
0
 62
     0
 10
13.6189
 20
10.8733
 30
0.0
 11
13.8889
 21
10.8889
 31
0.0
  0
LINE
  8
0
 62
     0
 10
13.8889
 20
10.8889
 30
0.0
 11
14.1683
 21
10.9349
 31
0.0
  0
LINE
  8
0
 62
     0
 10
14.1683
 20
10.9349
 30
0.0
 11
14.4236
 21
11.0035
 31
0.0
  0
LINE
  8
0
 62
     0
 10
14.4236
 20
11.0035
 30
0.0
 11
14.6544
 21
11.0946
 31
0.0
  0
LINE
  8
0
 62
     0
 10
14.6544
 20
11.0946
 30
0.0
 11
14.8611
 21
11.2083
 31
0.0
  0
LINE
  8
0
 62
     0
 10
14.8611
 20
11.2083
 30
0.0
 11
14.8472
 21
10.9862
 31
0.0
  0
LINE
  8
0
 62
     0
 10
14.8472
 20
10.9862
 30
0.0
 11
14.8333
 21
10.7361
 31
0.0
  0
LINE
  8
0
 62
     0
 10
14.8333
 20
10.7361
 30
0.0
 11
14.7751
 21
9.97054
 31
0.0
  0
LINE
  8
0
 62
     0
 10
14.7751
 20
9.97054
 30
0.0
 11
14.6979
 21
9.24311
 31
0.0
  0
LINE
  8
0
 62
     0
 10
14.6979
 20
9.24311
 30
0.0
 11
14.6015
 21
8.55388
 31
0.0
  0
LINE
  8
0
 62
     0
 10
14.6015
 20
8.55388
 30
0.0
 11
14.4861
 21
7.90278
 31
0.0
  0
LINE
  8
0
 62
     0
 10
14.4861
 20
7.90278
 30
0.0
 11
14.4125
 21
7.57422
 31
0.0
  0
LINE
  8
0
 62
     0
 10
14.4125
 20
7.57422
 30
0.0
 11
14.3307
 21
7.27604
 31
0.0
  0
LINE
  8
0
 62
     0
 10
14.3307
 20
7.27604
 30
0.0
 11
14.2407
 21
7.00825
 31
0.0
  0
LINE
  8
0
 62
     0
 10
14.2407
 20
7.00825
 30
0.0
 11
14.1424
 21
6.77083
 31
0.0
  0
LINE
  8
0
 62
     0
 10
14.1424
 20
6.77083
 30
0.0
 11
14.0358
 21
6.56381
 31
0.0
  0
LINE
  8
0
 62
     0
 10
14.0358
 20
6.56381
 30
0.0
 11
13.921
 21
6.38715
 31
0.0
  0
LINE
  8
0
 62
     0
 10
13.921
 20
6.38715
 30
0.0
 11
13.798
 21
6.24089
 31
0.0
  0
LINE
  8
0
 62
     0
 10
13.798
 20
6.24089
 30
0.0
 11
13.6667
 21
6.125
 31
0.0
  0
LINE
  8
0
 62
     0
 10
5.86111
 20
0.972222
 30
0.0
 11
5.46789
 21
1.61029
 31
0.0
  0
LINE
  8
0
 62
     0
 10
5.46789
 20
1.61029
 30
0.0
 11
5.10764
 21
2.25369
 31
0.0
  0
LINE
  8
0
 62
     0
 10
5.10764
 20
2.25369
 30
0.0
 11
4.78039
 21
2.9024
 31
0.0
  0
LINE
  8
0
 62
     0
 10
4.78039
 20
2.9024
 30
0.0
 11
4.48611
 21
3.55643
 31
0.0
  0
LINE
  8
0
 62
     0
 10
4.48611
 20
3.55643
 30
0.0
 11
4.22483
 21
4.21576
 31
0.0
  0
LINE
  8
0
 62
     0
 10
4.22483
 20
4.21576
 30
0.0
 11
3.99653
 21
4.88043
 31
0.0
  0
LINE
  8
0
 62
     0
 10
3.99653
 20
4.88043
 30
0.0
 11
3.80122
 21
5.5504
 31
0.0
  0
LINE
  8
0
 62
     0
 10
3.80122
 20
5.5504
 30
0.0
 11
3.63889
 21
6.22569
 31
0.0
  0
LINE
  8
0
 62
     0
 10
3.63889
 20
6.22569
 30
0.0
 11
3.50956
 21
6.90631
 31
0.0
  0
LINE
  8
0
 62
     0
 10
3.50956
 20
6.90631
 30
0.0
 11
3.41319
 21
7.59224
 31
0.0
  0
LINE
  8
0
 62
     0
 10
3.41319
 20
7.59224
 30
0.0
 11
3.34983
 21
8.28347
 31
0.0
  0
LINE
  8
0
 62
     0
 10
3.34983
 20
8.28347
 30
0.0
 11
3.31944
 21
8.98004
 31
0.0
  0
LINE
  8
0
 62
     0
 10
3.31944
 20
8.98004
 30
0.0
 11
3.32206
 21
9.68192
 31
0.0
  0
LINE
  8
0
 62
     0
 10
3.32206
 20
9.68192
 30
0.0
 11
3.35764
 21
10.3891
 31
0.0
  0
LINE
  8
0
 62
     0
 10
3.35764
 20
10.3891
 30
0.0
 11
3.42622
 21
11.1016
 31
0.0
  0
LINE
  8
0
 62
     0
 10
3.42622
 20
11.1016
 30
0.0
 11
3.52778
 21
11.8194
 31
0.0
  0
LINE
  8
0
 62
     0
 10
3.52778
 20
11.8194
 30
0.0
 11
3.66499
 21
12.5502
 31
0.0
  0
LINE
  8
0
 62
     0
 10
3.66499
 20
12.5502
 30
0.0
 11
3.83356
 21
13.2598
 31
0.0
  0
LINE
  8
0
 62
     0
 10
3.83356
 20
13.2598
 30
0.0
 11
4.03347
 21
13.9482
 31
0.0
  0
LINE
  8
0
 62
     0
 10
4.03347
 20
13.9482
 30
0.0
 11
4.26476
 21
14.6156
 31
0.0
  0
LINE
  8
0
 62
     0
 10
4.26476
 20
14.6156
 30
0.0
 11
4.5274
 21
15.2617
 31
0.0
  0
LINE
  8
0
 62
     0
 10
4.5274
 20
15.2617
 30
0.0
 11
4.8214
 21
15.8865
 31
0.0
  0
LINE
  8
0
 62
     0
 10
4.8214
 20
15.8865
 30
0.0
 11
5.14675
 21
16.4903
 31
0.0
  0
LINE
  8
0
 62
     0
 10
5.14675
 20
16.4903
 30
0.0
 11
5.50347
 21
17.0729
 31
0.0
  0
LINE
  8
0
 62
     0
 10
5.50347
 20
17.0729
 30
0.0
 11
5.89154
 21
17.6344
 31
0.0
  0
LINE
  8
0
 62
     0
 10
5.89154
 20
17.6344
 30
0.0
 11
6.31099
 21
18.1747
 31
0.0
  0
LINE
  8
0
 62
     0
 10
6.31099
 20
18.1747
 30
0.0
 11
6.76178
 21
18.6939
 31
0.0
  0
LINE
  8
0
 62
     0
 10
6.76178
 20
18.6939
 30
0.0
 11
7.24393
 21
19.1918
 31
0.0
  0
LINE
  8
0
 62
     0
 10
7.24393
 20
19.1918
 30
0.0
 11
7.75743
 21
19.6686
 31
0.0
  0
LINE
  8
0
 62
     0
 10
7.75743
 20
19.6686
 30
0.0
 11
8.30231
 21
20.1243
 31
0.0
  0
LINE
  8
0
 62
     0
 10
8.30231
 20
20.1243
 30
0.0
 11
8.87853
 21
20.5589
 31
0.0
  0
LINE
  8
0
 62
     0
 10
8.87853
 20
20.5589
 30
0.0
 11
9.48611
 21
20.9722
 31
0.0
  0
LINE
  8
0
 62
     0
 10
9.48611
 20
20.9722
 30
0.0
 11
10.3064
 21
21.4614
 31
0.0
  0
LINE
  8
0
 62
     0
 10
10.3064
 20
21.4614
 30
0.0
 11
11.1424
 21
21.8803
 31
0.0
  0
LINE
  8
0
 62
     0
 10
11.1424
 20
21.8803
 30
0.0
 11
11.9939
 21
22.2287
 31
0.0
  0
LINE
  8
0
 62
     0
 10
11.9939
 20
22.2287
 30
0.0
 11
12.8611
 21
22.5069
 31
0.0
  0
LINE
  8
0
 62
     0
 10
12.8611
 20
22.5069
 30
0.0
 11
13.7439
 21
22.7149
 31
0.0
  0
LINE
  8
0
 62
     0
 10
13.7439
 20
22.7149
 30
0.0
 11
14.6424
 21
22.8525
 31
0.0
  0
LINE
  8
0
 62
     0
 10
14.6424
 20
22.8525
 30
0.0
 11
15.5564
 21
22.9197
 31
0.0
  0
LINE
  8
0
 62
     0
 10
15.5564
 20
22.9197
 30
0.0
 11
16.4861
 21
22.9167
 31
0.0
  0
LINE
  8
0
 62
     0
 10
16.4861
 20
22.9167
 30
0.0
 11
17.0057
 21
22.8854
 31
0.0
  0
LINE
  8
0
 62
     0
 10
17.0057
 20
22.8854
 30
0.0
 11
17.5058
 21
22.8299
 31
0.0
  0
LINE
  8
0
 62
     0
 10
17.5058
 20
22.8299
 30
0.0
 11
17.9863
 21
22.75
 31
0.0
  0
LINE
  8
0
 62
     0
 10
17.9863
 20
22.75
 30
0.0
 11
18.4469
 21
22.6458
 31
0.0
  0
LINE
  8
0
 62
     0
 10
18.4469
 20
22.6458
 30
0.0
 11
18.8882
 21
22.5174
 31
0.0
  0
LINE
  8
0
 62
     0
 10
18.8882
 20
22.5174
 30
0.0
 11
19.3096
 21
22.3646
 31
0.0
  0
LINE
  8
0
 62
     0
 10
19.3096
 20
22.3646
 30
0.0
 11
19.7115
 21
22.1875
 31
0.0
  0
LINE
  8
0
 62
     0
 10
19.7115
 20
22.1875
 30
0.0
 11
20.0938
 21
21.9861
 31
0.0
  0
LINE
  8
0
 62
     0
 10
20.0938
 20
21.9861
 30
0.0
 11
20.4562
 21
21.7604
 31
0.0
  0
LINE
  8
0
 62
     0
 10
20.4562
 20
21.7604
 30
0.0
 11
20.7992
 21
21.5104
 31
0.0
  0
LINE
  8
0
 62
     0
 10
20.7992
 20
21.5104
 30
0.0
 11
21.1225
 21
21.2361
 31
0.0
  0
LINE
  8
0
 62
     0
 10
21.1225
 20
21.2361
 30
0.0
 11
21.4261
 21
20.9375
 31
0.0
  0
LINE
  8
0
 62
     0
 10
21.4261
 20
20.9375
 30
0.0
 11
21.7101
 21
20.6146
 31
0.0
  0
LINE
  8
0
 62
     0
 10
21.7101
 20
20.6146
 30
0.0
 11
21.9746
 21
20.2674
 31
0.0
  0
LINE
  8
0
 62
     0
 10
21.9746
 20
20.2674
 30
0.0
 11
22.2193
 21
19.8958
 31
0.0
  0
LINE
  8
0
 62
     0
 10
22.2193
 20
19.8958
 30
0.0
 11
22.4444
 21
19.5
 31
0.0
  0
LINE
  8
0
 62
     0
 10
22.4444
 20
19.5
 30
0.0
 11
22.6611
 21
19.0621
 31
0.0
  0
LINE
  8
0
 62
     0
 10
22.6611
 20
19.0621
 30
0.0
 11
22.8565
 21
18.6094
 31
0.0
  0
LINE
  8
0
 62
     0
 10
22.8565
 20
18.6094
 30
0.0
 11
23.0306
 21
18.1419
 31
0.0
  0
LINE
  8
0
 62
     0
 10
23.0306
 20
18.1419
 30
0.0
 11
23.1831
 21
17.6597
 31
0.0
  0
LINE
  8
0
 62
     0
 10
23.1831
 20
17.6597
 30
0.0
 11
23.3143
 21
17.1628
 31
0.0
  0
LINE
  8
0
 62
     0
 10
23.3143
 20
17.1628
 30
0.0
 11
23.4242
 21
16.6511
 31
0.0
  0
LINE
  8
0
 62
     0
 10
23.4242
 20
16.6511
 30
0.0
 11
23.5126
 21
16.1246
 31
0.0
  0
LINE
  8
0
 62
     0
 10
23.5126
 20
16.1246
 30
0.0
 11
23.5799
 21
15.5833
 31
0.0
  0
LINE
  8
0
 62
     0
 10
23.5799
 20
15.5833
 30
0.0
 11
23.6256
 21
15.0274
 31
0.0
  0
LINE
  8
0
 62
     0
 10
23.6256
 20
15.0274
 30
0.0
 11
23.6499
 21
14.4567
 31
0.0
  0
LINE
  8
0
 62
     0
 10
23.6499
 20
14.4567
 30
0.0
 11
23.6529
 21
13.8712
 31
0.0
  0
LINE
  8
0
 62
     0
 10
23.6529
 20
13.8712
 30
0.0
 11
23.6344
 21
13.2709
 31
0.0
  0
LINE
  8
0
 62
     0
 10
23.6344
 20
13.2709
 30
0.0
 11
23.5947
 21
12.6559
 31
0.0
  0
LINE
  8
0
 62
     0
 10
23.5947
 20
12.6559
 30
0.0
 11
23.5336
 21
12.0261
 31
0.0
  0
LINE
  8
0
 62
     0
 10
23.5336
 20
12.0261
 30
0.0
 11
23.4511
 21
11.3816
 31
0.0
  0
LINE
  8
0
 62
     0
 10
23.4511
 20
11.3816
 30
0.0
 11
23.3472
 21
10.7222
 31
0.0
  0
LINE
  8
0
 62
     0
 10
23.3472
 20
10.7222
 30
0.0
 11
23.2131
 21
10.0412
 31
0.0
  0
LINE
  8
0
 62
     0
 10
23.2131
 20
10.0412
 30
0.0
 11
23.0468
 21
9.38021
 31
0.0
  0
LINE
  8
0
 62
     0
 10
23.0468
 20
9.38021
 30
0.0
 11
22.8485
 21
8.73915
 31
0.0
  0
LINE
  8
0
 62
     0
 10
22.8485
 20
8.73915
 30
0.0
 11
22.6181
 21
8.11806
 31
0.0
  0
LINE
  8
0
 62
     0
 10
22.6181
 20
8.11806
 30
0.0
 11
22.3554
 21
7.51693
 31
0.0
  0
LINE
  8
0
 62
     0
 10
22.3554
 20
7.51693
 30
0.0
 11
22.0607
 21
6.93576
 31
0.0
  0
LINE
  8
0
 62
     0
 10
22.0607
 20
6.93576
 30
0.0
 11
21.7339
 21
6.37457
 31
0.0
  0
LINE
  8
0
 62
     0
 10
21.7339
 20
6.37457
 30
0.0
 11
21.375
 21
5.83333
 31
0.0
  0
LINE
  8
0
 62
     0
 10
21.375
 20
5.83333
 30
0.0
 11
21.1289
 21
5.50575
 31
0.0
  0
LINE
  8
0
 62
     0
 10
21.1289
 20
5.50575
 30
0.0
 11
20.8839
 21
5.22092
 31
0.0
  0
LINE
  8
0
 62
     0
 10
20.8839
 20
5.22092
 30
0.0
 11
20.6397
 21
4.97885
 31
0.0
  0
LINE
  8
0
 62
     0
 10
20.6397
 20
4.97885
 30
0.0
 11
20.3967
 21
4.77951
 31
0.0
  0
LINE
  8
0
 62
     0
 10
20.3967
 20
4.77951
 30
0.0
 11
20.1546
 21
4.62294
 31
0.0
  0
LINE
  8
0
 62
     0
 10
20.1546
 20
4.62294
 30
0.0
 11
19.9133
 21
4.50911
 31
0.0
  0
LINE
  8
0
 62
     0
 10
19.9133
 20
4.50911
 30
0.0
 11
19.6732
 21
4.43804
 31
0.0
  0
LINE
  8
0
 62
     0
 10
19.6732
 20
4.43804
 30
0.0
 11
19.434
 21
4.40972
 31
0.0
  0
LINE
  8
0
 62
     0
 10
19.434
 20
4.40972
 30
0.0
 11
19.1958
 21
4.42415
 31
0.0
  0
LINE
  8
0
 62
     0
 10
19.1958
 20
4.42415
 30
0.0
 11
18.9586
 21
4.48133
 31
0.0
  0
LINE
  8
0
 62
     0
 10
18.9586
 20
4.48133
 30
0.0
 11
18.7222
 21
4.58128
 31
0.0
  0
LINE
  8
0
 62
     0
 10
18.7222
 20
4.58128
 30
0.0
 11
18.4869
 21
4.72396
 31
0.0
  0
LINE
  8
0
 62
     0
 10
18.4869
 20
4.72396
 30
0.0
 11
18.2526
 21
4.9094
 31
0.0
  0
LINE
  8
0
 62
     0
 10
18.2526
 20
4.9094
 30
0.0
 11
18.0193
 21
5.13758
 31
0.0
  0
LINE
  8
0
 62
     0
 10
18.0193
 20
5.13758
 30
0.0
 11
17.7869
 21
5.40853
 31
0.0
  0
LINE
  8
0
 62
     0
 10
17.7869
 20
5.40853
 30
0.0
 11
17.5556
 21
5.72222
 31
0.0
  0
LINE
  8
0
 62
     0
 10
17.5556
 20
5.72222
 30
0.0
 11
17.3526
 21
6.04753
 31
0.0
  0
LINE
  8
0
 62
     0
 10
17.3526
 20
6.04753
 30
0.0
 11
17.1744
 21
6.40539
 31
0.0
  0
LINE
  8
0
 62
     0
 10
17.1744
 20
6.40539
 30
0.0
 11
17.0211
 21
6.79579
 31
0.0
  0
LINE
  8
0
 62
     0
 10
17.0211
 20
6.79579
 30
0.0
 11
16.8924
 21
7.21875
 31
0.0
  0
LINE
  8
0
 62
     0
 10
16.8924
 20
7.21875
 30
0.0
 11
16.7883
 21
7.67432
 31
0.0
  0
LINE
  8
0
 62
     0
 10
16.7883
 20
7.67432
 30
0.0
 11
16.7092
 21
8.16237
 31
0.0
  0
LINE
  8
0
 62
     0
 10
16.7092
 20
8.16237
 30
0.0
 11
16.6547
 21
8.683
 31
0.0
  0
LINE
  8
0
 62
     0
 10
16.6547
 20
8.683
 30
0.0
 11
16.625
 21
9.23611
 31
0.0
  0
LINE
  8
0
 62
     0
 10
16.625
 20
9.23611
 30
0.0
 11
16.6544
 21
9.51004
 31
0.0
  0
LINE
  8
0
 62
     0
 10
16.6544
 20
9.51004
 30
0.0
 11
16.6806
 21
9.85249
 31
0.0
  0
LINE
  8
0
 62
     0
 10
16.6806
 20
9.85249
 30
0.0
 11
16.7031
 21
10.2635
 31
0.0
  0
LINE
  8
0
 62
     0
 10
16.7031
 20
10.2635
 30
0.0
 11
16.7222
 21
10.7431
 31
0.0
  0
LINE
  8
0
 62
     0
 10
16.7222
 20
10.7431
 30
0.0
 11
16.7378
 21
11.2913
 31
0.0
  0
LINE
  8
0
 62
     0
 10
16.7378
 20
11.2913
 30
0.0
 11
16.75
 21
11.908
 31
0.0
  0
LINE
  8
0
 62
     0
 10
16.75
 20
11.908
 30
0.0
 11
16.7586
 21
12.5934
 31
0.0
  0
LINE
  8
0
 62
     0
 10
16.7586
 20
12.5934
 30
0.0
 11
16.7639
 21
13.3472
 31
0.0
  0
LINE
  8
0
 62
     0
 10
16.7639
 20
13.3472
 30
0.0
 11
16.7496
 21
13.4125
 31
0.0
  0
LINE
  8
0
 62
     0
 10
16.7496
 20
13.4125
 30
0.0
 11
16.7067
 21
13.4627
 31
0.0
  0
LINE
  8
0
 62
     0
 10
16.7067
 20
13.4627
 30
0.0
 11
16.635
 21
13.4976
 31
0.0
  0
LINE
  8
0
 62
     0
 10
16.635
 20
13.4976
 30
0.0
 11
16.5347
 21
13.5174
 31
0.0
  0
LINE
  8
0
 62
     0
 10
16.5347
 20
13.5174
 30
0.0
 11
16.4058
 21
13.5219
 31
0.0
  0
LINE
  8
0
 62
     0
 10
16.4058
 20
13.5219
 30
0.0
 11
16.2483
 21
13.5113
 31
0.0
  0
LINE
  8
0
 62
     0
 10
16.2483
 20
13.5113
 30
0.0
 11
16.0621
 21
13.4855
 31
0.0
  0
LINE
  8
0
 62
     0
 10
16.0621
 20
13.4855
 30
0.0
 11
15.8472
 21
13.4444
 31
0.0
  0
LINE
  8
0
 62
     0
 10
15.8472
 20
13.4444
 30
0.0
 11
15.629
 21
13.3926
 31
0.0
  0
LINE
  8
0
 62
     0
 10
15.629
 20
13.3926
 30
0.0
 11
15.44
 21
13.3342
 31
0.0
  0
LINE
  8
0
 62
     0
 10
15.44
 20
13.3342
 30
0.0
 11
15.2801
 21
13.2693
 31
0.0
  0
LINE
  8
0
 62
     0
 10
15.2801
 20
13.2693
 30
0.0
 11
15.1493
 21
13.1979
 31
0.0
  0
LINE
  8
0
 62
     0
 10
15.1493
 20
13.1979
 30
0.0
 11
15.0475
 21
13.12
 31
0.0
  0
LINE
  8
0
 62
     0
 10
15.0475
 20
13.12
 30
0.0
 11
14.9747
 21
13.0356
 31
0.0
  0
LINE
  8
0
 62
     0
 10
14.9747
 20
13.0356
 30
0.0
 11
14.9311
 21
12.9447
 31
0.0
  0
LINE
  8
0
 62
     0
 10
14.9311
 20
12.9447
 30
0.0
 11
14.9167
 21
12.8472
 31
0.0
  0
LINE
  8
0
 62
     0
 10
14.9167
 20
12.8472
 30
0.0
 11
14.9097
 21
12.5069
 31
0.0
  0
LINE
  8
0
 62
     0
 10
14.9097
 20
12.5069
 30
0.0
 11
14.8889
 21
12.0972
 31
0.0
  0
LINE
  8
0
 62
     0
 10
14.8889
 20
12.0972
 30
0.0
 11
14.7829
 21
12.2476
 31
0.0
  0
LINE
  8
0
 62
     0
 10
14.7829
 20
12.2476
 30
0.0
 11
14.6597
 21
12.3724
 31
0.0
  0
LINE
  8
0
 62
     0
 10
14.6597
 20
12.3724
 30
0.0
 11
14.519
 21
12.4716
 31
0.0
  0
LINE
  8
0
 62
     0
 10
14.519
 20
12.4716
 30
0.0
 11
14.3611
 21
12.5451
 31
0.0
  0
LINE
  8
0
 62
     0
 10
14.3611
 20
12.5451
 30
0.0
 11
14.1857
 21
12.5931
 31
0.0
  0
LINE
  8
0
 62
     0
 10
14.1857
 20
12.5931
 30
0.0
 11
13.9931
 21
12.6155
 31
0.0
  0
LINE
  8
0
 62
     0
 10
13.9931
 20
12.6155
 30
0.0
 11
13.7829
 21
12.6122
 31
0.0
  0
LINE
  8
0
 62
     0
 10
13.7829
 20
12.6122
 30
0.0
 11
13.5556
 21
12.5833
 31
0.0
  0
LINE
  8
0
 62
     0
 10
13.5556
 20
12.5833
 30
0.0
 11
13.1649
 21
12.487
 31
0.0
  0
LINE
  8
0
 62
     0
 10
13.1649
 20
12.487
 30
0.0
 11
12.7708
 21
12.3368
 31
0.0
  0
LINE
  8
0
 62
     0
 10
12.7708
 20
12.3368
 30
0.0
 11
12.3733
 21
12.1328
 31
0.0
  0
LINE
  8
0
 62
     0
 10
12.3733
 20
12.1328
 30
0.0
 11
11.9722
 21
11.875
 31
0.0
  0
LINE
  8
0
 62
     0
 10
11.9722
 20
11.875
 30
0.0
 11
11.6356
 21
11.6172
 31
0.0
  0
LINE
  8
0
 62
     0
 10
11.6356
 20
11.6172
 30
0.0
 11
11.3273
 21
11.3438
 31
0.0
  0
LINE
  8
0
 62
     0
 10
11.3273
 20
11.3438
 30
0.0
 11
11.0471
 21
11.0547
 31
0.0
  0
LINE
  8
0
 62
     0
 10
11.0471
 20
11.0547
 30
0.0
 11
10.7951
 21
10.75
 31
0.0
  0
LINE
  8
0
 62
     0
 10
10.7951
 20
10.75
 30
0.0
 11
10.5714
 21
10.4297
 31
0.0
  0
LINE
  8
0
 62
     0
 10
10.5714
 20
10.4297
 30
0.0
 11
10.3759
 21
10.0938
 31
0.0
  0
LINE
  8
0
 62
     0
 10
10.3759
 20
10.0938
 30
0.0
 11
10.2086
 21
9.74219
 31
0.0
  0
LINE
  8
0
 62
     0
 10
10.2086
 20
9.74219
 30
0.0
 11
10.0694
 21
9.375
 31
0.0
  0
LINE
  8
0
 62
     0
 10
10.0694
 20
9.375
 30
0.0
 11
9.95768
 21
8.97831
 31
0.0
  0
LINE
  8
0
 62
     0
 10
9.95768
 20
8.97831
 30
0.0
 11
9.88633
 21
8.58681
 31
0.0
  0
LINE
  8
0
 62
     0
 10
9.88633
 20
8.58681
 30
0.0
 11
9.85531
 21
8.20053
 31
0.0
  0
LINE
  8
0
 62
     0
 10
9.85531
 20
8.20053
 30
0.0
 11
9.86464
 21
7.81944
 31
0.0
  0
LINE
  8
0
 62
     0
 10
9.86464
 20
7.81944
 30
0.0
 11
9.91433
 21
7.44362
 31
0.0
  0
LINE
  8
0
 62
     0
 10
9.91433
 20
7.44362
 30
0.0
 11
10.0044
 21
7.07297
 31
0.0
  0
LINE
  8
0
 62
     0
 10
10.0044
 20
7.07297
 30
0.0
 11
10.1348
 21
6.70751
 31
0.0
  0
LINE
  8
0
 62
     0
 10
10.1348
 20
6.70751
 30
0.0
 11
10.3056
 21
6.34722
 31
0.0
  0
LINE
  8
0
 62
     0
 10
10.3056
 20
6.34722
 30
0.0
 11
10.4757
 21
6.05707
 31
0.0
  0
LINE
  8
0
 62
     0
 10
10.4757
 20
6.05707
 30
0.0
 11
10.6667
 21
5.79775
 31
0.0
  0
LINE
  8
0
 62
     0
 10
10.6667
 20
5.79775
 30
0.0
 11
10.8785
 21
5.56922
 31
0.0
  0
LINE
  8
0
 62
     0
 10
10.8785
 20
5.56922
 30
0.0
 11
11.1111
 21
5.37153
 31
0.0
  0
LINE
  8
0
 62
     0
 10
11.1111
 20
5.37153
 30
0.0
 11
11.3646
 21
5.20464
 31
0.0
  0
LINE
  8
0
 62
     0
 10
11.3646
 20
5.20464
 30
0.0
 11
11.6389
 21
5.06858
 31
0.0
  0
LINE
  8
0
 62
     0
 10
11.6389
 20
5.06858
 30
0.0
 11
11.934
 21
4.96332
 31
0.0
  0
LINE
  8
0
 62
     0
 10
11.934
 20
4.96332
 30
0.0
 11
12.25
 21
4.88889
 31
0.0
  0
LINE
  8
0
 62
     0
 10
12.25
 20
4.88889
 30
0.0
 11
12.543
 21
4.84657
 31
0.0
  0
LINE
  8
0
 62
     0
 10
12.543
 20
4.84657
 30
0.0
 11
12.8385
 21
4.83074
 31
0.0
  0
LINE
  8
0
 62
     0
 10
12.8385
 20
4.83074
 30
0.0
 11
13.1367
 21
4.84136
 31
0.0
  0
LINE
  8
0
 62
     0
 10
13.1367
 20
4.84136
 30
0.0
 11
13.4375
 21
4.87847
 31
0.0
  0
LINE
  8
0
 62
     0
 10
13.4375
 20
4.87847
 30
0.0
 11
13.7409
 21
4.94206
 31
0.0
  0
LINE
  8
0
 62
     0
 10
13.7409
 20
4.94206
 30
0.0
 11
14.0469
 21
5.03212
 31
0.0
  0
LINE
  8
0
 62
     0
 10
14.0469
 20
5.03212
 30
0.0
 11
14.3554
 21
5.14865
 31
0.0
  0
LINE
  8
0
 62
     0
 10
14.3554
 20
5.14865
 30
0.0
 11
14.6667
 21
5.29167
 31
0.0
  0
LINE
  8
0
 62
     0
 10
14.6667
 20
5.29167
 30
0.0
 11
14.8636
 21
5.39936
 31
0.0
  0
LINE
  8
0
 62
     0
 10
14.8636
 20
5.39936
 30
0.0
 11
15.0521
 21
5.52783
 31
0.0
  0
LINE
  8
0
 62
     0
 10
15.0521
 20
5.52783
 30
0.0
 11
15.2317
 21
5.67714
 31
0.0
  0
LINE
  8
0
 62
     0
 10
15.2317
 20
5.67714
 30
0.0
 11
15.4028
 21
5.84722
 31
0.0
  0
LINE
  8
0
 62
     0
 10
15.4028
 20
5.84722
 30
0.0
 11
15.5826
 21
5.48008
 31
0.0
  0
LINE
  8
0
 62
     0
 10
15.5826
 20
5.48008
 30
0.0
 11
15.789
 21
5.14242
 31
0.0
  0
LINE
  8
0
 62
     0
 10
15.789
 20
5.14242
 30
0.0
 11
16.0218
 21
4.83425
 31
0.0
  0
LINE
  8
0
 62
     0
 10
16.0218
 20
4.83425
 30
0.0
 11
16.2813
 21
4.55561
 31
0.0
  0
LINE
  8
0
 62
     0
 10
16.2813
 20
4.55561
 30
0.0
 11
16.5669
 21
4.30647
 31
0.0
  0
LINE
  8
0
 62
     0
 10
16.5669
 20
4.30647
 30
0.0
 11
16.8793
 21
4.08686
 31
0.0
  0
LINE
  8
0
 62
     0
 10
16.8793
 20
4.08686
 30
0.0
 11
17.2181
 21
3.89675
 31
0.0
  0
LINE
  8
0
 62
     0
 10
17.2181
 20
3.89675
 30
0.0
 11
17.5833
 21
3.73611
 31
0.0
  0
LINE
  8
0
 62
     0
 10
17.5833
 20
3.73611
 30
0.0
 11
18.0826
 21
3.57601
 31
0.0
  0
LINE
  8
0
 62
     0
 10
18.0826
 20
3.57601
 30
0.0
 11
18.5807
 21
3.48443
 31
0.0
  0
LINE
  8
0
 62
     0
 10
18.5807
 20
3.48443
 30
0.0
 11
19.0775
 21
3.46143
 31
0.0
  0
LINE
  8
0
 62
     0
 10
19.0775
 20
3.46143
 30
0.0
 11
19.5729
 21
3.507
 31
0.0
  0
LINE
  8
0
 62
     0
 10
19.5729
 20
3.507
 30
0.0
 11
20.0671
 21
3.62115
 31
0.0
  0
LINE
  8
0
 62
     0
 10
20.0671
 20
3.62115
 30
0.0
 11
20.5599
 21
3.80387
 31
0.0
  0
LINE
  8
0
 62
     0
 10
20.5599
 20
3.80387
 30
0.0
 11
21.0514
 21
4.05518
 31
0.0
  0
LINE
  8
0
 62
     0
 10
21.0514
 20
4.05518
 30
0.0
 11
21.5417
 21
4.375
 31
0.0
  0
LINE
  8
0
 62
     0
 10
21.5417
 20
4.375
 30
0.0
 11
21.9376
 21
4.68386
 31
0.0
  0
LINE
  8
0
 62
     0
 10
21.9376
 20
4.68386
 30
0.0
 11
22.3133
 21
5.02001
 31
0.0
  0
LINE
  8
0
 62
     0
 10
22.3133
 20
5.02001
 30
0.0
 11
22.6686
 21
5.38351
 31
0.0
  0
LINE
  8
0
 62
     0
 10
22.6686
 20
5.38351
 30
0.0
 11
23.0035
 21
5.77431
 31
0.0
  0
LINE
  8
0
 62
     0
 10
23.0035
 20
5.77431
 30
0.0
 11
23.3179
 21
6.19249
 31
0.0
  0
LINE
  8
0
 62
     0
 10
23.3179
 20
6.19249
 30
0.0
 11
23.6119
 21
6.63803
 31
0.0
  0
LINE
  8
0
 62
     0
 10
23.6119
 20
6.63803
 30
0.0
 11
23.8856
 21
7.11089
 31
0.0
  0
LINE
  8
0
 62
     0
 10
23.8856
 20
7.11089
 30
0.0
 11
24.1389
 21
7.61111
 31
0.0
  0
LINE
  8
0
 62
     0
 10
24.1389
 20
7.61111
 30
0.0
 11
24.426
 21
8.26085
 31
0.0
  0
LINE
  8
0
 62
     0
 10
24.426
 20
8.26085
 30
0.0
 11
24.6797
 21
8.9184
 31
0.0
  0
LINE
  8
0
 62
     0
 10
24.6797
 20
8.9184
 30
0.0
 11
24.9
 21
9.58376
 31
0.0
  0
LINE
  8
0
 62
     0
 10
24.9
 20
9.58376
 30
0.0
 11
25.0868
 21
10.2569
 31
0.0
  0
LINE
  8
0
 62
     0
 10
25.0868
 20
10.2569
 30
0.0
 11
25.2403
 21
10.9379
 31
0.0
  0
LINE
  8
0
 62
     0
 10
25.2403
 20
10.9379
 30
0.0
 11
25.3603
 21
11.6267
 31
0.0
  0
LINE
  8
0
 62
     0
 10
25.3603
 20
11.6267
 30
0.0
 11
25.4468
 21
12.3233
 31
0.0
  0
LINE
  8
0
 62
     0
 10
25.4468
 20
12.3233
 30
0.0
 11
25.5
 21
13.0278
 31
0.0
  0
LINE
  8
0
 62
     0
 10
25.5
 20
13.0278
 30
0.0
 11
25.5197
 21
13.74
 31
0.0
  0
LINE
  8
0
 62
     0
 10
25.5197
 20
13.74
 30
0.0
 11
25.5061
 21
14.4601
 31
0.0
  0
LINE
  8
0
 62
     0
 10
25.5061
 20
14.4601
 30
0.0
 11
25.459
 21
15.1879
 31
0.0
  0
LINE
  8
0
 62
     0
 10
25.459
 20
15.1879
 30
0.0
 11
25.3785
 21
15.9236
 31
0.0
  0
LINE
  8
0
 62
     0
 10
25.3785
 20
15.9236
 30
0.0
 11
25.2646
 21
16.6671
 31
0.0
  0
LINE
  8
0
 62
     0
 10
25.2646
 20
16.6671
 30
0.0
 11
25.1172
 21
17.4185
 31
0.0
  0
LINE
  8
0
 62
     0
 10
25.1172
 20
17.4185
 30
0.0
 11
24.9364
 21
18.1775
 31
0.0
  0
LINE
  8
0
 62
     0
 10
24.9364
 20
18.1775
 30
0.0
 11
24.7222
 21
18.9444
 31
0.0
  0
LINE
  8
0
 62
     0
 10
24.7222
 20
18.9444
 30
0.0
 11
24.5969
 21
19.3239
 31
0.0
  0
LINE
  8
0
 62
     0
 10
24.5969
 20
19.3239
 30
0.0
 11
24.4539
 21
19.6875
 31
0.0
  0
LINE
  8
0
 62
     0
 10
24.4539
 20
19.6875
 30
0.0
 11
24.2932
 21
20.0357
 31
0.0
  0
LINE
  8
0
 62
     0
 10
24.2932
 20
20.0357
 30
0.0
 11
24.1146
 21
20.3681
 31
0.0
  0
LINE
  8
0
 62
     0
 10
24.1146
 20
20.3681
 30
0.0
 11
23.9182
 21
20.685
 31
0.0
  0
LINE
  8
0
 62
     0
 10
23.9182
 20
20.685
 30
0.0
 11
23.7039
 21
20.9861
 31
0.0
  0
LINE
  8
0
 62
     0
 10
23.7039
 20
20.9861
 30
0.0
 11
23.4719
 21
21.2718
 31
0.0
  0
LINE
  8
0
 62
     0
 10
23.4719
 20
21.2718
 30
0.0
 11
23.2222
 21
21.5417
 31
0.0
  0
LINE
  8
0
 62
     0
 10
23.2222
 20
21.5417
 30
0.0
 11
22.9546
 21
21.796
 31
0.0
  0
LINE
  8
0
 62
     0
 10
22.9546
 20
21.796
 30
0.0
 11
22.6692
 21
22.0347
 31
0.0
  0
LINE
  8
0
 62
     0
 10
22.6692
 20
22.0347
 30
0.0
 11
22.3661
 21
22.2578
 31
0.0
  0
LINE
  8
0
 62
     0
 10
22.3661
 20
22.2578
 30
0.0
 11
22.0451
 21
22.4653
 31
0.0
  0
LINE
  8
0
 62
     0
 10
22.0451
 20
22.4653
 30
0.0
 11
21.7064
 21
22.6571
 31
0.0
  0
LINE
  8
0
 62
     0
 10
21.7064
 20
22.6571
 30
0.0
 11
21.3497
 21
22.8333
 31
0.0
  0
LINE
  8
0
 62
     0
 10
21.3497
 20
22.8333
 30
0.0
 11
20.9754
 21
22.9939
 31
0.0
  0
LINE
  8
0
 62
     0
 10
20.9754
 20
22.9939
 30
0.0
 11
20.5833
 21
23.1389
 31
0.0
  0
LINE
  8
0
 62
     0
 10
20.5833
 20
23.1389
 30
0.0
 11
19.919
 21
23.3422
 31
0.0
  0
LINE
  8
0
 62
     0
 10
19.919
 20
23.3422
 30
0.0
 11
19.2247
 21
23.5008
 31
0.0
  0
LINE
  8
0
 62
     0
 10
19.2247
 20
23.5008
 30
0.0
 11
18.5006
 21
23.6149
 31
0.0
  0
LINE
  8
0
 62
     0
 10
18.5006
 20
23.6149
 30
0.0
 11
17.7465
 21
23.684
 31
0.0
  0
LINE
  8
0
 62
     0
 10
17.7465
 20
23.684
 30
0.0
 11
16.9625
 21
23.7086
 31
0.0
  0
LINE
  8
0
 62
     0
 10
16.9625
 20
23.7086
 30
0.0
 11
16.1485
 21
23.6883
 31
0.0
  0
LINE
  8
0
 62
     0
 10
16.1485
 20
23.6883
 30
0.0
 11
15.3044
 21
23.6235
 31
0.0
  0
LINE
  8
0
 62
     0
 10
15.3044
 20
23.6235
 30
0.0
 11
14.4306
 21
23.5139
 31
0.0
  0
LINE
  8
0
 62
     0
 10
14.4306
 20
23.5139
 30
0.0
 11
13.6165
 21
23.3746
 31
0.0
  0
LINE
  8
0
 62
     0
 10
13.6165
 20
23.3746
 30
0.0
 11
12.8134
 21
23.1928
 31
0.0
  0
LINE
  8
0
 62
     0
 10
12.8134
 20
23.1928
 30
0.0
 11
12.0211
 21
22.9683
 31
0.0
  0
LINE
  8
0
 62
     0
 10
12.0211
 20
22.9683
 30
0.0
 11
11.2396
 21
22.7014
 31
0.0
  0
LINE
  8
0
 62
     0
 10
11.2396
 20
22.7014
 30
0.0
 11
10.469
 21
22.3919
 31
0.0
  0
LINE
  8
0
 62
     0
 10
10.469
 20
22.3919
 30
0.0
 11
9.70921
 21
22.04
 31
0.0
  0
LINE
  8
0
 62
     0
 10
9.70921
 20
22.04
 30
0.0
 11
8.96029
 21
21.6454
 31
0.0
  0
LINE
  8
0
 62
     0
 10
8.96029
 20
21.6454
 30
0.0
 11
8.22222
 21
21.2083
 31
0.0
  0
LINE
  8
0
 62
     0
 10
8.22222
 20
21.2083
 30
0.0
 11
7.50369
 21
20.7329
 31
0.0
  0
LINE
  8
0
 62
     0
 10
7.50369
 20
20.7329
 30
0.0
 11
6.82032
 21
20.23
 31
0.0
  0
LINE
  8
0
 62
     0
 10
6.82032
 20
20.23
 30
0.0
 11
6.1721
 21
19.6999
 31
0.0
  0
LINE
  8
0
 62
     0
 10
6.1721
 20
19.6999
 30
0.0
 11
5.55903
 21
19.1424
 31
0.0
  0
LINE
  8
0
 62
     0
 10
5.55903
 20
19.1424
 30
0.0
 11
4.98107
 21
18.5575
 31
0.0
  0
LINE
  8
0
 62
     0
 10
4.98107
 20
18.5575
 30
0.0
 11
4.43832
 21
17.9453
 31
0.0
  0
LINE
  8
0
 62
     0
 10
4.43832
 20
17.9453
 30
0.0
 11
3.93072
 21
17.3058
 31
0.0
  0
LINE
  8
0
 62
     0
 10
3.93072
 20
17.3058
 30
0.0
 11
3.45833
 21
16.6389
 31
0.0
  0
LINE
  8
0
 62
     0
 10
3.45833
 20
16.6389
 30
0.0
 11
3.00797
 21
15.9008
 31
0.0
  0
LINE
  8
0
 62
     0
 10
3.00797
 20
15.9008
 30
0.0
 11
2.6154
 21
15.1311
 31
0.0
  0
LINE
  8
0
 62
     0
 10
2.6154
 20
15.1311
 30
0.0
 11
2.28054
 21
14.3296
 31
0.0
  0
LINE
  8
0
 62
     0
 10
2.28054
 20
14.3296
 30
0.0
 11
2.00342
 21
13.4965
 31
0.0
  0
LINE
  8
0
 62
     0
 10
2.00342
 20
13.4965
 30
0.0
 11
1.78401
 21
12.6317
 31
0.0
  0
LINE
  8
0
 62
     0
 10
1.78401
 20
12.6317
 30
0.0
 11
1.62235
 21
11.7352
 31
0.0
  0
LINE
  8
0
 62
     0
 10
1.62235
 20
11.7352
 30
0.0
 11
1.51839
 21
10.8071
 31
0.0
  0
LINE
  8
0
 62
     0
 10
1.51839
 20
10.8071
 30
0.0
 11
1.47222
 21
9.84722
 31
0.0
  0
LINE
  8
0
 62
     0
 10
1.47222
 20
9.84722
 30
0.0
 11
1.47786
 21
8.96897
 31
0.0
  0
LINE
  8
0
 62
     0
 10
1.47786
 20
8.96897
 30
0.0
 11
1.52951
 21
8.09115
 31
0.0
  0
LINE
  8
0
 62
     0
 10
1.52951
 20
8.09115
 30
0.0
 11
1.62717
 21
7.21376
 31
0.0
  0
LINE
  8
0
 62
     0
 10
1.62717
 20
7.21376
 30
0.0
 11
1.77083
 21
6.33681
 31
0.0
  0
LINE
  8
0
 62
     0
 10
1.77083
 20
6.33681
 30
0.0
 11
1.9605
 21
5.46029
 31
0.0
  0
LINE
  8
0
 62
     0
 10
1.9605
 20
5.46029
 30
0.0
 11
2.19618
 21
4.58421
 31
0.0
  0
LINE
  8
0
 62
     0
 10
2.19618
 20
4.58421
 30
0.0
 11
2.47786
 21
3.70856
 31
0.0
  0
LINE
  8
0
 62
     0
 10
2.47786
 20
3.70856
 30
0.0
 11
2.80556
 21
2.83333
 31
0.0
  0
LINE
  8
0
 62
     0
 10
2.80556
 20
2.83333
 30
0.0
 11
3.16
 21
2.0109
 31
0.0
  0
LINE
  8
0
 62
     0
 10
3.16
 20
2.0109
 30
0.0
 11
3.54986
 21
1.23112
 31
0.0
  0
LINE
  8
0
 62
     0
 10
3.54986
 20
1.23112
 30
0.0
 11
3.9751
 21
0.493978
 31
0.0
  0
LINE
  8
0
 62
     0
 10
3.9751
 20
0.493978
 30
0.0
 11
4.43571
 21
-0.200521
 31
0.0
  0
LINE
  8
0
 62
     0
 10
4.43571
 20
-0.200521
 30
0.0
 11
4.93169
 21
-0.852376
 31
0.0
  0
LINE
  8
0
 62
     0
 10
4.93169
 20
-0.852376
 30
0.0
 11
5.46306
 21
-1.46158
 31
0.0
  0
LINE
  8
0
 62
     0
 10
5.46306
 20
-1.46158
 30
0.0
 11
6.02979
 21
-2.02815
 31
0.0
  0
LINE
  8
0
 62
     0
 10
6.02979
 20
-2.02815
 30
0.0
 11
6.63189
 21
-2.55208
 31
0.0
  0
LINE
  8
0
 62
     0
 10
6.63189
 20
-2.55208
 30
0.0
 11
7.26938
 21
-3.03336
 31
0.0
  0
LINE
  8
0
 62
     0
 10
7.26938
 20
-3.03336
 30
0.0
 11
7.94222
 21
-3.472
 31
0.0
  0
LINE
  8
0
 62
     0
 10
7.94222
 20
-3.472
 30
0.0
 11
8.65044
 21
-3.868
 31
0.0
  0
LINE
  8
0
 62
     0
 10
8.65044
 20
-3.868
 30
0.0
 11
9.39404
 21
-4.22136
 31
0.0
  0
LINE
  8
0
 62
     0
 10
9.39404
 20
-4.22136
 30
0.0
 11
10.173
 21
-4.53207
 31
0.0
  0
LINE
  8
0
 62
     0
 10
10.173
 20
-4.53207
 30
0.0
 11
10.9874
 21
-4.80013
 31
0.0
  0
LINE
  8
0
 62
     0
 10
10.9874
 20
-4.80013
 30
0.0
 11
11.8371
 21
-5.02556
 31
0.0
  0
LINE
  8
0
 62
     0
 10
11.8371
 20
-5.02556
 30
0.0
 11
12.7222
 21
-5.20833
 31
0.0
  0
LINE
  8
0
 62
     0
 10
12.7222
 20
-5.20833
 30
0.0
 11
13.432
 21
-5.31863
 31
0.0
  0
LINE
  8
0
 62
     0
 10
13.432
 20
-5.31863
 30
0.0
 11
14.1588
 21
-5.40315
 31
0.0
  0
LINE
  8
0
 62
     0
 10
14.1588
 20
-5.40315
 30
0.0
 11
14.9025
 21
-5.46186
 31
0.0
  0
LINE
  8
0
 62
     0
 10
14.9025
 20
-5.46186
 30
0.0
 11
15.6632
 21
-5.49474
 31
0.0
  0
LINE
  8
0
 62
     0
 10
15.6632
 20
-5.49474
 30
0.0
 11
16.4407
 21
-5.50179
 31
0.0
  0
LINE
  8
0
 62
     0
 10
16.4407
 20
-5.50179
 30
0.0
 11
17.2351
 21
-5.48301
 31
0.0
  0
LINE
  8
0
 62
     0
 10
17.2351
 20
-5.48301
 30
0.0
 11
18.0467
 21
-5.43842
 31
0.0
  0
LINE
  8
0
 62
     0
 10
18.0467
 20
-5.43842
 30
0.0
 11
18.875
 21
-5.368
 31
0.0
  0
LINE
  8
0
 62
     0
 10
18.875
 20
-5.368
 30
0.0
 11
19.7203
 21
-5.27175
 31
0.0
  0
LINE
  8
0
 62
     0
 10
19.7203
 20
-5.27175
 30
0.0
 11
20.5825
 21
-5.14968
 31
0.0
  0
LINE
  8
0
 62
     0
 10
20.5825
 20
-5.14968
 30
0.0
 11
21.4615
 21
-5.00179
 31
0.0
  0
LINE
  8
0
 62
     0
 10
21.4615
 20
-5.00179
 30
0.0
 11
22.3576
 21
-4.82807
 31
0.0
  0
LINE
  8
0
 62
     0
 10
22.3576
 20
-4.82807
 30
0.0
 11
23.2706
 21
-4.62853
 31
0.0
  0
LINE
  8
0
 62
     0
 10
23.2706
 20
-4.62853
 30
0.0
 11
24.2006
 21
-4.40315
 31
0.0
  0
LINE
  8
0
 62
     0
 10
24.2006
 20
-4.40315
 30
0.0
 11
25.1474
 21
-4.15196
 31
0.0
  0
LINE
  8
0
 62
     0
 10
25.1474
 20
-4.15196
 30
0.0
 11
26.1111
 21
-3.875
 31
0.0
  0
LINE
  8
0
 62
     0
 10
26.1111
 20
-3.875
 30
0.0
 11
26.2986
 21
-3.81446
 31
0.0
  0
LINE
  8
0
 62
     0
 10
26.2986
 20
-3.81446
 30
0.0
 11
26.4583
 21
-3.75087
 31
0.0
  0
LINE
  8
0
 62
     0
 10
26.4583
 20
-3.75087
 30
0.0
 11
26.5903
 21
-3.68425
 31
0.0
  0
LINE
  8
0
 62
     0
 10
26.5903
 20
-3.68425
 30
0.0
 11
26.6944
 21
-3.61458
 31
0.0
  0
LINE
  8
0
 62
     0
 10
26.6944
 20
-3.61458
 30
0.0
 11
26.7708
 21
-3.54189
 31
0.0
  0
LINE
  8
0
 62
     0
 10
26.7708
 20
-3.54189
 30
0.0
 11
26.8194
 21
-3.46615
 31
0.0
  0
LINE
  8
0
 62
     0
 10
26.8194
 20
-3.46615
 30
0.0
 11
26.8403
 21
-3.38738
 31
0.0
  0
LINE
  8
0
 62
     0
 10
26.8403
 20
-3.38738
 30
0.0
 11
26.8333
 21
-3.30556
 31
0.0
  0
LINE
  8
0
 62
     0
 10
26.8333
 20
-3.30556
 30
0.0
 11
26.801
 21
-3.23438
 31
0.0
  0
LINE
  8
0
 62
     0
 10
26.801
 20
-3.23438
 30
0.0
 11
26.7456
 21
-3.18056
 31
0.0
  0
LINE
  8
0
 62
     0
 10
26.7456
 20
-3.18056
 30
0.0
 11
26.6672
 21
-3.1441
 31
0.0
  0
LINE
  8
0
 62
     0
 10
26.6672
 20
-3.1441
 30
0.0
 11
26.566
 21
-3.125
 31
0.0
  0
LINE
  8
0
 62
     0
 10
26.566
 20
-3.125
 30
0.0
 11
26.4415
 21
-3.12326
 31
0.0
  0
LINE
  8
0
 62
     0
 10
26.4415
 20
-3.12326
 30
0.0
 11
26.2942
 21
-3.13889
 31
0.0
  0
LINE
  8
0
 62
     0
 10
26.2942
 20
-3.13889
 30
0.0
 11
26.1239
 21
-3.17188
 31
0.0
  0
LINE
  8
0
 62
     0
 10
26.1239
 20
-3.17188
 30
0.0
 11
25.9306
 21
-3.22222
 31
0.0
  0
LINE
  8
0
 62
     0
 10
25.9306
 20
-3.22222
 30
0.0
 11
25.0296
 21
-3.48215
 31
0.0
  0
LINE
  8
0
 62
     0
 10
25.0296
 20
-3.48215
 30
0.0
 11
24.1464
 21
-3.71685
 31
0.0
  0
LINE
  8
0
 62
     0
 10
24.1464
 20
-3.71685
 30
0.0
 11
23.2808
 21
-3.92638
 31
0.0
  0
LINE
  8
0
 62
     0
 10
23.2808
 20
-3.92638
 30
0.0
 11
22.4329
 21
-4.11062
 31
0.0
  0
LINE
  8
0
 62
     0
 10
22.4329
 20
-4.11062
 30
0.0
 11
21.6026
 21
-4.26969
 31
0.0
  0
LINE
  8
0
 62
     0
 10
21.6026
 20
-4.26969
 30
0.0
 11
20.79
 21
-4.40349
 31
0.0
  0
LINE
  8
0
 62
     0
 10
20.79
 20
-4.40349
 30
0.0
 11
19.9951
 21
-4.5121
 31
0.0
  0
LINE
  8
0
 62
     0
 10
19.9951
 20
-4.5121
 30
0.0
 11
19.2178
 21
-4.59543
 31
0.0
  0
LINE
  8
0
 62
     0
 10
19.2178
 20
-4.59543
 30
0.0
 11
18.4582
 21
-4.6536
 31
0.0
  0
LINE
  8
0
 62
     0
 10
18.4582
 20
-4.6536
 30
0.0
 11
17.7162
 21
-4.68647
 31
0.0
  0
LINE
  8
0
 62
     0
 10
17.7162
 20
-4.68647
 30
0.0
 11
16.9919
 21
-4.69417
 31
0.0
  0
LINE
  8
0
 62
     0
 10
16.9919
 20
-4.69417
 30
0.0
 11
16.2853
 21
-4.6766
 31
0.0
  0
LINE
  8
0
 62
     0
 10
16.2853
 20
-4.6766
 30
0.0
 11
15.5964
 21
-4.63385
 31
0.0
  0
LINE
  8
0
 62
     0
 10
15.5964
 20
-4.63385
 30
0.0
 11
14.925
 21
-4.56581
 31
0.0
  0
LINE
  8
0
 62
     0
 10
14.925
 20
-4.56581
 30
0.0
 11
14.2714
 21
-4.4726
 31
0.0
  0
LINE
  8
0
 62
     0
 10
14.2714
 20
-4.4726
 30
0.0
 11
13.6354
 21
-4.35417
 31
0.0
  0
LINE
  8
0
 62
     0
 10
13.6354
 20
-4.35417
 30
0.0
 11
13.017
 21
-4.21044
 31
0.0
  0
LINE
  8
0
 62
     0
 10
13.017
 20
-4.21044
 30
0.0
 11
12.4163
 21
-4.04156
 31
0.0
  0
LINE
  8
0
 62
     0
 10
12.4163
 20
-4.04156
 30
0.0
 11
11.8333
 21
-3.84739
 31
0.0
  0
LINE
  8
0
 62
     0
 10
11.8333
 20
-3.84739
 30
0.0
 11
11.268
 21
-3.62804
 31
0.0
  0
LINE
  8
0
 62
     0
 10
11.268
 20
-3.62804
 30
0.0
 11
10.7203
 21
-3.3834
 31
0.0
  0
LINE
  8
0
 62
     0
 10
10.7203
 20
-3.3834
 30
0.0
 11
10.1902
 21
-3.11361
 31
0.0
  0
LINE
  8
0
 62
     0
 10
10.1902
 20
-3.11361
 30
0.0
 11
9.67785
 21
-2.81853
 31
0.0
  0
LINE
  8
0
 62
     0
 10
9.67785
 20
-2.81853
 30
0.0
 11
9.18311
 21
-2.49826
 31
0.0
  0
LINE
  8
0
 62
     0
 10
9.18311
 20
-2.49826
 30
0.0
 11
8.70606
 21
-2.15272
 31
0.0
  0
LINE
  8
0
 62
     0
 10
8.70606
 20
-2.15272
 30
0.0
 11
8.24669
 21
-1.78201
 31
0.0
  0
LINE
  8
0
 62
     0
 10
8.24669
 20
-1.78201
 30
0.0
 11
7.8049
 21
-1.38601
 31
0.0
  0
LINE
  8
0
 62
     0
 10
7.8049
 20
-1.38601
 30
0.0
 11
7.38086
 21
-0.964844
 31
0.0
  0
LINE
  8
0
 62
     0
 10
7.38086
 20
-0.964844
 30
0.0
 11
6.97439
 21
-0.518392
 31
0.0
  0
LINE
  8
0
 62
     0
 10
6.97439
 20
-0.518392
 30
0.0
 11
6.58567
 21
-0.0467665
 31
0.0
  0
LINE
  8
0
 62
     0
 10
6.58567
 20
-0.0467665
 30
0.0
 11
6.21451
 21
0.450142
 31
0.0
  0
LINE
  8
0
 62
     0
 10
6.21451
 20
0.450142
 30
0.0
 11
5.86111
 21
0.972222
 31
0.0
  0
ENDSEC
  0
EOF
