  0
SECTION
  2
HEADER
  9
$ACADVER
  1
AC1009
  9
$EXTMIN
 10
0.0
 20
0.0
 30
0.0
  9
$EXTMAX
 10
1000.0
 20
1000.0
 30
0.0
  9
$FILLMODE
 70
 0
  9
$SPLFRAME
 70
 1
  0
ENDSEC
  0
SECTION
  2
TABLES
  0
TABLE
  2
LAYER
 70
1
  0
LAYER
  2
0
 70
     0
 62
     7
  6
CONTINUOUS
  0
ENDTAB
  0
ENDSEC
  0
SECTION
  2
ENTITIES
  0
LINE
  8
0
 62
     0
 10
11.4444
 20
8.68056
 30
0.0
 11
11.0622
 21
8.89199
 31
0.0
  0
LINE
  8
0
 62
     0
 10
11.0622
 20
8.89199
 30
0.0
 11
10.631
 21
9.0886
 31
0.0
  0
LINE
  8
0
 62
     0
 10
10.631
 20
9.0886
 30
0.0
 11
10.1508
 21
9.27046
 31
0.0
  0
LINE
  8
0
 62
     0
 10
10.1508
 20
9.27046
 30
0.0
 11
9.62147
 21
9.43756
 31
0.0
  0
LINE
  8
0
 62
     0
 10
9.62147
 20
9.43756
 30
0.0
 11
9.04312
 21
9.5899
 31
0.0
  0
LINE
  8
0
 62
     0
 10
9.04312
 20
9.5899
 30
0.0
 11
8.41575
 21
9.72749
 31
0.0
  0
LINE
  8
0
 62
     0
 10
8.41575
 20
9.72749
 30
0.0
 11
7.73931
 21
9.85032
 31
0.0
  0
LINE
  8
0
 62
     0
 10
7.73931
 20
9.85032
 30
0.0
 11
7.01389
 21
9.95833
 31
0.0
  0
LINE
  8
0
 62
     0
 10
7.01389
 20
9.95833
 30
0.0
 11
7.49468
 21
10.1796
 31
0.0
  0
LINE
  8
0
 62
     0
 10
7.49468
 20
10.1796
 30
0.0
 11
7.9579
 21
10.4162
 31
0.0
  0
LINE
  8
0
 62
     0
 10
7.9579
 20
10.4162
 30
0.0
 11
8.40354
 21
10.6683
 31
0.0
  0
LINE
  8
0
 62
     0
 10
8.40354
 20
10.6683
 30
0.0
 11
8.8316
 21
10.9358
 31
0.0
  0
LINE
  8
0
 62
     0
 10
8.8316
 20
10.9358
 30
0.0
 11
9.24208
 21
11.2186
 31
0.0
  0
LINE
  8
0
 62
     0
 10
9.24208
 20
11.2186
 30
0.0
 11
9.63499
 21
11.5169
 31
0.0
  0
LINE
  8
0
 62
     0
 10
9.63499
 20
11.5169
 30
0.0
 11
10.0103
 21
11.8306
 31
0.0
  0
LINE
  8
0
 62
     0
 10
10.0103
 20
11.8306
 30
0.0
 11
10.3681
 21
12.1597
 31
0.0
  0
LINE
  8
0
 62
     0
 10
10.3681
 20
12.1597
 30
0.0
 11
10.7082
 21
12.5042
 31
0.0
  0
LINE
  8
0
 62
     0
 10
10.7082
 20
12.5042
 30
0.0
 11
11.0308
 21
12.8642
 31
0.0
  0
LINE
  8
0
 62
     0
 10
11.0308
 20
12.8642
 30
0.0
 11
11.3358
 21
13.2395
 31
0.0
  0
LINE
  8
0
 62
     0
 10
11.3358
 20
13.2395
 30
0.0
 11
11.6233
 21
13.6302
 31
0.0
  0
LINE
  8
0
 62
     0
 10
11.6233
 20
13.6302
 30
0.0
 11
11.8931
 21
14.0364
 31
0.0
  0
LINE
  8
0
 62
     0
 10
11.8931
 20
14.0364
 30
0.0
 11
12.1454
 21
14.4579
 31
0.0
  0
LINE
  8
0
 62
     0
 10
12.1454
 20
14.4579
 30
0.0
 11
12.3801
 21
14.8949
 31
0.0
  0
LINE
  8
0
 62
     0
 10
12.3801
 20
14.8949
 30
0.0
 11
12.5972
 21
15.3472
 31
0.0
  0
LINE
  8
0
 62
     0
 10
12.5972
 20
15.3472
 30
0.0
 11
12.7415
 21
15.6913
 31
0.0
  0
LINE
  8
0
 62
     0
 10
12.7415
 20
15.6913
 30
0.0
 11
12.8585
 21
16.0218
 31
0.0
  0
LINE
  8
0
 62
     0
 10
12.8585
 20
16.0218
 30
0.0
 11
12.9481
 21
16.3388
 31
0.0
  0
LINE
  8
0
 62
     0
 10
12.9481
 20
16.3388
 30
0.0
 11
13.0104
 21
16.6424
 31
0.0
  0
LINE
  8
0
 62
     0
 10
13.0104
 20
16.6424
 30
0.0
 11
13.0453
 21
16.9325
 31
0.0
  0
LINE
  8
0
 62
     0
 10
13.0453
 20
16.9325
 30
0.0
 11
13.0529
 21
17.2093
 31
0.0
  0
LINE
  8
0
 62
     0
 10
13.0529
 20
17.2093
 30
0.0
 11
13.0332
 21
17.4725
 31
0.0
  0
LINE
  8
0
 62
     0
 10
13.0332
 20
17.4725
 30
0.0
 11
12.9861
 21
17.7222
 31
0.0
  0
LINE
  8
0
 62
     0
 10
12.9861
 20
17.7222
 30
0.0
 11
12.9116
 21
17.9586
 31
0.0
  0
LINE
  8
0
 62
     0
 10
12.9116
 20
17.9586
 30
0.0
 11
12.8098
 21
18.1815
 31
0.0
  0
LINE
  8
0
 62
     0
 10
12.8098
 20
18.1815
 30
0.0
 11
12.6807
 21
18.3908
 31
0.0
  0
LINE
  8
0
 62
     0
 10
12.6807
 20
18.3908
 30
0.0
 11
12.5242
 21
18.5868
 31
0.0
  0
LINE
  8
0
 62
     0
 10
12.5242
 20
18.5868
 30
0.0
 11
12.3404
 21
18.7693
 31
0.0
  0
LINE
  8
0
 62
     0
 10
12.3404
 20
18.7693
 30
0.0
 11
12.1293
 21
18.9385
 31
0.0
  0
LINE
  8
0
 62
     0
 10
12.1293
 20
18.9385
 30
0.0
 11
11.8908
 21
19.094
 31
0.0
  0
LINE
  8
0
 62
     0
 10
11.8908
 20
19.094
 30
0.0
 11
11.625
 21
19.2361
 31
0.0
  0
LINE
  8
0
 62
     0
 10
11.625
 20
19.2361
 30
0.0
 11
11.1666
 21
19.4282
 31
0.0
  0
LINE
  8
0
 62
     0
 10
11.1666
 20
19.4282
 30
0.0
 11
10.6736
 21
19.5808
 31
0.0
  0
LINE
  8
0
 62
     0
 10
10.6736
 20
19.5808
 30
0.0
 11
10.1458
 21
19.6939
 31
0.0
  0
LINE
  8
0
 62
     0
 10
10.1458
 20
19.6939
 30
0.0
 11
9.58328
 21
19.7674
 31
0.0
  0
LINE
  8
0
 62
     0
 10
9.58328
 20
19.7674
 30
0.0
 11
8.98606
 21
19.8015
 31
0.0
  0
LINE
  8
0
 62
     0
 10
8.98606
 20
19.8015
 30
0.0
 11
8.35411
 21
19.7961
 31
0.0
  0
LINE
  8
0
 62
     0
 10
8.35411
 20
19.7961
 30
0.0
 11
7.68744
 21
19.7511
 31
0.0
  0
LINE
  8
0
 62
     0
 10
7.68744
 20
19.7511
 30
0.0
 11
6.98611
 21
19.6667
 31
0.0
  0
LINE
  8
0
 62
     0
 10
6.98611
 20
19.6667
 30
0.0
 11
6.64839
 21
19.5956
 31
0.0
  0
LINE
  8
0
 62
     0
 10
6.64839
 20
19.5956
 30
0.0
 11
6.27425
 21
19.4653
 31
0.0
  0
LINE
  8
0
 62
     0
 10
6.27425
 20
19.4653
 30
0.0
 11
5.86367
 21
19.2761
 31
0.0
  0
LINE
  8
0
 62
     0
 10
5.86367
 20
19.2761
 30
0.0
 11
5.41667
 21
19.0278
 31
0.0
  0
LINE
  8
0
 62
     0
 10
5.41667
 20
19.0278
 30
0.0
 11
5.24821
 21
18.9124
 31
0.0
  0
LINE
  8
0
 62
     0
 10
5.24821
 20
18.9124
 30
0.0
 11
5.13189
 21
18.816
 31
0.0
  0
LINE
  8
0
 62
     0
 10
5.13189
 20
18.816
 30
0.0
 11
5.06765
 21
18.7387
 31
0.0
  0
LINE
  8
0
 62
     0
 10
5.06765
 20
18.7387
 30
0.0
 11
5.05556
 21
18.6806
 31
0.0
  0
LINE
  8
0
 62
     0
 10
5.05556
 20
18.6806
 30
0.0
 11
5.10758
 21
18.6258
 31
0.0
  0
LINE
  8
0
 62
     0
 10
5.10758
 20
18.6258
 30
0.0
 11
5.23606
 21
18.6007
 31
0.0
  0
LINE
  8
0
 62
     0
 10
5.23606
 20
18.6007
 30
0.0
 11
5.44092
 21
18.605
 31
0.0
  0
LINE
  8
0
 62
     0
 10
5.44092
 20
18.605
 30
0.0
 11
5.72222
 21
18.6389
 31
0.0
  0
LINE
  8
0
 62
     0
 10
5.72222
 20
18.6389
 30
0.0
 11
6.31532
 21
18.7083
 31
0.0
  0
LINE
  8
0
 62
     0
 10
6.31532
 20
18.7083
 30
0.0
 11
6.86546
 21
18.7361
 31
0.0
  0
LINE
  8
0
 62
     0
 10
6.86546
 20
18.7361
 30
0.0
 11
7.37261
 21
18.7222
 31
0.0
  0
LINE
  8
0
 62
     0
 10
7.37261
 20
18.7222
 30
0.0
 11
7.83681
 21
18.6667
 31
0.0
  0
LINE
  8
0
 62
     0
 10
7.83681
 20
18.6667
 30
0.0
 11
8.25803
 21
18.5694
 31
0.0
  0
LINE
  8
0
 62
     0
 10
8.25803
 20
18.5694
 30
0.0
 11
8.63629
 21
18.4306
 31
0.0
  0
LINE
  8
0
 62
     0
 10
8.63629
 20
18.4306
 30
0.0
 11
8.97157
 21
18.25
 31
0.0
  0
LINE
  8
0
 62
     0
 10
8.97157
 20
18.25
 30
0.0
 11
9.26389
 21
18.0278
 31
0.0
  0
LINE
  8
0
 62
     0
 10
9.26389
 20
18.0278
 30
0.0
 11
9.4841
 21
17.8074
 31
0.0
  0
LINE
  8
0
 62
     0
 10
9.4841
 20
17.8074
 30
0.0
 11
9.66575
 21
17.5625
 31
0.0
  0
LINE
  8
0
 62
     0
 10
9.66575
 20
17.5625
 30
0.0
 11
9.80875
 21
17.2935
 31
0.0
  0
LINE
  8
0
 62
     0
 10
9.80875
 20
17.2935
 30
0.0
 11
9.91314
 21
17
 31
0.0
  0
LINE
  8
0
 62
     0
 10
9.91314
 20
17
 30
0.0
 11
9.97889
 21
16.6824
 31
0.0
  0
LINE
  8
0
 62
     0
 10
9.97889
 20
16.6824
 30
0.0
 11
10.006
 21
16.3403
 31
0.0
  0
LINE
  8
0
 62
     0
 10
10.006
 20
16.3403
 30
0.0
 11
9.99451
 21
15.974
 31
0.0
  0
LINE
  8
0
 62
     0
 10
9.99451
 20
15.974
 30
0.0
 11
9.94444
 21
15.5833
 31
0.0
  0
LINE
  8
0
 62
     0
 10
9.94444
 20
15.5833
 30
0.0
 11
9.87131
 21
15.2086
 31
0.0
  0
LINE
  8
0
 62
     0
 10
9.87131
 20
15.2086
 30
0.0
 11
9.76997
 21
14.8342
 31
0.0
  0
LINE
  8
0
 62
     0
 10
9.76997
 20
14.8342
 30
0.0
 11
9.6404
 21
14.4603
 31
0.0
  0
LINE
  8
0
 62
     0
 10
9.6404
 20
14.4603
 30
0.0
 11
9.48264
 21
14.0868
 31
0.0
  0
LINE
  8
0
 62
     0
 10
9.48264
 20
14.0868
 30
0.0
 11
9.29665
 21
13.7138
 31
0.0
  0
LINE
  8
0
 62
     0
 10
9.29665
 20
13.7138
 30
0.0
 11
9.08247
 21
13.3412
 31
0.0
  0
LINE
  8
0
 62
     0
 10
9.08247
 20
13.3412
 30
0.0
 11
8.84006
 21
12.969
 31
0.0
  0
LINE
  8
0
 62
     0
 10
8.84006
 20
12.969
 30
0.0
 11
8.56944
 21
12.5972
 31
0.0
  0
LINE
  8
0
 62
     0
 10
8.56944
 20
12.5972
 30
0.0
 11
8.27274
 21
12.2286
 31
0.0
  0
LINE
  8
0
 62
     0
 10
8.27274
 20
12.2286
 30
0.0
 11
7.9661
 21
11.8863
 31
0.0
  0
LINE
  8
0
 62
     0
 10
7.9661
 20
11.8863
 30
0.0
 11
7.64947
 21
11.5706
 31
0.0
  0
LINE
  8
0
 62
     0
 10
7.64947
 20
11.5706
 30
0.0
 11
7.32286
 21
11.2813
 31
0.0
  0
LINE
  8
0
 62
     0
 10
7.32286
 20
11.2813
 30
0.0
 11
6.98628
 21
11.0185
 31
0.0
  0
LINE
  8
0
 62
     0
 10
6.98628
 20
11.0185
 30
0.0
 11
6.63971
 21
10.7822
 31
0.0
  0
LINE
  8
0
 62
     0
 10
6.63971
 20
10.7822
 30
0.0
 11
6.28315
 21
10.5723
 31
0.0
  0
LINE
  8
0
 62
     0
 10
6.28315
 20
10.5723
 30
0.0
 11
5.91667
 21
10.3889
 31
0.0
  0
LINE
  8
0
 62
     0
 10
5.91667
 20
10.3889
 30
0.0
 11
5.88971
 21
11.2692
 31
0.0
  0
LINE
  8
0
 62
     0
 10
5.88971
 20
11.2692
 30
0.0
 11
5.82286
 21
12.1459
 31
0.0
  0
LINE
  8
0
 62
     0
 10
5.82286
 20
12.1459
 30
0.0
 11
5.7161
 21
13.0192
 31
0.0
  0
LINE
  8
0
 62
     0
 10
5.7161
 20
13.0192
 30
0.0
 11
5.56944
 21
13.8889
 31
0.0
  0
LINE
  8
0
 62
     0
 10
5.56944
 20
13.8889
 30
0.0
 11
5.50868
 21
14.066
 31
0.0
  0
LINE
  8
0
 62
     0
 10
5.50868
 20
14.066
 30
0.0
 11
5.39583
 21
14.2083
 31
0.0
  0
LINE
  8
0
 62
     0
 10
5.39583
 20
14.2083
 30
0.0
 11
5.23085
 21
14.316
 31
0.0
  0
LINE
  8
0
 62
     0
 10
5.23085
 20
14.316
 30
0.0
 11
5.01389
 21
14.3889
 31
0.0
  0
LINE
  8
0
 62
     0
 10
5.01389
 20
14.3889
 30
0.0
 11
4.78299
 21
14.4219
 31
0.0
  0
LINE
  8
0
 62
     0
 10
4.78299
 20
14.4219
 30
0.0
 11
4.53472
 21
14.4236
 31
0.0
  0
LINE
  8
0
 62
     0
 10
4.53472
 20
14.4236
 30
0.0
 11
4.2691
 21
14.3942
 31
0.0
  0
LINE
  8
0
 62
     0
 10
4.2691
 20
14.3942
 30
0.0
 11
3.98611
 21
14.3333
 31
0.0
  0
LINE
  8
0
 62
     0
 10
3.98611
 20
14.3333
 30
0.0
 11
3.71442
 21
14.2526
 31
0.0
  0
LINE
  8
0
 62
     0
 10
3.71442
 20
14.2526
 30
0.0
 11
3.46875
 21
14.1493
 31
0.0
  0
LINE
  8
0
 62
     0
 10
3.46875
 20
14.1493
 30
0.0
 11
3.24908
 21
14.0235
 31
0.0
  0
LINE
  8
0
 62
     0
 10
3.24908
 20
14.0235
 30
0.0
 11
3.05556
 21
13.875
 31
0.0
  0
LINE
  8
0
 62
     0
 10
3.05556
 20
13.875
 30
0.0
 11
2.88368
 21
13.6979
 31
0.0
  0
LINE
  8
0
 62
     0
 10
2.88368
 20
13.6979
 30
0.0
 11
2.77083
 21
13.5139
 31
0.0
  0
LINE
  8
0
 62
     0
 10
2.77083
 20
13.5139
 30
0.0
 11
2.71701
 21
13.3229
 31
0.0
  0
LINE
  8
0
 62
     0
 10
2.71701
 20
13.3229
 30
0.0
 11
2.72222
 21
13.125
 31
0.0
  0
LINE
  8
0
 62
     0
 10
2.72222
 20
13.125
 30
0.0
 11
2.8666
 21
12.2546
 31
0.0
  0
LINE
  8
0
 62
     0
 10
2.8666
 20
12.2546
 30
0.0
 11
2.97
 21
11.3865
 31
0.0
  0
LINE
  8
0
 62
     0
 10
2.97
 20
11.3865
 30
0.0
 11
3.03239
 21
10.5207
 31
0.0
  0
LINE
  8
0
 62
     0
 10
3.03239
 20
10.5207
 30
0.0
 11
3.05376
 21
9.65712
 31
0.0
  0
LINE
  8
0
 62
     0
 10
3.05376
 20
9.65712
 30
0.0
 11
3.03413
 21
8.79585
 31
0.0
  0
LINE
  8
0
 62
     0
 10
3.03413
 20
8.79585
 30
0.0
 11
2.97347
 21
7.93685
 31
0.0
  0
LINE
  8
0
 62
     0
 10
2.97347
 20
7.93685
 30
0.0
 11
2.87181
 21
7.08014
 31
0.0
  0
LINE
  8
0
 62
     0
 10
2.87181
 20
7.08014
 30
0.0
 11
2.72917
 21
6.22569
 31
0.0
  0
LINE
  8
0
 62
     0
 10
2.72917
 20
6.22569
 30
0.0
 11
2.54546
 21
5.37358
 31
0.0
  0
LINE
  8
0
 62
     0
 10
2.54546
 20
5.37358
 30
0.0
 11
2.32075
 21
4.52371
 31
0.0
  0
LINE
  8
0
 62
     0
 10
2.32075
 20
4.52371
 30
0.0
 11
2.05501
 21
3.67611
 31
0.0
  0
LINE
  8
0
 62
     0
 10
2.05501
 20
3.67611
 30
0.0
 11
1.74826
 21
2.83078
 31
0.0
  0
LINE
  8
0
 62
     0
 10
1.74826
 20
2.83078
 30
0.0
 11
1.4005
 21
1.98774
 31
0.0
  0
LINE
  8
0
 62
     0
 10
1.4005
 20
1.98774
 30
0.0
 11
1.01172
 21
1.14697
 31
0.0
  0
LINE
  8
0
 62
     0
 10
1.01172
 20
1.14697
 30
0.0
 11
0.581922
 21
0.308485
 31
0.0
  0
LINE
  8
0
 62
     0
 10
0.581922
 20
0.308485
 30
0.0
 11
0.111111
 21
-0.527778
 31
0.0
  0
LINE
  8
0
 62
     0
 10
0.111111
 20
-0.527778
 30
0.0
 11
0.0199653
 21
-0.730903
 31
0.0
  0
LINE
  8
0
 62
     0
 10
0.0199653
 20
-0.730903
 30
0.0
 11
-0.00347222
 21
-0.909722
 31
0.0
  0
LINE
  8
0
 62
     0
 10
-0.00347222
 20
-0.909722
 30
0.0
 11
0.0407986
 21
-1.06424
 31
0.0
  0
LINE
  8
0
 62
     0
 10
0.0407986
 20
-1.06424
 30
0.0
 11
0.152778
 21
-1.19444
 31
0.0
  0
LINE
  8
0
 62
     0
 10
0.152778
 20
-1.19444
 30
0.0
 11
0.303819
 21
-1.28472
 31
0.0
  0
LINE
  8
0
 62
     0
 10
0.303819
 20
-1.28472
 30
0.0
 11
0.493056
 21
-1.34722
 31
0.0
  0
LINE
  8
0
 62
     0
 10
0.493056
 20
-1.34722
 30
0.0
 11
0.720486
 21
-1.38194
 31
0.0
  0
LINE
  8
0
 62
     0
 10
0.720486
 20
-1.38194
 30
0.0
 11
0.986111
 21
-1.38889
 31
0.0
  0
LINE
  8
0
 62
     0
 10
0.986111
 20
-1.38889
 30
0.0
 11
1.31793
 21
-1.37153
 31
0.0
  0
LINE
  8
0
 62
     0
 10
1.31793
 20
-1.37153
 30
0.0
 11
1.61893
 21
-1.33333
 31
0.0
  0
LINE
  8
0
 62
     0
 10
1.61893
 20
-1.33333
 30
0.0
 11
1.88911
 21
-1.27431
 31
0.0
  0
LINE
  8
0
 62
     0
 10
1.88911
 20
-1.27431
 30
0.0
 11
2.12847
 21
-1.19444
 31
0.0
  0
LINE
  8
0
 62
     0
 10
2.12847
 20
-1.19444
 30
0.0
 11
2.33703
 21
-1.0937
 31
0.0
  0
LINE
  8
0
 62
     0
 10
2.33703
 20
-1.0937
 30
0.0
 11
2.51476
 21
-0.972168
 31
0.0
  0
LINE
  8
0
 62
     0
 10
2.51476
 20
-0.972168
 30
0.0
 11
2.66168
 21
-0.829807
 31
0.0
  0
LINE
  8
0
 62
     0
 10
2.66168
 20
-0.829807
 30
0.0
 11
2.77778
 21
-0.666667
 31
0.0
  0
LINE
  8
0
 62
     0
 10
2.77778
 20
-0.666667
 30
0.0
 11
3.43375
 21
0.511719
 31
0.0
  0
LINE
  8
0
 62
     0
 10
3.43375
 20
0.511719
 30
0.0
 11
4.01297
 21
1.69271
 31
0.0
  0
LINE
  8
0
 62
     0
 10
4.01297
 20
1.69271
 30
0.0
 11
4.51535
 21
2.87631
 31
0.0
  0
LINE
  8
0
 62
     0
 10
4.51535
 20
2.87631
 30
0.0
 11
4.94097
 21
4.0625
 31
0.0
  0
LINE
  8
0
 62
     0
 10
4.94097
 20
4.0625
 30
0.0
 11
5.28971
 21
5.25131
 31
0.0
  0
LINE
  8
0
 62
     0
 10
5.28971
 20
5.25131
 30
0.0
 11
5.56164
 21
6.44271
 31
0.0
  0
LINE
  8
0
 62
     0
 10
5.56164
 20
6.44271
 30
0.0
 11
5.75672
 21
7.63672
 31
0.0
  0
LINE
  8
0
 62
     0
 10
5.75672
 20
7.63672
 30
0.0
 11
5.875
 21
8.83333
 31
0.0
  0
LINE
  8
0
 62
     0
 10
5.875
 20
8.83333
 30
0.0
 11
6.45139
 21
8.73589
 31
0.0
  0
LINE
  8
0
 62
     0
 10
6.45139
 20
8.73589
 30
0.0
 11
6.98611
 21
8.61025
 31
0.0
  0
LINE
  8
0
 62
     0
 10
6.98611
 20
8.61025
 30
0.0
 11
7.47917
 21
8.45638
 31
0.0
  0
LINE
  8
0
 62
     0
 10
7.47917
 20
8.45638
 30
0.0
 11
7.93056
 21
8.27431
 31
0.0
  0
LINE
  8
0
 62
     0
 10
7.93056
 20
8.27431
 30
0.0
 11
8.34028
 21
8.06401
 31
0.0
  0
LINE
  8
0
 62
     0
 10
8.34028
 20
8.06401
 30
0.0
 11
8.70833
 21
7.82553
 31
0.0
  0
LINE
  8
0
 62
     0
 10
8.70833
 20
7.82553
 30
0.0
 11
9.03472
 21
7.55881
 31
0.0
  0
LINE
  8
0
 62
     0
 10
9.03472
 20
7.55881
 30
0.0
 11
9.31944
 21
7.26389
 31
0.0
  0
LINE
  8
0
 62
     0
 10
9.31944
 20
7.26389
 30
0.0
 11
9.47944
 21
7.05849
 31
0.0
  0
LINE
  8
0
 62
     0
 10
9.47944
 20
7.05849
 30
0.0
 11
9.61219
 21
6.84836
 31
0.0
  0
LINE
  8
0
 62
     0
 10
9.61219
 20
6.84836
 30
0.0
 11
9.71772
 21
6.63357
 31
0.0
  0
LINE
  8
0
 62
     0
 10
9.71772
 20
6.63357
 30
0.0
 11
9.79601
 21
6.41411
 31
0.0
  0
LINE
  8
0
 62
     0
 10
9.79601
 20
6.41411
 30
0.0
 11
9.84706
 21
6.19
 31
0.0
  0
LINE
  8
0
 62
     0
 10
9.84706
 20
6.19
 30
0.0
 11
9.87088
 21
5.96121
 31
0.0
  0
LINE
  8
0
 62
     0
 10
9.87088
 20
5.96121
 30
0.0
 11
9.86746
 21
5.72775
 31
0.0
  0
LINE
  8
0
 62
     0
 10
9.86746
 20
5.72775
 30
0.0
 11
9.83681
 21
5.48964
 31
0.0
  0
LINE
  8
0
 62
     0
 10
9.83681
 20
5.48964
 30
0.0
 11
9.77892
 21
5.24685
 31
0.0
  0
LINE
  8
0
 62
     0
 10
9.77892
 20
5.24685
 30
0.0
 11
9.69379
 21
4.9994
 31
0.0
  0
LINE
  8
0
 62
     0
 10
9.69379
 20
4.9994
 30
0.0
 11
9.58143
 21
4.74729
 31
0.0
  0
LINE
  8
0
 62
     0
 10
9.58143
 20
4.74729
 30
0.0
 11
9.44185
 21
4.4905
 31
0.0
  0
LINE
  8
0
 62
     0
 10
9.44185
 20
4.4905
 30
0.0
 11
9.27501
 21
4.22906
 31
0.0
  0
LINE
  8
0
 62
     0
 10
9.27501
 20
4.22906
 30
0.0
 11
9.08094
 21
3.96294
 31
0.0
  0
LINE
  8
0
 62
     0
 10
9.08094
 20
3.96294
 30
0.0
 11
8.85965
 21
3.69217
 31
0.0
  0
LINE
  8
0
 62
     0
 10
8.85965
 20
3.69217
 30
0.0
 11
8.61111
 21
3.41667
 31
0.0
  0
LINE
  8
0
 62
     0
 10
8.61111
 20
3.41667
 30
0.0
 11
8.15229
 21
2.96115
 31
0.0
  0
LINE
  8
0
 62
     0
 10
8.15229
 20
2.96115
 30
0.0
 11
7.69265
 21
2.55296
 31
0.0
  0
LINE
  8
0
 62
     0
 10
7.69265
 20
2.55296
 30
0.0
 11
7.23215
 21
2.19206
 31
0.0
  0
LINE
  8
0
 62
     0
 10
7.23215
 20
2.19206
 30
0.0
 11
6.77078
 21
1.87847
 31
0.0
  0
LINE
  8
0
 62
     0
 10
6.77078
 20
1.87847
 30
0.0
 11
6.30854
 21
1.61219
 31
0.0
  0
LINE
  8
0
 62
     0
 10
6.30854
 20
1.61219
 30
0.0
 11
5.84543
 21
1.39324
 31
0.0
  0
LINE
  8
0
 62
     0
 10
5.84543
 20
1.39324
 30
0.0
 11
5.38146
 21
1.22157
 31
0.0
  0
LINE
  8
0
 62
     0
 10
5.38146
 20
1.22157
 30
0.0
 11
4.91667
 21
1.09722
 31
0.0
  0
LINE
  8
0
 62
     0
 10
4.91667
 20
1.09722
 30
0.0
 11
4.48958
 21
0.974012
 31
0.0
  0
LINE
  8
0
 62
     0
 10
4.48958
 20
0.974012
 30
0.0
 11
4.11111
 21
0.812554
 31
0.0
  0
LINE
  8
0
 62
     0
 10
4.11111
 20
0.812554
 30
0.0
 11
3.78125
 21
0.612901
 31
0.0
  0
LINE
  8
0
 62
     0
 10
3.78125
 20
0.612901
 30
0.0
 11
3.5
 21
0.375
 31
0.0
  0
LINE
  8
0
 62
     0
 10
3.5
 20
0.375
 30
0.0
 11
3.41401
 21
0.273438
 31
0.0
  0
LINE
  8
0
 62
     0
 10
3.41401
 20
0.273438
 30
0.0
 11
3.37842
 21
0.190972
 31
0.0
  0
LINE
  8
0
 62
     0
 10
3.37842
 20
0.190972
 30
0.0
 11
3.39318
 21
0.127604
 31
0.0
  0
LINE
  8
0
 62
     0
 10
3.39318
 20
0.127604
 30
0.0
 11
3.45833
 21
0.0833333
 31
0.0
  0
LINE
  8
0
 62
     0
 10
3.45833
 20
0.0833333
 30
0.0
 11
3.59289
 21
0.0625543
 31
0.0
  0
LINE
  8
0
 62
     0
 10
3.59289
 20
0.0625543
 30
0.0
 11
3.78819
 21
0.0694988
 31
0.0
  0
LINE
  8
0
 62
     0
 10
3.78819
 20
0.0694988
 30
0.0
 11
4.04428
 21
0.104221
 31
0.0
  0
LINE
  8
0
 62
     0
 10
4.04428
 20
0.104221
 30
0.0
 11
4.36111
 21
0.166667
 31
0.0
  0
LINE
  8
0
 62
     0
 10
4.36111
 20
0.166667
 30
0.0
 11
5.03618
 21
0.329156
 31
0.0
  0
LINE
  8
0
 62
     0
 10
5.03618
 20
0.329156
 30
0.0
 11
5.68642
 21
0.510906
 31
0.0
  0
LINE
  8
0
 62
     0
 10
5.68642
 20
0.510906
 30
0.0
 11
6.31179
 21
0.711968
 31
0.0
  0
LINE
  8
0
 62
     0
 10
6.31179
 20
0.711968
 30
0.0
 11
6.91233
 21
0.932346
 31
0.0
  0
LINE
  8
0
 62
     0
 10
6.91233
 20
0.932346
 30
0.0
 11
7.48801
 21
1.17204
 31
0.0
  0
LINE
  8
0
 62
     0
 10
7.48801
 20
1.17204
 30
0.0
 11
8.03885
 21
1.43104
 31
0.0
  0
LINE
  8
0
 62
     0
 10
8.03885
 20
1.43104
 30
0.0
 11
8.56483
 21
1.70936
 31
0.0
  0
LINE
  8
0
 62
     0
 10
8.56483
 20
1.70936
 30
0.0
 11
9.06597
 21
2.007
 31
0.0
  0
LINE
  8
0
 62
     0
 10
9.06597
 20
2.007
 30
0.0
 11
9.54226
 21
2.32394
 31
0.0
  0
LINE
  8
0
 62
     0
 10
9.54226
 20
2.32394
 30
0.0
 11
9.99371
 21
2.66021
 31
0.0
  0
LINE
  8
0
 62
     0
 10
9.99371
 20
2.66021
 30
0.0
 11
10.4203
 21
3.01579
 31
0.0
  0
LINE
  8
0
 62
     0
 10
10.4203
 20
3.01579
 30
0.0
 11
10.8221
 21
3.39068
 31
0.0
  0
LINE
  8
0
 62
     0
 10
10.8221
 20
3.39068
 30
0.0
 11
11.1989
 21
3.78489
 31
0.0
  0
LINE
  8
0
 62
     0
 10
11.1989
 20
3.78489
 30
0.0
 11
11.551
 21
4.1984
 31
0.0
  0
LINE
  8
0
 62
     0
 10
11.551
 20
4.1984
 30
0.0
 11
11.8782
 21
4.63124
 31
0.0
  0
LINE
  8
0
 62
     0
 10
11.8782
 20
4.63124
 30
0.0
 11
12.1806
 21
5.08333
 31
0.0
  0
LINE
  8
0
 62
     0
 10
12.1806
 20
5.08333
 30
0.0
 11
12.3453
 21
5.36431
 31
0.0
  0
LINE
  8
0
 62
     0
 10
12.3453
 20
5.36431
 30
0.0
 11
12.482
 21
5.63781
 31
0.0
  0
LINE
  8
0
 62
     0
 10
12.482
 20
5.63781
 30
0.0
 11
12.5906
 21
5.90381
 31
0.0
  0
LINE
  8
0
 62
     0
 10
12.5906
 20
5.90381
 30
0.0
 11
12.671
 21
6.16233
 31
0.0
  0
LINE
  8
0
 62
     0
 10
12.671
 20
6.16233
 30
0.0
 11
12.7234
 21
6.41336
 31
0.0
  0
LINE
  8
0
 62
     0
 10
12.7234
 20
6.41336
 30
0.0
 11
12.7476
 21
6.6569
 31
0.0
  0
LINE
  8
0
 62
     0
 10
12.7476
 20
6.6569
 30
0.0
 11
12.7438
 21
6.89296
 31
0.0
  0
LINE
  8
0
 62
     0
 10
12.7438
 20
6.89296
 30
0.0
 11
12.7118
 21
7.12153
 31
0.0
  0
LINE
  8
0
 62
     0
 10
12.7118
 20
7.12153
 30
0.0
 11
12.6518
 21
7.34267
 31
0.0
  0
LINE
  8
0
 62
     0
 10
12.6518
 20
7.34267
 30
0.0
 11
12.5636
 21
7.55626
 31
0.0
  0
LINE
  8
0
 62
     0
 10
12.5636
 20
7.55626
 30
0.0
 11
12.4473
 21
7.76237
 31
0.0
  0
LINE
  8
0
 62
     0
 10
12.4473
 20
7.76237
 30
0.0
 11
12.303
 21
7.96099
 31
0.0
  0
LINE
  8
0
 62
     0
 10
12.303
 20
7.96099
 30
0.0
 11
12.1305
 21
8.15213
 31
0.0
  0
LINE
  8
0
 62
     0
 10
12.1305
 20
8.15213
 30
0.0
 11
11.9299
 21
8.33578
 31
0.0
  0
LINE
  8
0
 62
     0
 10
11.9299
 20
8.33578
 30
0.0
 11
11.7012
 21
8.51193
 31
0.0
  0
LINE
  8
0
 62
     0
 10
11.7012
 20
8.51193
 30
0.0
 11
11.4444
 21
8.68056
 31
0.0
  0
ENDSEC
  0
EOF
