  0
SECTION
  2
HEADER
  9
$ACADVER
  1
AC1009
  9
$EXTMIN
 10
0.0
 20
0.0
 30
0.0
  9
$EXTMAX
 10
1000.0
 20
1000.0
 30
0.0
  9
$FILLMODE
 70
 0
  9
$SPLFRAME
 70
 1
  0
ENDSEC
  0
SECTION
  2
TABLES
  0
TABLE
  2
LAYER
 70
1
  0
LAYER
  2
0
 70
     0
 62
     7
  6
CONTINUOUS
  0
ENDTAB
  0
ENDSEC
  0
SECTION
  2
ENTITIES
  0
LINE
  8
0
 62
     0
 10
6.47222
 20
-1.16667
 30
0.0
 11
6.51124
 21
-1.22461
 31
0.0
  0
LINE
  8
0
 62
     0
 10
6.51124
 20
-1.22461
 30
0.0
 11
6.57286
 21
-1.26649
 31
0.0
  0
LINE
  8
0
 62
     0
 10
6.57286
 20
-1.26649
 30
0.0
 11
6.65707
 21
-1.29232
 31
0.0
  0
LINE
  8
0
 62
     0
 10
6.65707
 20
-1.29232
 30
0.0
 11
6.76383
 21
-1.30208
 31
0.0
  0
LINE
  8
0
 62
     0
 10
6.76383
 20
-1.30208
 30
0.0
 11
6.89318
 21
-1.29579
 31
0.0
  0
LINE
  8
0
 62
     0
 10
6.89318
 20
-1.29579
 30
0.0
 11
7.04508
 21
-1.27344
 31
0.0
  0
LINE
  8
0
 62
     0
 10
7.04508
 20
-1.27344
 30
0.0
 11
7.21957
 21
-1.23503
 31
0.0
  0
LINE
  8
0
 62
     0
 10
7.21957
 20
-1.23503
 30
0.0
 11
7.41667
 21
-1.18056
 31
0.0
  0
LINE
  8
0
 62
     0
 10
7.41667
 20
-1.18056
 30
0.0
 11
7.61393
 21
-1.11849
 31
0.0
  0
LINE
  8
0
 62
     0
 10
7.61393
 20
-1.11849
 30
0.0
 11
7.78212
 21
-1.05729
 31
0.0
  0
LINE
  8
0
 62
     0
 10
7.78212
 20
-1.05729
 30
0.0
 11
7.92122
 21
-0.996963
 31
0.0
  0
LINE
  8
0
 62
     0
 10
7.92122
 20
-0.996963
 30
0.0
 11
8.03125
 21
-0.9375
 31
0.0
  0
LINE
  8
0
 62
     0
 10
8.03125
 20
-0.9375
 30
0.0
 11
8.11219
 21
-0.878907
 31
0.0
  0
LINE
  8
0
 62
     0
 10
8.11219
 20
-0.878907
 30
0.0
 11
8.16407
 21
-0.821181
 31
0.0
  0
LINE
  8
0
 62
     0
 10
8.16407
 20
-0.821181
 30
0.0
 11
8.18685
 21
-0.764324
 31
0.0
  0
LINE
  8
0
 62
     0
 10
8.18685
 20
-0.764324
 30
0.0
 11
8.18056
 21
-0.708333
 31
0.0
  0
LINE
  8
0
 62
     0
 10
8.18056
 20
-0.708333
 30
0.0
 11
7.60514
 21
0.825575
 31
0.0
  0
LINE
  8
0
 62
     0
 10
7.60514
 20
0.825575
 30
0.0
 11
7.05251
 21
2.32661
 31
0.0
  0
LINE
  8
0
 62
     0
 10
7.05251
 20
2.32661
 30
0.0
 11
6.52268
 21
3.79476
 31
0.0
  0
LINE
  8
0
 62
     0
 10
6.52268
 20
3.79476
 30
0.0
 11
6.01563
 21
5.23008
 31
0.0
  0
LINE
  8
0
 62
     0
 10
6.01563
 20
5.23008
 30
0.0
 11
5.53136
 21
6.63249
 31
0.0
  0
LINE
  8
0
 62
     0
 10
5.53136
 20
6.63249
 30
0.0
 11
5.06988
 21
8.00201
 31
0.0
  0
LINE
  8
0
 62
     0
 10
5.06988
 20
8.00201
 30
0.0
 11
4.63118
 21
9.33865
 31
0.0
  0
LINE
  8
0
 62
     0
 10
4.63118
 20
9.33865
 30
0.0
 11
4.21528
 21
10.6424
 31
0.0
  0
LINE
  8
0
 62
     0
 10
4.21528
 20
10.6424
 30
0.0
 11
3.8221
 21
11.9133
 31
0.0
  0
LINE
  8
0
 62
     0
 10
3.8221
 20
11.9133
 30
0.0
 11
3.45176
 21
13.1513
 31
0.0
  0
LINE
  8
0
 62
     0
 10
3.45176
 20
13.1513
 30
0.0
 11
3.10422
 21
14.3564
 31
0.0
  0
LINE
  8
0
 62
     0
 10
3.10422
 20
14.3564
 30
0.0
 11
2.77946
 21
15.5287
 31
0.0
  0
LINE
  8
0
 62
     0
 10
2.77946
 20
15.5287
 30
0.0
 11
2.47749
 21
16.6681
 31
0.0
  0
LINE
  8
0
 62
     0
 10
2.47749
 20
16.6681
 30
0.0
 11
2.19829
 21
17.7746
 31
0.0
  0
LINE
  8
0
 62
     0
 10
2.19829
 20
17.7746
 30
0.0
 11
1.94189
 21
18.8482
 31
0.0
  0
LINE
  8
0
 62
     0
 10
1.94189
 20
18.8482
 30
0.0
 11
1.70833
 21
19.8889
 31
0.0
  0
LINE
  8
0
 62
     0
 10
1.70833
 20
19.8889
 30
0.0
 11
1.68201
 21
19.944
 31
0.0
  0
LINE
  8
0
 62
     0
 10
1.68201
 20
19.944
 30
0.0
 11
1.63103
 21
19.9844
 31
0.0
  0
LINE
  8
0
 62
     0
 10
1.63103
 20
19.9844
 30
0.0
 11
1.55528
 21
20.01
 31
0.0
  0
LINE
  8
0
 62
     0
 10
1.55528
 20
20.01
 30
0.0
 11
1.45486
 21
20.0208
 31
0.0
  0
LINE
  8
0
 62
     0
 10
1.45486
 20
20.0208
 30
0.0
 11
1.32964
 21
20.0169
 31
0.0
  0
LINE
  8
0
 62
     0
 10
1.32964
 20
20.0169
 30
0.0
 11
1.17969
 21
19.9983
 31
0.0
  0
LINE
  8
0
 62
     0
 10
1.17969
 20
19.9983
 30
0.0
 11
1.00499
 21
19.9649
 31
0.0
  0
LINE
  8
0
 62
     0
 10
1.00499
 20
19.9649
 30
0.0
 11
0.805556
 21
19.9167
 31
0.0
  0
LINE
  8
0
 62
     0
 10
0.805556
 20
19.9167
 30
0.0
 11
0.604601
 21
19.8604
 31
0.0
  0
LINE
  8
0
 62
     0
 10
0.604601
 20
19.8604
 30
0.0
 11
0.432292
 21
19.8029
 31
0.0
  0
LINE
  8
0
 62
     0
 10
0.432292
 20
19.8029
 30
0.0
 11
0.288629
 21
19.744
 31
0.0
  0
LINE
  8
0
 62
     0
 10
0.288629
 20
19.744
 30
0.0
 11
0.173611
 21
19.684
 31
0.0
  0
LINE
  8
0
 62
     0
 10
0.173611
 20
19.684
 30
0.0
 11
0.0871853
 21
19.6225
 31
0.0
  0
LINE
  8
0
 62
     0
 10
0.0871853
 20
19.6225
 30
0.0
 11
0.0294596
 21
19.5599
 31
0.0
  0
LINE
  8
0
 62
     0
 10
0.0294596
 20
19.5599
 30
0.0
 11
0.000379775
 21
19.4958
 31
0.0
  0
LINE
  8
0
 62
     0
 10
0.000379775
 20
19.4958
 30
0.0
 11
0
 21
19.4306
 31
0.0
  0
LINE
  8
0
 62
     0
 10
0
 20
19.4306
 30
0.0
 11
0.233561
 21
18.3914
 31
0.0
  0
LINE
  8
0
 62
     0
 10
0.233561
 20
18.3914
 30
0.0
 11
0.489963
 21
17.3192
 31
0.0
  0
LINE
  8
0
 62
     0
 10
0.489963
 20
17.3192
 30
0.0
 11
0.769151
 21
16.2139
 31
0.0
  0
LINE
  8
0
 62
     0
 10
0.769151
 20
16.2139
 30
0.0
 11
1.07113
 21
15.0756
 31
0.0
  0
LINE
  8
0
 62
     0
 10
1.07113
 20
15.0756
 30
0.0
 11
1.39589
 21
13.904
 31
0.0
  0
LINE
  8
0
 62
     0
 10
1.39589
 20
13.904
 30
0.0
 11
1.74343
 21
12.6994
 31
0.0
  0
LINE
  8
0
 62
     0
 10
1.74343
 20
12.6994
 30
0.0
 11
2.11376
 21
11.4617
 31
0.0
  0
LINE
  8
0
 62
     0
 10
2.11376
 20
11.4617
 30
0.0
 11
2.50694
 21
10.191
 31
0.0
  0
LINE
  8
0
 62
     0
 10
2.50694
 20
10.191
 30
0.0
 11
2.92285
 21
8.8871
 31
0.0
  0
LINE
  8
0
 62
     0
 10
2.92285
 20
8.8871
 30
0.0
 11
3.36154
 21
7.55013
 31
0.0
  0
LINE
  8
0
 62
     0
 10
3.36154
 20
7.55013
 30
0.0
 11
3.82303
 21
6.18007
 31
0.0
  0
LINE
  8
0
 62
     0
 10
3.82303
 20
6.18007
 30
0.0
 11
4.30729
 21
4.77692
 31
0.0
  0
LINE
  8
0
 62
     0
 10
4.30729
 20
4.77692
 30
0.0
 11
4.81435
 21
3.34065
 31
0.0
  0
LINE
  8
0
 62
     0
 10
4.81435
 20
3.34065
 30
0.0
 11
5.34418
 21
1.87131
 31
0.0
  0
LINE
  8
0
 62
     0
 10
5.34418
 20
1.87131
 30
0.0
 11
5.89681
 21
0.368869
 31
0.0
  0
LINE
  8
0
 62
     0
 10
5.89681
 20
0.368869
 30
0.0
 11
6.47222
 21
-1.16667
 31
0.0
  0
ENDSEC
  0
EOF
