  0
SECTION
  2
HEADER
  9
$ACADVER
  1
AC1009
  9
$EXTMIN
 10
0.0
 20
0.0
 30
0.0
  9
$EXTMAX
 10
1000.0
 20
1000.0
 30
0.0
  9
$FILLMODE
 70
 0
  9
$SPLFRAME
 70
 1
  0
ENDSEC
  0
SECTION
  2
TABLES
  0
TABLE
  2
LAYER
 70
1
  0
LAYER
  2
0
 70
     0
 62
     7
  6
CONTINUOUS
  0
ENDTAB
  0
ENDSEC
  0
SECTION
  2
ENTITIES
  0
LINE
  8
0
 62
     0
 10
3.88889
 20
-4.94444
 30
0.0
 11
3.9056
 21
-4.99978
 31
0.0
  0
LINE
  8
0
 62
     0
 10
3.9056
 20
-4.99978
 30
0.0
 11
3.95574
 21
-5.04081
 31
0.0
  0
LINE
  8
0
 62
     0
 10
3.95574
 20
-5.04081
 30
0.0
 11
4.03928
 21
-5.06749
 31
0.0
  0
LINE
  8
0
 62
     0
 10
4.03928
 20
-5.06749
 30
0.0
 11
4.15625
 21
-5.07986
 31
0.0
  0
LINE
  8
0
 62
     0
 10
4.15625
 20
-5.07986
 30
0.0
 11
4.30664
 21
-5.0779
 31
0.0
  0
LINE
  8
0
 62
     0
 10
4.30664
 20
-5.0779
 30
0.0
 11
4.49046
 21
-5.06164
 31
0.0
  0
LINE
  8
0
 62
     0
 10
4.49046
 20
-5.06164
 30
0.0
 11
4.70768
 21
-5.03103
 31
0.0
  0
LINE
  8
0
 62
     0
 10
4.70768
 20
-5.03103
 30
0.0
 11
4.95833
 21
-4.98611
 31
0.0
  0
LINE
  8
0
 62
     0
 10
4.95833
 20
-4.98611
 30
0.0
 11
5.20893
 21
-4.9279
 31
0.0
  0
LINE
  8
0
 62
     0
 10
5.20893
 20
-4.9279
 30
0.0
 11
5.42617
 21
-4.86453
 31
0.0
  0
LINE
  8
0
 62
     0
 10
5.42617
 20
-4.86453
 30
0.0
 11
5.60997
 21
-4.79596
 31
0.0
  0
LINE
  8
0
 62
     0
 10
5.60997
 20
-4.79596
 30
0.0
 11
5.76036
 21
-4.72222
 31
0.0
  0
LINE
  8
0
 62
     0
 10
5.76036
 20
-4.72222
 30
0.0
 11
5.87733
 21
-4.64324
 31
0.0
  0
LINE
  8
0
 62
     0
 10
5.87733
 20
-4.64324
 30
0.0
 11
5.96089
 21
-4.55903
 31
0.0
  0
LINE
  8
0
 62
     0
 10
5.96089
 20
-4.55903
 30
0.0
 11
6.01101
 21
-4.46962
 31
0.0
  0
LINE
  8
0
 62
     0
 10
6.01101
 20
-4.46962
 30
0.0
 11
6.02778
 21
-4.375
 31
0.0
  0
LINE
  8
0
 62
     0
 10
6.02778
 20
-4.375
 30
0.0
 11
6.02778
 21
23.2639
 31
0.0
  0
LINE
  8
0
 62
     0
 10
6.02778
 20
23.2639
 30
0.0
 11
6.01101
 21
23.3224
 31
0.0
  0
LINE
  8
0
 62
     0
 10
6.01101
 20
23.3224
 30
0.0
 11
5.96089
 21
23.3656
 31
0.0
  0
LINE
  8
0
 62
     0
 10
5.96089
 20
23.3656
 30
0.0
 11
5.87733
 21
23.3935
 31
0.0
  0
LINE
  8
0
 62
     0
 10
5.87733
 20
23.3935
 30
0.0
 11
5.76036
 21
23.4063
 31
0.0
  0
LINE
  8
0
 62
     0
 10
5.76036
 20
23.4063
 30
0.0
 11
5.60997
 21
23.4039
 31
0.0
  0
LINE
  8
0
 62
     0
 10
5.60997
 20
23.4039
 30
0.0
 11
5.42617
 21
23.3864
 31
0.0
  0
LINE
  8
0
 62
     0
 10
5.42617
 20
23.3864
 30
0.0
 11
5.20893
 21
23.3536
 31
0.0
  0
LINE
  8
0
 62
     0
 10
5.20893
 20
23.3536
 30
0.0
 11
4.95833
 21
23.3056
 31
0.0
  0
LINE
  8
0
 62
     0
 10
4.95833
 20
23.3056
 30
0.0
 11
4.70768
 21
23.2504
 31
0.0
  0
LINE
  8
0
 62
     0
 10
4.70768
 20
23.2504
 30
0.0
 11
4.49046
 21
23.1893
 31
0.0
  0
LINE
  8
0
 62
     0
 10
4.49046
 20
23.1893
 30
0.0
 11
4.30664
 21
23.1219
 31
0.0
  0
LINE
  8
0
 62
     0
 10
4.30664
 20
23.1219
 30
0.0
 11
4.15625
 21
23.0486
 31
0.0
  0
LINE
  8
0
 62
     0
 10
4.15625
 20
23.0486
 30
0.0
 11
4.03928
 21
22.9692
 31
0.0
  0
LINE
  8
0
 62
     0
 10
4.03928
 20
22.9692
 30
0.0
 11
3.95574
 21
22.8838
 31
0.0
  0
LINE
  8
0
 62
     0
 10
3.95574
 20
22.8838
 30
0.0
 11
3.9056
 21
22.7921
 31
0.0
  0
LINE
  8
0
 62
     0
 10
3.9056
 20
22.7921
 30
0.0
 11
3.88889
 21
22.6944
 31
0.0
  0
LINE
  8
0
 62
     0
 10
3.88889
 20
22.6944
 30
0.0
 11
3.88889
 21
-4.94444
 31
0.0
  0
ENDSEC
  0
EOF
