  0
SECTION
  2
HEADER
  9
$ACADVER
  1
AC1009
  9
$EXTMIN
 10
0.0
 20
0.0
 30
0.0
  9
$EXTMAX
 10
1000.0
 20
1000.0
 30
0.0
  9
$FILLMODE
 70
 0
  9
$SPLFRAME
 70
 1
  0
ENDSEC
  0
SECTION
  2
TABLES
  0
TABLE
  2
LAYER
 70
1
  0
LAYER
  2
0
 70
     0
 62
     7
  6
CONTINUOUS
  0
ENDTAB
  0
ENDSEC
  0
SECTION
  2
ENTITIES
  0
LINE
  8
0
 62
     0
 10
6.69444
 20
-1.79167
 30
0.0
 11
6.17486
 21
-1.84457
 31
0.0
  0
LINE
  8
0
 62
     0
 10
6.17486
 20
-1.84457
 30
0.0
 11
5.68571
 21
-1.87842
 31
0.0
  0
LINE
  8
0
 62
     0
 10
5.68571
 20
-1.87842
 30
0.0
 11
5.22694
 21
-1.89318
 31
0.0
  0
LINE
  8
0
 62
     0
 10
5.22694
 20
-1.89318
 30
0.0
 11
4.79856
 21
-1.88883
 31
0.0
  0
LINE
  8
0
 62
     0
 10
4.79856
 20
-1.88883
 30
0.0
 11
4.40056
 21
-1.8654
 31
0.0
  0
LINE
  8
0
 62
     0
 10
4.40056
 20
-1.8654
 30
0.0
 11
4.03293
 21
-1.82286
 31
0.0
  0
LINE
  8
0
 62
     0
 10
4.03293
 20
-1.82286
 30
0.0
 11
3.69569
 21
-1.76124
 31
0.0
  0
LINE
  8
0
 62
     0
 10
3.69569
 20
-1.76124
 30
0.0
 11
3.38889
 21
-1.68056
 31
0.0
  0
LINE
  8
0
 62
     0
 10
3.38889
 20
-1.68056
 30
0.0
 11
3.10872
 21
-1.56185
 31
0.0
  0
LINE
  8
0
 62
     0
 10
3.10872
 20
-1.56185
 30
0.0
 11
2.86546
 21
-1.39324
 31
0.0
  0
LINE
  8
0
 62
     0
 10
2.86546
 20
-1.39324
 30
0.0
 11
2.65907
 21
-1.1747
 31
0.0
  0
LINE
  8
0
 62
     0
 10
2.65907
 20
-1.1747
 30
0.0
 11
2.48958
 21
-0.90625
 31
0.0
  0
LINE
  8
0
 62
     0
 10
2.48958
 20
-0.90625
 30
0.0
 11
2.35699
 21
-0.58789
 31
0.0
  0
LINE
  8
0
 62
     0
 10
2.35699
 20
-0.58789
 30
0.0
 11
2.26129
 21
-0.219618
 31
0.0
  0
LINE
  8
0
 62
     0
 10
2.26129
 20
-0.219618
 30
0.0
 11
2.20247
 21
0.198568
 31
0.0
  0
LINE
  8
0
 62
     0
 10
2.20247
 20
0.198568
 30
0.0
 11
2.18056
 21
0.666667
 31
0.0
  0
LINE
  8
0
 62
     0
 10
2.18056
 20
0.666667
 30
0.0
 11
2.1875
 21
1
 31
0.0
  0
LINE
  8
0
 62
     0
 10
2.1875
 20
1
 30
0.0
 11
2.20833
 21
1.38889
 31
0.0
  0
LINE
  8
0
 62
     0
 10
2.20833
 20
1.38889
 30
0.0
 11
2.24306
 21
1.83333
 31
0.0
  0
LINE
  8
0
 62
     0
 10
2.24306
 20
1.83333
 30
0.0
 11
2.29167
 21
2.33333
 31
0.0
  0
LINE
  8
0
 62
     0
 10
2.29167
 20
2.33333
 30
0.0
 11
2.32113
 21
2.60851
 31
0.0
  0
LINE
  8
0
 62
     0
 10
2.32113
 20
2.60851
 30
0.0
 11
2.34717
 21
2.85764
 31
0.0
  0
LINE
  8
0
 62
     0
 10
2.34717
 20
2.85764
 30
0.0
 11
2.36974
 21
3.08074
 31
0.0
  0
LINE
  8
0
 62
     0
 10
2.36974
 20
3.08074
 30
0.0
 11
2.38883
 21
3.27778
 31
0.0
  0
LINE
  8
0
 62
     0
 10
2.38883
 20
3.27778
 30
0.0
 11
2.40446
 21
3.44883
 31
0.0
  0
LINE
  8
0
 62
     0
 10
2.40446
 20
3.44883
 30
0.0
 11
2.41661
 21
3.59381
 31
0.0
  0
LINE
  8
0
 62
     0
 10
2.41661
 20
3.59381
 30
0.0
 11
2.42529
 21
3.71272
 31
0.0
  0
LINE
  8
0
 62
     0
 10
2.42529
 20
3.71272
 30
0.0
 11
2.43056
 21
3.80556
 31
0.0
  0
LINE
  8
0
 62
     0
 10
2.43056
 20
3.80556
 30
0.0
 11
2.46929
 21
5.48867
 31
0.0
  0
LINE
  8
0
 62
     0
 10
2.46929
 20
5.48867
 30
0.0
 11
2.50217
 21
7.09353
 31
0.0
  0
LINE
  8
0
 62
     0
 10
2.50217
 20
7.09353
 30
0.0
 11
2.52919
 21
8.62017
 31
0.0
  0
LINE
  8
0
 62
     0
 10
2.52919
 20
8.62017
 30
0.0
 11
2.55035
 21
10.0686
 31
0.0
  0
LINE
  8
0
 62
     0
 10
2.55035
 20
10.0686
 30
0.0
 11
2.56565
 21
11.4388
 31
0.0
  0
LINE
  8
0
 62
     0
 10
2.56565
 20
11.4388
 30
0.0
 11
2.57508
 21
12.7307
 31
0.0
  0
LINE
  8
0
 62
     0
 10
2.57508
 20
12.7307
 30
0.0
 11
2.57867
 21
13.9444
 31
0.0
  0
LINE
  8
0
 62
     0
 10
2.57867
 20
13.9444
 30
0.0
 11
2.57639
 21
15.0799
 31
0.0
  0
LINE
  8
0
 62
     0
 10
2.57639
 20
15.0799
 30
0.0
 11
2.56825
 21
16.1371
 31
0.0
  0
LINE
  8
0
 62
     0
 10
2.56825
 20
16.1371
 30
0.0
 11
2.55425
 21
17.1161
 31
0.0
  0
LINE
  8
0
 62
     0
 10
2.55425
 20
17.1161
 30
0.0
 11
2.5344
 21
18.0168
 31
0.0
  0
LINE
  8
0
 62
     0
 10
2.5344
 20
18.0168
 30
0.0
 11
2.50868
 21
18.8394
 31
0.0
  0
LINE
  8
0
 62
     0
 10
2.50868
 20
18.8394
 30
0.0
 11
2.47711
 21
19.5838
 31
0.0
  0
LINE
  8
0
 62
     0
 10
2.47711
 20
19.5838
 30
0.0
 11
2.43967
 21
20.2497
 31
0.0
  0
LINE
  8
0
 62
     0
 10
2.43967
 20
20.2497
 30
0.0
 11
2.39638
 21
20.8376
 31
0.0
  0
LINE
  8
0
 62
     0
 10
2.39638
 20
20.8376
 30
0.0
 11
2.34722
 21
21.3472
 31
0.0
  0
LINE
  8
0
 62
     0
 10
2.34722
 20
21.3472
 30
0.0
 11
2.942
 21
21.2396
 31
0.0
  0
LINE
  8
0
 62
     0
 10
2.942
 20
21.2396
 30
0.0
 11
3.46263
 21
21.1458
 31
0.0
  0
LINE
  8
0
 62
     0
 10
3.46263
 20
21.1458
 30
0.0
 11
3.90901
 21
21.066
 31
0.0
  0
LINE
  8
0
 62
     0
 10
3.90901
 20
21.066
 30
0.0
 11
4.28125
 21
21
 31
0.0
  0
LINE
  8
0
 62
     0
 10
4.28125
 20
21
 30
0.0
 11
4.57921
 21
20.9479
 31
0.0
  0
LINE
  8
0
 62
     0
 10
4.57921
 20
20.9479
 30
0.0
 11
4.80296
 21
20.9097
 31
0.0
  0
LINE
  8
0
 62
     0
 10
4.80296
 20
20.9097
 30
0.0
 11
4.95247
 21
20.8854
 31
0.0
  0
LINE
  8
0
 62
     0
 10
4.95247
 20
20.8854
 30
0.0
 11
5.02778
 21
20.875
 31
0.0
  0
LINE
  8
0
 62
     0
 10
5.02778
 20
20.875
 30
0.0
 11
5.24001
 21
20.8521
 31
0.0
  0
LINE
  8
0
 62
     0
 10
5.24001
 20
20.8521
 30
0.0
 11
5.43924
 21
20.8594
 31
0.0
  0
LINE
  8
0
 62
     0
 10
5.43924
 20
20.8594
 30
0.0
 11
5.62543
 21
20.8972
 31
0.0
  0
LINE
  8
0
 62
     0
 10
5.62543
 20
20.8972
 30
0.0
 11
5.79861
 21
20.9653
 31
0.0
  0
LINE
  8
0
 62
     0
 10
5.79861
 20
20.9653
 30
0.0
 11
5.95876
 21
21.0639
 31
0.0
  0
LINE
  8
0
 62
     0
 10
5.95876
 20
21.0639
 30
0.0
 11
6.1059
 21
21.1928
 31
0.0
  0
LINE
  8
0
 62
     0
 10
6.1059
 20
21.1928
 30
0.0
 11
6.24001
 21
21.3521
 31
0.0
  0
LINE
  8
0
 62
     0
 10
6.24001
 20
21.3521
 30
0.0
 11
6.36111
 21
21.5417
 31
0.0
  0
LINE
  8
0
 62
     0
 10
6.36111
 20
21.5417
 30
0.0
 11
6.43229
 21
21.704
 31
0.0
  0
LINE
  8
0
 62
     0
 10
6.43229
 20
21.704
 30
0.0
 11
6.46528
 21
21.8576
 31
0.0
  0
LINE
  8
0
 62
     0
 10
6.46528
 20
21.8576
 30
0.0
 11
6.46007
 21
22.0026
 31
0.0
  0
LINE
  8
0
 62
     0
 10
6.46007
 20
22.0026
 30
0.0
 11
6.41667
 21
22.1389
 31
0.0
  0
LINE
  8
0
 62
     0
 10
6.41667
 20
22.1389
 30
0.0
 11
6.31858
 21
22.2717
 31
0.0
  0
LINE
  8
0
 62
     0
 10
6.31858
 20
22.2717
 30
0.0
 11
6.17708
 21
22.3785
 31
0.0
  0
LINE
  8
0
 62
     0
 10
6.17708
 20
22.3785
 30
0.0
 11
5.99219
 21
22.4592
 31
0.0
  0
LINE
  8
0
 62
     0
 10
5.99219
 20
22.4592
 30
0.0
 11
5.76389
 21
22.5139
 31
0.0
  0
LINE
  8
0
 62
     0
 10
5.76389
 20
22.5139
 30
0.0
 11
5.6026
 21
22.5412
 31
0.0
  0
LINE
  8
0
 62
     0
 10
5.6026
 20
22.5412
 30
0.0
 11
5.41054
 21
22.5747
 31
0.0
  0
LINE
  8
0
 62
     0
 10
5.41054
 20
22.5747
 30
0.0
 11
5.18767
 21
22.6142
 31
0.0
  0
LINE
  8
0
 62
     0
 10
5.18767
 20
22.6142
 30
0.0
 11
4.93397
 21
22.6597
 31
0.0
  0
LINE
  8
0
 62
     0
 10
4.93397
 20
22.6597
 30
0.0
 11
4.64947
 21
22.7114
 31
0.0
  0
LINE
  8
0
 62
     0
 10
4.64947
 20
22.7114
 30
0.0
 11
4.33415
 21
22.7692
 31
0.0
  0
LINE
  8
0
 62
     0
 10
4.33415
 20
22.7692
 30
0.0
 11
3.98801
 21
22.8329
 31
0.0
  0
LINE
  8
0
 62
     0
 10
3.98801
 20
22.8329
 30
0.0
 11
3.61111
 21
22.9028
 31
0.0
  0
LINE
  8
0
 62
     0
 10
3.61111
 20
22.9028
 30
0.0
 11
2.97131
 21
23.0192
 31
0.0
  0
LINE
  8
0
 62
     0
 10
2.97131
 20
23.0192
 30
0.0
 11
2.39931
 21
23.1181
 31
0.0
  0
LINE
  8
0
 62
     0
 10
2.39931
 20
23.1181
 30
0.0
 11
1.89497
 21
23.1997
 31
0.0
  0
LINE
  8
0
 62
     0
 10
1.89497
 20
23.1997
 30
0.0
 11
1.45833
 21
23.2639
 31
0.0
  0
LINE
  8
0
 62
     0
 10
1.45833
 20
23.2639
 30
0.0
 11
1.19184
 21
23.2804
 31
0.0
  0
LINE
  8
0
 62
     0
 10
1.19184
 20
23.2804
 30
0.0
 11
0.934028
 21
23.2465
 31
0.0
  0
LINE
  8
0
 62
     0
 10
0.934028
 20
23.2465
 30
0.0
 11
0.684896
 21
23.1624
 31
0.0
  0
LINE
  8
0
 62
     0
 10
0.684896
 20
23.1624
 30
0.0
 11
0.444444
 21
23.0278
 31
0.0
  0
LINE
  8
0
 62
     0
 10
0.444444
 20
23.0278
 30
0.0
 11
0.223904
 21
22.8481
 31
0.0
  0
LINE
  8
0
 62
     0
 10
0.223904
 20
22.8481
 30
0.0
 11
0.0763889
 21
22.6424
 31
0.0
  0
LINE
  8
0
 62
     0
 10
0.0763889
 20
22.6424
 30
0.0
 11
0.00173611
 21
22.4106
 31
0.0
  0
LINE
  8
0
 62
     0
 10
0.00173611
 20
22.4106
 30
0.0
 11
0
 21
22.1528
 31
0.0
  0
LINE
  8
0
 62
     0
 10
0
 20
22.1528
 30
0.0
 11
0.153646
 21
20.9554
 31
0.0
  0
LINE
  8
0
 62
     0
 10
0.153646
 20
20.9554
 30
0.0
 11
0.28125
 21
19.6893
 31
0.0
  0
LINE
  8
0
 62
     0
 10
0.28125
 20
19.6893
 30
0.0
 11
0.382813
 21
18.3547
 31
0.0
  0
LINE
  8
0
 62
     0
 10
0.382813
 20
18.3547
 30
0.0
 11
0.458333
 21
16.9514
 31
0.0
  0
LINE
  8
0
 62
     0
 10
0.458333
 20
16.9514
 30
0.0
 11
0.507813
 21
15.4797
 31
0.0
  0
LINE
  8
0
 62
     0
 10
0.507813
 20
15.4797
 30
0.0
 11
0.53125
 21
13.9393
 31
0.0
  0
LINE
  8
0
 62
     0
 10
0.53125
 20
13.9393
 30
0.0
 11
0.528646
 21
12.3303
 31
0.0
  0
LINE
  8
0
 62
     0
 10
0.528646
 20
12.3303
 30
0.0
 11
0.5
 21
10.6528
 31
0.0
  0
LINE
  8
0
 62
     0
 10
0.5
 20
10.6528
 30
0.0
 11
0.495985
 21
10.5065
 31
0.0
  0
LINE
  8
0
 62
     0
 10
0.495985
 20
10.5065
 30
0.0
 11
0.490886
 21
10.3316
 31
0.0
  0
LINE
  8
0
 62
     0
 10
0.490886
 20
10.3316
 30
0.0
 11
0.4847
 21
10.128
 31
0.0
  0
LINE
  8
0
 62
     0
 10
0.4847
 20
10.128
 30
0.0
 11
0.477431
 21
9.89583
 31
0.0
  0
LINE
  8
0
 62
     0
 10
0.477431
 20
9.89583
 30
0.0
 11
0.469075
 21
9.63499
 31
0.0
  0
LINE
  8
0
 62
     0
 10
0.469075
 20
9.63499
 30
0.0
 11
0.459636
 21
9.34549
 31
0.0
  0
LINE
  8
0
 62
     0
 10
0.459636
 20
9.34549
 30
0.0
 11
0.44911
 21
9.02735
 31
0.0
  0
LINE
  8
0
 62
     0
 10
0.44911
 20
9.02735
 30
0.0
 11
0.4375
 21
8.68056
 31
0.0
  0
LINE
  8
0
 62
     0
 10
0.4375
 20
8.68056
 30
0.0
 11
0.424804
 21
8.30518
 31
0.0
  0
LINE
  8
0
 62
     0
 10
0.424804
 20
8.30518
 30
0.0
 11
0.411025
 21
7.9011
 31
0.0
  0
LINE
  8
0
 62
     0
 10
0.411025
 20
7.9011
 30
0.0
 11
0.396158
 21
7.46838
 31
0.0
  0
LINE
  8
0
 62
     0
 10
0.396158
 20
7.46838
 30
0.0
 11
0.380208
 21
7.007
 31
0.0
  0
LINE
  8
0
 62
     0
 10
0.380208
 20
7.007
 30
0.0
 11
0.363172
 21
6.51699
 31
0.0
  0
LINE
  8
0
 62
     0
 10
0.363172
 20
6.51699
 30
0.0
 11
0.345053
 21
5.99832
 31
0.0
  0
LINE
  8
0
 62
     0
 10
0.345053
 20
5.99832
 30
0.0
 11
0.325846
 21
5.45101
 31
0.0
  0
LINE
  8
0
 62
     0
 10
0.325846
 20
5.45101
 30
0.0
 11
0.305556
 21
4.875
 31
0.0
  0
LINE
  8
0
 62
     0
 10
0.305556
 20
4.875
 30
0.0
 11
0.276042
 21
4.01329
 31
0.0
  0
LINE
  8
0
 62
     0
 10
0.276042
 20
4.01329
 30
0.0
 11
0.25
 21
3.19189
 31
0.0
  0
LINE
  8
0
 62
     0
 10
0.25
 20
3.19189
 30
0.0
 11
0.227431
 21
2.41086
 31
0.0
  0
LINE
  8
0
 62
     0
 10
0.227431
 20
2.41086
 30
0.0
 11
0.208333
 21
1.67014
 31
0.0
  0
LINE
  8
0
 62
     0
 10
0.208333
 20
1.67014
 30
0.0
 11
0.192708
 21
0.969835
 31
0.0
  0
LINE
  8
0
 62
     0
 10
0.192708
 20
0.969835
 30
0.0
 11
0.180556
 21
0.309896
 31
0.0
  0
LINE
  8
0
 62
     0
 10
0.180556
 20
0.309896
 30
0.0
 11
0.171875
 21
-0.309679
 31
0.0
  0
LINE
  8
0
 62
     0
 10
0.171875
 20
-0.309679
 30
0.0
 11
0.166667
 21
-0.888889
 31
0.0
  0
LINE
  8
0
 62
     0
 10
0.166667
 20
-0.888889
 30
0.0
 11
0.181153
 21
-1.19868
 31
0.0
  0
LINE
  8
0
 62
     0
 10
0.181153
 20
-1.19868
 30
0.0
 11
0.224772
 21
-1.48915
 31
0.0
  0
LINE
  8
0
 62
     0
 10
0.224772
 20
-1.48915
 30
0.0
 11
0.297472
 21
-1.76031
 31
0.0
  0
LINE
  8
0
 62
     0
 10
0.297472
 20
-1.76031
 30
0.0
 11
0.399251
 21
-2.01215
 31
0.0
  0
LINE
  8
0
 62
     0
 10
0.399251
 20
-2.01215
 30
0.0
 11
0.530111
 21
-2.24468
 31
0.0
  0
LINE
  8
0
 62
     0
 10
0.530111
 20
-2.24468
 30
0.0
 11
0.69005
 21
-2.4579
 31
0.0
  0
LINE
  8
0
 62
     0
 10
0.69005
 20
-2.4579
 30
0.0
 11
0.879069
 21
-2.65181
 31
0.0
  0
LINE
  8
0
 62
     0
 10
0.879069
 20
-2.65181
 30
0.0
 11
1.09717
 21
-2.82639
 31
0.0
  0
LINE
  8
0
 62
     0
 10
1.09717
 20
-2.82639
 30
0.0
 11
1.34435
 21
-2.98167
 31
0.0
  0
LINE
  8
0
 62
     0
 10
1.34435
 20
-2.98167
 30
0.0
 11
1.62061
 21
-3.11762
 31
0.0
  0
LINE
  8
0
 62
     0
 10
1.62061
 20
-3.11762
 30
0.0
 11
1.92594
 21
-3.23426
 31
0.0
  0
LINE
  8
0
 62
     0
 10
1.92594
 20
-3.23426
 30
0.0
 11
2.26036
 21
-3.3316
 31
0.0
  0
LINE
  8
0
 62
     0
 10
2.26036
 20
-3.3316
 30
0.0
 11
2.62386
 21
-3.40961
 31
0.0
  0
LINE
  8
0
 62
     0
 10
2.62386
 20
-3.40961
 30
0.0
 11
3.01644
 21
-3.46832
 31
0.0
  0
LINE
  8
0
 62
     0
 10
3.01644
 20
-3.46832
 30
0.0
 11
3.4381
 21
-3.50771
 31
0.0
  0
LINE
  8
0
 62
     0
 10
3.4381
 20
-3.50771
 30
0.0
 11
3.88889
 21
-3.52778
 31
0.0
  0
LINE
  8
0
 62
     0
 10
3.88889
 20
-3.52778
 30
0.0
 11
4.15207
 21
-3.52821
 31
0.0
  0
LINE
  8
0
 62
     0
 10
4.15207
 20
-3.52821
 30
0.0
 11
4.44874
 21
-3.52257
 31
0.0
  0
LINE
  8
0
 62
     0
 10
4.44874
 20
-3.52257
 30
0.0
 11
4.77881
 21
-3.51085
 31
0.0
  0
LINE
  8
0
 62
     0
 10
4.77881
 20
-3.51085
 30
0.0
 11
5.14231
 21
-3.49306
 31
0.0
  0
LINE
  8
0
 62
     0
 10
5.14231
 20
-3.49306
 30
0.0
 11
5.53922
 21
-3.46918
 31
0.0
  0
LINE
  8
0
 62
     0
 10
5.53922
 20
-3.46918
 30
0.0
 11
5.96957
 21
-3.43924
 31
0.0
  0
LINE
  8
0
 62
     0
 10
5.96957
 20
-3.43924
 30
0.0
 11
6.43332
 21
-3.40321
 31
0.0
  0
LINE
  8
0
 62
     0
 10
6.43332
 20
-3.40321
 30
0.0
 11
6.93056
 21
-3.36111
 31
0.0
  0
LINE
  8
0
 62
     0
 10
6.93056
 20
-3.36111
 30
0.0
 11
7.36604
 21
-3.32314
 31
0.0
  0
LINE
  8
0
 62
     0
 10
7.36604
 20
-3.32314
 30
0.0
 11
7.76297
 21
-3.29254
 31
0.0
  0
LINE
  8
0
 62
     0
 10
7.76297
 20
-3.29254
 30
0.0
 11
8.12125
 21
-3.26932
 31
0.0
  0
LINE
  8
0
 62
     0
 10
8.12125
 20
-3.26932
 30
0.0
 11
8.44092
 21
-3.25347
 31
0.0
  0
LINE
  8
0
 62
     0
 10
8.44092
 20
-3.25347
 30
0.0
 11
8.72194
 21
-3.24501
 31
0.0
  0
LINE
  8
0
 62
     0
 10
8.72194
 20
-3.24501
 30
0.0
 11
8.96436
 21
-3.24393
 31
0.0
  0
LINE
  8
0
 62
     0
 10
8.96436
 20
-3.24393
 30
0.0
 11
9.16812
 21
-3.25022
 31
0.0
  0
LINE
  8
0
 62
     0
 10
9.16812
 20
-3.25022
 30
0.0
 11
9.33333
 21
-3.26389
 31
0.0
  0
LINE
  8
0
 62
     0
 10
9.33333
 20
-3.26389
 30
0.0
 11
9.54557
 21
-3.27408
 31
0.0
  0
LINE
  8
0
 62
     0
 10
9.54557
 20
-3.27408
 30
0.0
 11
9.74479
 21
-3.25608
 31
0.0
  0
LINE
  8
0
 62
     0
 10
9.74479
 20
-3.25608
 30
0.0
 11
9.93099
 21
-3.20985
 31
0.0
  0
LINE
  8
0
 62
     0
 10
9.93099
 20
-3.20985
 30
0.0
 11
10.1042
 21
-3.13542
 31
0.0
  0
LINE
  8
0
 62
     0
 10
10.1042
 20
-3.13542
 30
0.0
 11
10.2643
 21
-3.03276
 31
0.0
  0
LINE
  8
0
 62
     0
 10
10.2643
 20
-3.03276
 30
0.0
 11
10.4115
 21
-2.90192
 31
0.0
  0
LINE
  8
0
 62
     0
 10
10.4115
 20
-2.90192
 30
0.0
 11
10.5456
 21
-2.74283
 31
0.0
  0
LINE
  8
0
 62
     0
 10
10.5456
 20
-2.74283
 30
0.0
 11
10.6667
 21
-2.55556
 31
0.0
  0
LINE
  8
0
 62
     0
 10
10.6667
 20
-2.55556
 30
0.0
 11
10.7378
 21
-2.39324
 31
0.0
  0
LINE
  8
0
 62
     0
 10
10.7378
 20
-2.39324
 30
0.0
 11
10.7708
 21
-2.23958
 31
0.0
  0
LINE
  8
0
 62
     0
 10
10.7708
 20
-2.23958
 30
0.0
 11
10.7656
 21
-2.09463
 31
0.0
  0
LINE
  8
0
 62
     0
 10
10.7656
 20
-2.09463
 30
0.0
 11
10.7222
 21
-1.95833
 31
0.0
  0
LINE
  8
0
 62
     0
 10
10.7222
 20
-1.95833
 30
0.0
 11
10.6233
 21
-1.83247
 31
0.0
  0
LINE
  8
0
 62
     0
 10
10.6233
 20
-1.83247
 30
0.0
 11
10.4792
 21
-1.73264
 31
0.0
  0
LINE
  8
0
 62
     0
 10
10.4792
 20
-1.73264
 30
0.0
 11
10.2899
 21
-1.65881
 31
0.0
  0
LINE
  8
0
 62
     0
 10
10.2899
 20
-1.65881
 30
0.0
 11
10.0556
 21
-1.61111
 31
0.0
  0
LINE
  8
0
 62
     0
 10
10.0556
 20
-1.61111
 30
0.0
 11
9.81158
 21
-1.59261
 31
0.0
  0
LINE
  8
0
 62
     0
 10
9.81158
 20
-1.59261
 30
0.0
 11
9.51731
 21
-1.58589
 31
0.0
  0
LINE
  8
0
 62
     0
 10
9.51731
 20
-1.58589
 30
0.0
 11
9.17269
 21
-1.59088
 31
0.0
  0
LINE
  8
0
 62
     0
 10
9.17269
 20
-1.59088
 30
0.0
 11
8.77772
 21
-1.60764
 31
0.0
  0
LINE
  8
0
 62
     0
 10
8.77772
 20
-1.60764
 30
0.0
 11
8.33242
 21
-1.63607
 31
0.0
  0
LINE
  8
0
 62
     0
 10
8.33242
 20
-1.63607
 30
0.0
 11
7.83675
 21
-1.67622
 31
0.0
  0
LINE
  8
0
 62
     0
 10
7.83675
 20
-1.67622
 30
0.0
 11
7.29075
 21
-1.72808
 31
0.0
  0
LINE
  8
0
 62
     0
 10
7.29075
 20
-1.72808
 30
0.0
 11
6.69444
 21
-1.79167
 31
0.0
  0
ENDSEC
  0
EOF
