  0
SECTION
  2
HEADER
  9
$ACADVER
  1
AC1009
  9
$EXTMIN
 10
0.0
 20
0.0
 30
0.0
  9
$EXTMAX
 10
1000.0
 20
1000.0
 30
0.0
  9
$FILLMODE
 70
 0
  9
$SPLFRAME
 70
 1
  0
ENDSEC
  0
SECTION
  2
TABLES
  0
TABLE
  2
LAYER
 70
1
  0
LAYER
  2
0
 70
     0
 62
     7
  6
CONTINUOUS
  0
ENDTAB
  0
ENDSEC
  0
SECTION
  2
ENTITIES
  0
LINE
  8
0
 62
     0
 10
2.59722
 20
22.0556
 30
0.0
 11
2.0236
 21
21.9672
 31
0.0
  0
LINE
  8
0
 62
     0
 10
2.0236
 20
21.9672
 30
0.0
 11
1.51818
 21
21.8897
 31
0.0
  0
LINE
  8
0
 62
     0
 10
1.51818
 20
21.8897
 30
0.0
 11
1.08089
 21
21.8232
 31
0.0
  0
LINE
  8
0
 62
     0
 10
1.08089
 20
21.8232
 30
0.0
 11
0.711751
 21
21.7674
 31
0.0
  0
LINE
  8
0
 62
     0
 10
0.711751
 20
21.7674
 30
0.0
 11
0.410753
 21
21.7225
 31
0.0
  0
LINE
  8
0
 62
     0
 10
0.410753
 20
21.7225
 30
0.0
 11
0.177897
 21
21.6883
 31
0.0
  0
LINE
  8
0
 62
     0
 10
0.177897
 20
21.6883
 30
0.0
 11
0.0131836
 21
21.6651
 31
0.0
  0
LINE
  8
0
 62
     0
 10
0.0131836
 20
21.6651
 30
0.0
 11
-0.0833333
 21
21.6528
 31
0.0
  0
LINE
  8
0
 62
     0
 10
-0.0833333
 20
21.6528
 30
0.0
 11
-0.416721
 21
21.5806
 31
0.0
  0
LINE
  8
0
 62
     0
 10
-0.416721
 20
21.5806
 30
0.0
 11
-0.694499
 21
21.4615
 31
0.0
  0
LINE
  8
0
 62
     0
 10
-0.694499
 20
21.4615
 30
0.0
 11
-0.916721
 21
21.2958
 31
0.0
  0
LINE
  8
0
 62
     0
 10
-0.916721
 20
21.2958
 30
0.0
 11
-1.08333
 21
21.0833
 31
0.0
  0
LINE
  8
0
 62
     0
 10
-1.08333
 20
21.0833
 30
0.0
 11
-1.12847
 21
20.9922
 31
0.0
  0
LINE
  8
0
 62
     0
 10
-1.12847
 20
20.9922
 30
0.0
 11
-1.13889
 21
20.9132
 31
0.0
  0
LINE
  8
0
 62
     0
 10
-1.13889
 20
20.9132
 30
0.0
 11
-1.11458
 21
20.8464
 31
0.0
  0
LINE
  8
0
 62
     0
 10
-1.11458
 20
20.8464
 30
0.0
 11
-1.05556
 21
20.7917
 31
0.0
  0
LINE
  8
0
 62
     0
 10
-1.05556
 20
20.7917
 30
0.0
 11
-0.952257
 21
20.7465
 31
0.0
  0
LINE
  8
0
 62
     0
 10
-0.952257
 20
20.7465
 30
0.0
 11
-0.809028
 21
20.7222
 31
0.0
  0
LINE
  8
0
 62
     0
 10
-0.809028
 20
20.7222
 30
0.0
 11
-0.625868
 21
20.7188
 31
0.0
  0
LINE
  8
0
 62
     0
 10
-0.625868
 20
20.7188
 30
0.0
 11
-0.402778
 21
20.7361
 31
0.0
  0
LINE
  8
0
 62
     0
 10
-0.402778
 20
20.7361
 30
0.0
 11
-0.2602
 21
20.7562
 31
0.0
  0
LINE
  8
0
 62
     0
 10
-0.2602
 20
20.7562
 30
0.0
 11
-0.0824653
 21
20.7821
 31
0.0
  0
LINE
  8
0
 62
     0
 10
-0.0824653
 20
20.7821
 30
0.0
 11
0.130425
 21
20.8136
 31
0.0
  0
LINE
  8
0
 62
     0
 10
0.130425
 20
20.8136
 30
0.0
 11
0.378472
 21
20.8507
 31
0.0
  0
LINE
  8
0
 62
     0
 10
0.378472
 20
20.8507
 30
0.0
 11
0.661675
 21
20.8935
 31
0.0
  0
LINE
  8
0
 62
     0
 10
0.661675
 20
20.8935
 30
0.0
 11
0.980035
 21
20.9418
 31
0.0
  0
LINE
  8
0
 62
     0
 10
0.980035
 20
20.9418
 30
0.0
 11
1.33355
 21
20.9958
 31
0.0
  0
LINE
  8
0
 62
     0
 10
1.33355
 20
20.9958
 30
0.0
 11
1.72222
 21
21.0556
 31
0.0
  0
LINE
  8
0
 62
     0
 10
1.72222
 20
21.0556
 30
0.0
 11
2.34978
 21
21.1519
 31
0.0
  0
LINE
  8
0
 62
     0
 10
2.34978
 20
21.1519
 30
0.0
 11
2.91314
 21
21.2326
 31
0.0
  0
LINE
  8
0
 62
     0
 10
2.91314
 20
21.2326
 30
0.0
 11
3.41228
 21
21.2978
 31
0.0
  0
LINE
  8
0
 62
     0
 10
3.41228
 20
21.2978
 30
0.0
 11
3.84722
 21
21.3472
 31
0.0
  0
LINE
  8
0
 62
     0
 10
3.84722
 20
21.3472
 30
0.0
 11
3.62896
 21
19.4842
 31
0.0
  0
LINE
  8
0
 62
     0
 10
3.62896
 20
19.4842
 30
0.0
 11
3.43251
 21
17.6863
 31
0.0
  0
LINE
  8
0
 62
     0
 10
3.43251
 20
17.6863
 30
0.0
 11
3.25786
 21
15.9538
 31
0.0
  0
LINE
  8
0
 62
     0
 10
3.25786
 20
15.9538
 30
0.0
 11
3.10504
 21
14.2865
 31
0.0
  0
LINE
  8
0
 62
     0
 10
3.10504
 20
14.2865
 30
0.0
 11
2.97401
 21
12.6846
 31
0.0
  0
LINE
  8
0
 62
     0
 10
2.97401
 20
12.6846
 30
0.0
 11
2.86481
 21
11.1481
 31
0.0
  0
LINE
  8
0
 62
     0
 10
2.86481
 20
11.1481
 30
0.0
 11
2.7774
 21
9.67681
 31
0.0
  0
LINE
  8
0
 62
     0
 10
2.7774
 20
9.67681
 30
0.0
 11
2.71181
 21
8.27089
 31
0.0
  0
LINE
  8
0
 62
     0
 10
2.71181
 20
8.27089
 30
0.0
 11
2.66803
 21
6.93028
 31
0.0
  0
LINE
  8
0
 62
     0
 10
2.66803
 20
6.93028
 30
0.0
 11
2.64606
 21
5.655
 31
0.0
  0
LINE
  8
0
 62
     0
 10
2.64606
 20
5.655
 30
0.0
 11
2.64589
 21
4.44504
 31
0.0
  0
LINE
  8
0
 62
     0
 10
2.64589
 20
4.44504
 30
0.0
 11
2.66754
 21
3.3004
 31
0.0
  0
LINE
  8
0
 62
     0
 10
2.66754
 20
3.3004
 30
0.0
 11
2.71099
 21
2.22108
 31
0.0
  0
LINE
  8
0
 62
     0
 10
2.71099
 20
2.22108
 30
0.0
 11
2.77626
 21
1.20709
 31
0.0
  0
LINE
  8
0
 62
     0
 10
2.77626
 20
1.20709
 30
0.0
 11
2.86333
 21
0.25841
 31
0.0
  0
LINE
  8
0
 62
     0
 10
2.86333
 20
0.25841
 30
0.0
 11
2.97222
 21
-0.625
 31
0.0
  0
LINE
  8
0
 62
     0
 10
2.97222
 20
-0.625
 30
0.0
 11
2.76346
 21
-0.66466
 31
0.0
  0
LINE
  8
0
 62
     0
 10
2.76346
 20
-0.66466
 30
0.0
 11
2.50521
 21
-0.707411
 31
0.0
  0
LINE
  8
0
 62
     0
 10
2.50521
 20
-0.707411
 30
0.0
 11
2.19749
 21
-0.753201
 31
0.0
  0
LINE
  8
0
 62
     0
 10
2.19749
 20
-0.753201
 30
0.0
 11
1.84028
 21
-0.802029
 31
0.0
  0
LINE
  8
0
 62
     0
 10
1.84028
 20
-0.802029
 30
0.0
 11
1.43354
 21
-0.853896
 31
0.0
  0
LINE
  8
0
 62
     0
 10
1.43354
 20
-0.853896
 30
0.0
 11
0.977376
 21
-0.9088
 31
0.0
  0
LINE
  8
0
 62
     0
 10
0.977376
 20
-0.9088
 30
0.0
 11
0.471733
 21
-0.966743
 31
0.0
  0
LINE
  8
0
 62
     0
 10
0.471733
 20
-0.966743
 30
0.0
 11
-0.0833333
 21
-1.02778
 31
0.0
  0
LINE
  8
0
 62
     0
 10
-0.0833333
 20
-1.02778
 30
0.0
 11
-0.417589
 21
-1.08762
 31
0.0
  0
LINE
  8
0
 62
     0
 10
-0.417589
 20
-1.08762
 30
0.0
 11
-0.697971
 21
-1.19786
 31
0.0
  0
LINE
  8
0
 62
     0
 10
-0.697971
 20
-1.19786
 30
0.0
 11
-0.924533
 21
-1.35845
 31
0.0
  0
LINE
  8
0
 62
     0
 10
-0.924533
 20
-1.35845
 30
0.0
 11
-1.09722
 21
-1.56944
 31
0.0
  0
LINE
  8
0
 62
     0
 10
-1.09722
 20
-1.56944
 30
0.0
 11
-1.13628
 21
-1.66054
 31
0.0
  0
LINE
  8
0
 62
     0
 10
-1.13628
 20
-1.66054
 30
0.0
 11
-1.14236
 21
-1.73953
 31
0.0
  0
LINE
  8
0
 62
     0
 10
-1.14236
 20
-1.73953
 30
0.0
 11
-1.11545
 21
-1.80638
 31
0.0
  0
LINE
  8
0
 62
     0
 10
-1.11545
 20
-1.80638
 30
0.0
 11
-1.05556
 21
-1.86111
 31
0.0
  0
LINE
  8
0
 62
     0
 10
-1.05556
 20
-1.86111
 30
0.0
 11
-0.952257
 21
-1.91233
 31
0.0
  0
LINE
  8
0
 62
     0
 10
-0.952257
 20
-1.91233
 30
0.0
 11
-0.809028
 21
-1.94097
 31
0.0
  0
LINE
  8
0
 62
     0
 10
-0.809028
 20
-1.94097
 30
0.0
 11
-0.625868
 21
-1.94706
 31
0.0
  0
LINE
  8
0
 62
     0
 10
-0.625868
 20
-1.94706
 30
0.0
 11
-0.402778
 21
-1.93056
 31
0.0
  0
LINE
  8
0
 62
     0
 10
-0.402778
 20
-1.93056
 30
0.0
 11
0.360678
 21
-1.84608
 31
0.0
  0
LINE
  8
0
 62
     0
 10
0.360678
 20
-1.84608
 30
0.0
 11
1.06771
 21
-1.7595
 31
0.0
  0
LINE
  8
0
 62
     0
 10
1.06771
 20
-1.7595
 30
0.0
 11
1.71832
 21
-1.67074
 31
0.0
  0
LINE
  8
0
 62
     0
 10
1.71832
 20
-1.67074
 30
0.0
 11
2.3125
 21
-1.57981
 31
0.0
  0
LINE
  8
0
 62
     0
 10
2.3125
 20
-1.57981
 30
0.0
 11
2.85026
 21
-1.48671
 31
0.0
  0
LINE
  8
0
 62
     0
 10
2.85026
 20
-1.48671
 30
0.0
 11
3.3316
 21
-1.39144
 31
0.0
  0
LINE
  8
0
 62
     0
 10
3.3316
 20
-1.39144
 30
0.0
 11
3.75651
 21
-1.294
 31
0.0
  0
LINE
  8
0
 62
     0
 10
3.75651
 20
-1.294
 30
0.0
 11
4.125
 21
-1.19444
 31
0.0
  0
LINE
  8
0
 62
     0
 10
4.125
 20
-1.19444
 30
0.0
 11
4.34543
 21
-1.12326
 31
0.0
  0
LINE
  8
0
 62
     0
 10
4.34543
 20
-1.12326
 30
0.0
 11
4.53467
 21
-1.04861
 31
0.0
  0
LINE
  8
0
 62
     0
 10
4.53467
 20
-1.04861
 30
0.0
 11
4.69265
 21
-0.970486
 31
0.0
  0
LINE
  8
0
 62
     0
 10
4.69265
 20
-0.970486
 30
0.0
 11
4.81944
 21
-0.888889
 31
0.0
  0
LINE
  8
0
 62
     0
 10
4.81944
 20
-0.888889
 30
0.0
 11
4.91493
 21
-0.803819
 31
0.0
  0
LINE
  8
0
 62
     0
 10
4.91493
 20
-0.803819
 30
0.0
 11
4.97917
 21
-0.715278
 31
0.0
  0
LINE
  8
0
 62
     0
 10
4.97917
 20
-0.715278
 30
0.0
 11
5.01215
 21
-0.623264
 31
0.0
  0
LINE
  8
0
 62
     0
 10
5.01215
 20
-0.623264
 30
0.0
 11
5.01389
 21
-0.527778
 31
0.0
  0
LINE
  8
0
 62
     0
 10
5.01389
 20
-0.527778
 30
0.0
 11
4.84131
 21
0.727268
 31
0.0
  0
LINE
  8
0
 62
     0
 10
4.84131
 20
0.727268
 30
0.0
 11
4.70568
 21
2.02696
 31
0.0
  0
LINE
  8
0
 62
     0
 10
4.70568
 20
2.02696
 30
0.0
 11
4.60693
 21
3.37136
 31
0.0
  0
LINE
  8
0
 62
     0
 10
4.60693
 20
3.37136
 30
0.0
 11
4.54508
 21
4.76047
 31
0.0
  0
LINE
  8
0
 62
     0
 10
4.54508
 20
4.76047
 30
0.0
 11
4.52013
 21
6.19428
 31
0.0
  0
LINE
  8
0
 62
     0
 10
4.52013
 20
6.19428
 30
0.0
 11
4.53207
 21
7.67279
 31
0.0
  0
LINE
  8
0
 62
     0
 10
4.53207
 20
7.67279
 30
0.0
 11
4.58089
 21
9.19601
 31
0.0
  0
LINE
  8
0
 62
     0
 10
4.58089
 20
9.19601
 30
0.0
 11
4.66667
 21
10.7639
 31
0.0
  0
LINE
  8
0
 62
     0
 10
4.66667
 20
10.7639
 30
0.0
 11
4.69407
 21
11.1514
 31
0.0
  0
LINE
  8
0
 62
     0
 10
4.69407
 20
11.1514
 30
0.0
 11
4.72765
 21
11.581
 31
0.0
  0
LINE
  8
0
 62
     0
 10
4.72765
 20
11.581
 30
0.0
 11
4.76742
 21
12.0528
 31
0.0
  0
LINE
  8
0
 62
     0
 10
4.76742
 20
12.0528
 30
0.0
 11
4.81337
 21
12.5669
 31
0.0
  0
LINE
  8
0
 62
     0
 10
4.81337
 20
12.5669
 30
0.0
 11
4.8655
 21
13.1232
 31
0.0
  0
LINE
  8
0
 62
     0
 10
4.8655
 20
13.1232
 30
0.0
 11
4.92383
 21
13.7216
 31
0.0
  0
LINE
  8
0
 62
     0
 10
4.92383
 20
13.7216
 30
0.0
 11
4.98833
 21
14.3624
 31
0.0
  0
LINE
  8
0
 62
     0
 10
4.98833
 20
14.3624
 30
0.0
 11
5.05903
 21
15.0451
 31
0.0
  0
LINE
  8
0
 62
     0
 10
5.05903
 20
15.0451
 30
0.0
 11
5.1359
 21
15.7703
 31
0.0
  0
LINE
  8
0
 62
     0
 10
5.1359
 20
15.7703
 30
0.0
 11
5.21897
 21
16.5376
 31
0.0
  0
LINE
  8
0
 62
     0
 10
5.21897
 20
16.5376
 30
0.0
 11
5.30821
 21
17.3471
 31
0.0
  0
LINE
  8
0
 62
     0
 10
5.30821
 20
17.3471
 30
0.0
 11
5.40365
 21
18.1989
 31
0.0
  0
LINE
  8
0
 62
     0
 10
5.40365
 20
18.1989
 30
0.0
 11
5.50526
 21
19.0928
 31
0.0
  0
LINE
  8
0
 62
     0
 10
5.50526
 20
19.0928
 30
0.0
 11
5.61307
 21
20.0289
 31
0.0
  0
LINE
  8
0
 62
     0
 10
5.61307
 20
20.0289
 30
0.0
 11
5.72706
 21
21.0072
 31
0.0
  0
LINE
  8
0
 62
     0
 10
5.72706
 20
21.0072
 30
0.0
 11
5.84722
 21
22.0278
 31
0.0
  0
LINE
  8
0
 62
     0
 10
5.84722
 20
22.0278
 30
0.0
 11
5.85047
 21
22.1118
 31
0.0
  0
LINE
  8
0
 62
     0
 10
5.85047
 20
22.1118
 30
0.0
 11
5.83247
 21
22.1832
 31
0.0
  0
LINE
  8
0
 62
     0
 10
5.83247
 20
22.1832
 30
0.0
 11
5.79318
 21
22.2419
 31
0.0
  0
LINE
  8
0
 62
     0
 10
5.79318
 20
22.2419
 30
0.0
 11
5.73264
 21
22.2882
 31
0.0
  0
LINE
  8
0
 62
     0
 10
5.73264
 20
22.2882
 30
0.0
 11
5.65082
 21
22.3218
 31
0.0
  0
LINE
  8
0
 62
     0
 10
5.65082
 20
22.3218
 30
0.0
 11
5.54775
 21
22.3429
 31
0.0
  0
LINE
  8
0
 62
     0
 10
5.54775
 20
22.3429
 30
0.0
 11
5.42339
 21
22.3514
 31
0.0
  0
LINE
  8
0
 62
     0
 10
5.42339
 20
22.3514
 30
0.0
 11
5.27778
 21
22.3472
 31
0.0
  0
LINE
  8
0
 62
     0
 10
5.27778
 20
22.3472
 30
0.0
 11
4.70921
 21
22.3133
 31
0.0
  0
LINE
  8
0
 62
     0
 10
4.70921
 20
22.3133
 30
0.0
 11
4.07292
 21
22.2535
 31
0.0
  0
LINE
  8
0
 62
     0
 10
4.07292
 20
22.2535
 30
0.0
 11
3.36888
 21
22.1675
 31
0.0
  0
LINE
  8
0
 62
     0
 10
3.36888
 20
22.1675
 30
0.0
 11
2.59722
 21
22.0556
 31
0.0
  0
ENDSEC
  0
EOF
