  0
SECTION
  2
HEADER
  9
$ACADVER
  1
AC1009
  9
$EXTMIN
 10
0.0
 20
0.0
 30
0.0
  9
$EXTMAX
 10
1000.0
 20
1000.0
 30
0.0
  9
$FILLMODE
 70
 0
  9
$SPLFRAME
 70
 1
  0
ENDSEC
  0
SECTION
  2
TABLES
  0
TABLE
  2
LAYER
 70
1
  0
LAYER
  2
0
 70
     0
 62
     7
  6
CONTINUOUS
  0
ENDTAB
  0
ENDSEC
  0
SECTION
  2
ENTITIES
  0
LINE
  8
0
 62
     0
 10
7.98611
 20
10.2778
 30
0.0
 11
7.66644
 21
10.4345
 31
0.0
  0
LINE
  8
0
 62
     0
 10
7.66644
 20
10.4345
 30
0.0
 11
7.34636
 21
10.5573
 31
0.0
  0
LINE
  8
0
 62
     0
 10
7.34636
 20
10.5573
 30
0.0
 11
7.02582
 21
10.6463
 31
0.0
  0
LINE
  8
0
 62
     0
 10
7.02582
 20
10.6463
 30
0.0
 11
6.70486
 21
10.7014
 31
0.0
  0
LINE
  8
0
 62
     0
 10
6.70486
 20
10.7014
 30
0.0
 11
6.38346
 21
10.7227
 31
0.0
  0
LINE
  8
0
 62
     0
 10
6.38346
 20
10.7227
 30
0.0
 11
6.06164
 21
10.7101
 31
0.0
  0
LINE
  8
0
 62
     0
 10
6.06164
 20
10.7101
 30
0.0
 11
5.73936
 21
10.6637
 31
0.0
  0
LINE
  8
0
 62
     0
 10
5.73936
 20
10.6637
 30
0.0
 11
5.41667
 21
10.5833
 31
0.0
  0
LINE
  8
0
 62
     0
 10
5.41667
 20
10.5833
 30
0.0
 11
5.18918
 21
10.4991
 31
0.0
  0
LINE
  8
0
 62
     0
 10
5.18918
 20
10.4991
 30
0.0
 11
4.97911
 21
10.3992
 31
0.0
  0
LINE
  8
0
 62
     0
 10
4.97911
 20
10.3992
 30
0.0
 11
4.7864
 21
10.2839
 31
0.0
  0
LINE
  8
0
 62
     0
 10
4.7864
 20
10.2839
 30
0.0
 11
4.61111
 21
10.1528
 31
0.0
  0
LINE
  8
0
 62
     0
 10
4.61111
 20
10.1528
 30
0.0
 11
4.44265
 21
10.1346
 31
0.0
  0
LINE
  8
0
 62
     0
 10
4.44265
 20
10.1346
 30
0.0
 11
4.28467
 21
10.0938
 31
0.0
  0
LINE
  8
0
 62
     0
 10
4.28467
 20
10.0938
 30
0.0
 11
4.1371
 21
10.0304
 31
0.0
  0
LINE
  8
0
 62
     0
 10
4.1371
 20
10.0304
 30
0.0
 11
4
 21
9.94444
 31
0.0
  0
LINE
  8
0
 62
     0
 10
4
 20
9.94444
 30
0.0
 11
3.875
 21
9.829
 31
0.0
  0
LINE
  8
0
 62
     0
 10
3.875
 20
9.829
 30
0.0
 11
3.79167
 21
9.70486
 31
0.0
  0
LINE
  8
0
 62
     0
 10
3.79167
 20
9.70486
 30
0.0
 11
3.75
 21
9.57206
 31
0.0
  0
LINE
  8
0
 62
     0
 10
3.75
 20
9.57206
 30
0.0
 11
3.75
 21
9.43056
 31
0.0
  0
LINE
  8
0
 62
     0
 10
3.75
 20
9.43056
 30
0.0
 11
3.82633
 21
8.99653
 31
0.0
  0
LINE
  8
0
 62
     0
 10
3.82633
 20
8.99653
 30
0.0
 11
3.91667
 21
8.58333
 31
0.0
  0
LINE
  8
0
 62
     0
 10
3.91667
 20
8.58333
 30
0.0
 11
3.92594
 21
8.27718
 31
0.0
  0
LINE
  8
0
 62
     0
 10
3.92594
 20
8.27718
 30
0.0
 11
3.96089
 21
7.96272
 31
0.0
  0
LINE
  8
0
 62
     0
 10
3.96089
 20
7.96272
 30
0.0
 11
4.02143
 21
7.64003
 31
0.0
  0
LINE
  8
0
 62
     0
 10
4.02143
 20
7.64003
 30
0.0
 11
4.10758
 21
7.30908
 31
0.0
  0
LINE
  8
0
 62
     0
 10
4.10758
 20
7.30908
 30
0.0
 11
4.21935
 21
6.96989
 31
0.0
  0
LINE
  8
0
 62
     0
 10
4.21935
 20
6.96989
 30
0.0
 11
4.35672
 21
6.62244
 31
0.0
  0
LINE
  8
0
 62
     0
 10
4.35672
 20
6.62244
 30
0.0
 11
4.51969
 21
6.26676
 31
0.0
  0
LINE
  8
0
 62
     0
 10
4.51969
 20
6.26676
 30
0.0
 11
4.70833
 21
5.90278
 31
0.0
  0
LINE
  8
0
 62
     0
 10
4.70833
 20
5.90278
 30
0.0
 11
4.78125
 21
5.8099
 31
0.0
  0
LINE
  8
0
 62
     0
 10
4.78125
 20
5.8099
 30
0.0
 11
4.875
 21
5.73958
 31
0.0
  0
LINE
  8
0
 62
     0
 10
4.875
 20
5.73958
 30
0.0
 11
4.98958
 21
5.69185
 31
0.0
  0
LINE
  8
0
 62
     0
 10
4.98958
 20
5.69185
 30
0.0
 11
5.125
 21
5.66667
 31
0.0
  0
LINE
  8
0
 62
     0
 10
5.125
 20
5.66667
 30
0.0
 11
5.3724
 21
5.34315
 31
0.0
  0
LINE
  8
0
 62
     0
 10
5.3724
 20
5.34315
 30
0.0
 11
5.63542
 21
5.053
 31
0.0
  0
LINE
  8
0
 62
     0
 10
5.63542
 20
5.053
 30
0.0
 11
5.91407
 21
4.79628
 31
0.0
  0
LINE
  8
0
 62
     0
 10
5.91407
 20
4.79628
 30
0.0
 11
6.20833
 21
4.57297
 31
0.0
  0
LINE
  8
0
 62
     0
 10
6.20833
 20
4.57297
 30
0.0
 11
6.51824
 21
4.38308
 31
0.0
  0
LINE
  8
0
 62
     0
 10
6.51824
 20
4.38308
 30
0.0
 11
6.84375
 21
4.22661
 31
0.0
  0
LINE
  8
0
 62
     0
 10
6.84375
 20
4.22661
 30
0.0
 11
7.1849
 21
4.10357
 31
0.0
  0
LINE
  8
0
 62
     0
 10
7.1849
 20
4.10357
 30
0.0
 11
7.54167
 21
4.01389
 31
0.0
  0
LINE
  8
0
 62
     0
 10
7.54167
 20
4.01389
 30
0.0
 11
7.91228
 21
3.96012
 31
0.0
  0
LINE
  8
0
 62
     0
 10
7.91228
 20
3.96012
 30
0.0
 11
8.27425
 21
3.95144
 31
0.0
  0
LINE
  8
0
 62
     0
 10
8.27425
 20
3.95144
 30
0.0
 11
8.62756
 21
3.9879
 31
0.0
  0
LINE
  8
0
 62
     0
 10
8.62756
 20
3.9879
 30
0.0
 11
8.97222
 21
4.06944
 31
0.0
  0
LINE
  8
0
 62
     0
 10
8.97222
 20
4.06944
 30
0.0
 11
9.32726
 21
4.21268
 31
0.0
  0
LINE
  8
0
 62
     0
 10
9.32726
 20
4.21268
 30
0.0
 11
9.62847
 21
4.40625
 31
0.0
  0
LINE
  8
0
 62
     0
 10
9.62847
 20
4.40625
 30
0.0
 11
9.87587
 21
4.65018
 31
0.0
  0
LINE
  8
0
 62
     0
 10
9.87587
 20
4.65018
 30
0.0
 11
10.0694
 21
4.94444
 31
0.0
  0
LINE
  8
0
 62
     0
 10
10.0694
 20
4.94444
 30
0.0
 11
10.2378
 21
5.329
 31
0.0
  0
LINE
  8
0
 62
     0
 10
10.2378
 20
5.329
 30
0.0
 11
10.3402
 21
5.74653
 31
0.0
  0
LINE
  8
0
 62
     0
 10
10.3402
 20
5.74653
 30
0.0
 11
10.3767
 21
6.19706
 31
0.0
  0
LINE
  8
0
 62
     0
 10
10.3767
 20
6.19706
 30
0.0
 11
10.3472
 21
6.68056
 31
0.0
  0
LINE
  8
0
 62
     0
 10
10.3472
 20
6.68056
 30
0.0
 11
10.2717
 21
7.10508
 31
0.0
  0
LINE
  8
0
 62
     0
 10
10.2717
 20
7.10508
 30
0.0
 11
10.1563
 21
7.53131
 31
0.0
  0
LINE
  8
0
 62
     0
 10
10.1563
 20
7.53131
 30
0.0
 11
10.0009
 21
7.95925
 31
0.0
  0
LINE
  8
0
 62
     0
 10
10.0009
 20
7.95925
 30
0.0
 11
9.80556
 21
8.38889
 31
0.0
  0
LINE
  8
0
 62
     0
 10
9.80556
 20
8.38889
 30
0.0
 11
9.64035
 21
8.68881
 31
0.0
  0
LINE
  8
0
 62
     0
 10
9.64035
 20
8.68881
 30
0.0
 11
9.45742
 21
8.97049
 31
0.0
  0
LINE
  8
0
 62
     0
 10
9.45742
 20
8.97049
 30
0.0
 11
9.25667
 21
9.23394
 31
0.0
  0
LINE
  8
0
 62
     0
 10
9.25667
 20
9.23394
 30
0.0
 11
9.03814
 21
9.47917
 31
0.0
  0
LINE
  8
0
 62
     0
 10
9.03814
 20
9.47917
 30
0.0
 11
8.80181
 21
9.70622
 31
0.0
  0
LINE
  8
0
 62
     0
 10
8.80181
 20
9.70622
 30
0.0
 11
8.54769
 21
9.91499
 31
0.0
  0
LINE
  8
0
 62
     0
 10
8.54769
 20
9.91499
 30
0.0
 11
8.27576
 21
10.1055
 31
0.0
  0
LINE
  8
0
 62
     0
 10
8.27576
 20
10.1055
 30
0.0
 11
7.98611
 21
10.2778
 31
0.0
  0
ENDSEC
  0
EOF
