  0
SECTION
  2
HEADER
  9
$ACADVER
  1
AC1009
  9
$EXTMIN
 10
0.0
 20
0.0
 30
0.0
  9
$EXTMAX
 10
1000.0
 20
1000.0
 30
0.0
  9
$FILLMODE
 70
 0
  9
$SPLFRAME
 70
 1
  0
ENDSEC
  0
SECTION
  2
TABLES
  0
TABLE
  2
LAYER
 70
1
  0
LAYER
  2
0
 70
     0
 62
     7
  6
CONTINUOUS
  0
ENDTAB
  0
ENDSEC
  0
SECTION
  2
ENTITIES
  0
LINE
  8
0
 62
     0
 10
6.56944
 20
2.33333
 30
0.0
 11
6.12022
 21
2.46419
 31
0.0
  0
LINE
  8
0
 62
     0
 10
6.12022
 20
2.46419
 30
0.0
 11
5.69982
 21
2.62397
 31
0.0
  0
LINE
  8
0
 62
     0
 10
5.69982
 20
2.62397
 30
0.0
 11
5.30817
 21
2.81272
 31
0.0
  0
LINE
  8
0
 62
     0
 10
5.30817
 20
2.81272
 30
0.0
 11
4.94526
 21
3.03043
 31
0.0
  0
LINE
  8
0
 62
     0
 10
4.94526
 20
3.03043
 30
0.0
 11
4.61111
 21
3.27713
 31
0.0
  0
LINE
  8
0
 62
     0
 10
4.61111
 20
3.27713
 30
0.0
 11
4.30572
 21
3.55279
 31
0.0
  0
LINE
  8
0
 62
     0
 10
4.30572
 20
3.55279
 30
0.0
 11
4.02908
 21
3.85742
 31
0.0
  0
LINE
  8
0
 62
     0
 10
4.02908
 20
3.85742
 30
0.0
 11
3.78119
 21
4.19097
 31
0.0
  0
LINE
  8
0
 62
     0
 10
3.78119
 20
4.19097
 30
0.0
 11
3.56207
 21
4.55354
 31
0.0
  0
LINE
  8
0
 62
     0
 10
3.56207
 20
4.55354
 30
0.0
 11
3.37169
 21
4.9451
 31
0.0
  0
LINE
  8
0
 62
     0
 10
3.37169
 20
4.9451
 30
0.0
 11
3.21007
 21
5.36561
 31
0.0
  0
LINE
  8
0
 62
     0
 10
3.21007
 20
5.36561
 30
0.0
 11
3.07721
 21
5.81511
 31
0.0
  0
LINE
  8
0
 62
     0
 10
3.07721
 20
5.81511
 30
0.0
 11
2.9731
 21
6.29357
 31
0.0
  0
LINE
  8
0
 62
     0
 10
2.9731
 20
6.29357
 30
0.0
 11
2.89774
 21
6.801
 31
0.0
  0
LINE
  8
0
 62
     0
 10
2.89774
 20
6.801
 30
0.0
 11
2.85113
 21
7.3374
 31
0.0
  0
LINE
  8
0
 62
     0
 10
2.85113
 20
7.3374
 30
0.0
 11
2.83333
 21
7.90278
 31
0.0
  0
LINE
  8
0
 62
     0
 10
2.83333
 20
7.90278
 30
0.0
 11
2.83968
 21
8.44194
 31
0.0
  0
LINE
  8
0
 62
     0
 10
2.83968
 20
8.44194
 30
0.0
 11
2.86914
 21
8.96918
 31
0.0
  0
LINE
  8
0
 62
     0
 10
2.86914
 20
8.96918
 30
0.0
 11
2.92171
 21
9.48449
 31
0.0
  0
LINE
  8
0
 62
     0
 10
2.92171
 20
9.48449
 30
0.0
 11
2.9974
 21
9.98785
 31
0.0
  0
LINE
  8
0
 62
     0
 10
2.9974
 20
9.98785
 30
0.0
 11
3.09619
 21
10.4793
 31
0.0
  0
LINE
  8
0
 62
     0
 10
3.09619
 20
10.4793
 30
0.0
 11
3.2181
 21
10.9588
 31
0.0
  0
LINE
  8
0
 62
     0
 10
3.2181
 20
10.9588
 30
0.0
 11
3.36313
 21
11.4263
 31
0.0
  0
LINE
  8
0
 62
     0
 10
3.36313
 20
11.4263
 30
0.0
 11
3.53125
 21
11.8819
 31
0.0
  0
LINE
  8
0
 62
     0
 10
3.53125
 20
11.8819
 30
0.0
 11
3.7225
 21
12.3256
 31
0.0
  0
LINE
  8
0
 62
     0
 10
3.7225
 20
12.3256
 30
0.0
 11
3.93685
 21
12.7574
 31
0.0
  0
LINE
  8
0
 62
     0
 10
3.93685
 20
12.7574
 30
0.0
 11
4.17432
 21
13.1772
 31
0.0
  0
LINE
  8
0
 62
     0
 10
4.17432
 20
13.1772
 30
0.0
 11
4.4349
 21
13.5851
 31
0.0
  0
LINE
  8
0
 62
     0
 10
4.4349
 20
13.5851
 30
0.0
 11
4.71858
 21
13.981
 31
0.0
  0
LINE
  8
0
 62
     0
 10
4.71858
 20
13.981
 30
0.0
 11
5.02539
 21
14.365
 31
0.0
  0
LINE
  8
0
 62
     0
 10
5.02539
 20
14.365
 30
0.0
 11
5.35531
 21
14.7371
 31
0.0
  0
LINE
  8
0
 62
     0
 10
5.35531
 20
14.7371
 30
0.0
 11
5.70833
 21
15.0972
 31
0.0
  0
LINE
  8
0
 62
     0
 10
5.70833
 20
15.0972
 30
0.0
 11
6.07667
 21
15.4381
 31
0.0
  0
LINE
  8
0
 62
     0
 10
6.07667
 20
15.4381
 30
0.0
 11
6.45611
 21
15.7554
 31
0.0
  0
LINE
  8
0
 62
     0
 10
6.45611
 20
15.7554
 30
0.0
 11
6.84663
 21
16.0496
 31
0.0
  0
LINE
  8
0
 62
     0
 10
6.84663
 20
16.0496
 30
0.0
 11
7.24821
 21
16.3203
 31
0.0
  0
LINE
  8
0
 62
     0
 10
7.24821
 20
16.3203
 30
0.0
 11
7.66086
 21
16.5678
 31
0.0
  0
LINE
  8
0
 62
     0
 10
7.66086
 20
16.5678
 30
0.0
 11
8.08458
 21
16.7919
 31
0.0
  0
LINE
  8
0
 62
     0
 10
8.08458
 20
16.7919
 30
0.0
 11
8.51938
 21
16.9926
 31
0.0
  0
LINE
  8
0
 62
     0
 10
8.51938
 20
16.9926
 30
0.0
 11
8.96528
 21
17.1701
 31
0.0
  0
LINE
  8
0
 62
     0
 10
8.96528
 20
17.1701
 30
0.0
 11
9.42219
 21
17.3243
 31
0.0
  0
LINE
  8
0
 62
     0
 10
9.42219
 20
17.3243
 30
0.0
 11
9.89019
 21
17.4551
 31
0.0
  0
LINE
  8
0
 62
     0
 10
9.89019
 20
17.4551
 30
0.0
 11
10.3693
 21
17.5625
 31
0.0
  0
LINE
  8
0
 62
     0
 10
10.3693
 20
17.5625
 30
0.0
 11
10.8594
 21
17.6467
 31
0.0
  0
LINE
  8
0
 62
     0
 10
10.8594
 20
17.6467
 30
0.0
 11
11.3606
 21
17.7075
 31
0.0
  0
LINE
  8
0
 62
     0
 10
11.3606
 20
17.7075
 30
0.0
 11
11.8728
 21
17.745
 31
0.0
  0
LINE
  8
0
 62
     0
 10
11.8728
 20
17.745
 30
0.0
 11
12.3962
 21
17.7592
 31
0.0
  0
LINE
  8
0
 62
     0
 10
12.3962
 20
17.7592
 30
0.0
 11
12.9306
 21
17.75
 31
0.0
  0
LINE
  8
0
 62
     0
 10
12.9306
 20
17.75
 30
0.0
 11
13.2048
 21
17.764
 31
0.0
  0
LINE
  8
0
 62
     0
 10
13.2048
 20
17.764
 30
0.0
 11
13.4583
 21
17.8197
 31
0.0
  0
LINE
  8
0
 62
     0
 10
13.4583
 20
17.8197
 30
0.0
 11
13.691
 21
17.9169
 31
0.0
  0
LINE
  8
0
 62
     0
 10
13.691
 20
17.9169
 30
0.0
 11
13.9028
 21
18.0556
 31
0.0
  0
LINE
  8
0
 62
     0
 10
13.9028
 20
18.0556
 30
0.0
 11
14.0703
 21
18.2101
 31
0.0
  0
LINE
  8
0
 62
     0
 10
14.0703
 20
18.2101
 30
0.0
 11
14.1979
 21
18.3819
 31
0.0
  0
LINE
  8
0
 62
     0
 10
14.1979
 20
18.3819
 30
0.0
 11
14.2856
 21
18.5713
 31
0.0
  0
LINE
  8
0
 62
     0
 10
14.2856
 20
18.5713
 30
0.0
 11
14.3333
 21
18.7778
 31
0.0
  0
LINE
  8
0
 62
     0
 10
14.3333
 20
18.7778
 30
0.0
 11
14.3454
 21
18.9924
 31
0.0
  0
LINE
  8
0
 62
     0
 10
14.3454
 20
18.9924
 30
0.0
 11
14.3125
 21
19.1911
 31
0.0
  0
LINE
  8
0
 62
     0
 10
14.3125
 20
19.1911
 30
0.0
 11
14.2343
 21
19.3743
 31
0.0
  0
LINE
  8
0
 62
     0
 10
14.2343
 20
19.3743
 30
0.0
 11
14.1111
 21
19.5417
 31
0.0
  0
LINE
  8
0
 62
     0
 10
14.1111
 20
19.5417
 30
0.0
 11
13.9306
 21
19.6954
 31
0.0
  0
LINE
  8
0
 62
     0
 10
13.9306
 20
19.6954
 30
0.0
 11
13.7083
 21
19.809
 31
0.0
  0
LINE
  8
0
 62
     0
 10
13.7083
 20
19.809
 30
0.0
 11
13.4444
 21
19.8829
 31
0.0
  0
LINE
  8
0
 62
     0
 10
13.4444
 20
19.8829
 30
0.0
 11
13.1389
 21
19.9167
 31
0.0
  0
LINE
  8
0
 62
     0
 10
13.1389
 20
19.9167
 30
0.0
 11
12.4652
 21
19.9282
 31
0.0
  0
LINE
  8
0
 62
     0
 10
12.4652
 20
19.9282
 30
0.0
 11
11.8051
 21
19.9108
 31
0.0
  0
LINE
  8
0
 62
     0
 10
11.8051
 20
19.9108
 30
0.0
 11
11.1587
 21
19.8644
 31
0.0
  0
LINE
  8
0
 62
     0
 10
11.1587
 20
19.8644
 30
0.0
 11
10.526
 21
19.789
 31
0.0
  0
LINE
  8
0
 62
     0
 10
10.526
 20
19.789
 30
0.0
 11
9.90701
 21
19.6847
 31
0.0
  0
LINE
  8
0
 62
     0
 10
9.90701
 20
19.6847
 30
0.0
 11
9.30165
 21
19.5514
 31
0.0
  0
LINE
  8
0
 62
     0
 10
9.30165
 20
19.5514
 30
0.0
 11
8.70996
 21
19.3892
 31
0.0
  0
LINE
  8
0
 62
     0
 10
8.70996
 20
19.3892
 30
0.0
 11
8.13194
 21
19.1979
 31
0.0
  0
LINE
  8
0
 62
     0
 10
8.13194
 20
19.1979
 30
0.0
 11
7.56754
 21
18.9776
 31
0.0
  0
LINE
  8
0
 62
     0
 10
7.56754
 20
18.9776
 30
0.0
 11
7.01688
 21
18.7285
 31
0.0
  0
LINE
  8
0
 62
     0
 10
7.01688
 20
18.7285
 30
0.0
 11
6.47987
 21
18.4504
 31
0.0
  0
LINE
  8
0
 62
     0
 10
6.47987
 20
18.4504
 30
0.0
 11
5.95654
 21
18.1432
 31
0.0
  0
LINE
  8
0
 62
     0
 10
5.95654
 20
18.1432
 30
0.0
 11
5.44689
 21
17.8071
 31
0.0
  0
LINE
  8
0
 62
     0
 10
5.44689
 20
17.8071
 30
0.0
 11
4.9509
 21
17.4421
 31
0.0
  0
LINE
  8
0
 62
     0
 10
4.9509
 20
17.4421
 30
0.0
 11
4.46858
 21
17.0481
 31
0.0
  0
LINE
  8
0
 62
     0
 10
4.46858
 20
17.0481
 30
0.0
 11
4
 21
16.625
 31
0.0
  0
LINE
  8
0
 62
     0
 10
4
 20
16.625
 30
0.0
 11
3.56125
 21
16.1899
 31
0.0
  0
LINE
  8
0
 62
     0
 10
3.56125
 20
16.1899
 30
0.0
 11
3.14779
 21
15.7387
 31
0.0
  0
LINE
  8
0
 62
     0
 10
3.14779
 20
15.7387
 30
0.0
 11
2.7596
 21
15.2715
 31
0.0
  0
LINE
  8
0
 62
     0
 10
2.7596
 20
15.2715
 30
0.0
 11
2.39671
 21
14.7882
 31
0.0
  0
LINE
  8
0
 62
     0
 10
2.39671
 20
14.7882
 30
0.0
 11
2.05908
 21
14.2889
 31
0.0
  0
LINE
  8
0
 62
     0
 10
2.05908
 20
14.2889
 30
0.0
 11
1.74675
 21
13.7734
 31
0.0
  0
LINE
  8
0
 62
     0
 10
1.74675
 20
13.7734
 30
0.0
 11
1.45969
 21
13.242
 31
0.0
  0
LINE
  8
0
 62
     0
 10
1.45969
 20
13.242
 30
0.0
 11
1.19792
 21
12.6944
 31
0.0
  0
LINE
  8
0
 62
     0
 10
1.19792
 20
12.6944
 30
0.0
 11
0.961426
 21
12.1309
 31
0.0
  0
LINE
  8
0
 62
     0
 10
0.961426
 20
12.1309
 30
0.0
 11
0.750217
 21
11.5512
 31
0.0
  0
LINE
  8
0
 62
     0
 10
0.750217
 20
11.5512
 30
0.0
 11
0.56429
 21
10.9555
 31
0.0
  0
LINE
  8
0
 62
     0
 10
0.56429
 20
10.9555
 30
0.0
 11
0.403646
 21
10.3438
 31
0.0
  0
LINE
  8
0
 62
     0
 10
0.403646
 20
10.3438
 30
0.0
 11
0.268283
 21
9.71593
 31
0.0
  0
LINE
  8
0
 62
     0
 10
0.268283
 20
9.71593
 30
0.0
 11
0.158203
 21
9.07206
 31
0.0
  0
LINE
  8
0
 62
     0
 10
0.158203
 20
9.07206
 30
0.0
 11
0.073405
 21
8.41211
 31
0.0
  0
LINE
  8
0
 62
     0
 10
0.073405
 20
8.41211
 30
0.0
 11
0.0138889
 21
7.73611
 31
0.0
  0
LINE
  8
0
 62
     0
 10
0.0138889
 20
7.73611
 30
0.0
 11
-0.00694444
 21
7.16428
 31
0.0
  0
LINE
  8
0
 62
     0
 10
-0.00694444
 20
7.16428
 30
0.0
 11
0.00694444
 21
6.60157
 31
0.0
  0
LINE
  8
0
 62
     0
 10
0.00694444
 20
6.60157
 30
0.0
 11
0.0555556
 21
6.04796
 31
0.0
  0
LINE
  8
0
 62
     0
 10
0.0555556
 20
6.04796
 30
0.0
 11
0.138889
 21
5.50347
 31
0.0
  0
LINE
  8
0
 62
     0
 10
0.138889
 20
5.50347
 30
0.0
 11
0.256944
 21
4.96815
 31
0.0
  0
LINE
  8
0
 62
     0
 10
0.256944
 20
4.96815
 30
0.0
 11
0.409722
 21
4.44189
 31
0.0
  0
LINE
  8
0
 62
     0
 10
0.409722
 20
4.44189
 30
0.0
 11
0.597222
 21
3.92475
 31
0.0
  0
LINE
  8
0
 62
     0
 10
0.597222
 20
3.92475
 30
0.0
 11
0.819444
 21
3.41667
 31
0.0
  0
LINE
  8
0
 62
     0
 10
0.819444
 20
3.41667
 30
0.0
 11
1.10173
 21
2.87744
 31
0.0
  0
LINE
  8
0
 62
     0
 10
1.10173
 20
2.87744
 30
0.0
 11
1.41401
 21
2.3846
 31
0.0
  0
LINE
  8
0
 62
     0
 10
1.41401
 20
2.3846
 30
0.0
 11
1.75624
 21
1.93821
 31
0.0
  0
LINE
  8
0
 62
     0
 10
1.75624
 20
1.93821
 30
0.0
 11
2.12847
 21
1.53825
 31
0.0
  0
LINE
  8
0
 62
     0
 10
2.12847
 20
1.53825
 30
0.0
 11
2.5306
 21
1.18473
 31
0.0
  0
LINE
  8
0
 62
     0
 10
2.5306
 20
1.18473
 30
0.0
 11
2.96268
 21
0.877658
 31
0.0
  0
LINE
  8
0
 62
     0
 10
2.96268
 20
0.877658
 30
0.0
 11
3.42469
 21
0.617025
 31
0.0
  0
LINE
  8
0
 62
     0
 10
3.42469
 20
0.617025
 30
0.0
 11
3.91667
 21
0.402778
 31
0.0
  0
LINE
  8
0
 62
     0
 10
3.91667
 20
0.402778
 30
0.0
 11
4.51058
 21
0.201824
 31
0.0
  0
LINE
  8
0
 62
     0
 10
4.51058
 20
0.201824
 30
0.0
 11
5.12582
 21
0.0364583
 31
0.0
  0
LINE
  8
0
 62
     0
 10
5.12582
 20
0.0364583
 30
0.0
 11
5.76232
 21
-0.093316
 31
0.0
  0
LINE
  8
0
 62
     0
 10
5.76232
 20
-0.093316
 30
0.0
 11
6.42008
 21
-0.1875
 31
0.0
  0
LINE
  8
0
 62
     0
 10
6.42008
 20
-0.1875
 30
0.0
 11
7.09912
 21
-0.246094
 31
0.0
  0
LINE
  8
0
 62
     0
 10
7.09912
 20
-0.246094
 30
0.0
 11
7.79943
 21
-0.269097
 31
0.0
  0
LINE
  8
0
 62
     0
 10
7.79943
 20
-0.269097
 30
0.0
 11
8.521
 21
-0.256511
 31
0.0
  0
LINE
  8
0
 62
     0
 10
8.521
 20
-0.256511
 30
0.0
 11
9.26389
 21
-0.208333
 31
0.0
  0
LINE
  8
0
 62
     0
 10
9.26389
 20
-0.208333
 30
0.0
 11
9.69069
 21
-0.162706
 31
0.0
  0
LINE
  8
0
 62
     0
 10
9.69069
 20
-0.162706
 30
0.0
 11
10.1866
 21
-0.0954318
 31
0.0
  0
LINE
  8
0
 62
     0
 10
10.1866
 20
-0.0954318
 30
0.0
 11
10.7515
 21
-0.00645617
 31
0.0
  0
LINE
  8
0
 62
     0
 10
10.7515
 20
-0.00645617
 30
0.0
 11
11.3854
 21
0.104221
 31
0.0
  0
LINE
  8
0
 62
     0
 10
11.3854
 20
0.104221
 30
0.0
 11
12.0883
 21
0.2366
 31
0.0
  0
LINE
  8
0
 62
     0
 10
12.0883
 20
0.2366
 30
0.0
 11
12.8602
 21
0.390679
 31
0.0
  0
LINE
  8
0
 62
     0
 10
12.8602
 20
0.390679
 30
0.0
 11
13.7012
 21
0.566461
 31
0.0
  0
LINE
  8
0
 62
     0
 10
13.7012
 20
0.566461
 30
0.0
 11
14.6111
 21
0.763889
 31
0.0
  0
LINE
  8
0
 62
     0
 10
14.6111
 20
0.763889
 30
0.0
 11
14.9019
 21
0.843804
 31
0.0
  0
LINE
  8
0
 62
     0
 10
14.9019
 20
0.843804
 30
0.0
 11
15.1493
 21
0.958387
 31
0.0
  0
LINE
  8
0
 62
     0
 10
15.1493
 20
0.958387
 30
0.0
 11
15.3533
 21
1.10769
 31
0.0
  0
LINE
  8
0
 62
     0
 10
15.3533
 20
1.10769
 30
0.0
 11
15.5139
 21
1.29167
 31
0.0
  0
LINE
  8
0
 62
     0
 10
15.5139
 20
1.29167
 30
0.0
 11
15.6163
 21
1.47569
 31
0.0
  0
LINE
  8
0
 62
     0
 10
15.6163
 20
1.47569
 30
0.0
 11
15.6736
 21
1.66667
 31
0.0
  0
LINE
  8
0
 62
     0
 10
15.6736
 20
1.66667
 30
0.0
 11
15.6857
 21
1.86458
 31
0.0
  0
LINE
  8
0
 62
     0
 10
15.6857
 20
1.86458
 30
0.0
 11
15.6528
 21
2.06944
 31
0.0
  0
LINE
  8
0
 62
     0
 10
15.6528
 20
2.06944
 30
0.0
 11
15.5729
 21
2.25956
 31
0.0
  0
LINE
  8
0
 62
     0
 10
15.5729
 20
2.25956
 30
0.0
 11
15.4583
 21
2.42708
 31
0.0
  0
LINE
  8
0
 62
     0
 10
15.4583
 20
2.42708
 30
0.0
 11
15.309
 21
2.57206
 31
0.0
  0
LINE
  8
0
 62
     0
 10
15.309
 20
2.57206
 30
0.0
 11
15.125
 21
2.69444
 31
0.0
  0
LINE
  8
0
 62
     0
 10
15.125
 20
2.69444
 30
0.0
 11
14.8924
 21
2.78907
 31
0.0
  0
LINE
  8
0
 62
     0
 10
14.8924
 20
2.78907
 30
0.0
 11
14.6389
 21
2.83681
 31
0.0
  0
LINE
  8
0
 62
     0
 10
14.6389
 20
2.83681
 30
0.0
 11
14.3646
 21
2.83772
 31
0.0
  0
LINE
  8
0
 62
     0
 10
14.3646
 20
2.83772
 30
0.0
 11
14.0694
 21
2.79167
 31
0.0
  0
LINE
  8
0
 62
     0
 10
14.0694
 20
2.79167
 30
0.0
 11
13.4558
 21
2.66129
 31
0.0
  0
LINE
  8
0
 62
     0
 10
13.4558
 20
2.66129
 30
0.0
 11
12.8615
 21
2.54449
 31
0.0
  0
LINE
  8
0
 62
     0
 10
12.8615
 20
2.54449
 30
0.0
 11
12.2866
 21
2.44125
 31
0.0
  0
LINE
  8
0
 62
     0
 10
12.2866
 20
2.44125
 30
0.0
 11
11.7309
 21
2.35157
 31
0.0
  0
LINE
  8
0
 62
     0
 10
11.7309
 20
2.35157
 30
0.0
 11
11.1946
 21
2.27544
 31
0.0
  0
LINE
  8
0
 62
     0
 10
11.1946
 20
2.27544
 30
0.0
 11
10.6775
 21
2.21289
 31
0.0
  0
LINE
  8
0
 62
     0
 10
10.6775
 20
2.21289
 30
0.0
 11
10.1798
 21
2.1639
 31
0.0
  0
LINE
  8
0
 62
     0
 10
10.1798
 20
2.1639
 30
0.0
 11
9.70139
 21
2.12847
 31
0.0
  0
LINE
  8
0
 62
     0
 10
9.70139
 20
2.12847
 30
0.0
 11
9.24229
 21
2.10661
 31
0.0
  0
LINE
  8
0
 62
     0
 10
9.24229
 20
2.10661
 30
0.0
 11
8.80251
 21
2.09831
 31
0.0
  0
LINE
  8
0
 62
     0
 10
8.80251
 20
2.09831
 30
0.0
 11
8.38206
 21
2.10357
 31
0.0
  0
LINE
  8
0
 62
     0
 10
8.38206
 20
2.10357
 30
0.0
 11
7.9809
 21
2.1224
 31
0.0
  0
LINE
  8
0
 62
     0
 10
7.9809
 20
2.1224
 30
0.0
 11
7.59907
 21
2.15479
 31
0.0
  0
LINE
  8
0
 62
     0
 10
7.59907
 20
2.15479
 30
0.0
 11
7.23654
 21
2.20074
 31
0.0
  0
LINE
  8
0
 62
     0
 10
7.23654
 20
2.20074
 30
0.0
 11
6.89333
 21
2.26025
 31
0.0
  0
LINE
  8
0
 62
     0
 10
6.89333
 20
2.26025
 30
0.0
 11
6.56944
 21
2.33333
 31
0.0
  0
ENDSEC
  0
EOF
