  0
SECTION
  2
HEADER
  9
$ACADVER
  1
AC1009
  9
$EXTMIN
 10
0.0
 20
0.0
 30
0.0
  9
$EXTMAX
 10
1000.0
 20
1000.0
 30
0.0
  9
$FILLMODE
 70
 0
  9
$SPLFRAME
 70
 1
  0
ENDSEC
  0
SECTION
  2
TABLES
  0
TABLE
  2
LAYER
 70
1
  0
LAYER
  2
0
 70
     0
 62
     7
  6
CONTINUOUS
  0
ENDTAB
  0
ENDSEC
  0
SECTION
  2
ENTITIES
  0
LINE
  8
0
 62
     0
 10
3.52778
 20
7.70833
 30
0.0
 11
3.73438
 21
8.36897
 31
0.0
  0
LINE
  8
0
 62
     0
 10
3.73438
 20
8.36897
 30
0.0
 11
3.99306
 21
9.00347
 31
0.0
  0
LINE
  8
0
 62
     0
 10
3.99306
 20
9.00347
 30
0.0
 11
4.30382
 21
9.61199
 31
0.0
  0
LINE
  8
0
 62
     0
 10
4.30382
 20
9.61199
 30
0.0
 11
4.66667
 21
10.1944
 31
0.0
  0
LINE
  8
0
 62
     0
 10
4.66667
 20
10.1944
 30
0.0
 11
4.67464
 21
9.97265
 31
0.0
  0
LINE
  8
0
 62
     0
 10
4.67464
 20
9.97265
 30
0.0
 11
4.68485
 21
9.6684
 31
0.0
  0
LINE
  8
0
 62
     0
 10
4.68485
 20
9.6684
 30
0.0
 11
4.69721
 21
9.28168
 31
0.0
  0
LINE
  8
0
 62
     0
 10
4.69721
 20
9.28168
 30
0.0
 11
4.71175
 21
8.8125
 31
0.0
  0
LINE
  8
0
 62
     0
 10
4.71175
 20
8.8125
 30
0.0
 11
4.72846
 21
8.26085
 31
0.0
  0
LINE
  8
0
 62
     0
 10
4.72846
 20
8.26085
 30
0.0
 11
4.74735
 21
7.62674
 31
0.0
  0
LINE
  8
0
 62
     0
 10
4.74735
 20
7.62674
 30
0.0
 11
4.76839
 21
6.91015
 31
0.0
  0
LINE
  8
0
 62
     0
 10
4.76839
 20
6.91015
 30
0.0
 11
4.79167
 21
6.11111
 31
0.0
  0
LINE
  8
0
 62
     0
 10
4.79167
 20
6.11111
 30
0.0
 11
4.80838
 21
5.49718
 31
0.0
  0
LINE
  8
0
 62
     0
 10
4.80838
 20
5.49718
 30
0.0
 11
4.82379
 21
4.91233
 31
0.0
  0
LINE
  8
0
 62
     0
 10
4.82379
 20
4.91233
 30
0.0
 11
4.83794
 21
4.35656
 31
0.0
  0
LINE
  8
0
 62
     0
 10
4.83794
 20
4.35656
 30
0.0
 11
4.85075
 21
3.82986
 31
0.0
  0
LINE
  8
0
 62
     0
 10
4.85075
 20
3.82986
 30
0.0
 11
4.86225
 21
3.33225
 31
0.0
  0
LINE
  8
0
 62
     0
 10
4.86225
 20
3.33225
 30
0.0
 11
4.8724
 21
2.86372
 31
0.0
  0
LINE
  8
0
 62
     0
 10
4.8724
 20
2.86372
 30
0.0
 11
4.88129
 21
2.42426
 31
0.0
  0
LINE
  8
0
 62
     0
 10
4.88129
 20
2.42426
 30
0.0
 11
4.88889
 21
2.01389
 31
0.0
  0
LINE
  8
0
 62
     0
 10
4.88889
 20
2.01389
 30
0.0
 11
4.60585
 21
2.16407
 31
0.0
  0
LINE
  8
0
 62
     0
 10
4.60585
 20
2.16407
 30
0.0
 11
4.34022
 21
2.33681
 31
0.0
  0
LINE
  8
0
 62
     0
 10
4.34022
 20
2.33681
 30
0.0
 11
4.09196
 21
2.53213
 31
0.0
  0
LINE
  8
0
 62
     0
 10
4.09196
 20
2.53213
 30
0.0
 11
3.86111
 21
2.75
 31
0.0
  0
LINE
  8
0
 62
     0
 10
3.86111
 20
2.75
 30
0.0
 11
3.70676
 21
2.93218
 31
0.0
  0
LINE
  8
0
 62
     0
 10
3.70676
 20
2.93218
 30
0.0
 11
3.57026
 21
3.13135
 31
0.0
  0
LINE
  8
0
 62
     0
 10
3.57026
 20
3.13135
 30
0.0
 11
3.45156
 21
3.34754
 31
0.0
  0
LINE
  8
0
 62
     0
 10
3.45156
 20
3.34754
 30
0.0
 11
3.35064
 21
3.58078
 31
0.0
  0
LINE
  8
0
 62
     0
 10
3.35064
 20
3.58078
 30
0.0
 11
3.26753
 21
3.83106
 31
0.0
  0
LINE
  8
0
 62
     0
 10
3.26753
 20
3.83106
 30
0.0
 11
3.20221
 21
4.09836
 31
0.0
  0
LINE
  8
0
 62
     0
 10
3.20221
 20
4.09836
 30
0.0
 11
3.15468
 21
4.38271
 31
0.0
  0
LINE
  8
0
 62
     0
 10
3.15468
 20
4.38271
 30
0.0
 11
3.12494
 21
4.68408
 31
0.0
  0
LINE
  8
0
 62
     0
 10
3.12494
 20
4.68408
 30
0.0
 11
3.11301
 21
5.0025
 31
0.0
  0
LINE
  8
0
 62
     0
 10
3.11301
 20
5.0025
 30
0.0
 11
3.11888
 21
5.33794
 31
0.0
  0
LINE
  8
0
 62
     0
 10
3.11888
 20
5.33794
 30
0.0
 11
3.14253
 21
5.69043
 31
0.0
  0
LINE
  8
0
 62
     0
 10
3.14253
 20
5.69043
 30
0.0
 11
3.18397
 21
6.05994
 31
0.0
  0
LINE
  8
0
 62
     0
 10
3.18397
 20
6.05994
 30
0.0
 11
3.24322
 21
6.4465
 31
0.0
  0
LINE
  8
0
 62
     0
 10
3.24322
 20
6.4465
 30
0.0
 11
3.32026
 21
6.8501
 31
0.0
  0
LINE
  8
0
 62
     0
 10
3.32026
 20
6.8501
 30
0.0
 11
3.4151
 21
7.27072
 31
0.0
  0
LINE
  8
0
 62
     0
 10
3.4151
 20
7.27072
 30
0.0
 11
3.52778
 21
7.70833
 31
0.0
  0
LINE
  8
0
 62
     0
 10
7.94444
 20
1.76389
 30
0.0
 11
7.93338
 21
2.27496
 31
0.0
  0
LINE
  8
0
 62
     0
 10
7.93338
 20
2.27496
 30
0.0
 11
7.92101
 21
2.829
 31
0.0
  0
LINE
  8
0
 62
     0
 10
7.92101
 20
2.829
 30
0.0
 11
7.90733
 21
3.426
 31
0.0
  0
LINE
  8
0
 62
     0
 10
7.90733
 20
3.426
 30
0.0
 11
7.89236
 21
4.06597
 31
0.0
  0
LINE
  8
0
 62
     0
 10
7.89236
 20
4.06597
 30
0.0
 11
7.87608
 21
4.74892
 31
0.0
  0
LINE
  8
0
 62
     0
 10
7.87608
 20
4.74892
 30
0.0
 11
7.85851
 21
5.47483
 31
0.0
  0
LINE
  8
0
 62
     0
 10
7.85851
 20
5.47483
 30
0.0
 11
7.83963
 21
6.24371
 31
0.0
  0
LINE
  8
0
 62
     0
 10
7.83963
 20
6.24371
 30
0.0
 11
7.81944
 21
7.05556
 31
0.0
  0
LINE
  8
0
 62
     0
 10
7.81944
 20
7.05556
 30
0.0
 11
7.79292
 21
7.98899
 31
0.0
  0
LINE
  8
0
 62
     0
 10
7.79292
 20
7.98899
 30
0.0
 11
7.76904
 21
8.84467
 31
0.0
  0
LINE
  8
0
 62
     0
 10
7.76904
 20
8.84467
 30
0.0
 11
7.74772
 21
9.62267
 31
0.0
  0
LINE
  8
0
 62
     0
 10
7.74772
 20
9.62267
 30
0.0
 11
7.72906
 21
10.323
 31
0.0
  0
LINE
  8
0
 62
     0
 10
7.72906
 20
10.323
 30
0.0
 11
7.713
 21
10.9456
 31
0.0
  0
LINE
  8
0
 62
     0
 10
7.713
 20
10.9456
 30
0.0
 11
7.6996
 21
11.4905
 31
0.0
  0
LINE
  8
0
 62
     0
 10
7.6996
 20
11.4905
 30
0.0
 11
7.68875
 21
11.9577
 31
0.0
  0
LINE
  8
0
 62
     0
 10
7.68875
 20
11.9577
 30
0.0
 11
7.68056
 21
12.3472
 31
0.0
  0
LINE
  8
0
 62
     0
 10
7.68056
 20
12.3472
 30
0.0
 11
8.06424
 21
12.3802
 31
0.0
  0
LINE
  8
0
 62
     0
 10
8.06424
 20
12.3802
 30
0.0
 11
8.45139
 21
12.3681
 31
0.0
  0
LINE
  8
0
 62
     0
 10
8.45139
 20
12.3681
 30
0.0
 11
8.84201
 21
12.3108
 31
0.0
  0
LINE
  8
0
 62
     0
 10
8.84201
 20
12.3108
 30
0.0
 11
9.23611
 21
12.2083
 31
0.0
  0
LINE
  8
0
 62
     0
 10
9.23611
 20
12.2083
 30
0.0
 11
9.4305
 21
12.1702
 31
0.0
  0
LINE
  8
0
 62
     0
 10
9.4305
 20
12.1702
 30
0.0
 11
9.65272
 21
12.1667
 31
0.0
  0
LINE
  8
0
 62
     0
 10
9.65272
 20
12.1667
 30
0.0
 11
9.90272
 21
12.198
 31
0.0
  0
LINE
  8
0
 62
     0
 10
9.90272
 20
12.198
 30
0.0
 11
10.1806
 21
12.2639
 31
0.0
  0
LINE
  8
0
 62
     0
 10
10.1806
 20
12.2639
 30
0.0
 11
10.4514
 21
12.3498
 31
0.0
  0
LINE
  8
0
 62
     0
 10
10.4514
 20
12.3498
 30
0.0
 11
10.7083
 21
12.4549
 31
0.0
  0
LINE
  8
0
 62
     0
 10
10.7083
 20
12.4549
 30
0.0
 11
10.9514
 21
12.579
 31
0.0
  0
LINE
  8
0
 62
     0
 10
10.9514
 20
12.579
 30
0.0
 11
11.1806
 21
12.7222
 31
0.0
  0
LINE
  8
0
 62
     0
 10
11.1806
 20
12.7222
 30
0.0
 11
11.3828
 21
12.8863
 31
0.0
  0
LINE
  8
0
 62
     0
 10
11.3828
 20
12.8863
 30
0.0
 11
11.5313
 21
13.0451
 31
0.0
  0
LINE
  8
0
 62
     0
 10
11.5313
 20
13.0451
 30
0.0
 11
11.6259
 21
13.1988
 31
0.0
  0
LINE
  8
0
 62
     0
 10
11.6259
 20
13.1988
 30
0.0
 11
11.6667
 21
13.3472
 31
0.0
  0
LINE
  8
0
 62
     0
 10
11.6667
 20
13.3472
 30
0.0
 11
11.6414
 21
13.5105
 31
0.0
  0
LINE
  8
0
 62
     0
 10
11.6414
 20
13.5105
 30
0.0
 11
11.5382
 21
13.6528
 31
0.0
  0
LINE
  8
0
 62
     0
 10
11.5382
 20
13.6528
 30
0.0
 11
11.3568
 21
13.7744
 31
0.0
  0
LINE
  8
0
 62
     0
 10
11.3568
 20
13.7744
 30
0.0
 11
11.0972
 21
13.875
 31
0.0
  0
LINE
  8
0
 62
     0
 10
11.0972
 20
13.875
 30
0.0
 11
10.6819
 21
13.9935
 31
0.0
  0
LINE
  8
0
 62
     0
 10
10.6819
 20
13.9935
 30
0.0
 11
10.2622
 21
14.0851
 31
0.0
  0
LINE
  8
0
 62
     0
 10
10.2622
 20
14.0851
 30
0.0
 11
9.83811
 21
14.1497
 31
0.0
  0
LINE
  8
0
 62
     0
 10
9.83811
 20
14.1497
 30
0.0
 11
9.40972
 21
14.1875
 31
0.0
  0
LINE
  8
0
 62
     0
 10
9.40972
 20
14.1875
 30
0.0
 11
8.977
 21
14.1983
 31
0.0
  0
LINE
  8
0
 62
     0
 10
8.977
 20
14.1983
 30
0.0
 11
8.53993
 21
14.1824
 31
0.0
  0
LINE
  8
0
 62
     0
 10
8.53993
 20
14.1824
 30
0.0
 11
8.09853
 21
14.1393
 31
0.0
  0
LINE
  8
0
 62
     0
 10
8.09853
 20
14.1393
 30
0.0
 11
7.65278
 21
14.0694
 31
0.0
  0
LINE
  8
0
 62
     0
 10
7.65278
 20
14.0694
 30
0.0
 11
7.64301
 21
14.6013
 31
0.0
  0
LINE
  8
0
 62
     0
 10
7.64301
 20
14.6013
 30
0.0
 11
7.63456
 21
15.0643
 31
0.0
  0
LINE
  8
0
 62
     0
 10
7.63456
 20
15.0643
 30
0.0
 11
7.62739
 21
15.4589
 31
0.0
  0
LINE
  8
0
 62
     0
 10
7.62739
 20
15.4589
 30
0.0
 11
7.62153
 21
15.7847
 31
0.0
  0
LINE
  8
0
 62
     0
 10
7.62153
 20
15.7847
 30
0.0
 11
7.61697
 21
16.0422
 31
0.0
  0
LINE
  8
0
 62
     0
 10
7.61697
 20
16.0422
 30
0.0
 11
7.61372
 21
16.231
 31
0.0
  0
LINE
  8
0
 62
     0
 10
7.61372
 20
16.231
 30
0.0
 11
7.61176
 21
16.3513
 31
0.0
  0
LINE
  8
0
 62
     0
 10
7.61176
 20
16.3513
 30
0.0
 11
7.61111
 21
16.4028
 31
0.0
  0
LINE
  8
0
 62
     0
 10
7.61111
 20
16.4028
 30
0.0
 11
7.5816
 21
16.4899
 31
0.0
  0
LINE
  8
0
 62
     0
 10
7.5816
 20
16.4899
 30
0.0
 11
7.49306
 21
16.556
 31
0.0
  0
LINE
  8
0
 62
     0
 10
7.49306
 20
16.556
 30
0.0
 11
7.34549
 21
16.601
 31
0.0
  0
LINE
  8
0
 62
     0
 10
7.34549
 20
16.601
 30
0.0
 11
7.13889
 21
16.625
 31
0.0
  0
LINE
  8
0
 62
     0
 10
7.13889
 20
16.625
 30
0.0
 11
6.90712
 21
16.6293
 31
0.0
  0
LINE
  8
0
 62
     0
 10
6.90712
 20
16.6293
 30
0.0
 11
6.65625
 21
16.6146
 31
0.0
  0
LINE
  8
0
 62
     0
 10
6.65625
 20
16.6146
 30
0.0
 11
6.38629
 21
16.5807
 31
0.0
  0
LINE
  8
0
 62
     0
 10
6.38629
 20
16.5807
 30
0.0
 11
6.09722
 21
16.5278
 31
0.0
  0
LINE
  8
0
 62
     0
 10
6.09722
 20
16.5278
 30
0.0
 11
5.74235
 21
16.4435
 31
0.0
  0
LINE
  8
0
 62
     0
 10
5.74235
 20
16.4435
 30
0.0
 11
5.43485
 21
16.3499
 31
0.0
  0
LINE
  8
0
 62
     0
 10
5.43485
 20
16.3499
 30
0.0
 11
5.17464
 21
16.2472
 31
0.0
  0
LINE
  8
0
 62
     0
 10
5.17464
 20
16.2472
 30
0.0
 11
4.96175
 21
16.1354
 31
0.0
  0
LINE
  8
0
 62
     0
 10
4.96175
 20
16.1354
 30
0.0
 11
4.79617
 21
16.0146
 31
0.0
  0
LINE
  8
0
 62
     0
 10
4.79617
 20
16.0146
 30
0.0
 11
4.6779
 21
15.8846
 31
0.0
  0
LINE
  8
0
 62
     0
 10
4.6779
 20
15.8846
 30
0.0
 11
4.60693
 21
15.7454
 31
0.0
  0
LINE
  8
0
 62
     0
 10
4.60693
 20
15.7454
 30
0.0
 11
4.58333
 21
15.5972
 31
0.0
  0
LINE
  8
0
 62
     0
 10
4.58333
 20
15.5972
 30
0.0
 11
4.58399
 21
15.4175
 31
0.0
  0
LINE
  8
0
 62
     0
 10
4.58399
 20
15.4175
 30
0.0
 11
4.58594
 21
15.191
 31
0.0
  0
LINE
  8
0
 62
     0
 10
4.58594
 20
15.191
 30
0.0
 11
4.58919
 21
14.9175
 31
0.0
  0
LINE
  8
0
 62
     0
 10
4.58919
 20
14.9175
 30
0.0
 11
4.59375
 21
14.5972
 31
0.0
  0
LINE
  8
0
 62
     0
 10
4.59375
 20
14.5972
 30
0.0
 11
4.59961
 21
14.23
 31
0.0
  0
LINE
  8
0
 62
     0
 10
4.59961
 20
14.23
 30
0.0
 11
4.60678
 21
13.816
 31
0.0
  0
LINE
  8
0
 62
     0
 10
4.60678
 20
13.816
 30
0.0
 11
4.61524
 21
13.355
 31
0.0
  0
LINE
  8
0
 62
     0
 10
4.61524
 20
13.355
 30
0.0
 11
4.625
 21
12.8472
 31
0.0
  0
LINE
  8
0
 62
     0
 10
4.625
 20
12.8472
 30
0.0
 11
3.97694
 21
12.4095
 31
0.0
  0
LINE
  8
0
 62
     0
 10
3.97694
 20
12.4095
 30
0.0
 11
3.37321
 21
11.9366
 31
0.0
  0
LINE
  8
0
 62
     0
 10
3.37321
 20
11.9366
 30
0.0
 11
2.81375
 21
11.4286
 31
0.0
  0
LINE
  8
0
 62
     0
 10
2.81375
 20
11.4286
 30
0.0
 11
2.29861
 21
10.8854
 31
0.0
  0
LINE
  8
0
 62
     0
 10
2.29861
 20
10.8854
 30
0.0
 11
1.82769
 21
10.3071
 31
0.0
  0
LINE
  8
0
 62
     0
 10
1.82769
 20
10.3071
 30
0.0
 11
1.40104
 21
9.69362
 31
0.0
  0
LINE
  8
0
 62
     0
 10
1.40104
 20
9.69362
 30
0.0
 11
1.01866
 21
9.04497
 31
0.0
  0
LINE
  8
0
 62
     0
 10
1.01866
 20
9.04497
 30
0.0
 11
0.680556
 21
8.36111
 31
0.0
  0
LINE
  8
0
 62
     0
 10
0.680556
 20
8.36111
 30
0.0
 11
0.384765
 21
7.61458
 31
0.0
  0
LINE
  8
0
 62
     0
 10
0.384765
 20
7.61458
 30
0.0
 11
0.164063
 21
6.875
 31
0.0
  0
LINE
  8
0
 62
     0
 10
0.164063
 20
6.875
 30
0.0
 11
0.0184463
 21
6.14236
 31
0.0
  0
LINE
  8
0
 62
     0
 10
0.0184463
 20
6.14236
 30
0.0
 11
-0.0520833
 21
5.41667
 31
0.0
  0
LINE
  8
0
 62
     0
 10
-0.0520833
 20
5.41667
 30
0.0
 11
-0.0475261
 21
4.69792
 31
0.0
  0
LINE
  8
0
 62
     0
 10
-0.0475261
 20
4.69792
 30
0.0
 11
0.0321181
 21
3.98611
 31
0.0
  0
LINE
  8
0
 62
     0
 10
0.0321181
 20
3.98611
 30
0.0
 11
0.186849
 21
3.28125
 31
0.0
  0
LINE
  8
0
 62
     0
 10
0.186849
 20
3.28125
 30
0.0
 11
0.416667
 21
2.58333
 31
0.0
  0
LINE
  8
0
 62
     0
 10
0.416667
 20
2.58333
 30
0.0
 11
0.551432
 21
2.26497
 31
0.0
  0
LINE
  8
0
 62
     0
 10
0.551432
 20
2.26497
 30
0.0
 11
0.705892
 21
1.96615
 31
0.0
  0
LINE
  8
0
 62
     0
 10
0.705892
 20
1.96615
 30
0.0
 11
0.879992
 21
1.68685
 31
0.0
  0
LINE
  8
0
 62
     0
 10
0.879992
 20
1.68685
 30
0.0
 11
1.07373
 21
1.42708
 31
0.0
  0
LINE
  8
0
 62
     0
 10
1.07373
 20
1.42708
 30
0.0
 11
1.28711
 21
1.18685
 31
0.0
  0
LINE
  8
0
 62
     0
 10
1.28711
 20
1.18685
 30
0.0
 11
1.52012
 21
0.966146
 31
0.0
  0
LINE
  8
0
 62
     0
 10
1.52012
 20
0.966146
 30
0.0
 11
1.77279
 21
0.764974
 31
0.0
  0
LINE
  8
0
 62
     0
 10
1.77279
 20
0.764974
 30
0.0
 11
2.04508
 21
0.583333
 31
0.0
  0
LINE
  8
0
 62
     0
 10
2.04508
 20
0.583333
 30
0.0
 11
2.33703
 21
0.421224
 31
0.0
  0
LINE
  8
0
 62
     0
 10
2.33703
 20
0.421224
 30
0.0
 11
2.6486
 21
0.278646
 31
0.0
  0
LINE
  8
0
 62
     0
 10
2.6486
 20
0.278646
 30
0.0
 11
2.97982
 21
0.155599
 31
0.0
  0
LINE
  8
0
 62
     0
 10
2.97982
 20
0.155599
 30
0.0
 11
3.33068
 21
0.0520833
 31
0.0
  0
LINE
  8
0
 62
     0
 10
3.33068
 20
0.0520833
 30
0.0
 11
3.70117
 21
-0.0319011
 31
0.0
  0
LINE
  8
0
 62
     0
 10
3.70117
 20
-0.0319011
 30
0.0
 11
4.09131
 21
-0.0963542
 31
0.0
  0
LINE
  8
0
 62
     0
 10
4.09131
 20
-0.0963542
 30
0.0
 11
4.50108
 21
-0.141276
 31
0.0
  0
LINE
  8
0
 62
     0
 10
4.50108
 20
-0.141276
 30
0.0
 11
4.93056
 21
-0.166667
 31
0.0
  0
LINE
  8
0
 62
     0
 10
4.93056
 20
-0.166667
 30
0.0
 11
4.93137
 21
-0.289876
 31
0.0
  0
LINE
  8
0
 62
     0
 10
4.93137
 20
-0.289876
 30
0.0
 11
4.93397
 21
-0.465278
 31
0.0
  0
LINE
  8
0
 62
     0
 10
4.93397
 20
-0.465278
 30
0.0
 11
4.93832
 21
-0.692708
 31
0.0
  0
LINE
  8
0
 62
     0
 10
4.93832
 20
-0.692708
 30
0.0
 11
4.94444
 21
-0.972222
 31
0.0
  0
LINE
  8
0
 62
     0
 10
4.94444
 20
-0.972222
 30
0.0
 11
4.94444
 21
-1.77778
 31
0.0
  0
LINE
  8
0
 62
     0
 10
4.94444
 20
-1.77778
 30
0.0
 11
4.97483
 21
-1.86453
 31
0.0
  0
LINE
  8
0
 62
     0
 10
4.97483
 20
-1.86453
 30
0.0
 11
5.06597
 21
-1.93056
 31
0.0
  0
LINE
  8
0
 62
     0
 10
5.06597
 20
-1.93056
 30
0.0
 11
5.21789
 21
-1.97569
 31
0.0
  0
LINE
  8
0
 62
     0
 10
5.21789
 20
-1.97569
 30
0.0
 11
5.43056
 21
-2
 31
0.0
  0
LINE
  8
0
 62
     0
 10
5.43056
 20
-2
 30
0.0
 11
5.66228
 21
-2.00429
 31
0.0
  0
LINE
  8
0
 62
     0
 10
5.66228
 20
-2.00429
 30
0.0
 11
5.91314
 21
-1.98953
 31
0.0
  0
LINE
  8
0
 62
     0
 10
5.91314
 20
-1.98953
 30
0.0
 11
6.18311
 21
-1.95568
 31
0.0
  0
LINE
  8
0
 62
     0
 10
6.18311
 20
-1.95568
 30
0.0
 11
6.47222
 21
-1.90278
 31
0.0
  0
LINE
  8
0
 62
     0
 10
6.47222
 20
-1.90278
 30
0.0
 11
6.82704
 21
-1.81836
 31
0.0
  0
LINE
  8
0
 62
     0
 10
6.82704
 20
-1.81836
 30
0.0
 11
7.13456
 21
-1.72483
 31
0.0
  0
LINE
  8
0
 62
     0
 10
7.13456
 20
-1.72483
 30
0.0
 11
7.39475
 21
-1.62218
 31
0.0
  0
LINE
  8
0
 62
     0
 10
7.39475
 20
-1.62218
 30
0.0
 11
7.60764
 21
-1.51042
 31
0.0
  0
LINE
  8
0
 62
     0
 10
7.60764
 20
-1.51042
 30
0.0
 11
7.77322
 21
-1.38949
 31
0.0
  0
LINE
  8
0
 62
     0
 10
7.77322
 20
-1.38949
 30
0.0
 11
7.8915
 21
-1.25949
 31
0.0
  0
LINE
  8
0
 62
     0
 10
7.8915
 20
-1.25949
 30
0.0
 11
7.96246
 21
-1.12039
 31
0.0
  0
LINE
  8
0
 62
     0
 10
7.96246
 20
-1.12039
 30
0.0
 11
7.98611
 21
-0.972222
 31
0.0
  0
LINE
  8
0
 62
     0
 10
7.98611
 20
-0.972222
 30
0.0
 11
7.98264
 21
-0.729167
 31
0.0
  0
LINE
  8
0
 62
     0
 10
7.98264
 20
-0.729167
 30
0.0
 11
7.97222
 21
-0.416667
 31
0.0
  0
LINE
  8
0
 62
     0
 10
7.97222
 20
-0.416667
 30
0.0
 11
7.97222
 21
0.138889
 31
0.0
  0
LINE
  8
0
 62
     0
 10
7.97222
 20
0.138889
 30
0.0
 11
8.65793
 21
0.305393
 31
0.0
  0
LINE
  8
0
 62
     0
 10
8.65793
 20
0.305393
 30
0.0
 11
9.31939
 21
0.492242
 31
0.0
  0
LINE
  8
0
 62
     0
 10
9.31939
 20
0.492242
 30
0.0
 11
9.95654
 21
0.69949
 31
0.0
  0
LINE
  8
0
 62
     0
 10
9.95654
 20
0.69949
 30
0.0
 11
10.5694
 21
0.927137
 31
0.0
  0
LINE
  8
0
 62
     0
 10
10.5694
 20
0.927137
 30
0.0
 11
11.1579
 21
1.17518
 31
0.0
  0
LINE
  8
0
 62
     0
 10
11.1579
 20
1.17518
 30
0.0
 11
11.7222
 21
1.44363
 31
0.0
  0
LINE
  8
0
 62
     0
 10
11.7222
 20
1.44363
 30
0.0
 11
12.2621
 21
1.73247
 31
0.0
  0
LINE
  8
0
 62
     0
 10
12.2621
 20
1.73247
 30
0.0
 11
12.7778
 21
2.04167
 31
0.0
  0
LINE
  8
0
 62
     0
 10
12.7778
 20
2.04167
 30
0.0
 11
13.0425
 21
2.23096
 31
0.0
  0
LINE
  8
0
 62
     0
 10
13.0425
 20
2.23096
 30
0.0
 11
13.2256
 21
2.40972
 31
0.0
  0
LINE
  8
0
 62
     0
 10
13.2256
 20
2.40972
 30
0.0
 11
13.3272
 21
2.57813
 31
0.0
  0
LINE
  8
0
 62
     0
 10
13.3272
 20
2.57813
 30
0.0
 11
13.3472
 21
2.73611
 31
0.0
  0
LINE
  8
0
 62
     0
 10
13.3472
 20
2.73611
 30
0.0
 11
13.3056
 21
2.86632
 31
0.0
  0
LINE
  8
0
 62
     0
 10
13.3056
 20
2.86632
 30
0.0
 11
13.2083
 21
2.97917
 31
0.0
  0
LINE
  8
0
 62
     0
 10
13.2083
 20
2.97917
 30
0.0
 11
13.0556
 21
3.07465
 31
0.0
  0
LINE
  8
0
 62
     0
 10
13.0556
 20
3.07465
 30
0.0
 11
12.8472
 21
3.15278
 31
0.0
  0
LINE
  8
0
 62
     0
 10
12.8472
 20
3.15278
 30
0.0
 11
12.5705
 21
3.22592
 31
0.0
  0
LINE
  8
0
 62
     0
 10
12.5705
 20
3.22592
 30
0.0
 11
12.303
 21
3.27171
 31
0.0
  0
LINE
  8
0
 62
     0
 10
12.303
 20
3.27171
 30
0.0
 11
12.0445
 21
3.29015
 31
0.0
  0
LINE
  8
0
 62
     0
 10
12.0445
 20
3.29015
 30
0.0
 11
11.7951
 21
3.28125
 31
0.0
  0
LINE
  8
0
 62
     0
 10
11.7951
 20
3.28125
 30
0.0
 11
11.5549
 21
3.24501
 31
0.0
  0
LINE
  8
0
 62
     0
 10
11.5549
 20
3.24501
 30
0.0
 11
11.3238
 21
3.18143
 31
0.0
  0
LINE
  8
0
 62
     0
 10
11.3238
 20
3.18143
 30
0.0
 11
11.1018
 21
3.0905
 31
0.0
  0
LINE
  8
0
 62
     0
 10
11.1018
 20
3.0905
 30
0.0
 11
10.8889
 21
2.97222
 31
0.0
  0
LINE
  8
0
 62
     0
 10
10.8889
 20
2.97222
 30
0.0
 11
10.1788
 21
2.56338
 31
0.0
  0
LINE
  8
0
 62
     0
 10
10.1788
 20
2.56338
 30
0.0
 11
9.45139
 21
2.22569
 31
0.0
  0
LINE
  8
0
 62
     0
 10
9.45139
 20
2.22569
 30
0.0
 11
8.7066
 21
1.95921
 31
0.0
  0
LINE
  8
0
 62
     0
 10
8.7066
 20
1.95921
 30
0.0
 11
7.94444
 21
1.76389
 31
0.0
  0
ENDSEC
  0
EOF
