  0
SECTION
  2
HEADER
  9
$ACADVER
  1
AC1009
  9
$EXTMIN
 10
0.0
 20
0.0
 30
0.0
  9
$EXTMAX
 10
1000.0
 20
1000.0
 30
0.0
  9
$FILLMODE
 70
 0
  9
$SPLFRAME
 70
 1
  0
ENDSEC
  0
SECTION
  2
TABLES
  0
TABLE
  2
LAYER
 70
1
  0
LAYER
  2
0
 70
     0
 62
     7
  6
CONTINUOUS
  0
ENDTAB
  0
ENDSEC
  0
SECTION
  2
ENTITIES
  0
LINE
  8
0
 62
     0
 10
1.79167
 20
12.2361
 30
0.0
 11
1.79167
 21
11.4444
 31
0.0
  0
LINE
  8
0
 62
     0
 10
1.79167
 20
11.4444
 30
0.0
 11
1.78554
 21
11.1502
 31
0.0
  0
LINE
  8
0
 62
     0
 10
1.78554
 20
11.1502
 30
0.0
 11
1.78119
 21
10.9202
 31
0.0
  0
LINE
  8
0
 62
     0
 10
1.78119
 20
10.9202
 30
0.0
 11
1.7786
 21
10.7544
 31
0.0
  0
LINE
  8
0
 62
     0
 10
1.7786
 20
10.7544
 30
0.0
 11
1.77778
 21
10.6528
 31
0.0
  0
LINE
  8
0
 62
     0
 10
1.77778
 20
10.6528
 30
0.0
 11
1.79514
 21
10.5104
 31
0.0
  0
LINE
  8
0
 62
     0
 10
1.79514
 20
10.5104
 30
0.0
 11
1.84722
 21
10.3889
 31
0.0
  0
LINE
  8
0
 62
     0
 10
1.84722
 20
10.3889
 30
0.0
 11
1.93403
 21
10.2883
 31
0.0
  0
LINE
  8
0
 62
     0
 10
1.93403
 20
10.2883
 30
0.0
 11
2.05556
 21
10.2083
 31
0.0
  0
LINE
  8
0
 62
     0
 10
2.05556
 20
10.2083
 30
0.0
 11
2.1875
 21
10.1624
 31
0.0
  0
LINE
  8
0
 62
     0
 10
2.1875
 20
10.1624
 30
0.0
 11
2.33333
 21
10.1355
 31
0.0
  0
LINE
  8
0
 62
     0
 10
2.33333
 20
10.1355
 30
0.0
 11
2.49306
 21
10.1277
 31
0.0
  0
LINE
  8
0
 62
     0
 10
2.49306
 20
10.1277
 30
0.0
 11
2.66667
 21
10.1389
 31
0.0
  0
LINE
  8
0
 62
     0
 10
2.66667
 20
10.1389
 30
0.0
 11
2.8411
 21
10.1745
 31
0.0
  0
LINE
  8
0
 62
     0
 10
2.8411
 20
10.1745
 30
0.0
 11
3.00342
 21
10.2257
 31
0.0
  0
LINE
  8
0
 62
     0
 10
3.00342
 20
10.2257
 30
0.0
 11
3.1536
 21
10.2925
 31
0.0
  0
LINE
  8
0
 62
     0
 10
3.1536
 20
10.2925
 30
0.0
 11
3.29167
 21
10.375
 31
0.0
  0
LINE
  8
0
 62
     0
 10
3.29167
 20
10.375
 30
0.0
 11
3.41314
 21
10.4757
 31
0.0
  0
LINE
  8
0
 62
     0
 10
3.41314
 20
10.4757
 30
0.0
 11
3.49994
 21
10.5833
 31
0.0
  0
LINE
  8
0
 62
     0
 10
3.49994
 20
10.5833
 30
0.0
 11
3.55203
 21
10.6979
 31
0.0
  0
LINE
  8
0
 62
     0
 10
3.55203
 20
10.6979
 30
0.0
 11
3.56944
 21
10.8194
 31
0.0
  0
LINE
  8
0
 62
     0
 10
3.56944
 20
10.8194
 30
0.0
 11
3.57269
 21
11.2568
 31
0.0
  0
LINE
  8
0
 62
     0
 10
3.57269
 20
11.2568
 30
0.0
 11
3.57553
 21
11.6311
 31
0.0
  0
LINE
  8
0
 62
     0
 10
3.57553
 20
11.6311
 30
0.0
 11
3.5779
 21
11.9425
 31
0.0
  0
LINE
  8
0
 62
     0
 10
3.5779
 20
11.9425
 30
0.0
 11
3.57986
 21
12.191
 31
0.0
  0
LINE
  8
0
 62
     0
 10
3.57986
 20
12.191
 30
0.0
 11
3.58138
 21
12.3766
 31
0.0
  0
LINE
  8
0
 62
     0
 10
3.58138
 20
12.3766
 30
0.0
 11
3.58247
 21
12.4992
 31
0.0
  0
LINE
  8
0
 62
     0
 10
3.58247
 20
12.4992
 30
0.0
 11
3.58311
 21
12.5589
 31
0.0
  0
LINE
  8
0
 62
     0
 10
3.58311
 20
12.5589
 30
0.0
 11
3.58333
 21
12.5556
 31
0.0
  0
LINE
  8
0
 62
     0
 10
3.58333
 20
12.5556
 30
0.0
 11
3.57226
 21
12.8364
 31
0.0
  0
LINE
  8
0
 62
     0
 10
3.57226
 20
12.8364
 30
0.0
 11
3.55296
 21
13.0886
 31
0.0
  0
LINE
  8
0
 62
     0
 10
3.55296
 20
13.0886
 30
0.0
 11
3.52539
 21
13.3121
 31
0.0
  0
LINE
  8
0
 62
     0
 10
3.52539
 20
13.3121
 30
0.0
 11
3.48958
 21
13.507
 31
0.0
  0
LINE
  8
0
 62
     0
 10
3.48958
 20
13.507
 30
0.0
 11
3.44553
 21
13.6732
 31
0.0
  0
LINE
  8
0
 62
     0
 10
3.44553
 20
13.6732
 30
0.0
 11
3.39324
 21
13.8108
 31
0.0
  0
LINE
  8
0
 62
     0
 10
3.39324
 20
13.8108
 30
0.0
 11
3.33268
 21
13.9197
 31
0.0
  0
LINE
  8
0
 62
     0
 10
3.33268
 20
13.9197
 30
0.0
 11
3.26389
 21
14
 31
0.0
  0
LINE
  8
0
 62
     0
 10
3.26389
 20
14
 30
0.0
 11
3.13867
 21
14.0926
 31
0.0
  0
LINE
  8
0
 62
     0
 10
3.13867
 20
14.0926
 30
0.0
 11
3.00608
 21
14.1624
 31
0.0
  0
LINE
  8
0
 62
     0
 10
3.00608
 20
14.1624
 30
0.0
 11
2.8661
 21
14.209
 31
0.0
  0
LINE
  8
0
 62
     0
 10
2.8661
 20
14.209
 30
0.0
 11
2.71875
 21
14.2326
 31
0.0
  0
LINE
  8
0
 62
     0
 10
2.71875
 20
14.2326
 30
0.0
 11
2.56401
 21
14.2333
 31
0.0
  0
LINE
  8
0
 62
     0
 10
2.56401
 20
14.2333
 30
0.0
 11
2.40192
 21
14.211
 31
0.0
  0
LINE
  8
0
 62
     0
 10
2.40192
 20
14.211
 30
0.0
 11
2.23242
 21
14.1656
 31
0.0
  0
LINE
  8
0
 62
     0
 10
2.23242
 20
14.1656
 30
0.0
 11
2.05556
 21
14.0972
 31
0.0
  0
LINE
  8
0
 62
     0
 10
2.05556
 20
14.0972
 30
0.0
 11
1.82292
 21
13.9444
 31
0.0
  0
LINE
  8
0
 62
     0
 10
1.82292
 20
13.9444
 30
0.0
 11
1.625
 21
13.7361
 31
0.0
  0
LINE
  8
0
 62
     0
 10
1.625
 20
13.7361
 30
0.0
 11
1.54161
 21
13.5955
 31
0.0
  0
LINE
  8
0
 62
     0
 10
1.54161
 20
13.5955
 30
0.0
 11
1.51383
 21
13.4653
 31
0.0
  0
LINE
  8
0
 62
     0
 10
1.51383
 20
13.4653
 30
0.0
 11
1.54161
 21
13.3455
 31
0.0
  0
LINE
  8
0
 62
     0
 10
1.54161
 20
13.3455
 30
0.0
 11
1.625
 21
13.2361
 31
0.0
  0
LINE
  8
0
 62
     0
 10
1.625
 20
13.2361
 30
0.0
 11
1.6875
 21
13.1267
 31
0.0
  0
LINE
  8
0
 62
     0
 10
1.6875
 20
13.1267
 30
0.0
 11
1.73611
 21
12.9236
 31
0.0
  0
LINE
  8
0
 62
     0
 10
1.73611
 20
12.9236
 30
0.0
 11
1.77083
 21
12.6267
 31
0.0
  0
LINE
  8
0
 62
     0
 10
1.77083
 20
12.6267
 30
0.0
 11
1.79167
 21
12.2361
 31
0.0
  0
LINE
  8
0
 62
     0
 10
2.01389
 20
0.263889
 30
0.0
 11
2.03125
 21
0.175401
 31
0.0
  0
LINE
  8
0
 62
     0
 10
2.03125
 20
0.175401
 30
0.0
 11
2.08333
 21
0.104221
 31
0.0
  0
LINE
  8
0
 62
     0
 10
2.08333
 20
0.104221
 30
0.0
 11
2.17014
 21
0.0504015
 31
0.0
  0
LINE
  8
0
 62
     0
 10
2.17014
 20
0.0504015
 30
0.0
 11
2.29167
 21
0.0138889
 31
0.0
  0
LINE
  8
0
 62
     0
 10
2.29167
 20
0.0138889
 30
0.0
 11
2.42361
 21
0.000868056
 31
0.0
  0
LINE
  8
0
 62
     0
 10
2.42361
 20
0.000868056
 30
0.0
 11
2.56944
 21
0.00347222
 31
0.0
  0
LINE
  8
0
 62
     0
 10
2.56944
 20
0.00347222
 30
0.0
 11
2.72917
 21
0.0217014
 31
0.0
  0
LINE
  8
0
 62
     0
 10
2.72917
 20
0.0217014
 30
0.0
 11
2.90278
 21
0.0555556
 31
0.0
  0
LINE
  8
0
 62
     0
 10
2.90278
 20
0.0555556
 30
0.0
 11
3.11111
 21
0.108724
 31
0.0
  0
LINE
  8
0
 62
     0
 10
3.11111
 20
0.108724
 30
0.0
 11
3.29167
 21
0.171007
 31
0.0
  0
LINE
  8
0
 62
     0
 10
3.29167
 20
0.171007
 30
0.0
 11
3.44444
 21
0.242404
 31
0.0
  0
LINE
  8
0
 62
     0
 10
3.44444
 20
0.242404
 30
0.0
 11
3.56944
 21
0.322917
 31
0.0
  0
LINE
  8
0
 62
     0
 10
3.56944
 20
0.322917
 30
0.0
 11
3.66667
 21
0.412597
 31
0.0
  0
LINE
  8
0
 62
     0
 10
3.66667
 20
0.412597
 30
0.0
 11
3.73611
 21
0.511339
 31
0.0
  0
LINE
  8
0
 62
     0
 10
3.73611
 20
0.511339
 30
0.0
 11
3.77778
 21
0.619194
 31
0.0
  0
LINE
  8
0
 62
     0
 10
3.77778
 20
0.619194
 30
0.0
 11
3.79167
 21
0.736111
 31
0.0
  0
LINE
  8
0
 62
     0
 10
3.79167
 20
0.736111
 30
0.0
 11
3.79167
 21
3.95833
 31
0.0
  0
LINE
  8
0
 62
     0
 10
3.79167
 20
3.95833
 30
0.0
 11
3.77425
 21
4.04085
 31
0.0
  0
LINE
  8
0
 62
     0
 10
3.77425
 20
4.04085
 30
0.0
 11
3.72217
 21
4.10764
 31
0.0
  0
LINE
  8
0
 62
     0
 10
3.72217
 20
4.10764
 30
0.0
 11
3.63536
 21
4.15886
 31
0.0
  0
LINE
  8
0
 62
     0
 10
3.63536
 20
4.15886
 30
0.0
 11
3.51389
 21
4.19444
 31
0.0
  0
LINE
  8
0
 62
     0
 10
3.51389
 20
4.19444
 30
0.0
 11
3.37668
 21
4.2136
 31
0.0
  0
LINE
  8
0
 62
     0
 10
3.37668
 20
4.2136
 30
0.0
 11
3.22917
 21
4.21533
 31
0.0
  0
LINE
  8
0
 62
     0
 10
3.22917
 20
4.21533
 30
0.0
 11
3.07118
 21
4.19971
 31
0.0
  0
LINE
  8
0
 62
     0
 10
3.07118
 20
4.19971
 30
0.0
 11
2.90278
 21
4.16667
 31
0.0
  0
LINE
  8
0
 62
     0
 10
2.90278
 20
4.16667
 30
0.0
 11
2.69439
 21
4.11051
 31
0.0
  0
LINE
  8
0
 62
     0
 10
2.69439
 20
4.11051
 30
0.0
 11
2.51383
 21
4.04606
 31
0.0
  0
LINE
  8
0
 62
     0
 10
2.51383
 20
4.04606
 30
0.0
 11
2.36106
 21
3.97336
 31
0.0
  0
LINE
  8
0
 62
     0
 10
2.36106
 20
3.97336
 30
0.0
 11
2.23606
 21
3.89242
 31
0.0
  0
LINE
  8
0
 62
     0
 10
2.23606
 20
3.89242
 30
0.0
 11
2.13883
 21
3.80322
 31
0.0
  0
LINE
  8
0
 62
     0
 10
2.13883
 20
3.80322
 30
0.0
 11
2.06939
 21
3.70578
 31
0.0
  0
LINE
  8
0
 62
     0
 10
2.06939
 20
3.70578
 30
0.0
 11
2.02772
 21
3.6001
 31
0.0
  0
LINE
  8
0
 62
     0
 10
2.02772
 20
3.6001
 30
0.0
 11
2.01389
 21
3.48611
 31
0.0
  0
LINE
  8
0
 62
     0
 10
2.01389
 20
3.48611
 30
0.0
 11
2.01389
 21
0.263889
 31
0.0
  0
ENDSEC
  0
EOF
