  0
SECTION
  2
HEADER
  9
$ACADVER
  1
AC1009
  9
$EXTMIN
 10
0.0
 20
0.0
 30
0.0
  9
$EXTMAX
 10
1000.0
 20
1000.0
 30
0.0
  9
$FILLMODE
 70
 0
  9
$SPLFRAME
 70
 1
  0
ENDSEC
  0
SECTION
  2
TABLES
  0
TABLE
  2
LAYER
 70
1
  0
LAYER
  2
0
 70
     0
 62
     7
  6
CONTINUOUS
  0
ENDTAB
  0
ENDSEC
  0
SECTION
  2
ENTITIES
  0
LINE
  8
0
 62
     0
 10
0.361111
 20
-1.80556
 30
0.0
 11
0.111111
 21
-1.95486
 31
0.0
  0
LINE
  8
0
 62
     0
 10
0.111111
 20
-1.95486
 30
0.0
 11
-0.0833333
 21
-2.125
 31
0.0
  0
LINE
  8
0
 62
     0
 10
-0.0833333
 20
-2.125
 30
0.0
 11
-0.180556
 21
-2.25347
 31
0.0
  0
LINE
  8
0
 62
     0
 10
-0.180556
 20
-2.25347
 30
0.0
 11
-0.222222
 21
-2.375
 31
0.0
  0
LINE
  8
0
 62
     0
 10
-0.222222
 20
-2.375
 30
0.0
 11
-0.208333
 21
-2.48958
 31
0.0
  0
LINE
  8
0
 62
     0
 10
-0.208333
 20
-2.48958
 30
0.0
 11
-0.138889
 21
-2.59722
 31
0.0
  0
LINE
  8
0
 62
     0
 10
-0.138889
 20
-2.59722
 30
0.0
 11
-0.026964
 21
-2.6875
 31
0.0
  0
LINE
  8
0
 62
     0
 10
-0.026964
 20
-2.6875
 30
0.0
 11
0.114529
 21
-2.75
 31
0.0
  0
LINE
  8
0
 62
     0
 10
0.114529
 20
-2.75
 30
0.0
 11
0.285536
 21
-2.78472
 31
0.0
  0
LINE
  8
0
 62
     0
 10
0.285536
 20
-2.78472
 30
0.0
 11
0.486111
 21
-2.79167
 31
0.0
  0
LINE
  8
0
 62
     0
 10
0.486111
 20
-2.79167
 30
0.0
 11
0.812446
 21
-2.743
 31
0.0
  0
LINE
  8
0
 62
     0
 10
0.812446
 20
-2.743
 30
0.0
 11
1.125
 21
-2.625
 31
0.0
  0
LINE
  8
0
 62
     0
 10
1.125
 20
-2.625
 30
0.0
 11
1.41906
 21
-2.47715
 31
0.0
  0
LINE
  8
0
 62
     0
 10
1.41906
 20
-2.47715
 30
0.0
 11
1.69011
 21
-2.31158
 31
0.0
  0
LINE
  8
0
 62
     0
 10
1.69011
 20
-2.31158
 30
0.0
 11
1.93815
 21
-2.12819
 31
0.0
  0
LINE
  8
0
 62
     0
 10
1.93815
 20
-2.12819
 30
0.0
 11
2.16319
 21
-1.92703
 31
0.0
  0
LINE
  8
0
 62
     0
 10
2.16319
 20
-1.92703
 30
0.0
 11
2.36524
 21
-1.70806
 31
0.0
  0
LINE
  8
0
 62
     0
 10
2.36524
 20
-1.70806
 30
0.0
 11
2.54428
 21
-1.47131
 31
0.0
  0
LINE
  8
0
 62
     0
 10
2.54428
 20
-1.47131
 30
0.0
 11
2.70031
 21
-1.21674
 31
0.0
  0
LINE
  8
0
 62
     0
 10
2.70031
 20
-1.21674
 30
0.0
 11
2.83333
 21
-0.944444
 31
0.0
  0
LINE
  8
0
 62
     0
 10
2.83333
 20
-0.944444
 30
0.0
 11
2.93294
 21
-0.696832
 31
0.0
  0
LINE
  8
0
 62
     0
 10
2.93294
 20
-0.696832
 30
0.0
 11
3.0165
 21
-0.43316
 31
0.0
  0
LINE
  8
0
 62
     0
 10
3.0165
 20
-0.43316
 30
0.0
 11
3.08399
 21
-0.153429
 31
0.0
  0
LINE
  8
0
 62
     0
 10
3.08399
 20
-0.153429
 30
0.0
 11
3.13542
 21
0.142361
 31
0.0
  0
LINE
  8
0
 62
     0
 10
3.13542
 20
0.142361
 30
0.0
 11
3.17079
 21
0.45421
 31
0.0
  0
LINE
  8
0
 62
     0
 10
3.17079
 20
0.45421
 30
0.0
 11
3.19011
 21
0.782118
 31
0.0
  0
LINE
  8
0
 62
     0
 10
3.19011
 20
0.782118
 30
0.0
 11
3.19336
 21
1.12608
 31
0.0
  0
LINE
  8
0
 62
     0
 10
3.19336
 20
1.12608
 30
0.0
 11
3.18056
 21
1.48611
 31
0.0
  0
LINE
  8
0
 62
     0
 10
3.18056
 20
1.48611
 30
0.0
 11
3.15533
 21
1.59289
 31
0.0
  0
LINE
  8
0
 62
     0
 10
3.15533
 20
1.59289
 30
0.0
 11
3.09375
 21
1.67708
 31
0.0
  0
LINE
  8
0
 62
     0
 10
3.09375
 20
1.67708
 30
0.0
 11
2.99567
 21
1.73872
 31
0.0
  0
LINE
  8
0
 62
     0
 10
2.99567
 20
1.73872
 30
0.0
 11
2.86111
 21
1.77778
 31
0.0
  0
LINE
  8
0
 62
     0
 10
2.86111
 20
1.77778
 30
0.0
 11
2.71528
 21
1.80208
 31
0.0
  0
LINE
  8
0
 62
     0
 10
2.71528
 20
1.80208
 30
0.0
 11
2.55556
 21
1.80556
 31
0.0
  0
LINE
  8
0
 62
     0
 10
2.55556
 20
1.80556
 30
0.0
 11
2.38194
 21
1.78825
 31
0.0
  0
LINE
  8
0
 62
     0
 10
2.38194
 20
1.78825
 30
0.0
 11
2.19444
 21
1.75
 31
0.0
  0
LINE
  8
0
 62
     0
 10
2.19444
 20
1.75
 30
0.0
 11
2.00863
 21
1.70053
 31
0.0
  0
LINE
  8
0
 62
     0
 10
2.00863
 20
1.70053
 30
0.0
 11
1.84022
 21
1.63542
 31
0.0
  0
LINE
  8
0
 62
     0
 10
1.84022
 20
1.63542
 30
0.0
 11
1.68918
 21
1.55469
 31
0.0
  0
LINE
  8
0
 62
     0
 10
1.68918
 20
1.55469
 30
0.0
 11
1.55556
 21
1.45833
 31
0.0
  0
LINE
  8
0
 62
     0
 10
1.55556
 20
1.45833
 30
0.0
 11
1.42876
 21
1.34462
 31
0.0
  0
LINE
  8
0
 62
     0
 10
1.42876
 20
1.34462
 30
0.0
 11
1.34022
 21
1.22569
 31
0.0
  0
LINE
  8
0
 62
     0
 10
1.34022
 20
1.22569
 30
0.0
 11
1.28988
 21
1.10162
 31
0.0
  0
LINE
  8
0
 62
     0
 10
1.28988
 20
1.10162
 30
0.0
 11
1.27778
 21
0.972222
 31
0.0
  0
LINE
  8
0
 62
     0
 10
1.27778
 20
0.972222
 30
0.0
 11
1.2908
 21
0.424479
 31
0.0
  0
LINE
  8
0
 62
     0
 10
1.2908
 20
0.424479
 30
0.0
 11
1.26736
 21
-0.0659722
 31
0.0
  0
LINE
  8
0
 62
     0
 10
1.26736
 20
-0.0659722
 30
0.0
 11
1.20747
 21
-0.499132
 31
0.0
  0
LINE
  8
0
 62
     0
 10
1.20747
 20
-0.499132
 30
0.0
 11
1.11111
 21
-0.875
 31
0.0
  0
LINE
  8
0
 62
     0
 10
1.11111
 20
-0.875
 30
0.0
 11
0.978299
 21
-1.19352
 31
0.0
  0
LINE
  8
0
 62
     0
 10
0.978299
 20
-1.19352
 30
0.0
 11
0.809028
 21
-1.45481
 31
0.0
  0
LINE
  8
0
 62
     0
 10
0.809028
 20
-1.45481
 30
0.0
 11
0.603299
 21
-1.65881
 31
0.0
  0
LINE
  8
0
 62
     0
 10
0.603299
 20
-1.65881
 30
0.0
 11
0.361111
 21
-1.80556
 31
0.0
  0
ENDSEC
  0
EOF
