  0
SECTION
  2
HEADER
  9
$ACADVER
  1
AC1009
  9
$EXTMIN
 10
0.0
 20
0.0
 30
0.0
  9
$EXTMAX
 10
1000.0
 20
1000.0
 30
0.0
  9
$FILLMODE
 70
 0
  9
$SPLFRAME
 70
 1
  0
ENDSEC
  0
SECTION
  2
TABLES
  0
TABLE
  2
LAYER
 70
1
  0
LAYER
  2
0
 70
     0
 62
     7
  6
CONTINUOUS
  0
ENDTAB
  0
ENDSEC
  0
SECTION
  2
ENTITIES
  0
LINE
  8
0
 62
     0
 10
8.29167
 20
5
 30
0.0
 11
8.20828
 21
4.97222
 31
0.0
  0
LINE
  8
0
 62
     0
 10
8.20828
 20
4.97222
 30
0.0
 11
8.15278
 21
4.94444
 31
0.0
  0
LINE
  8
0
 62
     0
 10
8.15278
 20
4.94444
 30
0.0
 11
7.90619
 21
4.80208
 31
0.0
  0
LINE
  8
0
 62
     0
 10
7.90619
 20
4.80208
 30
0.0
 11
7.66667
 21
4.59722
 31
0.0
  0
LINE
  8
0
 62
     0
 10
7.66667
 20
4.59722
 30
0.0
 11
7.53293
 21
4.454
 31
0.0
  0
LINE
  8
0
 62
     0
 10
7.53293
 20
4.454
 30
0.0
 11
7.43744
 21
4.31597
 31
0.0
  0
LINE
  8
0
 62
     0
 10
7.43744
 20
4.31597
 30
0.0
 11
7.38015
 21
4.18317
 31
0.0
  0
LINE
  8
0
 62
     0
 10
7.38015
 20
4.18317
 30
0.0
 11
7.36111
 21
4.05556
 31
0.0
  0
LINE
  8
0
 62
     0
 10
7.36111
 20
4.05556
 30
0.0
 11
7.19786
 21
3.9566
 31
0.0
  0
LINE
  8
0
 62
     0
 10
7.19786
 20
3.9566
 30
0.0
 11
7.04161
 21
3.88194
 31
0.0
  0
LINE
  8
0
 62
     0
 10
7.04161
 20
3.88194
 30
0.0
 11
6.89231
 21
3.8316
 31
0.0
  0
LINE
  8
0
 62
     0
 10
6.89231
 20
3.8316
 30
0.0
 11
6.75
 21
3.80556
 31
0.0
  0
LINE
  8
0
 62
     0
 10
6.75
 20
3.80556
 30
0.0
 11
6.48844
 21
3.80214
 31
0.0
  0
LINE
  8
0
 62
     0
 10
6.48844
 20
3.80214
 30
0.0
 11
6.24561
 21
3.84728
 31
0.0
  0
LINE
  8
0
 62
     0
 10
6.24561
 20
3.84728
 30
0.0
 11
6.02143
 21
3.94103
 31
0.0
  0
LINE
  8
0
 62
     0
 10
6.02143
 20
3.94103
 30
0.0
 11
5.81592
 21
4.08339
 31
0.0
  0
LINE
  8
0
 62
     0
 10
5.81592
 20
4.08339
 30
0.0
 11
5.62907
 21
4.27436
 31
0.0
  0
LINE
  8
0
 62
     0
 10
5.62907
 20
4.27436
 30
0.0
 11
5.46089
 21
4.51394
 31
0.0
  0
LINE
  8
0
 62
     0
 10
5.46089
 20
4.51394
 30
0.0
 11
5.31136
 21
4.80214
 31
0.0
  0
LINE
  8
0
 62
     0
 10
5.31136
 20
4.80214
 30
0.0
 11
5.18056
 21
5.13889
 31
0.0
  0
LINE
  8
0
 62
     0
 10
5.18056
 20
5.13889
 30
0.0
 11
5.17356
 21
5.16319
 31
0.0
  0
LINE
  8
0
 62
     0
 10
5.17356
 20
5.16319
 30
0.0
 11
5.18056
 21
5.15278
 31
0.0
  0
LINE
  8
0
 62
     0
 10
5.18056
 20
5.15278
 30
0.0
 11
5.06706
 21
5.70557
 31
0.0
  0
LINE
  8
0
 62
     0
 10
5.06706
 20
5.70557
 30
0.0
 11
4.99046
 21
6.23182
 31
0.0
  0
LINE
  8
0
 62
     0
 10
4.99046
 20
6.23182
 30
0.0
 11
4.95074
 21
6.73161
 31
0.0
  0
LINE
  8
0
 62
     0
 10
4.95074
 20
6.73161
 30
0.0
 11
4.94792
 21
7.20492
 31
0.0
  0
LINE
  8
0
 62
     0
 10
4.94792
 20
7.20492
 30
0.0
 11
4.98199
 21
7.65175
 31
0.0
  0
LINE
  8
0
 62
     0
 10
4.98199
 20
7.65175
 30
0.0
 11
5.05296
 21
8.0721
 31
0.0
  0
LINE
  8
0
 62
     0
 10
5.05296
 20
8.0721
 30
0.0
 11
5.16081
 21
8.46599
 31
0.0
  0
LINE
  8
0
 62
     0
 10
5.16081
 20
8.46599
 30
0.0
 11
5.30556
 21
8.83333
 31
0.0
  0
LINE
  8
0
 62
     0
 10
5.30556
 20
8.83333
 30
0.0
 11
5.41689
 21
9.05496
 31
0.0
  0
LINE
  8
0
 62
     0
 10
5.41689
 20
9.05496
 30
0.0
 11
5.5356
 21
9.25439
 31
0.0
  0
LINE
  8
0
 62
     0
 10
5.5356
 20
9.25439
 30
0.0
 11
5.66168
 21
9.43169
 31
0.0
  0
LINE
  8
0
 62
     0
 10
5.66168
 20
9.43169
 30
0.0
 11
5.79514
 21
9.58686
 31
0.0
  0
LINE
  8
0
 62
     0
 10
5.79514
 20
9.58686
 30
0.0
 11
5.93599
 21
9.71989
 31
0.0
  0
LINE
  8
0
 62
     0
 10
5.93599
 20
9.71989
 30
0.0
 11
6.08421
 21
9.83078
 31
0.0
  0
LINE
  8
0
 62
     0
 10
6.08421
 20
9.83078
 30
0.0
 11
6.23981
 21
9.91954
 31
0.0
  0
LINE
  8
0
 62
     0
 10
6.23981
 20
9.91954
 30
0.0
 11
6.40278
 21
9.98611
 31
0.0
  0
LINE
  8
0
 62
     0
 10
6.40278
 20
9.98611
 30
0.0
 11
6.57508
 21
10.0362
 31
0.0
  0
LINE
  8
0
 62
     0
 10
6.57508
 20
10.0362
 30
0.0
 11
6.75174
 21
10.0616
 31
0.0
  0
LINE
  8
0
 62
     0
 10
6.75174
 20
10.0616
 30
0.0
 11
6.93272
 21
10.0623
 31
0.0
  0
LINE
  8
0
 62
     0
 10
6.93272
 20
10.0623
 30
0.0
 11
7.11806
 21
10.0382
 31
0.0
  0
LINE
  8
0
 62
     0
 10
7.11806
 20
10.0382
 30
0.0
 11
7.30772
 21
9.98936
 31
0.0
  0
LINE
  8
0
 62
     0
 10
7.30772
 20
9.98936
 30
0.0
 11
7.50174
 21
9.91581
 31
0.0
  0
LINE
  8
0
 62
     0
 10
7.50174
 20
9.91581
 30
0.0
 11
7.70008
 21
9.81749
 31
0.0
  0
LINE
  8
0
 62
     0
 10
7.70008
 20
9.81749
 30
0.0
 11
7.90278
 21
9.69444
 31
0.0
  0
LINE
  8
0
 62
     0
 10
7.90278
 20
9.69444
 30
0.0
 11
8.12847
 21
9.52783
 31
0.0
  0
LINE
  8
0
 62
     0
 10
8.12847
 20
9.52783
 30
0.0
 11
8.33333
 21
9.33333
 31
0.0
  0
LINE
  8
0
 62
     0
 10
8.33333
 20
9.33333
 30
0.0
 11
8.33936
 21
9.27957
 31
0.0
  0
LINE
  8
0
 62
     0
 10
8.33936
 20
9.27957
 30
0.0
 11
8.35758
 21
9.22922
 31
0.0
  0
LINE
  8
0
 62
     0
 10
8.35758
 20
9.22922
 30
0.0
 11
8.38797
 21
9.18235
 31
0.0
  0
LINE
  8
0
 62
     0
 10
8.38797
 20
9.18235
 30
0.0
 11
8.43056
 21
9.13889
 31
0.0
  0
LINE
  8
0
 62
     0
 10
8.43056
 20
9.13889
 30
0.0
 11
8.43658
 21
9.12935
 31
0.0
  0
LINE
  8
0
 62
     0
 10
8.43658
 20
9.12935
 30
0.0
 11
8.45481
 21
9.11458
 31
0.0
  0
LINE
  8
0
 62
     0
 10
8.45481
 20
9.11458
 30
0.0
 11
8.48519
 21
9.09467
 31
0.0
  0
LINE
  8
0
 62
     0
 10
8.48519
 20
9.09467
 30
0.0
 11
8.52778
 21
9.06944
 31
0.0
  0
LINE
  8
0
 62
     0
 10
8.52778
 20
9.06944
 30
0.0
 11
8.74474
 21
8.72049
 31
0.0
  0
LINE
  8
0
 62
     0
 10
8.74474
 20
8.72049
 30
0.0
 11
8.90972
 21
8.34028
 31
0.0
  0
LINE
  8
0
 62
     0
 10
8.90972
 20
8.34028
 30
0.0
 11
9.02257
 21
7.92882
 31
0.0
  0
LINE
  8
0
 62
     0
 10
9.02257
 20
7.92882
 30
0.0
 11
9.08333
 21
7.48611
 31
0.0
  0
LINE
  8
0
 62
     0
 10
9.08333
 20
7.48611
 30
0.0
 11
9.09196
 21
7.04949
 31
0.0
  0
LINE
  8
0
 62
     0
 10
9.09196
 20
7.04949
 30
0.0
 11
9.04861
 21
6.62847
 31
0.0
  0
LINE
  8
0
 62
     0
 10
9.04861
 20
6.62847
 30
0.0
 11
8.95313
 21
6.2231
 31
0.0
  0
LINE
  8
0
 62
     0
 10
8.95313
 20
6.2231
 30
0.0
 11
8.80556
 21
5.83333
 31
0.0
  0
LINE
  8
0
 62
     0
 10
8.80556
 20
5.83333
 30
0.0
 11
8.71094
 21
5.64589
 31
0.0
  0
LINE
  8
0
 62
     0
 10
8.71094
 20
5.64589
 30
0.0
 11
8.59375
 21
5.4445
 31
0.0
  0
LINE
  8
0
 62
     0
 10
8.59375
 20
5.4445
 30
0.0
 11
8.454
 21
5.22922
 31
0.0
  0
LINE
  8
0
 62
     0
 10
8.454
 20
5.22922
 30
0.0
 11
8.29167
 21
5
 31
0.0
  0
LINE
  8
0
 62
     0
 10
10.875
 20
11.1806
 30
0.0
 11
10.8682
 21
11.1775
 31
0.0
  0
LINE
  8
0
 62
     0
 10
10.8682
 20
11.1775
 30
0.0
 11
10.8342
 21
11.1545
 31
0.0
  0
LINE
  8
0
 62
     0
 10
10.8342
 20
11.1545
 30
0.0
 11
10.7727
 21
11.1115
 31
0.0
  0
LINE
  8
0
 62
     0
 10
10.7727
 20
11.1115
 30
0.0
 11
10.684
 21
11.0486
 31
0.0
  0
LINE
  8
0
 62
     0
 10
10.684
 20
11.0486
 30
0.0
 11
10.5679
 21
10.9657
 31
0.0
  0
LINE
  8
0
 62
     0
 10
10.5679
 20
10.9657
 30
0.0
 11
10.4245
 21
10.8628
 31
0.0
  0
LINE
  8
0
 62
     0
 10
10.4245
 20
10.8628
 30
0.0
 11
10.2537
 21
10.74
 31
0.0
  0
LINE
  8
0
 62
     0
 10
10.2537
 20
10.74
 30
0.0
 11
10.0556
 21
10.5972
 31
0.0
  0
LINE
  8
0
 62
     0
 10
10.0556
 20
10.5972
 30
0.0
 11
9.53212
 21
10.8516
 31
0.0
  0
LINE
  8
0
 62
     0
 10
9.53212
 20
10.8516
 30
0.0
 11
8.98958
 21
11.0175
 31
0.0
  0
LINE
  8
0
 62
     0
 10
8.98958
 20
11.0175
 30
0.0
 11
8.42796
 21
11.0947
 31
0.0
  0
LINE
  8
0
 62
     0
 10
8.42796
 20
11.0947
 30
0.0
 11
7.84722
 21
11.0833
 31
0.0
  0
LINE
  8
0
 62
     0
 10
7.84722
 20
11.0833
 30
0.0
 11
7.3125
 21
11.0148
 31
0.0
  0
LINE
  8
0
 62
     0
 10
7.3125
 20
11.0148
 30
0.0
 11
6.79167
 21
10.9201
 31
0.0
  0
LINE
  8
0
 62
     0
 10
6.79167
 20
10.9201
 30
0.0
 11
6.28472
 21
10.7995
 31
0.0
  0
LINE
  8
0
 62
     0
 10
6.28472
 20
10.7995
 30
0.0
 11
5.79167
 21
10.6528
 31
0.0
  0
LINE
  8
0
 62
     0
 10
5.79167
 20
10.6528
 30
0.0
 11
5.68701
 21
10.7969
 31
0.0
  0
LINE
  8
0
 62
     0
 10
5.68701
 20
10.7969
 30
0.0
 11
5.56765
 21
10.9583
 31
0.0
  0
LINE
  8
0
 62
     0
 10
5.56765
 20
10.9583
 30
0.0
 11
5.43354
 21
11.1372
 31
0.0
  0
LINE
  8
0
 62
     0
 10
5.43354
 20
11.1372
 30
0.0
 11
5.28467
 21
11.3333
 31
0.0
  0
LINE
  8
0
 62
     0
 10
5.28467
 20
11.3333
 30
0.0
 11
5.12104
 21
11.5469
 31
0.0
  0
LINE
  8
0
 62
     0
 10
5.12104
 20
11.5469
 30
0.0
 11
4.94265
 21
11.7778
 31
0.0
  0
LINE
  8
0
 62
     0
 10
4.94265
 20
11.7778
 30
0.0
 11
4.74951
 21
12.026
 31
0.0
  0
LINE
  8
0
 62
     0
 10
4.74951
 20
12.026
 30
0.0
 11
4.54167
 21
12.2917
 31
0.0
  0
LINE
  8
0
 62
     0
 10
4.54167
 20
12.2917
 30
0.0
 11
4.33675
 21
12.5482
 31
0.0
  0
LINE
  8
0
 62
     0
 10
4.33675
 20
12.5482
 30
0.0
 11
4.14578
 21
12.79
 31
0.0
  0
LINE
  8
0
 62
     0
 10
4.14578
 20
12.79
 30
0.0
 11
3.96869
 21
13.017
 31
0.0
  0
LINE
  8
0
 62
     0
 10
3.96869
 20
13.017
 30
0.0
 11
3.8055
 21
13.2292
 31
0.0
  0
LINE
  8
0
 62
     0
 10
3.8055
 20
13.2292
 30
0.0
 11
3.65619
 21
13.4267
 31
0.0
  0
LINE
  8
0
 62
     0
 10
3.65619
 20
13.4267
 30
0.0
 11
3.52078
 21
13.6094
 31
0.0
  0
LINE
  8
0
 62
     0
 10
3.52078
 20
13.6094
 30
0.0
 11
3.39925
 21
13.7774
 31
0.0
  0
LINE
  8
0
 62
     0
 10
3.39925
 20
13.7774
 30
0.0
 11
3.29167
 21
13.9306
 31
0.0
  0
LINE
  8
0
 62
     0
 10
3.29167
 20
13.9306
 30
0.0
 11
3.19417
 21
14.0412
 31
0.0
  0
LINE
  8
0
 62
     0
 10
3.19417
 20
14.0412
 30
0.0
 11
3.06853
 21
14.1233
 31
0.0
  0
LINE
  8
0
 62
     0
 10
3.06853
 20
14.1233
 30
0.0
 11
2.91465
 21
14.1767
 31
0.0
  0
LINE
  8
0
 62
     0
 10
2.91465
 20
14.1767
 30
0.0
 11
2.73258
 21
14.2014
 31
0.0
  0
LINE
  8
0
 62
     0
 10
2.73258
 20
14.2014
 30
0.0
 11
2.52229
 21
14.1975
 31
0.0
  0
LINE
  8
0
 62
     0
 10
2.52229
 20
14.1975
 30
0.0
 11
2.28381
 21
14.165
 31
0.0
  0
LINE
  8
0
 62
     0
 10
2.28381
 20
14.165
 30
0.0
 11
2.01708
 21
14.1037
 31
0.0
  0
LINE
  8
0
 62
     0
 10
2.01708
 20
14.1037
 30
0.0
 11
1.72222
 21
14.0139
 31
0.0
  0
LINE
  8
0
 62
     0
 10
1.72222
 20
14.0139
 30
0.0
 11
1.49046
 21
13.9271
 31
0.0
  0
LINE
  8
0
 62
     0
 10
1.49046
 20
13.9271
 30
0.0
 11
1.28125
 21
13.8334
 31
0.0
  0
LINE
  8
0
 62
     0
 10
1.28125
 20
13.8334
 30
0.0
 11
1.09462
 21
13.7327
 31
0.0
  0
LINE
  8
0
 62
     0
 10
1.09462
 20
13.7327
 30
0.0
 11
0.930556
 21
13.625
 31
0.0
  0
LINE
  8
0
 62
     0
 10
0.930556
 20
13.625
 30
0.0
 11
0.796875
 21
13.5121
 31
0.0
  0
LINE
  8
0
 62
     0
 10
0.796875
 20
13.5121
 30
0.0
 11
0.715278
 21
13.4097
 31
0.0
  0
LINE
  8
0
 62
     0
 10
0.715278
 20
13.4097
 30
0.0
 11
0.68571
 21
13.3177
 31
0.0
  0
LINE
  8
0
 62
     0
 10
0.68571
 20
13.3177
 30
0.0
 11
0.708333
 21
13.2361
 31
0.0
  0
LINE
  8
0
 62
     0
 10
0.708333
 20
13.2361
 30
0.0
 11
0.815972
 21
13.0855
 31
0.0
  0
LINE
  8
0
 62
     0
 10
0.815972
 20
13.0855
 30
0.0
 11
0.944444
 21
12.9115
 31
0.0
  0
LINE
  8
0
 62
     0
 10
0.944444
 20
12.9115
 30
0.0
 11
1.09375
 21
12.714
 31
0.0
  0
LINE
  8
0
 62
     0
 10
1.09375
 20
12.714
 30
0.0
 11
1.26389
 21
12.4931
 31
0.0
  0
LINE
  8
0
 62
     0
 10
1.26389
 20
12.4931
 30
0.0
 11
1.45481
 21
12.2487
 31
0.0
  0
LINE
  8
0
 62
     0
 10
1.45481
 20
12.2487
 30
0.0
 11
1.66661
 21
11.981
 31
0.0
  0
LINE
  8
0
 62
     0
 10
1.66661
 20
11.981
 30
0.0
 11
1.89925
 21
11.6897
 31
0.0
  0
LINE
  8
0
 62
     0
 10
1.89925
 20
11.6897
 30
0.0
 11
2.15278
 21
11.375
 31
0.0
  0
LINE
  8
0
 62
     0
 10
2.15278
 20
11.375
 30
0.0
 11
2.37804
 21
11.087
 31
0.0
  0
LINE
  8
0
 62
     0
 10
2.37804
 20
11.087
 30
0.0
 11
2.58854
 21
10.8134
 31
0.0
  0
LINE
  8
0
 62
     0
 10
2.58854
 20
10.8134
 30
0.0
 11
2.78429
 21
10.554
 31
0.0
  0
LINE
  8
0
 62
     0
 10
2.78429
 20
10.554
 30
0.0
 11
2.96528
 21
10.309
 31
0.0
  0
LINE
  8
0
 62
     0
 10
2.96528
 20
10.309
 30
0.0
 11
3.13151
 21
10.0784
 31
0.0
  0
LINE
  8
0
 62
     0
 10
3.13151
 20
10.0784
 30
0.0
 11
3.28299
 21
9.86203
 31
0.0
  0
LINE
  8
0
 62
     0
 10
3.28299
 20
9.86203
 30
0.0
 11
3.41971
 21
9.66
 31
0.0
  0
LINE
  8
0
 62
     0
 10
3.41971
 20
9.66
 30
0.0
 11
3.54167
 21
9.47222
 31
0.0
  0
LINE
  8
0
 62
     0
 10
3.54167
 20
9.47222
 30
0.0
 11
3.59722
 21
9.41667
 31
0.0
  0
LINE
  8
0
 62
     0
 10
3.59722
 20
9.41667
 30
0.0
 11
3.56597
 21
9.38889
 31
0.0
  0
LINE
  8
0
 62
     0
 10
3.56597
 20
9.38889
 30
0.0
 11
3.55556
 21
9.38889
 31
0.0
  0
LINE
  8
0
 62
     0
 10
3.55556
 20
9.38889
 30
0.0
 11
3.22157
 21
9.03782
 31
0.0
  0
LINE
  8
0
 62
     0
 10
3.22157
 20
9.03782
 30
0.0
 11
2.94185
 21
8.6511
 31
0.0
  0
LINE
  8
0
 62
     0
 10
2.94185
 20
8.6511
 30
0.0
 11
2.71636
 21
8.22879
 31
0.0
  0
LINE
  8
0
 62
     0
 10
2.71636
 20
8.22879
 30
0.0
 11
2.54514
 21
7.77089
 31
0.0
  0
LINE
  8
0
 62
     0
 10
2.54514
 20
7.77089
 30
0.0
 11
2.42817
 21
7.2774
 31
0.0
  0
LINE
  8
0
 62
     0
 10
2.42817
 20
7.2774
 30
0.0
 11
2.36546
 21
6.74832
 31
0.0
  0
LINE
  8
0
 62
     0
 10
2.36546
 20
6.74832
 30
0.0
 11
2.35699
 21
6.18365
 31
0.0
  0
LINE
  8
0
 62
     0
 10
2.35699
 20
6.18365
 30
0.0
 11
2.40278
 21
5.58333
 31
0.0
  0
LINE
  8
0
 62
     0
 10
2.40278
 20
5.58333
 30
0.0
 11
2.39231
 21
5.53808
 31
0.0
  0
LINE
  8
0
 62
     0
 10
2.39231
 20
5.53808
 30
0.0
 11
2.38889
 21
5.51389
 31
0.0
  0
LINE
  8
0
 62
     0
 10
2.38889
 20
5.51389
 30
0.0
 11
2.42356
 21
5.15631
 31
0.0
  0
LINE
  8
0
 62
     0
 10
2.42356
 20
5.15631
 30
0.0
 11
2.48606
 21
4.81944
 31
0.0
  0
LINE
  8
0
 62
     0
 10
2.48606
 20
4.81944
 30
0.0
 11
2.57633
 21
4.50347
 31
0.0
  0
LINE
  8
0
 62
     0
 10
2.57633
 20
4.50347
 30
0.0
 11
2.69444
 21
4.20833
 31
0.0
  0
LINE
  8
0
 62
     0
 10
2.69444
 20
4.20833
 30
0.0
 11
2.58458
 21
4.11507
 31
0.0
  0
LINE
  8
0
 62
     0
 10
2.58458
 20
4.11507
 30
0.0
 11
2.46349
 21
4.00179
 31
0.0
  0
LINE
  8
0
 62
     0
 10
2.46349
 20
4.00179
 30
0.0
 11
2.33111
 21
3.86854
 31
0.0
  0
LINE
  8
0
 62
     0
 10
2.33111
 20
3.86854
 30
0.0
 11
2.18744
 21
3.71533
 31
0.0
  0
LINE
  8
0
 62
     0
 10
2.18744
 20
3.71533
 30
0.0
 11
2.0325
 21
3.54215
 31
0.0
  0
LINE
  8
0
 62
     0
 10
2.0325
 20
3.54215
 30
0.0
 11
1.86626
 21
3.34901
 31
0.0
  0
LINE
  8
0
 62
     0
 10
1.86626
 20
3.34901
 30
0.0
 11
1.68875
 21
3.1359
 31
0.0
  0
LINE
  8
0
 62
     0
 10
1.68875
 20
3.1359
 30
0.0
 11
1.5
 21
2.90278
 31
0.0
  0
LINE
  8
0
 62
     0
 10
1.5
 20
2.90278
 30
0.0
 11
1.15099
 21
2.48443
 31
0.0
  0
LINE
  8
0
 62
     0
 10
1.15099
 20
2.48443
 30
0.0
 11
0.826335
 21
2.132
 31
0.0
  0
LINE
  8
0
 62
     0
 10
0.826335
 20
2.132
 30
0.0
 11
0.525988
 21
1.84554
 31
0.0
  0
LINE
  8
0
 62
     0
 10
0.525988
 20
1.84554
 30
0.0
 11
0.25
 21
1.625
 31
0.0
  0
LINE
  8
0
 62
     0
 10
0.25
 20
1.625
 30
0.0
 11
0.115451
 21
1.50613
 31
0.0
  0
LINE
  8
0
 62
     0
 10
0.115451
 20
1.50613
 30
0.0
 11
0.03125
 21
1.38547
 31
0.0
  0
LINE
  8
0
 62
     0
 10
0.03125
 20
1.38547
 30
0.0
 11
-0.00260417
 21
1.26307
 31
0.0
  0
LINE
  8
0
 62
     0
 10
-0.00260417
 20
1.26307
 30
0.0
 11
0.0138889
 21
1.13889
 31
0.0
  0
LINE
  8
0
 62
     0
 10
0.0138889
 20
1.13889
 30
0.0
 11
0.0685221
 21
1.01997
 31
0.0
  0
LINE
  8
0
 62
     0
 10
0.0685221
 20
1.01997
 30
0.0
 11
0.16314
 21
0.927083
 31
0.0
  0
LINE
  8
0
 62
     0
 10
0.16314
 20
0.927083
 30
0.0
 11
0.297689
 21
0.860297
 31
0.0
  0
LINE
  8
0
 62
     0
 10
0.297689
 20
0.860297
 30
0.0
 11
0.472222
 21
0.819444
 31
0.0
  0
LINE
  8
0
 62
     0
 10
0.472222
 20
0.819444
 30
0.0
 11
0.934896
 21
0.797743
 31
0.0
  0
LINE
  8
0
 62
     0
 10
0.934896
 20
0.797743
 30
0.0
 11
1.39236
 21
0.871528
 31
0.0
  0
LINE
  8
0
 62
     0
 10
1.39236
 20
0.871528
 30
0.0
 11
1.84457
 21
1.0408
 31
0.0
  0
LINE
  8
0
 62
     0
 10
1.84457
 20
1.0408
 30
0.0
 11
2.29167
 21
1.30556
 31
0.0
  0
LINE
  8
0
 62
     0
 10
2.29167
 20
1.30556
 30
0.0
 11
2.42876
 21
1.40994
 31
0.0
  0
LINE
  8
0
 62
     0
 10
2.42876
 20
1.40994
 30
0.0
 11
2.57633
 21
1.5356
 31
0.0
  0
LINE
  8
0
 62
     0
 10
2.57633
 20
1.5356
 30
0.0
 11
2.73432
 21
1.68251
 31
0.0
  0
LINE
  8
0
 62
     0
 10
2.73432
 20
1.68251
 30
0.0
 11
2.90278
 21
1.85069
 31
0.0
  0
LINE
  8
0
 62
     0
 10
2.90278
 20
1.85069
 30
0.0
 11
3.0816
 21
2.04015
 31
0.0
  0
LINE
  8
0
 62
     0
 10
3.0816
 20
2.04015
 30
0.0
 11
3.27083
 21
2.25088
 31
0.0
  0
LINE
  8
0
 62
     0
 10
3.27083
 20
2.25088
 30
0.0
 11
3.47049
 21
2.48286
 31
0.0
  0
LINE
  8
0
 62
     0
 10
3.47049
 20
2.48286
 30
0.0
 11
3.68056
 21
2.73611
 31
0.0
  0
LINE
  8
0
 62
     0
 10
3.68056
 20
2.73611
 30
0.0
 11
3.72217
 21
2.80208
 31
0.0
  0
LINE
  8
0
 62
     0
 10
3.72217
 20
2.80208
 30
0.0
 11
3.79167
 21
2.88889
 31
0.0
  0
LINE
  8
0
 62
     0
 10
3.79167
 20
2.88889
 30
0.0
 11
3.86458
 21
2.97228
 31
0.0
  0
LINE
  8
0
 62
     0
 10
3.86458
 20
2.97228
 30
0.0
 11
3.91667
 21
3.02778
 31
0.0
  0
LINE
  8
0
 62
     0
 10
3.91667
 20
3.02778
 30
0.0
 11
4.31793
 21
2.8974
 31
0.0
  0
LINE
  8
0
 62
     0
 10
4.31793
 20
2.8974
 30
0.0
 11
4.74393
 21
2.81862
 31
0.0
  0
LINE
  8
0
 62
     0
 10
4.74393
 20
2.81862
 30
0.0
 11
5.19467
 21
2.7915
 31
0.0
  0
LINE
  8
0
 62
     0
 10
5.19467
 20
2.7915
 30
0.0
 11
5.67014
 21
2.81603
 31
0.0
  0
LINE
  8
0
 62
     0
 10
5.67014
 20
2.81603
 30
0.0
 11
6.17031
 21
2.89219
 31
0.0
  0
LINE
  8
0
 62
     0
 10
6.17031
 20
2.89219
 30
0.0
 11
6.69526
 21
3.02001
 31
0.0
  0
LINE
  8
0
 62
     0
 10
6.69526
 20
3.02001
 30
0.0
 11
7.24496
 21
3.19949
 31
0.0
  0
LINE
  8
0
 62
     0
 10
7.24496
 20
3.19949
 30
0.0
 11
7.81944
 21
3.43056
 31
0.0
  0
LINE
  8
0
 62
     0
 10
7.81944
 20
3.43056
 30
0.0
 11
8.0434
 21
3.15625
 31
0.0
  0
LINE
  8
0
 62
     0
 10
8.0434
 20
3.15625
 30
0.0
 11
8.28472
 21
2.80556
 31
0.0
  0
LINE
  8
0
 62
     0
 10
8.28472
 20
2.80556
 30
0.0
 11
8.5434
 21
2.37847
 31
0.0
  0
LINE
  8
0
 62
     0
 10
8.5434
 20
2.37847
 30
0.0
 11
8.81944
 21
1.875
 31
0.0
  0
LINE
  8
0
 62
     0
 10
8.81944
 20
1.875
 30
0.0
 11
9.10504
 21
1.35417
 31
0.0
  0
LINE
  8
0
 62
     0
 10
9.10504
 20
1.35417
 30
0.0
 11
9.36458
 21
0.916667
 31
0.0
  0
LINE
  8
0
 62
     0
 10
9.36458
 20
0.916667
 30
0.0
 11
9.5981
 21
0.5625
 31
0.0
  0
LINE
  8
0
 62
     0
 10
9.5981
 20
0.5625
 30
0.0
 11
9.80556
 21
0.291667
 31
0.0
  0
LINE
  8
0
 62
     0
 10
9.80556
 20
0.291667
 30
0.0
 11
9.94179
 21
0.169325
 31
0.0
  0
LINE
  8
0
 62
     0
 10
9.94179
 20
0.169325
 30
0.0
 11
10.1146
 21
0.0799154
 31
0.0
  0
LINE
  8
0
 62
     0
 10
10.1146
 20
0.0799154
 30
0.0
 11
10.3238
 21
0.0234918
 31
0.0
  0
LINE
  8
0
 62
     0
 10
10.3238
 20
0.0234918
 30
0.0
 11
10.5694
 21
-0
 31
0.0
  0
LINE
  8
0
 62
     0
 10
10.5694
 20
-0
 30
0.0
 11
10.8064
 21
0.00694444
 31
0.0
  0
LINE
  8
0
 62
     0
 10
10.8064
 20
0.00694444
 30
0.0
 11
11.0451
 21
0.0416667
 31
0.0
  0
LINE
  8
0
 62
     0
 10
11.0451
 20
0.0416667
 30
0.0
 11
11.2856
 21
0.104167
 31
0.0
  0
LINE
  8
0
 62
     0
 10
11.2856
 20
0.104167
 30
0.0
 11
11.5278
 21
0.194444
 31
0.0
  0
LINE
  8
0
 62
     0
 10
11.5278
 20
0.194444
 30
0.0
 11
11.7587
 21
0.304688
 31
0.0
  0
LINE
  8
0
 62
     0
 10
11.7587
 20
0.304688
 30
0.0
 11
11.9514
 21
0.427083
 31
0.0
  0
LINE
  8
0
 62
     0
 10
11.9514
 20
0.427083
 30
0.0
 11
12.1059
 21
0.561632
 31
0.0
  0
LINE
  8
0
 62
     0
 10
12.1059
 20
0.561632
 30
0.0
 11
12.2222
 21
0.708333
 31
0.0
  0
LINE
  8
0
 62
     0
 10
12.2222
 20
0.708333
 30
0.0
 11
12.3081
 21
0.880262
 31
0.0
  0
LINE
  8
0
 62
     0
 10
12.3081
 20
0.880262
 30
0.0
 11
12.3298
 21
1.04867
 31
0.0
  0
LINE
  8
0
 62
     0
 10
12.3298
 20
1.04867
 30
0.0
 11
12.2873
 21
1.2136
 31
0.0
  0
LINE
  8
0
 62
     0
 10
12.2873
 20
1.2136
 30
0.0
 11
12.1806
 21
1.375
 31
0.0
  0
LINE
  8
0
 62
     0
 10
12.1806
 20
1.375
 30
0.0
 11
12.085
 21
1.49914
 31
0.0
  0
LINE
  8
0
 62
     0
 10
12.085
 20
1.49914
 30
0.0
 11
11.9791
 21
1.64931
 31
0.0
  0
LINE
  8
0
 62
     0
 10
11.9791
 20
1.64931
 30
0.0
 11
11.8628
 21
1.82553
 31
0.0
  0
LINE
  8
0
 62
     0
 10
11.8628
 20
1.82553
 30
0.0
 11
11.7361
 21
2.02778
 31
0.0
  0
LINE
  8
0
 62
     0
 10
11.7361
 20
2.02778
 30
0.0
 11
11.5989
 21
2.25612
 31
0.0
  0
LINE
  8
0
 62
     0
 10
11.5989
 20
2.25612
 30
0.0
 11
11.4513
 21
2.51047
 31
0.0
  0
LINE
  8
0
 62
     0
 10
11.4513
 20
2.51047
 30
0.0
 11
11.2933
 21
2.79085
 31
0.0
  0
LINE
  8
0
 62
     0
 10
11.2933
 20
2.79085
 30
0.0
 11
11.125
 21
3.09722
 31
0.0
  0
LINE
  8
0
 62
     0
 10
11.125
 20
3.09722
 30
0.0
 11
10.8238
 21
3.62679
 31
0.0
  0
LINE
  8
0
 62
     0
 10
10.8238
 20
3.62679
 30
0.0
 11
10.5313
 21
4.07644
 31
0.0
  0
LINE
  8
0
 62
     0
 10
10.5313
 20
4.07644
 30
0.0
 11
10.2474
 21
4.44624
 31
0.0
  0
LINE
  8
0
 62
     0
 10
10.2474
 20
4.44624
 30
0.0
 11
9.97222
 21
4.73611
 31
0.0
  0
LINE
  8
0
 62
     0
 10
9.97222
 20
4.73611
 30
0.0
 11
10.4887
 21
5.21007
 31
0.0
  0
LINE
  8
0
 62
     0
 10
10.4887
 20
5.21007
 30
0.0
 11
10.9131
 21
5.6875
 31
0.0
  0
LINE
  8
0
 62
     0
 10
10.9131
 20
5.6875
 30
0.0
 11
11.2456
 21
6.1684
 31
0.0
  0
LINE
  8
0
 62
     0
 10
11.2456
 20
6.1684
 30
0.0
 11
11.4861
 21
6.65278
 31
0.0
  0
LINE
  8
0
 62
     0
 10
11.4861
 20
6.65278
 30
0.0
 11
11.6223
 21
7.06511
 31
0.0
  0
LINE
  8
0
 62
     0
 10
11.6223
 20
7.06511
 30
0.0
 11
11.7048
 21
7.46875
 31
0.0
  0
LINE
  8
0
 62
     0
 10
11.7048
 20
7.46875
 30
0.0
 11
11.7335
 21
7.86372
 31
0.0
  0
LINE
  8
0
 62
     0
 10
11.7335
 20
7.86372
 30
0.0
 11
11.7083
 21
8.25
 31
0.0
  0
LINE
  8
0
 62
     0
 10
11.7083
 20
8.25
 30
0.0
 11
11.6293
 21
8.62761
 31
0.0
  0
LINE
  8
0
 62
     0
 10
11.6293
 20
8.62761
 30
0.0
 11
11.4965
 21
8.99653
 31
0.0
  0
LINE
  8
0
 62
     0
 10
11.4965
 20
8.99653
 30
0.0
 11
11.3098
 21
9.35678
 31
0.0
  0
LINE
  8
0
 62
     0
 10
11.3098
 20
9.35678
 30
0.0
 11
11.0694
 21
9.70833
 31
0.0
  0
LINE
  8
0
 62
     0
 10
11.0694
 20
9.70833
 30
0.0
 11
11.373
 21
9.90039
 31
0.0
  0
LINE
  8
0
 62
     0
 10
11.373
 20
9.90039
 30
0.0
 11
11.6586
 21
10.0807
 31
0.0
  0
LINE
  8
0
 62
     0
 10
11.6586
 20
10.0807
 30
0.0
 11
11.9264
 21
10.2493
 31
0.0
  0
LINE
  8
0
 62
     0
 10
11.9264
 20
10.2493
 30
0.0
 11
12.1762
 21
10.4063
 31
0.0
  0
LINE
  8
0
 62
     0
 10
12.1762
 20
10.4063
 30
0.0
 11
12.4082
 21
10.5514
 31
0.0
  0
LINE
  8
0
 62
     0
 10
12.4082
 20
10.5514
 30
0.0
 11
12.6222
 21
10.6849
 31
0.0
  0
LINE
  8
0
 62
     0
 10
12.6222
 20
10.6849
 30
0.0
 11
12.8183
 21
10.8066
 31
0.0
  0
LINE
  8
0
 62
     0
 10
12.8183
 20
10.8066
 30
0.0
 11
12.9965
 21
10.9167
 31
0.0
  0
LINE
  8
0
 62
     0
 10
12.9965
 20
10.9167
 30
0.0
 11
13.1568
 21
11.015
 31
0.0
  0
LINE
  8
0
 62
     0
 10
13.1568
 20
11.015
 30
0.0
 11
13.2993
 21
11.1016
 31
0.0
  0
LINE
  8
0
 62
     0
 10
13.2993
 20
11.1016
 30
0.0
 11
13.4238
 21
11.1764
 31
0.0
  0
LINE
  8
0
 62
     0
 10
13.4238
 20
11.1764
 30
0.0
 11
13.5304
 21
11.2396
 31
0.0
  0
LINE
  8
0
 62
     0
 10
13.5304
 20
11.2396
 30
0.0
 11
13.6191
 21
11.291
 31
0.0
  0
LINE
  8
0
 62
     0
 10
13.6191
 20
11.291
 30
0.0
 11
13.6899
 21
11.3307
 31
0.0
  0
LINE
  8
0
 62
     0
 10
13.6899
 20
11.3307
 30
0.0
 11
13.7428
 21
11.3587
 31
0.0
  0
LINE
  8
0
 62
     0
 10
13.7428
 20
11.3587
 30
0.0
 11
13.7778
 21
11.375
 31
0.0
  0
LINE
  8
0
 62
     0
 10
13.7778
 20
11.375
 30
0.0
 11
14.1007
 21
11.5382
 31
0.0
  0
LINE
  8
0
 62
     0
 10
14.1007
 20
11.5382
 30
0.0
 11
14.375
 21
11.7222
 31
0.0
  0
LINE
  8
0
 62
     0
 10
14.375
 20
11.7222
 30
0.0
 11
14.5286
 21
11.8829
 31
0.0
  0
LINE
  8
0
 62
     0
 10
14.5286
 20
11.8829
 30
0.0
 11
14.6007
 21
12.0313
 31
0.0
  0
LINE
  8
0
 62
     0
 10
14.6007
 20
12.0313
 30
0.0
 11
14.5911
 21
12.1676
 31
0.0
  0
LINE
  8
0
 62
     0
 10
14.5911
 20
12.1676
 30
0.0
 11
14.5
 21
12.2917
 31
0.0
  0
LINE
  8
0
 62
     0
 10
14.5
 20
12.2917
 30
0.0
 11
14.364
 21
12.388
 31
0.0
  0
LINE
  8
0
 62
     0
 10
14.364
 20
12.388
 30
0.0
 11
14.2065
 21
12.4549
 31
0.0
  0
LINE
  8
0
 62
     0
 10
14.2065
 20
12.4549
 30
0.0
 11
14.0272
 21
12.4922
 31
0.0
  0
LINE
  8
0
 62
     0
 10
14.0272
 20
12.4922
 30
0.0
 11
13.8263
 21
12.5
 31
0.0
  0
LINE
  8
0
 62
     0
 10
13.8263
 20
12.5
 30
0.0
 11
13.6037
 21
12.4783
 31
0.0
  0
LINE
  8
0
 62
     0
 10
13.6037
 20
12.4783
 30
0.0
 11
13.3593
 21
12.4271
 31
0.0
  0
LINE
  8
0
 62
     0
 10
13.3593
 20
12.4271
 30
0.0
 11
13.0933
 21
12.3464
 31
0.0
  0
LINE
  8
0
 62
     0
 10
13.0933
 20
12.3464
 30
0.0
 11
12.8056
 21
12.2361
 31
0.0
  0
LINE
  8
0
 62
     0
 10
12.8056
 20
12.2361
 30
0.0
 11
12.3515
 21
12.0347
 31
0.0
  0
LINE
  8
0
 62
     0
 10
12.3515
 20
12.0347
 30
0.0
 11
11.8784
 21
11.7917
 31
0.0
  0
LINE
  8
0
 62
     0
 10
11.8784
 20
11.7917
 30
0.0
 11
11.3862
 21
11.5069
 31
0.0
  0
LINE
  8
0
 62
     0
 10
11.3862
 20
11.5069
 30
0.0
 11
10.875
 21
11.1806
 31
0.0
  0
ENDSEC
  0
EOF
