  0
SECTION
  2
HEADER
  9
$ACADVER
  1
AC1009
  9
$EXTMIN
 10
0.0
 20
0.0
 30
0.0
  9
$EXTMAX
 10
1000.0
 20
1000.0
 30
0.0
  9
$FILLMODE
 70
 0
  9
$SPLFRAME
 70
 1
  0
ENDSEC
  0
SECTION
  2
TABLES
  0
TABLE
  2
LAYER
 70
1
  0
LAYER
  2
0
 70
     0
 62
     7
  6
CONTINUOUS
  0
ENDTAB
  0
ENDSEC
  0
SECTION
  2
ENTITIES
  0
LINE
  8
0
 62
     0
 10
5.09722
 20
17.1528
 30
0.0
 11
5.04335
 21
17.3438
 31
0.0
  0
LINE
  8
0
 62
     0
 10
5.04335
 20
17.3438
 30
0.0
 11
4.93744
 21
17.5
 31
0.0
  0
LINE
  8
0
 62
     0
 10
4.93744
 20
17.5
 30
0.0
 11
4.77946
 21
17.6215
 31
0.0
  0
LINE
  8
0
 62
     0
 10
4.77946
 20
17.6215
 30
0.0
 11
4.56944
 21
17.7083
 31
0.0
  0
LINE
  8
0
 62
     0
 10
4.56944
 20
17.7083
 30
0.0
 11
4.34457
 21
17.7596
 31
0.0
  0
LINE
  8
0
 62
     0
 10
4.34457
 20
17.7596
 30
0.0
 11
4.10064
 21
17.7743
 31
0.0
  0
LINE
  8
0
 62
     0
 10
4.10064
 20
17.7743
 30
0.0
 11
3.83762
 21
17.7526
 31
0.0
  0
LINE
  8
0
 62
     0
 10
3.83762
 20
17.7526
 30
0.0
 11
3.55556
 21
17.6944
 31
0.0
  0
LINE
  8
0
 62
     0
 10
3.55556
 20
17.6944
 30
0.0
 11
3.28299
 21
17.6137
 31
0.0
  0
LINE
  8
0
 62
     0
 10
3.28299
 20
17.6137
 30
0.0
 11
3.03472
 21
17.5104
 31
0.0
  0
LINE
  8
0
 62
     0
 10
3.03472
 20
17.5104
 30
0.0
 11
2.81076
 21
17.3846
 31
0.0
  0
LINE
  8
0
 62
     0
 10
2.81076
 20
17.3846
 30
0.0
 11
2.61111
 21
17.2361
 31
0.0
  0
LINE
  8
0
 62
     0
 10
2.61111
 20
17.2361
 30
0.0
 11
2.43832
 21
17.0451
 31
0.0
  0
LINE
  8
0
 62
     0
 10
2.43832
 20
17.0451
 30
0.0
 11
2.32286
 21
16.8472
 31
0.0
  0
LINE
  8
0
 62
     0
 10
2.32286
 20
16.8472
 30
0.0
 11
2.26471
 21
16.6424
 31
0.0
  0
LINE
  8
0
 62
     0
 10
2.26471
 20
16.6424
 30
0.0
 11
2.26389
 21
16.4306
 31
0.0
  0
LINE
  8
0
 62
     0
 10
2.26389
 20
16.4306
 30
0.0
 11
2.37765
 21
15.4662
 31
0.0
  0
LINE
  8
0
 62
     0
 10
2.37765
 20
15.4662
 30
0.0
 11
2.45856
 21
14.5143
 31
0.0
  0
LINE
  8
0
 62
     0
 10
2.45856
 20
14.5143
 30
0.0
 11
2.50657
 21
13.5748
 31
0.0
  0
LINE
  8
0
 62
     0
 10
2.50657
 20
13.5748
 30
0.0
 11
2.52171
 21
12.6476
 31
0.0
  0
LINE
  8
0
 62
     0
 10
2.52171
 20
12.6476
 30
0.0
 11
2.50396
 21
11.7328
 31
0.0
  0
LINE
  8
0
 62
     0
 10
2.50396
 20
11.7328
 30
0.0
 11
2.45335
 21
10.8303
 31
0.0
  0
LINE
  8
0
 62
     0
 10
2.45335
 20
10.8303
 30
0.0
 11
2.36985
 21
9.94021
 31
0.0
  0
LINE
  8
0
 62
     0
 10
2.36985
 20
9.94021
 30
0.0
 11
2.25347
 21
9.0625
 31
0.0
  0
LINE
  8
0
 62
     0
 10
2.25347
 20
9.0625
 30
0.0
 11
2.10422
 21
8.19721
 31
0.0
  0
LINE
  8
0
 62
     0
 10
2.10422
 20
8.19721
 30
0.0
 11
1.9221
 21
7.34424
 31
0.0
  0
LINE
  8
0
 62
     0
 10
1.9221
 20
7.34424
 30
0.0
 11
1.70708
 21
6.50364
 31
0.0
  0
LINE
  8
0
 62
     0
 10
1.70708
 20
6.50364
 30
0.0
 11
1.45921
 21
5.6754
 31
0.0
  0
LINE
  8
0
 62
     0
 10
1.45921
 20
5.6754
 30
0.0
 11
1.17844
 21
4.85954
 31
0.0
  0
LINE
  8
0
 62
     0
 10
1.17844
 20
4.85954
 30
0.0
 11
0.8648
 21
4.05604
 31
0.0
  0
LINE
  8
0
 62
     0
 10
0.8648
 20
4.05604
 30
0.0
 11
0.518283
 21
3.26492
 31
0.0
  0
LINE
  8
0
 62
     0
 10
0.518283
 20
3.26492
 30
0.0
 11
0.138889
 21
2.48611
 31
0.0
  0
LINE
  8
0
 62
     0
 10
0.138889
 20
2.48611
 30
0.0
 11
0.0485568
 21
2.257
 31
0.0
  0
LINE
  8
0
 62
     0
 10
0.0485568
 20
2.257
 30
0.0
 11
0.0277235
 21
2.05561
 31
0.0
  0
LINE
  8
0
 62
     0
 10
0.0277235
 20
2.05561
 30
0.0
 11
0.0763346
 21
1.882
 31
0.0
  0
LINE
  8
0
 62
     0
 10
0.0763346
 20
1.882
 30
0.0
 11
0.194444
 21
1.73611
 31
0.0
  0
LINE
  8
0
 62
     0
 10
0.194444
 20
1.73611
 30
0.0
 11
0.345486
 21
1.62592
 31
0.0
  0
LINE
  8
0
 62
     0
 10
0.345486
 20
1.62592
 30
0.0
 11
0.534722
 21
1.54519
 31
0.0
  0
LINE
  8
0
 62
     0
 10
0.534722
 20
1.54519
 30
0.0
 11
0.762153
 21
1.49397
 31
0.0
  0
LINE
  8
0
 62
     0
 10
0.762153
 20
1.49397
 30
0.0
 11
1.02778
 21
1.47222
 31
0.0
  0
LINE
  8
0
 62
     0
 10
1.02778
 20
1.47222
 30
0.0
 11
1.30295
 21
1.47314
 31
0.0
  0
LINE
  8
0
 62
     0
 10
1.30295
 20
1.47314
 30
0.0
 11
1.57292
 21
1.50353
 31
0.0
  0
LINE
  8
0
 62
     0
 10
1.57292
 20
1.50353
 30
0.0
 11
1.83763
 21
1.56342
 31
0.0
  0
LINE
  8
0
 62
     0
 10
1.83763
 20
1.56342
 30
0.0
 11
2.09722
 21
1.65278
 31
0.0
  0
LINE
  8
0
 62
     0
 10
2.09722
 20
1.65278
 30
0.0
 11
2.34636
 21
1.76654
 31
0.0
  0
LINE
  8
0
 62
     0
 10
2.34636
 20
1.76654
 30
0.0
 11
2.55208
 21
1.89936
 31
0.0
  0
LINE
  8
0
 62
     0
 10
2.55208
 20
1.89936
 30
0.0
 11
2.71442
 21
2.05126
 31
0.0
  0
LINE
  8
0
 62
     0
 10
2.71442
 20
2.05126
 30
0.0
 11
2.83333
 21
2.22222
 31
0.0
  0
LINE
  8
0
 62
     0
 10
2.83333
 20
2.22222
 30
0.0
 11
3.23931
 21
3.05371
 31
0.0
  0
LINE
  8
0
 62
     0
 10
3.23931
 20
3.05371
 30
0.0
 11
3.61003
 21
3.89871
 31
0.0
  0
LINE
  8
0
 62
     0
 10
3.61003
 20
3.89871
 30
0.0
 11
3.94547
 21
4.75726
 31
0.0
  0
LINE
  8
0
 62
     0
 10
3.94547
 20
4.75726
 30
0.0
 11
4.24567
 21
5.62939
 31
0.0
  0
LINE
  8
0
 62
     0
 10
4.24567
 20
5.62939
 30
0.0
 11
4.51058
 21
6.51508
 31
0.0
  0
LINE
  8
0
 62
     0
 10
4.51058
 20
6.51508
 30
0.0
 11
4.74024
 21
7.41433
 31
0.0
  0
LINE
  8
0
 62
     0
 10
4.74024
 20
7.41433
 30
0.0
 11
4.93463
 21
8.32715
 31
0.0
  0
LINE
  8
0
 62
     0
 10
4.93463
 20
8.32715
 30
0.0
 11
5.09375
 21
9.25353
 31
0.0
  0
LINE
  8
0
 62
     0
 10
5.09375
 20
9.25353
 30
0.0
 11
5.21761
 21
10.1935
 31
0.0
  0
LINE
  8
0
 62
     0
 10
5.21761
 20
10.1935
 30
0.0
 11
5.30621
 21
11.147
 31
0.0
  0
LINE
  8
0
 62
     0
 10
5.30621
 20
11.147
 30
0.0
 11
5.35954
 21
12.114
 31
0.0
  0
LINE
  8
0
 62
     0
 10
5.35954
 20
12.114
 30
0.0
 11
5.37761
 21
13.0947
 31
0.0
  0
LINE
  8
0
 62
     0
 10
5.37761
 20
13.0947
 30
0.0
 11
5.3604
 21
14.0889
 31
0.0
  0
LINE
  8
0
 62
     0
 10
5.3604
 20
14.0889
 30
0.0
 11
5.30794
 21
15.0967
 31
0.0
  0
LINE
  8
0
 62
     0
 10
5.30794
 20
15.0967
 30
0.0
 11
5.22021
 21
16.1179
 31
0.0
  0
LINE
  8
0
 62
     0
 10
5.22021
 20
16.1179
 30
0.0
 11
5.09722
 21
17.1528
 31
0.0
  0
LINE
  8
0
 62
     0
 10
15.8333
 20
13.9028
 30
0.0
 11
15.6119
 21
14.4385
 31
0.0
  0
LINE
  8
0
 62
     0
 10
15.6119
 20
14.4385
 30
0.0
 11
15.3438
 21
14.9549
 31
0.0
  0
LINE
  8
0
 62
     0
 10
15.3438
 20
14.9549
 30
0.0
 11
15.0286
 21
15.4524
 31
0.0
  0
LINE
  8
0
 62
     0
 10
15.0286
 20
15.4524
 30
0.0
 11
14.6667
 21
15.9306
 31
0.0
  0
LINE
  8
0
 62
     0
 10
14.6667
 20
15.9306
 30
0.0
 11
14.2578
 21
16.3899
 31
0.0
  0
LINE
  8
0
 62
     0
 10
14.2578
 20
16.3899
 30
0.0
 11
13.8021
 21
16.8299
 31
0.0
  0
LINE
  8
0
 62
     0
 10
13.8021
 20
16.8299
 30
0.0
 11
13.2995
 21
17.251
 31
0.0
  0
LINE
  8
0
 62
     0
 10
13.2995
 20
17.251
 30
0.0
 11
12.75
 21
17.6528
 31
0.0
  0
LINE
  8
0
 62
     0
 10
12.75
 20
17.6528
 30
0.0
 11
12.205
 21
18.006
 31
0.0
  0
LINE
  8
0
 62
     0
 10
12.205
 20
18.006
 30
0.0
 11
11.6397
 21
18.329
 31
0.0
  0
LINE
  8
0
 62
     0
 10
11.6397
 20
18.329
 30
0.0
 11
11.054
 21
18.6222
 31
0.0
  0
LINE
  8
0
 62
     0
 10
11.054
 20
18.6222
 30
0.0
 11
10.4479
 21
18.8854
 31
0.0
  0
LINE
  8
0
 62
     0
 10
10.4479
 20
18.8854
 30
0.0
 11
9.82135
 21
19.1188
 31
0.0
  0
LINE
  8
0
 62
     0
 10
9.82135
 20
19.1188
 30
0.0
 11
9.17443
 21
19.3221
 31
0.0
  0
LINE
  8
0
 62
     0
 10
9.17443
 20
19.3221
 30
0.0
 11
8.50711
 21
19.4954
 31
0.0
  0
LINE
  8
0
 62
     0
 10
8.50711
 20
19.4954
 30
0.0
 11
7.81944
 21
19.6389
 31
0.0
  0
LINE
  8
0
 62
     0
 10
7.81944
 20
19.6389
 30
0.0
 11
7.11979
 21
19.749
 31
0.0
  0
LINE
  8
0
 62
     0
 10
7.11979
 20
19.749
 30
0.0
 11
6.43056
 21
19.8221
 31
0.0
  0
LINE
  8
0
 62
     0
 10
6.43056
 20
19.8221
 30
0.0
 11
5.75174
 21
19.8583
 31
0.0
  0
LINE
  8
0
 62
     0
 10
5.75174
 20
19.8583
 30
0.0
 11
5.08333
 21
19.8576
 31
0.0
  0
LINE
  8
0
 62
     0
 10
5.08333
 20
19.8576
 30
0.0
 11
4.42529
 21
19.8201
 31
0.0
  0
LINE
  8
0
 62
     0
 10
4.42529
 20
19.8201
 30
0.0
 11
3.77772
 21
19.7457
 31
0.0
  0
LINE
  8
0
 62
     0
 10
3.77772
 20
19.7457
 30
0.0
 11
3.14057
 21
19.6344
 31
0.0
  0
LINE
  8
0
 62
     0
 10
3.14057
 20
19.6344
 30
0.0
 11
2.51389
 21
19.4861
 31
0.0
  0
LINE
  8
0
 62
     0
 10
2.51389
 20
19.4861
 30
0.0
 11
2.23432
 21
19.3942
 31
0.0
  0
LINE
  8
0
 62
     0
 10
2.23432
 20
19.3942
 30
0.0
 11
1.993
 21
19.2847
 31
0.0
  0
LINE
  8
0
 62
     0
 10
1.993
 20
19.2847
 30
0.0
 11
1.78988
 21
19.1581
 31
0.0
  0
LINE
  8
0
 62
     0
 10
1.78988
 20
19.1581
 30
0.0
 11
1.625
 21
19.0139
 31
0.0
  0
LINE
  8
0
 62
     0
 10
1.625
 20
19.0139
 30
0.0
 11
1.51383
 21
18.8811
 31
0.0
  0
LINE
  8
0
 62
     0
 10
1.51383
 20
18.8811
 30
0.0
 11
1.44444
 21
18.7465
 31
0.0
  0
LINE
  8
0
 62
     0
 10
1.44444
 20
18.7465
 30
0.0
 11
1.41667
 21
18.6103
 31
0.0
  0
LINE
  8
0
 62
     0
 10
1.41667
 20
18.6103
 30
0.0
 11
1.43056
 21
18.4722
 31
0.0
  0
LINE
  8
0
 62
     0
 10
1.43056
 20
18.4722
 30
0.0
 11
1.48958
 21
18.3506
 31
0.0
  0
LINE
  8
0
 62
     0
 10
1.48958
 20
18.3506
 30
0.0
 11
1.58333
 21
18.2497
 31
0.0
  0
LINE
  8
0
 62
     0
 10
1.58333
 20
18.2497
 30
0.0
 11
1.71181
 21
18.17
 31
0.0
  0
LINE
  8
0
 62
     0
 10
1.71181
 20
18.17
 30
0.0
 11
1.875
 21
18.1111
 31
0.0
  0
LINE
  8
0
 62
     0
 10
1.875
 20
18.1111
 30
0.0
 11
2.09457
 21
18.0668
 31
0.0
  0
LINE
  8
0
 62
     0
 10
2.09457
 20
18.0668
 30
0.0
 11
2.33675
 21
18.059
 31
0.0
  0
LINE
  8
0
 62
     0
 10
2.33675
 20
18.059
 30
0.0
 11
2.60151
 21
18.0876
 31
0.0
  0
LINE
  8
0
 62
     0
 10
2.60151
 20
18.0876
 30
0.0
 11
2.88889
 21
18.1528
 31
0.0
  0
LINE
  8
0
 62
     0
 10
2.88889
 20
18.1528
 30
0.0
 11
3.55746
 21
18.3085
 31
0.0
  0
LINE
  8
0
 62
     0
 10
3.55746
 20
18.3085
 30
0.0
 11
4.2161
 21
18.4142
 31
0.0
  0
LINE
  8
0
 62
     0
 10
4.2161
 20
18.4142
 30
0.0
 11
4.86475
 21
18.4699
 31
0.0
  0
LINE
  8
0
 62
     0
 10
4.86475
 20
18.4699
 30
0.0
 11
5.50342
 21
18.4757
 31
0.0
  0
LINE
  8
0
 62
     0
 10
5.50342
 20
18.4757
 30
0.0
 11
6.13211
 21
18.4317
 31
0.0
  0
LINE
  8
0
 62
     0
 10
6.13211
 20
18.4317
 30
0.0
 11
6.75082
 21
18.3378
 31
0.0
  0
LINE
  8
0
 62
     0
 10
6.75082
 20
18.3378
 30
0.0
 11
7.35954
 21
18.1939
 31
0.0
  0
LINE
  8
0
 62
     0
 10
7.35954
 20
18.1939
 30
0.0
 11
7.95833
 21
18
 31
0.0
  0
LINE
  8
0
 62
     0
 10
7.95833
 20
18
 30
0.0
 11
8.49408
 21
17.7813
 31
0.0
  0
LINE
  8
0
 62
     0
 10
8.49408
 20
17.7813
 30
0.0
 11
9.00429
 21
17.5278
 31
0.0
  0
LINE
  8
0
 62
     0
 10
9.00429
 20
17.5278
 30
0.0
 11
9.48887
 21
17.2396
 31
0.0
  0
LINE
  8
0
 62
     0
 10
9.48887
 20
17.2396
 30
0.0
 11
9.94786
 21
16.9167
 31
0.0
  0
LINE
  8
0
 62
     0
 10
9.94786
 20
16.9167
 30
0.0
 11
10.3812
 21
16.559
 31
0.0
  0
LINE
  8
0
 62
     0
 10
10.3812
 20
16.559
 30
0.0
 11
10.789
 21
16.1667
 31
0.0
  0
LINE
  8
0
 62
     0
 10
10.789
 20
16.1667
 30
0.0
 11
11.1712
 21
15.7396
 31
0.0
  0
LINE
  8
0
 62
     0
 10
11.1712
 20
15.7396
 30
0.0
 11
11.5278
 21
15.2778
 31
0.0
  0
LINE
  8
0
 62
     0
 10
11.5278
 20
15.2778
 30
0.0
 11
11.8453
 21
14.7957
 31
0.0
  0
LINE
  8
0
 62
     0
 10
11.8453
 20
14.7957
 30
0.0
 11
12.1241
 21
14.3004
 31
0.0
  0
LINE
  8
0
 62
     0
 10
12.1241
 20
14.3004
 30
0.0
 11
12.3644
 21
13.7922
 31
0.0
  0
LINE
  8
0
 62
     0
 10
12.3644
 20
13.7922
 30
0.0
 11
12.566
 21
13.2709
 31
0.0
  0
LINE
  8
0
 62
     0
 10
12.566
 20
13.2709
 30
0.0
 11
12.7289
 21
12.7366
 31
0.0
  0
LINE
  8
0
 62
     0
 10
12.7289
 20
12.7366
 30
0.0
 11
12.8533
 21
12.1893
 31
0.0
  0
LINE
  8
0
 62
     0
 10
12.8533
 20
12.1893
 30
0.0
 11
12.939
 21
11.6289
 31
0.0
  0
LINE
  8
0
 62
     0
 10
12.939
 20
11.6289
 30
0.0
 11
12.9861
 21
11.0556
 31
0.0
  0
LINE
  8
0
 62
     0
 10
12.9861
 20
11.0556
 30
0.0
 11
12.9944
 21
10.4457
 31
0.0
  0
LINE
  8
0
 62
     0
 10
12.9944
 20
10.4457
 30
0.0
 11
12.9566
 21
9.84549
 31
0.0
  0
LINE
  8
0
 62
     0
 10
12.9566
 20
9.84549
 30
0.0
 11
12.8728
 21
9.25478
 31
0.0
  0
LINE
  8
0
 62
     0
 10
12.8728
 20
9.25478
 30
0.0
 11
12.7431
 21
8.67361
 31
0.0
  0
LINE
  8
0
 62
     0
 10
12.7431
 20
8.67361
 30
0.0
 11
12.5673
 21
8.102
 31
0.0
  0
LINE
  8
0
 62
     0
 10
12.5673
 20
8.102
 30
0.0
 11
12.3455
 21
7.53993
 31
0.0
  0
LINE
  8
0
 62
     0
 10
12.3455
 20
7.53993
 30
0.0
 11
12.0777
 21
6.98742
 31
0.0
  0
LINE
  8
0
 62
     0
 10
12.0777
 20
6.98742
 30
0.0
 11
11.7639
 21
6.44444
 31
0.0
  0
LINE
  8
0
 62
     0
 10
11.7639
 20
6.44444
 30
0.0
 11
11.3022
 21
5.76394
 31
0.0
  0
LINE
  8
0
 62
     0
 10
11.3022
 20
5.76394
 30
0.0
 11
10.7853
 21
5.10769
 31
0.0
  0
LINE
  8
0
 62
     0
 10
10.7853
 20
5.10769
 30
0.0
 11
10.2132
 21
4.47575
 31
0.0
  0
LINE
  8
0
 62
     0
 10
10.2132
 20
4.47575
 30
0.0
 11
9.58589
 21
3.86811
 31
0.0
  0
LINE
  8
0
 62
     0
 10
9.58589
 20
3.86811
 30
0.0
 11
8.90332
 21
3.28478
 31
0.0
  0
LINE
  8
0
 62
     0
 10
8.90332
 20
3.28478
 30
0.0
 11
8.16553
 21
2.72575
 31
0.0
  0
LINE
  8
0
 62
     0
 10
8.16553
 20
2.72575
 30
0.0
 11
7.3725
 21
2.19103
 31
0.0
  0
LINE
  8
0
 62
     0
 10
7.3725
 20
2.19103
 30
0.0
 11
6.52425
 21
1.68061
 31
0.0
  0
LINE
  8
0
 62
     0
 10
6.52425
 20
1.68061
 30
0.0
 11
5.62076
 21
1.1945
 31
0.0
  0
LINE
  8
0
 62
     0
 10
5.62076
 20
1.1945
 30
0.0
 11
4.66206
 21
0.732693
 31
0.0
  0
LINE
  8
0
 62
     0
 10
4.66206
 20
0.732693
 30
0.0
 11
3.64811
 21
0.295193
 31
0.0
  0
LINE
  8
0
 62
     0
 10
3.64811
 20
0.295193
 30
0.0
 11
2.57894
 21
-0.118001
 31
0.0
  0
LINE
  8
0
 62
     0
 10
2.57894
 20
-0.118001
 30
0.0
 11
1.45454
 21
-0.50689
 31
0.0
  0
LINE
  8
0
 62
     0
 10
1.45454
 20
-0.50689
 30
0.0
 11
0.274903
 21
-0.871474
 31
0.0
  0
LINE
  8
0
 62
     0
 10
0.274903
 20
-0.871474
 30
0.0
 11
-0.959961
 21
-1.21175
 31
0.0
  0
LINE
  8
0
 62
     0
 10
-0.959961
 20
-1.21175
 30
0.0
 11
-2.25
 21
-1.52778
 31
0.0
  0
LINE
  8
0
 62
     0
 10
-2.25
 20
-1.52778
 30
0.0
 11
-2.53043
 21
-1.60678
 31
0.0
  0
LINE
  8
0
 62
     0
 10
-2.53043
 20
-1.60678
 30
0.0
 11
-2.77431
 21
-1.70486
 31
0.0
  0
LINE
  8
0
 62
     0
 10
-2.77431
 20
-1.70486
 30
0.0
 11
-2.98178
 21
-1.82206
 31
0.0
  0
LINE
  8
0
 62
     0
 10
-2.98178
 20
-1.82206
 30
0.0
 11
-3.15278
 21
-1.95833
 31
0.0
  0
LINE
  8
0
 62
     0
 10
-3.15278
 20
-1.95833
 30
0.0
 11
-3.26307
 21
-2.09028
 31
0.0
  0
LINE
  8
0
 62
     0
 10
-3.26307
 20
-2.09028
 30
0.0
 11
-3.32992
 21
-2.22222
 31
0.0
  0
LINE
  8
0
 62
     0
 10
-3.32992
 20
-2.22222
 30
0.0
 11
-3.35335
 21
-2.35411
 31
0.0
  0
LINE
  8
0
 62
     0
 10
-3.35335
 20
-2.35411
 30
0.0
 11
-3.33333
 21
-2.48611
 31
0.0
  0
LINE
  8
0
 62
     0
 10
-3.33333
 20
-2.48611
 30
0.0
 11
-3.27957
 21
-2.61453
 31
0.0
  0
LINE
  8
0
 62
     0
 10
-3.27957
 20
-2.61453
 30
0.0
 11
-3.18756
 21
-2.72222
 31
0.0
  0
LINE
  8
0
 62
     0
 10
-3.18756
 20
-2.72222
 30
0.0
 11
-3.05735
 21
-2.80903
 31
0.0
  0
LINE
  8
0
 62
     0
 10
-3.05735
 20
-2.80903
 30
0.0
 11
-2.88889
 21
-2.875
 31
0.0
  0
LINE
  8
0
 62
     0
 10
-2.88889
 20
-2.875
 30
0.0
 11
-2.66932
 21
-2.92101
 31
0.0
  0
LINE
  8
0
 62
     0
 10
-2.66932
 20
-2.92101
 30
0.0
 11
-2.42714
 21
-2.93403
 31
0.0
  0
LINE
  8
0
 62
     0
 10
-2.42714
 20
-2.93403
 30
0.0
 11
-2.16237
 21
-2.91407
 31
0.0
  0
LINE
  8
0
 62
     0
 10
-2.16237
 20
-2.91407
 30
0.0
 11
-1.875
 21
-2.86111
 31
0.0
  0
LINE
  8
0
 62
     0
 10
-1.875
 20
-2.86111
 30
0.0
 11
-0.411947
 21
-2.49957
 31
0.0
  0
LINE
  8
0
 62
     0
 10
-0.411947
 20
-2.49957
 30
0.0
 11
0.99821
 21
-2.10243
 31
0.0
  0
LINE
  8
0
 62
     0
 10
0.99821
 20
-2.10243
 30
0.0
 11
2.35542
 21
-1.66971
 31
0.0
  0
LINE
  8
0
 62
     0
 10
2.35542
 20
-1.66971
 30
0.0
 11
3.65967
 21
-1.20139
 31
0.0
  0
LINE
  8
0
 62
     0
 10
3.65967
 20
-1.20139
 30
0.0
 11
4.91097
 21
-0.697483
 31
0.0
  0
LINE
  8
0
 62
     0
 10
4.91097
 20
-0.697483
 30
0.0
 11
6.10932
 21
-0.157986
 31
0.0
  0
LINE
  8
0
 62
     0
 10
6.10932
 20
-0.157986
 30
0.0
 11
7.25472
 21
0.417101
 31
0.0
  0
LINE
  8
0
 62
     0
 10
7.25472
 20
0.417101
 30
0.0
 11
8.34722
 21
1.02778
 31
0.0
  0
LINE
  8
0
 62
     0
 10
8.34722
 20
1.02778
 30
0.0
 11
9.00211
 21
1.42719
 31
0.0
  0
LINE
  8
0
 62
     0
 10
9.00211
 20
1.42719
 30
0.0
 11
9.62999
 21
1.83724
 31
0.0
  0
LINE
  8
0
 62
     0
 10
9.62999
 20
1.83724
 30
0.0
 11
10.2308
 21
2.25792
 31
0.0
  0
LINE
  8
0
 62
     0
 10
10.2308
 20
2.25792
 30
0.0
 11
10.8046
 21
2.68924
 31
0.0
  0
LINE
  8
0
 62
     0
 10
10.8046
 20
2.68924
 30
0.0
 11
11.3515
 21
3.13118
 31
0.0
  0
LINE
  8
0
 62
     0
 10
11.3515
 20
3.13118
 30
0.0
 11
11.8712
 21
3.58376
 31
0.0
  0
LINE
  8
0
 62
     0
 10
11.8712
 20
3.58376
 30
0.0
 11
12.364
 21
4.04699
 31
0.0
  0
LINE
  8
0
 62
     0
 10
12.364
 20
4.04699
 30
0.0
 11
12.8298
 21
4.52083
 31
0.0
  0
LINE
  8
0
 62
     0
 10
12.8298
 20
4.52083
 30
0.0
 11
13.2686
 21
5.00532
 31
0.0
  0
LINE
  8
0
 62
     0
 10
13.2686
 20
5.00532
 30
0.0
 11
13.6803
 21
5.50043
 31
0.0
  0
LINE
  8
0
 62
     0
 10
13.6803
 20
5.50043
 30
0.0
 11
14.065
 21
6.00618
 31
0.0
  0
LINE
  8
0
 62
     0
 10
14.065
 20
6.00618
 30
0.0
 11
14.4226
 21
6.52257
 31
0.0
  0
LINE
  8
0
 62
     0
 10
14.4226
 20
6.52257
 30
0.0
 11
14.7533
 21
7.04958
 31
0.0
  0
LINE
  8
0
 62
     0
 10
14.7533
 20
7.04958
 30
0.0
 11
15.0571
 21
7.58724
 31
0.0
  0
LINE
  8
0
 62
     0
 10
15.0571
 20
7.58724
 30
0.0
 11
15.3336
 21
8.13553
 31
0.0
  0
LINE
  8
0
 62
     0
 10
15.3336
 20
8.13553
 30
0.0
 11
15.5833
 21
8.69444
 31
0.0
  0
LINE
  8
0
 62
     0
 10
15.5833
 20
8.69444
 30
0.0
 11
15.8393
 21
9.38049
 31
0.0
  0
LINE
  8
0
 62
     0
 10
15.8393
 20
9.38049
 30
0.0
 11
16.0313
 21
10.0565
 31
0.0
  0
LINE
  8
0
 62
     0
 10
16.0313
 20
10.0565
 30
0.0
 11
16.1588
 21
10.7225
 31
0.0
  0
LINE
  8
0
 62
     0
 10
16.1588
 20
10.7225
 30
0.0
 11
16.2222
 21
11.3785
 31
0.0
  0
LINE
  8
0
 62
     0
 10
16.2222
 20
11.3785
 30
0.0
 11
16.2213
 21
12.0246
 31
0.0
  0
LINE
  8
0
 62
     0
 10
16.2213
 20
12.0246
 30
0.0
 11
16.1563
 21
12.6606
 31
0.0
  0
LINE
  8
0
 62
     0
 10
16.1563
 20
12.6606
 30
0.0
 11
16.0268
 21
13.2867
 31
0.0
  0
LINE
  8
0
 62
     0
 10
16.0268
 20
13.2867
 30
0.0
 11
15.8333
 21
13.9028
 31
0.0
  0
ENDSEC
  0
EOF
