  0
SECTION
  2
HEADER
  9
$ACADVER
  1
AC1009
  9
$EXTMIN
 10
0.0
 20
0.0
 30
0.0
  9
$EXTMAX
 10
1000.0
 20
1000.0
 30
0.0
  9
$FILLMODE
 70
 0
  9
$SPLFRAME
 70
 1
  0
ENDSEC
  0
SECTION
  2
TABLES
  0
TABLE
  2
LAYER
 70
1
  0
LAYER
  2
0
 70
     0
 62
     7
  6
CONTINUOUS
  0
ENDTAB
  0
ENDSEC
  0
SECTION
  2
ENTITIES
  0
LINE
  8
0
 62
     0
 10
5.25
 20
18.0417
 30
0.0
 11
5.23178
 21
18.0243
 31
0.0
  0
LINE
  8
0
 62
     0
 10
5.23178
 20
18.0243
 30
0.0
 11
5.20486
 21
18
 31
0.0
  0
LINE
  8
0
 62
     0
 10
5.20486
 20
18
 30
0.0
 11
5.16928
 21
17.9688
 31
0.0
  0
LINE
  8
0
 62
     0
 10
5.16928
 20
17.9688
 30
0.0
 11
5.125
 21
17.9306
 31
0.0
  0
LINE
  8
0
 62
     0
 10
5.125
 20
17.9306
 30
0.0
 11
5.06244
 21
17.8924
 31
0.0
  0
LINE
  8
0
 62
     0
 10
5.06244
 20
17.8924
 30
0.0
 11
5.01383
 21
17.8611
 31
0.0
  0
LINE
  8
0
 62
     0
 10
5.01383
 20
17.8611
 30
0.0
 11
4.97911
 21
17.8368
 31
0.0
  0
LINE
  8
0
 62
     0
 10
4.97911
 20
17.8368
 30
0.0
 11
4.95833
 21
17.8194
 31
0.0
  0
LINE
  8
0
 62
     0
 10
4.95833
 20
17.8194
 30
0.0
 11
4.95833
 21
17.8194
 31
0.0
  0
LINE
  8
0
 62
     0
 10
4.95833
 20
17.8194
 30
0.0
 11
4.79856
 21
17.8576
 31
0.0
  0
LINE
  8
0
 62
     0
 10
4.79856
 20
17.8576
 30
0.0
 11
4.59722
 21
17.9444
 31
0.0
  0
LINE
  8
0
 62
     0
 10
4.59722
 20
17.9444
 30
0.0
 11
4.4566
 21
18.0269
 31
0.0
  0
LINE
  8
0
 62
     0
 10
4.4566
 20
18.0269
 30
0.0
 11
4.3125
 21
18.1354
 31
0.0
  0
LINE
  8
0
 62
     0
 10
4.3125
 20
18.1354
 30
0.0
 11
4.16493
 21
18.27
 31
0.0
  0
LINE
  8
0
 62
     0
 10
4.16493
 20
18.27
 30
0.0
 11
4.01389
 21
18.4306
 31
0.0
  0
LINE
  8
0
 62
     0
 10
4.01389
 20
18.4306
 30
0.0
 11
3.93397
 21
18.4914
 31
0.0
  0
LINE
  8
0
 62
     0
 10
3.93397
 20
18.4914
 30
0.0
 11
3.81939
 21
18.5208
 31
0.0
  0
LINE
  8
0
 62
     0
 10
3.81939
 20
18.5208
 30
0.0
 11
3.67008
 21
18.5192
 31
0.0
  0
LINE
  8
0
 62
     0
 10
3.67008
 20
18.5192
 30
0.0
 11
3.48611
 21
18.4861
 31
0.0
  0
LINE
  8
0
 62
     0
 10
3.48611
 20
18.4861
 30
0.0
 11
3.41015
 21
18.714
 31
0.0
  0
LINE
  8
0
 62
     0
 10
3.41015
 20
18.714
 30
0.0
 11
3.36285
 21
18.9463
 31
0.0
  0
LINE
  8
0
 62
     0
 10
3.36285
 20
18.9463
 30
0.0
 11
3.34418
 21
19.1828
 31
0.0
  0
LINE
  8
0
 62
     0
 10
3.34418
 20
19.1828
 30
0.0
 11
3.35417
 21
19.4236
 31
0.0
  0
LINE
  8
0
 62
     0
 10
3.35417
 20
19.4236
 30
0.0
 11
3.39279
 21
19.6689
 31
0.0
  0
LINE
  8
0
 62
     0
 10
3.39279
 20
19.6689
 30
0.0
 11
3.46007
 21
19.9185
 31
0.0
  0
LINE
  8
0
 62
     0
 10
3.46007
 20
19.9185
 30
0.0
 11
3.55599
 21
20.1724
 31
0.0
  0
LINE
  8
0
 62
     0
 10
3.55599
 20
20.1724
 30
0.0
 11
3.68056
 21
20.4306
 31
0.0
  0
LINE
  8
0
 62
     0
 10
3.68056
 20
20.4306
 30
0.0
 11
3.84289
 21
20.7093
 31
0.0
  0
LINE
  8
0
 62
     0
 10
3.84289
 20
20.7093
 30
0.0
 11
4.02431
 21
20.9479
 31
0.0
  0
LINE
  8
0
 62
     0
 10
4.02431
 20
20.9479
 30
0.0
 11
4.22483
 21
21.1468
 31
0.0
  0
LINE
  8
0
 62
     0
 10
4.22483
 20
21.1468
 30
0.0
 11
4.44444
 21
21.3056
 31
0.0
  0
LINE
  8
0
 62
     0
 10
4.44444
 20
21.3056
 30
0.0
 11
4.49653
 21
21.2951
 31
0.0
  0
LINE
  8
0
 62
     0
 10
4.49653
 20
21.2951
 30
0.0
 11
4.54167
 21
21.2917
 31
0.0
  0
LINE
  8
0
 62
     0
 10
4.54167
 20
21.2917
 30
0.0
 11
4.62668
 21
21.2761
 31
0.0
  0
LINE
  8
0
 62
     0
 10
4.62668
 20
21.2761
 30
0.0
 11
4.72911
 21
21.2431
 31
0.0
  0
LINE
  8
0
 62
     0
 10
4.72911
 20
21.2431
 30
0.0
 11
4.8489
 21
21.1928
 31
0.0
  0
LINE
  8
0
 62
     0
 10
4.8489
 20
21.1928
 30
0.0
 11
4.98611
 21
21.125
 31
0.0
  0
LINE
  8
0
 62
     0
 10
4.98611
 20
21.125
 30
0.0
 11
5.15625
 21
21.0304
 31
0.0
  0
LINE
  8
0
 62
     0
 10
5.15625
 20
21.0304
 30
0.0
 11
5.31944
 21
20.9132
 31
0.0
  0
LINE
  8
0
 62
     0
 10
5.31944
 20
20.9132
 30
0.0
 11
5.47569
 21
20.7735
 31
0.0
  0
LINE
  8
0
 62
     0
 10
5.47569
 20
20.7735
 30
0.0
 11
5.625
 21
20.6111
 31
0.0
  0
LINE
  8
0
 62
     0
 10
5.625
 20
20.6111
 30
0.0
 11
5.78646
 21
20.3707
 31
0.0
  0
LINE
  8
0
 62
     0
 10
5.78646
 20
20.3707
 30
0.0
 11
5.89583
 21
20.1076
 31
0.0
  0
LINE
  8
0
 62
     0
 10
5.89583
 20
20.1076
 30
0.0
 11
5.95313
 21
19.8221
 31
0.0
  0
LINE
  8
0
 62
     0
 10
5.95313
 20
19.8221
 30
0.0
 11
5.95833
 21
19.5139
 31
0.0
  0
LINE
  8
0
 62
     0
 10
5.95833
 20
19.5139
 30
0.0
 11
5.92449
 21
19.2379
 31
0.0
  0
LINE
  8
0
 62
     0
 10
5.92449
 20
19.2379
 30
0.0
 11
5.85069
 21
18.9653
 31
0.0
  0
LINE
  8
0
 62
     0
 10
5.85069
 20
18.9653
 30
0.0
 11
5.73699
 21
18.6963
 31
0.0
  0
LINE
  8
0
 62
     0
 10
5.73699
 20
18.6963
 30
0.0
 11
5.58333
 21
18.4306
 31
0.0
  0
LINE
  8
0
 62
     0
 10
5.58333
 20
18.4306
 30
0.0
 11
5.4375
 21
18.2361
 31
0.0
  0
LINE
  8
0
 62
     0
 10
5.4375
 20
18.2361
 30
0.0
 11
5.25
 21
18.0417
 31
0.0
  0
LINE
  8
0
 62
     0
 10
2.98611
 20
17.6389
 30
0.0
 11
3.34978
 21
17.4524
 31
0.0
  0
LINE
  8
0
 62
     0
 10
3.34978
 20
17.4524
 30
0.0
 11
3.74647
 21
17.3368
 31
0.0
  0
LINE
  8
0
 62
     0
 10
3.74647
 20
17.3368
 30
0.0
 11
4.17617
 21
17.2926
 31
0.0
  0
LINE
  8
0
 62
     0
 10
4.17617
 20
17.2926
 30
0.0
 11
4.63889
 21
17.3194
 31
0.0
  0
LINE
  8
0
 62
     0
 10
4.63889
 20
17.3194
 30
0.0
 11
5.08154
 21
17.4013
 31
0.0
  0
LINE
  8
0
 62
     0
 10
5.08154
 20
17.4013
 30
0.0
 11
5.50689
 21
17.535
 31
0.0
  0
LINE
  8
0
 62
     0
 10
5.50689
 20
17.535
 30
0.0
 11
5.91488
 21
17.7207
 31
0.0
  0
LINE
  8
0
 62
     0
 10
5.91488
 20
17.7207
 30
0.0
 11
6.30556
 21
17.9583
 31
0.0
  0
LINE
  8
0
 62
     0
 10
6.30556
 20
17.9583
 30
0.0
 11
6.6684
 21
18.2483
 31
0.0
  0
LINE
  8
0
 62
     0
 10
6.6684
 20
18.2483
 30
0.0
 11
6.96528
 21
18.5625
 31
0.0
  0
LINE
  8
0
 62
     0
 10
6.96528
 20
18.5625
 30
0.0
 11
7.19618
 21
18.9011
 31
0.0
  0
LINE
  8
0
 62
     0
 10
7.19618
 20
18.9011
 30
0.0
 11
7.36111
 21
19.2639
 31
0.0
  0
LINE
  8
0
 62
     0
 10
7.36111
 20
19.2639
 30
0.0
 11
7.46354
 21
19.6789
 31
0.0
  0
LINE
  8
0
 62
     0
 10
7.46354
 20
19.6789
 30
0.0
 11
7.46528
 21
20.0903
 31
0.0
  0
LINE
  8
0
 62
     0
 10
7.46528
 20
20.0903
 30
0.0
 11
7.36632
 21
20.4983
 31
0.0
  0
LINE
  8
0
 62
     0
 10
7.36632
 20
20.4983
 30
0.0
 11
7.16667
 21
20.9028
 31
0.0
  0
LINE
  8
0
 62
     0
 10
7.16667
 20
20.9028
 30
0.0
 11
7.01188
 21
21.1282
 31
0.0
  0
LINE
  8
0
 62
     0
 10
7.01188
 20
21.1282
 30
0.0
 11
6.83936
 21
21.3256
 31
0.0
  0
LINE
  8
0
 62
     0
 10
6.83936
 20
21.3256
 30
0.0
 11
6.64903
 21
21.4946
 31
0.0
  0
LINE
  8
0
 62
     0
 10
6.64903
 20
21.4946
 30
0.0
 11
6.44092
 21
21.6354
 31
0.0
  0
LINE
  8
0
 62
     0
 10
6.44092
 20
21.6354
 30
0.0
 11
6.215
 21
21.7481
 31
0.0
  0
LINE
  8
0
 62
     0
 10
6.215
 20
21.7481
 30
0.0
 11
5.97131
 21
21.8325
 31
0.0
  0
LINE
  8
0
 62
     0
 10
5.97131
 20
21.8325
 30
0.0
 11
5.70979
 21
21.8886
 31
0.0
  0
LINE
  8
0
 62
     0
 10
5.70979
 20
21.8886
 30
0.0
 11
5.43056
 21
21.9167
 31
0.0
  0
LINE
  8
0
 62
     0
 10
5.43056
 20
21.9167
 30
0.0
 11
4.90446
 21
21.8924
 31
0.0
  0
LINE
  8
0
 62
     0
 10
4.90446
 20
21.8924
 30
0.0
 11
4.38189
 21
21.7778
 31
0.0
  0
LINE
  8
0
 62
     0
 10
4.38189
 20
21.7778
 30
0.0
 11
3.86279
 21
21.5729
 31
0.0
  0
LINE
  8
0
 62
     0
 10
3.86279
 20
21.5729
 30
0.0
 11
3.34722
 21
21.2778
 31
0.0
  0
LINE
  8
0
 62
     0
 10
3.34722
 20
21.2778
 30
0.0
 11
3.09765
 21
21.1065
 31
0.0
  0
LINE
  8
0
 62
     0
 10
3.09765
 20
21.1065
 30
0.0
 11
2.86979
 21
20.9262
 31
0.0
  0
LINE
  8
0
 62
     0
 10
2.86979
 20
20.9262
 30
0.0
 11
2.66363
 21
20.7368
 31
0.0
  0
LINE
  8
0
 62
     0
 10
2.66363
 20
20.7368
 30
0.0
 11
2.47917
 21
20.5382
 31
0.0
  0
LINE
  8
0
 62
     0
 10
2.47917
 20
20.5382
 30
0.0
 11
2.3164
 21
20.3306
 31
0.0
  0
LINE
  8
0
 62
     0
 10
2.3164
 20
20.3306
 30
0.0
 11
2.17535
 21
20.1137
 31
0.0
  0
LINE
  8
0
 62
     0
 10
2.17535
 20
20.1137
 30
0.0
 11
2.05599
 21
19.8878
 31
0.0
  0
LINE
  8
0
 62
     0
 10
2.05599
 20
19.8878
 30
0.0
 11
1.95833
 21
19.6528
 31
0.0
  0
LINE
  8
0
 62
     0
 10
1.95833
 20
19.6528
 30
0.0
 11
1.875
 21
19.3876
 31
0.0
  0
LINE
  8
0
 62
     0
 10
1.875
 20
19.3876
 30
0.0
 11
1.82639
 21
19.1268
 31
0.0
  0
LINE
  8
0
 62
     0
 10
1.82639
 20
19.1268
 30
0.0
 11
1.8125
 21
18.8703
 31
0.0
  0
LINE
  8
0
 62
     0
 10
1.8125
 20
18.8703
 30
0.0
 11
1.83333
 21
18.6181
 31
0.0
  0
LINE
  8
0
 62
     0
 10
1.83333
 20
18.6181
 30
0.0
 11
1.88889
 21
18.3703
 31
0.0
  0
LINE
  8
0
 62
     0
 10
1.88889
 20
18.3703
 30
0.0
 11
1.97917
 21
18.1268
 31
0.0
  0
LINE
  8
0
 62
     0
 10
1.97917
 20
18.1268
 30
0.0
 11
2.10417
 21
17.8876
 31
0.0
  0
LINE
  8
0
 62
     0
 10
2.10417
 20
17.8876
 30
0.0
 11
2.26389
 21
17.6528
 31
0.0
  0
LINE
  8
0
 62
     0
 10
2.26389
 20
17.6528
 30
0.0
 11
2.36111
 21
17.579
 31
0.0
  0
LINE
  8
0
 62
     0
 10
2.36111
 20
17.579
 30
0.0
 11
2.51389
 21
17.5521
 31
0.0
  0
LINE
  8
0
 62
     0
 10
2.51389
 20
17.5521
 30
0.0
 11
2.72222
 21
17.5721
 31
0.0
  0
LINE
  8
0
 62
     0
 10
2.72222
 20
17.5721
 30
0.0
 11
2.98611
 21
17.6389
 31
0.0
  0
ENDSEC
  0
EOF
