  0
SECTION
  2
HEADER
  9
$ACADVER
  1
AC1009
  9
$EXTMIN
 10
0.0
 20
0.0
 30
0.0
  9
$EXTMAX
 10
1000.0
 20
1000.0
 30
0.0
  9
$FILLMODE
 70
 0
  9
$SPLFRAME
 70
 1
  0
ENDSEC
  0
SECTION
  2
TABLES
  0
TABLE
  2
LAYER
 70
1
  0
LAYER
  2
0
 70
     0
 62
     7
  6
CONTINUOUS
  0
ENDTAB
  0
ENDSEC
  0
SECTION
  2
ENTITIES
  0
LINE
  8
0
 62
     0
 10
13.0833
 20
10.9722
 30
0.0
 11
12.9279
 21
11.106
 31
0.0
  0
LINE
  8
0
 62
     0
 10
12.9279
 20
11.106
 30
0.0
 11
12.7534
 21
11.2014
 31
0.0
  0
LINE
  8
0
 62
     0
 10
12.7534
 20
11.2014
 30
0.0
 11
12.5598
 21
11.2587
 31
0.0
  0
LINE
  8
0
 62
     0
 10
12.5598
 20
11.2587
 30
0.0
 11
12.3472
 21
11.2778
 31
0.0
  0
LINE
  8
0
 62
     0
 10
12.3472
 20
11.2778
 30
0.0
 11
11.2388
 21
11.281
 31
0.0
  0
LINE
  8
0
 62
     0
 10
11.2388
 20
11.281
 30
0.0
 11
10.1949
 21
11.2839
 31
0.0
  0
LINE
  8
0
 62
     0
 10
10.1949
 20
11.2839
 30
0.0
 11
9.21539
 21
11.2862
 31
0.0
  0
LINE
  8
0
 62
     0
 10
9.21539
 20
11.2862
 30
0.0
 11
8.30035
 21
11.2882
 31
0.0
  0
LINE
  8
0
 62
     0
 10
8.30035
 20
11.2882
 30
0.0
 11
7.44976
 21
11.2897
 31
0.0
  0
LINE
  8
0
 62
     0
 10
7.44976
 20
11.2897
 30
0.0
 11
6.66363
 21
11.2908
 31
0.0
  0
LINE
  8
0
 62
     0
 10
6.66363
 20
11.2908
 30
0.0
 11
5.94194
 21
11.2914
 31
0.0
  0
LINE
  8
0
 62
     0
 10
5.94194
 20
11.2914
 30
0.0
 11
5.28472
 21
11.2917
 31
0.0
  0
LINE
  8
0
 62
     0
 10
5.28472
 20
11.2917
 30
0.0
 11
4.69194
 21
11.2914
 31
0.0
  0
LINE
  8
0
 62
     0
 10
4.69194
 20
11.2914
 30
0.0
 11
4.16363
 21
11.2908
 31
0.0
  0
LINE
  8
0
 62
     0
 10
4.16363
 20
11.2908
 30
0.0
 11
3.69976
 21
11.2897
 31
0.0
  0
LINE
  8
0
 62
     0
 10
3.69976
 20
11.2897
 30
0.0
 11
3.30035
 21
11.2882
 31
0.0
  0
LINE
  8
0
 62
     0
 10
3.30035
 20
11.2882
 30
0.0
 11
2.96539
 21
11.2862
 31
0.0
  0
LINE
  8
0
 62
     0
 10
2.96539
 20
11.2862
 30
0.0
 11
2.69488
 21
11.2839
 31
0.0
  0
LINE
  8
0
 62
     0
 10
2.69488
 20
11.2839
 30
0.0
 11
2.48882
 21
11.281
 31
0.0
  0
LINE
  8
0
 62
     0
 10
2.48882
 20
11.281
 30
0.0
 11
2.34722
 21
11.2778
 31
0.0
  0
LINE
  8
0
 62
     0
 10
2.34722
 20
11.2778
 30
0.0
 11
2.07894
 21
11.2526
 31
0.0
  0
LINE
  8
0
 62
     0
 10
2.07894
 20
11.2526
 30
0.0
 11
1.82981
 21
11.191
 31
0.0
  0
LINE
  8
0
 62
     0
 10
1.82981
 20
11.191
 30
0.0
 11
1.59978
 21
11.0929
 31
0.0
  0
LINE
  8
0
 62
     0
 10
1.59978
 20
11.0929
 30
0.0
 11
1.38889
 21
10.9583
 31
0.0
  0
LINE
  8
0
 62
     0
 10
1.38889
 20
10.9583
 30
0.0
 11
1.21262
 21
10.8126
 31
0.0
  0
LINE
  8
0
 62
     0
 10
1.21262
 20
10.8126
 30
0.0
 11
1.07292
 21
10.6528
 31
0.0
  0
LINE
  8
0
 62
     0
 10
1.07292
 20
10.6528
 30
0.0
 11
0.969618
 21
10.4792
 31
0.0
  0
LINE
  8
0
 62
     0
 10
0.969618
 20
10.4792
 30
0.0
 11
0.902778
 21
10.2917
 31
0.0
  0
LINE
  8
0
 62
     0
 10
0.902778
 20
10.2917
 30
0.0
 11
0.876682
 21
10.112
 31
0.0
  0
LINE
  8
0
 62
     0
 10
0.876682
 20
10.112
 30
0.0
 11
0.895779
 21
9.94792
 31
0.0
  0
LINE
  8
0
 62
     0
 10
0.895779
 20
9.94792
 30
0.0
 11
0.960015
 21
9.79949
 31
0.0
  0
LINE
  8
0
 62
     0
 10
0.960015
 20
9.79949
 30
0.0
 11
1.06944
 21
9.66667
 31
0.0
  0
LINE
  8
0
 62
     0
 10
1.06944
 20
9.66667
 30
0.0
 11
1.24479
 21
9.54085
 31
0.0
  0
LINE
  8
0
 62
     0
 10
1.24479
 20
9.54085
 30
0.0
 11
1.46528
 21
9.45492
 31
0.0
  0
LINE
  8
0
 62
     0
 10
1.46528
 20
9.45492
 30
0.0
 11
1.7309
 21
9.4089
 31
0.0
  0
LINE
  8
0
 62
     0
 10
1.7309
 20
9.4089
 30
0.0
 11
2.04167
 21
9.40278
 31
0.0
  0
LINE
  8
0
 62
     0
 10
2.04167
 20
9.40278
 30
0.0
 11
2.15283
 21
9.40446
 31
0.0
  0
LINE
  8
0
 62
     0
 10
2.15283
 20
9.40446
 30
0.0
 11
2.32661
 21
9.40588
 31
0.0
  0
LINE
  8
0
 62
     0
 10
2.32661
 20
9.40588
 30
0.0
 11
2.56299
 21
9.40707
 31
0.0
  0
LINE
  8
0
 62
     0
 10
2.56299
 20
9.40707
 30
0.0
 11
2.86199
 21
9.40804
 31
0.0
  0
LINE
  8
0
 62
     0
 10
2.86199
 20
9.40804
 30
0.0
 11
3.22358
 21
9.40881
 31
0.0
  0
LINE
  8
0
 62
     0
 10
3.22358
 20
9.40881
 30
0.0
 11
3.64779
 21
9.40935
 31
0.0
  0
LINE
  8
0
 62
     0
 10
3.64779
 20
9.40935
 30
0.0
 11
4.1346
 21
9.40967
 31
0.0
  0
LINE
  8
0
 62
     0
 10
4.1346
 20
9.40967
 30
0.0
 11
4.68403
 21
9.40978
 31
0.0
  0
LINE
  8
0
 62
     0
 10
4.68403
 20
9.40978
 30
0.0
 11
5.29606
 21
9.40967
 31
0.0
  0
LINE
  8
0
 62
     0
 10
5.29606
 20
9.40967
 30
0.0
 11
5.97071
 21
9.40935
 31
0.0
  0
LINE
  8
0
 62
     0
 10
5.97071
 20
9.40935
 30
0.0
 11
6.70796
 21
9.40881
 31
0.0
  0
LINE
  8
0
 62
     0
 10
6.70796
 20
9.40881
 30
0.0
 11
7.50782
 21
9.40804
 31
0.0
  0
LINE
  8
0
 62
     0
 10
7.50782
 20
9.40804
 30
0.0
 11
8.37028
 21
9.40707
 31
0.0
  0
LINE
  8
0
 62
     0
 10
8.37028
 20
9.40707
 30
0.0
 11
9.29536
 21
9.40588
 31
0.0
  0
LINE
  8
0
 62
     0
 10
9.29536
 20
9.40588
 30
0.0
 11
10.283
 21
9.40446
 31
0.0
  0
LINE
  8
0
 62
     0
 10
10.283
 20
9.40446
 30
0.0
 11
11.3333
 21
9.40278
 31
0.0
  0
LINE
  8
0
 62
     0
 10
11.3333
 20
9.40278
 30
0.0
 11
11.6658
 21
9.41254
 31
0.0
  0
LINE
  8
0
 62
     0
 10
11.6658
 20
9.41254
 30
0.0
 11
11.9688
 21
9.44879
 31
0.0
  0
LINE
  8
0
 62
     0
 10
11.9688
 20
9.44879
 30
0.0
 11
12.2422
 21
9.5115
 31
0.0
  0
LINE
  8
0
 62
     0
 10
12.2422
 20
9.5115
 30
0.0
 11
12.4861
 21
9.60069
 31
0.0
  0
LINE
  8
0
 62
     0
 10
12.4861
 20
9.60069
 30
0.0
 11
12.7005
 21
9.71636
 31
0.0
  0
LINE
  8
0
 62
     0
 10
12.7005
 20
9.71636
 30
0.0
 11
12.8854
 21
9.85851
 31
0.0
  0
LINE
  8
0
 62
     0
 10
12.8854
 20
9.85851
 30
0.0
 11
13.0408
 21
10.0271
 31
0.0
  0
LINE
  8
0
 62
     0
 10
13.0408
 20
10.0271
 30
0.0
 11
13.1667
 21
10.2222
 31
0.0
  0
LINE
  8
0
 62
     0
 10
13.1667
 20
10.2222
 30
0.0
 11
13.2396
 21
10.4201
 31
0.0
  0
LINE
  8
0
 62
     0
 10
13.2396
 20
10.4201
 30
0.0
 11
13.25
 21
10.6111
 31
0.0
  0
LINE
  8
0
 62
     0
 10
13.25
 20
10.6111
 30
0.0
 11
13.1979
 21
10.7951
 31
0.0
  0
LINE
  8
0
 62
     0
 10
13.1979
 20
10.7951
 30
0.0
 11
13.0833
 21
10.9722
 31
0.0
  0
LINE
  8
0
 62
     0
 10
5.76389
 20
15.5417
 30
0.0
 11
5.59636
 21
15.3803
 31
0.0
  0
LINE
  8
0
 62
     0
 10
5.59636
 20
15.3803
 30
0.0
 11
5.46875
 21
15.2014
 31
0.0
  0
LINE
  8
0
 62
     0
 10
5.46875
 20
15.2014
 30
0.0
 11
5.38108
 21
15.0053
 31
0.0
  0
LINE
  8
0
 62
     0
 10
5.38108
 20
15.0053
 30
0.0
 11
5.33333
 21
14.7917
 31
0.0
  0
LINE
  8
0
 62
     0
 10
5.33333
 20
14.7917
 30
0.0
 11
5.32118
 21
14.579
 31
0.0
  0
LINE
  8
0
 62
     0
 10
5.32118
 20
14.579
 30
0.0
 11
5.35417
 21
14.3854
 31
0.0
  0
LINE
  8
0
 62
     0
 10
5.35417
 20
14.3854
 30
0.0
 11
5.43229
 21
14.211
 31
0.0
  0
LINE
  8
0
 62
     0
 10
5.43229
 20
14.211
 30
0.0
 11
5.55556
 21
14.0556
 31
0.0
  0
LINE
  8
0
 62
     0
 10
5.55556
 20
14.0556
 30
0.0
 11
5.73693
 21
13.9036
 31
0.0
  0
LINE
  8
0
 62
     0
 10
5.73693
 20
13.9036
 30
0.0
 11
5.96175
 21
13.7951
 31
0.0
  0
LINE
  8
0
 62
     0
 10
5.96175
 20
13.7951
 30
0.0
 11
6.22999
 21
13.73
 31
0.0
  0
LINE
  8
0
 62
     0
 10
6.22999
 20
13.73
 30
0.0
 11
6.54167
 21
13.7083
 31
0.0
  0
LINE
  8
0
 62
     0
 10
6.54167
 20
13.7083
 30
0.0
 11
6.82813
 21
13.73
 31
0.0
  0
LINE
  8
0
 62
     0
 10
6.82813
 20
13.73
 30
0.0
 11
7.09028
 21
13.7951
 31
0.0
  0
LINE
  8
0
 62
     0
 10
7.09028
 20
13.7951
 30
0.0
 11
7.32813
 21
13.9036
 31
0.0
  0
LINE
  8
0
 62
     0
 10
7.32813
 20
13.9036
 30
0.0
 11
7.54167
 21
14.0556
 31
0.0
  0
LINE
  8
0
 62
     0
 10
7.54167
 20
14.0556
 30
0.0
 11
7.71007
 21
14.2163
 31
0.0
  0
LINE
  8
0
 62
     0
 10
7.71007
 20
14.2163
 30
0.0
 11
7.84028
 21
14.3924
 31
0.0
  0
LINE
  8
0
 62
     0
 10
7.84028
 20
14.3924
 30
0.0
 11
7.93229
 21
14.5842
 31
0.0
  0
LINE
  8
0
 62
     0
 10
7.93229
 20
14.5842
 30
0.0
 11
7.98611
 21
14.7917
 31
0.0
  0
LINE
  8
0
 62
     0
 10
7.98611
 20
14.7917
 30
0.0
 11
7.99219
 21
15.0104
 31
0.0
  0
LINE
  8
0
 62
     0
 10
7.99219
 20
15.0104
 30
0.0
 11
7.95486
 21
15.2083
 31
0.0
  0
LINE
  8
0
 62
     0
 10
7.95486
 20
15.2083
 30
0.0
 11
7.87414
 21
15.3854
 31
0.0
  0
LINE
  8
0
 62
     0
 10
7.87414
 20
15.3854
 30
0.0
 11
7.75
 21
15.5417
 31
0.0
  0
LINE
  8
0
 62
     0
 10
7.75
 20
15.5417
 30
0.0
 11
7.56858
 21
15.6936
 31
0.0
  0
LINE
  8
0
 62
     0
 10
7.56858
 20
15.6936
 30
0.0
 11
7.34375
 21
15.8021
 31
0.0
  0
LINE
  8
0
 62
     0
 10
7.34375
 20
15.8021
 30
0.0
 11
7.07553
 21
15.8672
 31
0.0
  0
LINE
  8
0
 62
     0
 10
7.07553
 20
15.8672
 30
0.0
 11
6.76389
 21
15.8889
 31
0.0
  0
LINE
  8
0
 62
     0
 10
6.76389
 20
15.8889
 30
0.0
 11
6.48264
 21
15.8672
 31
0.0
  0
LINE
  8
0
 62
     0
 10
6.48264
 20
15.8672
 30
0.0
 11
6.22222
 21
15.8021
 31
0.0
  0
LINE
  8
0
 62
     0
 10
6.22222
 20
15.8021
 30
0.0
 11
5.98264
 21
15.6936
 31
0.0
  0
LINE
  8
0
 62
     0
 10
5.98264
 20
15.6936
 30
0.0
 11
5.76389
 21
15.5417
 31
0.0
  0
LINE
  8
0
 62
     0
 10
7.90278
 20
5.48611
 30
0.0
 11
8.07118
 21
5.65278
 31
0.0
  0
LINE
  8
0
 62
     0
 10
8.07118
 20
5.65278
 30
0.0
 11
8.20139
 21
5.83333
 31
0.0
  0
LINE
  8
0
 62
     0
 10
8.20139
 20
5.83333
 30
0.0
 11
8.2934
 21
6.02778
 31
0.0
  0
LINE
  8
0
 62
     0
 10
8.2934
 20
6.02778
 30
0.0
 11
8.34722
 21
6.23611
 31
0.0
  0
LINE
  8
0
 62
     0
 10
8.34722
 20
6.23611
 30
0.0
 11
8.35846
 21
6.44965
 31
0.0
  0
LINE
  8
0
 62
     0
 10
8.35846
 20
6.44965
 30
0.0
 11
8.32292
 21
6.64583
 31
0.0
  0
LINE
  8
0
 62
     0
 10
8.32292
 20
6.64583
 30
0.0
 11
8.24046
 21
6.82465
 31
0.0
  0
LINE
  8
0
 62
     0
 10
8.24046
 20
6.82465
 30
0.0
 11
8.11111
 21
6.98611
 31
0.0
  0
LINE
  8
0
 62
     0
 10
8.11111
 20
6.98611
 30
0.0
 11
7.92969
 21
7.13807
 31
0.0
  0
LINE
  8
0
 62
     0
 10
7.92969
 20
7.13807
 30
0.0
 11
7.70486
 21
7.24658
 31
0.0
  0
LINE
  8
0
 62
     0
 10
7.70486
 20
7.24658
 30
0.0
 11
7.43664
 21
7.31168
 31
0.0
  0
LINE
  8
0
 62
     0
 10
7.43664
 20
7.31168
 30
0.0
 11
7.125
 21
7.33333
 31
0.0
  0
LINE
  8
0
 62
     0
 10
7.125
 20
7.33333
 30
0.0
 11
6.84375
 21
7.31168
 31
0.0
  0
LINE
  8
0
 62
     0
 10
6.84375
 20
7.31168
 30
0.0
 11
6.58333
 21
7.24658
 31
0.0
  0
LINE
  8
0
 62
     0
 10
6.58333
 20
7.24658
 30
0.0
 11
6.34375
 21
7.13807
 31
0.0
  0
LINE
  8
0
 62
     0
 10
6.34375
 20
7.13807
 30
0.0
 11
6.125
 21
6.98611
 31
0.0
  0
LINE
  8
0
 62
     0
 10
6.125
 20
6.98611
 30
0.0
 11
5.96268
 21
6.82465
 31
0.0
  0
LINE
  8
0
 62
     0
 10
5.96268
 20
6.82465
 30
0.0
 11
5.83681
 21
6.64583
 31
0.0
  0
LINE
  8
0
 62
     0
 10
5.83681
 20
6.64583
 30
0.0
 11
5.74735
 21
6.44965
 31
0.0
  0
LINE
  8
0
 62
     0
 10
5.74735
 20
6.44965
 30
0.0
 11
5.69444
 21
6.23611
 31
0.0
  0
LINE
  8
0
 62
     0
 10
5.69444
 20
6.23611
 30
0.0
 11
5.68229
 21
6.02263
 31
0.0
  0
LINE
  8
0
 62
     0
 10
5.68229
 20
6.02263
 30
0.0
 11
5.71528
 21
5.82644
 31
0.0
  0
LINE
  8
0
 62
     0
 10
5.71528
 20
5.82644
 30
0.0
 11
5.7934
 21
5.64763
 31
0.0
  0
LINE
  8
0
 62
     0
 10
5.7934
 20
5.64763
 30
0.0
 11
5.91667
 21
5.48611
 31
0.0
  0
LINE
  8
0
 62
     0
 10
5.91667
 20
5.48611
 30
0.0
 11
6.0989
 21
5.34028
 31
0.0
  0
LINE
  8
0
 62
     0
 10
6.0989
 20
5.34028
 30
0.0
 11
6.32633
 21
5.23611
 31
0.0
  0
LINE
  8
0
 62
     0
 10
6.32633
 20
5.23611
 30
0.0
 11
6.5989
 21
5.17361
 31
0.0
  0
LINE
  8
0
 62
     0
 10
6.5989
 20
5.17361
 30
0.0
 11
6.91667
 21
5.15278
 31
0.0
  0
LINE
  8
0
 62
     0
 10
6.91667
 20
5.15278
 30
0.0
 11
7.19706
 21
5.17361
 31
0.0
  0
LINE
  8
0
 62
     0
 10
7.19706
 20
5.17361
 30
0.0
 11
7.45486
 21
5.23611
 31
0.0
  0
LINE
  8
0
 62
     0
 10
7.45486
 20
5.23611
 30
0.0
 11
7.69011
 21
5.34028
 31
0.0
  0
LINE
  8
0
 62
     0
 10
7.69011
 20
5.34028
 30
0.0
 11
7.90278
 21
5.48611
 31
0.0
  0
ENDSEC
  0
EOF
