  0
SECTION
  2
HEADER
  9
$ACADVER
  1
AC1009
  9
$EXTMIN
 10
0.0
 20
0.0
 30
0.0
  9
$EXTMAX
 10
1000.0
 20
1000.0
 30
0.0
  9
$FILLMODE
 70
 0
  9
$SPLFRAME
 70
 1
  0
ENDSEC
  0
SECTION
  2
TABLES
  0
TABLE
  2
LAYER
 70
1
  0
LAYER
  2
0
 70
     0
 62
     7
  6
CONTINUOUS
  0
ENDTAB
  0
ENDSEC
  0
SECTION
  2
ENTITIES
  0
LINE
  8
0
 62
     0
 10
7.81944
 20
9.29167
 30
0.0
 11
8.12733
 21
9.18408
 31
0.0
  0
LINE
  8
0
 62
     0
 10
8.12733
 20
9.18408
 30
0.0
 11
8.41228
 21
9.06256
 31
0.0
  0
LINE
  8
0
 62
     0
 10
8.41228
 20
9.06256
 30
0.0
 11
8.67421
 21
8.92714
 31
0.0
  0
LINE
  8
0
 62
     0
 10
8.67421
 20
8.92714
 30
0.0
 11
8.91314
 21
8.77783
 31
0.0
  0
LINE
  8
0
 62
     0
 10
8.91314
 20
8.77783
 30
0.0
 11
9.12907
 21
8.61464
 31
0.0
  0
LINE
  8
0
 62
     0
 10
9.12907
 20
8.61464
 30
0.0
 11
9.322
 21
8.43756
 31
0.0
  0
LINE
  8
0
 62
     0
 10
9.322
 20
8.43756
 30
0.0
 11
9.49192
 21
8.24658
 31
0.0
  0
LINE
  8
0
 62
     0
 10
9.49192
 20
8.24658
 30
0.0
 11
9.63889
 21
8.04167
 31
0.0
  0
LINE
  8
0
 62
     0
 10
9.63889
 20
8.04167
 30
0.0
 11
9.79932
 21
7.76085
 31
0.0
  0
LINE
  8
0
 62
     0
 10
9.79932
 20
7.76085
 30
0.0
 11
9.91932
 21
7.47396
 31
0.0
  0
LINE
  8
0
 62
     0
 10
9.91932
 20
7.47396
 30
0.0
 11
9.99903
 21
7.18099
 31
0.0
  0
LINE
  8
0
 62
     0
 10
9.99903
 20
7.18099
 30
0.0
 11
10.0383
 21
6.88194
 31
0.0
  0
LINE
  8
0
 62
     0
 10
10.0383
 20
6.88194
 30
0.0
 11
10.0372
 21
6.57682
 31
0.0
  0
LINE
  8
0
 62
     0
 10
10.0372
 20
6.57682
 30
0.0
 11
9.99571
 21
6.26563
 31
0.0
  0
LINE
  8
0
 62
     0
 10
9.99571
 20
6.26563
 30
0.0
 11
9.91385
 21
5.94835
 31
0.0
  0
LINE
  8
0
 62
     0
 10
9.91385
 20
5.94835
 30
0.0
 11
9.79167
 21
5.625
 31
0.0
  0
LINE
  8
0
 62
     0
 10
9.79167
 20
5.625
 30
0.0
 11
9.6499
 21
5.34093
 31
0.0
  0
LINE
  8
0
 62
     0
 10
9.6499
 20
5.34093
 30
0.0
 11
9.48172
 21
5.05817
 31
0.0
  0
LINE
  8
0
 62
     0
 10
9.48172
 20
5.05817
 30
0.0
 11
9.28706
 21
4.77669
 31
0.0
  0
LINE
  8
0
 62
     0
 10
9.28706
 20
4.77669
 30
0.0
 11
9.06592
 21
4.49653
 31
0.0
  0
LINE
  8
0
 62
     0
 10
9.06592
 20
4.49653
 30
0.0
 11
8.81831
 21
4.21772
 31
0.0
  0
LINE
  8
0
 62
     0
 10
8.81831
 20
4.21772
 30
0.0
 11
8.54422
 21
3.94015
 31
0.0
  0
LINE
  8
0
 62
     0
 10
8.54422
 20
3.94015
 30
0.0
 11
8.24365
 21
3.6639
 31
0.0
  0
LINE
  8
0
 62
     0
 10
8.24365
 20
3.6639
 30
0.0
 11
7.91667
 21
3.38889
 31
0.0
  0
LINE
  8
0
 62
     0
 10
7.91667
 20
3.38889
 30
0.0
 11
7.90001
 21
4.82036
 31
0.0
  0
LINE
  8
0
 62
     0
 10
7.90001
 20
4.82036
 30
0.0
 11
7.87825
 21
6.28131
 31
0.0
  0
LINE
  8
0
 62
     0
 10
7.87825
 20
6.28131
 30
0.0
 11
7.8514
 21
7.77175
 31
0.0
  0
LINE
  8
0
 62
     0
 10
7.8514
 20
7.77175
 30
0.0
 11
7.81944
 21
9.29167
 31
0.0
  0
LINE
  8
0
 62
     0
 10
4.22222
 20
15.6528
 30
0.0
 11
4.28299
 21
15.7353
 31
0.0
  0
LINE
  8
0
 62
     0
 10
4.28299
 20
15.7353
 30
0.0
 11
4.36806
 21
15.8438
 31
0.0
  0
LINE
  8
0
 62
     0
 10
4.36806
 20
15.8438
 30
0.0
 11
4.47743
 21
15.9783
 31
0.0
  0
LINE
  8
0
 62
     0
 10
4.47743
 20
15.9783
 30
0.0
 11
4.61111
 21
16.1389
 31
0.0
  0
LINE
  8
0
 62
     0
 10
4.61111
 20
16.1389
 30
0.0
 11
4.62582
 21
14.9688
 31
0.0
  0
LINE
  8
0
 62
     0
 10
4.62582
 20
14.9688
 30
0.0
 11
4.64231
 21
13.8612
 31
0.0
  0
LINE
  8
0
 62
     0
 10
4.64231
 20
13.8612
 30
0.0
 11
4.66054
 21
12.816
 31
0.0
  0
LINE
  8
0
 62
     0
 10
4.66054
 20
12.816
 30
0.0
 11
4.68056
 21
11.8333
 31
0.0
  0
LINE
  8
0
 62
     0
 10
4.68056
 20
11.8333
 30
0.0
 11
4.19444
 21
12.0799
 31
0.0
  0
LINE
  8
0
 62
     0
 10
4.19444
 20
12.0799
 30
0.0
 11
3.79167
 21
12.3472
 31
0.0
  0
LINE
  8
0
 62
     0
 10
3.79167
 20
12.3472
 30
0.0
 11
3.65169
 21
12.4659
 31
0.0
  0
LINE
  8
0
 62
     0
 10
3.65169
 20
12.4659
 30
0.0
 11
3.53401
 21
12.5964
 31
0.0
  0
LINE
  8
0
 62
     0
 10
3.53401
 20
12.5964
 30
0.0
 11
3.43858
 21
12.7385
 31
0.0
  0
LINE
  8
0
 62
     0
 10
3.43858
 20
12.7385
 30
0.0
 11
3.3654
 21
12.8924
 31
0.0
  0
LINE
  8
0
 62
     0
 10
3.3654
 20
12.8924
 30
0.0
 11
3.31446
 21
13.058
 31
0.0
  0
LINE
  8
0
 62
     0
 10
3.31446
 20
13.058
 30
0.0
 11
3.28575
 21
13.2353
 31
0.0
  0
LINE
  8
0
 62
     0
 10
3.28575
 20
13.2353
 30
0.0
 11
3.27929
 21
13.4243
 31
0.0
  0
LINE
  8
0
 62
     0
 10
3.27929
 20
13.4243
 30
0.0
 11
3.29508
 21
13.6251
 31
0.0
  0
LINE
  8
0
 62
     0
 10
3.29508
 20
13.6251
 30
0.0
 11
3.33311
 21
13.8375
 31
0.0
  0
LINE
  8
0
 62
     0
 10
3.33311
 20
13.8375
 30
0.0
 11
3.39339
 21
14.0617
 31
0.0
  0
LINE
  8
0
 62
     0
 10
3.39339
 20
14.0617
 30
0.0
 11
3.47592
 21
14.2976
 31
0.0
  0
LINE
  8
0
 62
     0
 10
3.47592
 20
14.2976
 30
0.0
 11
3.58068
 21
14.5451
 31
0.0
  0
LINE
  8
0
 62
     0
 10
3.58068
 20
14.5451
 30
0.0
 11
3.70768
 21
14.8046
 31
0.0
  0
LINE
  8
0
 62
     0
 10
3.70768
 20
14.8046
 30
0.0
 11
3.85693
 21
15.0756
 31
0.0
  0
LINE
  8
0
 62
     0
 10
3.85693
 20
15.0756
 30
0.0
 11
4.02843
 21
15.3583
 31
0.0
  0
LINE
  8
0
 62
     0
 10
4.02843
 20
15.3583
 30
0.0
 11
4.22222
 21
15.6528
 31
0.0
  0
LINE
  8
0
 62
     0
 10
7.79167
 20
11.0694
 30
0.0
 11
7.75868
 21
12.783
 31
0.0
  0
LINE
  8
0
 62
     0
 10
7.75868
 20
12.783
 30
0.0
 11
7.72917
 21
14.5208
 31
0.0
  0
LINE
  8
0
 62
     0
 10
7.72917
 20
14.5208
 30
0.0
 11
7.70313
 21
16.2831
 31
0.0
  0
LINE
  8
0
 62
     0
 10
7.70313
 20
16.2831
 30
0.0
 11
7.68056
 21
18.0694
 31
0.0
  0
LINE
  8
0
 62
     0
 10
7.68056
 20
18.0694
 30
0.0
 11
8.3871
 21
18.2639
 31
0.0
  0
LINE
  8
0
 62
     0
 10
8.3871
 20
18.2639
 30
0.0
 11
9.10417
 21
18.4028
 31
0.0
  0
LINE
  8
0
 62
     0
 10
9.10417
 20
18.4028
 30
0.0
 11
9.8316
 21
18.4861
 31
0.0
  0
LINE
  8
0
 62
     0
 10
9.8316
 20
18.4861
 30
0.0
 11
10.5694
 21
18.5139
 31
0.0
  0
LINE
  8
0
 62
     0
 10
10.5694
 20
18.5139
 30
0.0
 11
10.9974
 21
18.5582
 31
0.0
  0
LINE
  8
0
 62
     0
 10
10.9974
 20
18.5582
 30
0.0
 11
11.434
 21
18.691
 31
0.0
  0
LINE
  8
0
 62
     0
 10
11.434
 20
18.691
 30
0.0
 11
11.8793
 21
18.9124
 31
0.0
  0
LINE
  8
0
 62
     0
 10
11.8793
 20
18.9124
 30
0.0
 11
12.3333
 21
19.2222
 31
0.0
  0
LINE
  8
0
 62
     0
 10
12.3333
 20
19.2222
 30
0.0
 11
12.4992
 21
19.3681
 31
0.0
  0
LINE
  8
0
 62
     0
 10
12.4992
 20
19.3681
 30
0.0
 11
12.6077
 21
19.5
 31
0.0
  0
LINE
  8
0
 62
     0
 10
12.6077
 20
19.5
 30
0.0
 11
12.6589
 21
19.6181
 31
0.0
  0
LINE
  8
0
 62
     0
 10
12.6589
 20
19.6181
 30
0.0
 11
12.6528
 21
19.7222
 31
0.0
  0
LINE
  8
0
 62
     0
 10
12.6528
 20
19.7222
 30
0.0
 11
12.5659
 21
19.8256
 31
0.0
  0
LINE
  8
0
 62
     0
 10
12.5659
 20
19.8256
 30
0.0
 11
12.4027
 21
19.8993
 31
0.0
  0
LINE
  8
0
 62
     0
 10
12.4027
 20
19.8993
 30
0.0
 11
12.1631
 21
19.9436
 31
0.0
  0
LINE
  8
0
 62
     0
 10
12.1631
 20
19.9436
 30
0.0
 11
11.8472
 21
19.9583
 31
0.0
  0
LINE
  8
0
 62
     0
 10
11.8472
 20
19.9583
 30
0.0
 11
10.8359
 21
19.9228
 31
0.0
  0
LINE
  8
0
 62
     0
 10
10.8359
 20
19.9228
 30
0.0
 11
9.80208
 21
19.816
 31
0.0
  0
LINE
  8
0
 62
     0
 10
9.80208
 20
19.816
 30
0.0
 11
8.74567
 21
19.6381
 31
0.0
  0
LINE
  8
0
 62
     0
 10
8.74567
 20
19.6381
 30
0.0
 11
7.66667
 21
19.3889
 31
0.0
  0
LINE
  8
0
 62
     0
 10
7.66667
 20
19.3889
 30
0.0
 11
7.66581
 21
19.5357
 31
0.0
  0
LINE
  8
0
 62
     0
 10
7.66581
 20
19.5357
 30
0.0
 11
7.66319
 21
19.7397
 31
0.0
  0
LINE
  8
0
 62
     0
 10
7.66319
 20
19.7397
 30
0.0
 11
7.65886
 21
20.001
 31
0.0
  0
LINE
  8
0
 62
     0
 10
7.65886
 20
20.001
 30
0.0
 11
7.65278
 21
20.3194
 31
0.0
  0
LINE
  8
0
 62
     0
 10
7.65278
 20
20.3194
 30
0.0
 11
7.64665
 21
20.5903
 31
0.0
  0
LINE
  8
0
 62
     0
 10
7.64665
 20
20.5903
 30
0.0
 11
7.64231
 21
20.8333
 31
0.0
  0
LINE
  8
0
 62
     0
 10
7.64231
 20
20.8333
 30
0.0
 11
7.63971
 21
21.0486
 31
0.0
  0
LINE
  8
0
 62
     0
 10
7.63971
 20
21.0486
 30
0.0
 11
7.63889
 21
21.2361
 31
0.0
  0
LINE
  8
0
 62
     0
 10
7.63889
 20
21.2361
 30
0.0
 11
7.60938
 21
21.3881
 31
0.0
  0
LINE
  8
0
 62
     0
 10
7.60938
 20
21.3881
 30
0.0
 11
7.52083
 21
21.5104
 31
0.0
  0
LINE
  8
0
 62
     0
 10
7.52083
 20
21.5104
 30
0.0
 11
7.37326
 21
21.6033
 31
0.0
  0
LINE
  8
0
 62
     0
 10
7.37326
 20
21.6033
 30
0.0
 11
7.16667
 21
21.6667
 31
0.0
  0
LINE
  8
0
 62
     0
 10
7.16667
 20
21.6667
 30
0.0
 11
6.93403
 21
21.7006
 31
0.0
  0
LINE
  8
0
 62
     0
 10
6.93403
 20
21.7006
 30
0.0
 11
6.68056
 21
21.7049
 31
0.0
  0
LINE
  8
0
 62
     0
 10
6.68056
 20
21.7049
 30
0.0
 11
6.40619
 21
21.6797
 31
0.0
  0
LINE
  8
0
 62
     0
 10
6.40619
 20
21.6797
 30
0.0
 11
6.11111
 21
21.625
 31
0.0
  0
LINE
  8
0
 62
     0
 10
6.11111
 20
21.625
 30
0.0
 11
5.80464
 21
21.5392
 31
0.0
  0
LINE
  8
0
 62
     0
 10
5.80464
 20
21.5392
 30
0.0
 11
5.52425
 21
21.434
 31
0.0
  0
LINE
  8
0
 62
     0
 10
5.52425
 20
21.434
 30
0.0
 11
5.26992
 21
21.31
 31
0.0
  0
LINE
  8
0
 62
     0
 10
5.26992
 20
21.31
 30
0.0
 11
5.04167
 21
21.1667
 31
0.0
  0
LINE
  8
0
 62
     0
 10
5.04167
 20
21.1667
 30
0.0
 11
4.83501
 21
20.9949
 31
0.0
  0
LINE
  8
0
 62
     0
 10
4.83501
 20
20.9949
 30
0.0
 11
4.68744
 21
20.8125
 31
0.0
  0
LINE
  8
0
 62
     0
 10
4.68744
 20
20.8125
 30
0.0
 11
4.5989
 21
20.6199
 31
0.0
  0
LINE
  8
0
 62
     0
 10
4.5989
 20
20.6199
 30
0.0
 11
4.56944
 21
20.4167
 31
0.0
  0
LINE
  8
0
 62
     0
 10
4.56944
 20
20.4167
 30
0.0
 11
4.57026
 21
20.1979
 31
0.0
  0
LINE
  8
0
 62
     0
 10
4.57026
 20
20.1979
 30
0.0
 11
4.57286
 21
19.9444
 31
0.0
  0
LINE
  8
0
 62
     0
 10
4.57286
 20
19.9444
 30
0.0
 11
4.57721
 21
19.6563
 31
0.0
  0
LINE
  8
0
 62
     0
 10
4.57721
 20
19.6563
 30
0.0
 11
4.58333
 21
19.3333
 31
0.0
  0
LINE
  8
0
 62
     0
 10
4.58333
 20
19.3333
 30
0.0
 11
4.58415
 21
18.9583
 31
0.0
  0
LINE
  8
0
 62
     0
 10
4.58415
 20
18.9583
 30
0.0
 11
4.58675
 21
18.6528
 31
0.0
  0
LINE
  8
0
 62
     0
 10
4.58675
 20
18.6528
 30
0.0
 11
4.5911
 21
18.4167
 31
0.0
  0
LINE
  8
0
 62
     0
 10
4.5911
 20
18.4167
 30
0.0
 11
4.59722
 21
18.25
 31
0.0
  0
LINE
  8
0
 62
     0
 10
4.59722
 20
18.25
 30
0.0
 11
4.09033
 21
17.9786
 31
0.0
  0
LINE
  8
0
 62
     0
 10
4.09033
 20
17.9786
 30
0.0
 11
3.61496
 21
17.6958
 31
0.0
  0
LINE
  8
0
 62
     0
 10
3.61496
 20
17.6958
 30
0.0
 11
3.17106
 21
17.4014
 31
0.0
  0
LINE
  8
0
 62
     0
 10
3.17106
 20
17.4014
 30
0.0
 11
2.75863
 21
17.0956
 31
0.0
  0
LINE
  8
0
 62
     0
 10
2.75863
 20
17.0956
 30
0.0
 11
2.37765
 21
16.7782
 31
0.0
  0
LINE
  8
0
 62
     0
 10
2.37765
 20
16.7782
 30
0.0
 11
2.02815
 21
16.4493
 31
0.0
  0
LINE
  8
0
 62
     0
 10
2.02815
 20
16.4493
 30
0.0
 11
1.71012
 21
16.1089
 31
0.0
  0
LINE
  8
0
 62
     0
 10
1.71012
 20
16.1089
 30
0.0
 11
1.42356
 21
15.7569
 31
0.0
  0
LINE
  8
0
 62
     0
 10
1.42356
 20
15.7569
 30
0.0
 11
1.16846
 21
15.3936
 31
0.0
  0
LINE
  8
0
 62
     0
 10
1.16846
 20
15.3936
 30
0.0
 11
0.944824
 21
15.0187
 31
0.0
  0
LINE
  8
0
 62
     0
 10
0.944824
 20
15.0187
 30
0.0
 11
0.752658
 21
14.6324
 31
0.0
  0
LINE
  8
0
 62
     0
 10
0.752658
 20
14.6324
 30
0.0
 11
0.59196
 21
14.2344
 31
0.0
  0
LINE
  8
0
 62
     0
 10
0.59196
 20
14.2344
 30
0.0
 11
0.462728
 21
13.825
 31
0.0
  0
LINE
  8
0
 62
     0
 10
0.462728
 20
13.825
 30
0.0
 11
0.364963
 21
13.4041
 31
0.0
  0
LINE
  8
0
 62
     0
 10
0.364963
 20
13.4041
 30
0.0
 11
0.298665
 21
12.9717
 31
0.0
  0
LINE
  8
0
 62
     0
 10
0.298665
 20
12.9717
 30
0.0
 11
0.263889
 21
12.5278
 31
0.0
  0
LINE
  8
0
 62
     0
 10
0.263889
 20
12.5278
 30
0.0
 11
0.278646
 21
12.2237
 31
0.0
  0
LINE
  8
0
 62
     0
 10
0.278646
 20
12.2237
 30
0.0
 11
0.34375
 21
11.9366
 31
0.0
  0
LINE
  8
0
 62
     0
 10
0.34375
 20
11.9366
 30
0.0
 11
0.459201
 21
11.6664
 31
0.0
  0
LINE
  8
0
 62
     0
 10
0.459201
 20
11.6664
 30
0.0
 11
0.625
 21
11.4132
 31
0.0
  0
LINE
  8
0
 62
     0
 10
0.625
 20
11.4132
 30
0.0
 11
0.841146
 21
11.1769
 31
0.0
  0
LINE
  8
0
 62
     0
 10
0.841146
 20
11.1769
 30
0.0
 11
1.10764
 21
10.9575
 31
0.0
  0
LINE
  8
0
 62
     0
 10
1.10764
 20
10.9575
 30
0.0
 11
1.42449
 21
10.755
 31
0.0
  0
LINE
  8
0
 62
     0
 10
1.42449
 20
10.755
 30
0.0
 11
1.79167
 21
10.5694
 31
0.0
  0
LINE
  8
0
 62
     0
 10
1.79167
 20
10.5694
 30
0.0
 11
2.05925
 21
10.4577
 31
0.0
  0
LINE
  8
0
 62
     0
 10
2.05925
 20
10.4577
 30
0.0
 11
2.35504
 21
10.3516
 31
0.0
  0
LINE
  8
0
 62
     0
 10
2.35504
 20
10.3516
 30
0.0
 11
2.67904
 21
10.2511
 31
0.0
  0
LINE
  8
0
 62
     0
 10
2.67904
 20
10.2511
 30
0.0
 11
3.03125
 21
10.1563
 31
0.0
  0
LINE
  8
0
 62
     0
 10
3.03125
 20
10.1563
 30
0.0
 11
3.41168
 21
10.0671
 31
0.0
  0
LINE
  8
0
 62
     0
 10
3.41168
 20
10.0671
 30
0.0
 11
3.82032
 21
9.98351
 31
0.0
  0
LINE
  8
0
 62
     0
 10
3.82032
 20
9.98351
 30
0.0
 11
4.25717
 21
9.9056
 31
0.0
  0
LINE
  8
0
 62
     0
 10
4.25717
 20
9.9056
 30
0.0
 11
4.72222
 21
9.83333
 31
0.0
  0
LINE
  8
0
 62
     0
 10
4.72222
 20
9.83333
 30
0.0
 11
4.7621
 21
7.65631
 31
0.0
  0
LINE
  8
0
 62
     0
 10
4.7621
 20
7.65631
 30
0.0
 11
4.79856
 21
5.5695
 31
0.0
  0
LINE
  8
0
 62
     0
 10
4.79856
 20
5.5695
 30
0.0
 11
4.83154
 21
3.57297
 31
0.0
  0
LINE
  8
0
 62
     0
 10
4.83154
 20
3.57297
 30
0.0
 11
4.86111
 21
1.66667
 31
0.0
  0
LINE
  8
0
 62
     0
 10
4.86111
 20
1.66667
 30
0.0
 11
4.51801
 21
1.55322
 31
0.0
  0
LINE
  8
0
 62
     0
 10
4.51801
 20
1.55322
 30
0.0
 11
4.19706
 21
1.46272
 31
0.0
  0
LINE
  8
0
 62
     0
 10
4.19706
 20
1.46272
 30
0.0
 11
3.89822
 21
1.39524
 31
0.0
  0
LINE
  8
0
 62
     0
 10
3.89822
 20
1.39524
 30
0.0
 11
3.62153
 21
1.35075
 31
0.0
  0
LINE
  8
0
 62
     0
 10
3.62153
 20
1.35075
 30
0.0
 11
3.36697
 21
1.32926
 31
0.0
  0
LINE
  8
0
 62
     0
 10
3.36697
 20
1.32926
 30
0.0
 11
3.13456
 21
1.33078
 31
0.0
  0
LINE
  8
0
 62
     0
 10
3.13456
 20
1.33078
 30
0.0
 11
2.92426
 21
1.35531
 31
0.0
  0
LINE
  8
0
 62
     0
 10
2.92426
 20
1.35531
 30
0.0
 11
2.73611
 21
1.40278
 31
0.0
  0
LINE
  8
0
 62
     0
 10
2.73611
 20
1.40278
 30
0.0
 11
2.56896
 21
1.44185
 31
0.0
  0
LINE
  8
0
 62
     0
 10
2.56896
 20
1.44185
 30
0.0
 11
2.38015
 21
1.45486
 31
0.0
  0
LINE
  8
0
 62
     0
 10
2.38015
 20
1.45486
 30
0.0
 11
2.16965
 21
1.44185
 31
0.0
  0
LINE
  8
0
 62
     0
 10
2.16965
 20
1.44185
 30
0.0
 11
1.93744
 21
1.40278
 31
0.0
  0
LINE
  8
0
 62
     0
 10
1.93744
 20
1.40278
 30
0.0
 11
1.68354
 21
1.33767
 31
0.0
  0
LINE
  8
0
 62
     0
 10
1.68354
 20
1.33767
 30
0.0
 11
1.40793
 21
1.24653
 31
0.0
  0
LINE
  8
0
 62
     0
 10
1.40793
 20
1.24653
 30
0.0
 11
1.11062
 21
1.12934
 31
0.0
  0
LINE
  8
0
 62
     0
 10
1.11062
 20
1.12934
 30
0.0
 11
0.791667
 21
0.986111
 31
0.0
  0
LINE
  8
0
 62
     0
 10
0.791667
 20
0.986111
 30
0.0
 11
0.543403
 21
0.855903
 31
0.0
  0
LINE
  8
0
 62
     0
 10
0.543403
 20
0.855903
 30
0.0
 11
0.340278
 21
0.729167
 31
0.0
  0
LINE
  8
0
 62
     0
 10
0.340278
 20
0.729167
 30
0.0
 11
0.182292
 21
0.605903
 31
0.0
  0
LINE
  8
0
 62
     0
 10
0.182292
 20
0.605903
 30
0.0
 11
0.0694444
 21
0.486111
 31
0.0
  0
LINE
  8
0
 62
     0
 10
0.0694444
 20
0.486111
 30
0.0
 11
0.00173611
 21
0.362847
 31
0.0
  0
LINE
  8
0
 62
     0
 10
0.00173611
 20
0.362847
 30
0.0
 11
0.00694444
 21
0.256944
 31
0.0
  0
LINE
  8
0
 62
     0
 10
0.00694444
 20
0.256944
 30
0.0
 11
0.0850694
 21
0.168403
 31
0.0
  0
LINE
  8
0
 62
     0
 10
0.0850694
 20
0.168403
 30
0.0
 11
0.236111
 21
0.0972222
 31
0.0
  0
LINE
  8
0
 62
     0
 10
0.236111
 20
0.0972222
 30
0.0
 11
0.746039
 21
-0.0542535
 31
0.0
  0
LINE
  8
0
 62
     0
 10
0.746039
 20
-0.0542535
 30
0.0
 11
1.27599
 21
-0.168403
 31
0.0
  0
LINE
  8
0
 62
     0
 10
1.27599
 20
-0.168403
 30
0.0
 11
1.8259
 21
-0.245226
 31
0.0
  0
LINE
  8
0
 62
     0
 10
1.8259
 20
-0.245226
 30
0.0
 11
2.39578
 21
-0.284722
 31
0.0
  0
LINE
  8
0
 62
     0
 10
2.39578
 20
-0.284722
 30
0.0
 11
2.98562
 21
-0.286893
 31
0.0
  0
LINE
  8
0
 62
     0
 10
2.98562
 20
-0.286893
 30
0.0
 11
3.59543
 21
-0.251736
 31
0.0
  0
LINE
  8
0
 62
     0
 10
3.59543
 20
-0.251736
 30
0.0
 11
4.22521
 21
-0.179254
 31
0.0
  0
LINE
  8
0
 62
     0
 10
4.22521
 20
-0.179254
 30
0.0
 11
4.875
 21
-0.0694444
 31
0.0
  0
LINE
  8
0
 62
     0
 10
4.875
 20
-0.0694444
 30
0.0
 11
4.875
 21
-0.819444
 31
0.0
  0
LINE
  8
0
 62
     0
 10
4.875
 20
-0.819444
 30
0.0
 11
4.88542
 21
-1.24306
 31
0.0
  0
LINE
  8
0
 62
     0
 10
4.88542
 20
-1.24306
 30
0.0
 11
4.88889
 21
-1.56944
 31
0.0
  0
LINE
  8
0
 62
     0
 10
4.88889
 20
-1.56944
 30
0.0
 11
4.91928
 21
-1.72131
 31
0.0
  0
LINE
  8
0
 62
     0
 10
4.91928
 20
-1.72131
 30
0.0
 11
5.01042
 21
-1.84369
 31
0.0
  0
LINE
  8
0
 62
     0
 10
5.01042
 20
-1.84369
 30
0.0
 11
5.16233
 21
-1.93658
 31
0.0
  0
LINE
  8
0
 62
     0
 10
5.16233
 20
-1.93658
 30
0.0
 11
5.375
 21
-2
 31
0.0
  0
LINE
  8
0
 62
     0
 10
5.375
 20
-2
 30
0.0
 11
5.60243
 21
-2.03386
 31
0.0
  0
LINE
  8
0
 62
     0
 10
5.60243
 20
-2.03386
 30
0.0
 11
5.85417
 21
-2.03819
 31
0.0
  0
LINE
  8
0
 62
     0
 10
5.85417
 20
-2.03819
 30
0.0
 11
6.13021
 21
-2.01303
 31
0.0
  0
LINE
  8
0
 62
     0
 10
6.13021
 20
-2.01303
 30
0.0
 11
6.43056
 21
-1.95833
 31
0.0
  0
LINE
  8
0
 62
     0
 10
6.43056
 20
-1.95833
 30
0.0
 11
6.7309
 21
-1.87326
 31
0.0
  0
LINE
  8
0
 62
     0
 10
6.7309
 20
-1.87326
 30
0.0
 11
7.00694
 21
-1.77083
 31
0.0
  0
LINE
  8
0
 62
     0
 10
7.00694
 20
-1.77083
 30
0.0
 11
7.25868
 21
-1.65104
 31
0.0
  0
LINE
  8
0
 62
     0
 10
7.25868
 20
-1.65104
 30
0.0
 11
7.48611
 21
-1.51389
 31
0.0
  0
LINE
  8
0
 62
     0
 10
7.48611
 20
-1.51389
 30
0.0
 11
7.69271
 21
-1.33588
 31
0.0
  0
LINE
  8
0
 62
     0
 10
7.69271
 20
-1.33588
 30
0.0
 11
7.84028
 21
-1.14925
 31
0.0
  0
LINE
  8
0
 62
     0
 10
7.84028
 20
-1.14925
 30
0.0
 11
7.92882
 21
-0.953939
 31
0.0
  0
LINE
  8
0
 62
     0
 10
7.92882
 20
-0.953939
 30
0.0
 11
7.95833
 21
-0.75
 31
0.0
  0
LINE
  8
0
 62
     0
 10
7.95833
 20
-0.75
 30
0.0
 11
7.95833
 21
0.0972222
 31
0.0
  0
LINE
  8
0
 62
     0
 10
7.95833
 20
0.0972222
 30
0.0
 11
7.95221
 21
0.385471
 31
0.0
  0
LINE
  8
0
 62
     0
 10
7.95221
 20
0.385471
 30
0.0
 11
7.94786
 21
0.625054
 31
0.0
  0
LINE
  8
0
 62
     0
 10
7.94786
 20
0.625054
 30
0.0
 11
7.94526
 21
0.816026
 31
0.0
  0
LINE
  8
0
 62
     0
 10
7.94526
 20
0.816026
 30
0.0
 11
7.94444
 21
0.958333
 31
0.0
  0
LINE
  8
0
 62
     0
 10
7.94444
 20
0.958333
 30
0.0
 11
8.4891
 21
1.23503
 31
0.0
  0
LINE
  8
0
 62
     0
 10
8.4891
 20
1.23503
 30
0.0
 11
9.00515
 21
1.53039
 31
0.0
  0
LINE
  8
0
 62
     0
 10
9.00515
 20
1.53039
 30
0.0
 11
9.49257
 21
1.8444
 31
0.0
  0
LINE
  8
0
 62
     0
 10
9.49257
 20
1.8444
 30
0.0
 11
9.95139
 21
2.17708
 31
0.0
  0
LINE
  8
0
 62
     0
 10
9.95139
 20
2.17708
 30
0.0
 11
10.3815
 21
2.52843
 31
0.0
  0
LINE
  8
0
 62
     0
 10
10.3815
 20
2.52843
 30
0.0
 11
10.783
 21
2.89844
 31
0.0
  0
LINE
  8
0
 62
     0
 10
10.783
 20
2.89844
 30
0.0
 11
11.1558
 21
3.28711
 31
0.0
  0
LINE
  8
0
 62
     0
 10
11.1558
 20
3.28711
 30
0.0
 11
11.5
 21
3.69444
 31
0.0
  0
LINE
  8
0
 62
     0
 10
11.5
 20
3.69444
 30
0.0
 11
11.8376
 21
4.16129
 31
0.0
  0
LINE
  8
0
 62
     0
 10
11.8376
 20
4.16129
 30
0.0
 11
12.1284
 21
4.63807
 31
0.0
  0
LINE
  8
0
 62
     0
 10
12.1284
 20
4.63807
 30
0.0
 11
12.3723
 21
5.12483
 31
0.0
  0
LINE
  8
0
 62
     0
 10
12.3723
 20
5.12483
 30
0.0
 11
12.5694
 21
5.62158
 31
0.0
  0
LINE
  8
0
 62
     0
 10
12.5694
 20
5.62158
 30
0.0
 11
12.7196
 21
6.12831
 31
0.0
  0
LINE
  8
0
 62
     0
 10
12.7196
 20
6.12831
 30
0.0
 11
12.8229
 21
6.64501
 31
0.0
  0
LINE
  8
0
 62
     0
 10
12.8229
 20
6.64501
 30
0.0
 11
12.8793
 21
7.17171
 31
0.0
  0
LINE
  8
0
 62
     0
 10
12.8793
 20
7.17171
 30
0.0
 11
12.8889
 21
7.70833
 31
0.0
  0
LINE
  8
0
 62
     0
 10
12.8889
 20
7.70833
 30
0.0
 11
12.8635
 21
8.06272
 31
0.0
  0
LINE
  8
0
 62
     0
 10
12.8635
 20
8.06272
 30
0.0
 11
12.8012
 21
8.39671
 31
0.0
  0
LINE
  8
0
 62
     0
 10
12.8012
 20
8.39671
 30
0.0
 11
12.702
 21
8.71029
 31
0.0
  0
LINE
  8
0
 62
     0
 10
12.702
 20
8.71029
 30
0.0
 11
12.566
 21
9.00347
 31
0.0
  0
LINE
  8
0
 62
     0
 10
12.566
 20
9.00347
 30
0.0
 11
12.393
 21
9.27626
 31
0.0
  0
LINE
  8
0
 62
     0
 10
12.393
 20
9.27626
 30
0.0
 11
12.1832
 21
9.52865
 31
0.0
  0
LINE
  8
0
 62
     0
 10
12.1832
 20
9.52865
 30
0.0
 11
11.9364
 21
9.76064
 31
0.0
  0
LINE
  8
0
 62
     0
 10
11.9364
 20
9.76064
 30
0.0
 11
11.6528
 21
9.97222
 31
0.0
  0
LINE
  8
0
 62
     0
 10
11.6528
 20
9.97222
 30
0.0
 11
11.4208
 21
10.114
 31
0.0
  0
LINE
  8
0
 62
     0
 10
11.4208
 20
10.114
 30
0.0
 11
11.1623
 21
10.2474
 31
0.0
  0
LINE
  8
0
 62
     0
 10
11.1623
 20
10.2474
 30
0.0
 11
10.8774
 21
10.3727
 31
0.0
  0
LINE
  8
0
 62
     0
 10
10.8774
 20
10.3727
 30
0.0
 11
10.566
 21
10.4896
 31
0.0
  0
LINE
  8
0
 62
     0
 10
10.566
 20
10.4896
 30
0.0
 11
10.2281
 21
10.5984
 31
0.0
  0
LINE
  8
0
 62
     0
 10
10.2281
 20
10.5984
 30
0.0
 11
9.86372
 21
10.6988
 31
0.0
  0
LINE
  8
0
 62
     0
 10
9.86372
 20
10.6988
 30
0.0
 11
9.47288
 21
10.7911
 31
0.0
  0
LINE
  8
0
 62
     0
 10
9.47288
 20
10.7911
 30
0.0
 11
9.05556
 21
10.875
 31
0.0
  0
LINE
  8
0
 62
     0
 10
9.05556
 20
10.875
 30
0.0
 11
8.82032
 21
10.9185
 31
0.0
  0
LINE
  8
0
 62
     0
 10
8.82032
 20
10.9185
 30
0.0
 11
8.53125
 21
10.9653
 31
0.0
  0
LINE
  8
0
 62
     0
 10
8.53125
 20
10.9653
 30
0.0
 11
8.18837
 21
11.0157
 31
0.0
  0
LINE
  8
0
 62
     0
 10
8.18837
 20
11.0157
 30
0.0
 11
7.79167
 21
11.0694
 31
0.0
  0
ENDSEC
  0
EOF
