  0
SECTION
  2
HEADER
  9
$ACADVER
  1
AC1009
  9
$EXTMIN
 10
0.0
 20
0.0
 30
0.0
  9
$EXTMAX
 10
1000.0
 20
1000.0
 30
0.0
  9
$FILLMODE
 70
 0
  9
$SPLFRAME
 70
 1
  0
ENDSEC
  0
SECTION
  2
TABLES
  0
TABLE
  2
LAYER
 70
1
  0
LAYER
  2
0
 70
     0
 62
     7
  6
CONTINUOUS
  0
ENDTAB
  0
ENDSEC
  0
SECTION
  2
ENTITIES
  0
LINE
  8
0
 62
     0
 10
8.36111
 20
2.02778
 30
0.0
 11
8.2519
 21
2.00911
 31
0.0
  0
LINE
  8
0
 62
     0
 10
8.2519
 20
2.00911
 30
0.0
 11
8.11193
 21
1.9809
 31
0.0
  0
LINE
  8
0
 62
     0
 10
8.11193
 20
1.9809
 30
0.0
 11
7.94114
 21
1.94314
 31
0.0
  0
LINE
  8
0
 62
     0
 10
7.94114
 20
1.94314
 30
0.0
 11
7.73953
 21
1.89583
 31
0.0
  0
LINE
  8
0
 62
     0
 10
7.73953
 20
1.89583
 30
0.0
 11
7.50711
 21
1.83897
 31
0.0
  0
LINE
  8
0
 62
     0
 10
7.50711
 20
1.83897
 30
0.0
 11
7.24388
 21
1.77257
 31
0.0
  0
LINE
  8
0
 62
     0
 10
7.24388
 20
1.77257
 30
0.0
 11
6.94982
 21
1.69661
 31
0.0
  0
LINE
  8
0
 62
     0
 10
6.94982
 20
1.69661
 30
0.0
 11
6.625
 21
1.61111
 31
0.0
  0
LINE
  8
0
 62
     0
 10
6.625
 20
1.61111
 30
0.0
 11
6.06076
 21
1.47483
 31
0.0
  0
LINE
  8
0
 62
     0
 10
6.06076
 20
1.47483
 30
0.0
 11
5.5625
 21
1.37153
 31
0.0
  0
LINE
  8
0
 62
     0
 10
5.5625
 20
1.37153
 30
0.0
 11
5.13021
 21
1.30122
 31
0.0
  0
LINE
  8
0
 62
     0
 10
5.13021
 20
1.30122
 30
0.0
 11
4.76389
 21
1.26389
 31
0.0
  0
LINE
  8
0
 62
     0
 10
4.76389
 20
1.26389
 30
0.0
 11
4.51139
 21
1.25553
 31
0.0
  0
LINE
  8
0
 62
     0
 10
4.51139
 20
1.25553
 30
0.0
 11
4.27474
 21
1.26519
 31
0.0
  0
LINE
  8
0
 62
     0
 10
4.27474
 20
1.26519
 30
0.0
 11
4.05393
 21
1.29286
 31
0.0
  0
LINE
  8
0
 62
     0
 10
4.05393
 20
1.29286
 30
0.0
 11
3.84896
 21
1.33854
 31
0.0
  0
LINE
  8
0
 62
     0
 10
3.84896
 20
1.33854
 30
0.0
 11
3.65983
 21
1.40224
 31
0.0
  0
LINE
  8
0
 62
     0
 10
3.65983
 20
1.40224
 30
0.0
 11
3.48654
 21
1.48394
 31
0.0
  0
LINE
  8
0
 62
     0
 10
3.48654
 20
1.48394
 30
0.0
 11
3.3291
 21
1.58365
 31
0.0
  0
LINE
  8
0
 62
     0
 10
3.3291
 20
1.58365
 30
0.0
 11
3.1875
 21
1.70139
 31
0.0
  0
LINE
  8
0
 62
     0
 10
3.1875
 20
1.70139
 30
0.0
 11
3.06174
 21
1.83712
 31
0.0
  0
LINE
  8
0
 62
     0
 10
3.06174
 20
1.83712
 30
0.0
 11
2.95182
 21
1.99089
 31
0.0
  0
LINE
  8
0
 62
     0
 10
2.95182
 20
1.99089
 30
0.0
 11
2.85775
 21
2.16265
 31
0.0
  0
LINE
  8
0
 62
     0
 10
2.85775
 20
2.16265
 30
0.0
 11
2.77951
 21
2.35243
 31
0.0
  0
LINE
  8
0
 62
     0
 10
2.77951
 20
2.35243
 30
0.0
 11
2.71712
 21
2.56022
 31
0.0
  0
LINE
  8
0
 62
     0
 10
2.71712
 20
2.56022
 30
0.0
 11
2.67057
 21
2.78603
 31
0.0
  0
LINE
  8
0
 62
     0
 10
2.67057
 20
2.78603
 30
0.0
 11
2.63986
 21
3.02983
 31
0.0
  0
LINE
  8
0
 62
     0
 10
2.63986
 20
3.02983
 30
0.0
 11
2.625
 21
3.29167
 31
0.0
  0
LINE
  8
0
 62
     0
 10
2.625
 20
3.29167
 30
0.0
 11
2.61344
 21
3.83203
 31
0.0
  0
LINE
  8
0
 62
     0
 10
2.61344
 20
3.83203
 30
0.0
 11
2.59978
 21
4.4184
 31
0.0
  0
LINE
  8
0
 62
     0
 10
2.59978
 20
4.4184
 30
0.0
 11
2.58393
 21
5.05078
 31
0.0
  0
LINE
  8
0
 62
     0
 10
2.58393
 20
5.05078
 30
0.0
 11
2.56592
 21
5.72917
 31
0.0
  0
LINE
  8
0
 62
     0
 10
2.56592
 20
5.72917
 30
0.0
 11
2.54574
 21
6.45356
 31
0.0
  0
LINE
  8
0
 62
     0
 10
2.54574
 20
6.45356
 30
0.0
 11
2.52339
 21
7.22396
 31
0.0
  0
LINE
  8
0
 62
     0
 10
2.52339
 20
7.22396
 30
0.0
 11
2.49886
 21
8.04036
 31
0.0
  0
LINE
  8
0
 62
     0
 10
2.49886
 20
8.04036
 30
0.0
 11
2.47222
 21
8.90278
 31
0.0
  0
LINE
  8
0
 62
     0
 10
2.47222
 20
8.90278
 30
0.0
 11
2.97521
 21
8.86703
 31
0.0
  0
LINE
  8
0
 62
     0
 10
2.97521
 20
8.86703
 30
0.0
 11
3.5121
 21
8.83599
 31
0.0
  0
LINE
  8
0
 62
     0
 10
3.5121
 20
8.83599
 30
0.0
 11
4.08285
 21
8.80974
 31
0.0
  0
LINE
  8
0
 62
     0
 10
4.08285
 20
8.80974
 30
0.0
 11
4.6875
 21
8.78825
 31
0.0
  0
LINE
  8
0
 62
     0
 10
4.6875
 20
8.78825
 30
0.0
 11
5.32596
 21
8.77154
 31
0.0
  0
LINE
  8
0
 62
     0
 10
5.32596
 20
8.77154
 30
0.0
 11
5.99826
 21
8.7596
 31
0.0
  0
LINE
  8
0
 62
     0
 10
5.99826
 20
8.7596
 30
0.0
 11
6.70443
 21
8.75244
 31
0.0
  0
LINE
  8
0
 62
     0
 10
6.70443
 20
8.75244
 30
0.0
 11
7.44444
 21
8.75
 31
0.0
  0
LINE
  8
0
 62
     0
 10
7.44444
 20
8.75
 30
0.0
 11
7.73324
 21
8.76064
 31
0.0
  0
LINE
  8
0
 62
     0
 10
7.73324
 20
8.76064
 30
0.0
 11
8.00256
 21
8.79254
 31
0.0
  0
LINE
  8
0
 62
     0
 10
8.00256
 20
8.79254
 30
0.0
 11
8.25233
 21
8.84571
 31
0.0
  0
LINE
  8
0
 62
     0
 10
8.25233
 20
8.84571
 30
0.0
 11
8.48264
 21
8.92014
 31
0.0
  0
LINE
  8
0
 62
     0
 10
8.48264
 20
8.92014
 30
0.0
 11
8.69336
 21
9.01585
 31
0.0
  0
LINE
  8
0
 62
     0
 10
8.69336
 20
9.01585
 30
0.0
 11
8.88456
 21
9.13282
 31
0.0
  0
LINE
  8
0
 62
     0
 10
8.88456
 20
9.13282
 30
0.0
 11
9.05621
 21
9.27106
 31
0.0
  0
LINE
  8
0
 62
     0
 10
9.05621
 20
9.27106
 30
0.0
 11
9.20833
 21
9.43056
 31
0.0
  0
LINE
  8
0
 62
     0
 10
9.20833
 20
9.43056
 30
0.0
 11
9.30296
 21
9.5816
 31
0.0
  0
LINE
  8
0
 62
     0
 10
9.30296
 20
9.5816
 30
0.0
 11
9.32292
 21
9.71528
 31
0.0
  0
LINE
  8
0
 62
     0
 10
9.32292
 20
9.71528
 30
0.0
 11
9.26824
 21
9.8316
 31
0.0
  0
LINE
  8
0
 62
     0
 10
9.26824
 20
9.8316
 30
0.0
 11
9.13889
 21
9.93056
 31
0.0
  0
LINE
  8
0
 62
     0
 10
9.13889
 20
9.93056
 30
0.0
 11
9.01215
 21
9.98525
 31
0.0
  0
LINE
  8
0
 62
     0
 10
9.01215
 20
9.98525
 30
0.0
 11
8.86806
 21
10.0243
 31
0.0
  0
LINE
  8
0
 62
     0
 10
8.86806
 20
10.0243
 30
0.0
 11
8.7066
 21
10.0477
 31
0.0
  0
LINE
  8
0
 62
     0
 10
8.7066
 20
10.0477
 30
0.0
 11
8.52778
 21
10.0556
 31
0.0
  0
LINE
  8
0
 62
     0
 10
8.52778
 20
10.0556
 30
0.0
 11
7.68664
 21
10.059
 31
0.0
  0
LINE
  8
0
 62
     0
 10
7.68664
 20
10.059
 30
0.0
 11
6.89236
 21
10.0694
 31
0.0
  0
LINE
  8
0
 62
     0
 10
6.89236
 20
10.0694
 30
0.0
 11
6.14497
 21
10.0868
 31
0.0
  0
LINE
  8
0
 62
     0
 10
6.14497
 20
10.0868
 30
0.0
 11
5.44444
 21
10.1111
 31
0.0
  0
LINE
  8
0
 62
     0
 10
5.44444
 20
10.1111
 30
0.0
 11
4.79081
 21
10.1424
 31
0.0
  0
LINE
  8
0
 62
     0
 10
4.79081
 20
10.1424
 30
0.0
 11
4.18403
 21
10.1806
 31
0.0
  0
LINE
  8
0
 62
     0
 10
4.18403
 20
10.1806
 30
0.0
 11
3.62414
 21
10.2257
 31
0.0
  0
LINE
  8
0
 62
     0
 10
3.62414
 20
10.2257
 30
0.0
 11
3.11111
 21
10.2778
 31
0.0
  0
LINE
  8
0
 62
     0
 10
3.11111
 20
10.2778
 30
0.0
 11
2.79514
 21
10.2847
 31
0.0
  0
LINE
  8
0
 62
     0
 10
2.79514
 20
10.2847
 30
0.0
 11
2.43056
 21
10.25
 31
0.0
  0
LINE
  8
0
 62
     0
 10
2.43056
 20
10.25
 30
0.0
 11
2.39426
 21
11.5059
 31
0.0
  0
LINE
  8
0
 62
     0
 10
2.39426
 20
11.5059
 30
0.0
 11
2.36193
 21
12.7109
 31
0.0
  0
LINE
  8
0
 62
     0
 10
2.36193
 20
12.7109
 30
0.0
 11
2.3335
 21
13.8652
 31
0.0
  0
LINE
  8
0
 62
     0
 10
2.3335
 20
13.8652
 30
0.0
 11
2.30897
 21
14.9688
 31
0.0
  0
LINE
  8
0
 62
     0
 10
2.30897
 20
14.9688
 30
0.0
 11
2.28836
 21
16.0215
 31
0.0
  0
LINE
  8
0
 62
     0
 10
2.28836
 20
16.0215
 30
0.0
 11
2.27165
 21
17.0235
 31
0.0
  0
LINE
  8
0
 62
     0
 10
2.27165
 20
17.0235
 30
0.0
 11
2.25885
 21
17.9746
 31
0.0
  0
LINE
  8
0
 62
     0
 10
2.25885
 20
17.9746
 30
0.0
 11
2.25
 21
18.875
 31
0.0
  0
LINE
  8
0
 62
     0
 10
2.25
 20
18.875
 30
0.0
 11
3.38542
 21
18.7951
 31
0.0
  0
LINE
  8
0
 62
     0
 10
3.38542
 20
18.7951
 30
0.0
 11
4.5
 21
18.7222
 31
0.0
  0
LINE
  8
0
 62
     0
 10
4.5
 20
18.7222
 30
0.0
 11
5.59375
 21
18.6563
 31
0.0
  0
LINE
  8
0
 62
     0
 10
5.59375
 20
18.6563
 30
0.0
 11
6.66667
 21
18.5972
 31
0.0
  0
LINE
  8
0
 62
     0
 10
6.66667
 20
18.5972
 30
0.0
 11
6.79704
 21
18.5986
 31
0.0
  0
LINE
  8
0
 62
     0
 10
6.79704
 20
18.5986
 30
0.0
 11
6.94526
 21
18.6164
 31
0.0
  0
LINE
  8
0
 62
     0
 10
6.94526
 20
18.6164
 30
0.0
 11
7.11128
 21
18.6507
 31
0.0
  0
LINE
  8
0
 62
     0
 10
7.11128
 20
18.6507
 30
0.0
 11
7.29508
 21
18.7014
 31
0.0
  0
LINE
  8
0
 62
     0
 10
7.29508
 20
18.7014
 30
0.0
 11
7.49669
 21
18.7687
 31
0.0
  0
LINE
  8
0
 62
     0
 10
7.49669
 20
18.7687
 30
0.0
 11
7.7161
 21
18.8525
 31
0.0
  0
LINE
  8
0
 62
     0
 10
7.7161
 20
18.8525
 30
0.0
 11
7.95329
 21
18.9528
 31
0.0
  0
LINE
  8
0
 62
     0
 10
7.95329
 20
18.9528
 30
0.0
 11
8.20833
 21
19.0694
 31
0.0
  0
LINE
  8
0
 62
     0
 10
8.20833
 20
19.0694
 30
0.0
 11
8.40793
 21
19.1701
 31
0.0
  0
LINE
  8
0
 62
     0
 10
8.40793
 20
19.1701
 30
0.0
 11
8.56244
 21
19.2639
 31
0.0
  0
LINE
  8
0
 62
     0
 10
8.56244
 20
19.2639
 30
0.0
 11
8.67182
 21
19.3507
 31
0.0
  0
LINE
  8
0
 62
     0
 10
8.67182
 20
19.3507
 30
0.0
 11
8.73611
 21
19.4306
 31
0.0
  0
LINE
  8
0
 62
     0
 10
8.73611
 20
19.4306
 30
0.0
 11
8.75603
 21
19.5043
 31
0.0
  0
LINE
  8
0
 62
     0
 10
8.75603
 20
19.5043
 30
0.0
 11
8.70481
 21
19.559
 31
0.0
  0
LINE
  8
0
 62
     0
 10
8.70481
 20
19.559
 30
0.0
 11
8.58242
 21
19.5946
 31
0.0
  0
LINE
  8
0
 62
     0
 10
8.58242
 20
19.5946
 30
0.0
 11
8.38889
 21
19.6111
 31
0.0
  0
LINE
  8
0
 62
     0
 10
8.38889
 20
19.6111
 30
0.0
 11
7.42318
 21
19.6638
 31
0.0
  0
LINE
  8
0
 62
     0
 10
7.42318
 20
19.6638
 30
0.0
 11
6.50521
 21
19.7171
 31
0.0
  0
LINE
  8
0
 62
     0
 10
6.50521
 20
19.7171
 30
0.0
 11
5.63499
 21
19.7714
 31
0.0
  0
LINE
  8
0
 62
     0
 10
5.63499
 20
19.7714
 30
0.0
 11
4.8125
 21
19.8264
 31
0.0
  0
LINE
  8
0
 62
     0
 10
4.8125
 20
19.8264
 30
0.0
 11
4.03776
 21
19.8825
 31
0.0
  0
LINE
  8
0
 62
     0
 10
4.03776
 20
19.8825
 30
0.0
 11
3.31076
 21
19.9393
 31
0.0
  0
LINE
  8
0
 62
     0
 10
3.31076
 20
19.9393
 30
0.0
 11
2.63151
 21
19.9971
 31
0.0
  0
LINE
  8
0
 62
     0
 10
2.63151
 20
19.9971
 30
0.0
 11
2
 21
20.0556
 31
0.0
  0
LINE
  8
0
 62
     0
 10
2
 20
20.0556
 30
0.0
 11
1.70568
 21
20.0678
 31
0.0
  0
LINE
  8
0
 62
     0
 10
1.70568
 20
20.0678
 30
0.0
 11
1.37842
 21
20.0486
 31
0.0
  0
LINE
  8
0
 62
     0
 10
1.37842
 20
20.0486
 30
0.0
 11
1.01818
 21
19.9983
 31
0.0
  0
LINE
  8
0
 62
     0
 10
1.01818
 20
19.9983
 30
0.0
 11
0.625
 21
19.9167
 31
0.0
  0
LINE
  8
0
 62
     0
 10
0.625
 20
19.9167
 30
0.0
 11
0.38086
 21
19.851
 31
0.0
  0
LINE
  8
0
 62
     0
 10
0.38086
 20
19.851
 30
0.0
 11
0.169271
 21
19.7786
 31
0.0
  0
LINE
  8
0
 62
     0
 10
0.169271
 20
19.7786
 30
0.0
 11
-0.00976563
 21
19.6999
 31
0.0
  0
LINE
  8
0
 62
     0
 10
-0.00976563
 20
19.6999
 30
0.0
 11
-0.15625
 21
19.6146
 31
0.0
  0
LINE
  8
0
 62
     0
 10
-0.15625
 20
19.6146
 30
0.0
 11
-0.270182
 21
19.5228
 31
0.0
  0
LINE
  8
0
 62
     0
 10
-0.270182
 20
19.5228
 30
0.0
 11
-0.351563
 21
19.4244
 31
0.0
  0
LINE
  8
0
 62
     0
 10
-0.351563
 20
19.4244
 30
0.0
 11
-0.40039
 21
19.3197
 31
0.0
  0
LINE
  8
0
 62
     0
 10
-0.40039
 20
19.3197
 30
0.0
 11
-0.416667
 21
19.2083
 31
0.0
  0
LINE
  8
0
 62
     0
 10
-0.416667
 20
19.2083
 30
0.0
 11
-0.41059
 21
18.2474
 31
0.0
  0
LINE
  8
0
 62
     0
 10
-0.41059
 20
18.2474
 30
0.0
 11
-0.399306
 21
17.2188
 31
0.0
  0
LINE
  8
0
 62
     0
 10
-0.399306
 20
17.2188
 30
0.0
 11
-0.382813
 21
16.1224
 31
0.0
  0
LINE
  8
0
 62
     0
 10
-0.382813
 20
16.1224
 30
0.0
 11
-0.361111
 21
14.9583
 31
0.0
  0
LINE
  8
0
 62
     0
 10
-0.361111
 20
14.9583
 30
0.0
 11
-0.334256
 21
13.7266
 31
0.0
  0
LINE
  8
0
 62
     0
 10
-0.334256
 20
13.7266
 30
0.0
 11
-0.302138
 21
12.4271
 31
0.0
  0
LINE
  8
0
 62
     0
 10
-0.302138
 20
12.4271
 30
0.0
 11
-0.264811
 21
11.0599
 31
0.0
  0
LINE
  8
0
 62
     0
 10
-0.264811
 20
11.0599
 30
0.0
 11
-0.222222
 21
9.625
 31
0.0
  0
LINE
  8
0
 62
     0
 10
-0.222222
 20
9.625
 30
0.0
 11
-0.19515
 21
8.67449
 31
0.0
  0
LINE
  8
0
 62
     0
 10
-0.19515
 20
8.67449
 30
0.0
 11
-0.169488
 21
7.77067
 31
0.0
  0
LINE
  8
0
 62
     0
 10
-0.169488
 20
7.77067
 30
0.0
 11
-0.145236
 21
6.91363
 31
0.0
  0
LINE
  8
0
 62
     0
 10
-0.145236
 20
6.91363
 30
0.0
 11
-0.122396
 21
6.10335
 31
0.0
  0
LINE
  8
0
 62
     0
 10
-0.122396
 20
6.10335
 30
0.0
 11
-0.100966
 21
5.33985
 31
0.0
  0
LINE
  8
0
 62
     0
 10
-0.100966
 20
5.33985
 30
0.0
 11
-0.0809462
 21
4.6231
 31
0.0
  0
LINE
  8
0
 62
     0
 10
-0.0809462
 20
4.6231
 30
0.0
 11
-0.0623372
 21
3.95313
 31
0.0
  0
LINE
  8
0
 62
     0
 10
-0.0623372
 20
3.95313
 30
0.0
 11
-0.0451389
 21
3.32992
 31
0.0
  0
LINE
  8
0
 62
     0
 10
-0.0451389
 20
3.32992
 30
0.0
 11
-0.0293511
 21
2.75347
 31
0.0
  0
LINE
  8
0
 62
     0
 10
-0.0293511
 20
2.75347
 30
0.0
 11
-0.014974
 21
2.22379
 31
0.0
  0
LINE
  8
0
 62
     0
 10
-0.014974
 20
2.22379
 30
0.0
 11
-0.00200737
 21
1.74089
 31
0.0
  0
LINE
  8
0
 62
     0
 10
-0.00200737
 20
1.74089
 30
0.0
 11
0.00954861
 21
1.30474
 31
0.0
  0
LINE
  8
0
 62
     0
 10
0.00954861
 20
1.30474
 30
0.0
 11
0.019694
 21
0.915365
 31
0.0
  0
LINE
  8
0
 62
     0
 10
0.019694
 20
0.915365
 30
0.0
 11
0.0284289
 21
0.572754
 31
0.0
  0
LINE
  8
0
 62
     0
 10
0.0284289
 20
0.572754
 30
0.0
 11
0.0357531
 21
0.27691
 31
0.0
  0
LINE
  8
0
 62
     0
 10
0.0357531
 20
0.27691
 30
0.0
 11
0.0416667
 21
0.0277778
 31
0.0
  0
LINE
  8
0
 62
     0
 10
0.0416667
 20
0.0277778
 30
0.0
 11
0.0703125
 21
-0.0286458
 31
0.0
  0
LINE
  8
0
 62
     0
 10
0.0703125
 20
-0.0286458
 30
0.0
 11
0.15625
 21
-0.0729167
 31
0.0
  0
LINE
  8
0
 62
     0
 10
0.15625
 20
-0.0729167
 30
0.0
 11
0.299479
 21
-0.105035
 31
0.0
  0
LINE
  8
0
 62
     0
 10
0.299479
 20
-0.105035
 30
0.0
 11
0.5
 21
-0.125
 31
0.0
  0
LINE
  8
0
 62
     0
 10
0.5
 20
-0.125
 30
0.0
 11
0.904514
 21
-0.134983
 31
0.0
  0
LINE
  8
0
 62
     0
 10
0.904514
 20
-0.134983
 30
0.0
 11
1.36111
 21
-0.116319
 31
0.0
  0
LINE
  8
0
 62
     0
 10
1.36111
 20
-0.116319
 30
0.0
 11
1.86979
 21
-0.0690104
 31
0.0
  0
LINE
  8
0
 62
     0
 10
1.86979
 20
-0.0690104
 30
0.0
 11
2.43056
 21
0.00694444
 31
0.0
  0
LINE
  8
0
 62
     0
 10
2.43056
 20
0.00694444
 30
0.0
 11
3.04335
 21
0.111599
 31
0.0
  0
LINE
  8
0
 62
     0
 10
3.04335
 20
0.111599
 30
0.0
 11
3.70828
 21
0.244846
 31
0.0
  0
LINE
  8
0
 62
     0
 10
3.70828
 20
0.244846
 30
0.0
 11
4.42529
 21
0.406739
 31
0.0
  0
LINE
  8
0
 62
     0
 10
4.42529
 20
0.406739
 30
0.0
 11
5.19444
 21
0.597222
 31
0.0
  0
LINE
  8
0
 62
     0
 10
5.19444
 20
0.597222
 30
0.0
 11
5.92964
 21
0.773058
 31
0.0
  0
LINE
  8
0
 62
     0
 10
5.92964
 20
0.773058
 30
0.0
 11
6.62147
 21
0.918457
 31
0.0
  0
LINE
  8
0
 62
     0
 10
6.62147
 20
0.918457
 30
0.0
 11
7.26992
 21
1.03348
 31
0.0
  0
LINE
  8
0
 62
     0
 10
7.26992
 20
1.03348
 30
0.0
 11
7.87494
 21
1.11811
 31
0.0
  0
LINE
  8
0
 62
     0
 10
7.87494
 20
1.11811
 30
0.0
 11
8.43658
 21
1.17236
 31
0.0
  0
LINE
  8
0
 62
     0
 10
8.43658
 20
1.17236
 30
0.0
 11
8.95481
 21
1.19623
 31
0.0
  0
LINE
  8
0
 62
     0
 10
8.95481
 20
1.19623
 30
0.0
 11
9.42964
 21
1.18973
 31
0.0
  0
LINE
  8
0
 62
     0
 10
9.42964
 20
1.18973
 30
0.0
 11
9.86111
 21
1.15278
 31
0.0
  0
LINE
  8
0
 62
     0
 10
9.86111
 20
1.15278
 30
0.0
 11
9.98563
 21
1.14735
 31
0.0
  0
LINE
  8
0
 62
     0
 10
9.98563
 20
1.14735
 30
0.0
 11
10.1302
 21
1.15885
 31
0.0
  0
LINE
  8
0
 62
     0
 10
10.1302
 20
1.15885
 30
0.0
 11
10.2947
 21
1.18728
 31
0.0
  0
LINE
  8
0
 62
     0
 10
10.2947
 20
1.18728
 30
0.0
 11
10.4791
 21
1.23264
 31
0.0
  0
LINE
  8
0
 62
     0
 10
10.4791
 20
1.23264
 30
0.0
 11
10.6835
 21
1.29498
 31
0.0
  0
LINE
  8
0
 62
     0
 10
10.6835
 20
1.29498
 30
0.0
 11
10.9079
 21
1.37419
 31
0.0
  0
LINE
  8
0
 62
     0
 10
10.9079
 20
1.37419
 30
0.0
 11
11.1523
 21
1.47032
 31
0.0
  0
LINE
  8
0
 62
     0
 10
11.1523
 20
1.47032
 30
0.0
 11
11.4167
 21
1.58333
 31
0.0
  0
LINE
  8
0
 62
     0
 10
11.4167
 20
1.58333
 30
0.0
 11
11.6284
 21
1.67796
 31
0.0
  0
LINE
  8
0
 62
     0
 10
11.6284
 20
1.67796
 30
0.0
 11
11.8055
 21
1.76736
 31
0.0
  0
LINE
  8
0
 62
     0
 10
11.8055
 20
1.76736
 30
0.0
 11
11.9479
 21
1.85161
 31
0.0
  0
LINE
  8
0
 62
     0
 10
11.9479
 20
1.85161
 30
0.0
 11
12.0556
 21
1.93056
 31
0.0
  0
LINE
  8
0
 62
     0
 10
12.0556
 20
1.93056
 30
0.0
 11
12.1039
 21
1.97026
 31
0.0
  0
LINE
  8
0
 62
     0
 10
12.1039
 20
1.97026
 30
0.0
 11
12.138
 21
2.00608
 31
0.0
  0
LINE
  8
0
 62
     0
 10
12.138
 20
2.00608
 30
0.0
 11
12.1578
 21
2.03797
 31
0.0
  0
LINE
  8
0
 62
     0
 10
12.1578
 20
2.03797
 30
0.0
 11
12.1632
 21
2.06597
 31
0.0
  0
LINE
  8
0
 62
     0
 10
12.1632
 20
2.06597
 30
0.0
 11
12.1542
 21
2.09006
 31
0.0
  0
LINE
  8
0
 62
     0
 10
12.1542
 20
2.09006
 30
0.0
 11
12.131
 21
2.11025
 31
0.0
  0
LINE
  8
0
 62
     0
 10
12.131
 20
2.11025
 30
0.0
 11
12.0935
 21
2.12651
 31
0.0
  0
LINE
  8
0
 62
     0
 10
12.0935
 20
2.12651
 30
0.0
 11
12.0417
 21
2.13889
 31
0.0
  0
LINE
  8
0
 62
     0
 10
12.0417
 20
2.13889
 30
0.0
 11
11.6287
 21
2.17969
 31
0.0
  0
LINE
  8
0
 62
     0
 10
11.6287
 20
2.17969
 30
0.0
 11
11.2023
 21
2.20486
 31
0.0
  0
LINE
  8
0
 62
     0
 10
11.2023
 20
2.20486
 30
0.0
 11
10.7624
 21
2.21442
 31
0.0
  0
LINE
  8
0
 62
     0
 10
10.7624
 20
2.21442
 30
0.0
 11
10.309
 21
2.20833
 31
0.0
  0
LINE
  8
0
 62
     0
 10
10.309
 20
2.20833
 30
0.0
 11
9.84224
 21
2.18668
 31
0.0
  0
LINE
  8
0
 62
     0
 10
9.84224
 20
2.18668
 30
0.0
 11
9.36199
 21
2.14936
 31
0.0
  0
LINE
  8
0
 62
     0
 10
9.36199
 20
2.14936
 30
0.0
 11
8.86828
 21
2.0964
 31
0.0
  0
LINE
  8
0
 62
     0
 10
8.86828
 20
2.0964
 30
0.0
 11
8.36111
 21
2.02778
 31
0.0
  0
ENDSEC
  0
EOF
