  0
SECTION
  2
HEADER
  9
$ACADVER
  1
AC1009
  9
$EXTMIN
 10
0.0
 20
0.0
 30
0.0
  9
$EXTMAX
 10
1000.0
 20
1000.0
 30
0.0
  9
$FILLMODE
 70
 0
  9
$SPLFRAME
 70
 1
  0
ENDSEC
  0
SECTION
  2
TABLES
  0
TABLE
  2
LAYER
 70
1
  0
LAYER
  2
0
 70
     0
 62
     7
  6
CONTINUOUS
  0
ENDTAB
  0
ENDSEC
  0
SECTION
  2
ENTITIES
  0
LINE
  8
0
 62
     0
 10
3.22222
 20
2.15278
 30
0.0
 11
3.13629
 21
2.57471
 31
0.0
  0
LINE
  8
0
 62
     0
 10
3.13629
 20
2.57471
 30
0.0
 11
3.11458
 21
3.03478
 31
0.0
  0
LINE
  8
0
 62
     0
 10
3.11458
 20
3.03478
 30
0.0
 11
3.15713
 21
3.53304
 31
0.0
  0
LINE
  8
0
 62
     0
 10
3.15713
 20
3.53304
 30
0.0
 11
3.26389
 21
4.06944
 31
0.0
  0
LINE
  8
0
 62
     0
 10
3.26389
 20
4.06944
 30
0.0
 11
3.37929
 21
4.46446
 31
0.0
  0
LINE
  8
0
 62
     0
 10
3.37929
 20
4.46446
 30
0.0
 11
3.52425
 21
4.87853
 31
0.0
  0
LINE
  8
0
 62
     0
 10
3.52425
 20
4.87853
 30
0.0
 11
3.69874
 21
5.31168
 31
0.0
  0
LINE
  8
0
 62
     0
 10
3.69874
 20
5.31168
 30
0.0
 11
3.90272
 21
5.76394
 31
0.0
  0
LINE
  8
0
 62
     0
 10
3.90272
 20
5.76394
 30
0.0
 11
4.13624
 21
6.23529
 31
0.0
  0
LINE
  8
0
 62
     0
 10
4.13624
 20
6.23529
 30
0.0
 11
4.39925
 21
6.72575
 31
0.0
  0
LINE
  8
0
 62
     0
 10
4.39925
 20
6.72575
 30
0.0
 11
4.69179
 21
7.23529
 31
0.0
  0
LINE
  8
0
 62
     0
 10
4.69179
 20
7.23529
 30
0.0
 11
5.01389
 21
7.76389
 31
0.0
  0
LINE
  8
0
 62
     0
 10
5.01389
 20
7.76389
 30
0.0
 11
5.26432
 21
7.53131
 31
0.0
  0
LINE
  8
0
 62
     0
 10
5.26432
 20
7.53131
 30
0.0
 11
5.49479
 21
7.31256
 31
0.0
  0
LINE
  8
0
 62
     0
 10
5.49479
 20
7.31256
 30
0.0
 11
5.70529
 21
7.10769
 31
0.0
  0
LINE
  8
0
 62
     0
 10
5.70529
 20
7.10769
 30
0.0
 11
5.89583
 21
6.91672
 31
0.0
  0
LINE
  8
0
 62
     0
 10
5.89583
 20
6.91672
 30
0.0
 11
6.0664
 21
6.73964
 31
0.0
  0
LINE
  8
0
 62
     0
 10
6.0664
 20
6.73964
 30
0.0
 11
6.21701
 21
6.57644
 31
0.0
  0
LINE
  8
0
 62
     0
 10
6.21701
 20
6.57644
 30
0.0
 11
6.34765
 21
6.42714
 31
0.0
  0
LINE
  8
0
 62
     0
 10
6.34765
 20
6.42714
 30
0.0
 11
6.45833
 21
6.29167
 31
0.0
  0
LINE
  8
0
 62
     0
 10
6.45833
 20
6.29167
 30
0.0
 11
6.75
 21
5.86638
 31
0.0
  0
LINE
  8
0
 62
     0
 10
6.75
 20
5.86638
 30
0.0
 11
6.95833
 21
5.45139
 31
0.0
  0
LINE
  8
0
 62
     0
 10
6.95833
 20
5.45139
 30
0.0
 11
7.08333
 21
5.04688
 31
0.0
  0
LINE
  8
0
 62
     0
 10
7.08333
 20
5.04688
 30
0.0
 11
7.125
 21
4.65278
 31
0.0
  0
LINE
  8
0
 62
     0
 10
7.125
 20
4.65278
 30
0.0
 11
7.08718
 21
4.35221
 31
0.0
  0
LINE
  8
0
 62
     0
 10
7.08718
 20
4.35221
 30
0.0
 11
6.98085
 21
4.04081
 31
0.0
  0
LINE
  8
0
 62
     0
 10
6.98085
 20
4.04081
 30
0.0
 11
6.80593
 21
3.71853
 31
0.0
  0
LINE
  8
0
 62
     0
 10
6.80593
 20
3.71853
 30
0.0
 11
6.56244
 21
3.38542
 31
0.0
  0
LINE
  8
0
 62
     0
 10
6.56244
 20
3.38542
 30
0.0
 11
6.25038
 21
3.04144
 31
0.0
  0
LINE
  8
0
 62
     0
 10
6.25038
 20
3.04144
 30
0.0
 11
5.86974
 21
2.68664
 31
0.0
  0
LINE
  8
0
 62
     0
 10
5.86974
 20
2.68664
 30
0.0
 11
5.42051
 21
2.32096
 31
0.0
  0
LINE
  8
0
 62
     0
 10
5.42051
 20
2.32096
 30
0.0
 11
4.90278
 21
1.94444
 31
0.0
  0
LINE
  8
0
 62
     0
 10
4.90278
 20
1.94444
 30
0.0
 11
4.57878
 21
1.74115
 31
0.0
  0
LINE
  8
0
 62
     0
 10
4.57878
 20
1.74115
 30
0.0
 11
4.28733
 21
1.60335
 31
0.0
  0
LINE
  8
0
 62
     0
 10
4.28733
 20
1.60335
 30
0.0
 11
4.02843
 21
1.53108
 31
0.0
  0
LINE
  8
0
 62
     0
 10
4.02843
 20
1.53108
 30
0.0
 11
3.80208
 21
1.52436
 31
0.0
  0
LINE
  8
0
 62
     0
 10
3.80208
 20
1.52436
 30
0.0
 11
3.60824
 21
1.58317
 31
0.0
  0
LINE
  8
0
 62
     0
 10
3.60824
 20
1.58317
 30
0.0
 11
3.447
 21
1.70751
 31
0.0
  0
LINE
  8
0
 62
     0
 10
3.447
 20
1.70751
 30
0.0
 11
3.31831
 21
1.8974
 31
0.0
  0
LINE
  8
0
 62
     0
 10
3.31831
 20
1.8974
 30
0.0
 11
3.22222
 21
2.15278
 31
0.0
  0
LINE
  8
0
 62
     0
 10
4.15278
 20
17.8333
 30
0.0
 11
3.98867
 21
17.8838
 31
0.0
  0
LINE
  8
0
 62
     0
 10
3.98867
 20
17.8838
 30
0.0
 11
3.80203
 21
17.9097
 31
0.0
  0
LINE
  8
0
 62
     0
 10
3.80203
 20
17.9097
 30
0.0
 11
3.59283
 21
17.9115
 31
0.0
  0
LINE
  8
0
 62
     0
 10
3.59283
 20
17.9115
 30
0.0
 11
3.36111
 21
17.8889
 31
0.0
  0
LINE
  8
0
 62
     0
 10
3.36111
 20
17.8889
 30
0.0
 11
3.82633
 21
18.06
 31
0.0
  0
LINE
  8
0
 62
     0
 10
3.82633
 20
18.06
 30
0.0
 11
4.27772
 21
18.1563
 31
0.0
  0
LINE
  8
0
 62
     0
 10
4.27772
 20
18.1563
 30
0.0
 11
4.71522
 21
18.1781
 31
0.0
  0
LINE
  8
0
 62
     0
 10
4.71522
 20
18.1781
 30
0.0
 11
5.13889
 21
18.125
 31
0.0
  0
LINE
  8
0
 62
     0
 10
5.13889
 20
18.125
 30
0.0
 11
5.50956
 21
18.0122
 31
0.0
  0
LINE
  8
0
 62
     0
 10
5.50956
 20
18.0122
 30
0.0
 11
5.84375
 21
17.8403
 31
0.0
  0
LINE
  8
0
 62
     0
 10
5.84375
 20
17.8403
 30
0.0
 11
6.1415
 21
17.6094
 31
0.0
  0
LINE
  8
0
 62
     0
 10
6.1415
 20
17.6094
 30
0.0
 11
6.40278
 21
17.3194
 31
0.0
  0
LINE
  8
0
 62
     0
 10
6.40278
 20
17.3194
 30
0.0
 11
6.618
 21
16.9826
 31
0.0
  0
LINE
  8
0
 62
     0
 10
6.618
 20
16.9826
 30
0.0
 11
6.77772
 21
16.6111
 31
0.0
  0
LINE
  8
0
 62
     0
 10
6.77772
 20
16.6111
 30
0.0
 11
6.88189
 21
16.2049
 31
0.0
  0
LINE
  8
0
 62
     0
 10
6.88189
 20
16.2049
 30
0.0
 11
6.93056
 21
15.7639
 31
0.0
  0
LINE
  8
0
 62
     0
 10
6.93056
 20
15.7639
 30
0.0
 11
6.91754
 21
15.2665
 31
0.0
  0
LINE
  8
0
 62
     0
 10
6.91754
 20
15.2665
 30
0.0
 11
6.83681
 21
14.7604
 31
0.0
  0
LINE
  8
0
 62
     0
 10
6.83681
 20
14.7604
 30
0.0
 11
6.68837
 21
14.2457
 31
0.0
  0
LINE
  8
0
 62
     0
 10
6.68837
 20
14.2457
 30
0.0
 11
6.47222
 21
13.7222
 31
0.0
  0
LINE
  8
0
 62
     0
 10
6.47222
 20
13.7222
 30
0.0
 11
6.21349
 21
13.2023
 31
0.0
  0
LINE
  8
0
 62
     0
 10
6.21349
 20
13.2023
 30
0.0
 11
5.90967
 21
12.6424
 31
0.0
  0
LINE
  8
0
 62
     0
 10
5.90967
 20
12.6424
 30
0.0
 11
5.56071
 21
12.0425
 31
0.0
  0
LINE
  8
0
 62
     0
 10
5.56071
 20
12.0425
 30
0.0
 11
5.16667
 21
11.4028
 31
0.0
  0
LINE
  8
0
 62
     0
 10
5.16667
 20
11.4028
 30
0.0
 11
4.86344
 21
12.1035
 31
0.0
  0
LINE
  8
0
 62
     0
 10
4.86344
 20
12.1035
 30
0.0
 11
4.62061
 21
12.8168
 31
0.0
  0
LINE
  8
0
 62
     0
 10
4.62061
 20
12.8168
 30
0.0
 11
4.4381
 21
13.5428
 31
0.0
  0
LINE
  8
0
 62
     0
 10
4.4381
 20
13.5428
 30
0.0
 11
4.31592
 21
14.2813
 31
0.0
  0
LINE
  8
0
 62
     0
 10
4.31592
 20
14.2813
 30
0.0
 11
4.25407
 21
15.0324
 31
0.0
  0
LINE
  8
0
 62
     0
 10
4.25407
 20
15.0324
 30
0.0
 11
4.25256
 21
15.796
 31
0.0
  0
LINE
  8
0
 62
     0
 10
4.25256
 20
15.796
 30
0.0
 11
4.31136
 21
16.5722
 31
0.0
  0
LINE
  8
0
 62
     0
 10
4.31136
 20
16.5722
 30
0.0
 11
4.43056
 21
17.3611
 31
0.0
  0
LINE
  8
0
 62
     0
 10
4.43056
 20
17.3611
 30
0.0
 11
4.43403
 21
17.5157
 31
0.0
  0
LINE
  8
0
 62
     0
 10
4.43403
 20
17.5157
 30
0.0
 11
4.38889
 21
17.6458
 31
0.0
  0
LINE
  8
0
 62
     0
 10
4.38889
 20
17.6458
 30
0.0
 11
4.29514
 21
17.7518
 31
0.0
  0
LINE
  8
0
 62
     0
 10
4.29514
 20
17.7518
 30
0.0
 11
4.15278
 21
17.8333
 31
0.0
  0
LINE
  8
0
 62
     0
 10
6.23611
 20
9.65278
 30
0.0
 11
6.34983
 21
9.81771
 31
0.0
  0
LINE
  8
0
 62
     0
 10
6.34983
 20
9.81771
 30
0.0
 11
6.44097
 21
9.95139
 31
0.0
  0
LINE
  8
0
 62
     0
 10
6.44097
 20
9.95139
 30
0.0
 11
6.50956
 21
10.0539
 31
0.0
  0
LINE
  8
0
 62
     0
 10
6.50956
 20
10.0539
 30
0.0
 11
6.55556
 21
10.125
 31
0.0
  0
LINE
  8
0
 62
     0
 10
6.55556
 20
10.125
 30
0.0
 11
6.801
 21
10.5093
 31
0.0
  0
LINE
  8
0
 62
     0
 10
6.801
 20
10.5093
 30
0.0
 11
7.03386
 21
10.8772
 31
0.0
  0
LINE
  8
0
 62
     0
 10
7.03386
 20
10.8772
 30
0.0
 11
7.25413
 21
11.2289
 31
0.0
  0
LINE
  8
0
 62
     0
 10
7.25413
 20
11.2289
 30
0.0
 11
7.46181
 21
11.5643
 31
0.0
  0
LINE
  8
0
 62
     0
 10
7.46181
 20
11.5643
 30
0.0
 11
7.6569
 21
11.8834
 31
0.0
  0
LINE
  8
0
 62
     0
 10
7.6569
 20
11.8834
 30
0.0
 11
7.83942
 21
12.1862
 31
0.0
  0
LINE
  8
0
 62
     0
 10
7.83942
 20
12.1862
 30
0.0
 11
8.00933
 21
12.4728
 31
0.0
  0
LINE
  8
0
 62
     0
 10
8.00933
 20
12.4728
 30
0.0
 11
8.16667
 21
12.7431
 31
0.0
  0
LINE
  8
0
 62
     0
 10
8.16667
 20
12.7431
 30
0.0
 11
8.31142
 21
12.9971
 31
0.0
  0
LINE
  8
0
 62
     0
 10
8.31142
 20
12.9971
 30
0.0
 11
8.44358
 21
13.2348
 31
0.0
  0
LINE
  8
0
 62
     0
 10
8.44358
 20
13.2348
 30
0.0
 11
8.56315
 21
13.4563
 31
0.0
  0
LINE
  8
0
 62
     0
 10
8.56315
 20
13.4563
 30
0.0
 11
8.67014
 21
13.6615
 31
0.0
  0
LINE
  8
0
 62
     0
 10
8.67014
 20
13.6615
 30
0.0
 11
8.76454
 21
13.8504
 31
0.0
  0
LINE
  8
0
 62
     0
 10
8.76454
 20
13.8504
 30
0.0
 11
8.84636
 21
14.0231
 31
0.0
  0
LINE
  8
0
 62
     0
 10
8.84636
 20
14.0231
 30
0.0
 11
8.91558
 21
14.1793
 31
0.0
  0
LINE
  8
0
 62
     0
 10
8.91558
 20
14.1793
 30
0.0
 11
8.97222
 21
14.3194
 31
0.0
  0
LINE
  8
0
 62
     0
 10
8.97222
 20
14.3194
 30
0.0
 11
9.18201
 21
14.9722
 31
0.0
  0
LINE
  8
0
 62
     0
 10
9.18201
 20
14.9722
 30
0.0
 11
9.31158
 21
15.5972
 31
0.0
  0
LINE
  8
0
 62
     0
 10
9.31158
 20
15.5972
 30
0.0
 11
9.36083
 21
16.1944
 31
0.0
  0
LINE
  8
0
 62
     0
 10
9.36083
 20
16.1944
 30
0.0
 11
9.32981
 21
16.7639
 31
0.0
  0
LINE
  8
0
 62
     0
 10
9.32981
 20
16.7639
 30
0.0
 11
9.21847
 21
17.3056
 31
0.0
  0
LINE
  8
0
 62
     0
 10
9.21847
 20
17.3056
 30
0.0
 11
9.02686
 21
17.8194
 31
0.0
  0
LINE
  8
0
 62
     0
 10
9.02686
 20
17.8194
 30
0.0
 11
8.75493
 21
18.3056
 31
0.0
  0
LINE
  8
0
 62
     0
 10
8.75493
 20
18.3056
 30
0.0
 11
8.40278
 21
18.7639
 31
0.0
  0
LINE
  8
0
 62
     0
 10
8.40278
 20
18.7639
 30
0.0
 11
8.22374
 21
18.9511
 31
0.0
  0
LINE
  8
0
 62
     0
 10
8.22374
 20
18.9511
 30
0.0
 11
8.03401
 21
19.1206
 31
0.0
  0
LINE
  8
0
 62
     0
 10
8.03401
 20
19.1206
 30
0.0
 11
7.83356
 21
19.2719
 31
0.0
  0
LINE
  8
0
 62
     0
 10
7.83356
 20
19.2719
 30
0.0
 11
7.62235
 21
19.4056
 31
0.0
  0
LINE
  8
0
 62
     0
 10
7.62235
 20
19.4056
 30
0.0
 11
7.40039
 21
19.5211
 31
0.0
  0
LINE
  8
0
 62
     0
 10
7.40039
 20
19.5211
 30
0.0
 11
7.16769
 21
19.6188
 31
0.0
  0
LINE
  8
0
 62
     0
 10
7.16769
 20
19.6188
 30
0.0
 11
6.92426
 21
19.6986
 31
0.0
  0
LINE
  8
0
 62
     0
 10
6.92426
 20
19.6986
 30
0.0
 11
6.67014
 21
19.7606
 31
0.0
  0
LINE
  8
0
 62
     0
 10
6.67014
 20
19.7606
 30
0.0
 11
6.40522
 21
19.8046
 31
0.0
  0
LINE
  8
0
 62
     0
 10
6.40522
 20
19.8046
 30
0.0
 11
6.12956
 21
19.8306
 31
0.0
  0
LINE
  8
0
 62
     0
 10
6.12956
 20
19.8306
 30
0.0
 11
5.84315
 21
19.8388
 31
0.0
  0
LINE
  8
0
 62
     0
 10
5.84315
 20
19.8388
 30
0.0
 11
5.54601
 21
19.8292
 31
0.0
  0
LINE
  8
0
 62
     0
 10
5.54601
 20
19.8292
 30
0.0
 11
5.23812
 21
19.8015
 31
0.0
  0
LINE
  8
0
 62
     0
 10
5.23812
 20
19.8015
 30
0.0
 11
4.91949
 21
19.756
 31
0.0
  0
LINE
  8
0
 62
     0
 10
4.91949
 20
19.756
 30
0.0
 11
4.59011
 21
19.6925
 31
0.0
  0
LINE
  8
0
 62
     0
 10
4.59011
 20
19.6925
 30
0.0
 11
4.25
 21
19.6111
 31
0.0
  0
LINE
  8
0
 62
     0
 10
4.25
 20
19.6111
 30
0.0
 11
3.71397
 21
19.4579
 31
0.0
  0
LINE
  8
0
 62
     0
 10
3.71397
 20
19.4579
 30
0.0
 11
3.18924
 21
19.2761
 31
0.0
  0
LINE
  8
0
 62
     0
 10
3.18924
 20
19.2761
 30
0.0
 11
2.67578
 21
19.0654
 31
0.0
  0
LINE
  8
0
 62
     0
 10
2.67578
 20
19.0654
 30
0.0
 11
2.17361
 21
18.8264
 31
0.0
  0
LINE
  8
0
 62
     0
 10
2.17361
 20
18.8264
 30
0.0
 11
1.68272
 21
18.5585
 31
0.0
  0
LINE
  8
0
 62
     0
 10
1.68272
 20
18.5585
 30
0.0
 11
1.20313
 21
18.2622
 31
0.0
  0
LINE
  8
0
 62
     0
 10
1.20313
 20
18.2622
 30
0.0
 11
0.73481
 21
17.9371
 31
0.0
  0
LINE
  8
0
 62
     0
 10
0.73481
 20
17.9371
 30
0.0
 11
0.277778
 21
17.5833
 31
0.0
  0
LINE
  8
0
 62
     0
 10
0.277778
 20
17.5833
 30
0.0
 11
0.13189
 21
17.4497
 31
0.0
  0
LINE
  8
0
 62
     0
 10
0.13189
 20
17.4497
 30
0.0
 11
0.0416124
 21
17.3264
 31
0.0
  0
LINE
  8
0
 62
     0
 10
0.0416124
 20
17.3264
 30
0.0
 11
0.00689019
 21
17.2136
 31
0.0
  0
LINE
  8
0
 62
     0
 10
0.00689019
 20
17.2136
 30
0.0
 11
0.0277778
 21
17.1111
 31
0.0
  0
LINE
  8
0
 62
     0
 10
0.0277778
 20
17.1111
 30
0.0
 11
0.0884874
 21
17.0339
 31
0.0
  0
LINE
  8
0
 62
     0
 10
0.0884874
 20
17.0339
 30
0.0
 11
0.187446
 21
16.9688
 31
0.0
  0
LINE
  8
0
 62
     0
 10
0.187446
 20
16.9688
 30
0.0
 11
0.324599
 21
16.9158
 31
0.0
  0
LINE
  8
0
 62
     0
 10
0.324599
 20
16.9158
 30
0.0
 11
0.5
 21
16.875
 31
0.0
  0
LINE
  8
0
 62
     0
 10
0.5
 20
16.875
 30
0.0
 11
0.929688
 21
16.8351
 31
0.0
  0
LINE
  8
0
 62
     0
 10
0.929688
 20
16.8351
 30
0.0
 11
1.32986
 21
16.8542
 31
0.0
  0
LINE
  8
0
 62
     0
 10
1.32986
 20
16.8542
 30
0.0
 11
1.70053
 21
16.9324
 31
0.0
  0
LINE
  8
0
 62
     0
 10
1.70053
 20
16.9324
 30
0.0
 11
2.04167
 21
17.0694
 31
0.0
  0
LINE
  8
0
 62
     0
 10
2.04167
 20
17.0694
 30
0.0
 11
1.91206
 21
16.1457
 31
0.0
  0
LINE
  8
0
 62
     0
 10
1.91206
 20
16.1457
 30
0.0
 11
1.86367
 21
15.2214
 31
0.0
  0
LINE
  8
0
 62
     0
 10
1.86367
 20
15.2214
 30
0.0
 11
1.89643
 21
14.2967
 31
0.0
  0
LINE
  8
0
 62
     0
 10
1.89643
 20
14.2967
 30
0.0
 11
2.01036
 21
13.3716
 31
0.0
  0
LINE
  8
0
 62
     0
 10
2.01036
 20
13.3716
 30
0.0
 11
2.20546
 21
12.446
 31
0.0
  0
LINE
  8
0
 62
     0
 10
2.20546
 20
12.446
 30
0.0
 11
2.48172
 21
11.52
 31
0.0
  0
LINE
  8
0
 62
     0
 10
2.48172
 20
11.52
 30
0.0
 11
2.83914
 21
10.5936
 31
0.0
  0
LINE
  8
0
 62
     0
 10
2.83914
 20
10.5936
 30
0.0
 11
3.27778
 21
9.66667
 31
0.0
  0
LINE
  8
0
 62
     0
 10
3.27778
 20
9.66667
 30
0.0
 11
3.44097
 21
9.40625
 31
0.0
  0
LINE
  8
0
 62
     0
 10
3.44097
 20
9.40625
 30
0.0
 11
3.65278
 21
9.125
 31
0.0
  0
LINE
  8
0
 62
     0
 10
3.65278
 20
9.125
 30
0.0
 11
3.42703
 21
8.77431
 31
0.0
  0
LINE
  8
0
 62
     0
 10
3.42703
 20
8.77431
 30
0.0
 11
3.22222
 21
8.44444
 31
0.0
  0
LINE
  8
0
 62
     0
 10
3.22222
 20
8.44444
 30
0.0
 11
2.8016
 21
7.76346
 31
0.0
  0
LINE
  8
0
 62
     0
 10
2.8016
 20
7.76346
 30
0.0
 11
2.42182
 21
7.13021
 31
0.0
  0
LINE
  8
0
 62
     0
 10
2.42182
 20
7.13021
 30
0.0
 11
2.08285
 21
6.54471
 31
0.0
  0
LINE
  8
0
 62
     0
 10
2.08285
 20
6.54471
 30
0.0
 11
1.78467
 21
6.00694
 31
0.0
  0
LINE
  8
0
 62
     0
 10
1.78467
 20
6.00694
 30
0.0
 11
1.52729
 21
5.51693
 31
0.0
  0
LINE
  8
0
 62
     0
 10
1.52729
 20
5.51693
 30
0.0
 11
1.31071
 21
5.07465
 31
0.0
  0
LINE
  8
0
 62
     0
 10
1.31071
 20
5.07465
 30
0.0
 11
1.13493
 21
4.68012
 31
0.0
  0
LINE
  8
0
 62
     0
 10
1.13493
 20
4.68012
 30
0.0
 11
1
 21
4.33333
 31
0.0
  0
LINE
  8
0
 62
     0
 10
1
 20
4.33333
 30
0.0
 11
0.891439
 21
3.98757
 31
0.0
  0
LINE
  8
0
 62
     0
 10
0.891439
 20
3.98757
 30
0.0
 11
0.805339
 21
3.655
 31
0.0
  0
LINE
  8
0
 62
     0
 10
0.805339
 20
3.655
 30
0.0
 11
0.741699
 21
3.33567
 31
0.0
  0
LINE
  8
0
 62
     0
 10
0.741699
 20
3.33567
 30
0.0
 11
0.700521
 21
3.02957
 31
0.0
  0
LINE
  8
0
 62
     0
 10
0.700521
 20
3.02957
 30
0.0
 11
0.681803
 21
2.73671
 31
0.0
  0
LINE
  8
0
 62
     0
 10
0.681803
 20
2.73671
 30
0.0
 11
0.685547
 21
2.45708
 31
0.0
  0
LINE
  8
0
 62
     0
 10
0.685547
 20
2.45708
 30
0.0
 11
0.711751
 21
2.19069
 31
0.0
  0
LINE
  8
0
 62
     0
 10
0.711751
 20
2.19069
 30
0.0
 11
0.760417
 21
1.93756
 31
0.0
  0
LINE
  8
0
 62
     0
 10
0.760417
 20
1.93756
 30
0.0
 11
0.831543
 21
1.69764
 31
0.0
  0
LINE
  8
0
 62
     0
 10
0.831543
 20
1.69764
 30
0.0
 11
0.925131
 21
1.47097
 31
0.0
  0
LINE
  8
0
 62
     0
 10
0.925131
 20
1.47097
 30
0.0
 11
1.04118
 21
1.25754
 31
0.0
  0
LINE
  8
0
 62
     0
 10
1.04118
 20
1.25754
 30
0.0
 11
1.17969
 21
1.05735
 31
0.0
  0
LINE
  8
0
 62
     0
 10
1.17969
 20
1.05735
 30
0.0
 11
1.34066
 21
0.870389
 31
0.0
  0
LINE
  8
0
 62
     0
 10
1.34066
 20
0.870389
 30
0.0
 11
1.52408
 21
0.696669
 31
0.0
  0
LINE
  8
0
 62
     0
 10
1.52408
 20
0.696669
 30
0.0
 11
1.72999
 21
0.536187
 31
0.0
  0
LINE
  8
0
 62
     0
 10
1.72999
 20
0.536187
 30
0.0
 11
1.95833
 21
0.388889
 31
0.0
  0
LINE
  8
0
 62
     0
 10
1.95833
 20
0.388889
 30
0.0
 11
2.40147
 21
0.177083
 31
0.0
  0
LINE
  8
0
 62
     0
 10
2.40147
 20
0.177083
 30
0.0
 11
2.86979
 21
0.0486111
 31
0.0
  0
LINE
  8
0
 62
     0
 10
2.86979
 20
0.0486111
 30
0.0
 11
3.36328
 21
0.00347222
 31
0.0
  0
LINE
  8
0
 62
     0
 10
3.36328
 20
0.00347222
 30
0.0
 11
3.88194
 21
0.0416667
 31
0.0
  0
LINE
  8
0
 62
     0
 10
3.88194
 20
0.0416667
 30
0.0
 11
4.42578
 21
0.163249
 31
0.0
  0
LINE
  8
0
 62
     0
 10
4.42578
 20
0.163249
 30
0.0
 11
4.99479
 21
0.36811
 31
0.0
  0
LINE
  8
0
 62
     0
 10
4.99479
 20
0.36811
 30
0.0
 11
5.58897
 21
0.656304
 31
0.0
  0
LINE
  8
0
 62
     0
 10
5.58897
 20
0.656304
 30
0.0
 11
6.20833
 21
1.02778
 31
0.0
  0
LINE
  8
0
 62
     0
 10
6.20833
 20
1.02778
 30
0.0
 11
6.73351
 21
1.39199
 31
0.0
  0
LINE
  8
0
 62
     0
 10
6.73351
 20
1.39199
 30
0.0
 11
7.21875
 21
1.76915
 31
0.0
  0
LINE
  8
0
 62
     0
 10
7.21875
 20
1.76915
 30
0.0
 11
7.66407
 21
2.15935
 31
0.0
  0
LINE
  8
0
 62
     0
 10
7.66407
 20
2.15935
 30
0.0
 11
8.06944
 21
2.5625
 31
0.0
  0
LINE
  8
0
 62
     0
 10
8.06944
 20
2.5625
 30
0.0
 11
8.4349
 21
2.97874
 31
0.0
  0
LINE
  8
0
 62
     0
 10
8.4349
 20
2.97874
 30
0.0
 11
8.76042
 21
3.40799
 31
0.0
  0
LINE
  8
0
 62
     0
 10
8.76042
 20
3.40799
 30
0.0
 11
9.04601
 21
3.85026
 31
0.0
  0
LINE
  8
0
 62
     0
 10
9.04601
 20
3.85026
 30
0.0
 11
9.29167
 21
4.30556
 31
0.0
  0
LINE
  8
0
 62
     0
 10
9.29167
 20
4.30556
 30
0.0
 11
9.40315
 21
4.57487
 31
0.0
  0
LINE
  8
0
 62
     0
 10
9.40315
 20
4.57487
 30
0.0
 11
9.4739
 21
4.8481
 31
0.0
  0
LINE
  8
0
 62
     0
 10
9.4739
 20
4.8481
 30
0.0
 11
9.50385
 21
5.12522
 31
0.0
  0
LINE
  8
0
 62
     0
 10
9.50385
 20
5.12522
 30
0.0
 11
9.493
 21
5.40625
 31
0.0
  0
LINE
  8
0
 62
     0
 10
9.493
 20
5.40625
 30
0.0
 11
9.44135
 21
5.69125
 31
0.0
  0
LINE
  8
0
 62
     0
 10
9.44135
 20
5.69125
 30
0.0
 11
9.3489
 21
5.98008
 31
0.0
  0
LINE
  8
0
 62
     0
 10
9.3489
 20
5.98008
 30
0.0
 11
9.21565
 21
6.27285
 31
0.0
  0
LINE
  8
0
 62
     0
 10
9.21565
 20
6.27285
 30
0.0
 11
9.04167
 21
6.56944
 31
0.0
  0
LINE
  8
0
 62
     0
 10
9.04167
 20
6.56944
 30
0.0
 11
8.94575
 21
6.70079
 31
0.0
  0
LINE
  8
0
 62
     0
 10
8.94575
 20
6.70079
 30
0.0
 11
8.81771
 21
6.85856
 31
0.0
  0
LINE
  8
0
 62
     0
 10
8.81771
 20
6.85856
 30
0.0
 11
8.65756
 21
7.04281
 31
0.0
  0
LINE
  8
0
 62
     0
 10
8.65756
 20
7.04281
 30
0.0
 11
8.46528
 21
7.25353
 31
0.0
  0
LINE
  8
0
 62
     0
 10
8.46528
 20
7.25353
 30
0.0
 11
8.24089
 21
7.49072
 31
0.0
  0
LINE
  8
0
 62
     0
 10
8.24089
 20
7.49072
 30
0.0
 11
7.98438
 21
7.75439
 31
0.0
  0
LINE
  8
0
 62
     0
 10
7.98438
 20
7.75439
 30
0.0
 11
7.69575
 21
8.04454
 31
0.0
  0
LINE
  8
0
 62
     0
 10
7.69575
 20
8.04454
 30
0.0
 11
7.375
 21
8.36111
 31
0.0
  0
LINE
  8
0
 62
     0
 10
7.375
 20
8.36111
 30
0.0
 11
6.78472
 21
8.98269
 31
0.0
  0
LINE
  8
0
 62
     0
 10
6.78472
 20
8.98269
 30
0.0
 11
6.23611
 21
9.65278
 31
0.0
  0
ENDSEC
  0
EOF
