  0
SECTION
  2
HEADER
  9
$ACADVER
  1
AC1009
  9
$EXTMIN
 10
0.0
 20
0.0
 30
0.0
  9
$EXTMAX
 10
1000.0
 20
1000.0
 30
0.0
  9
$FILLMODE
 70
 0
  9
$SPLFRAME
 70
 1
  0
ENDSEC
  0
SECTION
  2
TABLES
  0
TABLE
  2
LAYER
 70
1
  0
LAYER
  2
0
 70
     0
 62
     7
  6
CONTINUOUS
  0
ENDTAB
  0
ENDSEC
  0
SECTION
  2
ENTITIES
  0
LINE
  8
0
 62
     0
 10
1.27778
 20
0.0694444
 30
0.0
 11
1.32639
 21
0.0833333
 31
0.0
  0
LINE
  8
0
 62
     0
 10
1.32639
 20
0.0833333
 30
0.0
 11
1.36111
 21
0.0972222
 31
0.0
  0
LINE
  8
0
 62
     0
 10
1.36111
 20
0.0972222
 30
0.0
 11
1.45833
 21
0.0972222
 31
0.0
  0
LINE
  8
0
 62
     0
 10
1.45833
 20
0.0972222
 30
0.0
 11
1.72049
 21
0.133735
 31
0.0
  0
LINE
  8
0
 62
     0
 10
1.72049
 20
0.133735
 30
0.0
 11
1.96528
 21
0.187554
 31
0.0
  0
LINE
  8
0
 62
     0
 10
1.96528
 20
0.187554
 30
0.0
 11
2.19271
 21
0.258735
 31
0.0
  0
LINE
  8
0
 62
     0
 10
2.19271
 20
0.258735
 30
0.0
 11
2.40278
 21
0.347222
 31
0.0
  0
LINE
  8
0
 62
     0
 10
2.40278
 20
0.347222
 30
0.0
 11
2.51036
 21
0.406304
 31
0.0
  0
LINE
  8
0
 62
     0
 10
2.51036
 20
0.406304
 30
0.0
 11
2.59722
 21
0.458387
 31
0.0
  0
LINE
  8
0
 62
     0
 10
2.59722
 20
0.458387
 30
0.0
 11
2.66319
 21
0.503526
 31
0.0
  0
LINE
  8
0
 62
     0
 10
2.66319
 20
0.503526
 30
0.0
 11
2.70833
 21
0.541667
 31
0.0
  0
LINE
  8
0
 62
     0
 10
2.70833
 20
0.541667
 30
0.0
 11
2.78467
 21
0.684082
 31
0.0
  0
LINE
  8
0
 62
     0
 10
2.78467
 20
0.684082
 30
0.0
 11
2.79167
 21
0.861111
 31
0.0
  0
LINE
  8
0
 62
     0
 10
2.79167
 20
0.861111
 30
0.0
 11
2.76036
 21
0.913249
 31
0.0
  0
LINE
  8
0
 62
     0
 10
2.76036
 20
0.913249
 30
0.0
 11
2.69444
 21
0.958333
 31
0.0
  0
LINE
  8
0
 62
     0
 10
2.69444
 20
0.958333
 30
0.0
 11
2.69444
 21
0.958333
 31
0.0
  0
LINE
  8
0
 62
     0
 10
2.69444
 20
0.958333
 30
0.0
 11
2.69444
 21
0.958333
 31
0.0
  0
LINE
  8
0
 62
     0
 10
2.69444
 20
0.958333
 30
0.0
 11
2.64931
 21
1.16672
 31
0.0
  0
LINE
  8
0
 62
     0
 10
2.64931
 20
1.16672
 30
0.0
 11
2.625
 21
1.34722
 31
0.0
  0
LINE
  8
0
 62
     0
 10
2.625
 20
1.34722
 30
0.0
 11
2.61279
 21
1.39068
 31
0.0
  0
LINE
  8
0
 62
     0
 10
2.61279
 20
1.39068
 30
0.0
 11
2.57633
 21
1.42361
 31
0.0
  0
LINE
  8
0
 62
     0
 10
2.57633
 20
1.42361
 30
0.0
 11
2.51557
 21
1.44618
 31
0.0
  0
LINE
  8
0
 62
     0
 10
2.51557
 20
1.44618
 30
0.0
 11
2.43056
 21
1.45833
 31
0.0
  0
LINE
  8
0
 62
     0
 10
2.43056
 20
1.45833
 30
0.0
 11
2.23606
 21
1.45839
 31
0.0
  0
LINE
  8
0
 62
     0
 10
2.23606
 20
1.45839
 30
0.0
 11
1.98611
 21
1.43056
 31
0.0
  0
LINE
  8
0
 62
     0
 10
1.98611
 20
1.43056
 30
0.0
 11
1.93744
 21
1.55561
 31
0.0
  0
LINE
  8
0
 62
     0
 10
1.93744
 20
1.55561
 30
0.0
 11
1.90278
 21
1.65278
 31
0.0
  0
LINE
  8
0
 62
     0
 10
1.90278
 20
1.65278
 30
0.0
 11
1.86372
 21
1.72835
 31
0.0
  0
LINE
  8
0
 62
     0
 10
1.86372
 20
1.72835
 30
0.0
 11
1.77431
 21
1.77436
 31
0.0
  0
LINE
  8
0
 62
     0
 10
1.77431
 20
1.77436
 30
0.0
 11
1.63456
 21
1.79085
 31
0.0
  0
LINE
  8
0
 62
     0
 10
1.63456
 20
1.79085
 30
0.0
 11
1.44444
 21
1.77778
 31
0.0
  0
LINE
  8
0
 62
     0
 10
1.44444
 20
1.77778
 30
0.0
 11
1.19444
 21
1.74653
 31
0.0
  0
LINE
  8
0
 62
     0
 10
1.19444
 20
1.74653
 30
0.0
 11
0.916667
 21
1.68056
 31
0.0
  0
LINE
  8
0
 62
     0
 10
0.916667
 20
1.68056
 30
0.0
 11
0.702636
 21
1.61789
 31
0.0
  0
LINE
  8
0
 62
     0
 10
0.702636
 20
1.61789
 30
0.0
 11
0.519043
 21
1.55474
 31
0.0
  0
LINE
  8
0
 62
     0
 10
0.519043
 20
1.55474
 30
0.0
 11
0.365831
 21
1.49115
 31
0.0
  0
LINE
  8
0
 62
     0
 10
0.365831
 20
1.49115
 30
0.0
 11
0.243001
 21
1.42714
 31
0.0
  0
LINE
  8
0
 62
     0
 10
0.243001
 20
1.42714
 30
0.0
 11
0.150553
 21
1.36268
 31
0.0
  0
LINE
  8
0
 62
     0
 10
0.150553
 20
1.36268
 30
0.0
 11
0.0884874
 21
1.2978
 31
0.0
  0
LINE
  8
0
 62
     0
 10
0.0884874
 20
1.2978
 30
0.0
 11
0.0568033
 21
1.23248
 31
0.0
  0
LINE
  8
0
 62
     0
 10
0.0568033
 20
1.23248
 30
0.0
 11
0.0555556
 21
1.16667
 31
0.0
  0
LINE
  8
0
 62
     0
 10
0.0555556
 20
1.16667
 30
0.0
 11
0.0885417
 21
1.06082
 31
0.0
  0
LINE
  8
0
 62
     0
 10
0.0885417
 20
1.06082
 30
0.0
 11
0.131944
 21
0.937554
 31
0.0
  0
LINE
  8
0
 62
     0
 10
0.131944
 20
0.937554
 30
0.0
 11
0.18571
 21
0.796929
 31
0.0
  0
LINE
  8
0
 62
     0
 10
0.18571
 20
0.796929
 30
0.0
 11
0.25
 21
0.638889
 31
0.0
  0
LINE
  8
0
 62
     0
 10
0.25
 20
0.638889
 30
0.0
 11
0.325521
 21
0.476563
 31
0.0
  0
LINE
  8
0
 62
     0
 10
0.325521
 20
0.476563
 30
0.0
 11
0.385417
 21
0.336806
 31
0.0
  0
LINE
  8
0
 62
     0
 10
0.385417
 20
0.336806
 30
0.0
 11
0.429688
 21
0.219618
 31
0.0
  0
LINE
  8
0
 62
     0
 10
0.429688
 20
0.219618
 30
0.0
 11
0.458333
 21
0.125
 31
0.0
  0
LINE
  8
0
 62
     0
 10
0.458333
 20
0.125
 30
0.0
 11
0.495606
 21
0.0651042
 31
0.0
  0
LINE
  8
0
 62
     0
 10
0.495606
 20
0.0651042
 30
0.0
 11
0.565918
 21
0.0243056
 31
0.0
  0
LINE
  8
0
 62
     0
 10
0.565918
 20
0.0243056
 30
0.0
 11
0.669217
 21
0.00260417
 31
0.0
  0
LINE
  8
0
 62
     0
 10
0.669217
 20
0.00260417
 30
0.0
 11
0.805556
 21
-0
 31
0.0
  0
LINE
  8
0
 62
     0
 10
0.805556
 20
-0
 30
0.0
 11
0.975694
 21
0.0208876
 31
0.0
  0
LINE
  8
0
 62
     0
 10
0.975694
 20
0.0208876
 30
0.0
 11
1.20833
 21
0.0555556
 31
0.0
  0
LINE
  8
0
 62
     0
 10
1.20833
 20
0.0555556
 30
0.0
 11
1.23953
 21
0.0590278
 31
0.0
  0
LINE
  8
0
 62
     0
 10
1.23953
 20
0.0590278
 30
0.0
 11
1.27778
 21
0.0694444
 31
0.0
  0
LINE
  8
0
 62
     0
 10
26.8472
 20
0.0138889
 30
0.0
 11
26.8958
 21
0.0277778
 31
0.0
  0
LINE
  8
0
 62
     0
 10
26.8958
 20
0.0277778
 30
0.0
 11
26.9306
 21
0.0416667
 31
0.0
  0
LINE
  8
0
 62
     0
 10
26.9306
 20
0.0416667
 30
0.0
 11
27.0278
 21
0.0416667
 31
0.0
  0
LINE
  8
0
 62
     0
 10
27.0278
 20
0.0416667
 30
0.0
 11
27.29
 21
0.0781793
 31
0.0
  0
LINE
  8
0
 62
     0
 10
27.29
 20
0.0781793
 30
0.0
 11
27.5347
 21
0.131999
 31
0.0
  0
LINE
  8
0
 62
     0
 10
27.5347
 20
0.131999
 30
0.0
 11
27.7622
 21
0.203179
 31
0.0
  0
LINE
  8
0
 62
     0
 10
27.7622
 20
0.203179
 30
0.0
 11
27.9722
 21
0.291667
 31
0.0
  0
LINE
  8
0
 62
     0
 10
27.9722
 20
0.291667
 30
0.0
 11
28.08
 21
0.350749
 31
0.0
  0
LINE
  8
0
 62
     0
 10
28.08
 20
0.350749
 30
0.0
 11
28.1669
 21
0.402832
 31
0.0
  0
LINE
  8
0
 62
     0
 10
28.1669
 20
0.402832
 30
0.0
 11
28.2329
 21
0.447971
 31
0.0
  0
LINE
  8
0
 62
     0
 10
28.2329
 20
0.447971
 30
0.0
 11
28.2778
 21
0.486111
 31
0.0
  0
LINE
  8
0
 62
     0
 10
28.2778
 20
0.486111
 30
0.0
 11
28.3542
 21
0.628526
 31
0.0
  0
LINE
  8
0
 62
     0
 10
28.3542
 20
0.628526
 30
0.0
 11
28.3611
 21
0.805556
 31
0.0
  0
LINE
  8
0
 62
     0
 10
28.3611
 20
0.805556
 30
0.0
 11
28.3299
 21
0.857693
 31
0.0
  0
LINE
  8
0
 62
     0
 10
28.3299
 20
0.857693
 30
0.0
 11
28.2639
 21
0.902778
 31
0.0
  0
LINE
  8
0
 62
     0
 10
28.2639
 20
0.902778
 30
0.0
 11
28.2639
 21
0.902778
 31
0.0
  0
LINE
  8
0
 62
     0
 10
28.2639
 20
0.902778
 30
0.0
 11
28.2639
 21
0.902778
 31
0.0
  0
LINE
  8
0
 62
     0
 10
28.2639
 20
0.902778
 30
0.0
 11
28.2186
 21
1.11117
 31
0.0
  0
LINE
  8
0
 62
     0
 10
28.2186
 20
1.11117
 30
0.0
 11
28.1944
 21
1.29167
 31
0.0
  0
LINE
  8
0
 62
     0
 10
28.1944
 20
1.29167
 30
0.0
 11
28.1822
 21
1.33512
 31
0.0
  0
LINE
  8
0
 62
     0
 10
28.1822
 20
1.33512
 30
0.0
 11
28.1458
 21
1.36806
 31
0.0
  0
LINE
  8
0
 62
     0
 10
28.1458
 20
1.36806
 30
0.0
 11
28.085
 21
1.39063
 31
0.0
  0
LINE
  8
0
 62
     0
 10
28.085
 20
1.39063
 30
0.0
 11
28
 21
1.40278
 31
0.0
  0
LINE
  8
0
 62
     0
 10
28
 20
1.40278
 30
0.0
 11
27.8056
 21
1.40283
 31
0.0
  0
LINE
  8
0
 62
     0
 10
27.8056
 20
1.40283
 30
0.0
 11
27.5556
 21
1.375
 31
0.0
  0
LINE
  8
0
 62
     0
 10
27.5556
 20
1.375
 30
0.0
 11
27.5069
 21
1.50006
 31
0.0
  0
LINE
  8
0
 62
     0
 10
27.5069
 20
1.50006
 30
0.0
 11
27.4722
 21
1.59722
 31
0.0
  0
LINE
  8
0
 62
     0
 10
27.4722
 20
1.59722
 30
0.0
 11
27.4332
 21
1.67279
 31
0.0
  0
LINE
  8
0
 62
     0
 10
27.4332
 20
1.67279
 30
0.0
 11
27.3438
 21
1.71881
 31
0.0
  0
LINE
  8
0
 62
     0
 10
27.3438
 20
1.71881
 30
0.0
 11
27.204
 21
1.73529
 31
0.0
  0
LINE
  8
0
 62
     0
 10
27.204
 20
1.73529
 30
0.0
 11
27.0139
 21
1.72222
 31
0.0
  0
LINE
  8
0
 62
     0
 10
27.0139
 20
1.72222
 30
0.0
 11
26.7639
 21
1.69097
 31
0.0
  0
LINE
  8
0
 62
     0
 10
26.7639
 20
1.69097
 30
0.0
 11
26.4861
 21
1.625
 31
0.0
  0
LINE
  8
0
 62
     0
 10
26.4861
 20
1.625
 30
0.0
 11
26.2721
 21
1.56233
 31
0.0
  0
LINE
  8
0
 62
     0
 10
26.2721
 20
1.56233
 30
0.0
 11
26.0885
 21
1.49918
 31
0.0
  0
LINE
  8
0
 62
     0
 10
26.0885
 20
1.49918
 30
0.0
 11
25.9353
 21
1.4356
 31
0.0
  0
LINE
  8
0
 62
     0
 10
25.9353
 20
1.4356
 30
0.0
 11
25.8125
 21
1.37158
 31
0.0
  0
LINE
  8
0
 62
     0
 10
25.8125
 20
1.37158
 30
0.0
 11
25.72
 21
1.30713
 31
0.0
  0
LINE
  8
0
 62
     0
 10
25.72
 20
1.30713
 30
0.0
 11
25.6579
 21
1.24224
 31
0.0
  0
LINE
  8
0
 62
     0
 10
25.6579
 20
1.24224
 30
0.0
 11
25.6262
 21
1.17692
 31
0.0
  0
LINE
  8
0
 62
     0
 10
25.6262
 20
1.17692
 30
0.0
 11
25.625
 21
1.11111
 31
0.0
  0
LINE
  8
0
 62
     0
 10
25.625
 20
1.11111
 30
0.0
 11
25.6581
 21
1.00526
 31
0.0
  0
LINE
  8
0
 62
     0
 10
25.6581
 20
1.00526
 30
0.0
 11
25.7014
 21
0.881999
 31
0.0
  0
LINE
  8
0
 62
     0
 10
25.7014
 20
0.881999
 30
0.0
 11
25.7551
 21
0.741374
 31
0.0
  0
LINE
  8
0
 62
     0
 10
25.7551
 20
0.741374
 30
0.0
 11
25.8194
 21
0.583333
 31
0.0
  0
LINE
  8
0
 62
     0
 10
25.8194
 20
0.583333
 30
0.0
 11
25.895
 21
0.421007
 31
0.0
  0
LINE
  8
0
 62
     0
 10
25.895
 20
0.421007
 30
0.0
 11
25.9549
 21
0.28125
 31
0.0
  0
LINE
  8
0
 62
     0
 10
25.9549
 20
0.28125
 30
0.0
 11
25.9992
 21
0.164063
 31
0.0
  0
LINE
  8
0
 62
     0
 10
25.9992
 20
0.164063
 30
0.0
 11
26.0278
 21
0.0694444
 31
0.0
  0
LINE
  8
0
 62
     0
 10
26.0278
 20
0.0694444
 30
0.0
 11
26.065
 21
0.00954861
 31
0.0
  0
LINE
  8
0
 62
     0
 10
26.065
 20
0.00954861
 30
0.0
 11
26.1354
 21
-0.03125
 31
0.0
  0
LINE
  8
0
 62
     0
 10
26.1354
 20
-0.03125
 30
0.0
 11
26.2386
 21
-0.0529514
 31
0.0
  0
LINE
  8
0
 62
     0
 10
26.2386
 20
-0.0529514
 30
0.0
 11
26.375
 21
-0.0555556
 31
0.0
  0
LINE
  8
0
 62
     0
 10
26.375
 20
-0.0555556
 30
0.0
 11
26.5451
 21
-0.0346679
 31
0.0
  0
LINE
  8
0
 62
     0
 10
26.5451
 20
-0.0346679
 30
0.0
 11
26.7778
 21
-0
 31
0.0
  0
LINE
  8
0
 62
     0
 10
26.7778
 20
-0
 30
0.0
 11
26.809
 21
0.00347222
 31
0.0
  0
LINE
  8
0
 62
     0
 10
26.809
 20
0.00347222
 30
0.0
 11
26.8472
 21
0.0138889
 31
0.0
  0
LINE
  8
0
 62
     0
 10
14.125
 20
0.180556
 30
0.0
 11
14.1736
 21
0.194444
 31
0.0
  0
LINE
  8
0
 62
     0
 10
14.1736
 20
0.194444
 30
0.0
 11
14.2083
 21
0.208333
 31
0.0
  0
LINE
  8
0
 62
     0
 10
14.2083
 20
0.208333
 30
0.0
 11
14.3056
 21
0.208333
 31
0.0
  0
LINE
  8
0
 62
     0
 10
14.3056
 20
0.208333
 30
0.0
 11
14.5678
 21
0.244846
 31
0.0
  0
LINE
  8
0
 62
     0
 10
14.5678
 20
0.244846
 30
0.0
 11
14.8125
 21
0.298665
 31
0.0
  0
LINE
  8
0
 62
     0
 10
14.8125
 20
0.298665
 30
0.0
 11
15.04
 21
0.369846
 31
0.0
  0
LINE
  8
0
 62
     0
 10
15.04
 20
0.369846
 30
0.0
 11
15.25
 21
0.458333
 31
0.0
  0
LINE
  8
0
 62
     0
 10
15.25
 20
0.458333
 30
0.0
 11
15.3578
 21
0.517415
 31
0.0
  0
LINE
  8
0
 62
     0
 10
15.3578
 20
0.517415
 30
0.0
 11
15.4446
 21
0.569499
 31
0.0
  0
LINE
  8
0
 62
     0
 10
15.4446
 20
0.569499
 30
0.0
 11
15.5106
 21
0.614637
 31
0.0
  0
LINE
  8
0
 62
     0
 10
15.5106
 20
0.614637
 30
0.0
 11
15.5556
 21
0.652778
 31
0.0
  0
LINE
  8
0
 62
     0
 10
15.5556
 20
0.652778
 30
0.0
 11
15.6319
 21
0.795193
 31
0.0
  0
LINE
  8
0
 62
     0
 10
15.6319
 20
0.795193
 30
0.0
 11
15.6389
 21
0.972222
 31
0.0
  0
LINE
  8
0
 62
     0
 10
15.6389
 20
0.972222
 30
0.0
 11
15.6076
 21
1.02436
 31
0.0
  0
LINE
  8
0
 62
     0
 10
15.6076
 20
1.02436
 30
0.0
 11
15.5417
 21
1.06944
 31
0.0
  0
LINE
  8
0
 62
     0
 10
15.5417
 20
1.06944
 30
0.0
 11
15.5417
 21
1.06944
 31
0.0
  0
LINE
  8
0
 62
     0
 10
15.5417
 20
1.06944
 30
0.0
 11
15.5417
 21
1.06944
 31
0.0
  0
LINE
  8
0
 62
     0
 10
15.5417
 20
1.06944
 30
0.0
 11
15.4964
 21
1.27783
 31
0.0
  0
LINE
  8
0
 62
     0
 10
15.4964
 20
1.27783
 30
0.0
 11
15.4722
 21
1.45833
 31
0.0
  0
LINE
  8
0
 62
     0
 10
15.4722
 20
1.45833
 30
0.0
 11
15.46
 21
1.50179
 31
0.0
  0
LINE
  8
0
 62
     0
 10
15.46
 20
1.50179
 30
0.0
 11
15.4236
 21
1.53472
 31
0.0
  0
LINE
  8
0
 62
     0
 10
15.4236
 20
1.53472
 30
0.0
 11
15.3628
 21
1.55729
 31
0.0
  0
LINE
  8
0
 62
     0
 10
15.3628
 20
1.55729
 30
0.0
 11
15.2778
 21
1.56944
 31
0.0
  0
LINE
  8
0
 62
     0
 10
15.2778
 20
1.56944
 30
0.0
 11
15.0833
 21
1.5695
 31
0.0
  0
LINE
  8
0
 62
     0
 10
15.0833
 20
1.5695
 30
0.0
 11
14.8333
 21
1.54167
 31
0.0
  0
LINE
  8
0
 62
     0
 10
14.8333
 20
1.54167
 30
0.0
 11
14.7847
 21
1.66672
 31
0.0
  0
LINE
  8
0
 62
     0
 10
14.7847
 20
1.66672
 30
0.0
 11
14.75
 21
1.76389
 31
0.0
  0
LINE
  8
0
 62
     0
 10
14.75
 20
1.76389
 30
0.0
 11
14.711
 21
1.83946
 31
0.0
  0
LINE
  8
0
 62
     0
 10
14.711
 20
1.83946
 30
0.0
 11
14.6215
 21
1.88547
 31
0.0
  0
LINE
  8
0
 62
     0
 10
14.6215
 20
1.88547
 30
0.0
 11
14.4818
 21
1.90196
 31
0.0
  0
LINE
  8
0
 62
     0
 10
14.4818
 20
1.90196
 30
0.0
 11
14.2917
 21
1.88889
 31
0.0
  0
LINE
  8
0
 62
     0
 10
14.2917
 20
1.88889
 30
0.0
 11
14.0417
 21
1.85764
 31
0.0
  0
LINE
  8
0
 62
     0
 10
14.0417
 20
1.85764
 30
0.0
 11
13.7639
 21
1.79167
 31
0.0
  0
LINE
  8
0
 62
     0
 10
13.7639
 20
1.79167
 30
0.0
 11
13.5499
 21
1.729
 31
0.0
  0
LINE
  8
0
 62
     0
 10
13.5499
 20
1.729
 30
0.0
 11
13.3663
 21
1.66585
 31
0.0
  0
LINE
  8
0
 62
     0
 10
13.3663
 20
1.66585
 30
0.0
 11
13.2131
 21
1.60226
 31
0.0
  0
LINE
  8
0
 62
     0
 10
13.2131
 20
1.60226
 30
0.0
 11
13.0902
 21
1.53825
 31
0.0
  0
LINE
  8
0
 62
     0
 10
13.0902
 20
1.53825
 30
0.0
 11
12.9978
 21
1.47379
 31
0.0
  0
LINE
  8
0
 62
     0
 10
12.9978
 20
1.47379
 30
0.0
 11
12.9357
 21
1.4089
 31
0.0
  0
LINE
  8
0
 62
     0
 10
12.9357
 20
1.4089
 30
0.0
 11
12.904
 21
1.34359
 31
0.0
  0
LINE
  8
0
 62
     0
 10
12.904
 20
1.34359
 30
0.0
 11
12.9028
 21
1.27778
 31
0.0
  0
LINE
  8
0
 62
     0
 10
12.9028
 20
1.27778
 30
0.0
 11
12.9793
 21
1.04867
 31
0.0
  0
LINE
  8
0
 62
     0
 10
12.9793
 20
1.04867
 30
0.0
 11
13.0972
 21
0.75
 31
0.0
  0
LINE
  8
0
 62
     0
 10
13.0972
 20
0.75
 30
0.0
 11
13.1727
 21
0.587674
 31
0.0
  0
LINE
  8
0
 62
     0
 10
13.1727
 20
0.587674
 30
0.0
 11
13.2326
 21
0.447917
 31
0.0
  0
LINE
  8
0
 62
     0
 10
13.2326
 20
0.447917
 30
0.0
 11
13.2769
 21
0.330729
 31
0.0
  0
LINE
  8
0
 62
     0
 10
13.2769
 20
0.330729
 30
0.0
 11
13.3056
 21
0.236111
 31
0.0
  0
LINE
  8
0
 62
     0
 10
13.3056
 20
0.236111
 30
0.0
 11
13.3428
 21
0.176215
 31
0.0
  0
LINE
  8
0
 62
     0
 10
13.3428
 20
0.176215
 30
0.0
 11
13.4131
 21
0.135417
 31
0.0
  0
LINE
  8
0
 62
     0
 10
13.4131
 20
0.135417
 30
0.0
 11
13.5164
 21
0.113715
 31
0.0
  0
LINE
  8
0
 62
     0
 10
13.5164
 20
0.113715
 30
0.0
 11
13.6528
 21
0.111111
 31
0.0
  0
LINE
  8
0
 62
     0
 10
13.6528
 20
0.111111
 30
0.0
 11
13.823
 21
0.131999
 31
0.0
  0
LINE
  8
0
 62
     0
 10
13.823
 20
0.131999
 30
0.0
 11
14.0556
 21
0.166667
 31
0.0
  0
LINE
  8
0
 62
     0
 10
14.0556
 20
0.166667
 30
0.0
 11
14.0868
 21
0.170139
 31
0.0
  0
LINE
  8
0
 62
     0
 10
14.0868
 20
0.170139
 30
0.0
 11
14.125
 21
0.180556
 31
0.0
  0
ENDSEC
  0
EOF
