  0
SECTION
  2
HEADER
  9
$ACADVER
  1
AC1009
  9
$EXTMIN
 10
0.0
 20
0.0
 30
0.0
  9
$EXTMAX
 10
1000.0
 20
1000.0
 30
0.0
  9
$FILLMODE
 70
 0
  9
$SPLFRAME
 70
 1
  0
ENDSEC
  0
SECTION
  2
TABLES
  0
TABLE
  2
LAYER
 70
1
  0
LAYER
  2
0
 70
     0
 62
     7
  6
CONTINUOUS
  0
ENDTAB
  0
ENDSEC
  0
SECTION
  2
ENTITIES
  0
LINE
  8
0
 62
     0
 10
21.0278
 20
8.08333
 30
0.0
 11
20.3693
 21
8.09164
 31
0.0
  0
LINE
  8
0
 62
     0
 10
20.3693
 20
8.09164
 30
0.0
 11
19.6789
 21
8.09554
 31
0.0
  0
LINE
  8
0
 62
     0
 10
19.6789
 20
8.09554
 30
0.0
 11
18.9561
 21
8.09511
 31
0.0
  0
LINE
  8
0
 62
     0
 10
18.9561
 20
8.09511
 30
0.0
 11
18.2014
 21
8.09033
 31
0.0
  0
LINE
  8
0
 62
     0
 10
18.2014
 20
8.09033
 30
0.0
 11
17.4144
 21
8.08122
 31
0.0
  0
LINE
  8
0
 62
     0
 10
17.4144
 20
8.08122
 30
0.0
 11
16.5956
 21
8.06776
 31
0.0
  0
LINE
  8
0
 62
     0
 10
16.5956
 20
8.06776
 30
0.0
 11
15.7443
 21
8.04997
 31
0.0
  0
LINE
  8
0
 62
     0
 10
15.7443
 20
8.04997
 30
0.0
 11
14.8611
 21
8.02778
 31
0.0
  0
LINE
  8
0
 62
     0
 10
14.8611
 20
8.02778
 30
0.0
 11
14.5911
 21
8.02344
 31
0.0
  0
LINE
  8
0
 62
     0
 10
14.5911
 20
8.02344
 30
0.0
 11
14.2882
 21
8.01736
 31
0.0
  0
LINE
  8
0
 62
     0
 10
14.2882
 20
8.01736
 30
0.0
 11
13.9522
 21
8.00956
 31
0.0
  0
LINE
  8
0
 62
     0
 10
13.9522
 20
8.00956
 30
0.0
 11
13.5833
 21
8
 31
0.0
  0
LINE
  8
0
 62
     0
 10
13.5833
 20
8
 30
0.0
 11
13.1814
 21
7.98872
 31
0.0
  0
LINE
  8
0
 62
     0
 10
13.1814
 20
7.98872
 30
0.0
 11
12.7465
 21
7.97569
 31
0.0
  0
LINE
  8
0
 62
     0
 10
12.7465
 20
7.97569
 30
0.0
 11
12.2786
 21
7.96094
 31
0.0
  0
LINE
  8
0
 62
     0
 10
12.2786
 20
7.96094
 30
0.0
 11
11.7778
 21
7.94444
 31
0.0
  0
LINE
  8
0
 62
     0
 10
11.7778
 20
7.94444
 30
0.0
 11
11.2828
 21
7.93099
 31
0.0
  0
LINE
  8
0
 62
     0
 10
11.2828
 20
7.93099
 30
0.0
 11
10.8186
 21
7.9184
 31
0.0
  0
LINE
  8
0
 62
     0
 10
10.8186
 20
7.9184
 30
0.0
 11
10.3852
 21
7.90668
 31
0.0
  0
LINE
  8
0
 62
     0
 10
10.3852
 20
7.90668
 30
0.0
 11
9.98264
 21
7.89583
 31
0.0
  0
LINE
  8
0
 62
     0
 10
9.98264
 20
7.89583
 30
0.0
 11
9.61089
 21
7.88585
 31
0.0
  0
LINE
  8
0
 62
     0
 10
9.61089
 20
7.88585
 30
0.0
 11
9.26997
 21
7.87674
 31
0.0
  0
LINE
  8
0
 62
     0
 10
9.26997
 20
7.87674
 30
0.0
 11
8.95985
 21
7.86849
 31
0.0
  0
LINE
  8
0
 62
     0
 10
8.95985
 20
7.86849
 30
0.0
 11
8.68056
 21
7.86111
 31
0.0
  0
LINE
  8
0
 62
     0
 10
8.68056
 20
7.86111
 30
0.0
 11
7.79704
 21
7.84207
 31
0.0
  0
LINE
  8
0
 62
     0
 10
7.79704
 20
7.84207
 30
0.0
 11
6.94526
 21
7.82644
 31
0.0
  0
LINE
  8
0
 62
     0
 10
6.94526
 20
7.82644
 30
0.0
 11
6.12517
 21
7.81429
 31
0.0
  0
LINE
  8
0
 62
     0
 10
6.12517
 20
7.81429
 30
0.0
 11
5.33675
 21
7.80561
 31
0.0
  0
LINE
  8
0
 62
     0
 10
5.33675
 20
7.80561
 30
0.0
 11
4.58003
 21
7.8004
 31
0.0
  0
LINE
  8
0
 62
     0
 10
4.58003
 20
7.8004
 30
0.0
 11
3.85499
 21
7.79867
 31
0.0
  0
LINE
  8
0
 62
     0
 10
3.85499
 20
7.79867
 30
0.0
 11
3.16162
 21
7.8004
 31
0.0
  0
LINE
  8
0
 62
     0
 10
3.16162
 20
7.8004
 30
0.0
 11
2.5
 21
7.80556
 31
0.0
  0
LINE
  8
0
 62
     0
 10
2.5
 20
7.80556
 30
0.0
 11
2.19358
 21
7.79779
 31
0.0
  0
LINE
  8
0
 62
     0
 10
2.19358
 20
7.79779
 30
0.0
 11
1.88542
 21
7.76047
 31
0.0
  0
LINE
  8
0
 62
     0
 10
1.88542
 20
7.76047
 30
0.0
 11
1.57553
 21
7.69362
 31
0.0
  0
LINE
  8
0
 62
     0
 10
1.57553
 20
7.69362
 30
0.0
 11
1.26389
 21
7.59722
 31
0.0
  0
LINE
  8
0
 62
     0
 10
1.26389
 20
7.59722
 30
0.0
 11
0.989583
 21
7.48703
 31
0.0
  0
LINE
  8
0
 62
     0
 10
0.989583
 20
7.48703
 30
0.0
 11
0.75
 21
7.36464
 31
0.0
  0
LINE
  8
0
 62
     0
 10
0.75
 20
7.36464
 30
0.0
 11
0.545139
 21
7.23008
 31
0.0
  0
LINE
  8
0
 62
     0
 10
0.545139
 20
7.23008
 30
0.0
 11
0.375
 21
7.08333
 31
0.0
  0
LINE
  8
0
 62
     0
 10
0.375
 20
7.08333
 30
0.0
 11
0.247396
 21
6.9375
 31
0.0
  0
LINE
  8
0
 62
     0
 10
0.247396
 20
6.9375
 30
0.0
 11
0.184028
 21
6.80556
 31
0.0
  0
LINE
  8
0
 62
     0
 10
0.184028
 20
6.80556
 30
0.0
 11
0.184896
 21
6.6875
 31
0.0
  0
LINE
  8
0
 62
     0
 10
0.184896
 20
6.6875
 30
0.0
 11
0.25
 21
6.58333
 31
0.0
  0
LINE
  8
0
 62
     0
 10
0.25
 20
6.58333
 30
0.0
 11
0.393229
 21
6.47922
 31
0.0
  0
LINE
  8
0
 62
     0
 10
0.393229
 20
6.47922
 30
0.0
 11
0.614583
 21
6.40283
 31
0.0
  0
LINE
  8
0
 62
     0
 10
0.614583
 20
6.40283
 30
0.0
 11
0.914063
 21
6.35422
 31
0.0
  0
LINE
  8
0
 62
     0
 10
0.914063
 20
6.35422
 30
0.0
 11
1.29167
 21
6.33333
 31
0.0
  0
LINE
  8
0
 62
     0
 10
1.29167
 20
6.33333
 30
0.0
 11
1.95329
 21
6.32508
 31
0.0
  0
LINE
  8
0
 62
     0
 10
1.95329
 20
6.32508
 30
0.0
 11
2.64665
 21
6.32118
 31
0.0
  0
LINE
  8
0
 62
     0
 10
2.64665
 20
6.32118
 30
0.0
 11
3.37169
 21
6.32161
 31
0.0
  0
LINE
  8
0
 62
     0
 10
3.37169
 20
6.32161
 30
0.0
 11
4.12842
 21
6.32639
 31
0.0
  0
LINE
  8
0
 62
     0
 10
4.12842
 20
6.32639
 30
0.0
 11
4.91683
 21
6.3355
 31
0.0
  0
LINE
  8
0
 62
     0
 10
4.91683
 20
6.3355
 30
0.0
 11
5.73693
 21
6.34896
 31
0.0
  0
LINE
  8
0
 62
     0
 10
5.73693
 20
6.34896
 30
0.0
 11
6.58871
 21
6.36675
 31
0.0
  0
LINE
  8
0
 62
     0
 10
6.58871
 20
6.36675
 30
0.0
 11
7.47222
 21
6.38889
 31
0.0
  0
LINE
  8
0
 62
     0
 10
7.47222
 20
6.38889
 30
0.0
 11
7.75151
 21
6.39328
 31
0.0
  0
LINE
  8
0
 62
     0
 10
7.75151
 20
6.39328
 30
0.0
 11
8.06164
 21
6.39936
 31
0.0
  0
LINE
  8
0
 62
     0
 10
8.06164
 20
6.39936
 30
0.0
 11
8.40256
 21
6.40717
 31
0.0
  0
LINE
  8
0
 62
     0
 10
8.40256
 20
6.40717
 30
0.0
 11
8.77431
 21
6.41672
 31
0.0
  0
LINE
  8
0
 62
     0
 10
8.77431
 20
6.41672
 30
0.0
 11
9.17686
 21
6.428
 31
0.0
  0
LINE
  8
0
 62
     0
 10
9.17686
 20
6.428
 30
0.0
 11
9.61025
 21
6.44103
 31
0.0
  0
LINE
  8
0
 62
     0
 10
9.61025
 20
6.44103
 30
0.0
 11
10.0744
 21
6.45578
 31
0.0
  0
LINE
  8
0
 62
     0
 10
10.0744
 20
6.45578
 30
0.0
 11
10.5694
 21
6.47222
 31
0.0
  0
LINE
  8
0
 62
     0
 10
10.5694
 20
6.47222
 30
0.0
 11
11.0733
 21
6.48574
 31
0.0
  0
LINE
  8
0
 62
     0
 10
11.0733
 20
6.48574
 30
0.0
 11
11.5434
 21
6.49832
 31
0.0
  0
LINE
  8
0
 62
     0
 10
11.5434
 20
6.49832
 30
0.0
 11
11.9796
 21
6.51004
 31
0.0
  0
LINE
  8
0
 62
     0
 10
11.9796
 20
6.51004
 30
0.0
 11
12.3819
 21
6.52089
 31
0.0
  0
LINE
  8
0
 62
     0
 10
12.3819
 20
6.52089
 30
0.0
 11
12.7504
 21
6.53087
 31
0.0
  0
LINE
  8
0
 62
     0
 10
12.7504
 20
6.53087
 30
0.0
 11
13.0851
 21
6.53999
 31
0.0
  0
LINE
  8
0
 62
     0
 10
13.0851
 20
6.53999
 30
0.0
 11
13.3858
 21
6.54824
 31
0.0
  0
LINE
  8
0
 62
     0
 10
13.3858
 20
6.54824
 30
0.0
 11
13.6528
 21
6.55556
 31
0.0
  0
LINE
  8
0
 62
     0
 10
13.6528
 20
6.55556
 30
0.0
 11
15.5015
 21
6.59164
 31
0.0
  0
LINE
  8
0
 62
     0
 10
15.5015
 20
6.59164
 30
0.0
 11
17.2629
 21
6.60943
 31
0.0
  0
LINE
  8
0
 62
     0
 10
17.2629
 20
6.60943
 30
0.0
 11
18.9372
 21
6.609
 31
0.0
  0
LINE
  8
0
 62
     0
 10
18.9372
 20
6.609
 30
0.0
 11
20.5243
 21
6.59028
 31
0.0
  0
LINE
  8
0
 62
     0
 10
20.5243
 20
6.59028
 30
0.0
 11
22.024
 21
6.55339
 31
0.0
  0
LINE
  8
0
 62
     0
 10
22.024
 20
6.55339
 30
0.0
 11
23.4367
 21
6.49826
 31
0.0
  0
LINE
  8
0
 62
     0
 10
23.4367
 20
6.49826
 30
0.0
 11
24.7619
 21
6.42492
 31
0.0
  0
LINE
  8
0
 62
     0
 10
24.7619
 20
6.42492
 30
0.0
 11
26
 21
6.33333
 31
0.0
  0
LINE
  8
0
 62
     0
 10
26
 20
6.33333
 30
0.0
 11
26.3064
 21
6.32129
 31
0.0
  0
LINE
  8
0
 62
     0
 10
26.3064
 20
6.32129
 30
0.0
 11
26.6146
 21
6.34039
 31
0.0
  0
LINE
  8
0
 62
     0
 10
26.6146
 20
6.34039
 30
0.0
 11
26.9244
 21
6.39074
 31
0.0
  0
LINE
  8
0
 62
     0
 10
26.9244
 20
6.39074
 30
0.0
 11
27.2361
 21
6.47222
 31
0.0
  0
LINE
  8
0
 62
     0
 10
27.2361
 20
6.47222
 30
0.0
 11
27.5104
 21
6.5695
 31
0.0
  0
LINE
  8
0
 62
     0
 10
27.5104
 20
6.5695
 30
0.0
 11
27.75
 21
6.68061
 31
0.0
  0
LINE
  8
0
 62
     0
 10
27.75
 20
6.68061
 30
0.0
 11
27.9549
 21
6.80561
 31
0.0
  0
LINE
  8
0
 62
     0
 10
27.9549
 20
6.80561
 30
0.0
 11
28.125
 21
6.94444
 31
0.0
  0
LINE
  8
0
 62
     0
 10
28.125
 20
6.94444
 30
0.0
 11
28.2525
 21
7.08686
 31
0.0
  0
LINE
  8
0
 62
     0
 10
28.2525
 20
7.08686
 30
0.0
 11
28.316
 21
7.22228
 31
0.0
  0
LINE
  8
0
 62
     0
 10
28.316
 20
7.22228
 30
0.0
 11
28.315
 21
7.35075
 31
0.0
  0
LINE
  8
0
 62
     0
 10
28.315
 20
7.35075
 30
0.0
 11
28.25
 21
7.47222
 31
0.0
  0
LINE
  8
0
 62
     0
 10
28.25
 20
7.47222
 30
0.0
 11
28.1007
 21
7.59207
 31
0.0
  0
LINE
  8
0
 62
     0
 10
28.1007
 20
7.59207
 30
0.0
 11
27.875
 21
7.68756
 31
0.0
  0
LINE
  8
0
 62
     0
 10
27.875
 20
7.68756
 30
0.0
 11
27.5729
 21
7.75874
 31
0.0
  0
LINE
  8
0
 62
     0
 10
27.5729
 20
7.75874
 30
0.0
 11
27.1944
 21
7.80556
 31
0.0
  0
LINE
  8
0
 62
     0
 10
27.1944
 20
7.80556
 30
0.0
 11
25.7518
 21
7.91672
 31
0.0
  0
LINE
  8
0
 62
     0
 10
25.7518
 20
7.91672
 30
0.0
 11
24.2431
 21
8.00006
 31
0.0
  0
LINE
  8
0
 62
     0
 10
24.2431
 20
8.00006
 30
0.0
 11
22.6685
 21
8.05561
 31
0.0
  0
LINE
  8
0
 62
     0
 10
22.6685
 20
8.05561
 30
0.0
 11
21.0278
 21
8.08333
 31
0.0
  0
ENDSEC
  0
EOF
