  0
SECTION
  2
HEADER
  9
$ACADVER
  1
AC1009
  9
$EXTMIN
 10
0.0
 20
0.0
 30
0.0
  9
$EXTMAX
 10
1000.0
 20
1000.0
 30
0.0
  9
$FILLMODE
 70
 0
  9
$SPLFRAME
 70
 1
  0
ENDSEC
  0
SECTION
  2
TABLES
  0
TABLE
  2
LAYER
 70
1
  0
LAYER
  2
0
 70
     0
 62
     7
  6
CONTINUOUS
  0
ENDTAB
  0
ENDSEC
  0
SECTION
  2
ENTITIES
  0
LINE
  8
0
 62
     0
 10
10.8472
 20
6.91667
 30
0.0
 11
11.0093
 21
6.93772
 31
0.0
  0
LINE
  8
0
 62
     0
 10
11.0093
 20
6.93772
 30
0.0
 11
11.2109
 21
6.96615
 31
0.0
  0
LINE
  8
0
 62
     0
 10
11.2109
 20
6.96615
 30
0.0
 11
11.452
 21
7.00196
 31
0.0
  0
LINE
  8
0
 62
     0
 10
11.452
 20
7.00196
 30
0.0
 11
11.7326
 21
7.04514
 31
0.0
  0
LINE
  8
0
 62
     0
 10
11.7326
 20
7.04514
 30
0.0
 11
12.0527
 21
7.09571
 31
0.0
  0
LINE
  8
0
 62
     0
 10
12.0527
 20
7.09571
 30
0.0
 11
12.4123
 21
7.15365
 31
0.0
  0
LINE
  8
0
 62
     0
 10
12.4123
 20
7.15365
 30
0.0
 11
12.8114
 21
7.21897
 31
0.0
  0
LINE
  8
0
 62
     0
 10
12.8114
 20
7.21897
 30
0.0
 11
13.25
 21
7.29167
 31
0.0
  0
LINE
  8
0
 62
     0
 10
13.25
 20
7.29167
 30
0.0
 11
14.0356
 21
7.41325
 31
0.0
  0
LINE
  8
0
 62
     0
 10
14.0356
 20
7.41325
 30
0.0
 11
14.7396
 21
7.51394
 31
0.0
  0
LINE
  8
0
 62
     0
 10
14.7396
 20
7.51394
 30
0.0
 11
15.3619
 21
7.59381
 31
0.0
  0
LINE
  8
0
 62
     0
 10
15.3619
 20
7.59381
 30
0.0
 11
15.9028
 21
7.65278
 31
0.0
  0
LINE
  8
0
 62
     0
 10
15.9028
 20
7.65278
 30
0.0
 11
16.6756
 21
7.71078
 31
0.0
  0
LINE
  8
0
 62
     0
 10
16.6756
 20
7.71078
 30
0.0
 11
17.4036
 21
7.73182
 31
0.0
  0
LINE
  8
0
 62
     0
 10
17.4036
 20
7.73182
 30
0.0
 11
18.0871
 21
7.71599
 31
0.0
  0
LINE
  8
0
 62
     0
 10
18.0871
 20
7.71599
 30
0.0
 11
18.7257
 21
7.66325
 31
0.0
  0
LINE
  8
0
 62
     0
 10
18.7257
 20
7.66325
 30
0.0
 11
19.3197
 21
7.57363
 31
0.0
  0
LINE
  8
0
 62
     0
 10
19.3197
 20
7.57363
 30
0.0
 11
19.8689
 21
7.4471
 31
0.0
  0
LINE
  8
0
 62
     0
 10
19.8689
 20
7.4471
 30
0.0
 11
20.3735
 21
7.28369
 31
0.0
  0
LINE
  8
0
 62
     0
 10
20.3735
 20
7.28369
 30
0.0
 11
20.8333
 21
7.08333
 31
0.0
  0
LINE
  8
0
 62
     0
 10
20.8333
 20
7.08333
 30
0.0
 11
21.0053
 21
7.02349
 31
0.0
  0
LINE
  8
0
 62
     0
 10
21.0053
 20
7.02349
 30
0.0
 11
21.2153
 21
6.99658
 31
0.0
  0
LINE
  8
0
 62
     0
 10
21.2153
 20
6.99658
 30
0.0
 11
21.4636
 21
7.00265
 31
0.0
  0
LINE
  8
0
 62
     0
 10
21.4636
 20
7.00265
 30
0.0
 11
21.75
 21
7.04167
 31
0.0
  0
LINE
  8
0
 62
     0
 10
21.75
 20
7.04167
 30
0.0
 11
22.3125
 21
7.19097
 31
0.0
  0
LINE
  8
0
 62
     0
 10
22.3125
 20
7.19097
 30
0.0
 11
22.8611
 21
7.41667
 31
0.0
  0
LINE
  8
0
 62
     0
 10
22.8611
 20
7.41667
 30
0.0
 11
23.1137
 21
7.55643
 31
0.0
  0
LINE
  8
0
 62
     0
 10
23.1137
 20
7.55643
 30
0.0
 11
23.316
 21
7.69792
 31
0.0
  0
LINE
  8
0
 62
     0
 10
23.316
 20
7.69792
 30
0.0
 11
23.4679
 21
7.84115
 31
0.0
  0
LINE
  8
0
 62
     0
 10
23.4679
 20
7.84115
 30
0.0
 11
23.5694
 21
7.98611
 31
0.0
  0
LINE
  8
0
 62
     0
 10
23.5694
 20
7.98611
 30
0.0
 11
23.6215
 21
8.14583
 31
0.0
  0
LINE
  8
0
 62
     0
 10
23.6215
 20
8.14583
 30
0.0
 11
23.5972
 21
8.29167
 31
0.0
  0
LINE
  8
0
 62
     0
 10
23.5972
 20
8.29167
 30
0.0
 11
23.4965
 21
8.42361
 31
0.0
  0
LINE
  8
0
 62
     0
 10
23.4965
 20
8.42361
 30
0.0
 11
23.3194
 21
8.54167
 31
0.0
  0
LINE
  8
0
 62
     0
 10
23.3194
 20
8.54167
 30
0.0
 11
22.9442
 21
8.71208
 31
0.0
  0
LINE
  8
0
 62
     0
 10
22.9442
 20
8.71208
 30
0.0
 11
22.5546
 21
8.86203
 31
0.0
  0
LINE
  8
0
 62
     0
 10
22.5546
 20
8.86203
 30
0.0
 11
22.1507
 21
8.9916
 31
0.0
  0
LINE
  8
0
 62
     0
 10
22.1507
 20
8.9916
 30
0.0
 11
21.7325
 21
9.10075
 31
0.0
  0
LINE
  8
0
 62
     0
 10
21.7325
 20
9.10075
 30
0.0
 11
21.3
 21
9.18951
 31
0.0
  0
LINE
  8
0
 62
     0
 10
21.3
 20
9.18951
 30
0.0
 11
20.8532
 21
9.25786
 31
0.0
  0
LINE
  8
0
 62
     0
 10
20.8532
 20
9.25786
 30
0.0
 11
20.3921
 21
9.30583
 31
0.0
  0
LINE
  8
0
 62
     0
 10
20.3921
 20
9.30583
 30
0.0
 11
19.9167
 21
9.33333
 31
0.0
  0
LINE
  8
0
 62
     0
 10
19.9167
 20
9.33333
 30
0.0
 11
19.6183
 21
9.33594
 31
0.0
  0
LINE
  8
0
 62
     0
 10
19.6183
 20
9.33594
 30
0.0
 11
19.2786
 21
9.32986
 31
0.0
  0
LINE
  8
0
 62
     0
 10
19.2786
 20
9.32986
 30
0.0
 11
18.8978
 21
9.31511
 31
0.0
  0
LINE
  8
0
 62
     0
 10
18.8978
 20
9.31511
 30
0.0
 11
18.4757
 21
9.29167
 31
0.0
  0
LINE
  8
0
 62
     0
 10
18.4757
 20
9.29167
 30
0.0
 11
18.0124
 21
9.25956
 31
0.0
  0
LINE
  8
0
 62
     0
 10
18.0124
 20
9.25956
 30
0.0
 11
17.5078
 21
9.21875
 31
0.0
  0
LINE
  8
0
 62
     0
 10
17.5078
 20
9.21875
 30
0.0
 11
16.9621
 21
9.16928
 31
0.0
  0
LINE
  8
0
 62
     0
 10
16.9621
 20
9.16928
 30
0.0
 11
16.375
 21
9.11111
 31
0.0
  0
LINE
  8
0
 62
     0
 10
16.375
 20
9.11111
 30
0.0
 11
15.1115
 21
8.97863
 31
0.0
  0
LINE
  8
0
 62
     0
 10
15.1115
 20
8.97863
 30
0.0
 11
13.9082
 21
8.85547
 31
0.0
  0
LINE
  8
0
 62
     0
 10
13.9082
 20
8.85547
 30
0.0
 11
12.7648
 21
8.74164
 31
0.0
  0
LINE
  8
0
 62
     0
 10
12.7648
 20
8.74164
 30
0.0
 11
11.6814
 21
8.63715
 31
0.0
  0
LINE
  8
0
 62
     0
 10
11.6814
 20
8.63715
 30
0.0
 11
10.658
 21
8.54199
 31
0.0
  0
LINE
  8
0
 62
     0
 10
10.658
 20
8.54199
 30
0.0
 11
9.69461
 21
8.45617
 31
0.0
  0
LINE
  8
0
 62
     0
 10
9.69461
 20
8.45617
 30
0.0
 11
8.79124
 21
8.37967
 31
0.0
  0
LINE
  8
0
 62
     0
 10
8.79124
 20
8.37967
 30
0.0
 11
7.94786
 21
8.3125
 31
0.0
  0
LINE
  8
0
 62
     0
 10
7.94786
 20
8.3125
 30
0.0
 11
7.1645
 21
8.25467
 31
0.0
  0
LINE
  8
0
 62
     0
 10
7.1645
 20
8.25467
 30
0.0
 11
6.44114
 21
8.20617
 31
0.0
  0
LINE
  8
0
 62
     0
 10
6.44114
 20
8.20617
 30
0.0
 11
5.77778
 21
8.16699
 31
0.0
  0
LINE
  8
0
 62
     0
 10
5.77778
 20
8.16699
 30
0.0
 11
5.17443
 21
8.13715
 31
0.0
  0
LINE
  8
0
 62
     0
 10
5.17443
 20
8.13715
 30
0.0
 11
4.63108
 21
8.11664
 31
0.0
  0
LINE
  8
0
 62
     0
 10
4.63108
 20
8.11664
 30
0.0
 11
4.14774
 21
8.10547
 31
0.0
  0
LINE
  8
0
 62
     0
 10
4.14774
 20
8.10547
 30
0.0
 11
3.72439
 21
8.10363
 31
0.0
  0
LINE
  8
0
 62
     0
 10
3.72439
 20
8.10363
 30
0.0
 11
3.36111
 21
8.11111
 31
0.0
  0
LINE
  8
0
 62
     0
 10
3.36111
 20
8.11111
 30
0.0
 11
3.15018
 21
8.10161
 31
0.0
  0
LINE
  8
0
 62
     0
 10
3.15018
 20
8.10161
 30
0.0
 11
2.92014
 21
8.05908
 31
0.0
  0
LINE
  8
0
 62
     0
 10
2.92014
 20
8.05908
 30
0.0
 11
2.67101
 21
7.98356
 31
0.0
  0
LINE
  8
0
 62
     0
 10
2.67101
 20
7.98356
 30
0.0
 11
2.40278
 21
7.875
 31
0.0
  0
LINE
  8
0
 62
     0
 10
2.40278
 20
7.875
 30
0.0
 11
2.15104
 21
7.75174
 31
0.0
  0
LINE
  8
0
 62
     0
 10
2.15104
 20
7.75174
 30
0.0
 11
1.92361
 21
7.618
 31
0.0
  0
LINE
  8
0
 62
     0
 10
1.92361
 20
7.618
 30
0.0
 11
1.72049
 21
7.47396
 31
0.0
  0
LINE
  8
0
 62
     0
 10
1.72049
 20
7.47396
 30
0.0
 11
1.54167
 21
7.31944
 31
0.0
  0
LINE
  8
0
 62
     0
 10
1.54167
 20
7.31944
 30
0.0
 11
1.38976
 21
7.15278
 31
0.0
  0
LINE
  8
0
 62
     0
 10
1.38976
 20
7.15278
 30
0.0
 11
1.29514
 21
7
 31
0.0
  0
LINE
  8
0
 62
     0
 10
1.29514
 20
7
 30
0.0
 11
1.25776
 21
6.86111
 31
0.0
  0
LINE
  8
0
 62
     0
 10
1.25776
 20
6.86111
 30
0.0
 11
1.27778
 21
6.73611
 31
0.0
  0
LINE
  8
0
 62
     0
 10
1.27778
 20
6.73611
 30
0.0
 11
1.37755
 21
6.61893
 31
0.0
  0
LINE
  8
0
 62
     0
 10
1.37755
 20
6.61893
 30
0.0
 11
1.55203
 21
6.53125
 31
0.0
  0
LINE
  8
0
 62
     0
 10
1.55203
 20
6.53125
 30
0.0
 11
1.80117
 21
6.4731
 31
0.0
  0
LINE
  8
0
 62
     0
 10
1.80117
 20
6.4731
 30
0.0
 11
2.125
 21
6.44444
 31
0.0
  0
LINE
  8
0
 62
     0
 10
2.125
 20
6.44444
 30
0.0
 11
3.02686
 21
6.4215
 31
0.0
  0
LINE
  8
0
 62
     0
 10
3.02686
 20
6.4215
 30
0.0
 11
3.98258
 21
6.42193
 31
0.0
  0
LINE
  8
0
 62
     0
 10
3.98258
 20
6.42193
 30
0.0
 11
4.99214
 21
6.44581
 31
0.0
  0
LINE
  8
0
 62
     0
 10
4.99214
 20
6.44581
 30
0.0
 11
6.0555
 21
6.49311
 31
0.0
  0
LINE
  8
0
 62
     0
 10
6.0555
 20
6.49311
 30
0.0
 11
7.17269
 21
6.56386
 31
0.0
  0
LINE
  8
0
 62
     0
 10
7.17269
 20
6.56386
 30
0.0
 11
8.34369
 21
6.65804
 31
0.0
  0
LINE
  8
0
 62
     0
 10
8.34369
 20
6.65804
 30
0.0
 11
9.56853
 21
6.77567
 31
0.0
  0
LINE
  8
0
 62
     0
 10
9.56853
 20
6.77567
 30
0.0
 11
10.8472
 21
6.91667
 31
0.0
  0
ENDSEC
  0
EOF
