  0
SECTION
  2
HEADER
  9
$ACADVER
  1
AC1009
  9
$EXTMIN
 10
0.0
 20
0.0
 30
0.0
  9
$EXTMAX
 10
1000.0
 20
1000.0
 30
0.0
  9
$FILLMODE
 70
 0
  9
$SPLFRAME
 70
 1
  0
ENDSEC
  0
SECTION
  2
TABLES
  0
TABLE
  2
LAYER
 70
1
  0
LAYER
  2
0
 70
     0
 62
     7
  6
CONTINUOUS
  0
ENDTAB
  0
ENDSEC
  0
SECTION
  2
ENTITIES
  0
LINE
  8
0
 62
     0
 10
10.0694
 20
10.8056
 30
0.0
 11
10.3194
 21
10.9289
 31
0.0
  0
LINE
  8
0
 62
     0
 10
10.3194
 20
10.9289
 30
0.0
 11
10.5278
 21
11.0764
 31
0.0
  0
LINE
  8
0
 62
     0
 10
10.5278
 20
11.0764
 30
0.0
 11
10.6944
 21
11.2483
 31
0.0
  0
LINE
  8
0
 62
     0
 10
10.6944
 20
11.2483
 30
0.0
 11
10.8194
 21
11.4444
 31
0.0
  0
LINE
  8
0
 62
     0
 10
10.8194
 20
11.4444
 30
0.0
 11
10.8924
 21
11.6406
 31
0.0
  0
LINE
  8
0
 62
     0
 10
10.8924
 20
11.6406
 30
0.0
 11
10.9028
 21
11.8264
 31
0.0
  0
LINE
  8
0
 62
     0
 10
10.9028
 20
11.8264
 30
0.0
 11
10.8507
 21
12.0018
 31
0.0
  0
LINE
  8
0
 62
     0
 10
10.8507
 20
12.0018
 30
0.0
 11
10.7361
 21
12.1667
 31
0.0
  0
LINE
  8
0
 62
     0
 10
10.7361
 20
12.1667
 30
0.0
 11
10.5928
 21
12.2908
 31
0.0
  0
LINE
  8
0
 62
     0
 10
10.5928
 20
12.2908
 30
0.0
 11
10.427
 21
12.3854
 31
0.0
  0
LINE
  8
0
 62
     0
 10
10.427
 20
12.3854
 30
0.0
 11
10.2387
 21
12.4505
 31
0.0
  0
LINE
  8
0
 62
     0
 10
10.2387
 20
12.4505
 30
0.0
 11
10.0278
 21
12.4861
 31
0.0
  0
LINE
  8
0
 62
     0
 10
10.0278
 20
12.4861
 30
0.0
 11
9.80137
 21
12.502
 31
0.0
  0
LINE
  8
0
 62
     0
 10
9.80137
 20
12.502
 30
0.0
 11
9.52513
 21
12.5148
 31
0.0
  0
LINE
  8
0
 62
     0
 10
9.52513
 20
12.5148
 30
0.0
 11
9.19894
 21
12.5245
 31
0.0
  0
LINE
  8
0
 62
     0
 10
9.19894
 20
12.5245
 30
0.0
 11
8.82286
 21
12.5313
 31
0.0
  0
LINE
  8
0
 62
     0
 10
8.82286
 20
12.5313
 30
0.0
 11
8.39686
 21
12.5349
 31
0.0
  0
LINE
  8
0
 62
     0
 10
8.39686
 20
12.5349
 30
0.0
 11
7.92096
 21
12.5356
 31
0.0
  0
LINE
  8
0
 62
     0
 10
7.92096
 20
12.5356
 30
0.0
 11
7.39512
 21
12.5332
 31
0.0
  0
LINE
  8
0
 62
     0
 10
7.39512
 20
12.5332
 30
0.0
 11
6.81944
 21
12.5278
 31
0.0
  0
LINE
  8
0
 62
     0
 10
6.81944
 20
12.5278
 30
0.0
 11
6.33197
 21
12.5248
 31
0.0
  0
LINE
  8
0
 62
     0
 10
6.33197
 20
12.5248
 30
0.0
 11
5.86974
 21
12.5296
 31
0.0
  0
LINE
  8
0
 62
     0
 10
5.86974
 20
12.5296
 30
0.0
 11
5.43267
 21
12.5423
 31
0.0
  0
LINE
  8
0
 62
     0
 10
5.43267
 20
12.5423
 30
0.0
 11
5.02078
 21
12.5627
 31
0.0
  0
LINE
  8
0
 62
     0
 10
5.02078
 20
12.5627
 30
0.0
 11
4.63406
 21
12.5909
 31
0.0
  0
LINE
  8
0
 62
     0
 10
4.63406
 20
12.5909
 30
0.0
 11
4.27251
 21
12.6269
 31
0.0
  0
LINE
  8
0
 62
     0
 10
4.27251
 20
12.6269
 30
0.0
 11
3.93614
 21
12.6707
 31
0.0
  0
LINE
  8
0
 62
     0
 10
3.93614
 20
12.6707
 30
0.0
 11
3.625
 21
12.7222
 31
0.0
  0
LINE
  8
0
 62
     0
 10
3.625
 20
12.7222
 30
0.0
 11
3.39497
 21
12.7387
 31
0.0
  0
LINE
  8
0
 62
     0
 10
3.39497
 20
12.7387
 30
0.0
 11
3.16319
 21
12.7188
 31
0.0
  0
LINE
  8
0
 62
     0
 10
3.16319
 20
12.7188
 30
0.0
 11
2.92969
 21
12.6624
 31
0.0
  0
LINE
  8
0
 62
     0
 10
2.92969
 20
12.6624
 30
0.0
 11
2.69444
 21
12.5694
 31
0.0
  0
LINE
  8
0
 62
     0
 10
2.69444
 20
12.5694
 30
0.0
 11
2.48525
 21
12.4567
 31
0.0
  0
LINE
  8
0
 62
     0
 10
2.48525
 20
12.4567
 30
0.0
 11
2.30208
 21
12.3264
 31
0.0
  0
LINE
  8
0
 62
     0
 10
2.30208
 20
12.3264
 30
0.0
 11
2.14492
 21
12.1789
 31
0.0
  0
LINE
  8
0
 62
     0
 10
2.14492
 20
12.1789
 30
0.0
 11
2.01389
 21
12.0139
 31
0.0
  0
LINE
  8
0
 62
     0
 10
2.01389
 20
12.0139
 30
0.0
 11
1.91314
 21
11.8316
 31
0.0
  0
LINE
  8
0
 62
     0
 10
1.91314
 20
11.8316
 30
0.0
 11
1.86106
 21
11.6597
 31
0.0
  0
LINE
  8
0
 62
     0
 10
1.86106
 20
11.6597
 30
0.0
 11
1.85758
 21
11.4983
 31
0.0
  0
LINE
  8
0
 62
     0
 10
1.85758
 20
11.4983
 30
0.0
 11
1.90278
 21
11.3472
 31
0.0
  0
LINE
  8
0
 62
     0
 10
1.90278
 20
11.3472
 30
0.0
 11
2.00776
 21
11.1884
 31
0.0
  0
LINE
  8
0
 62
     0
 10
2.00776
 20
11.1884
 30
0.0
 11
2.17014
 21
11.059
 31
0.0
  0
LINE
  8
0
 62
     0
 10
2.17014
 20
11.059
 30
0.0
 11
2.38976
 21
10.9592
 31
0.0
  0
LINE
  8
0
 62
     0
 10
2.38976
 20
10.9592
 30
0.0
 11
2.66667
 21
10.8889
 31
0.0
  0
LINE
  8
0
 62
     0
 10
2.66667
 20
10.8889
 30
0.0
 11
2.98113
 21
10.8372
 31
0.0
  0
LINE
  8
0
 62
     0
 10
2.98113
 20
10.8372
 30
0.0
 11
3.32032
 21
10.7934
 31
0.0
  0
LINE
  8
0
 62
     0
 10
3.32032
 20
10.7934
 30
0.0
 11
3.68425
 21
10.7574
 31
0.0
  0
LINE
  8
0
 62
     0
 10
3.68425
 20
10.7574
 30
0.0
 11
4.07292
 21
10.7292
 31
0.0
  0
LINE
  8
0
 62
     0
 10
4.07292
 20
10.7292
 30
0.0
 11
4.48633
 21
10.7088
 31
0.0
  0
LINE
  8
0
 62
     0
 10
4.48633
 20
10.7088
 30
0.0
 11
4.92449
 21
10.6962
 31
0.0
  0
LINE
  8
0
 62
     0
 10
4.92449
 20
10.6962
 30
0.0
 11
5.38737
 21
10.6915
 31
0.0
  0
LINE
  8
0
 62
     0
 10
5.38737
 20
10.6915
 30
0.0
 11
5.875
 21
10.6944
 31
0.0
  0
LINE
  8
0
 62
     0
 10
5.875
 20
10.6944
 30
0.0
 11
6.45068
 21
10.6999
 31
0.0
  0
LINE
  8
0
 62
     0
 10
6.45068
 20
10.6999
 30
0.0
 11
6.97651
 21
10.7023
 31
0.0
  0
LINE
  8
0
 62
     0
 10
6.97651
 20
10.7023
 30
0.0
 11
7.45242
 21
10.7016
 31
0.0
  0
LINE
  8
0
 62
     0
 10
7.45242
 20
10.7016
 30
0.0
 11
7.87842
 21
10.6979
 31
0.0
  0
LINE
  8
0
 62
     0
 10
7.87842
 20
10.6979
 30
0.0
 11
8.2545
 21
10.6912
 31
0.0
  0
LINE
  8
0
 62
     0
 10
8.2545
 20
10.6912
 30
0.0
 11
8.58068
 21
10.6814
 31
0.0
  0
LINE
  8
0
 62
     0
 10
8.58068
 20
10.6814
 30
0.0
 11
8.85693
 21
10.6686
 31
0.0
  0
LINE
  8
0
 62
     0
 10
8.85693
 20
10.6686
 30
0.0
 11
9.08333
 21
10.6528
 31
0.0
  0
LINE
  8
0
 62
     0
 10
9.08333
 20
10.6528
 30
0.0
 11
9.33768
 21
10.6467
 31
0.0
  0
LINE
  8
0
 62
     0
 10
9.33768
 20
10.6467
 30
0.0
 11
9.58681
 21
10.6702
 31
0.0
  0
LINE
  8
0
 62
     0
 10
9.58681
 20
10.6702
 30
0.0
 11
9.83074
 21
10.7231
 31
0.0
  0
LINE
  8
0
 62
     0
 10
9.83074
 20
10.7231
 30
0.0
 11
10.0694
 21
10.8056
 31
0.0
  0
LINE
  8
0
 62
     0
 10
11.875
 20
8.5
 30
0.0
 11
11.7335
 21
8.6155
 31
0.0
  0
LINE
  8
0
 62
     0
 10
11.7335
 20
8.6155
 30
0.0
 11
11.5729
 21
8.69797
 31
0.0
  0
LINE
  8
0
 62
     0
 10
11.5729
 20
8.69797
 30
0.0
 11
11.3932
 21
8.74744
 31
0.0
  0
LINE
  8
0
 62
     0
 10
11.3932
 20
8.74744
 30
0.0
 11
11.1944
 21
8.76389
 31
0.0
  0
LINE
  8
0
 62
     0
 10
11.1944
 20
8.76389
 30
0.0
 11
10.8697
 21
8.76215
 31
0.0
  0
LINE
  8
0
 62
     0
 10
10.8697
 20
8.76215
 30
0.0
 11
10.5069
 21
8.75694
 31
0.0
  0
LINE
  8
0
 62
     0
 10
10.5069
 20
8.75694
 30
0.0
 11
10.1058
 21
8.74826
 31
0.0
  0
LINE
  8
0
 62
     0
 10
10.1058
 20
8.74826
 30
0.0
 11
9.66661
 21
8.73611
 31
0.0
  0
LINE
  8
0
 62
     0
 10
9.66661
 20
8.73611
 30
0.0
 11
9.18918
 21
8.72049
 31
0.0
  0
LINE
  8
0
 62
     0
 10
9.18918
 20
8.72049
 30
0.0
 11
8.67356
 21
8.70139
 31
0.0
  0
LINE
  8
0
 62
     0
 10
8.67356
 20
8.70139
 30
0.0
 11
8.11974
 21
8.67882
 31
0.0
  0
LINE
  8
0
 62
     0
 10
8.11974
 20
8.67882
 30
0.0
 11
7.52778
 21
8.65278
 31
0.0
  0
LINE
  8
0
 62
     0
 10
7.52778
 20
8.65278
 30
0.0
 11
6.93576
 21
8.62679
 31
0.0
  0
LINE
  8
0
 62
     0
 10
6.93576
 20
8.62679
 30
0.0
 11
6.38194
 21
8.60422
 31
0.0
  0
LINE
  8
0
 62
     0
 10
6.38194
 20
8.60422
 30
0.0
 11
5.86632
 21
8.58513
 31
0.0
  0
LINE
  8
0
 62
     0
 10
5.86632
 20
8.58513
 30
0.0
 11
5.38889
 21
8.5695
 31
0.0
  0
LINE
  8
0
 62
     0
 10
5.38889
 20
8.5695
 30
0.0
 11
4.94965
 21
8.55735
 31
0.0
  0
LINE
  8
0
 62
     0
 10
4.94965
 20
8.55735
 30
0.0
 11
4.54861
 21
8.54867
 31
0.0
  0
LINE
  8
0
 62
     0
 10
4.54861
 20
8.54867
 30
0.0
 11
4.18576
 21
8.54346
 31
0.0
  0
LINE
  8
0
 62
     0
 10
4.18576
 20
8.54346
 30
0.0
 11
3.86111
 21
8.54167
 31
0.0
  0
LINE
  8
0
 62
     0
 10
3.86111
 20
8.54167
 30
0.0
 11
3.59196
 21
8.52604
 31
0.0
  0
LINE
  8
0
 62
     0
 10
3.59196
 20
8.52604
 30
0.0
 11
3.34022
 21
8.49306
 31
0.0
  0
LINE
  8
0
 62
     0
 10
3.34022
 20
8.49306
 30
0.0
 11
3.10585
 21
8.44271
 31
0.0
  0
LINE
  8
0
 62
     0
 10
3.10585
 20
8.44271
 30
0.0
 11
2.88889
 21
8.375
 31
0.0
  0
LINE
  8
0
 62
     0
 10
2.88889
 20
8.375
 30
0.0
 11
2.64324
 21
8.26394
 31
0.0
  0
LINE
  8
0
 62
     0
 10
2.64324
 20
8.26394
 30
0.0
 11
2.43403
 21
8.12506
 31
0.0
  0
LINE
  8
0
 62
     0
 10
2.43403
 20
8.12506
 30
0.0
 11
2.26124
 21
7.95839
 31
0.0
  0
LINE
  8
0
 62
     0
 10
2.26124
 20
7.95839
 30
0.0
 11
2.125
 21
7.76389
 31
0.0
  0
LINE
  8
0
 62
     0
 10
2.125
 20
7.76389
 30
0.0
 11
2.04596
 21
7.5816
 31
0.0
  0
LINE
  8
0
 62
     0
 10
2.04596
 20
7.5816
 30
0.0
 11
2.03119
 21
7.40972
 31
0.0
  0
LINE
  8
0
 62
     0
 10
2.03119
 20
7.40972
 30
0.0
 11
2.08068
 21
7.24826
 31
0.0
  0
LINE
  8
0
 62
     0
 10
2.08068
 20
7.24826
 30
0.0
 11
2.19444
 21
7.09722
 31
0.0
  0
LINE
  8
0
 62
     0
 10
2.19444
 20
7.09722
 30
0.0
 11
2.34196
 21
6.97575
 31
0.0
  0
LINE
  8
0
 62
     0
 10
2.34196
 20
6.97575
 30
0.0
 11
2.50689
 21
6.88894
 31
0.0
  0
LINE
  8
0
 62
     0
 10
2.50689
 20
6.88894
 30
0.0
 11
2.68918
 21
6.83686
 31
0.0
  0
LINE
  8
0
 62
     0
 10
2.68918
 20
6.83686
 30
0.0
 11
2.88889
 21
6.81944
 31
0.0
  0
LINE
  8
0
 62
     0
 10
2.88889
 20
6.81944
 30
0.0
 11
3.21354
 21
6.82428
 31
0.0
  0
LINE
  8
0
 62
     0
 10
3.21354
 20
6.82428
 30
0.0
 11
3.57639
 21
6.83165
 31
0.0
  0
LINE
  8
0
 62
     0
 10
3.57639
 20
6.83165
 30
0.0
 11
3.97743
 21
6.84164
 31
0.0
  0
LINE
  8
0
 62
     0
 10
3.97743
 20
6.84164
 30
0.0
 11
4.41667
 21
6.85417
 31
0.0
  0
LINE
  8
0
 62
     0
 10
4.41667
 20
6.85417
 30
0.0
 11
4.8941
 21
6.86936
 31
0.0
  0
LINE
  8
0
 62
     0
 10
4.8941
 20
6.86936
 30
0.0
 11
5.40972
 21
6.88715
 31
0.0
  0
LINE
  8
0
 62
     0
 10
5.40972
 20
6.88715
 30
0.0
 11
5.96354
 21
6.90756
 31
0.0
  0
LINE
  8
0
 62
     0
 10
5.96354
 20
6.90756
 30
0.0
 11
6.55556
 21
6.93056
 31
0.0
  0
LINE
  8
0
 62
     0
 10
6.55556
 20
6.93056
 30
0.0
 11
7.14751
 21
6.95682
 31
0.0
  0
LINE
  8
0
 62
     0
 10
7.14751
 20
6.95682
 30
0.0
 11
7.70133
 21
6.98004
 31
0.0
  0
LINE
  8
0
 62
     0
 10
7.70133
 20
6.98004
 30
0.0
 11
8.21696
 21
7.00022
 31
0.0
  0
LINE
  8
0
 62
     0
 10
8.21696
 20
7.00022
 30
0.0
 11
8.69439
 21
7.01736
 31
0.0
  0
LINE
  8
0
 62
     0
 10
8.69439
 20
7.01736
 30
0.0
 11
9.13362
 21
7.03147
 31
0.0
  0
LINE
  8
0
 62
     0
 10
9.13362
 20
7.03147
 30
0.0
 11
9.53467
 21
7.04254
 31
0.0
  0
LINE
  8
0
 62
     0
 10
9.53467
 20
7.04254
 30
0.0
 11
9.89751
 21
7.05057
 31
0.0
  0
LINE
  8
0
 62
     0
 10
9.89751
 20
7.05057
 30
0.0
 11
10.2222
 21
7.05556
 31
0.0
  0
LINE
  8
0
 62
     0
 10
10.2222
 20
7.05556
 30
0.0
 11
10.4861
 21
7.06515
 31
0.0
  0
LINE
  8
0
 62
     0
 10
10.4861
 20
7.06515
 30
0.0
 11
10.7361
 21
7.09381
 31
0.0
  0
LINE
  8
0
 62
     0
 10
10.7361
 20
7.09381
 30
0.0
 11
10.9722
 21
7.14154
 31
0.0
  0
LINE
  8
0
 62
     0
 10
10.9722
 20
7.14154
 30
0.0
 11
11.1944
 21
7.20833
 31
0.0
  0
LINE
  8
0
 62
     0
 10
11.1944
 20
7.20833
 30
0.0
 11
11.4401
 21
7.32471
 31
0.0
  0
LINE
  8
0
 62
     0
 10
11.4401
 20
7.32471
 30
0.0
 11
11.6493
 21
7.46533
 31
0.0
  0
LINE
  8
0
 62
     0
 10
11.6493
 20
7.46533
 30
0.0
 11
11.8221
 21
7.63026
 31
0.0
  0
LINE
  8
0
 62
     0
 10
11.8221
 20
7.63026
 30
0.0
 11
11.9583
 21
7.81944
 31
0.0
  0
LINE
  8
0
 62
     0
 10
11.9583
 20
7.81944
 30
0.0
 11
12.0313
 21
8.00261
 31
0.0
  0
LINE
  8
0
 62
     0
 10
12.0313
 20
8.00261
 30
0.0
 11
12.0417
 21
8.17708
 31
0.0
  0
LINE
  8
0
 62
     0
 10
12.0417
 20
8.17708
 30
0.0
 11
11.9896
 21
8.34289
 31
0.0
  0
LINE
  8
0
 62
     0
 10
11.9896
 20
8.34289
 30
0.0
 11
11.875
 21
8.5
 31
0.0
  0
ENDSEC
  0
EOF
