  0
SECTION
  2
HEADER
  9
$ACADVER
  1
AC1009
  9
$EXTMIN
 10
0.0
 20
0.0
 30
0.0
  9
$EXTMAX
 10
1000.0
 20
1000.0
 30
0.0
  9
$FILLMODE
 70
 0
  9
$SPLFRAME
 70
 1
  0
ENDSEC
  0
SECTION
  2
TABLES
  0
TABLE
  2
LAYER
 70
1
  0
LAYER
  2
0
 70
     0
 62
     7
  6
CONTINUOUS
  0
ENDTAB
  0
ENDSEC
  0
SECTION
  2
ENTITIES
  0
LINE
  8
0
 62
     0
 10
6
 20
19.8611
 30
0.0
 11
5.93619
 21
19.8585
 31
0.0
  0
LINE
  8
0
 62
     0
 10
5.93619
 20
19.8585
 30
0.0
 11
5.77951
 21
19.8507
 31
0.0
  0
LINE
  8
0
 62
     0
 10
5.77951
 20
19.8507
 30
0.0
 11
5.52994
 21
19.8376
 31
0.0
  0
LINE
  8
0
 62
     0
 10
5.52994
 20
19.8376
 30
0.0
 11
5.1875
 21
19.8194
 31
0.0
  0
LINE
  8
0
 62
     0
 10
5.1875
 20
19.8194
 30
0.0
 11
4.75217
 21
19.796
 31
0.0
  0
LINE
  8
0
 62
     0
 10
4.75217
 20
19.796
 30
0.0
 11
4.22396
 21
19.7674
 31
0.0
  0
LINE
  8
0
 62
     0
 10
4.22396
 20
19.7674
 30
0.0
 11
3.60286
 21
19.7335
 31
0.0
  0
LINE
  8
0
 62
     0
 10
3.60286
 20
19.7335
 30
0.0
 11
2.88889
 21
19.6944
 31
0.0
  0
LINE
  8
0
 62
     0
 10
2.88889
 20
19.6944
 30
0.0
 11
2.71522
 21
19.7657
 31
0.0
  0
LINE
  8
0
 62
     0
 10
2.71522
 20
19.7657
 30
0.0
 11
2.52772
 21
19.8125
 31
0.0
  0
LINE
  8
0
 62
     0
 10
2.52772
 20
19.8125
 30
0.0
 11
2.32633
 21
19.8351
 31
0.0
  0
LINE
  8
0
 62
     0
 10
2.32633
 20
19.8351
 30
0.0
 11
2.11111
 21
19.8333
 31
0.0
  0
LINE
  8
0
 62
     0
 10
2.11111
 20
19.8333
 30
0.0
 11
1.63536
 21
19.7743
 31
0.0
  0
LINE
  8
0
 62
     0
 10
1.63536
 20
19.7743
 30
0.0
 11
1.125
 21
19.6528
 31
0.0
  0
LINE
  8
0
 62
     0
 10
1.125
 20
19.6528
 30
0.0
 11
0.899251
 21
19.5726
 31
0.0
  0
LINE
  8
0
 62
     0
 10
0.899251
 20
19.5726
 30
0.0
 11
0.701335
 21
19.4783
 31
0.0
  0
LINE
  8
0
 62
     0
 10
0.701335
 20
19.4783
 30
0.0
 11
0.531196
 21
19.3696
 31
0.0
  0
LINE
  8
0
 62
     0
 10
0.531196
 20
19.3696
 30
0.0
 11
0.388835
 21
19.2465
 31
0.0
  0
LINE
  8
0
 62
     0
 10
0.388835
 20
19.2465
 30
0.0
 11
0.274251
 21
19.1092
 31
0.0
  0
LINE
  8
0
 62
     0
 10
0.274251
 20
19.1092
 30
0.0
 11
0.187446
 21
18.9575
 31
0.0
  0
LINE
  8
0
 62
     0
 10
0.187446
 20
18.9575
 30
0.0
 11
0.128418
 21
18.7914
 31
0.0
  0
LINE
  8
0
 62
     0
 10
0.128418
 20
18.7914
 30
0.0
 11
0.0972222
 21
18.6111
 31
0.0
  0
LINE
  8
0
 62
     0
 10
0.0972222
 20
18.6111
 30
0.0
 11
0.0104167
 21
18.3368
 31
0.0
  0
LINE
  8
0
 62
     0
 10
0.0104167
 20
18.3368
 30
0.0
 11
0
 21
18.0694
 31
0.0
  0
LINE
  8
0
 62
     0
 10
0
 20
18.0694
 30
0.0
 11
0.0219185
 21
17.8886
 31
0.0
  0
LINE
  8
0
 62
     0
 10
0.0219185
 20
17.8886
 30
0.0
 11
0.0529514
 21
17.6829
 31
0.0
  0
LINE
  8
0
 62
     0
 10
0.0529514
 20
17.6829
 30
0.0
 11
0.093099
 21
17.4524
 31
0.0
  0
LINE
  8
0
 62
     0
 10
0.093099
 20
17.4524
 30
0.0
 11
0.142361
 21
17.1971
 31
0.0
  0
LINE
  8
0
 62
     0
 10
0.142361
 20
17.1971
 30
0.0
 11
0.200738
 21
16.9168
 31
0.0
  0
LINE
  8
0
 62
     0
 10
0.200738
 20
16.9168
 30
0.0
 11
0.268229
 21
16.6118
 31
0.0
  0
LINE
  8
0
 62
     0
 10
0.268229
 20
16.6118
 30
0.0
 11
0.344835
 21
16.2818
 31
0.0
  0
LINE
  8
0
 62
     0
 10
0.344835
 20
16.2818
 30
0.0
 11
0.430556
 21
15.9271
 31
0.0
  0
LINE
  8
0
 62
     0
 10
0.430556
 20
15.9271
 30
0.0
 11
0.525336
 21
15.5475
 31
0.0
  0
LINE
  8
0
 62
     0
 10
0.525336
 20
15.5475
 30
0.0
 11
0.629286
 21
15.1431
 31
0.0
  0
LINE
  8
0
 62
     0
 10
0.629286
 20
15.1431
 30
0.0
 11
0.74235
 21
14.7138
 31
0.0
  0
LINE
  8
0
 62
     0
 10
0.74235
 20
14.7138
 30
0.0
 11
0.864529
 21
14.2596
 31
0.0
  0
LINE
  8
0
 62
     0
 10
0.864529
 20
14.2596
 30
0.0
 11
0.995822
 21
13.7805
 31
0.0
  0
LINE
  8
0
 62
     0
 10
0.995822
 20
13.7805
 30
0.0
 11
1.13623
 21
13.2767
 31
0.0
  0
LINE
  8
0
 62
     0
 10
1.13623
 20
13.2767
 30
0.0
 11
1.28575
 21
12.748
 31
0.0
  0
LINE
  8
0
 62
     0
 10
1.28575
 20
12.748
 30
0.0
 11
1.44444
 21
12.1944
 31
0.0
  0
LINE
  8
0
 62
     0
 10
1.44444
 20
12.1944
 30
0.0
 11
1.50092
 21
11.5363
 31
0.0
  0
LINE
  8
0
 62
     0
 10
1.50092
 20
11.5363
 30
0.0
 11
1.55593
 21
10.9126
 31
0.0
  0
LINE
  8
0
 62
     0
 10
1.55593
 20
10.9126
 30
0.0
 11
1.60943
 21
10.3232
 31
0.0
  0
LINE
  8
0
 62
     0
 10
1.60943
 20
10.3232
 30
0.0
 11
1.6614
 21
9.76828
 31
0.0
  0
LINE
  8
0
 62
     0
 10
1.6614
 20
9.76828
 30
0.0
 11
1.71186
 21
9.24772
 31
0.0
  0
LINE
  8
0
 62
     0
 10
1.71186
 20
9.24772
 30
0.0
 11
1.76079
 21
8.76156
 31
0.0
  0
LINE
  8
0
 62
     0
 10
1.76079
 20
8.76156
 30
0.0
 11
1.80821
 21
8.30979
 31
0.0
  0
LINE
  8
0
 62
     0
 10
1.80821
 20
8.30979
 30
0.0
 11
1.85411
 21
7.89242
 31
0.0
  0
LINE
  8
0
 62
     0
 10
1.85411
 20
7.89242
 30
0.0
 11
1.89849
 21
7.50944
 31
0.0
  0
LINE
  8
0
 62
     0
 10
1.89849
 20
7.50944
 30
0.0
 11
1.94135
 21
7.16086
 31
0.0
  0
LINE
  8
0
 62
     0
 10
1.94135
 20
7.16086
 30
0.0
 11
1.98269
 21
6.84668
 31
0.0
  0
LINE
  8
0
 62
     0
 10
1.98269
 20
6.84668
 30
0.0
 11
2.02251
 21
6.56689
 31
0.0
  0
LINE
  8
0
 62
     0
 10
2.02251
 20
6.56689
 30
0.0
 11
2.06082
 21
6.3215
 31
0.0
  0
LINE
  8
0
 62
     0
 10
2.06082
 20
6.3215
 30
0.0
 11
2.0976
 21
6.11051
 31
0.0
  0
LINE
  8
0
 62
     0
 10
2.0976
 20
6.11051
 30
0.0
 11
2.13286
 21
5.93392
 31
0.0
  0
LINE
  8
0
 62
     0
 10
2.13286
 20
5.93392
 30
0.0
 11
2.16667
 21
5.79167
 31
0.0
  0
LINE
  8
0
 62
     0
 10
2.16667
 20
5.79167
 30
0.0
 11
2.26129
 21
5.55817
 31
0.0
  0
LINE
  8
0
 62
     0
 10
2.26129
 20
5.55817
 30
0.0
 11
2.40625
 21
5.37153
 31
0.0
  0
LINE
  8
0
 62
     0
 10
2.40625
 20
5.37153
 30
0.0
 11
2.60157
 21
5.23178
 31
0.0
  0
LINE
  8
0
 62
     0
 10
2.60157
 20
5.23178
 30
0.0
 11
2.84722
 21
5.13889
 31
0.0
  0
LINE
  8
0
 62
     0
 10
2.84722
 20
5.13889
 30
0.0
 11
3.09717
 21
5.0981
 31
0.0
  0
LINE
  8
0
 62
     0
 10
3.09717
 20
5.0981
 30
0.0
 11
3.36106
 21
5.10069
 31
0.0
  0
LINE
  8
0
 62
     0
 10
3.36106
 20
5.10069
 30
0.0
 11
3.63883
 21
5.14671
 31
0.0
  0
LINE
  8
0
 62
     0
 10
3.63883
 20
5.14671
 30
0.0
 11
3.93056
 21
5.23611
 31
0.0
  0
LINE
  8
0
 62
     0
 10
3.93056
 20
5.23611
 30
0.0
 11
4.25261
 21
5.28819
 31
0.0
  0
LINE
  8
0
 62
     0
 10
4.25261
 20
5.28819
 30
0.0
 11
4.55208
 21
5.375
 31
0.0
  0
LINE
  8
0
 62
     0
 10
4.55208
 20
5.375
 30
0.0
 11
4.829
 21
5.49653
 31
0.0
  0
LINE
  8
0
 62
     0
 10
4.829
 20
5.49653
 30
0.0
 11
5.08333
 21
5.65278
 31
0.0
  0
LINE
  8
0
 62
     0
 10
5.08333
 20
5.65278
 30
0.0
 11
5.32118
 21
5.85943
 31
0.0
  0
LINE
  8
0
 62
     0
 10
5.32118
 20
5.85943
 30
0.0
 11
5.47917
 21
6.07644
 31
0.0
  0
LINE
  8
0
 62
     0
 10
5.47917
 20
6.07644
 30
0.0
 11
5.55729
 21
6.30388
 31
0.0
  0
LINE
  8
0
 62
     0
 10
5.55729
 20
6.30388
 30
0.0
 11
5.55556
 21
6.54167
 31
0.0
  0
LINE
  8
0
 62
     0
 10
5.55556
 20
6.54167
 30
0.0
 11
5.55208
 21
6.56256
 31
0.0
  0
LINE
  8
0
 62
     0
 10
5.55208
 20
6.56256
 30
0.0
 11
5.54167
 21
6.59722
 31
0.0
  0
LINE
  8
0
 62
     0
 10
5.54167
 20
6.59722
 30
0.0
 11
5.54508
 21
6.61464
 31
0.0
  0
LINE
  8
0
 62
     0
 10
5.54508
 20
6.61464
 30
0.0
 11
5.55556
 21
6.63889
 31
0.0
  0
LINE
  8
0
 62
     0
 10
5.55556
 20
6.63889
 30
0.0
 11
5.56944
 21
6.66667
 31
0.0
  0
LINE
  8
0
 62
     0
 10
5.56944
 20
6.66667
 30
0.0
 11
5.63108
 21
7.16493
 31
0.0
  0
LINE
  8
0
 62
     0
 10
5.63108
 20
7.16493
 30
0.0
 11
5.71181
 21
7.72222
 31
0.0
  0
LINE
  8
0
 62
     0
 10
5.71181
 20
7.72222
 30
0.0
 11
5.81164
 21
8.33854
 31
0.0
  0
LINE
  8
0
 62
     0
 10
5.81164
 20
8.33854
 30
0.0
 11
5.93056
 21
9.01389
 31
0.0
  0
LINE
  8
0
 62
     0
 10
5.93056
 20
9.01389
 30
0.0
 11
6.06858
 21
9.74826
 31
0.0
  0
LINE
  8
0
 62
     0
 10
6.06858
 20
9.74826
 30
0.0
 11
6.22569
 21
10.5417
 31
0.0
  0
LINE
  8
0
 62
     0
 10
6.22569
 20
10.5417
 30
0.0
 11
6.40192
 21
11.3941
 31
0.0
  0
LINE
  8
0
 62
     0
 10
6.40192
 20
11.3941
 30
0.0
 11
6.59722
 21
12.3056
 31
0.0
  0
LINE
  8
0
 62
     0
 10
6.59722
 20
12.3056
 30
0.0
 11
6.78618
 21
13.2046
 31
0.0
  0
LINE
  8
0
 62
     0
 10
6.78618
 20
13.2046
 30
0.0
 11
6.95742
 21
14.0478
 31
0.0
  0
LINE
  8
0
 62
     0
 10
6.95742
 20
14.0478
 30
0.0
 11
7.11083
 21
14.8349
 31
0.0
  0
LINE
  8
0
 62
     0
 10
7.11083
 20
14.8349
 30
0.0
 11
7.24647
 21
15.566
 31
0.0
  0
LINE
  8
0
 62
     0
 10
7.24647
 20
15.566
 30
0.0
 11
7.36431
 21
16.2411
 31
0.0
  0
LINE
  8
0
 62
     0
 10
7.36431
 20
16.2411
 30
0.0
 11
7.46436
 21
16.8603
 31
0.0
  0
LINE
  8
0
 62
     0
 10
7.46436
 20
16.8603
 30
0.0
 11
7.5466
 21
17.4233
 31
0.0
  0
LINE
  8
0
 62
     0
 10
7.5466
 20
17.4233
 30
0.0
 11
7.61111
 21
17.9306
 31
0.0
  0
LINE
  8
0
 62
     0
 10
7.61111
 20
17.9306
 30
0.0
 11
7.62543
 21
18.3375
 31
0.0
  0
LINE
  8
0
 62
     0
 10
7.62543
 20
18.3375
 30
0.0
 11
7.57813
 21
18.6971
 31
0.0
  0
LINE
  8
0
 62
     0
 10
7.57813
 20
18.6971
 30
0.0
 11
7.46918
 21
19.0094
 31
0.0
  0
LINE
  8
0
 62
     0
 10
7.46918
 20
19.0094
 30
0.0
 11
7.29861
 21
19.2743
 31
0.0
  0
LINE
  8
0
 62
     0
 10
7.29861
 20
19.2743
 30
0.0
 11
7.0664
 21
19.4921
 31
0.0
  0
LINE
  8
0
 62
     0
 10
7.0664
 20
19.4921
 30
0.0
 11
6.77257
 21
19.6624
 31
0.0
  0
LINE
  8
0
 62
     0
 10
6.77257
 20
19.6624
 30
0.0
 11
6.4171
 21
19.7854
 31
0.0
  0
LINE
  8
0
 62
     0
 10
6.4171
 20
19.7854
 30
0.0
 11
6
 21
19.8611
 31
0.0
  0
LINE
  8
0
 62
     0
 10
3.05556
 20
2.51389
 30
0.0
 11
2.84283
 21
2.35161
 31
0.0
  0
LINE
  8
0
 62
     0
 10
2.84283
 20
2.35161
 30
0.0
 11
2.70481
 21
2.18403
 31
0.0
  0
LINE
  8
0
 62
     0
 10
2.70481
 20
2.18403
 30
0.0
 11
2.64144
 21
2.01129
 31
0.0
  0
LINE
  8
0
 62
     0
 10
2.64144
 20
2.01129
 30
0.0
 11
2.65278
 21
1.83333
 31
0.0
  0
LINE
  8
0
 62
     0
 10
2.65278
 20
1.83333
 30
0.0
 11
2.70133
 21
1.54519
 31
0.0
  0
LINE
  8
0
 62
     0
 10
2.70133
 20
1.54519
 30
0.0
 11
2.73606
 21
1.20839
 31
0.0
  0
LINE
  8
0
 62
     0
 10
2.73606
 20
1.20839
 30
0.0
 11
2.75689
 21
0.822971
 31
0.0
  0
LINE
  8
0
 62
     0
 10
2.75689
 20
0.822971
 30
0.0
 11
2.76389
 21
0.388889
 31
0.0
  0
LINE
  8
0
 62
     0
 10
2.76389
 20
0.388889
 30
0.0
 11
2.79775
 21
0.267361
 31
0.0
  0
LINE
  8
0
 62
     0
 10
2.79775
 20
0.267361
 30
0.0
 11
2.89931
 21
0.166667
 31
0.0
  0
LINE
  8
0
 62
     0
 10
2.89931
 20
0.166667
 30
0.0
 11
3.06858
 21
0.0868599
 31
0.0
  0
LINE
  8
0
 62
     0
 10
3.06858
 20
0.0868599
 30
0.0
 11
3.30556
 21
0.0277778
 31
0.0
  0
LINE
  8
0
 62
     0
 10
3.30556
 20
0.0277778
 30
0.0
 11
3.54167
 21
0.00092231
 31
0.0
  0
LINE
  8
0
 62
     0
 10
3.54167
 20
0.00092231
 30
0.0
 11
3.79167
 21
0.00352647
 31
0.0
  0
LINE
  8
0
 62
     0
 10
3.79167
 20
0.00352647
 30
0.0
 11
4.05556
 21
0.0356446
 31
0.0
  0
LINE
  8
0
 62
     0
 10
4.05556
 20
0.0356446
 30
0.0
 11
4.33333
 21
0.0972222
 31
0.0
  0
LINE
  8
0
 62
     0
 10
4.33333
 20
0.0972222
 30
0.0
 11
4.61979
 21
0.186415
 31
0.0
  0
LINE
  8
0
 62
     0
 10
4.61979
 20
0.186415
 30
0.0
 11
4.86806
 21
0.287326
 31
0.0
  0
LINE
  8
0
 62
     0
 10
4.86806
 20
0.287326
 30
0.0
 11
5.07813
 21
0.399957
 31
0.0
  0
LINE
  8
0
 62
     0
 10
5.07813
 20
0.399957
 30
0.0
 11
5.25
 21
0.524306
 31
0.0
  0
LINE
  8
0
 62
     0
 10
5.25
 20
0.524306
 30
0.0
 11
5.38368
 21
0.660374
 31
0.0
  0
LINE
  8
0
 62
     0
 10
5.38368
 20
0.660374
 30
0.0
 11
5.47917
 21
0.80816
 31
0.0
  0
LINE
  8
0
 62
     0
 10
5.47917
 20
0.80816
 30
0.0
 11
5.53646
 21
0.967665
 31
0.0
  0
LINE
  8
0
 62
     0
 10
5.53646
 20
0.967665
 30
0.0
 11
5.55556
 21
1.13889
 31
0.0
  0
LINE
  8
0
 62
     0
 10
5.55556
 20
1.13889
 30
0.0
 11
5.54775
 21
1.56685
 31
0.0
  0
LINE
  8
0
 62
     0
 10
5.54775
 20
1.56685
 30
0.0
 11
5.52431
 21
1.94792
 31
0.0
  0
LINE
  8
0
 62
     0
 10
5.52431
 20
1.94792
 30
0.0
 11
5.48525
 21
2.28217
 31
0.0
  0
LINE
  8
0
 62
     0
 10
5.48525
 20
2.28217
 30
0.0
 11
5.43056
 21
2.56944
 31
0.0
  0
LINE
  8
0
 62
     0
 10
5.43056
 20
2.56944
 30
0.0
 11
5.35585
 21
2.73529
 31
0.0
  0
LINE
  8
0
 62
     0
 10
5.35585
 20
2.73529
 30
0.0
 11
5.21522
 21
2.85769
 31
0.0
  0
LINE
  8
0
 62
     0
 10
5.21522
 20
2.85769
 30
0.0
 11
5.00863
 21
2.93668
 31
0.0
  0
LINE
  8
0
 62
     0
 10
5.00863
 20
2.93668
 30
0.0
 11
4.73611
 21
2.97222
 31
0.0
  0
LINE
  8
0
 62
     0
 10
4.73611
 20
2.97222
 30
0.0
 11
4.30903
 21
2.95144
 31
0.0
  0
LINE
  8
0
 62
     0
 10
4.30903
 20
2.95144
 30
0.0
 11
3.86111
 21
2.86111
 31
0.0
  0
LINE
  8
0
 62
     0
 10
3.86111
 20
2.86111
 30
0.0
 11
3.43056
 21
2.71186
 31
0.0
  0
LINE
  8
0
 62
     0
 10
3.43056
 20
2.71186
 30
0.0
 11
3.05556
 21
2.51389
 31
0.0
  0
ENDSEC
  0
EOF
