  0
SECTION
  2
HEADER
  9
$ACADVER
  1
AC1009
  9
$EXTMIN
 10
0.0
 20
0.0
 30
0.0
  9
$EXTMAX
 10
1000.0
 20
1000.0
 30
0.0
  9
$FILLMODE
 70
 0
  9
$SPLFRAME
 70
 1
  0
ENDSEC
  0
SECTION
  2
TABLES
  0
TABLE
  2
LAYER
 70
1
  0
LAYER
  2
0
 70
     0
 62
     7
  6
CONTINUOUS
  0
ENDTAB
  0
ENDSEC
  0
SECTION
  2
ENTITIES
  0
LINE
  8
0
 62
     0
 10
1.84722
 20
0.0138889
 30
0.0
 11
2.05035
 21
0.00347222
 31
0.0
  0
LINE
  8
0
 62
     0
 10
2.05035
 20
0.00347222
 30
0.0
 11
2.27083
 21
0.0138889
 31
0.0
  0
LINE
  8
0
 62
     0
 10
2.27083
 20
0.0138889
 30
0.0
 11
2.50868
 21
0.0451389
 31
0.0
  0
LINE
  8
0
 62
     0
 10
2.50868
 20
0.0451389
 30
0.0
 11
2.76389
 21
0.0972222
 31
0.0
  0
LINE
  8
0
 62
     0
 10
2.76389
 20
0.0972222
 30
0.0
 11
3.01557
 21
0.172797
 31
0.0
  0
LINE
  8
0
 62
     0
 10
3.01557
 20
0.172797
 30
0.0
 11
3.243
 21
0.260471
 31
0.0
  0
LINE
  8
0
 62
     0
 10
3.243
 20
0.260471
 30
0.0
 11
3.44613
 21
0.360297
 31
0.0
  0
LINE
  8
0
 62
     0
 10
3.44613
 20
0.360297
 30
0.0
 11
3.625
 21
0.472222
 31
0.0
  0
LINE
  8
0
 62
     0
 10
3.625
 20
0.472222
 30
0.0
 11
3.7856
 21
0.605089
 31
0.0
  0
LINE
  8
0
 62
     0
 10
3.7856
 20
0.605089
 30
0.0
 11
3.89236
 21
0.739637
 31
0.0
  0
LINE
  8
0
 62
     0
 10
3.89236
 20
0.739637
 30
0.0
 11
3.94532
 21
0.875922
 31
0.0
  0
LINE
  8
0
 62
     0
 10
3.94532
 20
0.875922
 30
0.0
 11
3.94444
 21
1.01389
 31
0.0
  0
LINE
  8
0
 62
     0
 10
3.94444
 20
1.01389
 30
0.0
 11
3.80072
 21
1.73204
 31
0.0
  0
LINE
  8
0
 62
     0
 10
3.80072
 20
1.73204
 30
0.0
 11
3.66835
 21
2.54606
 31
0.0
  0
LINE
  8
0
 62
     0
 10
3.66835
 20
2.54606
 30
0.0
 11
3.54725
 21
3.456
 31
0.0
  0
LINE
  8
0
 62
     0
 10
3.54725
 20
3.456
 30
0.0
 11
3.43744
 21
4.46186
 31
0.0
  0
LINE
  8
0
 62
     0
 10
3.43744
 20
4.46186
 30
0.0
 11
3.33892
 21
5.56364
 31
0.0
  0
LINE
  8
0
 62
     0
 10
3.33892
 20
5.56364
 30
0.0
 11
3.25168
 21
6.76133
 31
0.0
  0
LINE
  8
0
 62
     0
 10
3.25168
 20
6.76133
 30
0.0
 11
3.17572
 21
8.05496
 31
0.0
  0
LINE
  8
0
 62
     0
 10
3.17572
 20
8.05496
 30
0.0
 11
3.11111
 21
9.44444
 31
0.0
  0
LINE
  8
0
 62
     0
 10
3.11111
 20
9.44444
 30
0.0
 11
6.69444
 21
9.44444
 31
0.0
  0
LINE
  8
0
 62
     0
 10
6.69444
 20
9.44444
 30
0.0
 11
6.92275
 21
9.46354
 31
0.0
  0
LINE
  8
0
 62
     0
 10
6.92275
 20
9.46354
 30
0.0
 11
7.14931
 21
9.52083
 31
0.0
  0
LINE
  8
0
 62
     0
 10
7.14931
 20
9.52083
 30
0.0
 11
7.37414
 21
9.61632
 31
0.0
  0
LINE
  8
0
 62
     0
 10
7.37414
 20
9.61632
 30
0.0
 11
7.59722
 21
9.75
 31
0.0
  0
LINE
  8
0
 62
     0
 10
7.59722
 20
9.75
 30
0.0
 11
7.80643
 21
9.91754
 31
0.0
  0
LINE
  8
0
 62
     0
 10
7.80643
 20
9.91754
 30
0.0
 11
7.96181
 21
10.1007
 31
0.0
  0
LINE
  8
0
 62
     0
 10
7.96181
 20
10.1007
 30
0.0
 11
8.06337
 21
10.2995
 31
0.0
  0
LINE
  8
0
 62
     0
 10
8.06337
 20
10.2995
 30
0.0
 11
8.11111
 21
10.5139
 31
0.0
  0
LINE
  8
0
 62
     0
 10
8.11111
 20
10.5139
 30
0.0
 11
8.10851
 21
10.7353
 31
0.0
  0
LINE
  8
0
 62
     0
 10
8.10851
 20
10.7353
 30
0.0
 11
8.04514
 21
10.9271
 31
0.0
  0
LINE
  8
0
 62
     0
 10
8.04514
 20
10.9271
 30
0.0
 11
7.92101
 21
11.0895
 31
0.0
  0
LINE
  8
0
 62
     0
 10
7.92101
 20
11.0895
 30
0.0
 11
7.73611
 21
11.2222
 31
0.0
  0
LINE
  8
0
 62
     0
 10
7.73611
 20
11.2222
 30
0.0
 11
7.55903
 21
11.3073
 31
0.0
  0
LINE
  8
0
 62
     0
 10
7.55903
 20
11.3073
 30
0.0
 11
7.36111
 21
11.3681
 31
0.0
  0
LINE
  8
0
 62
     0
 10
7.36111
 20
11.3681
 30
0.0
 11
7.14236
 21
11.4045
 31
0.0
  0
LINE
  8
0
 62
     0
 10
7.14236
 20
11.4045
 30
0.0
 11
6.90278
 21
11.4167
 31
0.0
  0
LINE
  8
0
 62
     0
 10
6.90278
 20
11.4167
 30
0.0
 11
3.01389
 21
11.4167
 31
0.0
  0
LINE
  8
0
 62
     0
 10
3.01389
 20
11.4167
 30
0.0
 11
2.98958
 21
11.7622
 31
0.0
  0
LINE
  8
0
 62
     0
 10
2.98958
 20
11.7622
 30
0.0
 11
2.95833
 21
12.1737
 31
0.0
  0
LINE
  8
0
 62
     0
 10
2.95833
 20
12.1737
 30
0.0
 11
2.92014
 21
12.6511
 31
0.0
  0
LINE
  8
0
 62
     0
 10
2.92014
 20
12.6511
 30
0.0
 11
2.875
 21
13.1944
 31
0.0
  0
LINE
  8
0
 62
     0
 10
2.875
 20
13.1944
 30
0.0
 11
2.8246
 21
13.7639
 31
0.0
  0
LINE
  8
0
 62
     0
 10
2.8246
 20
13.7639
 30
0.0
 11
2.78467
 21
14.25
 31
0.0
  0
LINE
  8
0
 62
     0
 10
2.78467
 20
14.25
 30
0.0
 11
2.75515
 21
14.6528
 31
0.0
  0
LINE
  8
0
 62
     0
 10
2.75515
 20
14.6528
 30
0.0
 11
2.73611
 21
14.9722
 31
0.0
  0
LINE
  8
0
 62
     0
 10
2.73611
 20
14.9722
 30
0.0
 11
2.72131
 21
15.4837
 31
0.0
  0
LINE
  8
0
 62
     0
 10
2.72131
 20
15.4837
 30
0.0
 11
2.74647
 21
15.9558
 31
0.0
  0
LINE
  8
0
 62
     0
 10
2.74647
 20
15.9558
 30
0.0
 11
2.81158
 21
16.3883
 31
0.0
  0
LINE
  8
0
 62
     0
 10
2.81158
 20
16.3883
 30
0.0
 11
2.91661
 21
16.7813
 31
0.0
  0
LINE
  8
0
 62
     0
 10
2.91661
 20
16.7813
 30
0.0
 11
3.06158
 21
17.1349
 31
0.0
  0
LINE
  8
0
 62
     0
 10
3.06158
 20
17.1349
 30
0.0
 11
3.24647
 21
17.4489
 31
0.0
  0
LINE
  8
0
 62
     0
 10
3.24647
 20
17.4489
 30
0.0
 11
3.47131
 21
17.7233
 31
0.0
  0
LINE
  8
0
 62
     0
 10
3.47131
 20
17.7233
 30
0.0
 11
3.73611
 21
17.9583
 31
0.0
  0
LINE
  8
0
 62
     0
 10
3.73611
 20
17.9583
 30
0.0
 11
4.01167
 21
18.1381
 31
0.0
  0
LINE
  8
0
 62
     0
 10
4.01167
 20
18.1381
 30
0.0
 11
4.3246
 21
18.2882
 31
0.0
  0
LINE
  8
0
 62
     0
 10
4.3246
 20
18.2882
 30
0.0
 11
4.67486
 21
18.4089
 31
0.0
  0
LINE
  8
0
 62
     0
 10
4.67486
 20
18.4089
 30
0.0
 11
5.06244
 21
18.5
 31
0.0
  0
LINE
  8
0
 62
     0
 10
5.06244
 20
18.5
 30
0.0
 11
5.48736
 21
18.5617
 31
0.0
  0
LINE
  8
0
 62
     0
 10
5.48736
 20
18.5617
 30
0.0
 11
5.9496
 21
18.5938
 31
0.0
  0
LINE
  8
0
 62
     0
 10
5.9496
 20
18.5938
 30
0.0
 11
6.44917
 21
18.5964
 31
0.0
  0
LINE
  8
0
 62
     0
 10
6.44917
 20
18.5964
 30
0.0
 11
6.98611
 21
18.5694
 31
0.0
  0
LINE
  8
0
 62
     0
 10
6.98611
 20
18.5694
 30
0.0
 11
7.13846
 21
18.569
 31
0.0
  0
LINE
  8
0
 62
     0
 10
7.13846
 20
18.569
 30
0.0
 11
7.30382
 21
18.5886
 31
0.0
  0
LINE
  8
0
 62
     0
 10
7.30382
 20
18.5886
 30
0.0
 11
7.48221
 21
18.6281
 31
0.0
  0
LINE
  8
0
 62
     0
 10
7.48221
 20
18.6281
 30
0.0
 11
7.67361
 21
18.6875
 31
0.0
  0
LINE
  8
0
 62
     0
 10
7.67361
 20
18.6875
 30
0.0
 11
7.87804
 21
18.7669
 31
0.0
  0
LINE
  8
0
 62
     0
 10
7.87804
 20
18.7669
 30
0.0
 11
8.09549
 21
18.8664
 31
0.0
  0
LINE
  8
0
 62
     0
 10
8.09549
 20
18.8664
 30
0.0
 11
8.32596
 21
18.9857
 31
0.0
  0
LINE
  8
0
 62
     0
 10
8.32596
 20
18.9857
 30
0.0
 11
8.56944
 21
19.125
 31
0.0
  0
LINE
  8
0
 62
     0
 10
8.56944
 20
19.125
 30
0.0
 11
8.76042
 21
19.2457
 31
0.0
  0
LINE
  8
0
 62
     0
 10
8.76042
 20
19.2457
 30
0.0
 11
8.90278
 21
19.3576
 31
0.0
  0
LINE
  8
0
 62
     0
 10
8.90278
 20
19.3576
 30
0.0
 11
8.99653
 21
19.461
 31
0.0
  0
LINE
  8
0
 62
     0
 10
8.99653
 20
19.461
 30
0.0
 11
9.04167
 21
19.5556
 31
0.0
  0
LINE
  8
0
 62
     0
 10
9.04167
 20
19.5556
 30
0.0
 11
9.04161
 21
19.6485
 31
0.0
  0
LINE
  8
0
 62
     0
 10
9.04161
 20
19.6485
 30
0.0
 11
8.97217
 21
19.7188
 31
0.0
  0
LINE
  8
0
 62
     0
 10
8.97217
 20
19.7188
 30
0.0
 11
8.83328
 21
19.7665
 31
0.0
  0
LINE
  8
0
 62
     0
 10
8.83328
 20
19.7665
 30
0.0
 11
8.625
 21
19.7917
 31
0.0
  0
LINE
  8
0
 62
     0
 10
8.625
 20
19.7917
 30
0.0
 11
7.84028
 21
19.8463
 31
0.0
  0
LINE
  8
0
 62
     0
 10
7.84028
 20
19.8463
 30
0.0
 11
7.11111
 21
19.8846
 31
0.0
  0
LINE
  8
0
 62
     0
 10
7.11111
 20
19.8846
 30
0.0
 11
6.4375
 21
19.9069
 31
0.0
  0
LINE
  8
0
 62
     0
 10
6.4375
 20
19.9069
 30
0.0
 11
5.81944
 21
19.9132
 31
0.0
  0
LINE
  8
0
 62
     0
 10
5.81944
 20
19.9132
 30
0.0
 11
5.25694
 21
19.9035
 31
0.0
  0
LINE
  8
0
 62
     0
 10
5.25694
 20
19.9035
 30
0.0
 11
4.75
 21
19.8776
 31
0.0
  0
LINE
  8
0
 62
     0
 10
4.75
 20
19.8776
 30
0.0
 11
4.29861
 21
19.8358
 31
0.0
  0
LINE
  8
0
 62
     0
 10
4.29861
 20
19.8358
 30
0.0
 11
3.90278
 21
19.7778
 31
0.0
  0
LINE
  8
0
 62
     0
 10
3.90278
 20
19.7778
 30
0.0
 11
3.27035
 21
19.6269
 31
0.0
  0
LINE
  8
0
 62
     0
 10
3.27035
 20
19.6269
 30
0.0
 11
2.69265
 21
19.4244
 31
0.0
  0
LINE
  8
0
 62
     0
 10
2.69265
 20
19.4244
 30
0.0
 11
2.16965
 21
19.1704
 31
0.0
  0
LINE
  8
0
 62
     0
 10
2.16965
 20
19.1704
 30
0.0
 11
1.70139
 21
18.8646
 31
0.0
  0
LINE
  8
0
 62
     0
 10
1.70139
 20
18.8646
 30
0.0
 11
1.28776
 21
18.5072
 31
0.0
  0
LINE
  8
0
 62
     0
 10
1.28776
 20
18.5072
 30
0.0
 11
0.928819
 21
18.0981
 31
0.0
  0
LINE
  8
0
 62
     0
 10
0.928819
 20
18.0981
 30
0.0
 11
0.624567
 21
17.6374
 31
0.0
  0
LINE
  8
0
 62
     0
 10
0.624567
 20
17.6374
 30
0.0
 11
0.375
 21
17.125
 31
0.0
  0
LINE
  8
0
 62
     0
 10
0.375
 20
17.125
 30
0.0
 11
0.263672
 21
16.8194
 31
0.0
  0
LINE
  8
0
 62
     0
 10
0.263672
 20
16.8194
 30
0.0
 11
0.172743
 21
16.4861
 31
0.0
  0
LINE
  8
0
 62
     0
 10
0.172743
 20
16.4861
 30
0.0
 11
0.102214
 21
16.125
 31
0.0
  0
LINE
  8
0
 62
     0
 10
0.102214
 20
16.125
 30
0.0
 11
0.0520833
 21
15.7361
 31
0.0
  0
LINE
  8
0
 62
     0
 10
0.0520833
 20
15.7361
 30
0.0
 11
0.0223525
 21
15.3194
 31
0.0
  0
LINE
  8
0
 62
     0
 10
0.0223525
 20
15.3194
 30
0.0
 11
0.0130208
 21
14.875
 31
0.0
  0
LINE
  8
0
 62
     0
 10
0.0130208
 20
14.875
 30
0.0
 11
0.0240886
 21
14.4028
 31
0.0
  0
LINE
  8
0
 62
     0
 10
0.0240886
 20
14.4028
 30
0.0
 11
0.0555556
 21
13.9028
 31
0.0
  0
LINE
  8
0
 62
     0
 10
0.0555556
 20
13.9028
 30
0.0
 11
0.082411
 21
13.5721
 31
0.0
  0
LINE
  8
0
 62
     0
 10
0.082411
 20
13.5721
 30
0.0
 11
0.121473
 21
13.1771
 31
0.0
  0
LINE
  8
0
 62
     0
 10
0.121473
 20
13.1771
 30
0.0
 11
0.172689
 21
12.7179
 31
0.0
  0
LINE
  8
0
 62
     0
 10
0.172689
 20
12.7179
 30
0.0
 11
0.236111
 21
12.1944
 31
0.0
  0
LINE
  8
0
 62
     0
 10
0.236111
 20
12.1944
 30
0.0
 11
0.304633
 21
11.6858
 31
0.0
  0
LINE
  8
0
 62
     0
 10
0.304633
 20
11.6858
 30
0.0
 11
0.357639
 21
11.2569
 31
0.0
  0
LINE
  8
0
 62
     0
 10
0.357639
 20
11.2569
 30
0.0
 11
0.394965
 21
10.908
 31
0.0
  0
LINE
  8
0
 62
     0
 10
0.394965
 20
10.908
 30
0.0
 11
0.416667
 21
10.6389
 31
0.0
  0
LINE
  8
0
 62
     0
 10
0.416667
 20
10.6389
 30
0.0
 11
0.504937
 21
9.49832
 31
0.0
  0
LINE
  8
0
 62
     0
 10
0.504937
 20
9.49832
 30
0.0
 11
0.589193
 21
8.42383
 31
0.0
  0
LINE
  8
0
 62
     0
 10
0.589193
 20
8.42383
 30
0.0
 11
0.669433
 21
7.41542
 31
0.0
  0
LINE
  8
0
 62
     0
 10
0.669433
 20
7.41542
 30
0.0
 11
0.74566
 21
6.4731
 31
0.0
  0
LINE
  8
0
 62
     0
 10
0.74566
 20
6.4731
 30
0.0
 11
0.817871
 21
5.59685
 31
0.0
  0
LINE
  8
0
 62
     0
 10
0.817871
 20
5.59685
 30
0.0
 11
0.886068
 21
4.78668
 31
0.0
  0
LINE
  8
0
 62
     0
 10
0.886068
 20
4.78668
 30
0.0
 11
0.95025
 21
4.04258
 31
0.0
  0
LINE
  8
0
 62
     0
 10
0.95025
 20
4.04258
 30
0.0
 11
1.01042
 21
3.36458
 31
0.0
  0
LINE
  8
0
 62
     0
 10
1.01042
 20
3.36458
 30
0.0
 11
1.06657
 21
2.75271
 31
0.0
  0
LINE
  8
0
 62
     0
 10
1.06657
 20
2.75271
 30
0.0
 11
1.11871
 21
2.20688
 31
0.0
  0
LINE
  8
0
 62
     0
 10
1.11871
 20
2.20688
 30
0.0
 11
1.16683
 21
1.72711
 31
0.0
  0
LINE
  8
0
 62
     0
 10
1.16683
 20
1.72711
 30
0.0
 11
1.21094
 21
1.31342
 31
0.0
  0
LINE
  8
0
 62
     0
 10
1.21094
 20
1.31342
 30
0.0
 11
1.25103
 21
0.965821
 31
0.0
  0
LINE
  8
0
 62
     0
 10
1.25103
 20
0.965821
 30
0.0
 11
1.28711
 21
0.684299
 31
0.0
  0
LINE
  8
0
 62
     0
 10
1.28711
 20
0.684299
 30
0.0
 11
1.31917
 21
0.468858
 31
0.0
  0
LINE
  8
0
 62
     0
 10
1.31917
 20
0.468858
 30
0.0
 11
1.34722
 21
0.319444
 31
0.0
  0
LINE
  8
0
 62
     0
 10
1.34722
 20
0.319444
 30
0.0
 11
1.39931
 21
0.201389
 31
0.0
  0
LINE
  8
0
 62
     0
 10
1.39931
 20
0.201389
 30
0.0
 11
1.5
 21
0.111111
 31
0.0
  0
LINE
  8
0
 62
     0
 10
1.5
 20
0.111111
 30
0.0
 11
1.64931
 21
0.0486111
 31
0.0
  0
LINE
  8
0
 62
     0
 10
1.64931
 20
0.0486111
 30
0.0
 11
1.84722
 21
0.0138889
 31
0.0
  0
ENDSEC
  0
EOF
