  0
SECTION
  2
HEADER
  9
$ACADVER
  1
AC1009
  9
$EXTMIN
 10
0.0
 20
0.0
 30
0.0
  9
$EXTMAX
 10
1000.0
 20
1000.0
 30
0.0
  9
$FILLMODE
 70
 0
  9
$SPLFRAME
 70
 1
  0
ENDSEC
  0
SECTION
  2
TABLES
  0
TABLE
  2
LAYER
 70
1
  0
LAYER
  2
0
 70
     0
 62
     7
  6
CONTINUOUS
  0
ENDTAB
  0
ENDSEC
  0
SECTION
  2
ENTITIES
  0
LINE
  8
0
 62
     0
 10
9.01389
 20
10.625
 30
0.0
 11
8.83826
 21
10.5935
 31
0.0
  0
LINE
  8
0
 62
     0
 10
8.83826
 20
10.5935
 30
0.0
 11
8.64492
 21
10.5477
 31
0.0
  0
LINE
  8
0
 62
     0
 10
8.64492
 20
10.5477
 30
0.0
 11
8.43375
 21
10.4876
 31
0.0
  0
LINE
  8
0
 62
     0
 10
8.43375
 20
10.4876
 30
0.0
 11
8.20481
 21
10.4132
 31
0.0
  0
LINE
  8
0
 62
     0
 10
8.20481
 20
10.4132
 30
0.0
 11
7.95806
 21
10.3245
 31
0.0
  0
LINE
  8
0
 62
     0
 10
7.95806
 20
10.3245
 30
0.0
 11
7.69353
 21
10.2214
 31
0.0
  0
LINE
  8
0
 62
     0
 10
7.69353
 20
10.2214
 30
0.0
 11
7.41118
 21
10.104
 31
0.0
  0
LINE
  8
0
 62
     0
 10
7.41118
 20
10.104
 30
0.0
 11
7.11111
 21
9.97222
 31
0.0
  0
LINE
  8
0
 62
     0
 10
7.11111
 20
9.97222
 30
0.0
 11
6.79058
 21
9.83356
 31
0.0
  0
LINE
  8
0
 62
     0
 10
6.79058
 20
9.83356
 30
0.0
 11
6.49567
 21
9.70921
 31
0.0
  0
LINE
  8
0
 62
     0
 10
6.49567
 20
9.70921
 30
0.0
 11
6.22635
 21
9.59918
 31
0.0
  0
LINE
  8
0
 62
     0
 10
6.22635
 20
9.59918
 30
0.0
 11
5.98264
 21
9.50347
 31
0.0
  0
LINE
  8
0
 62
     0
 10
5.98264
 20
9.50347
 30
0.0
 11
5.76454
 21
9.4221
 31
0.0
  0
LINE
  8
0
 62
     0
 10
5.76454
 20
9.4221
 30
0.0
 11
5.57206
 21
9.35504
 31
0.0
  0
LINE
  8
0
 62
     0
 10
5.57206
 20
9.35504
 30
0.0
 11
5.40517
 21
9.30231
 31
0.0
  0
LINE
  8
0
 62
     0
 10
5.40517
 20
9.30231
 30
0.0
 11
5.26389
 21
9.26389
 31
0.0
  0
LINE
  8
0
 62
     0
 10
5.26389
 20
9.26389
 30
0.0
 11
5.02968
 21
9.2194
 31
0.0
  0
LINE
  8
0
 62
     0
 10
5.02968
 20
9.2194
 30
0.0
 11
4.80637
 21
9.19706
 31
0.0
  0
LINE
  8
0
 62
     0
 10
4.80637
 20
9.19706
 30
0.0
 11
4.59392
 21
9.19683
 31
0.0
  0
LINE
  8
0
 62
     0
 10
4.59392
 20
9.19683
 30
0.0
 11
4.39231
 21
9.21875
 31
0.0
  0
LINE
  8
0
 62
     0
 10
4.39231
 20
9.21875
 30
0.0
 11
4.20156
 21
9.26286
 31
0.0
  0
LINE
  8
0
 62
     0
 10
4.20156
 20
9.26286
 30
0.0
 11
4.02165
 21
9.32904
 31
0.0
  0
LINE
  8
0
 62
     0
 10
4.02165
 20
9.32904
 30
0.0
 11
3.8526
 21
9.41738
 31
0.0
  0
LINE
  8
0
 62
     0
 10
3.8526
 20
9.41738
 30
0.0
 11
3.69444
 21
9.52778
 31
0.0
  0
LINE
  8
0
 62
     0
 10
3.69444
 20
9.52778
 30
0.0
 11
3.49826
 21
9.72331
 31
0.0
  0
LINE
  8
0
 62
     0
 10
3.49826
 20
9.72331
 30
0.0
 11
3.32639
 21
9.98351
 31
0.0
  0
LINE
  8
0
 62
     0
 10
3.32639
 20
9.98351
 30
0.0
 11
3.17882
 21
10.3084
 31
0.0
  0
LINE
  8
0
 62
     0
 10
3.17882
 20
10.3084
 30
0.0
 11
3.05556
 21
10.6979
 31
0.0
  0
LINE
  8
0
 62
     0
 10
3.05556
 20
10.6979
 30
0.0
 11
2.9566
 21
11.1521
 31
0.0
  0
LINE
  8
0
 62
     0
 10
2.9566
 20
11.1521
 30
0.0
 11
2.88194
 21
11.671
 31
0.0
  0
LINE
  8
0
 62
     0
 10
2.88194
 20
11.671
 30
0.0
 11
2.8316
 21
12.2546
 31
0.0
  0
LINE
  8
0
 62
     0
 10
2.8316
 20
12.2546
 30
0.0
 11
2.80556
 21
12.9028
 31
0.0
  0
LINE
  8
0
 62
     0
 10
2.80556
 20
12.9028
 30
0.0
 11
2.8029
 21
13.3576
 31
0.0
  0
LINE
  8
0
 62
     0
 10
2.8029
 20
13.3576
 30
0.0
 11
2.80897
 21
13.8611
 31
0.0
  0
LINE
  8
0
 62
     0
 10
2.80897
 20
13.8611
 30
0.0
 11
2.82374
 21
14.4132
 31
0.0
  0
LINE
  8
0
 62
     0
 10
2.82374
 20
14.4132
 30
0.0
 11
2.84722
 21
15.0139
 31
0.0
  0
LINE
  8
0
 62
     0
 10
2.84722
 20
15.0139
 30
0.0
 11
2.86344
 21
15.3481
 31
0.0
  0
LINE
  8
0
 62
     0
 10
2.86344
 20
15.3481
 30
0.0
 11
2.87756
 21
15.6424
 31
0.0
  0
LINE
  8
0
 62
     0
 10
2.87756
 20
15.6424
 30
0.0
 11
2.88949
 21
15.8967
 31
0.0
  0
LINE
  8
0
 62
     0
 10
2.88949
 20
15.8967
 30
0.0
 11
2.89925
 21
16.1111
 31
0.0
  0
LINE
  8
0
 62
     0
 10
2.89925
 20
16.1111
 30
0.0
 11
2.90685
 21
16.2856
 31
0.0
  0
LINE
  8
0
 62
     0
 10
2.90685
 20
16.2856
 30
0.0
 11
2.91228
 21
16.4201
 31
0.0
  0
LINE
  8
0
 62
     0
 10
2.91228
 20
16.4201
 30
0.0
 11
2.91553
 21
16.5147
 31
0.0
  0
LINE
  8
0
 62
     0
 10
2.91553
 20
16.5147
 30
0.0
 11
2.91667
 21
16.5694
 31
0.0
  0
LINE
  8
0
 62
     0
 10
2.91667
 20
16.5694
 30
0.0
 11
2.9375
 21
16.9239
 31
0.0
  0
LINE
  8
0
 62
     0
 10
2.9375
 20
16.9239
 30
0.0
 11
2.99306
 21
17.2369
 31
0.0
  0
LINE
  8
0
 62
     0
 10
2.99306
 20
17.2369
 30
0.0
 11
3.08333
 21
17.5089
 31
0.0
  0
LINE
  8
0
 62
     0
 10
3.08333
 20
17.5089
 30
0.0
 11
3.20833
 21
17.7396
 31
0.0
  0
LINE
  8
0
 62
     0
 10
3.20833
 20
17.7396
 30
0.0
 11
3.36806
 21
17.929
 31
0.0
  0
LINE
  8
0
 62
     0
 10
3.36806
 20
17.929
 30
0.0
 11
3.5625
 21
18.0772
 31
0.0
  0
LINE
  8
0
 62
     0
 10
3.5625
 20
18.0772
 30
0.0
 11
3.79167
 21
18.1843
 31
0.0
  0
LINE
  8
0
 62
     0
 10
3.79167
 20
18.1843
 30
0.0
 11
4.05556
 21
18.25
 31
0.0
  0
LINE
  8
0
 62
     0
 10
4.05556
 20
18.25
 30
0.0
 11
4.27431
 21
18.2769
 31
0.0
  0
LINE
  8
0
 62
     0
 10
4.27431
 20
18.2769
 30
0.0
 11
4.54167
 21
18.2882
 31
0.0
  0
LINE
  8
0
 62
     0
 10
4.54167
 20
18.2882
 30
0.0
 11
4.85764
 21
18.2839
 31
0.0
  0
LINE
  8
0
 62
     0
 10
4.85764
 20
18.2839
 30
0.0
 11
5.22222
 21
18.2639
 31
0.0
  0
LINE
  8
0
 62
     0
 10
5.22222
 20
18.2639
 30
0.0
 11
5.48047
 21
18.2443
 31
0.0
  0
LINE
  8
0
 62
     0
 10
5.48047
 20
18.2443
 30
0.0
 11
5.71354
 21
18.2275
 31
0.0
  0
LINE
  8
0
 62
     0
 10
5.71354
 20
18.2275
 30
0.0
 11
5.92144
 21
18.2131
 31
0.0
  0
LINE
  8
0
 62
     0
 10
5.92144
 20
18.2131
 30
0.0
 11
6.10417
 21
18.2014
 31
0.0
  0
LINE
  8
0
 62
     0
 10
6.10417
 20
18.2014
 30
0.0
 11
6.26172
 21
18.1922
 31
0.0
  0
LINE
  8
0
 62
     0
 10
6.26172
 20
18.1922
 30
0.0
 11
6.3941
 21
18.1858
 31
0.0
  0
LINE
  8
0
 62
     0
 10
6.3941
 20
18.1858
 30
0.0
 11
6.50131
 21
18.1818
 31
0.0
  0
LINE
  8
0
 62
     0
 10
6.50131
 20
18.1818
 30
0.0
 11
6.58333
 21
18.1806
 31
0.0
  0
LINE
  8
0
 62
     0
 10
6.58333
 20
18.1806
 30
0.0
 11
6.80637
 21
18.1929
 31
0.0
  0
LINE
  8
0
 62
     0
 10
6.80637
 20
18.1929
 30
0.0
 11
7.02425
 21
18.23
 31
0.0
  0
LINE
  8
0
 62
     0
 10
7.02425
 20
18.23
 30
0.0
 11
7.23693
 21
18.2919
 31
0.0
  0
LINE
  8
0
 62
     0
 10
7.23693
 20
18.2919
 30
0.0
 11
7.44444
 21
18.3785
 31
0.0
  0
LINE
  8
0
 62
     0
 10
7.44444
 20
18.3785
 30
0.0
 11
7.64671
 21
18.4899
 31
0.0
  0
LINE
  8
0
 62
     0
 10
7.64671
 20
18.4899
 30
0.0
 11
7.84375
 21
18.6258
 31
0.0
  0
LINE
  8
0
 62
     0
 10
7.84375
 20
18.6258
 30
0.0
 11
8.0356
 21
18.7867
 31
0.0
  0
LINE
  8
0
 62
     0
 10
8.0356
 20
18.7867
 30
0.0
 11
8.22222
 21
18.9722
 31
0.0
  0
LINE
  8
0
 62
     0
 10
8.22222
 20
18.9722
 30
0.0
 11
8.34983
 21
19.1372
 31
0.0
  0
LINE
  8
0
 62
     0
 10
8.34983
 20
19.1372
 30
0.0
 11
8.42708
 21
19.2847
 31
0.0
  0
LINE
  8
0
 62
     0
 10
8.42708
 20
19.2847
 30
0.0
 11
8.454
 21
19.415
 31
0.0
  0
LINE
  8
0
 62
     0
 10
8.454
 20
19.415
 30
0.0
 11
8.43056
 21
19.5278
 31
0.0
  0
LINE
  8
0
 62
     0
 10
8.43056
 20
19.5278
 30
0.0
 11
8.33501
 21
19.6433
 31
0.0
  0
LINE
  8
0
 62
     0
 10
8.33501
 20
19.6433
 30
0.0
 11
8.17356
 21
19.7257
 31
0.0
  0
LINE
  8
0
 62
     0
 10
8.17356
 20
19.7257
 30
0.0
 11
7.94612
 21
19.7753
 31
0.0
  0
LINE
  8
0
 62
     0
 10
7.94612
 20
19.7753
 30
0.0
 11
7.65278
 21
19.7917
 31
0.0
  0
LINE
  8
0
 62
     0
 10
7.65278
 20
19.7917
 30
0.0
 11
7.57026
 21
19.7928
 31
0.0
  0
LINE
  8
0
 62
     0
 10
7.57026
 20
19.7928
 30
0.0
 11
7.45481
 21
19.7961
 31
0.0
  0
LINE
  8
0
 62
     0
 10
7.45481
 20
19.7961
 30
0.0
 11
7.30638
 21
19.8015
 31
0.0
  0
LINE
  8
0
 62
     0
 10
7.30638
 20
19.8015
 30
0.0
 11
7.12494
 21
19.809
 31
0.0
  0
LINE
  8
0
 62
     0
 10
7.12494
 20
19.809
 30
0.0
 11
6.91054
 21
19.8189
 31
0.0
  0
LINE
  8
0
 62
     0
 10
6.91054
 20
19.8189
 30
0.0
 11
6.66314
 21
19.8308
 31
0.0
  0
LINE
  8
0
 62
     0
 10
6.66314
 20
19.8308
 30
0.0
 11
6.38276
 21
19.8449
 31
0.0
  0
LINE
  8
0
 62
     0
 10
6.38276
 20
19.8449
 30
0.0
 11
6.06944
 21
19.8611
 31
0.0
  0
LINE
  8
0
 62
     0
 10
6.06944
 20
19.8611
 30
0.0
 11
5.53907
 21
19.8897
 31
0.0
  0
LINE
  8
0
 62
     0
 10
5.53907
 20
19.8897
 30
0.0
 11
5.05903
 21
19.9063
 31
0.0
  0
LINE
  8
0
 62
     0
 10
5.05903
 20
19.9063
 30
0.0
 11
4.62935
 21
19.9106
 31
0.0
  0
LINE
  8
0
 62
     0
 10
4.62935
 20
19.9106
 30
0.0
 11
4.25
 21
19.9028
 31
0.0
  0
LINE
  8
0
 62
     0
 10
4.25
 20
19.9028
 30
0.0
 11
3.71789
 21
19.8683
 31
0.0
  0
LINE
  8
0
 62
     0
 10
3.71789
 20
19.8683
 30
0.0
 11
3.22569
 21
19.8064
 31
0.0
  0
LINE
  8
0
 62
     0
 10
3.22569
 20
19.8064
 30
0.0
 11
2.77344
 21
19.7172
 31
0.0
  0
LINE
  8
0
 62
     0
 10
2.77344
 20
19.7172
 30
0.0
 11
2.36111
 21
19.6007
 31
0.0
  0
LINE
  8
0
 62
     0
 10
2.36111
 20
19.6007
 30
0.0
 11
1.98872
 21
19.4568
 31
0.0
  0
LINE
  8
0
 62
     0
 10
1.98872
 20
19.4568
 30
0.0
 11
1.65625
 21
19.2856
 31
0.0
  0
LINE
  8
0
 62
     0
 10
1.65625
 20
19.2856
 30
0.0
 11
1.36372
 21
19.0871
 31
0.0
  0
LINE
  8
0
 62
     0
 10
1.36372
 20
19.0871
 30
0.0
 11
1.11111
 21
18.8611
 31
0.0
  0
LINE
  8
0
 62
     0
 10
1.11111
 20
18.8611
 30
0.0
 11
0.856717
 21
18.5657
 31
0.0
  0
LINE
  8
0
 62
     0
 10
0.856717
 20
18.5657
 30
0.0
 11
0.635363
 21
18.2283
 31
0.0
  0
LINE
  8
0
 62
     0
 10
0.635363
 20
18.2283
 30
0.0
 11
0.446994
 21
17.8487
 31
0.0
  0
LINE
  8
0
 62
     0
 10
0.446994
 20
17.8487
 30
0.0
 11
0.291612
 21
17.4271
 31
0.0
  0
LINE
  8
0
 62
     0
 10
0.291612
 20
17.4271
 30
0.0
 11
0.169217
 21
16.9633
 31
0.0
  0
LINE
  8
0
 62
     0
 10
0.169217
 20
16.9633
 30
0.0
 11
0.0798068
 21
16.4575
 31
0.0
  0
LINE
  8
0
 62
     0
 10
0.0798068
 20
16.4575
 30
0.0
 11
0.0233832
 21
15.9094
 31
0.0
  0
LINE
  8
0
 62
     0
 10
0.0233832
 20
15.9094
 30
0.0
 11
0
 21
15.3194
 31
0.0
  0
LINE
  8
0
 62
     0
 10
0
 20
15.3194
 30
0.0
 11
0.00694444
 21
14.9003
 31
0.0
  0
LINE
  8
0
 62
     0
 10
0.00694444
 20
14.9003
 30
0.0
 11
0.0277778
 21
14.4201
 31
0.0
  0
LINE
  8
0
 62
     0
 10
0.0277778
 20
14.4201
 30
0.0
 11
0.0625
 21
13.8794
 31
0.0
  0
LINE
  8
0
 62
     0
 10
0.0625
 20
13.8794
 30
0.0
 11
0.111111
 21
13.2778
 31
0.0
  0
LINE
  8
0
 62
     0
 10
0.111111
 20
13.2778
 30
0.0
 11
0.140571
 21
12.9301
 31
0.0
  0
LINE
  8
0
 62
     0
 10
0.140571
 20
12.9301
 30
0.0
 11
0.166613
 21
12.6163
 31
0.0
  0
LINE
  8
0
 62
     0
 10
0.166613
 20
12.6163
 30
0.0
 11
0.189182
 21
12.3364
 31
0.0
  0
LINE
  8
0
 62
     0
 10
0.189182
 20
12.3364
 30
0.0
 11
0.208279
 21
12.0903
 31
0.0
  0
LINE
  8
0
 62
     0
 10
0.208279
 20
12.0903
 30
0.0
 11
0.223904
 21
11.878
 31
0.0
  0
LINE
  8
0
 62
     0
 10
0.223904
 20
11.878
 30
0.0
 11
0.236057
 21
11.6997
 31
0.0
  0
LINE
  8
0
 62
     0
 10
0.236057
 20
11.6997
 30
0.0
 11
0.244737
 21
11.5551
 31
0.0
  0
LINE
  8
0
 62
     0
 10
0.244737
 20
11.5551
 30
0.0
 11
0.25
 21
11.4444
 31
0.0
  0
LINE
  8
0
 62
     0
 10
0.25
 20
11.4444
 30
0.0
 11
0.283149
 21
10.9399
 31
0.0
  0
LINE
  8
0
 62
     0
 10
0.283149
 20
10.9399
 30
0.0
 11
0.348036
 21
10.4679
 31
0.0
  0
LINE
  8
0
 62
     0
 10
0.348036
 20
10.4679
 30
0.0
 11
0.444607
 21
10.0284
 31
0.0
  0
LINE
  8
0
 62
     0
 10
0.444607
 20
10.0284
 30
0.0
 11
0.572863
 21
9.62153
 31
0.0
  0
LINE
  8
0
 62
     0
 10
0.572863
 20
9.62153
 30
0.0
 11
0.732801
 21
9.24718
 31
0.0
  0
LINE
  8
0
 62
     0
 10
0.732801
 20
9.24718
 30
0.0
 11
0.924425
 21
8.90539
 31
0.0
  0
LINE
  8
0
 62
     0
 10
0.924425
 20
8.90539
 30
0.0
 11
1.14773
 21
8.59614
 31
0.0
  0
LINE
  8
0
 62
     0
 10
1.14773
 20
8.59614
 30
0.0
 11
1.40278
 21
8.31944
 31
0.0
  0
LINE
  8
0
 62
     0
 10
1.40278
 20
8.31944
 30
0.0
 11
1.71115
 21
8.06625
 31
0.0
  0
LINE
  8
0
 62
     0
 10
1.71115
 20
8.06625
 30
0.0
 11
2.04601
 21
7.86203
 31
0.0
  0
LINE
  8
0
 62
     0
 10
2.04601
 20
7.86203
 30
0.0
 11
2.40733
 21
7.70688
 31
0.0
  0
LINE
  8
0
 62
     0
 10
2.40733
 20
7.70688
 30
0.0
 11
2.79514
 21
7.60075
 31
0.0
  0
LINE
  8
0
 62
     0
 10
2.79514
 20
7.60075
 30
0.0
 11
3.20942
 21
7.54368
 31
0.0
  0
LINE
  8
0
 62
     0
 10
3.20942
 20
7.54368
 30
0.0
 11
3.65018
 21
7.53564
 31
0.0
  0
LINE
  8
0
 62
     0
 10
3.65018
 20
7.53564
 30
0.0
 11
4.1174
 21
7.57667
 31
0.0
  0
LINE
  8
0
 62
     0
 10
4.1174
 20
7.57667
 30
0.0
 11
4.61111
 21
7.66667
 31
0.0
  0
LINE
  8
0
 62
     0
 10
4.61111
 20
7.66667
 30
0.0
 11
4.76129
 21
7.70839
 31
0.0
  0
LINE
  8
0
 62
     0
 10
4.76129
 20
7.70839
 30
0.0
 11
4.96181
 21
7.77783
 31
0.0
  0
LINE
  8
0
 62
     0
 10
4.96181
 20
7.77783
 30
0.0
 11
5.21268
 21
7.87506
 31
0.0
  0
LINE
  8
0
 62
     0
 10
5.21268
 20
7.87506
 30
0.0
 11
5.51389
 21
8
 31
0.0
  0
LINE
  8
0
 62
     0
 10
5.51389
 20
8
 30
0.0
 11
5.73893
 21
8.09571
 31
0.0
  0
LINE
  8
0
 62
     0
 10
5.73893
 20
8.09571
 30
0.0
 11
5.94185
 21
8.18143
 31
0.0
  0
LINE
  8
0
 62
     0
 10
5.94185
 20
8.18143
 30
0.0
 11
6.12261
 21
8.25717
 31
0.0
  0
LINE
  8
0
 62
     0
 10
6.12261
 20
8.25717
 30
0.0
 11
6.28125
 21
8.32292
 31
0.0
  0
LINE
  8
0
 62
     0
 10
6.28125
 20
8.32292
 30
0.0
 11
6.41775
 21
8.37869
 31
0.0
  0
LINE
  8
0
 62
     0
 10
6.41775
 20
8.37869
 30
0.0
 11
6.53212
 21
8.42449
 31
0.0
  0
LINE
  8
0
 62
     0
 10
6.53212
 20
8.42449
 30
0.0
 11
6.62435
 21
8.46029
 31
0.0
  0
LINE
  8
0
 62
     0
 10
6.62435
 20
8.46029
 30
0.0
 11
6.69444
 21
8.48611
 31
0.0
  0
LINE
  8
0
 62
     0
 10
6.69444
 20
8.48611
 30
0.0
 11
7.06272
 21
8.6205
 31
0.0
  0
LINE
  8
0
 62
     0
 10
7.06272
 20
8.6205
 30
0.0
 11
7.39671
 21
8.72493
 31
0.0
  0
LINE
  8
0
 62
     0
 10
7.39671
 20
8.72493
 30
0.0
 11
7.6964
 21
8.79937
 31
0.0
  0
LINE
  8
0
 62
     0
 10
7.6964
 20
8.79937
 30
0.0
 11
7.96181
 21
8.84386
 31
0.0
  0
LINE
  8
0
 62
     0
 10
7.96181
 20
8.84386
 30
0.0
 11
8.19293
 21
8.8584
 31
0.0
  0
LINE
  8
0
 62
     0
 10
8.19293
 20
8.8584
 30
0.0
 11
8.38976
 21
8.84299
 31
0.0
  0
LINE
  8
0
 62
     0
 10
8.38976
 20
8.84299
 30
0.0
 11
8.55231
 21
8.79758
 31
0.0
  0
LINE
  8
0
 62
     0
 10
8.55231
 20
8.79758
 30
0.0
 11
8.68056
 21
8.72222
 31
0.0
  0
LINE
  8
0
 62
     0
 10
8.68056
 20
8.72222
 30
0.0
 11
8.83789
 21
8.57596
 31
0.0
  0
LINE
  8
0
 62
     0
 10
8.83789
 20
8.57596
 30
0.0
 11
8.97657
 21
8.40799
 31
0.0
  0
LINE
  8
0
 62
     0
 10
8.97657
 20
8.40799
 30
0.0
 11
9.09657
 21
8.21832
 31
0.0
  0
LINE
  8
0
 62
     0
 10
9.09657
 20
8.21832
 30
0.0
 11
9.19792
 21
8.00694
 31
0.0
  0
LINE
  8
0
 62
     0
 10
9.19792
 20
8.00694
 30
0.0
 11
9.2806
 21
7.77387
 31
0.0
  0
LINE
  8
0
 62
     0
 10
9.2806
 20
7.77387
 30
0.0
 11
9.34462
 21
7.5191
 31
0.0
  0
LINE
  8
0
 62
     0
 10
9.34462
 20
7.5191
 30
0.0
 11
9.38997
 21
7.24262
 31
0.0
  0
LINE
  8
0
 62
     0
 10
9.38997
 20
7.24262
 30
0.0
 11
9.41667
 21
6.94444
 31
0.0
  0
LINE
  8
0
 62
     0
 10
9.41667
 20
6.94444
 30
0.0
 11
9.42535
 21
6.47831
 31
0.0
  0
LINE
  8
0
 62
     0
 10
9.42535
 20
6.47831
 30
0.0
 11
9.39583
 21
5.99653
 31
0.0
  0
LINE
  8
0
 62
     0
 10
9.39583
 20
5.99653
 30
0.0
 11
9.32813
 21
5.49914
 31
0.0
  0
LINE
  8
0
 62
     0
 10
9.32813
 20
5.49914
 30
0.0
 11
9.22222
 21
4.98611
 31
0.0
  0
LINE
  8
0
 62
     0
 10
9.22222
 20
4.98611
 30
0.0
 11
9.10303
 21
4.59337
 31
0.0
  0
LINE
  8
0
 62
     0
 10
9.10303
 20
4.59337
 30
0.0
 11
8.94006
 21
4.22054
 31
0.0
  0
LINE
  8
0
 62
     0
 10
8.94006
 20
4.22054
 30
0.0
 11
8.73324
 21
3.86768
 31
0.0
  0
LINE
  8
0
 62
     0
 10
8.73324
 20
3.86768
 30
0.0
 11
8.48258
 21
3.53478
 31
0.0
  0
LINE
  8
0
 62
     0
 10
8.48258
 20
3.53478
 30
0.0
 11
8.1881
 21
3.22185
 31
0.0
  0
LINE
  8
0
 62
     0
 10
8.1881
 20
3.22185
 30
0.0
 11
7.84978
 21
2.92887
 31
0.0
  0
LINE
  8
0
 62
     0
 10
7.84978
 20
2.92887
 30
0.0
 11
7.46761
 21
2.65588
 31
0.0
  0
LINE
  8
0
 62
     0
 10
7.46761
 20
2.65588
 30
0.0
 11
7.04167
 21
2.40278
 31
0.0
  0
LINE
  8
0
 62
     0
 10
7.04167
 20
2.40278
 30
0.0
 11
6.63081
 21
2.1964
 31
0.0
  0
LINE
  8
0
 62
     0
 10
6.63081
 20
2.1964
 30
0.0
 11
6.21783
 21
2.02171
 31
0.0
  0
LINE
  8
0
 62
     0
 10
6.21783
 20
2.02171
 30
0.0
 11
5.80268
 21
1.87869
 31
0.0
  0
LINE
  8
0
 62
     0
 10
5.80268
 20
1.87869
 30
0.0
 11
5.38536
 21
1.76736
 31
0.0
  0
LINE
  8
0
 62
     0
 10
5.38536
 20
1.76736
 30
0.0
 11
4.96588
 21
1.68772
 31
0.0
  0
LINE
  8
0
 62
     0
 10
4.96588
 20
1.68772
 30
0.0
 11
4.54422
 21
1.63976
 31
0.0
  0
LINE
  8
0
 62
     0
 10
4.54422
 20
1.63976
 30
0.0
 11
4.12039
 21
1.62349
 31
0.0
  0
LINE
  8
0
 62
     0
 10
4.12039
 20
1.62349
 30
0.0
 11
3.69444
 21
1.63889
 31
0.0
  0
LINE
  8
0
 62
     0
 10
3.69444
 20
1.63889
 30
0.0
 11
3.47136
 21
1.64279
 31
0.0
  0
LINE
  8
0
 62
     0
 10
3.47136
 20
1.64279
 30
0.0
 11
3.25347
 21
1.61979
 31
0.0
  0
LINE
  8
0
 62
     0
 10
3.25347
 20
1.61979
 30
0.0
 11
3.04081
 21
1.56987
 31
0.0
  0
LINE
  8
0
 62
     0
 10
3.04081
 20
1.56987
 30
0.0
 11
2.83333
 21
1.49306
 31
0.0
  0
LINE
  8
0
 62
     0
 10
2.83333
 20
1.49306
 30
0.0
 11
2.63103
 21
1.38932
 31
0.0
  0
LINE
  8
0
 62
     0
 10
2.63103
 20
1.38932
 30
0.0
 11
2.43397
 21
1.25868
 31
0.0
  0
LINE
  8
0
 62
     0
 10
2.43397
 20
1.25868
 30
0.0
 11
2.24214
 21
1.10113
 31
0.0
  0
LINE
  8
0
 62
     0
 10
2.24214
 20
1.10113
 30
0.0
 11
2.05556
 21
0.916667
 31
0.0
  0
LINE
  8
0
 62
     0
 10
2.05556
 20
0.916667
 30
0.0
 11
1.9279
 21
0.762207
 31
0.0
  0
LINE
  8
0
 62
     0
 10
1.9279
 20
0.762207
 30
0.0
 11
1.85064
 21
0.618056
 31
0.0
  0
LINE
  8
0
 62
     0
 10
1.85064
 20
0.618056
 30
0.0
 11
1.82374
 21
0.484375
 31
0.0
  0
LINE
  8
0
 62
     0
 10
1.82374
 20
0.484375
 30
0.0
 11
1.84722
 21
0.361111
 31
0.0
  0
LINE
  8
0
 62
     0
 10
1.84722
 20
0.361111
 30
0.0
 11
1.94271
 21
0.236165
 31
0.0
  0
LINE
  8
0
 62
     0
 10
1.94271
 20
0.236165
 30
0.0
 11
2.10417
 21
0.138943
 31
0.0
  0
LINE
  8
0
 62
     0
 10
2.10417
 20
0.138943
 30
0.0
 11
2.3316
 21
0.0694988
 31
0.0
  0
LINE
  8
0
 62
     0
 10
2.3316
 20
0.0694988
 30
0.0
 11
2.625
 21
0.0277778
 31
0.0
  0
LINE
  8
0
 62
     0
 10
2.625
 20
0.0277778
 30
0.0
 11
3.15169
 21
0.00135634
 31
0.0
  0
LINE
  8
0
 62
     0
 10
3.15169
 20
0.00135634
 30
0.0
 11
3.6729
 21
0.00179036
 31
0.0
  0
LINE
  8
0
 62
     0
 10
3.6729
 20
0.00179036
 30
0.0
 11
4.18858
 21
0.0291342
 31
0.0
  0
LINE
  8
0
 62
     0
 10
4.18858
 20
0.0291342
 30
0.0
 11
4.69874
 21
0.0833876
 31
0.0
  0
LINE
  8
0
 62
     0
 10
4.69874
 20
0.0833876
 30
0.0
 11
5.20335
 21
0.164551
 31
0.0
  0
LINE
  8
0
 62
     0
 10
5.20335
 20
0.164551
 30
0.0
 11
5.70242
 21
0.272624
 31
0.0
  0
LINE
  8
0
 62
     0
 10
5.70242
 20
0.272624
 30
0.0
 11
6.19596
 21
0.407607
 31
0.0
  0
LINE
  8
0
 62
     0
 10
6.19596
 20
0.407607
 30
0.0
 11
6.68403
 21
0.569499
 31
0.0
  0
LINE
  8
0
 62
     0
 10
6.68403
 20
0.569499
 30
0.0
 11
7.1665
 21
0.758301
 31
0.0
  0
LINE
  8
0
 62
     0
 10
7.1665
 20
0.758301
 30
0.0
 11
7.64344
 21
0.974012
 31
0.0
  0
LINE
  8
0
 62
     0
 10
7.64344
 20
0.974012
 30
0.0
 11
8.11486
 21
1.21663
 31
0.0
  0
LINE
  8
0
 62
     0
 10
8.11486
 20
1.21663
 30
0.0
 11
8.58074
 21
1.48617
 31
0.0
  0
LINE
  8
0
 62
     0
 10
8.58074
 20
1.48617
 30
0.0
 11
9.04107
 21
1.78261
 31
0.0
  0
LINE
  8
0
 62
     0
 10
9.04107
 20
1.78261
 30
0.0
 11
9.49588
 21
2.10596
 31
0.0
  0
LINE
  8
0
 62
     0
 10
9.49588
 20
2.10596
 30
0.0
 11
9.94515
 21
2.45622
 31
0.0
  0
LINE
  8
0
 62
     0
 10
9.94515
 20
2.45622
 30
0.0
 11
10.3889
 21
2.83333
 31
0.0
  0
LINE
  8
0
 62
     0
 10
10.3889
 20
2.83333
 30
0.0
 11
10.7697
 21
3.2034
 31
0.0
  0
LINE
  8
0
 62
     0
 10
10.7697
 20
3.2034
 30
0.0
 11
11.1067
 21
3.59814
 31
0.0
  0
LINE
  8
0
 62
     0
 10
11.1067
 20
3.59814
 30
0.0
 11
11.3999
 21
4.01764
 31
0.0
  0
LINE
  8
0
 62
     0
 10
11.3999
 20
4.01764
 30
0.0
 11
11.6492
 21
4.46181
 31
0.0
  0
LINE
  8
0
 62
     0
 10
11.6492
 20
4.46181
 30
0.0
 11
11.8548
 21
4.93078
 31
0.0
  0
LINE
  8
0
 62
     0
 10
11.8548
 20
4.93078
 30
0.0
 11
12.0164
 21
5.42449
 31
0.0
  0
LINE
  8
0
 62
     0
 10
12.0164
 20
5.42449
 30
0.0
 11
12.1343
 21
5.94293
 31
0.0
  0
LINE
  8
0
 62
     0
 10
12.1343
 20
5.94293
 30
0.0
 11
12.2083
 21
6.48611
 31
0.0
  0
LINE
  8
0
 62
     0
 10
12.2083
 20
6.48611
 30
0.0
 11
12.2378
 21
7.06358
 31
0.0
  0
LINE
  8
0
 62
     0
 10
12.2378
 20
7.06358
 30
0.0
 11
12.2083
 21
7.60851
 31
0.0
  0
LINE
  8
0
 62
     0
 10
12.2083
 20
7.60851
 30
0.0
 11
12.1197
 21
8.12088
 31
0.0
  0
LINE
  8
0
 62
     0
 10
12.1197
 20
8.12088
 30
0.0
 11
11.9722
 21
8.60069
 31
0.0
  0
LINE
  8
0
 62
     0
 10
11.9722
 20
8.60069
 30
0.0
 11
11.7656
 21
9.04796
 31
0.0
  0
LINE
  8
0
 62
     0
 10
11.7656
 20
9.04796
 30
0.0
 11
11.4999
 21
9.46268
 31
0.0
  0
LINE
  8
0
 62
     0
 10
11.4999
 20
9.46268
 30
0.0
 11
11.1753
 21
9.84483
 31
0.0
  0
LINE
  8
0
 62
     0
 10
11.1753
 20
9.84483
 30
0.0
 11
10.7917
 21
10.1944
 31
0.0
  0
LINE
  8
0
 62
     0
 10
10.7917
 20
10.1944
 30
0.0
 11
10.6029
 21
10.3288
 31
0.0
  0
LINE
  8
0
 62
     0
 10
10.6029
 20
10.3288
 30
0.0
 11
10.4045
 21
10.4401
 31
0.0
  0
LINE
  8
0
 62
     0
 10
10.4045
 20
10.4401
 30
0.0
 11
10.1966
 21
10.5284
 31
0.0
  0
LINE
  8
0
 62
     0
 10
10.1966
 20
10.5284
 30
0.0
 11
9.97917
 21
10.5938
 31
0.0
  0
LINE
  8
0
 62
     0
 10
9.97917
 20
10.5938
 30
0.0
 11
9.75217
 21
10.6361
 31
0.0
  0
LINE
  8
0
 62
     0
 10
9.75217
 20
10.6361
 30
0.0
 11
9.51563
 21
10.6554
 31
0.0
  0
LINE
  8
0
 62
     0
 10
9.51563
 20
10.6554
 30
0.0
 11
9.26953
 21
10.6517
 31
0.0
  0
LINE
  8
0
 62
     0
 10
9.26953
 20
10.6517
 30
0.0
 11
9.01389
 21
10.625
 31
0.0
  0
ENDSEC
  0
EOF
