  0
SECTION
  2
HEADER
  9
$ACADVER
  1
AC1009
  9
$EXTMIN
 10
0.0
 20
0.0
 30
0.0
  9
$EXTMAX
 10
1000.0
 20
1000.0
 30
0.0
  9
$FILLMODE
 70
 0
  9
$SPLFRAME
 70
 1
  0
ENDSEC
  0
SECTION
  2
TABLES
  0
TABLE
  2
LAYER
 70
1
  0
LAYER
  2
0
 70
     0
 62
     7
  6
CONTINUOUS
  0
ENDTAB
  0
ENDSEC
  0
SECTION
  2
ENTITIES
  0
LINE
  8
0
 62
     0
 10
10.6389
 20
18.7361
 30
0.0
 11
10.6041
 21
18.9013
 31
0.0
  0
LINE
  8
0
 62
     0
 10
10.6041
 20
18.9013
 30
0.0
 11
10.5138
 21
19.035
 31
0.0
  0
LINE
  8
0
 62
     0
 10
10.5138
 20
19.035
 30
0.0
 11
10.368
 21
19.1374
 31
0.0
  0
LINE
  8
0
 62
     0
 10
10.368
 20
19.1374
 30
0.0
 11
10.1667
 21
19.2083
 31
0.0
  0
LINE
  8
0
 62
     0
 10
10.1667
 20
19.2083
 30
0.0
 11
9.94792
 21
19.2481
 31
0.0
  0
LINE
  8
0
 62
     0
 10
9.94792
 20
19.2481
 30
0.0
 11
9.70833
 21
19.2567
 31
0.0
  0
LINE
  8
0
 62
     0
 10
9.70833
 20
19.2567
 30
0.0
 11
9.44792
 21
19.2343
 31
0.0
  0
LINE
  8
0
 62
     0
 10
9.44792
 20
19.2343
 30
0.0
 11
9.16667
 21
19.1806
 31
0.0
  0
LINE
  8
0
 62
     0
 10
9.16667
 20
19.1806
 30
0.0
 11
8.88624
 21
19.0999
 31
0.0
  0
LINE
  8
0
 62
     0
 10
8.88624
 20
19.0999
 30
0.0
 11
8.62842
 21
18.9965
 31
0.0
  0
LINE
  8
0
 62
     0
 10
8.62842
 20
18.9965
 30
0.0
 11
8.39318
 21
18.8707
 31
0.0
  0
LINE
  8
0
 62
     0
 10
8.39318
 20
18.8707
 30
0.0
 11
8.18056
 21
18.7222
 31
0.0
  0
LINE
  8
0
 62
     0
 10
8.18056
 20
18.7222
 30
0.0
 11
7.98693
 21
18.5443
 31
0.0
  0
LINE
  8
0
 62
     0
 10
7.98693
 20
18.5443
 30
0.0
 11
7.85058
 21
18.3576
 31
0.0
  0
LINE
  8
0
 62
     0
 10
7.85058
 20
18.3576
 30
0.0
 11
7.77165
 21
18.1624
 31
0.0
  0
LINE
  8
0
 62
     0
 10
7.77165
 20
18.1624
 30
0.0
 11
7.75
 21
17.9583
 31
0.0
  0
LINE
  8
0
 62
     0
 10
7.75
 20
17.9583
 30
0.0
 11
7.7519
 21
17.8678
 31
0.0
  0
LINE
  8
0
 62
     0
 10
7.7519
 20
17.8678
 30
0.0
 11
7.75418
 21
17.7246
 31
0.0
  0
LINE
  8
0
 62
     0
 10
7.75418
 20
17.7246
 30
0.0
 11
7.75678
 21
17.5287
 31
0.0
  0
LINE
  8
0
 62
     0
 10
7.75678
 20
17.5287
 30
0.0
 11
7.75965
 21
17.2804
 31
0.0
  0
LINE
  8
0
 62
     0
 10
7.75965
 20
17.2804
 30
0.0
 11
7.76286
 21
16.9793
 31
0.0
  0
LINE
  8
0
 62
     0
 10
7.76286
 20
16.9793
 30
0.0
 11
7.76644
 21
16.6257
 31
0.0
  0
LINE
  8
0
 62
     0
 10
7.76644
 20
16.6257
 30
0.0
 11
7.77029
 21
16.2193
 31
0.0
  0
LINE
  8
0
 62
     0
 10
7.77029
 20
16.2193
 30
0.0
 11
7.77447
 21
15.7604
 31
0.0
  0
LINE
  8
0
 62
     0
 10
7.77447
 20
15.7604
 30
0.0
 11
7.77897
 21
15.2489
 31
0.0
  0
LINE
  8
0
 62
     0
 10
7.77897
 20
15.2489
 30
0.0
 11
7.78381
 21
14.6847
 31
0.0
  0
LINE
  8
0
 62
     0
 10
7.78381
 20
14.6847
 30
0.0
 11
7.7889
 21
14.0679
 31
0.0
  0
LINE
  8
0
 62
     0
 10
7.7889
 20
14.0679
 30
0.0
 11
7.79438
 21
13.3984
 31
0.0
  0
LINE
  8
0
 62
     0
 10
7.79438
 20
13.3984
 30
0.0
 11
7.80018
 21
12.6764
 31
0.0
  0
LINE
  8
0
 62
     0
 10
7.80018
 20
12.6764
 30
0.0
 11
7.80626
 21
11.9017
 31
0.0
  0
LINE
  8
0
 62
     0
 10
7.80626
 20
11.9017
 30
0.0
 11
7.81267
 21
11.0744
 31
0.0
  0
LINE
  8
0
 62
     0
 10
7.81267
 20
11.0744
 30
0.0
 11
7.81944
 21
10.1944
 31
0.0
  0
LINE
  8
0
 62
     0
 10
7.81944
 20
10.1944
 30
0.0
 11
7.46371
 21
10.0313
 31
0.0
  0
LINE
  8
0
 62
     0
 10
7.46371
 20
10.0313
 30
0.0
 11
7.1536
 21
9.88889
 31
0.0
  0
LINE
  8
0
 62
     0
 10
7.1536
 20
9.88889
 30
0.0
 11
6.88906
 21
9.76736
 31
0.0
  0
LINE
  8
0
 62
     0
 10
6.88906
 20
9.76736
 30
0.0
 11
6.67008
 21
9.66667
 31
0.0
  0
LINE
  8
0
 62
     0
 10
6.67008
 20
9.66667
 30
0.0
 11
6.49669
 21
9.58681
 31
0.0
  0
LINE
  8
0
 62
     0
 10
6.49669
 20
9.58681
 30
0.0
 11
6.36887
 21
9.52778
 31
0.0
  0
LINE
  8
0
 62
     0
 10
6.36887
 20
9.52778
 30
0.0
 11
6.28662
 21
9.48958
 31
0.0
  0
LINE
  8
0
 62
     0
 10
6.28662
 20
9.48958
 30
0.0
 11
6.25
 21
9.47222
 31
0.0
  0
LINE
  8
0
 62
     0
 10
6.25
 20
9.47222
 30
0.0
 11
5.86719
 21
9.31099
 31
0.0
  0
LINE
  8
0
 62
     0
 10
5.86719
 20
9.31099
 30
0.0
 11
5.50347
 21
9.16754
 31
0.0
  0
LINE
  8
0
 62
     0
 10
5.50347
 20
9.16754
 30
0.0
 11
5.15886
 21
9.04189
 31
0.0
  0
LINE
  8
0
 62
     0
 10
5.15886
 20
9.04189
 30
0.0
 11
4.83333
 21
8.93403
 31
0.0
  0
LINE
  8
0
 62
     0
 10
4.83333
 20
8.93403
 30
0.0
 11
4.52692
 21
8.84397
 31
0.0
  0
LINE
  8
0
 62
     0
 10
4.52692
 20
8.84397
 30
0.0
 11
4.23958
 21
8.77171
 31
0.0
  0
LINE
  8
0
 62
     0
 10
4.23958
 20
8.77171
 30
0.0
 11
3.97136
 21
8.71724
 31
0.0
  0
LINE
  8
0
 62
     0
 10
3.97136
 20
8.71724
 30
0.0
 11
3.72222
 21
8.68056
 31
0.0
  0
LINE
  8
0
 62
     0
 10
3.72222
 20
8.68056
 30
0.0
 11
3.56858
 21
8.69185
 31
0.0
  0
LINE
  8
0
 62
     0
 10
3.56858
 20
8.69185
 30
0.0
 11
3.44097
 21
8.76736
 31
0.0
  0
LINE
  8
0
 62
     0
 10
3.44097
 20
8.76736
 30
0.0
 11
3.33942
 21
8.90712
 31
0.0
  0
LINE
  8
0
 62
     0
 10
3.33942
 20
8.90712
 30
0.0
 11
3.26389
 21
9.11111
 31
0.0
  0
LINE
  8
0
 62
     0
 10
3.26389
 20
9.11111
 30
0.0
 11
3.26839
 21
9.10792
 31
0.0
  0
LINE
  8
0
 62
     0
 10
3.26839
 20
9.10792
 30
0.0
 11
3.26818
 21
9.13286
 31
0.0
  0
LINE
  8
0
 62
     0
 10
3.26818
 20
9.13286
 30
0.0
 11
3.26318
 21
9.18604
 31
0.0
  0
LINE
  8
0
 62
     0
 10
3.26318
 20
9.18604
 30
0.0
 11
3.25342
 21
9.26742
 31
0.0
  0
LINE
  8
0
 62
     0
 10
3.25342
 20
9.26742
 30
0.0
 11
3.23888
 21
9.37701
 31
0.0
  0
LINE
  8
0
 62
     0
 10
3.23888
 20
9.37701
 30
0.0
 11
3.21957
 21
9.51481
 31
0.0
  0
LINE
  8
0
 62
     0
 10
3.21957
 20
9.51481
 30
0.0
 11
3.19547
 21
9.68083
 31
0.0
  0
LINE
  8
0
 62
     0
 10
3.19547
 20
9.68083
 30
0.0
 11
3.16667
 21
9.875
 31
0.0
  0
LINE
  8
0
 62
     0
 10
3.16667
 20
9.875
 30
0.0
 11
3.11524
 21
10.3047
 31
0.0
  0
LINE
  8
0
 62
     0
 10
3.11524
 20
10.3047
 30
0.0
 11
3.079
 21
10.7744
 31
0.0
  0
LINE
  8
0
 62
     0
 10
3.079
 20
10.7744
 30
0.0
 11
3.05794
 21
11.2839
 31
0.0
  0
LINE
  8
0
 62
     0
 10
3.05794
 20
11.2839
 30
0.0
 11
3.05208
 21
11.8334
 31
0.0
  0
LINE
  8
0
 62
     0
 10
3.05208
 20
11.8334
 30
0.0
 11
3.06142
 21
12.4228
 31
0.0
  0
LINE
  8
0
 62
     0
 10
3.06142
 20
12.4228
 30
0.0
 11
3.08594
 21
13.0521
 31
0.0
  0
LINE
  8
0
 62
     0
 10
3.08594
 20
13.0521
 30
0.0
 11
3.12565
 21
13.7214
 31
0.0
  0
LINE
  8
0
 62
     0
 10
3.12565
 20
13.7214
 30
0.0
 11
3.18056
 21
14.4306
 31
0.0
  0
LINE
  8
0
 62
     0
 10
3.18056
 20
14.4306
 30
0.0
 11
3.2411
 21
15.2129
 31
0.0
  0
LINE
  8
0
 62
     0
 10
3.2411
 20
15.2129
 30
0.0
 11
3.29081
 21
15.935
 31
0.0
  0
LINE
  8
0
 62
     0
 10
3.29081
 20
15.935
 30
0.0
 11
3.32964
 21
16.5967
 31
0.0
  0
LINE
  8
0
 62
     0
 10
3.32964
 20
16.5967
 30
0.0
 11
3.35764
 21
17.1979
 31
0.0
  0
LINE
  8
0
 62
     0
 10
3.35764
 20
17.1979
 30
0.0
 11
3.37478
 21
17.739
 31
0.0
  0
LINE
  8
0
 62
     0
 10
3.37478
 20
17.739
 30
0.0
 11
3.38108
 21
18.2197
 31
0.0
  0
LINE
  8
0
 62
     0
 10
3.38108
 20
18.2197
 30
0.0
 11
3.37651
 21
18.64
 31
0.0
  0
LINE
  8
0
 62
     0
 10
3.37651
 20
18.64
 30
0.0
 11
3.36111
 21
19
 31
0.0
  0
LINE
  8
0
 62
     0
 10
3.36111
 20
19
 30
0.0
 11
3.31338
 21
19.2604
 31
0.0
  0
LINE
  8
0
 62
     0
 10
3.31338
 20
19.2604
 30
0.0
 11
3.21181
 21
19.4861
 31
0.0
  0
LINE
  8
0
 62
     0
 10
3.21181
 20
19.4861
 30
0.0
 11
3.05643
 21
19.6771
 31
0.0
  0
LINE
  8
0
 62
     0
 10
3.05643
 20
19.6771
 30
0.0
 11
2.84722
 21
19.8333
 31
0.0
  0
LINE
  8
0
 62
     0
 10
2.84722
 20
19.8333
 30
0.0
 11
2.62147
 21
19.9335
 31
0.0
  0
LINE
  8
0
 62
     0
 10
2.62147
 20
19.9335
 30
0.0
 11
2.375
 21
19.9971
 31
0.0
  0
LINE
  8
0
 62
     0
 10
2.375
 20
19.9971
 30
0.0
 11
2.10764
 21
20.0237
 31
0.0
  0
LINE
  8
0
 62
     0
 10
2.10764
 20
20.0237
 30
0.0
 11
1.81944
 21
20.0139
 31
0.0
  0
LINE
  8
0
 62
     0
 10
1.81944
 20
20.0139
 30
0.0
 11
1.53293
 21
19.9696
 31
0.0
  0
LINE
  8
0
 62
     0
 10
1.53293
 20
19.9696
 30
0.0
 11
1.27078
 21
19.8924
 31
0.0
  0
LINE
  8
0
 62
     0
 10
1.27078
 20
19.8924
 30
0.0
 11
1.03293
 21
19.7821
 31
0.0
  0
LINE
  8
0
 62
     0
 10
1.03293
 20
19.7821
 30
0.0
 11
0.819444
 21
19.6389
 31
0.0
  0
LINE
  8
0
 62
     0
 10
0.819444
 20
19.6389
 30
0.0
 11
0.632758
 21
19.4626
 31
0.0
  0
LINE
  8
0
 62
     0
 10
0.632758
 20
19.4626
 30
0.0
 11
0.503472
 21
19.2674
 31
0.0
  0
LINE
  8
0
 62
     0
 10
0.503472
 20
19.2674
 30
0.0
 11
0.431424
 21
19.0529
 31
0.0
  0
LINE
  8
0
 62
     0
 10
0.431424
 20
19.0529
 30
0.0
 11
0.416667
 21
18.8194
 31
0.0
  0
LINE
  8
0
 62
     0
 10
0.416667
 20
18.8194
 30
0.0
 11
0.423503
 21
18.6936
 31
0.0
  0
LINE
  8
0
 62
     0
 10
0.423503
 20
18.6936
 30
0.0
 11
0.426812
 21
18.5385
 31
0.0
  0
LINE
  8
0
 62
     0
 10
0.426812
 20
18.5385
 30
0.0
 11
0.42654
 21
18.3537
 31
0.0
  0
LINE
  8
0
 62
     0
 10
0.42654
 20
18.3537
 30
0.0
 11
0.422689
 21
18.1397
 31
0.0
  0
LINE
  8
0
 62
     0
 10
0.422689
 20
18.1397
 30
0.0
 11
0.415256
 21
17.8964
 31
0.0
  0
LINE
  8
0
 62
     0
 10
0.415256
 20
17.8964
 30
0.0
 11
0.404243
 21
17.6235
 31
0.0
  0
LINE
  8
0
 62
     0
 10
0.404243
 20
17.6235
 30
0.0
 11
0.389649
 21
17.3213
 31
0.0
  0
LINE
  8
0
 62
     0
 10
0.389649
 20
17.3213
 30
0.0
 11
0.371528
 21
16.9896
 31
0.0
  0
LINE
  8
0
 62
     0
 10
0.371528
 20
16.9896
 30
0.0
 11
0.349772
 21
16.6285
 31
0.0
  0
LINE
  8
0
 62
     0
 10
0.349772
 20
16.6285
 30
0.0
 11
0.324436
 21
16.2381
 31
0.0
  0
LINE
  8
0
 62
     0
 10
0.324436
 20
16.2381
 30
0.0
 11
0.295518
 21
15.8182
 31
0.0
  0
LINE
  8
0
 62
     0
 10
0.295518
 20
15.8182
 30
0.0
 11
0.263021
 21
15.3689
 31
0.0
  0
LINE
  8
0
 62
     0
 10
0.263021
 20
15.3689
 30
0.0
 11
0.226942
 21
14.8903
 31
0.0
  0
LINE
  8
0
 62
     0
 10
0.226942
 20
14.8903
 30
0.0
 11
0.187283
 21
14.3822
 31
0.0
  0
LINE
  8
0
 62
     0
 10
0.187283
 20
14.3822
 30
0.0
 11
0.144043
 21
13.8447
 31
0.0
  0
LINE
  8
0
 62
     0
 10
0.144043
 20
13.8447
 30
0.0
 11
0.0972222
 21
13.2778
 31
0.0
  0
LINE
  8
0
 62
     0
 10
0.0972222
 20
13.2778
 30
0.0
 11
0.0438368
 21
12.4365
 31
0.0
  0
LINE
  8
0
 62
     0
 10
0.0438368
 20
12.4365
 30
0.0
 11
0.0225694
 21
11.6415
 31
0.0
  0
LINE
  8
0
 62
     0
 10
0.0225694
 20
11.6415
 30
0.0
 11
0.0334201
 21
10.8931
 31
0.0
  0
LINE
  8
0
 62
     0
 10
0.0334201
 20
10.8931
 30
0.0
 11
0.0763889
 21
10.191
 31
0.0
  0
LINE
  8
0
 62
     0
 10
0.0763889
 20
10.191
 30
0.0
 11
0.151476
 21
9.53543
 31
0.0
  0
LINE
  8
0
 62
     0
 10
0.151476
 20
9.53543
 30
0.0
 11
0.258681
 21
8.92626
 31
0.0
  0
LINE
  8
0
 62
     0
 10
0.258681
 20
8.92626
 30
0.0
 11
0.398004
 21
8.36356
 31
0.0
  0
LINE
  8
0
 62
     0
 10
0.398004
 20
8.36356
 30
0.0
 11
0.569444
 21
7.84722
 31
0.0
  0
LINE
  8
0
 62
     0
 10
0.569444
 20
7.84722
 30
0.0
 11
0.660807
 21
7.6346
 31
0.0
  0
LINE
  8
0
 62
     0
 10
0.660807
 20
7.6346
 30
0.0
 11
0.764757
 21
7.43772
 31
0.0
  0
LINE
  8
0
 62
     0
 10
0.764757
 20
7.43772
 30
0.0
 11
0.881293
 21
7.25657
 31
0.0
  0
LINE
  8
0
 62
     0
 10
0.881293
 20
7.25657
 30
0.0
 11
1.01042
 21
7.09115
 31
0.0
  0
LINE
  8
0
 62
     0
 10
1.01042
 20
7.09115
 30
0.0
 11
1.15213
 21
6.94146
 31
0.0
  0
LINE
  8
0
 62
     0
 10
1.15213
 20
6.94146
 30
0.0
 11
1.30642
 21
6.80751
 31
0.0
  0
LINE
  8
0
 62
     0
 10
1.30642
 20
6.80751
 30
0.0
 11
1.47331
 21
6.68929
 31
0.0
  0
LINE
  8
0
 62
     0
 10
1.47331
 20
6.68929
 30
0.0
 11
1.65278
 21
6.58681
 31
0.0
  0
LINE
  8
0
 62
     0
 10
1.65278
 20
6.58681
 30
0.0
 11
1.84483
 21
6.50006
 31
0.0
  0
LINE
  8
0
 62
     0
 10
1.84483
 20
6.50006
 30
0.0
 11
2.04949
 21
6.42904
 31
0.0
  0
LINE
  8
0
 62
     0
 10
2.04949
 20
6.42904
 30
0.0
 11
2.26671
 21
6.37375
 31
0.0
  0
LINE
  8
0
 62
     0
 10
2.26671
 20
6.37375
 30
0.0
 11
2.49653
 21
6.33421
 31
0.0
  0
LINE
  8
0
 62
     0
 10
2.49653
 20
6.33421
 30
0.0
 11
2.73893
 21
6.31039
 31
0.0
  0
LINE
  8
0
 62
     0
 10
2.73893
 20
6.31039
 30
0.0
 11
2.99393
 21
6.30231
 31
0.0
  0
LINE
  8
0
 62
     0
 10
2.99393
 20
6.30231
 30
0.0
 11
3.2615
 21
6.30994
 31
0.0
  0
LINE
  8
0
 62
     0
 10
3.2615
 20
6.30994
 30
0.0
 11
3.54167
 21
6.33333
 31
0.0
  0
LINE
  8
0
 62
     0
 10
3.54167
 20
6.33333
 30
0.0
 11
3.94613
 21
6.39176
 31
0.0
  0
LINE
  8
0
 62
     0
 10
3.94613
 20
6.39176
 30
0.0
 11
4.38883
 21
6.48356
 31
0.0
  0
LINE
  8
0
 62
     0
 10
4.38883
 20
6.48356
 30
0.0
 11
4.86974
 21
6.60878
 31
0.0
  0
LINE
  8
0
 62
     0
 10
4.86974
 20
6.60878
 30
0.0
 11
5.38883
 21
6.76742
 31
0.0
  0
LINE
  8
0
 62
     0
 10
5.38883
 20
6.76742
 30
0.0
 11
5.94613
 21
6.95947
 31
0.0
  0
LINE
  8
0
 62
     0
 10
5.94613
 20
6.95947
 30
0.0
 11
6.54161
 21
7.18494
 31
0.0
  0
LINE
  8
0
 62
     0
 10
6.54161
 20
7.18494
 30
0.0
 11
7.17529
 21
7.44385
 31
0.0
  0
LINE
  8
0
 62
     0
 10
7.17529
 20
7.44385
 30
0.0
 11
7.84722
 21
7.73611
 31
0.0
  0
LINE
  8
0
 62
     0
 10
7.84722
 20
7.73611
 30
0.0
 11
7.87565
 21
6.71533
 31
0.0
  0
LINE
  8
0
 62
     0
 10
7.87565
 20
6.71533
 30
0.0
 11
7.91233
 21
5.72922
 31
0.0
  0
LINE
  8
0
 62
     0
 10
7.91233
 20
5.72922
 30
0.0
 11
7.95725
 21
4.77783
 31
0.0
  0
LINE
  8
0
 62
     0
 10
7.95725
 20
4.77783
 30
0.0
 11
8.01042
 21
3.86117
 31
0.0
  0
LINE
  8
0
 62
     0
 10
8.01042
 20
3.86117
 30
0.0
 11
8.07183
 21
2.97922
 31
0.0
  0
LINE
  8
0
 62
     0
 10
8.07183
 20
2.97922
 30
0.0
 11
8.1415
 21
2.132
 31
0.0
  0
LINE
  8
0
 62
     0
 10
8.1415
 20
2.132
 30
0.0
 11
8.2194
 21
1.3195
 31
0.0
  0
LINE
  8
0
 62
     0
 10
8.2194
 20
1.3195
 30
0.0
 11
8.30556
 21
0.541667
 31
0.0
  0
LINE
  8
0
 62
     0
 10
8.30556
 20
0.541667
 30
0.0
 11
8.35417
 21
0.369792
 31
0.0
  0
LINE
  8
0
 62
     0
 10
8.35417
 20
0.369792
 30
0.0
 11
8.45833
 21
0.229167
 31
0.0
  0
LINE
  8
0
 62
     0
 10
8.45833
 20
0.229167
 30
0.0
 11
8.61806
 21
0.119792
 31
0.0
  0
LINE
  8
0
 62
     0
 10
8.61806
 20
0.119792
 30
0.0
 11
8.83333
 21
0.0416667
 31
0.0
  0
LINE
  8
0
 62
     0
 10
8.83333
 20
0.0416667
 30
0.0
 11
9.05903
 21
0.0078125
 31
0.0
  0
LINE
  8
0
 62
     0
 10
9.05903
 20
0.0078125
 30
0.0
 11
9.30556
 21
0.00347222
 31
0.0
  0
LINE
  8
0
 62
     0
 10
9.30556
 20
0.00347222
 30
0.0
 11
9.57292
 21
0.0286458
 31
0.0
  0
LINE
  8
0
 62
     0
 10
9.57292
 20
0.0286458
 30
0.0
 11
9.86111
 21
0.0833333
 31
0.0
  0
LINE
  8
0
 62
     0
 10
9.86111
 20
0.0833333
 30
0.0
 11
10.1398
 21
0.169271
 31
0.0
  0
LINE
  8
0
 62
     0
 10
10.1398
 20
0.169271
 30
0.0
 11
10.3924
 21
0.274306
 31
0.0
  0
LINE
  8
0
 62
     0
 10
10.3924
 20
0.274306
 30
0.0
 11
10.6189
 21
0.398438
 31
0.0
  0
LINE
  8
0
 62
     0
 10
10.6189
 20
0.398438
 30
0.0
 11
10.8194
 21
0.541667
 31
0.0
  0
LINE
  8
0
 62
     0
 10
10.8194
 20
0.541667
 30
0.0
 11
11.0043
 21
0.725694
 31
0.0
  0
LINE
  8
0
 62
     0
 10
11.0043
 20
0.725694
 30
0.0
 11
11.1285
 21
0.916667
 31
0.0
  0
LINE
  8
0
 62
     0
 10
11.1285
 20
0.916667
 30
0.0
 11
11.1918
 21
1.11458
 31
0.0
  0
LINE
  8
0
 62
     0
 10
11.1918
 20
1.11458
 30
0.0
 11
11.1944
 21
1.31944
 31
0.0
  0
LINE
  8
0
 62
     0
 10
11.1944
 20
1.31944
 30
0.0
 11
11.1053
 21
2.13504
 31
0.0
  0
LINE
  8
0
 62
     0
 10
11.1053
 20
2.13504
 30
0.0
 11
11.0252
 21
2.99137
 31
0.0
  0
LINE
  8
0
 62
     0
 10
11.0252
 20
2.99137
 30
0.0
 11
10.9542
 21
3.88851
 31
0.0
  0
LINE
  8
0
 62
     0
 10
10.9542
 20
3.88851
 30
0.0
 11
10.8924
 21
4.82644
 31
0.0
  0
LINE
  8
0
 62
     0
 10
10.8924
 20
4.82644
 30
0.0
 11
10.8396
 21
5.80518
 31
0.0
  0
LINE
  8
0
 62
     0
 10
10.8396
 20
5.80518
 30
0.0
 11
10.796
 21
6.82471
 31
0.0
  0
LINE
  8
0
 62
     0
 10
10.796
 20
6.82471
 30
0.0
 11
10.7615
 21
7.88504
 31
0.0
  0
LINE
  8
0
 62
     0
 10
10.7615
 20
7.88504
 30
0.0
 11
10.7361
 21
8.98611
 31
0.0
  0
LINE
  8
0
 62
     0
 10
10.7361
 20
8.98611
 30
0.0
 11
10.8647
 21
9.02083
 31
0.0
  0
LINE
  8
0
 62
     0
 10
10.8647
 20
9.02083
 30
0.0
 11
10.9722
 21
9.04167
 31
0.0
  0
LINE
  8
0
 62
     0
 10
10.9722
 20
9.04167
 30
0.0
 11
11.2578
 21
9.13282
 31
0.0
  0
LINE
  8
0
 62
     0
 10
11.2578
 20
9.13282
 30
0.0
 11
11.5034
 21
9.25347
 31
0.0
  0
LINE
  8
0
 62
     0
 10
11.5034
 20
9.25347
 30
0.0
 11
11.7092
 21
9.40365
 31
0.0
  0
LINE
  8
0
 62
     0
 10
11.7092
 20
9.40365
 30
0.0
 11
11.875
 21
9.58333
 31
0.0
  0
LINE
  8
0
 62
     0
 10
11.875
 20
9.58333
 30
0.0
 11
11.9862
 21
9.7665
 31
0.0
  0
LINE
  8
0
 62
     0
 10
11.9862
 20
9.7665
 30
0.0
 11
12.0557
 21
9.95486
 31
0.0
  0
LINE
  8
0
 62
     0
 10
12.0557
 20
9.95486
 30
0.0
 11
12.0834
 21
10.1485
 31
0.0
  0
LINE
  8
0
 62
     0
 10
12.0834
 20
10.1485
 30
0.0
 11
12.0694
 21
10.3472
 31
0.0
  0
LINE
  8
0
 62
     0
 10
12.0694
 20
10.3472
 30
0.0
 11
12.0174
 21
10.5443
 31
0.0
  0
LINE
  8
0
 62
     0
 10
12.0174
 20
10.5443
 30
0.0
 11
11.9306
 21
10.7188
 31
0.0
  0
LINE
  8
0
 62
     0
 10
11.9306
 20
10.7188
 30
0.0
 11
11.809
 21
10.8707
 31
0.0
  0
LINE
  8
0
 62
     0
 10
11.809
 20
10.8707
 30
0.0
 11
11.6528
 21
11
 31
0.0
  0
LINE
  8
0
 62
     0
 10
11.6528
 20
11
 30
0.0
 11
11.4479
 21
11.1181
 31
0.0
  0
LINE
  8
0
 62
     0
 10
11.4479
 20
11.1181
 30
0.0
 11
11.2222
 21
11.1944
 31
0.0
  0
LINE
  8
0
 62
     0
 10
11.2222
 20
11.1944
 30
0.0
 11
10.9757
 21
11.2292
 31
0.0
  0
LINE
  8
0
 62
     0
 10
10.9757
 20
11.2292
 30
0.0
 11
10.7083
 21
11.2222
 31
0.0
  0
LINE
  8
0
 62
     0
 10
10.7083
 20
11.2222
 30
0.0
 11
10.7031
 21
12.0199
 31
0.0
  0
LINE
  8
0
 62
     0
 10
10.7031
 20
12.0199
 30
0.0
 11
10.6981
 21
12.7737
 31
0.0
  0
LINE
  8
0
 62
     0
 10
10.6981
 20
12.7737
 30
0.0
 11
10.6931
 21
13.4838
 31
0.0
  0
LINE
  8
0
 62
     0
 10
10.6931
 20
13.4838
 30
0.0
 11
10.6883
 21
14.1503
 31
0.0
  0
LINE
  8
0
 62
     0
 10
10.6883
 20
14.1503
 30
0.0
 11
10.6836
 21
14.7729
 31
0.0
  0
LINE
  8
0
 62
     0
 10
10.6836
 20
14.7729
 30
0.0
 11
10.679
 21
15.3518
 31
0.0
  0
LINE
  8
0
 62
     0
 10
10.679
 20
15.3518
 30
0.0
 11
10.6745
 21
15.8871
 31
0.0
  0
LINE
  8
0
 62
     0
 10
10.6745
 20
15.8871
 30
0.0
 11
10.6701
 21
16.3785
 31
0.0
  0
LINE
  8
0
 62
     0
 10
10.6701
 20
16.3785
 30
0.0
 11
10.6658
 21
16.8262
 31
0.0
  0
LINE
  8
0
 62
     0
 10
10.6658
 20
16.8262
 30
0.0
 11
10.6616
 21
17.2303
 31
0.0
  0
LINE
  8
0
 62
     0
 10
10.6616
 20
17.2303
 30
0.0
 11
10.6576
 21
17.5906
 31
0.0
  0
LINE
  8
0
 62
     0
 10
10.6576
 20
17.5906
 30
0.0
 11
10.6536
 21
17.9072
 31
0.0
  0
LINE
  8
0
 62
     0
 10
10.6536
 20
17.9072
 30
0.0
 11
10.6497
 21
18.18
 31
0.0
  0
LINE
  8
0
 62
     0
 10
10.6497
 20
18.18
 30
0.0
 11
10.646
 21
18.4092
 31
0.0
  0
LINE
  8
0
 62
     0
 10
10.646
 20
18.4092
 30
0.0
 11
10.6424
 21
18.5944
 31
0.0
  0
LINE
  8
0
 62
     0
 10
10.6424
 20
18.5944
 30
0.0
 11
10.6389
 21
18.7361
 31
0.0
  0
ENDSEC
  0
EOF
