  0
SECTION
  2
HEADER
  9
$ACADVER
  1
AC1009
  9
$EXTMIN
 10
0.0
 20
0.0
 30
0.0
  9
$EXTMAX
 10
1000.0
 20
1000.0
 30
0.0
  9
$FILLMODE
 70
 0
  9
$SPLFRAME
 70
 1
  0
ENDSEC
  0
SECTION
  2
TABLES
  0
TABLE
  2
LAYER
 70
1
  0
LAYER
  2
0
 70
     0
 62
     7
  6
CONTINUOUS
  0
ENDTAB
  0
ENDSEC
  0
SECTION
  2
ENTITIES
  0
LINE
  8
0
 62
     0
 10
12.0556
 20
3.79167
 30
0.0
 11
12.1634
 21
4.1409
 31
0.0
  0
LINE
  8
0
 62
     0
 10
12.1634
 20
4.1409
 30
0.0
 11
12.2509
 21
4.51481
 31
0.0
  0
LINE
  8
0
 62
     0
 10
12.2509
 20
4.51481
 30
0.0
 11
12.3179
 21
4.91347
 31
0.0
  0
LINE
  8
0
 62
     0
 10
12.3179
 20
4.91347
 30
0.0
 11
12.3646
 21
5.33681
 31
0.0
  0
LINE
  8
0
 62
     0
 10
12.3646
 20
5.33681
 30
0.0
 11
12.3908
 21
5.78494
 31
0.0
  0
LINE
  8
0
 62
     0
 10
12.3908
 20
5.78494
 30
0.0
 11
12.3967
 21
6.25782
 31
0.0
  0
LINE
  8
0
 62
     0
 10
12.3967
 20
6.25782
 30
0.0
 11
12.3822
 21
6.75543
 31
0.0
  0
LINE
  8
0
 62
     0
 10
12.3822
 20
6.75543
 30
0.0
 11
12.3472
 21
7.27778
 31
0.0
  0
LINE
  8
0
 62
     0
 10
12.3472
 20
7.27778
 30
0.0
 11
12.5468
 21
7.30903
 31
0.0
  0
LINE
  8
0
 62
     0
 10
12.5468
 20
7.30903
 30
0.0
 11
12.7013
 21
7.33333
 31
0.0
  0
LINE
  8
0
 62
     0
 10
12.7013
 20
7.33333
 30
0.0
 11
12.8107
 21
7.35069
 31
0.0
  0
LINE
  8
0
 62
     0
 10
12.8107
 20
7.35069
 30
0.0
 11
12.875
 21
7.36111
 31
0.0
  0
LINE
  8
0
 62
     0
 10
12.875
 20
7.36111
 30
0.0
 11
12.9647
 21
7.36313
 31
0.0
  0
LINE
  8
0
 62
     0
 10
12.9647
 20
7.36313
 30
0.0
 11
13.0464
 21
7.33094
 31
0.0
  0
LINE
  8
0
 62
     0
 10
13.0464
 20
7.33094
 30
0.0
 11
13.1201
 21
7.2646
 31
0.0
  0
LINE
  8
0
 62
     0
 10
13.1201
 20
7.2646
 30
0.0
 11
13.1857
 21
7.16407
 31
0.0
  0
LINE
  8
0
 62
     0
 10
13.1857
 20
7.16407
 30
0.0
 11
13.2433
 21
7.02935
 31
0.0
  0
LINE
  8
0
 62
     0
 10
13.2433
 20
7.02935
 30
0.0
 11
13.2929
 21
6.86046
 31
0.0
  0
LINE
  8
0
 62
     0
 10
13.2929
 20
6.86046
 30
0.0
 11
13.3345
 21
6.65739
 31
0.0
  0
LINE
  8
0
 62
     0
 10
13.3345
 20
6.65739
 30
0.0
 11
13.368
 21
6.42014
 31
0.0
  0
LINE
  8
0
 62
     0
 10
13.368
 20
6.42014
 30
0.0
 11
13.3935
 21
6.14876
 31
0.0
  0
LINE
  8
0
 62
     0
 10
13.3935
 20
6.14876
 30
0.0
 11
13.411
 21
5.84315
 31
0.0
  0
LINE
  8
0
 62
     0
 10
13.411
 20
5.84315
 30
0.0
 11
13.4204
 21
5.50336
 31
0.0
  0
LINE
  8
0
 62
     0
 10
13.4204
 20
5.50336
 30
0.0
 11
13.4218
 21
5.12939
 31
0.0
  0
LINE
  8
0
 62
     0
 10
13.4218
 20
5.12939
 30
0.0
 11
13.4152
 21
4.72125
 31
0.0
  0
LINE
  8
0
 62
     0
 10
13.4152
 20
4.72125
 30
0.0
 11
13.4006
 21
4.27892
 31
0.0
  0
LINE
  8
0
 62
     0
 10
13.4006
 20
4.27892
 30
0.0
 11
13.3779
 21
3.8024
 31
0.0
  0
LINE
  8
0
 62
     0
 10
13.3779
 20
3.8024
 30
0.0
 11
13.3472
 21
3.29167
 31
0.0
  0
LINE
  8
0
 62
     0
 10
13.3472
 20
3.29167
 30
0.0
 11
13.2933
 21
2.60596
 31
0.0
  0
LINE
  8
0
 62
     0
 10
13.2933
 20
2.60596
 30
0.0
 11
13.2292
 21
1.86806
 31
0.0
  0
LINE
  8
0
 62
     0
 10
13.2292
 20
1.86806
 30
0.0
 11
13.1545
 21
1.07813
 31
0.0
  0
LINE
  8
0
 62
     0
 10
13.1545
 20
1.07813
 30
0.0
 11
13.0694
 21
0.236111
 31
0.0
  0
LINE
  8
0
 62
     0
 10
13.0694
 20
0.236111
 30
0.0
 11
13.0069
 21
-0.284668
 31
0.0
  0
LINE
  8
0
 62
     0
 10
13.0069
 20
-0.284668
 30
0.0
 11
12.9306
 21
-0.875
 31
0.0
  0
LINE
  8
0
 62
     0
 10
12.9306
 20
-0.875
 30
0.0
 11
12.9062
 21
-1.11019
 31
0.0
  0
LINE
  8
0
 62
     0
 10
12.9062
 20
-1.11019
 30
0.0
 11
12.8888
 21
-1.28819
 31
0.0
  0
LINE
  8
0
 62
     0
 10
12.8888
 20
-1.28819
 30
0.0
 11
12.8784
 21
-1.40886
 31
0.0
  0
LINE
  8
0
 62
     0
 10
12.8784
 20
-1.40886
 30
0.0
 11
12.875
 21
-1.47222
 31
0.0
  0
LINE
  8
0
 62
     0
 10
12.875
 20
-1.47222
 30
0.0
 11
12.8828
 21
-1.67101
 31
0.0
  0
LINE
  8
0
 62
     0
 10
12.8828
 20
-1.67101
 30
0.0
 11
12.9479
 21
-1.83681
 31
0.0
  0
LINE
  8
0
 62
     0
 10
12.9479
 20
-1.83681
 30
0.0
 11
13.0703
 21
-1.96963
 31
0.0
  0
LINE
  8
0
 62
     0
 10
13.0703
 20
-1.96963
 30
0.0
 11
13.25
 21
-2.06944
 31
0.0
  0
LINE
  8
0
 62
     0
 10
13.25
 20
-2.06944
 30
0.0
 11
13.4513
 21
-2.13103
 31
0.0
  0
LINE
  8
0
 62
     0
 10
13.4513
 20
-2.13103
 30
0.0
 11
13.6805
 21
-2.16314
 31
0.0
  0
LINE
  8
0
 62
     0
 10
13.6805
 20
-2.16314
 30
0.0
 11
13.9375
 21
-2.16575
 31
0.0
  0
LINE
  8
0
 62
     0
 10
13.9375
 20
-2.16575
 30
0.0
 11
14.2222
 21
-2.13889
 31
0.0
  0
LINE
  8
0
 62
     0
 10
14.2222
 20
-2.13889
 30
0.0
 11
14.4982
 21
-2.07986
 31
0.0
  0
LINE
  8
0
 62
     0
 10
14.4982
 20
-2.07986
 30
0.0
 11
14.7569
 21
-2
 31
0.0
  0
LINE
  8
0
 62
     0
 10
14.7569
 20
-2
 30
0.0
 11
14.9982
 21
-1.89931
 31
0.0
  0
LINE
  8
0
 62
     0
 10
14.9982
 20
-1.89931
 30
0.0
 11
15.2222
 21
-1.77778
 31
0.0
  0
LINE
  8
0
 62
     0
 10
15.2222
 20
-1.77778
 30
0.0
 11
15.4306
 21
-1.63368
 31
0.0
  0
LINE
  8
0
 62
     0
 10
15.4306
 20
-1.63368
 30
0.0
 11
15.5833
 21
-1.47917
 31
0.0
  0
LINE
  8
0
 62
     0
 10
15.5833
 20
-1.47917
 30
0.0
 11
15.6806
 21
-1.31418
 31
0.0
  0
LINE
  8
0
 62
     0
 10
15.6806
 20
-1.31418
 30
0.0
 11
15.7222
 21
-1.13889
 31
0.0
  0
LINE
  8
0
 62
     0
 10
15.7222
 20
-1.13889
 30
0.0
 11
15.8125
 21
-0.174046
 31
0.0
  0
LINE
  8
0
 62
     0
 10
15.8125
 20
-0.174046
 30
0.0
 11
15.8958
 21
0.744792
 31
0.0
  0
LINE
  8
0
 62
     0
 10
15.8958
 20
0.744792
 30
0.0
 11
15.9722
 21
1.61763
 31
0.0
  0
LINE
  8
0
 62
     0
 10
15.9722
 20
1.61763
 30
0.0
 11
16.0417
 21
2.44444
 31
0.0
  0
LINE
  8
0
 62
     0
 10
16.0417
 20
2.44444
 30
0.0
 11
16.1042
 21
3.22526
 31
0.0
  0
LINE
  8
0
 62
     0
 10
16.1042
 20
3.22526
 30
0.0
 11
16.1597
 21
3.96007
 31
0.0
  0
LINE
  8
0
 62
     0
 10
16.1597
 20
3.96007
 30
0.0
 11
16.2083
 21
4.64887
 31
0.0
  0
LINE
  8
0
 62
     0
 10
16.2083
 20
4.64887
 30
0.0
 11
16.25
 21
5.29167
 31
0.0
  0
LINE
  8
0
 62
     0
 10
16.25
 20
5.29167
 30
0.0
 11
16.2847
 21
5.88846
 31
0.0
  0
LINE
  8
0
 62
     0
 10
16.2847
 20
5.88846
 30
0.0
 11
16.3125
 21
6.43924
 31
0.0
  0
LINE
  8
0
 62
     0
 10
16.3125
 20
6.43924
 30
0.0
 11
16.3333
 21
6.94401
 31
0.0
  0
LINE
  8
0
 62
     0
 10
16.3333
 20
6.94401
 30
0.0
 11
16.3472
 21
7.40278
 31
0.0
  0
LINE
  8
0
 62
     0
 10
16.3472
 20
7.40278
 30
0.0
 11
16.3542
 21
7.81554
 31
0.0
  0
LINE
  8
0
 62
     0
 10
16.3542
 20
7.81554
 30
0.0
 11
16.3542
 21
8.18229
 31
0.0
  0
LINE
  8
0
 62
     0
 10
16.3542
 20
8.18229
 30
0.0
 11
16.3472
 21
8.50304
 31
0.0
  0
LINE
  8
0
 62
     0
 10
16.3472
 20
8.50304
 30
0.0
 11
16.3333
 21
8.77778
 31
0.0
  0
LINE
  8
0
 62
     0
 10
16.3333
 20
8.77778
 30
0.0
 11
16.3054
 21
8.88889
 31
0.0
  0
LINE
  8
0
 62
     0
 10
16.3054
 20
8.88889
 30
0.0
 11
16.236
 21
8.98611
 31
0.0
  0
LINE
  8
0
 62
     0
 10
16.236
 20
8.98611
 30
0.0
 11
16.1249
 21
9.06944
 31
0.0
  0
LINE
  8
0
 62
     0
 10
16.1249
 20
9.06944
 30
0.0
 11
15.9722
 21
9.13889
 31
0.0
  0
LINE
  8
0
 62
     0
 10
15.9722
 20
9.13889
 30
0.0
 11
15.7118
 21
9.21875
 31
0.0
  0
LINE
  8
0
 62
     0
 10
15.7118
 20
9.21875
 30
0.0
 11
15.4583
 21
9.23611
 31
0.0
  0
LINE
  8
0
 62
     0
 10
15.4583
 20
9.23611
 30
0.0
 11
15.4368
 21
9.23156
 31
0.0
  0
LINE
  8
0
 62
     0
 10
15.4368
 20
9.23156
 30
0.0
 11
15.3585
 21
9.21789
 31
0.0
  0
LINE
  8
0
 62
     0
 10
15.3585
 20
9.21789
 30
0.0
 11
15.2232
 21
9.1951
 31
0.0
  0
LINE
  8
0
 62
     0
 10
15.2232
 20
9.1951
 30
0.0
 11
15.0313
 21
9.16319
 31
0.0
  0
LINE
  8
0
 62
     0
 10
15.0313
 20
9.16319
 30
0.0
 11
14.7822
 21
9.12218
 31
0.0
  0
LINE
  8
0
 62
     0
 10
14.7822
 20
9.12218
 30
0.0
 11
14.4765
 21
9.07206
 31
0.0
  0
LINE
  8
0
 62
     0
 10
14.4765
 20
9.07206
 30
0.0
 11
14.1139
 21
9.01281
 31
0.0
  0
LINE
  8
0
 62
     0
 10
14.1139
 20
9.01281
 30
0.0
 11
13.6944
 21
8.94444
 31
0.0
  0
LINE
  8
0
 62
     0
 10
13.6944
 20
8.94444
 30
0.0
 11
13.4027
 21
8.90001
 31
0.0
  0
LINE
  8
0
 62
     0
 10
13.4027
 20
8.90001
 30
0.0
 11
13.1388
 21
8.87071
 31
0.0
  0
LINE
  8
0
 62
     0
 10
13.1388
 20
8.87071
 30
0.0
 11
12.9027
 21
8.85661
 31
0.0
  0
LINE
  8
0
 62
     0
 10
12.9027
 20
8.85661
 30
0.0
 11
12.6944
 21
8.85769
 31
0.0
  0
LINE
  8
0
 62
     0
 10
12.6944
 20
8.85769
 30
0.0
 11
12.5138
 21
8.87397
 31
0.0
  0
LINE
  8
0
 62
     0
 10
12.5138
 20
8.87397
 30
0.0
 11
12.3611
 21
8.90543
 31
0.0
  0
LINE
  8
0
 62
     0
 10
12.3611
 20
8.90543
 30
0.0
 11
12.2361
 21
8.9521
 31
0.0
  0
LINE
  8
0
 62
     0
 10
12.2361
 20
8.9521
 30
0.0
 11
12.1389
 21
9.01389
 31
0.0
  0
LINE
  8
0
 62
     0
 10
12.1389
 20
9.01389
 30
0.0
 11
12.1059
 21
9.24826
 31
0.0
  0
LINE
  8
0
 62
     0
 10
12.1059
 20
9.24826
 30
0.0
 11
12.0764
 21
9.45139
 31
0.0
  0
LINE
  8
0
 62
     0
 10
12.0764
 20
9.45139
 30
0.0
 11
12.0503
 21
9.62326
 31
0.0
  0
LINE
  8
0
 62
     0
 10
12.0503
 20
9.62326
 30
0.0
 11
12.0278
 21
9.76389
 31
0.0
  0
LINE
  8
0
 62
     0
 10
12.0278
 20
9.76389
 30
0.0
 11
11.9774
 21
9.94015
 31
0.0
  0
LINE
  8
0
 62
     0
 10
11.9774
 20
9.94015
 30
0.0
 11
11.8819
 21
10.0799
 31
0.0
  0
LINE
  8
0
 62
     0
 10
11.8819
 20
10.0799
 30
0.0
 11
11.7413
 21
10.1832
 31
0.0
  0
LINE
  8
0
 62
     0
 10
11.7413
 20
10.1832
 30
0.0
 11
11.5556
 21
10.25
 31
0.0
  0
LINE
  8
0
 62
     0
 10
11.5556
 20
10.25
 30
0.0
 11
11.3568
 21
10.2778
 31
0.0
  0
LINE
  8
0
 62
     0
 10
11.3568
 20
10.2778
 30
0.0
 11
11.1354
 21
10.2778
 31
0.0
  0
LINE
  8
0
 62
     0
 10
11.1354
 20
10.2778
 30
0.0
 11
10.8915
 21
10.2501
 31
0.0
  0
LINE
  8
0
 62
     0
 10
10.8915
 20
10.2501
 30
0.0
 11
10.625
 21
10.1944
 31
0.0
  0
LINE
  8
0
 62
     0
 10
10.625
 20
10.1944
 30
0.0
 11
10.3259
 21
10.1033
 31
0.0
  0
LINE
  8
0
 62
     0
 10
10.3259
 20
10.1033
 30
0.0
 11
10.0607
 21
10.0035
 31
0.0
  0
LINE
  8
0
 62
     0
 10
10.0607
 20
10.0035
 30
0.0
 11
9.82938
 21
9.89497
 31
0.0
  0
LINE
  8
0
 62
     0
 10
9.82938
 20
9.89497
 30
0.0
 11
9.63194
 21
9.77778
 31
0.0
  0
LINE
  8
0
 62
     0
 10
9.63194
 20
9.77778
 30
0.0
 11
9.46832
 21
9.65192
 31
0.0
  0
LINE
  8
0
 62
     0
 10
9.46832
 20
9.65192
 30
0.0
 11
9.33854
 21
9.51736
 31
0.0
  0
LINE
  8
0
 62
     0
 10
9.33854
 20
9.51736
 30
0.0
 11
9.24262
 21
9.37414
 31
0.0
  0
LINE
  8
0
 62
     0
 10
9.24262
 20
9.37414
 30
0.0
 11
9.18056
 21
9.22222
 31
0.0
  0
LINE
  8
0
 62
     0
 10
9.18056
 20
9.22222
 30
0.0
 11
9.01389
 21
8.61458
 31
0.0
  0
LINE
  8
0
 62
     0
 10
9.01389
 20
8.61458
 30
0.0
 11
8.93056
 21
7.98611
 31
0.0
  0
LINE
  8
0
 62
     0
 10
8.93056
 20
7.98611
 30
0.0
 11
8.94006
 21
7.78733
 31
0.0
  0
LINE
  8
0
 62
     0
 10
8.94006
 20
7.78733
 30
0.0
 11
9.02425
 21
7.62153
 31
0.0
  0
LINE
  8
0
 62
     0
 10
9.02425
 20
7.62153
 30
0.0
 11
9.18311
 21
7.48872
 31
0.0
  0
LINE
  8
0
 62
     0
 10
9.18311
 20
7.48872
 30
0.0
 11
9.41667
 21
7.38889
 31
0.0
  0
LINE
  8
0
 62
     0
 10
9.41667
 20
7.38889
 30
0.0
 11
9.46912
 21
6.90494
 31
0.0
  0
LINE
  8
0
 62
     0
 10
9.46912
 20
6.90494
 30
0.0
 11
9.50862
 21
6.43924
 31
0.0
  0
LINE
  8
0
 62
     0
 10
9.50862
 20
6.43924
 30
0.0
 11
9.5351
 21
5.99175
 31
0.0
  0
LINE
  8
0
 62
     0
 10
9.5351
 20
5.99175
 30
0.0
 11
9.54861
 21
5.5625
 31
0.0
  0
LINE
  8
0
 62
     0
 10
9.54861
 20
5.5625
 30
0.0
 11
9.54904
 21
5.15147
 31
0.0
  0
LINE
  8
0
 62
     0
 10
9.54904
 20
5.15147
 30
0.0
 11
9.53646
 21
4.75868
 31
0.0
  0
LINE
  8
0
 62
     0
 10
9.53646
 20
4.75868
 30
0.0
 11
9.51085
 21
4.38411
 31
0.0
  0
LINE
  8
0
 62
     0
 10
9.51085
 20
4.38411
 30
0.0
 11
9.47222
 21
4.02778
 31
0.0
  0
LINE
  8
0
 62
     0
 10
9.47222
 20
4.02778
 30
0.0
 11
9.42811
 21
3.77761
 31
0.0
  0
LINE
  8
0
 62
     0
 10
9.42811
 20
3.77761
 30
0.0
 11
9.3654
 21
3.54085
 31
0.0
  0
LINE
  8
0
 62
     0
 10
9.3654
 20
3.54085
 30
0.0
 11
9.28401
 21
3.31754
 31
0.0
  0
LINE
  8
0
 62
     0
 10
9.28401
 20
3.31754
 30
0.0
 11
9.18397
 21
3.10769
 31
0.0
  0
LINE
  8
0
 62
     0
 10
9.18397
 20
3.10769
 30
0.0
 11
9.06526
 21
2.91129
 31
0.0
  0
LINE
  8
0
 62
     0
 10
9.06526
 20
2.91129
 30
0.0
 11
8.9279
 21
2.72835
 31
0.0
  0
LINE
  8
0
 62
     0
 10
8.9279
 20
2.72835
 30
0.0
 11
8.77186
 21
2.55886
 31
0.0
  0
LINE
  8
0
 62
     0
 10
8.77186
 20
2.55886
 30
0.0
 11
8.59722
 21
2.40278
 31
0.0
  0
LINE
  8
0
 62
     0
 10
8.59722
 20
2.40278
 30
0.0
 11
8.24219
 21
2.17275
 31
0.0
  0
LINE
  8
0
 62
     0
 10
8.24219
 20
2.17275
 30
0.0
 11
7.84375
 21
1.99653
 31
0.0
  0
LINE
  8
0
 62
     0
 10
7.84375
 20
1.99653
 30
0.0
 11
7.40192
 21
1.87414
 31
0.0
  0
LINE
  8
0
 62
     0
 10
7.40192
 20
1.87414
 30
0.0
 11
6.91667
 21
1.80556
 31
0.0
  0
LINE
  8
0
 62
     0
 10
6.91667
 20
1.80556
 30
0.0
 11
6.45047
 21
1.78651
 31
0.0
  0
LINE
  8
0
 62
     0
 10
6.45047
 20
1.78651
 30
0.0
 11
5.98258
 21
1.81256
 31
0.0
  0
LINE
  8
0
 62
     0
 10
5.98258
 20
1.81256
 30
0.0
 11
5.51297
 21
1.88374
 31
0.0
  0
LINE
  8
0
 62
     0
 10
5.51297
 20
1.88374
 30
0.0
 11
5.04167
 21
2
 31
0.0
  0
LINE
  8
0
 62
     0
 10
5.04167
 20
2
 30
0.0
 11
4.60064
 21
2.16064
 31
0.0
  0
LINE
  8
0
 62
     0
 10
4.60064
 20
2.16064
 30
0.0
 11
4.20828
 21
2.35075
 31
0.0
  0
LINE
  8
0
 62
     0
 10
4.20828
 20
2.35075
 30
0.0
 11
3.86453
 21
2.57036
 31
0.0
  0
LINE
  8
0
 62
     0
 10
3.86453
 20
2.57036
 30
0.0
 11
3.56944
 21
2.81944
 31
0.0
  0
LINE
  8
0
 62
     0
 10
3.56944
 20
2.81944
 30
0.0
 11
3.42165
 21
2.98503
 31
0.0
  0
LINE
  8
0
 62
     0
 10
3.42165
 20
2.98503
 30
0.0
 11
3.29081
 21
3.16928
 31
0.0
  0
LINE
  8
0
 62
     0
 10
3.29081
 20
3.16928
 30
0.0
 11
3.17686
 21
3.37218
 31
0.0
  0
LINE
  8
0
 62
     0
 10
3.17686
 20
3.37218
 30
0.0
 11
3.07986
 21
3.59375
 31
0.0
  0
LINE
  8
0
 62
     0
 10
3.07986
 20
3.59375
 30
0.0
 11
2.99978
 21
3.83399
 31
0.0
  0
LINE
  8
0
 62
     0
 10
2.99978
 20
3.83399
 30
0.0
 11
2.93664
 21
4.09289
 31
0.0
  0
LINE
  8
0
 62
     0
 10
2.93664
 20
4.09289
 30
0.0
 11
2.8904
 21
4.37044
 31
0.0
  0
LINE
  8
0
 62
     0
 10
2.8904
 20
4.37044
 30
0.0
 11
2.86111
 21
4.66667
 31
0.0
  0
LINE
  8
0
 62
     0
 10
2.86111
 20
4.66667
 30
0.0
 11
2.84631
 21
5.04779
 31
0.0
  0
LINE
  8
0
 62
     0
 10
2.84631
 20
5.04779
 30
0.0
 11
2.85764
 21
5.51047
 31
0.0
  0
LINE
  8
0
 62
     0
 10
2.85764
 20
5.51047
 30
0.0
 11
2.89497
 21
6.05474
 31
0.0
  0
LINE
  8
0
 62
     0
 10
2.89497
 20
6.05474
 30
0.0
 11
2.95833
 21
6.68056
 31
0.0
  0
LINE
  8
0
 62
     0
 10
2.95833
 20
6.68056
 30
0.0
 11
3.06765
 21
7.52544
 31
0.0
  0
LINE
  8
0
 62
     0
 10
3.06765
 20
7.52544
 30
0.0
 11
3.21522
 21
8.37244
 31
0.0
  0
LINE
  8
0
 62
     0
 10
3.21522
 20
8.37244
 30
0.0
 11
3.40099
 21
9.22162
 31
0.0
  0
LINE
  8
0
 62
     0
 10
3.40099
 20
9.22162
 30
0.0
 11
3.62494
 21
10.073
 31
0.0
  0
LINE
  8
0
 62
     0
 10
3.62494
 20
10.073
 30
0.0
 11
3.8871
 21
10.9265
 31
0.0
  0
LINE
  8
0
 62
     0
 10
3.8871
 20
10.9265
 30
0.0
 11
4.18744
 21
11.7822
 31
0.0
  0
LINE
  8
0
 62
     0
 10
4.18744
 20
11.7822
 30
0.0
 11
4.52599
 21
12.64
 31
0.0
  0
LINE
  8
0
 62
     0
 10
4.52599
 20
12.64
 30
0.0
 11
4.90278
 21
13.5
 31
0.0
  0
LINE
  8
0
 62
     0
 10
4.90278
 20
13.5
 30
0.0
 11
5.15326
 21
14.0232
 31
0.0
  0
LINE
  8
0
 62
     0
 10
5.15326
 20
14.0232
 30
0.0
 11
5.40821
 21
14.5164
 31
0.0
  0
LINE
  8
0
 62
     0
 10
5.40821
 20
14.5164
 30
0.0
 11
5.66758
 21
14.9794
 31
0.0
  0
LINE
  8
0
 62
     0
 10
5.66758
 20
14.9794
 30
0.0
 11
5.93143
 21
15.4124
 31
0.0
  0
LINE
  8
0
 62
     0
 10
5.93143
 20
15.4124
 30
0.0
 11
6.19971
 21
15.8153
 31
0.0
  0
LINE
  8
0
 62
     0
 10
6.19971
 20
15.8153
 30
0.0
 11
6.47244
 21
16.1882
 31
0.0
  0
LINE
  8
0
 62
     0
 10
6.47244
 20
16.1882
 30
0.0
 11
6.74962
 21
16.531
 31
0.0
  0
LINE
  8
0
 62
     0
 10
6.74962
 20
16.531
 30
0.0
 11
7.03125
 21
16.8438
 31
0.0
  0
LINE
  8
0
 62
     0
 10
7.03125
 20
16.8438
 30
0.0
 11
7.31733
 21
17.1265
 31
0.0
  0
LINE
  8
0
 62
     0
 10
7.31733
 20
17.1265
 30
0.0
 11
7.60786
 21
17.3792
 31
0.0
  0
LINE
  8
0
 62
     0
 10
7.60786
 20
17.3792
 30
0.0
 11
7.90283
 21
17.6018
 31
0.0
  0
LINE
  8
0
 62
     0
 10
7.90283
 20
17.6018
 30
0.0
 11
8.20226
 21
17.7943
 31
0.0
  0
LINE
  8
0
 62
     0
 10
8.20226
 20
17.7943
 30
0.0
 11
8.50612
 21
17.9568
 31
0.0
  0
LINE
  8
0
 62
     0
 10
8.50612
 20
17.9568
 30
0.0
 11
8.81446
 21
18.0893
 31
0.0
  0
LINE
  8
0
 62
     0
 10
8.81446
 20
18.0893
 30
0.0
 11
9.12722
 21
18.1917
 31
0.0
  0
LINE
  8
0
 62
     0
 10
9.12722
 20
18.1917
 30
0.0
 11
9.44444
 21
18.2639
 31
0.0
  0
LINE
  8
0
 62
     0
 10
9.44444
 20
18.2639
 30
0.0
 11
9.70682
 21
18.326
 31
0.0
  0
LINE
  8
0
 62
     0
 10
9.70682
 20
18.326
 30
0.0
 11
9.94532
 21
18.4081
 31
0.0
  0
LINE
  8
0
 62
     0
 10
9.94532
 20
18.4081
 30
0.0
 11
10.1599
 21
18.51
 31
0.0
  0
LINE
  8
0
 62
     0
 10
10.1599
 20
18.51
 30
0.0
 11
10.3507
 21
18.6319
 31
0.0
  0
LINE
  8
0
 62
     0
 10
10.3507
 20
18.6319
 30
0.0
 11
10.5176
 21
18.7739
 31
0.0
  0
LINE
  8
0
 62
     0
 10
10.5176
 20
18.7739
 30
0.0
 11
10.6606
 21
18.9358
 31
0.0
  0
LINE
  8
0
 62
     0
 10
10.6606
 20
18.9358
 30
0.0
 11
10.7797
 21
19.1176
 31
0.0
  0
LINE
  8
0
 62
     0
 10
10.7797
 20
19.1176
 30
0.0
 11
10.875
 21
19.3194
 31
0.0
  0
LINE
  8
0
 62
     0
 10
10.875
 20
19.3194
 30
0.0
 11
10.9201
 21
19.4826
 31
0.0
  0
LINE
  8
0
 62
     0
 10
10.9201
 20
19.4826
 30
0.0
 11
10.9167
 21
19.625
 31
0.0
  0
LINE
  8
0
 62
     0
 10
10.9167
 20
19.625
 30
0.0
 11
10.8646
 21
19.7465
 31
0.0
  0
LINE
  8
0
 62
     0
 10
10.8646
 20
19.7465
 30
0.0
 11
10.7639
 21
19.8472
 31
0.0
  0
LINE
  8
0
 62
     0
 10
10.7639
 20
19.8472
 30
0.0
 11
10.605
 21
19.9244
 31
0.0
  0
LINE
  8
0
 62
     0
 10
10.605
 20
19.9244
 30
0.0
 11
10.3923
 21
19.9618
 31
0.0
  0
LINE
  8
0
 62
     0
 10
10.3923
 20
19.9618
 30
0.0
 11
10.1258
 21
19.9592
 31
0.0
  0
LINE
  8
0
 62
     0
 10
10.1258
 20
19.9592
 30
0.0
 11
9.80556
 21
19.9167
 31
0.0
  0
LINE
  8
0
 62
     0
 10
9.80556
 20
19.9167
 30
0.0
 11
9.12326
 21
19.7704
 31
0.0
  0
LINE
  8
0
 62
     0
 10
9.12326
 20
19.7704
 30
0.0
 11
8.47222
 21
19.5886
 31
0.0
  0
LINE
  8
0
 62
     0
 10
8.47222
 20
19.5886
 30
0.0
 11
7.85243
 21
19.3711
 31
0.0
  0
LINE
  8
0
 62
     0
 10
7.85243
 20
19.3711
 30
0.0
 11
7.26389
 21
19.1181
 31
0.0
  0
LINE
  8
0
 62
     0
 10
7.26389
 20
19.1181
 30
0.0
 11
6.7066
 21
18.8294
 31
0.0
  0
LINE
  8
0
 62
     0
 10
6.7066
 20
18.8294
 30
0.0
 11
6.18056
 21
18.5053
 31
0.0
  0
LINE
  8
0
 62
     0
 10
6.18056
 20
18.5053
 30
0.0
 11
5.68576
 21
18.1454
 31
0.0
  0
LINE
  8
0
 62
     0
 10
5.68576
 20
18.1454
 30
0.0
 11
5.22222
 21
17.75
 31
0.0
  0
LINE
  8
0
 62
     0
 10
5.22222
 20
17.75
 30
0.0
 11
4.82617
 21
17.3542
 31
0.0
  0
LINE
  8
0
 62
     0
 10
4.82617
 20
17.3542
 30
0.0
 11
4.44358
 21
16.9167
 31
0.0
  0
LINE
  8
0
 62
     0
 10
4.44358
 20
16.9167
 30
0.0
 11
4.07443
 21
16.4375
 31
0.0
  0
LINE
  8
0
 62
     0
 10
4.07443
 20
16.4375
 30
0.0
 11
3.71875
 21
15.9167
 31
0.0
  0
LINE
  8
0
 62
     0
 10
3.71875
 20
15.9167
 30
0.0
 11
3.37651
 21
15.3542
 31
0.0
  0
LINE
  8
0
 62
     0
 10
3.37651
 20
15.3542
 30
0.0
 11
3.04775
 21
14.75
 31
0.0
  0
LINE
  8
0
 62
     0
 10
3.04775
 20
14.75
 30
0.0
 11
2.73242
 21
14.1042
 31
0.0
  0
LINE
  8
0
 62
     0
 10
2.73242
 20
14.1042
 30
0.0
 11
2.43056
 21
13.4167
 31
0.0
  0
LINE
  8
0
 62
     0
 10
2.43056
 20
13.4167
 30
0.0
 11
2.21544
 21
12.904
 31
0.0
  0
LINE
  8
0
 62
     0
 10
2.21544
 20
12.904
 30
0.0
 11
2.01124
 21
12.4112
 31
0.0
  0
LINE
  8
0
 62
     0
 10
2.01124
 20
12.4112
 30
0.0
 11
1.81787
 21
11.9383
 31
0.0
  0
LINE
  8
0
 62
     0
 10
1.81787
 20
11.9383
 30
0.0
 11
1.63536
 21
11.4852
 31
0.0
  0
LINE
  8
0
 62
     0
 10
1.63536
 20
11.4852
 30
0.0
 11
1.46371
 21
11.052
 31
0.0
  0
LINE
  8
0
 62
     0
 10
1.46371
 20
11.052
 30
0.0
 11
1.3029
 21
10.6387
 31
0.0
  0
LINE
  8
0
 62
     0
 10
1.3029
 20
10.6387
 30
0.0
 11
1.15294
 21
10.2452
 31
0.0
  0
LINE
  8
0
 62
     0
 10
1.15294
 20
10.2452
 30
0.0
 11
1.01383
 21
9.87153
 31
0.0
  0
LINE
  8
0
 62
     0
 10
1.01383
 20
9.87153
 30
0.0
 11
0.885579
 21
9.51779
 31
0.0
  0
LINE
  8
0
 62
     0
 10
0.885579
 20
9.51779
 30
0.0
 11
0.768175
 21
9.18386
 31
0.0
  0
LINE
  8
0
 62
     0
 10
0.768175
 20
9.18386
 30
0.0
 11
0.661621
 21
8.86979
 31
0.0
  0
LINE
  8
0
 62
     0
 10
0.661621
 20
8.86979
 30
0.0
 11
0.565918
 21
8.57557
 31
0.0
  0
LINE
  8
0
 62
     0
 10
0.565918
 20
8.57557
 30
0.0
 11
0.481065
 21
8.30122
 31
0.0
  0
LINE
  8
0
 62
     0
 10
0.481065
 20
8.30122
 30
0.0
 11
0.407064
 21
8.04671
 31
0.0
  0
LINE
  8
0
 62
     0
 10
0.407064
 20
8.04671
 30
0.0
 11
0.343912
 21
7.81207
 31
0.0
  0
LINE
  8
0
 62
     0
 10
0.343912
 20
7.81207
 30
0.0
 11
0.291667
 21
7.59722
 31
0.0
  0
LINE
  8
0
 62
     0
 10
0.291667
 20
7.59722
 30
0.0
 11
0.128418
 21
6.73335
 31
0.0
  0
LINE
  8
0
 62
     0
 10
0.128418
 20
6.73335
 30
0.0
 11
0.0346679
 21
5.90543
 31
0.0
  0
LINE
  8
0
 62
     0
 10
0.0346679
 20
5.90543
 30
0.0
 11
0.0103624
 21
5.11356
 31
0.0
  0
LINE
  8
0
 62
     0
 10
0.0103624
 20
5.11356
 30
0.0
 11
0.0555012
 21
4.35769
 31
0.0
  0
LINE
  8
0
 62
     0
 10
0.0555012
 20
4.35769
 30
0.0
 11
0.170085
 21
3.63786
 31
0.0
  0
LINE
  8
0
 62
     0
 10
0.170085
 20
3.63786
 30
0.0
 11
0.354112
 21
2.95404
 31
0.0
  0
LINE
  8
0
 62
     0
 10
0.354112
 20
2.95404
 30
0.0
 11
0.607585
 21
2.30626
 31
0.0
  0
LINE
  8
0
 62
     0
 10
0.607585
 20
2.30626
 30
0.0
 11
0.930556
 21
1.69444
 31
0.0
  0
LINE
  8
0
 62
     0
 10
0.930556
 20
1.69444
 30
0.0
 11
1.07536
 21
1.47478
 31
0.0
  0
LINE
  8
0
 62
     0
 10
1.07536
 20
1.47478
 30
0.0
 11
1.23546
 21
1.27045
 31
0.0
  0
LINE
  8
0
 62
     0
 10
1.23546
 20
1.27045
 30
0.0
 11
1.41086
 21
1.08154
 31
0.0
  0
LINE
  8
0
 62
     0
 10
1.41086
 20
1.08154
 30
0.0
 11
1.60157
 21
0.90804
 31
0.0
  0
LINE
  8
0
 62
     0
 10
1.60157
 20
0.90804
 30
0.0
 11
1.80757
 21
0.749946
 31
0.0
  0
LINE
  8
0
 62
     0
 10
1.80757
 20
0.749946
 30
0.0
 11
2.02886
 21
0.60726
 31
0.0
  0
LINE
  8
0
 62
     0
 10
2.02886
 20
0.60726
 30
0.0
 11
2.26546
 21
0.479981
 31
0.0
  0
LINE
  8
0
 62
     0
 10
2.26546
 20
0.479981
 30
0.0
 11
2.51736
 21
0.36811
 31
0.0
  0
LINE
  8
0
 62
     0
 10
2.51736
 20
0.36811
 30
0.0
 11
2.7845
 21
0.271647
 31
0.0
  0
LINE
  8
0
 62
     0
 10
2.7845
 20
0.271647
 30
0.0
 11
3.067
 21
0.190593
 31
0.0
  0
LINE
  8
0
 62
     0
 10
3.067
 20
0.190593
 30
0.0
 11
3.36481
 21
0.124946
 31
0.0
  0
LINE
  8
0
 62
     0
 10
3.36481
 20
0.124946
 30
0.0
 11
3.6779
 21
0.0747071
 31
0.0
  0
LINE
  8
0
 62
     0
 10
3.6779
 20
0.0747071
 30
0.0
 11
4.00629
 21
0.0398762
 31
0.0
  0
LINE
  8
0
 62
     0
 10
4.00629
 20
0.0398762
 30
0.0
 11
4.34999
 21
0.0204536
 31
0.0
  0
LINE
  8
0
 62
     0
 10
4.34999
 20
0.0204536
 30
0.0
 11
4.70899
 21
0.0164388
 31
0.0
  0
LINE
  8
0
 62
     0
 10
4.70899
 20
0.0164388
 30
0.0
 11
5.08333
 21
0.0277778
 31
0.0
  0
LINE
  8
0
 62
     0
 10
5.08333
 20
0.0277778
 30
0.0
 11
5.67686
 21
0.0703125
 31
0.0
  0
LINE
  8
0
 62
     0
 10
5.67686
 20
0.0703125
 30
0.0
 11
6.26303
 21
0.142361
 31
0.0
  0
LINE
  8
0
 62
     0
 10
6.26303
 20
0.142361
 30
0.0
 11
6.84179
 21
0.243924
 31
0.0
  0
LINE
  8
0
 62
     0
 10
6.84179
 20
0.243924
 30
0.0
 11
7.41319
 21
0.375
 31
0.0
  0
LINE
  8
0
 62
     0
 10
7.41319
 20
0.375
 30
0.0
 11
7.97721
 21
0.53559
 31
0.0
  0
LINE
  8
0
 62
     0
 10
7.97721
 20
0.53559
 30
0.0
 11
8.53386
 21
0.725694
 31
0.0
  0
LINE
  8
0
 62
     0
 10
8.53386
 20
0.725694
 30
0.0
 11
9.08311
 21
0.945313
 31
0.0
  0
LINE
  8
0
 62
     0
 10
9.08311
 20
0.945313
 30
0.0
 11
9.625
 21
1.19444
 31
0.0
  0
LINE
  8
0
 62
     0
 10
9.625
 20
1.19444
 30
0.0
 11
10.0579
 21
1.42643
 31
0.0
  0
LINE
  8
0
 62
     0
 10
10.0579
 20
1.42643
 30
0.0
 11
10.454
 21
1.6849
 31
0.0
  0
LINE
  8
0
 62
     0
 10
10.454
 20
1.6849
 30
0.0
 11
10.8132
 21
1.96983
 31
0.0
  0
LINE
  8
0
 62
     0
 10
10.8132
 20
1.96983
 30
0.0
 11
11.1354
 21
2.28125
 31
0.0
  0
LINE
  8
0
 62
     0
 10
11.1354
 20
2.28125
 30
0.0
 11
11.4208
 21
2.61914
 31
0.0
  0
LINE
  8
0
 62
     0
 10
11.4208
 20
2.61914
 30
0.0
 11
11.6693
 21
2.98351
 31
0.0
  0
LINE
  8
0
 62
     0
 10
11.6693
 20
2.98351
 30
0.0
 11
11.8809
 21
3.37435
 31
0.0
  0
LINE
  8
0
 62
     0
 10
11.8809
 20
3.37435
 30
0.0
 11
12.0556
 21
3.79167
 31
0.0
  0
ENDSEC
  0
EOF
