  0
SECTION
  2
HEADER
  9
$ACADVER
  1
AC1009
  9
$EXTMIN
 10
0.0
 20
0.0
 30
0.0
  9
$EXTMAX
 10
1000.0
 20
1000.0
 30
0.0
  9
$FILLMODE
 70
 0
  9
$SPLFRAME
 70
 1
  0
ENDSEC
  0
SECTION
  2
TABLES
  0
TABLE
  2
LAYER
 70
1
  0
LAYER
  2
0
 70
     0
 62
     7
  6
CONTINUOUS
  0
ENDTAB
  0
ENDSEC
  0
SECTION
  2
ENTITIES
  0
LINE
  8
0
 62
     0
 10
13.2917
 20
14.1528
 30
0.0
 11
13.4418
 21
14.5524
 31
0.0
  0
LINE
  8
0
 62
     0
 10
13.4418
 20
14.5524
 30
0.0
 11
13.5451
 21
14.9593
 31
0.0
  0
LINE
  8
0
 62
     0
 10
13.5451
 20
14.9593
 30
0.0
 11
13.6015
 21
15.3735
 31
0.0
  0
LINE
  8
0
 62
     0
 10
13.6015
 20
15.3735
 30
0.0
 11
13.6111
 21
15.7951
 31
0.0
  0
LINE
  8
0
 62
     0
 10
13.6111
 20
15.7951
 30
0.0
 11
13.5738
 21
16.2242
 31
0.0
  0
LINE
  8
0
 62
     0
 10
13.5738
 20
16.2242
 30
0.0
 11
13.4896
 21
16.6607
 31
0.0
  0
LINE
  8
0
 62
     0
 10
13.4896
 20
16.6607
 30
0.0
 11
13.3585
 21
17.1044
 31
0.0
  0
LINE
  8
0
 62
     0
 10
13.3585
 20
17.1044
 30
0.0
 11
13.1806
 21
17.5556
 31
0.0
  0
LINE
  8
0
 62
     0
 10
13.1806
 20
17.5556
 30
0.0
 11
12.9733
 21
17.9536
 31
0.0
  0
LINE
  8
0
 62
     0
 10
12.9733
 20
17.9536
 30
0.0
 11
12.7196
 21
18.3143
 31
0.0
  0
LINE
  8
0
 62
     0
 10
12.7196
 20
18.3143
 30
0.0
 11
12.4195
 21
18.6376
 31
0.0
  0
LINE
  8
0
 62
     0
 10
12.4195
 20
18.6376
 30
0.0
 11
12.0729
 21
18.9236
 31
0.0
  0
LINE
  8
0
 62
     0
 10
12.0729
 20
18.9236
 30
0.0
 11
11.6799
 21
19.1724
 31
0.0
  0
LINE
  8
0
 62
     0
 10
11.6799
 20
19.1724
 30
0.0
 11
11.2405
 21
19.3838
 31
0.0
  0
LINE
  8
0
 62
     0
 10
11.2405
 20
19.3838
 30
0.0
 11
10.7546
 21
19.5578
 31
0.0
  0
LINE
  8
0
 62
     0
 10
10.7546
 20
19.5578
 30
0.0
 11
10.2222
 21
19.6944
 31
0.0
  0
LINE
  8
0
 62
     0
 10
10.2222
 20
19.6944
 30
0.0
 11
9.70204
 21
19.7878
 31
0.0
  0
LINE
  8
0
 62
     0
 10
9.70204
 20
19.7878
 30
0.0
 11
9.19706
 21
19.8386
 31
0.0
  0
LINE
  8
0
 62
     0
 10
9.19706
 20
19.8386
 30
0.0
 11
8.70725
 21
19.8468
 31
0.0
  0
LINE
  8
0
 62
     0
 10
8.70725
 20
19.8468
 30
0.0
 11
8.23264
 21
19.8125
 31
0.0
  0
LINE
  8
0
 62
     0
 10
8.23264
 20
19.8125
 30
0.0
 11
7.77322
 21
19.7357
 31
0.0
  0
LINE
  8
0
 62
     0
 10
7.77322
 20
19.7357
 30
0.0
 11
7.329
 21
19.6164
 31
0.0
  0
LINE
  8
0
 62
     0
 10
7.329
 20
19.6164
 30
0.0
 11
6.89996
 21
19.4544
 31
0.0
  0
LINE
  8
0
 62
     0
 10
6.89996
 20
19.4544
 30
0.0
 11
6.48611
 21
19.25
 31
0.0
  0
LINE
  8
0
 62
     0
 10
6.48611
 20
19.25
 30
0.0
 11
6.241
 21
19.1053
 31
0.0
  0
LINE
  8
0
 62
     0
 10
6.241
 20
19.1053
 30
0.0
 11
6.00928
 21
18.9456
 31
0.0
  0
LINE
  8
0
 62
     0
 10
6.00928
 20
18.9456
 30
0.0
 11
5.7909
 21
18.7707
 31
0.0
  0
LINE
  8
0
 62
     0
 10
5.7909
 20
18.7707
 30
0.0
 11
5.58589
 21
18.5807
 31
0.0
  0
LINE
  8
0
 62
     0
 10
5.58589
 20
18.5807
 30
0.0
 11
5.39421
 21
18.3757
 31
0.0
  0
LINE
  8
0
 62
     0
 10
5.39421
 20
18.3757
 30
0.0
 11
5.21588
 21
18.1556
 31
0.0
  0
LINE
  8
0
 62
     0
 10
5.21588
 20
18.1556
 30
0.0
 11
5.05089
 21
17.9204
 31
0.0
  0
LINE
  8
0
 62
     0
 10
5.05089
 20
17.9204
 30
0.0
 11
4.89931
 21
17.6701
 31
0.0
  0
LINE
  8
0
 62
     0
 10
4.89931
 20
17.6701
 30
0.0
 11
4.76101
 21
17.4047
 31
0.0
  0
LINE
  8
0
 62
     0
 10
4.76101
 20
17.4047
 30
0.0
 11
4.63607
 21
17.1243
 31
0.0
  0
LINE
  8
0
 62
     0
 10
4.63607
 20
17.1243
 30
0.0
 11
4.52447
 21
16.8289
 31
0.0
  0
LINE
  8
0
 62
     0
 10
4.52447
 20
16.8289
 30
0.0
 11
4.42622
 21
16.5182
 31
0.0
  0
LINE
  8
0
 62
     0
 10
4.42622
 20
16.5182
 30
0.0
 11
4.34131
 21
16.1925
 31
0.0
  0
LINE
  8
0
 62
     0
 10
4.34131
 20
16.1925
 30
0.0
 11
4.26975
 21
15.8518
 31
0.0
  0
LINE
  8
0
 62
     0
 10
4.26975
 20
15.8518
 30
0.0
 11
4.21153
 21
15.496
 31
0.0
  0
LINE
  8
0
 62
     0
 10
4.21153
 20
15.496
 30
0.0
 11
4.16667
 21
15.125
 31
0.0
  0
LINE
  8
0
 62
     0
 10
4.16667
 20
15.125
 30
0.0
 11
4.15419
 21
14.9854
 31
0.0
  0
LINE
  8
0
 62
     0
 10
4.15419
 20
14.9854
 30
0.0
 11
4.14453
 21
14.8164
 31
0.0
  0
LINE
  8
0
 62
     0
 10
4.14453
 20
14.8164
 30
0.0
 11
4.13769
 21
14.6182
 31
0.0
  0
LINE
  8
0
 62
     0
 10
4.13769
 20
14.6182
 30
0.0
 11
4.13368
 21
14.3907
 31
0.0
  0
LINE
  8
0
 62
     0
 10
4.13368
 20
14.3907
 30
0.0
 11
4.13249
 21
14.1338
 31
0.0
  0
LINE
  8
0
 62
     0
 10
4.13249
 20
14.1338
 30
0.0
 11
4.13411
 21
13.8477
 31
0.0
  0
LINE
  8
0
 62
     0
 10
4.13411
 20
13.8477
 30
0.0
 11
4.13857
 21
13.5322
 31
0.0
  0
LINE
  8
0
 62
     0
 10
4.13857
 20
13.5322
 30
0.0
 11
4.14583
 21
13.1875
 31
0.0
  0
LINE
  8
0
 62
     0
 10
4.14583
 20
13.1875
 30
0.0
 11
4.15593
 21
12.8135
 31
0.0
  0
LINE
  8
0
 62
     0
 10
4.15593
 20
12.8135
 30
0.0
 11
4.16883
 21
12.4102
 31
0.0
  0
LINE
  8
0
 62
     0
 10
4.16883
 20
12.4102
 30
0.0
 11
4.18457
 21
11.9775
 31
0.0
  0
LINE
  8
0
 62
     0
 10
4.18457
 20
11.9775
 30
0.0
 11
4.20313
 21
11.5156
 31
0.0
  0
LINE
  8
0
 62
     0
 10
4.20313
 20
11.5156
 30
0.0
 11
4.2245
 21
11.0244
 31
0.0
  0
LINE
  8
0
 62
     0
 10
4.2245
 20
11.0244
 30
0.0
 11
4.24869
 21
10.5039
 31
0.0
  0
LINE
  8
0
 62
     0
 10
4.24869
 20
10.5039
 30
0.0
 11
4.27572
 21
9.9541
 31
0.0
  0
LINE
  8
0
 62
     0
 10
4.27572
 20
9.9541
 30
0.0
 11
4.30556
 21
9.375
 31
0.0
  0
LINE
  8
0
 62
     0
 10
4.30556
 20
9.375
 30
0.0
 11
4.33529
 21
8.52501
 31
0.0
  0
LINE
  8
0
 62
     0
 10
4.33529
 20
8.52501
 30
0.0
 11
4.33421
 21
7.73876
 31
0.0
  0
LINE
  8
0
 62
     0
 10
4.33421
 20
7.73876
 30
0.0
 11
4.30231
 21
7.01633
 31
0.0
  0
LINE
  8
0
 62
     0
 10
4.30231
 20
7.01633
 30
0.0
 11
4.23958
 21
6.35764
 31
0.0
  0
LINE
  8
0
 62
     0
 10
4.23958
 20
6.35764
 30
0.0
 11
4.14606
 21
5.76281
 31
0.0
  0
LINE
  8
0
 62
     0
 10
4.14606
 20
5.76281
 30
0.0
 11
4.02171
 21
5.23178
 31
0.0
  0
LINE
  8
0
 62
     0
 10
4.02171
 20
5.23178
 30
0.0
 11
3.86654
 21
4.76454
 31
0.0
  0
LINE
  8
0
 62
     0
 10
3.86654
 20
4.76454
 30
0.0
 11
3.68056
 21
4.36111
 31
0.0
  0
LINE
  8
0
 62
     0
 10
3.68056
 20
4.36111
 30
0.0
 11
3.53076
 21
4.10796
 31
0.0
  0
LINE
  8
0
 62
     0
 10
3.53076
 20
4.10796
 30
0.0
 11
3.36262
 21
3.87283
 31
0.0
  0
LINE
  8
0
 62
     0
 10
3.36262
 20
3.87283
 30
0.0
 11
3.17617
 21
3.65571
 31
0.0
  0
LINE
  8
0
 62
     0
 10
3.17617
 20
3.65571
 30
0.0
 11
2.97136
 21
3.4566
 31
0.0
  0
LINE
  8
0
 62
     0
 10
2.97136
 20
3.4566
 30
0.0
 11
2.74821
 21
3.2755
 31
0.0
  0
LINE
  8
0
 62
     0
 10
2.74821
 20
3.2755
 30
0.0
 11
2.50672
 21
3.11242
 31
0.0
  0
LINE
  8
0
 62
     0
 10
2.50672
 20
3.11242
 30
0.0
 11
2.2469
 21
2.96733
 31
0.0
  0
LINE
  8
0
 62
     0
 10
2.2469
 20
2.96733
 30
0.0
 11
1.96875
 21
2.84028
 31
0.0
  0
LINE
  8
0
 62
     0
 10
1.96875
 20
2.84028
 30
0.0
 11
1.67225
 21
2.73122
 31
0.0
  0
LINE
  8
0
 62
     0
 10
1.67225
 20
2.73122
 30
0.0
 11
1.35742
 21
2.64019
 31
0.0
  0
LINE
  8
0
 62
     0
 10
1.35742
 20
2.64019
 30
0.0
 11
1.02425
 21
2.56717
 31
0.0
  0
LINE
  8
0
 62
     0
 10
1.02425
 20
2.56717
 30
0.0
 11
0.672743
 21
2.51215
 31
0.0
  0
LINE
  8
0
 62
     0
 10
0.672743
 20
2.51215
 30
0.0
 11
0.302897
 21
2.47515
 31
0.0
  0
LINE
  8
0
 62
     0
 10
0.302897
 20
2.47515
 30
0.0
 11
-0.0852865
 21
2.45617
 31
0.0
  0
LINE
  8
0
 62
     0
 10
-0.0852865
 20
2.45617
 30
0.0
 11
-0.491808
 21
2.45518
 31
0.0
  0
LINE
  8
0
 62
     0
 10
-0.491808
 20
2.45518
 30
0.0
 11
-0.916667
 21
2.47222
 31
0.0
  0
LINE
  8
0
 62
     0
 10
-0.916667
 20
2.47222
 30
0.0
 11
-1.04216
 21
2.47114
 31
0.0
  0
LINE
  8
0
 62
     0
 10
-1.04216
 20
2.47114
 30
0.0
 11
-1.18235
 21
2.454
 31
0.0
  0
LINE
  8
0
 62
     0
 10
-1.18235
 20
2.454
 30
0.0
 11
-1.33729
 21
2.42079
 31
0.0
  0
LINE
  8
0
 62
     0
 10
-1.33729
 20
2.42079
 30
0.0
 11
-1.507
 21
2.37153
 31
0.0
  0
LINE
  8
0
 62
     0
 10
-1.507
 20
2.37153
 30
0.0
 11
-1.69146
 21
2.30621
 31
0.0
  0
LINE
  8
0
 62
     0
 10
-1.69146
 20
2.30621
 30
0.0
 11
-1.89068
 21
2.22483
 31
0.0
  0
LINE
  8
0
 62
     0
 10
-1.89068
 20
2.22483
 30
0.0
 11
-2.10465
 21
2.12739
 31
0.0
  0
LINE
  8
0
 62
     0
 10
-2.10465
 20
2.12739
 30
0.0
 11
-2.33333
 21
2.01389
 31
0.0
  0
LINE
  8
0
 62
     0
 10
-2.33333
 20
2.01389
 30
0.0
 11
-2.50786
 21
1.92019
 31
0.0
  0
LINE
  8
0
 62
     0
 10
-2.50786
 20
1.92019
 30
0.0
 11
-2.64242
 21
1.83339
 31
0.0
  0
LINE
  8
0
 62
     0
 10
-2.64242
 20
1.83339
 30
0.0
 11
-2.73703
 21
1.75353
 31
0.0
  0
LINE
  8
0
 62
     0
 10
-2.73703
 20
1.75353
 30
0.0
 11
-2.79167
 21
1.68056
 31
0.0
  0
LINE
  8
0
 62
     0
 10
-2.79167
 20
1.68056
 30
0.0
 11
-2.80208
 21
1.6059
 31
0.0
  0
LINE
  8
0
 62
     0
 10
-2.80208
 20
1.6059
 30
0.0
 11
-2.75
 21
1.54861
 31
0.0
  0
LINE
  8
0
 62
     0
 10
-2.75
 20
1.54861
 30
0.0
 11
-2.63542
 21
1.50868
 31
0.0
  0
LINE
  8
0
 62
     0
 10
-2.63542
 20
1.50868
 30
0.0
 11
-2.45833
 21
1.48611
 31
0.0
  0
LINE
  8
0
 62
     0
 10
-2.45833
 20
1.48611
 30
0.0
 11
-1.93901
 21
1.46218
 31
0.0
  0
LINE
  8
0
 62
     0
 10
-1.93901
 20
1.46218
 30
0.0
 11
-1.43474
 21
1.45275
 31
0.0
  0
LINE
  8
0
 62
     0
 10
-1.43474
 20
1.45275
 30
0.0
 11
-0.945637
 21
1.45796
 31
0.0
  0
LINE
  8
0
 62
     0
 10
-0.945637
 20
1.45796
 30
0.0
 11
-0.471571
 21
1.47765
 31
0.0
  0
LINE
  8
0
 62
     0
 10
-0.471571
 20
1.47765
 30
0.0
 11
-0.0126953
 21
1.51199
 31
0.0
  0
LINE
  8
0
 62
     0
 10
-0.0126953
 20
1.51199
 30
0.0
 11
0.431153
 21
1.56082
 31
0.0
  0
LINE
  8
0
 62
     0
 10
0.431153
 20
1.56082
 30
0.0
 11
0.85981
 21
1.62429
 31
0.0
  0
LINE
  8
0
 62
     0
 10
0.85981
 20
1.62429
 30
0.0
 11
1.27344
 21
1.70226
 31
0.0
  0
LINE
  8
0
 62
     0
 10
1.27344
 20
1.70226
 30
0.0
 11
1.67188
 21
1.79486
 31
0.0
  0
LINE
  8
0
 62
     0
 10
1.67188
 20
1.79486
 30
0.0
 11
2.05528
 21
1.90196
 31
0.0
  0
LINE
  8
0
 62
     0
 10
2.05528
 20
1.90196
 30
0.0
 11
2.4235
 21
2.02371
 31
0.0
  0
LINE
  8
0
 62
     0
 10
2.4235
 20
2.02371
 30
0.0
 11
2.77669
 21
2.15994
 31
0.0
  0
LINE
  8
0
 62
     0
 10
2.77669
 20
2.15994
 30
0.0
 11
3.11469
 21
2.31082
 31
0.0
  0
LINE
  8
0
 62
     0
 10
3.11469
 20
2.31082
 30
0.0
 11
3.43767
 21
2.47618
 31
0.0
  0
LINE
  8
0
 62
     0
 10
3.43767
 20
2.47618
 30
0.0
 11
3.74544
 21
2.65619
 31
0.0
  0
LINE
  8
0
 62
     0
 10
3.74544
 20
2.65619
 30
0.0
 11
4.03819
 21
2.85069
 31
0.0
  0
LINE
  8
0
 62
     0
 10
4.03819
 20
2.85069
 30
0.0
 11
4.31575
 21
3.05985
 31
0.0
  0
LINE
  8
0
 62
     0
 10
4.31575
 20
3.05985
 30
0.0
 11
4.57829
 21
3.28347
 31
0.0
  0
LINE
  8
0
 62
     0
 10
4.57829
 20
3.28347
 30
0.0
 11
4.82563
 21
3.52175
 31
0.0
  0
LINE
  8
0
 62
     0
 10
4.82563
 20
3.52175
 30
0.0
 11
5.05794
 21
3.77453
 31
0.0
  0
LINE
  8
0
 62
     0
 10
5.05794
 20
3.77453
 30
0.0
 11
5.27507
 21
4.04194
 31
0.0
  0
LINE
  8
0
 62
     0
 10
5.27507
 20
4.04194
 30
0.0
 11
5.47715
 21
4.32383
 31
0.0
  0
LINE
  8
0
 62
     0
 10
5.47715
 20
4.32383
 30
0.0
 11
5.66407
 21
4.62039
 31
0.0
  0
LINE
  8
0
 62
     0
 10
5.66407
 20
4.62039
 30
0.0
 11
5.83594
 21
4.93143
 31
0.0
  0
LINE
  8
0
 62
     0
 10
5.83594
 20
4.93143
 30
0.0
 11
5.99262
 21
5.25711
 31
0.0
  0
LINE
  8
0
 62
     0
 10
5.99262
 20
5.25711
 30
0.0
 11
6.13428
 21
5.59728
 31
0.0
  0
LINE
  8
0
 62
     0
 10
6.13428
 20
5.59728
 30
0.0
 11
6.26074
 21
5.9521
 31
0.0
  0
LINE
  8
0
 62
     0
 10
6.26074
 20
5.9521
 30
0.0
 11
6.37218
 21
6.3214
 31
0.0
  0
LINE
  8
0
 62
     0
 10
6.37218
 20
6.3214
 30
0.0
 11
6.46843
 21
6.70535
 31
0.0
  0
LINE
  8
0
 62
     0
 10
6.46843
 20
6.70535
 30
0.0
 11
6.54964
 21
7.10379
 31
0.0
  0
LINE
  8
0
 62
     0
 10
6.54964
 20
7.10379
 30
0.0
 11
6.61567
 21
7.51688
 31
0.0
  0
LINE
  8
0
 62
     0
 10
6.61567
 20
7.51688
 30
0.0
 11
6.66667
 21
7.94444
 31
0.0
  0
LINE
  8
0
 62
     0
 10
6.66667
 20
7.94444
 30
0.0
 11
6.69982
 21
8.31537
 31
0.0
  0
LINE
  8
0
 62
     0
 10
6.69982
 20
8.31537
 30
0.0
 11
6.72304
 21
8.7405
 31
0.0
  0
LINE
  8
0
 62
     0
 10
6.72304
 20
8.7405
 30
0.0
 11
6.73628
 21
9.21989
 31
0.0
  0
LINE
  8
0
 62
     0
 10
6.73628
 20
9.21989
 30
0.0
 11
6.73953
 21
9.75353
 31
0.0
  0
LINE
  8
0
 62
     0
 10
6.73953
 20
9.75353
 30
0.0
 11
6.73281
 21
10.3414
 31
0.0
  0
LINE
  8
0
 62
     0
 10
6.73281
 20
10.3414
 30
0.0
 11
6.7161
 21
10.9836
 31
0.0
  0
LINE
  8
0
 62
     0
 10
6.7161
 20
10.9836
 30
0.0
 11
6.6894
 21
11.68
 31
0.0
  0
LINE
  8
0
 62
     0
 10
6.6894
 20
11.68
 30
0.0
 11
6.65278
 21
12.4306
 31
0.0
  0
LINE
  8
0
 62
     0
 10
6.65278
 20
12.4306
 30
0.0
 11
6.62067
 21
13.1387
 31
0.0
  0
LINE
  8
0
 62
     0
 10
6.62067
 20
13.1387
 30
0.0
 11
6.60069
 21
13.8047
 31
0.0
  0
LINE
  8
0
 62
     0
 10
6.60069
 20
13.8047
 30
0.0
 11
6.59289
 21
14.4286
 31
0.0
  0
LINE
  8
0
 62
     0
 10
6.59289
 20
14.4286
 30
0.0
 11
6.59722
 21
15.0104
 31
0.0
  0
LINE
  8
0
 62
     0
 10
6.59722
 20
15.0104
 30
0.0
 11
6.61372
 21
15.5501
 31
0.0
  0
LINE
  8
0
 62
     0
 10
6.61372
 20
15.5501
 30
0.0
 11
6.64236
 21
16.0478
 31
0.0
  0
LINE
  8
0
 62
     0
 10
6.64236
 20
16.0478
 30
0.0
 11
6.68317
 21
16.5033
 31
0.0
  0
LINE
  8
0
 62
     0
 10
6.68317
 20
16.5033
 30
0.0
 11
6.73611
 21
16.9167
 31
0.0
  0
LINE
  8
0
 62
     0
 10
6.73611
 20
16.9167
 30
0.0
 11
6.77647
 21
17.1411
 31
0.0
  0
LINE
  8
0
 62
     0
 10
6.77647
 20
17.1411
 30
0.0
 11
6.82813
 21
17.349
 31
0.0
  0
LINE
  8
0
 62
     0
 10
6.82813
 20
17.349
 30
0.0
 11
6.89106
 21
17.5404
 31
0.0
  0
LINE
  8
0
 62
     0
 10
6.89106
 20
17.5404
 30
0.0
 11
6.96528
 21
17.7153
 31
0.0
  0
LINE
  8
0
 62
     0
 10
6.96528
 20
17.7153
 30
0.0
 11
7.05078
 21
17.8738
 31
0.0
  0
LINE
  8
0
 62
     0
 10
7.05078
 20
17.8738
 30
0.0
 11
7.14757
 21
18.0157
 31
0.0
  0
LINE
  8
0
 62
     0
 10
7.14757
 20
18.0157
 30
0.0
 11
7.25564
 21
18.1411
 31
0.0
  0
LINE
  8
0
 62
     0
 10
7.25564
 20
18.1411
 30
0.0
 11
7.375
 21
18.25
 31
0.0
  0
LINE
  8
0
 62
     0
 10
7.375
 20
18.25
 30
0.0
 11
7.61719
 21
18.4089
 31
0.0
  0
LINE
  8
0
 62
     0
 10
7.61719
 20
18.4089
 30
0.0
 11
7.88542
 21
18.5104
 31
0.0
  0
LINE
  8
0
 62
     0
 10
7.88542
 20
18.5104
 30
0.0
 11
8.17969
 21
18.5547
 31
0.0
  0
LINE
  8
0
 62
     0
 10
8.17969
 20
18.5547
 30
0.0
 11
8.5
 21
18.5417
 31
0.0
  0
LINE
  8
0
 62
     0
 10
8.5
 20
18.5417
 30
0.0
 11
8.83963
 21
18.4737
 31
0.0
  0
LINE
  8
0
 62
     0
 10
8.83963
 20
18.4737
 30
0.0
 11
9.16407
 21
18.3672
 31
0.0
  0
LINE
  8
0
 62
     0
 10
9.16407
 20
18.3672
 30
0.0
 11
9.47331
 21
18.2221
 31
0.0
  0
LINE
  8
0
 62
     0
 10
9.47331
 20
18.2221
 30
0.0
 11
9.76736
 21
18.0382
 31
0.0
  0
LINE
  8
0
 62
     0
 10
9.76736
 20
18.0382
 30
0.0
 11
10.0462
 21
17.8158
 31
0.0
  0
LINE
  8
0
 62
     0
 10
10.0462
 20
17.8158
 30
0.0
 11
10.3099
 21
17.5547
 31
0.0
  0
LINE
  8
0
 62
     0
 10
10.3099
 20
17.5547
 30
0.0
 11
10.5584
 21
17.255
 31
0.0
  0
LINE
  8
0
 62
     0
 10
10.5584
 20
17.255
 30
0.0
 11
10.7917
 21
16.9167
 31
0.0
  0
LINE
  8
0
 62
     0
 10
10.7917
 20
16.9167
 30
0.0
 11
10.9847
 21
16.5764
 31
0.0
  0
LINE
  8
0
 62
     0
 10
10.9847
 20
16.5764
 30
0.0
 11
11.1336
 21
16.2292
 31
0.0
  0
LINE
  8
0
 62
     0
 10
11.1336
 20
16.2292
 30
0.0
 11
11.2382
 21
15.875
 31
0.0
  0
LINE
  8
0
 62
     0
 10
11.2382
 20
15.875
 30
0.0
 11
11.2986
 21
15.5139
 31
0.0
  0
LINE
  8
0
 62
     0
 10
11.2986
 20
15.5139
 30
0.0
 11
11.3147
 21
15.1458
 31
0.0
  0
LINE
  8
0
 62
     0
 10
11.3147
 20
15.1458
 30
0.0
 11
11.2865
 21
14.7708
 31
0.0
  0
LINE
  8
0
 62
     0
 10
11.2865
 20
14.7708
 30
0.0
 11
11.214
 21
14.3889
 31
0.0
  0
LINE
  8
0
 62
     0
 10
11.214
 20
14.3889
 30
0.0
 11
11.0972
 21
14
 31
0.0
  0
LINE
  8
0
 62
     0
 10
11.0972
 20
14
 30
0.0
 11
10.9398
 21
13.6213
 31
0.0
  0
LINE
  8
0
 62
     0
 10
10.9398
 20
13.6213
 30
0.0
 11
10.7526
 21
13.2769
 31
0.0
  0
LINE
  8
0
 62
     0
 10
10.7526
 20
13.2769
 30
0.0
 11
10.5353
 21
12.9668
 31
0.0
  0
LINE
  8
0
 62
     0
 10
10.5353
 20
12.9668
 30
0.0
 11
10.2881
 21
12.691
 31
0.0
  0
LINE
  8
0
 62
     0
 10
10.2881
 20
12.691
 30
0.0
 11
10.011
 21
12.4494
 31
0.0
  0
LINE
  8
0
 62
     0
 10
10.011
 20
12.4494
 30
0.0
 11
9.70394
 21
12.2422
 31
0.0
  0
LINE
  8
0
 62
     0
 10
9.70394
 20
12.2422
 30
0.0
 11
9.36692
 21
12.0692
 31
0.0
  0
LINE
  8
0
 62
     0
 10
9.36692
 20
12.0692
 30
0.0
 11
9
 21
11.9306
 31
0.0
  0
LINE
  8
0
 62
     0
 10
9
 20
11.9306
 30
0.0
 11
8.88362
 21
11.8872
 31
0.0
  0
LINE
  8
0
 62
     0
 10
8.88362
 20
11.8872
 30
0.0
 11
8.75694
 21
11.8264
 31
0.0
  0
LINE
  8
0
 62
     0
 10
8.75694
 20
11.8264
 30
0.0
 11
8.61979
 21
11.7483
 31
0.0
  0
LINE
  8
0
 62
     0
 10
8.61979
 20
11.7483
 30
0.0
 11
8.47222
 21
11.6528
 31
0.0
  0
LINE
  8
0
 62
     0
 10
8.47222
 20
11.6528
 30
0.0
 11
8.29943
 21
11.5174
 31
0.0
  0
LINE
  8
0
 62
     0
 10
8.29943
 20
11.5174
 30
0.0
 11
8.21175
 21
11.4028
 31
0.0
  0
LINE
  8
0
 62
     0
 10
8.21175
 20
11.4028
 30
0.0
 11
8.20915
 21
11.309
 31
0.0
  0
LINE
  8
0
 62
     0
 10
8.20915
 20
11.309
 30
0.0
 11
8.29167
 21
11.2361
 31
0.0
  0
LINE
  8
0
 62
     0
 10
8.29167
 20
11.2361
 30
0.0
 11
9.10758
 21
10.7804
 31
0.0
  0
LINE
  8
0
 62
     0
 10
9.10758
 20
10.7804
 30
0.0
 11
9.81944
 21
10.3299
 31
0.0
  0
LINE
  8
0
 62
     0
 10
9.81944
 20
10.3299
 30
0.0
 11
10.4271
 21
9.88456
 31
0.0
  0
LINE
  8
0
 62
     0
 10
10.4271
 20
9.88456
 30
0.0
 11
10.9306
 21
9.44444
 31
0.0
  0
LINE
  8
0
 62
     0
 10
10.9306
 20
9.44444
 30
0.0
 11
11.2154
 21
9.14626
 31
0.0
  0
LINE
  8
0
 62
     0
 10
11.2154
 20
9.14626
 30
0.0
 11
11.473
 21
8.83507
 31
0.0
  0
LINE
  8
0
 62
     0
 10
11.473
 20
8.83507
 30
0.0
 11
11.7033
 21
8.51085
 31
0.0
  0
LINE
  8
0
 62
     0
 10
11.7033
 20
8.51085
 30
0.0
 11
11.9063
 21
8.17361
 31
0.0
  0
LINE
  8
0
 62
     0
 10
11.9063
 20
8.17361
 30
0.0
 11
12.0818
 21
7.82335
 31
0.0
  0
LINE
  8
0
 62
     0
 10
12.0818
 20
7.82335
 30
0.0
 11
12.23
 21
7.46007
 31
0.0
  0
LINE
  8
0
 62
     0
 10
12.23
 20
7.46007
 30
0.0
 11
12.3509
 21
7.08376
 31
0.0
  0
LINE
  8
0
 62
     0
 10
12.3509
 20
7.08376
 30
0.0
 11
12.4444
 21
6.69444
 31
0.0
  0
LINE
  8
0
 62
     0
 10
12.4444
 20
6.69444
 30
0.0
 11
12.4794
 21
6.40631
 31
0.0
  0
LINE
  8
0
 62
     0
 10
12.4794
 20
6.40631
 30
0.0
 11
12.4731
 21
6.07644
 31
0.0
  0
LINE
  8
0
 62
     0
 10
12.4731
 20
6.07644
 30
0.0
 11
12.4256
 21
5.70492
 31
0.0
  0
LINE
  8
0
 62
     0
 10
12.4256
 20
5.70492
 30
0.0
 11
12.3368
 21
5.29167
 31
0.0
  0
LINE
  8
0
 62
     0
 10
12.3368
 20
5.29167
 30
0.0
 11
12.2068
 21
4.83681
 31
0.0
  0
LINE
  8
0
 62
     0
 10
12.2068
 20
4.83681
 30
0.0
 11
12.0356
 21
4.34028
 31
0.0
  0
LINE
  8
0
 62
     0
 10
12.0356
 20
4.34028
 30
0.0
 11
11.8231
 21
3.80208
 31
0.0
  0
LINE
  8
0
 62
     0
 10
11.8231
 20
3.80208
 30
0.0
 11
11.5694
 21
3.22222
 31
0.0
  0
LINE
  8
0
 62
     0
 10
11.5694
 20
3.22222
 30
0.0
 11
11.2704
 21
2.6166
 31
0.0
  0
LINE
  8
0
 62
     0
 10
11.2704
 20
2.6166
 30
0.0
 11
10.9705
 21
2.10508
 31
0.0
  0
LINE
  8
0
 62
     0
 10
10.9705
 20
2.10508
 30
0.0
 11
10.6697
 21
1.68778
 31
0.0
  0
LINE
  8
0
 62
     0
 10
10.6697
 20
1.68778
 30
0.0
 11
10.3681
 21
1.36464
 31
0.0
  0
LINE
  8
0
 62
     0
 10
10.3681
 20
1.36464
 30
0.0
 11
10.0655
 21
1.13569
 31
0.0
  0
LINE
  8
0
 62
     0
 10
10.0655
 20
1.13569
 30
0.0
 11
9.76215
 21
1.00092
 31
0.0
  0
LINE
  8
0
 62
     0
 10
9.76215
 20
1.00092
 30
0.0
 11
9.4579
 21
0.96034
 31
0.0
  0
LINE
  8
0
 62
     0
 10
9.4579
 20
0.96034
 30
0.0
 11
9.15278
 21
1.01389
 31
0.0
  0
LINE
  8
0
 62
     0
 10
9.15278
 20
1.01389
 30
0.0
 11
9.03597
 21
1.03933
 31
0.0
  0
LINE
  8
0
 62
     0
 10
9.03597
 20
1.03933
 30
0.0
 11
8.90099
 21
1.04606
 31
0.0
  0
LINE
  8
0
 62
     0
 10
8.90099
 20
1.04606
 30
0.0
 11
8.74778
 21
1.03413
 31
0.0
  0
LINE
  8
0
 62
     0
 10
8.74778
 20
1.03413
 30
0.0
 11
8.57639
 21
1.00353
 31
0.0
  0
LINE
  8
0
 62
     0
 10
8.57639
 20
1.00353
 30
0.0
 11
8.38672
 21
0.954264
 31
0.0
  0
LINE
  8
0
 62
     0
 10
8.38672
 20
0.954264
 30
0.0
 11
8.17882
 21
0.886339
 31
0.0
  0
LINE
  8
0
 62
     0
 10
8.17882
 20
0.886339
 30
0.0
 11
7.95269
 21
0.79975
 31
0.0
  0
LINE
  8
0
 62
     0
 10
7.95269
 20
0.79975
 30
0.0
 11
7.70833
 21
0.694444
 31
0.0
  0
LINE
  8
0
 62
     0
 10
7.70833
 20
0.694444
 30
0.0
 11
7.51036
 21
0.605035
 31
0.0
  0
LINE
  8
0
 62
     0
 10
7.51036
 20
0.605035
 30
0.0
 11
7.34717
 21
0.517361
 31
0.0
  0
LINE
  8
0
 62
     0
 10
7.34717
 20
0.517361
 30
0.0
 11
7.21869
 21
0.431424
 31
0.0
  0
LINE
  8
0
 62
     0
 10
7.21869
 20
0.431424
 30
0.0
 11
7.125
 21
0.347222
 31
0.0
  0
LINE
  8
0
 62
     0
 10
7.125
 20
0.347222
 30
0.0
 11
7.06244
 21
0.256999
 31
0.0
  0
LINE
  8
0
 62
     0
 10
7.06244
 20
0.256999
 30
0.0
 11
7.0555
 21
0.18061
 31
0.0
  0
LINE
  8
0
 62
     0
 10
7.0555
 20
0.18061
 30
0.0
 11
7.10411
 21
0.11811
 31
0.0
  0
LINE
  8
0
 62
     0
 10
7.10411
 20
0.11811
 30
0.0
 11
7.20833
 21
0.0694444
 31
0.0
  0
LINE
  8
0
 62
     0
 10
7.20833
 20
0.0694444
 30
0.0
 11
7.65082
 21
-0.0496963
 31
0.0
  0
LINE
  8
0
 62
     0
 10
7.65082
 20
-0.0496963
 30
0.0
 11
8.09636
 21
-0.115451
 31
0.0
  0
LINE
  8
0
 62
     0
 10
8.09636
 20
-0.115451
 30
0.0
 11
8.54492
 21
-0.127821
 31
0.0
  0
LINE
  8
0
 62
     0
 10
8.54492
 20
-0.127821
 30
0.0
 11
8.99653
 21
-0.0868056
 31
0.0
  0
LINE
  8
0
 62
     0
 10
8.99653
 20
-0.0868056
 30
0.0
 11
9.45117
 21
0.00759549
 31
0.0
  0
LINE
  8
0
 62
     0
 10
9.45117
 20
0.00759549
 30
0.0
 11
9.90886
 21
0.155382
 31
0.0
  0
LINE
  8
0
 62
     0
 10
9.90886
 20
0.155382
 30
0.0
 11
10.3696
 21
0.356554
 31
0.0
  0
LINE
  8
0
 62
     0
 10
10.3696
 20
0.356554
 30
0.0
 11
10.8333
 21
0.611111
 31
0.0
  0
LINE
  8
0
 62
     0
 10
10.8333
 20
0.611111
 30
0.0
 11
11.1895
 21
0.840494
 31
0.0
  0
LINE
  8
0
 62
     0
 10
11.1895
 20
0.840494
 30
0.0
 11
11.5425
 21
1.09809
 31
0.0
  0
LINE
  8
0
 62
     0
 10
11.5425
 20
1.09809
 30
0.0
 11
11.8926
 21
1.3839
 31
0.0
  0
LINE
  8
0
 62
     0
 10
11.8926
 20
1.3839
 30
0.0
 11
12.2396
 21
1.69792
 31
0.0
  0
LINE
  8
0
 62
     0
 10
12.2396
 20
1.69792
 30
0.0
 11
12.5836
 21
2.04015
 31
0.0
  0
LINE
  8
0
 62
     0
 10
12.5836
 20
2.04015
 30
0.0
 11
12.9245
 21
2.4106
 31
0.0
  0
LINE
  8
0
 62
     0
 10
12.9245
 20
2.4106
 30
0.0
 11
13.2624
 21
2.80925
 31
0.0
  0
LINE
  8
0
 62
     0
 10
13.2624
 20
2.80925
 30
0.0
 11
13.5972
 21
3.23611
 31
0.0
  0
LINE
  8
0
 62
     0
 10
13.5972
 20
3.23611
 30
0.0
 11
14.0182
 21
3.85379
 31
0.0
  0
LINE
  8
0
 62
     0
 10
14.0182
 20
3.85379
 30
0.0
 11
14.3507
 21
4.47054
 31
0.0
  0
LINE
  8
0
 62
     0
 10
14.3507
 20
4.47054
 30
0.0
 11
14.5947
 21
5.08643
 31
0.0
  0
LINE
  8
0
 62
     0
 10
14.5947
 20
5.08643
 30
0.0
 11
14.75
 21
5.70144
 31
0.0
  0
LINE
  8
0
 62
     0
 10
14.75
 20
5.70144
 30
0.0
 11
14.8169
 21
6.3156
 31
0.0
  0
LINE
  8
0
 62
     0
 10
14.8169
 20
6.3156
 30
0.0
 11
14.7951
 21
6.92888
 31
0.0
  0
LINE
  8
0
 62
     0
 10
14.7951
 20
6.92888
 30
0.0
 11
14.6849
 21
7.54129
 31
0.0
  0
LINE
  8
0
 62
     0
 10
14.6849
 20
7.54129
 30
0.0
 11
14.4861
 21
8.15278
 31
0.0
  0
LINE
  8
0
 62
     0
 10
14.4861
 20
8.15278
 30
0.0
 11
14.2454
 21
8.67188
 31
0.0
  0
LINE
  8
0
 62
     0
 10
14.2454
 20
8.67188
 30
0.0
 11
13.9469
 21
9.17361
 31
0.0
  0
LINE
  8
0
 62
     0
 10
13.9469
 20
9.17361
 30
0.0
 11
13.5909
 21
9.65799
 31
0.0
  0
LINE
  8
0
 62
     0
 10
13.5909
 20
9.65799
 30
0.0
 11
13.177
 21
10.125
 31
0.0
  0
LINE
  8
0
 62
     0
 10
13.177
 20
10.125
 30
0.0
 11
12.7055
 21
10.5747
 31
0.0
  0
LINE
  8
0
 62
     0
 10
12.7055
 20
10.5747
 30
0.0
 11
12.1762
 21
11.0069
 31
0.0
  0
LINE
  8
0
 62
     0
 10
12.1762
 20
11.0069
 30
0.0
 11
11.5891
 21
11.4219
 31
0.0
  0
LINE
  8
0
 62
     0
 10
11.5891
 20
11.4219
 30
0.0
 11
10.9444
 21
11.8194
 31
0.0
  0
LINE
  8
0
 62
     0
 10
10.9444
 20
11.8194
 30
0.0
 11
11.3548
 21
12.0473
 31
0.0
  0
LINE
  8
0
 62
     0
 10
11.3548
 20
12.0473
 30
0.0
 11
11.7317
 21
12.2934
 31
0.0
  0
LINE
  8
0
 62
     0
 10
11.7317
 20
12.2934
 30
0.0
 11
12.0753
 21
12.5577
 31
0.0
  0
LINE
  8
0
 62
     0
 10
12.0753
 20
12.5577
 30
0.0
 11
12.3854
 21
12.8403
 31
0.0
  0
LINE
  8
0
 62
     0
 10
12.3854
 20
12.8403
 30
0.0
 11
12.6621
 21
13.1411
 31
0.0
  0
LINE
  8
0
 62
     0
 10
12.6621
 20
13.1411
 30
0.0
 11
12.9053
 21
13.4601
 31
0.0
  0
LINE
  8
0
 62
     0
 10
12.9053
 20
13.4601
 30
0.0
 11
13.1152
 21
13.7973
 31
0.0
  0
LINE
  8
0
 62
     0
 10
13.1152
 20
13.7973
 30
0.0
 11
13.2917
 21
14.1528
 31
0.0
  0
ENDSEC
  0
EOF
