  0
SECTION
  2
HEADER
  9
$ACADVER
  1
AC1009
  9
$EXTMIN
 10
0.0
 20
0.0
 30
0.0
  9
$EXTMAX
 10
1000.0
 20
1000.0
 30
0.0
  9
$FILLMODE
 70
 0
  9
$SPLFRAME
 70
 1
  0
ENDSEC
  0
SECTION
  2
TABLES
  0
TABLE
  2
LAYER
 70
1
  0
LAYER
  2
0
 70
     0
 62
     7
  6
CONTINUOUS
  0
ENDTAB
  0
ENDSEC
  0
SECTION
  2
ENTITIES
  0
LINE
  8
0
 62
     0
 10
5.79167
 20
16.3889
 30
0.0
 11
6.07394
 21
16.2558
 31
0.0
  0
LINE
  8
0
 62
     0
 10
6.07394
 20
16.2558
 30
0.0
 11
6.38624
 21
16.1137
 31
0.0
  0
LINE
  8
0
 62
     0
 10
6.38624
 20
16.1137
 30
0.0
 11
6.72846
 21
15.9624
 31
0.0
  0
LINE
  8
0
 62
     0
 10
6.72846
 20
15.9624
 30
0.0
 11
7.10069
 21
15.8021
 31
0.0
  0
LINE
  8
0
 62
     0
 10
7.10069
 20
15.8021
 30
0.0
 11
7.50282
 21
15.6325
 31
0.0
  0
LINE
  8
0
 62
     0
 10
7.50282
 20
15.6325
 30
0.0
 11
7.9349
 21
15.454
 31
0.0
  0
LINE
  8
0
 62
     0
 10
7.9349
 20
15.454
 30
0.0
 11
8.39692
 21
15.2663
 31
0.0
  0
LINE
  8
0
 62
     0
 10
8.39692
 20
15.2663
 30
0.0
 11
8.88889
 21
15.0694
 31
0.0
  0
LINE
  8
0
 62
     0
 10
8.88889
 20
15.0694
 30
0.0
 11
8.97564
 21
15.0435
 31
0.0
  0
LINE
  8
0
 62
     0
 10
8.97564
 20
15.0435
 30
0.0
 11
9.08333
 21
15.0347
 31
0.0
  0
LINE
  8
0
 62
     0
 10
9.08333
 20
15.0347
 30
0.0
 11
9.21181
 21
15.0435
 31
0.0
  0
LINE
  8
0
 62
     0
 10
9.21181
 20
15.0435
 30
0.0
 11
9.36111
 21
15.0694
 31
0.0
  0
LINE
  8
0
 62
     0
 10
9.36111
 20
15.0694
 30
0.0
 11
9.65972
 21
15.1563
 31
0.0
  0
LINE
  8
0
 62
     0
 10
9.65972
 20
15.1563
 30
0.0
 11
9.94444
 21
15.2778
 31
0.0
  0
LINE
  8
0
 62
     0
 10
9.94444
 20
15.2778
 30
0.0
 11
10.177
 21
15.4167
 31
0.0
  0
LINE
  8
0
 62
     0
 10
10.177
 20
15.4167
 30
0.0
 11
10.3194
 21
15.5556
 31
0.0
  0
LINE
  8
0
 62
     0
 10
10.3194
 20
15.5556
 30
0.0
 11
10.3429
 21
15.6338
 31
0.0
  0
LINE
  8
0
 62
     0
 10
10.3429
 20
15.6338
 30
0.0
 11
10.3299
 21
15.7014
 31
0.0
  0
LINE
  8
0
 62
     0
 10
10.3299
 20
15.7014
 30
0.0
 11
10.2804
 21
15.7588
 31
0.0
  0
LINE
  8
0
 62
     0
 10
10.2804
 20
15.7588
 30
0.0
 11
10.1944
 21
15.8056
 31
0.0
  0
LINE
  8
0
 62
     0
 10
10.1944
 20
15.8056
 30
0.0
 11
9.21983
 21
16.2029
 31
0.0
  0
LINE
  8
0
 62
     0
 10
9.21983
 20
16.2029
 30
0.0
 11
8.31685
 21
16.5894
 31
0.0
  0
LINE
  8
0
 62
     0
 10
8.31685
 20
16.5894
 30
0.0
 11
7.48546
 21
16.965
 31
0.0
  0
LINE
  8
0
 62
     0
 10
7.48546
 20
16.965
 30
0.0
 11
6.72569
 21
17.3299
 31
0.0
  0
LINE
  8
0
 62
     0
 10
6.72569
 20
17.3299
 30
0.0
 11
6.03754
 21
17.6837
 31
0.0
  0
LINE
  8
0
 62
     0
 10
6.03754
 20
17.6837
 30
0.0
 11
5.42101
 21
18.0269
 31
0.0
  0
LINE
  8
0
 62
     0
 10
5.42101
 20
18.0269
 30
0.0
 11
4.87608
 21
18.3592
 31
0.0
  0
LINE
  8
0
 62
     0
 10
4.87608
 20
18.3592
 30
0.0
 11
4.40278
 21
18.6806
 31
0.0
  0
LINE
  8
0
 62
     0
 10
4.40278
 20
18.6806
 30
0.0
 11
4.31597
 21
18.7275
 31
0.0
  0
LINE
  8
0
 62
     0
 10
4.31597
 20
18.7275
 30
0.0
 11
4.20833
 21
18.7569
 31
0.0
  0
LINE
  8
0
 62
     0
 10
4.20833
 20
18.7569
 30
0.0
 11
4.07981
 21
18.7692
 31
0.0
  0
LINE
  8
0
 62
     0
 10
4.07981
 20
18.7692
 30
0.0
 11
3.93056
 21
18.7639
 31
0.0
  0
LINE
  8
0
 62
     0
 10
3.93056
 20
18.7639
 30
0.0
 11
3.63542
 21
18.7083
 31
0.0
  0
LINE
  8
0
 62
     0
 10
3.63542
 20
18.7083
 30
0.0
 11
3.33333
 21
18.5972
 31
0.0
  0
LINE
  8
0
 62
     0
 10
3.33333
 20
18.5972
 30
0.0
 11
3.07986
 21
18.4688
 31
0.0
  0
LINE
  8
0
 62
     0
 10
3.07986
 20
18.4688
 30
0.0
 11
2.90278
 21
18.3333
 31
0.0
  0
LINE
  8
0
 62
     0
 10
2.90278
 20
18.3333
 30
0.0
 11
2.84457
 21
18.2596
 31
0.0
  0
LINE
  8
0
 62
     0
 10
2.84457
 20
18.2596
 30
0.0
 11
2.82286
 21
18.191
 31
0.0
  0
LINE
  8
0
 62
     0
 10
2.82286
 20
18.191
 30
0.0
 11
2.83763
 21
18.1276
 31
0.0
  0
LINE
  8
0
 62
     0
 10
2.83763
 20
18.1276
 30
0.0
 11
2.88889
 21
18.0694
 31
0.0
  0
LINE
  8
0
 62
     0
 10
2.88889
 20
18.0694
 30
0.0
 11
3.52865
 21
17.6311
 31
0.0
  0
LINE
  8
0
 62
     0
 10
3.52865
 20
17.6311
 30
0.0
 11
4.22569
 21
17.2049
 31
0.0
  0
LINE
  8
0
 62
     0
 10
4.22569
 20
17.2049
 30
0.0
 11
4.97999
 21
16.7908
 31
0.0
  0
LINE
  8
0
 62
     0
 10
4.97999
 20
16.7908
 30
0.0
 11
5.79167
 21
16.3889
 31
0.0
  0
ENDSEC
  0
EOF
