  0
SECTION
  2
HEADER
  9
$ACADVER
  1
AC1009
  9
$EXTMIN
 10
0.0
 20
0.0
 30
0.0
  9
$EXTMAX
 10
1000.0
 20
1000.0
 30
0.0
  9
$FILLMODE
 70
 0
  9
$SPLFRAME
 70
 1
  0
ENDSEC
  0
SECTION
  2
TABLES
  0
TABLE
  2
LAYER
 70
1
  0
LAYER
  2
0
 70
     0
 62
     7
  6
CONTINUOUS
  0
ENDTAB
  0
ENDSEC
  0
SECTION
  2
ENTITIES
  0
LINE
  8
0
 62
     0
 10
10.0556
 20
10.4306
 30
0.0
 11
10.3333
 21
10.5799
 31
0.0
  0
LINE
  8
0
 62
     0
 10
10.3333
 20
10.5799
 30
0.0
 11
10.5833
 21
10.7778
 31
0.0
  0
LINE
  8
0
 62
     0
 10
10.5833
 20
10.7778
 30
0.0
 11
10.7065
 21
10.9297
 31
0.0
  0
LINE
  8
0
 62
     0
 10
10.7065
 20
10.9297
 30
0.0
 11
10.7569
 21
11.066
 31
0.0
  0
LINE
  8
0
 62
     0
 10
10.7569
 20
11.066
 30
0.0
 11
10.7344
 21
11.1867
 31
0.0
  0
LINE
  8
0
 62
     0
 10
10.7344
 20
11.1867
 30
0.0
 11
10.6389
 21
11.2917
 31
0.0
  0
LINE
  8
0
 62
     0
 10
10.6389
 20
11.2917
 30
0.0
 11
9.94075
 21
11.7882
 31
0.0
  0
LINE
  8
0
 62
     0
 10
9.94075
 20
11.7882
 30
0.0
 11
9.30469
 21
12.2639
 31
0.0
  0
LINE
  8
0
 62
     0
 10
9.30469
 20
12.2639
 30
0.0
 11
8.73068
 21
12.7188
 31
0.0
  0
LINE
  8
0
 62
     0
 10
8.73068
 20
12.7188
 30
0.0
 11
8.21875
 21
13.1528
 31
0.0
  0
LINE
  8
0
 62
     0
 10
8.21875
 20
13.1528
 30
0.0
 11
7.76888
 21
13.566
 31
0.0
  0
LINE
  8
0
 62
     0
 10
7.76888
 20
13.566
 30
0.0
 11
7.38108
 21
13.9583
 31
0.0
  0
LINE
  8
0
 62
     0
 10
7.38108
 20
13.9583
 30
0.0
 11
7.05533
 21
14.3299
 31
0.0
  0
LINE
  8
0
 62
     0
 10
7.05533
 20
14.3299
 30
0.0
 11
6.79167
 21
14.6806
 31
0.0
  0
LINE
  8
0
 62
     0
 10
6.79167
 20
14.6806
 30
0.0
 11
6.65707
 21
14.8135
 31
0.0
  0
LINE
  8
0
 62
     0
 10
6.65707
 20
14.8135
 30
0.0
 11
6.47564
 21
14.9063
 31
0.0
  0
LINE
  8
0
 62
     0
 10
6.47564
 20
14.9063
 30
0.0
 11
6.24735
 21
14.9593
 31
0.0
  0
LINE
  8
0
 62
     0
 10
6.24735
 20
14.9593
 30
0.0
 11
5.97222
 21
14.9722
 31
0.0
  0
LINE
  8
0
 62
     0
 10
5.97222
 20
14.9722
 30
0.0
 11
5.70654
 21
14.9583
 31
0.0
  0
LINE
  8
0
 62
     0
 10
5.70654
 20
14.9583
 30
0.0
 11
5.42356
 21
14.9167
 31
0.0
  0
LINE
  8
0
 62
     0
 10
5.42356
 20
14.9167
 30
0.0
 11
5.12321
 21
14.8472
 31
0.0
  0
LINE
  8
0
 62
     0
 10
5.12321
 20
14.8472
 30
0.0
 11
4.80556
 21
14.75
 31
0.0
  0
LINE
  8
0
 62
     0
 10
4.80556
 20
14.75
 30
0.0
 11
4.50868
 21
14.6415
 31
0.0
  0
LINE
  8
0
 62
     0
 10
4.50868
 20
14.6415
 30
0.0
 11
4.24306
 21
14.5243
 31
0.0
  0
LINE
  8
0
 62
     0
 10
4.24306
 20
14.5243
 30
0.0
 11
4.00868
 21
14.3985
 31
0.0
  0
LINE
  8
0
 62
     0
 10
4.00868
 20
14.3985
 30
0.0
 11
3.80556
 21
14.2639
 31
0.0
  0
LINE
  8
0
 62
     0
 10
3.80556
 20
14.2639
 30
0.0
 11
3.63108
 21
14.1258
 31
0.0
  0
LINE
  8
0
 62
     0
 10
3.63108
 20
14.1258
 30
0.0
 11
3.52431
 21
14.0035
 31
0.0
  0
LINE
  8
0
 62
     0
 10
3.52431
 20
14.0035
 30
0.0
 11
3.48525
 21
13.8967
 31
0.0
  0
LINE
  8
0
 62
     0
 10
3.48525
 20
13.8967
 30
0.0
 11
3.51389
 21
13.8056
 31
0.0
  0
LINE
  8
0
 62
     0
 10
3.51389
 20
13.8056
 30
0.0
 11
3.80686
 21
13.407
 31
0.0
  0
LINE
  8
0
 62
     0
 10
3.80686
 20
13.407
 30
0.0
 11
4.1441
 21
13.0027
 31
0.0
  0
LINE
  8
0
 62
     0
 10
4.1441
 20
13.0027
 30
0.0
 11
4.52561
 21
12.5927
 31
0.0
  0
LINE
  8
0
 62
     0
 10
4.52561
 20
12.5927
 30
0.0
 11
4.95139
 21
12.1771
 31
0.0
  0
LINE
  8
0
 62
     0
 10
4.95139
 20
12.1771
 30
0.0
 11
5.42144
 21
11.7559
 31
0.0
  0
LINE
  8
0
 62
     0
 10
5.42144
 20
11.7559
 30
0.0
 11
5.93576
 21
11.329
 31
0.0
  0
LINE
  8
0
 62
     0
 10
5.93576
 20
11.329
 30
0.0
 11
6.49436
 21
10.8965
 31
0.0
  0
LINE
  8
0
 62
     0
 10
6.49436
 20
10.8965
 30
0.0
 11
7.09722
 21
10.4583
 31
0.0
  0
LINE
  8
0
 62
     0
 10
7.09722
 20
10.4583
 30
0.0
 11
6.25754
 21
9.9751
 31
0.0
  0
LINE
  8
0
 62
     0
 10
6.25754
 20
9.9751
 30
0.0
 11
5.47478
 21
9.46272
 31
0.0
  0
LINE
  8
0
 62
     0
 10
5.47478
 20
9.46272
 30
0.0
 11
4.74886
 21
8.92128
 31
0.0
  0
LINE
  8
0
 62
     0
 10
4.74886
 20
8.92128
 30
0.0
 11
4.07981
 21
8.35075
 31
0.0
  0
LINE
  8
0
 62
     0
 10
4.07981
 20
8.35075
 30
0.0
 11
3.46761
 21
7.75114
 31
0.0
  0
LINE
  8
0
 62
     0
 10
3.46761
 20
7.75114
 30
0.0
 11
2.91228
 21
7.12244
 31
0.0
  0
LINE
  8
0
 62
     0
 10
2.91228
 20
7.12244
 30
0.0
 11
2.41379
 21
6.46468
 31
0.0
  0
LINE
  8
0
 62
     0
 10
2.41379
 20
6.46468
 30
0.0
 11
1.97222
 21
5.77778
 31
0.0
  0
LINE
  8
0
 62
     0
 10
1.97222
 20
5.77778
 30
0.0
 11
1.93425
 21
5.69532
 31
0.0
  0
LINE
  8
0
 62
     0
 10
1.93425
 20
5.69532
 30
0.0
 11
1.92449
 21
5.62153
 31
0.0
  0
LINE
  8
0
 62
     0
 10
1.92449
 20
5.62153
 30
0.0
 11
1.94293
 21
5.55643
 31
0.0
  0
LINE
  8
0
 62
     0
 10
1.94293
 20
5.55643
 30
0.0
 11
1.98958
 21
5.5
 31
0.0
  0
LINE
  8
0
 62
     0
 10
1.98958
 20
5.5
 30
0.0
 11
2.06446
 21
5.45226
 31
0.0
  0
LINE
  8
0
 62
     0
 10
2.06446
 20
5.45226
 30
0.0
 11
2.16754
 21
5.41319
 31
0.0
  0
LINE
  8
0
 62
     0
 10
2.16754
 20
5.41319
 30
0.0
 11
2.29883
 21
5.38282
 31
0.0
  0
LINE
  8
0
 62
     0
 10
2.29883
 20
5.38282
 30
0.0
 11
2.45833
 21
5.36111
 31
0.0
  0
LINE
  8
0
 62
     0
 10
2.45833
 20
5.36111
 30
0.0
 11
2.90625
 21
5.33697
 31
0.0
  0
LINE
  8
0
 62
     0
 10
2.90625
 20
5.33697
 30
0.0
 11
3.30556
 21
5.375
 31
0.0
  0
LINE
  8
0
 62
     0
 10
3.30556
 20
5.375
 30
0.0
 11
3.66342
 21
5.4445
 31
0.0
  0
LINE
  8
0
 62
     0
 10
3.66342
 20
5.4445
 30
0.0
 11
3.98699
 21
5.52783
 31
0.0
  0
LINE
  8
0
 62
     0
 10
3.98699
 20
5.52783
 30
0.0
 11
4.27626
 21
5.62506
 31
0.0
  0
LINE
  8
0
 62
     0
 10
4.27626
 20
5.62506
 30
0.0
 11
4.53125
 21
5.73617
 31
0.0
  0
LINE
  8
0
 62
     0
 10
4.53125
 20
5.73617
 30
0.0
 11
4.75196
 21
5.86117
 31
0.0
  0
LINE
  8
0
 62
     0
 10
4.75196
 20
5.86117
 30
0.0
 11
4.93837
 21
6.00006
 31
0.0
  0
LINE
  8
0
 62
     0
 10
4.93837
 20
6.00006
 30
0.0
 11
5.0905
 21
6.15283
 31
0.0
  0
LINE
  8
0
 62
     0
 10
5.0905
 20
6.15283
 30
0.0
 11
5.20833
 21
6.31944
 31
0.0
  0
LINE
  8
0
 62
     0
 10
5.20833
 20
6.31944
 30
0.0
 11
5.62131
 21
6.94883
 31
0.0
  0
LINE
  8
0
 62
     0
 10
5.62131
 20
6.94883
 30
0.0
 11
6.08942
 21
7.54519
 31
0.0
  0
LINE
  8
0
 62
     0
 10
6.08942
 20
7.54519
 30
0.0
 11
6.61263
 21
8.10856
 31
0.0
  0
LINE
  8
0
 62
     0
 10
6.61263
 20
8.10856
 30
0.0
 11
7.19097
 21
8.63894
 31
0.0
  0
LINE
  8
0
 62
     0
 10
7.19097
 20
8.63894
 30
0.0
 11
7.82443
 21
9.13633
 31
0.0
  0
LINE
  8
0
 62
     0
 10
7.82443
 20
9.13633
 30
0.0
 11
8.51303
 21
9.60075
 31
0.0
  0
LINE
  8
0
 62
     0
 10
8.51303
 20
9.60075
 30
0.0
 11
9.25672
 21
10.0322
 31
0.0
  0
LINE
  8
0
 62
     0
 10
9.25672
 20
10.0322
 30
0.0
 11
10.0556
 21
10.4306
 31
0.0
  0
ENDSEC
  0
EOF
