  0
SECTION
  2
HEADER
  9
$ACADVER
  1
AC1009
  9
$EXTMIN
 10
0.0
 20
0.0
 30
0.0
  9
$EXTMAX
 10
1000.0
 20
1000.0
 30
0.0
  9
$FILLMODE
 70
 0
  9
$SPLFRAME
 70
 1
  0
ENDSEC
  0
SECTION
  2
TABLES
  0
TABLE
  2
LAYER
 70
1
  0
LAYER
  2
0
 70
     0
 62
     7
  6
CONTINUOUS
  0
ENDTAB
  0
ENDSEC
  0
SECTION
  2
ENTITIES
  0
LINE
  8
0
 62
     0
 10
26.6667
 20
6.84722
 30
0.0
 11
25.9054
 21
7.09462
 31
0.0
  0
LINE
  8
0
 62
     0
 10
25.9054
 20
7.09462
 30
0.0
 11
25.2326
 21
7.35069
 31
0.0
  0
LINE
  8
0
 62
     0
 10
25.2326
 20
7.35069
 30
0.0
 11
24.6483
 21
7.61546
 31
0.0
  0
LINE
  8
0
 62
     0
 10
24.6483
 20
7.61546
 30
0.0
 11
24.1528
 21
7.88889
 31
0.0
  0
LINE
  8
0
 62
     0
 10
24.1528
 20
7.88889
 30
0.0
 11
24.0122
 21
7.98525
 31
0.0
  0
LINE
  8
0
 62
     0
 10
24.0122
 20
7.98525
 30
0.0
 11
23.9236
 21
8.07986
 31
0.0
  0
LINE
  8
0
 62
     0
 10
23.9236
 20
8.07986
 30
0.0
 11
23.8872
 21
8.17275
 31
0.0
  0
LINE
  8
0
 62
     0
 10
23.8872
 20
8.17275
 30
0.0
 11
23.9028
 21
8.26389
 31
0.0
  0
LINE
  8
0
 62
     0
 10
23.9028
 20
8.26389
 30
0.0
 11
23.9279
 21
8.30122
 31
0.0
  0
LINE
  8
0
 62
     0
 10
23.9279
 20
8.30122
 30
0.0
 11
23.9618
 21
8.34375
 31
0.0
  0
LINE
  8
0
 62
     0
 10
23.9618
 20
8.34375
 30
0.0
 11
24.0043
 21
8.39154
 31
0.0
  0
LINE
  8
0
 62
     0
 10
24.0043
 20
8.39154
 30
0.0
 11
24.0556
 21
8.44444
 31
0.0
  0
LINE
  8
0
 62
     0
 10
24.0556
 20
8.44444
 30
0.0
 11
24.1736
 21
8.57986
 31
0.0
  0
LINE
  8
0
 62
     0
 10
24.1736
 20
8.57986
 30
0.0
 11
24.25
 21
8.68056
 31
0.0
  0
LINE
  8
0
 62
     0
 10
24.25
 20
8.68056
 30
0.0
 11
24.4965
 21
9.00087
 31
0.0
  0
LINE
  8
0
 62
     0
 10
24.4965
 20
9.00087
 30
0.0
 11
24.7639
 21
9.33681
 31
0.0
  0
LINE
  8
0
 62
     0
 10
24.7639
 20
9.33681
 30
0.0
 11
25.0521
 21
9.68837
 31
0.0
  0
LINE
  8
0
 62
     0
 10
25.0521
 20
9.68837
 30
0.0
 11
25.3611
 21
10.0556
 31
0.0
  0
LINE
  8
0
 62
     0
 10
25.3611
 20
10.0556
 30
0.0
 11
25.8793
 21
10.6363
 31
0.0
  0
LINE
  8
0
 62
     0
 10
25.8793
 20
10.6363
 30
0.0
 11
26.3785
 21
11.1285
 31
0.0
  0
LINE
  8
0
 62
     0
 10
26.3785
 20
11.1285
 30
0.0
 11
26.8585
 21
11.5321
 31
0.0
  0
LINE
  8
0
 62
     0
 10
26.8585
 20
11.5321
 30
0.0
 11
27.3194
 21
11.8472
 31
0.0
  0
LINE
  8
0
 62
     0
 10
27.3194
 20
11.8472
 30
0.0
 11
27.4592
 21
11.9436
 31
0.0
  0
LINE
  8
0
 62
     0
 10
27.4592
 20
11.9436
 30
0.0
 11
27.559
 21
12.0382
 31
0.0
  0
LINE
  8
0
 62
     0
 10
27.559
 20
12.0382
 30
0.0
 11
27.6189
 21
12.1311
 31
0.0
  0
LINE
  8
0
 62
     0
 10
27.6189
 20
12.1311
 30
0.0
 11
27.6389
 21
12.2222
 31
0.0
  0
LINE
  8
0
 62
     0
 10
27.6389
 20
12.2222
 30
0.0
 11
27.6171
 21
12.3012
 31
0.0
  0
LINE
  8
0
 62
     0
 10
27.6171
 20
12.3012
 30
0.0
 11
27.566
 21
12.3715
 31
0.0
  0
LINE
  8
0
 62
     0
 10
27.566
 20
12.3715
 30
0.0
 11
27.4851
 21
12.4332
 31
0.0
  0
LINE
  8
0
 62
     0
 10
27.4851
 20
12.4332
 30
0.0
 11
27.375
 21
12.4861
 31
0.0
  0
LINE
  8
0
 62
     0
 10
27.375
 20
12.4861
 30
0.0
 11
27.1215
 21
12.5591
 31
0.0
  0
LINE
  8
0
 62
     0
 10
27.1215
 20
12.5591
 30
0.0
 11
26.8333
 21
12.5833
 31
0.0
  0
LINE
  8
0
 62
     0
 10
26.8333
 20
12.5833
 30
0.0
 11
26.6806
 21
12.5694
 31
0.0
  0
LINE
  8
0
 62
     0
 10
26.6806
 20
12.5694
 30
0.0
 11
26.5417
 21
12.5417
 31
0.0
  0
LINE
  8
0
 62
     0
 10
26.5417
 20
12.5417
 30
0.0
 11
26.4167
 21
12.5
 31
0.0
  0
LINE
  8
0
 62
     0
 10
26.4167
 20
12.5
 30
0.0
 11
26.3056
 21
12.4444
 31
0.0
  0
LINE
  8
0
 62
     0
 10
26.3056
 20
12.4444
 30
0.0
 11
25.7413
 21
12.0634
 31
0.0
  0
LINE
  8
0
 62
     0
 10
25.7413
 20
12.0634
 30
0.0
 11
25.1736
 21
11.6007
 31
0.0
  0
LINE
  8
0
 62
     0
 10
25.1736
 20
11.6007
 30
0.0
 11
24.6024
 21
11.0564
 31
0.0
  0
LINE
  8
0
 62
     0
 10
24.6024
 20
11.0564
 30
0.0
 11
24.0278
 21
10.4306
 31
0.0
  0
LINE
  8
0
 62
     0
 10
24.0278
 20
10.4306
 30
0.0
 11
23.9197
 21
10.2984
 31
0.0
  0
LINE
  8
0
 62
     0
 10
23.9197
 20
10.2984
 30
0.0
 11
23.7761
 21
10.1172
 31
0.0
  0
LINE
  8
0
 62
     0
 10
23.7761
 20
10.1172
 30
0.0
 11
23.5968
 21
9.88693
 31
0.0
  0
LINE
  8
0
 62
     0
 10
23.5968
 20
9.88693
 30
0.0
 11
23.3819
 21
9.60764
 31
0.0
  0
LINE
  8
0
 62
     0
 10
23.3819
 20
9.60764
 30
0.0
 11
23.1315
 21
9.27929
 31
0.0
  0
LINE
  8
0
 62
     0
 10
23.1315
 20
9.27929
 30
0.0
 11
22.8456
 21
8.90192
 31
0.0
  0
LINE
  8
0
 62
     0
 10
22.8456
 20
8.90192
 30
0.0
 11
22.5239
 21
8.47547
 31
0.0
  0
LINE
  8
0
 62
     0
 10
22.5239
 20
8.47547
 30
0.0
 11
22.1667
 21
8
 31
0.0
  0
LINE
  8
0
 62
     0
 10
22.1667
 20
8
 30
0.0
 11
22.125
 21
7.90972
 31
0.0
  0
LINE
  8
0
 62
     0
 10
22.125
 20
7.90972
 30
0.0
 11
22.1111
 21
7.80556
 31
0.0
  0
LINE
  8
0
 62
     0
 10
22.1111
 20
7.80556
 30
0.0
 11
22.1154
 21
7.74653
 31
0.0
  0
LINE
  8
0
 62
     0
 10
22.1154
 20
7.74653
 30
0.0
 11
22.1285
 21
7.69444
 31
0.0
  0
LINE
  8
0
 62
     0
 10
22.1285
 20
7.69444
 30
0.0
 11
22.1501
 21
7.64931
 31
0.0
  0
LINE
  8
0
 62
     0
 10
22.1501
 20
7.64931
 30
0.0
 11
22.1806
 21
7.61111
 31
0.0
  0
LINE
  8
0
 62
     0
 10
22.1806
 20
7.61111
 30
0.0
 11
22.4494
 21
7.40001
 31
0.0
  0
LINE
  8
0
 62
     0
 10
22.4494
 20
7.40001
 30
0.0
 11
22.7421
 21
7.1971
 31
0.0
  0
LINE
  8
0
 62
     0
 10
22.7421
 20
7.1971
 30
0.0
 11
23.0587
 21
7.00244
 31
0.0
  0
LINE
  8
0
 62
     0
 10
23.0587
 20
7.00244
 30
0.0
 11
23.3993
 21
6.81603
 31
0.0
  0
LINE
  8
0
 62
     0
 10
23.3993
 20
6.81603
 30
0.0
 11
23.7636
 21
6.63786
 31
0.0
  0
LINE
  8
0
 62
     0
 10
23.7636
 20
6.63786
 30
0.0
 11
24.1518
 21
6.46793
 31
0.0
  0
LINE
  8
0
 62
     0
 10
24.1518
 20
6.46793
 30
0.0
 11
24.564
 21
6.30626
 31
0.0
  0
LINE
  8
0
 62
     0
 10
24.564
 20
6.30626
 30
0.0
 11
25
 21
6.15278
 31
0.0
  0
LINE
  8
0
 62
     0
 10
25
 20
6.15278
 30
0.0
 11
25.3715
 21
6.03174
 31
0.0
  0
LINE
  8
0
 62
     0
 10
25.3715
 20
6.03174
 30
0.0
 11
25.7189
 21
5.91862
 31
0.0
  0
LINE
  8
0
 62
     0
 10
25.7189
 20
5.91862
 30
0.0
 11
26.0421
 21
5.81342
 31
0.0
  0
LINE
  8
0
 62
     0
 10
26.0421
 20
5.81342
 30
0.0
 11
26.3411
 21
5.71615
 31
0.0
  0
LINE
  8
0
 62
     0
 10
26.3411
 20
5.71615
 30
0.0
 11
26.6158
 21
5.62679
 31
0.0
  0
LINE
  8
0
 62
     0
 10
26.6158
 20
5.62679
 30
0.0
 11
26.8665
 21
5.54536
 31
0.0
  0
LINE
  8
0
 62
     0
 10
26.8665
 20
5.54536
 30
0.0
 11
27.0929
 21
5.47185
 31
0.0
  0
LINE
  8
0
 62
     0
 10
27.0929
 20
5.47185
 30
0.0
 11
27.2951
 21
5.40625
 31
0.0
  0
LINE
  8
0
 62
     0
 10
27.2951
 20
5.40625
 30
0.0
 11
27.4731
 21
5.34858
 31
0.0
  0
LINE
  8
0
 62
     0
 10
27.4731
 20
5.34858
 30
0.0
 11
27.6269
 21
5.29883
 31
0.0
  0
LINE
  8
0
 62
     0
 10
27.6269
 20
5.29883
 30
0.0
 11
27.7565
 21
5.257
 31
0.0
  0
LINE
  8
0
 62
     0
 10
27.7565
 20
5.257
 30
0.0
 11
27.8619
 21
5.2231
 31
0.0
  0
LINE
  8
0
 62
     0
 10
27.8619
 20
5.2231
 30
0.0
 11
27.9432
 21
5.1971
 31
0.0
  0
LINE
  8
0
 62
     0
 10
27.9432
 20
5.1971
 30
0.0
 11
28.0001
 21
5.17904
 31
0.0
  0
LINE
  8
0
 62
     0
 10
28.0001
 20
5.17904
 30
0.0
 11
28.0331
 21
5.16889
 31
0.0
  0
LINE
  8
0
 62
     0
 10
28.0331
 20
5.16889
 30
0.0
 11
28.0417
 21
5.16667
 31
0.0
  0
LINE
  8
0
 62
     0
 10
28.0417
 20
5.16667
 30
0.0
 11
28.1475
 21
5.13542
 31
0.0
  0
LINE
  8
0
 62
     0
 10
28.1475
 20
5.13542
 30
0.0
 11
28.2708
 21
5.125
 31
0.0
  0
LINE
  8
0
 62
     0
 10
28.2708
 20
5.125
 30
0.0
 11
28.4114
 21
5.13542
 31
0.0
  0
LINE
  8
0
 62
     0
 10
28.4114
 20
5.13542
 30
0.0
 11
28.5694
 21
5.16667
 31
0.0
  0
LINE
  8
0
 62
     0
 10
28.5694
 20
5.16667
 30
0.0
 11
28.8649
 21
5.25006
 31
0.0
  0
LINE
  8
0
 62
     0
 10
28.8649
 20
5.25006
 30
0.0
 11
29.1389
 21
5.38889
 31
0.0
  0
LINE
  8
0
 62
     0
 10
29.1389
 20
5.38889
 30
0.0
 11
29.3611
 21
5.55556
 31
0.0
  0
LINE
  8
0
 62
     0
 10
29.3611
 20
5.55556
 30
0.0
 11
29.4722
 21
5.72222
 31
0.0
  0
LINE
  8
0
 62
     0
 10
29.4722
 20
5.72222
 30
0.0
 11
29.4861
 21
5.80821
 31
0.0
  0
LINE
  8
0
 62
     0
 10
29.4861
 20
5.80821
 30
0.0
 11
29.4583
 21
5.88547
 31
0.0
  0
LINE
  8
0
 62
     0
 10
29.4583
 20
5.88547
 30
0.0
 11
29.3889
 21
5.95404
 31
0.0
  0
LINE
  8
0
 62
     0
 10
29.3889
 20
5.95404
 30
0.0
 11
29.2778
 21
6.01389
 31
0.0
  0
LINE
  8
0
 62
     0
 10
29.2778
 20
6.01389
 30
0.0
 11
29.1215
 21
6.07249
 31
0.0
  0
LINE
  8
0
 62
     0
 10
29.1215
 20
6.07249
 30
0.0
 11
28.9167
 21
6.1441
 31
0.0
  0
LINE
  8
0
 62
     0
 10
28.9167
 20
6.1441
 30
0.0
 11
28.6632
 21
6.22874
 31
0.0
  0
LINE
  8
0
 62
     0
 10
28.6632
 20
6.22874
 30
0.0
 11
28.3611
 21
6.32639
 31
0.0
  0
LINE
  8
0
 62
     0
 10
28.3611
 20
6.32639
 30
0.0
 11
28.0104
 21
6.43707
 31
0.0
  0
LINE
  8
0
 62
     0
 10
28.0104
 20
6.43707
 30
0.0
 11
27.6111
 21
6.56076
 31
0.0
  0
LINE
  8
0
 62
     0
 10
27.6111
 20
6.56076
 30
0.0
 11
27.1632
 21
6.69749
 31
0.0
  0
LINE
  8
0
 62
     0
 10
27.1632
 20
6.69749
 30
0.0
 11
26.6667
 21
6.84722
 31
0.0
  0
LINE
  8
0
 62
     0
 10
30.5139
 20
7.72222
 30
0.0
 11
30.1292
 21
7.8711
 31
0.0
  0
LINE
  8
0
 62
     0
 10
30.1292
 20
7.8711
 30
0.0
 11
29.7665
 21
8.01215
 31
0.0
  0
LINE
  8
0
 62
     0
 10
29.7665
 20
8.01215
 30
0.0
 11
29.426
 21
8.1454
 31
0.0
  0
LINE
  8
0
 62
     0
 10
29.426
 20
8.1454
 30
0.0
 11
29.1076
 21
8.27083
 31
0.0
  0
LINE
  8
0
 62
     0
 10
29.1076
 20
8.27083
 30
0.0
 11
28.8114
 21
8.38851
 31
0.0
  0
LINE
  8
0
 62
     0
 10
28.8114
 20
8.38851
 30
0.0
 11
28.5374
 21
8.49832
 31
0.0
  0
LINE
  8
0
 62
     0
 10
28.5374
 20
8.49832
 30
0.0
 11
28.2854
 21
8.60032
 31
0.0
  0
LINE
  8
0
 62
     0
 10
28.2854
 20
8.60032
 30
0.0
 11
28.0556
 21
8.69444
 31
0.0
  0
LINE
  8
0
 62
     0
 10
28.0556
 20
8.69444
 30
0.0
 11
28.1865
 21
8.85769
 31
0.0
  0
LINE
  8
0
 62
     0
 10
28.1865
 20
8.85769
 30
0.0
 11
28.3299
 21
9.04172
 31
0.0
  0
LINE
  8
0
 62
     0
 10
28.3299
 20
9.04172
 30
0.0
 11
28.4851
 21
9.24658
 31
0.0
  0
LINE
  8
0
 62
     0
 10
28.4851
 20
9.24658
 30
0.0
 11
28.6528
 21
9.47222
 31
0.0
  0
LINE
  8
0
 62
     0
 10
28.6528
 20
9.47222
 30
0.0
 11
28.8854
 21
9.78125
 31
0.0
  0
LINE
  8
0
 62
     0
 10
28.8854
 20
9.78125
 30
0.0
 11
29.1111
 21
10.0694
 31
0.0
  0
LINE
  8
0
 62
     0
 10
29.1111
 20
10.0694
 30
0.0
 11
29.1319
 21
10.0964
 31
0.0
  0
LINE
  8
0
 62
     0
 10
29.1319
 20
10.0964
 30
0.0
 11
29.1667
 21
10.1354
 31
0.0
  0
LINE
  8
0
 62
     0
 10
29.1667
 20
10.1354
 30
0.0
 11
29.2153
 21
10.1866
 31
0.0
  0
LINE
  8
0
 62
     0
 10
29.2153
 20
10.1866
 30
0.0
 11
29.2778
 21
10.25
 31
0.0
  0
LINE
  8
0
 62
     0
 10
29.2778
 20
10.25
 30
0.0
 11
29.3481
 21
10.3143
 31
0.0
  0
LINE
  8
0
 62
     0
 10
29.3481
 20
10.3143
 30
0.0
 11
29.4063
 21
10.3682
 31
0.0
  0
LINE
  8
0
 62
     0
 10
29.4063
 20
10.3682
 30
0.0
 11
29.4522
 21
10.4116
 31
0.0
  0
LINE
  8
0
 62
     0
 10
29.4522
 20
10.4116
 30
0.0
 11
29.4861
 21
10.4444
 31
0.0
  0
LINE
  8
0
 62
     0
 10
29.4861
 20
10.4444
 30
0.0
 11
29.5267
 21
10.4989
 31
0.0
  0
LINE
  8
0
 62
     0
 10
29.5267
 20
10.4989
 30
0.0
 11
29.5511
 21
10.5443
 31
0.0
  0
LINE
  8
0
 62
     0
 10
29.5511
 20
10.5443
 30
0.0
 11
29.5596
 21
10.5805
 31
0.0
  0
LINE
  8
0
 62
     0
 10
29.5596
 20
10.5805
 30
0.0
 11
29.5521
 21
10.6076
 31
0.0
  0
LINE
  8
0
 62
     0
 10
29.5521
 20
10.6076
 30
0.0
 11
29.5283
 21
10.6257
 31
0.0
  0
LINE
  8
0
 62
     0
 10
29.5283
 20
10.6257
 30
0.0
 11
29.4886
 21
10.6346
 31
0.0
  0
LINE
  8
0
 62
     0
 10
29.4886
 20
10.6346
 30
0.0
 11
29.4329
 21
10.6344
 31
0.0
  0
LINE
  8
0
 62
     0
 10
29.4329
 20
10.6344
 30
0.0
 11
29.3611
 21
10.625
 31
0.0
  0
LINE
  8
0
 62
     0
 10
29.3611
 20
10.625
 30
0.0
 11
29.5483
 21
10.6633
 31
0.0
  0
LINE
  8
0
 62
     0
 10
29.5483
 20
10.6633
 30
0.0
 11
29.7144
 21
10.7084
 31
0.0
  0
LINE
  8
0
 62
     0
 10
29.7144
 20
10.7084
 30
0.0
 11
29.8592
 21
10.7605
 31
0.0
  0
LINE
  8
0
 62
     0
 10
29.8592
 20
10.7605
 30
0.0
 11
29.9826
 21
10.8195
 31
0.0
  0
LINE
  8
0
 62
     0
 10
29.9826
 20
10.8195
 30
0.0
 11
30.0849
 21
10.8855
 31
0.0
  0
LINE
  8
0
 62
     0
 10
30.0849
 20
10.8855
 30
0.0
 11
30.1658
 21
10.9584
 31
0.0
  0
LINE
  8
0
 62
     0
 10
30.1658
 20
10.9584
 30
0.0
 11
30.2254
 21
11.0383
 31
0.0
  0
LINE
  8
0
 62
     0
 10
30.2254
 20
11.0383
 30
0.0
 11
30.2639
 21
11.125
 31
0.0
  0
LINE
  8
0
 62
     0
 10
30.2639
 20
11.125
 30
0.0
 11
30.2751
 21
11.2266
 31
0.0
  0
LINE
  8
0
 62
     0
 10
30.2751
 20
11.2266
 30
0.0
 11
30.2396
 21
11.3091
 31
0.0
  0
LINE
  8
0
 62
     0
 10
30.2396
 20
11.3091
 30
0.0
 11
30.1571
 21
11.3724
 31
0.0
  0
LINE
  8
0
 62
     0
 10
30.1571
 20
11.3724
 30
0.0
 11
30.0278
 21
11.4167
 31
0.0
  0
LINE
  8
0
 62
     0
 10
30.0278
 20
11.4167
 30
0.0
 11
29.816
 21
11.441
 31
0.0
  0
LINE
  8
0
 62
     0
 10
29.816
 20
11.441
 30
0.0
 11
29.5972
 21
11.4306
 31
0.0
  0
LINE
  8
0
 62
     0
 10
29.5972
 20
11.4306
 30
0.0
 11
29.3561
 21
11.3724
 31
0.0
  0
LINE
  8
0
 62
     0
 10
29.3561
 20
11.3724
 30
0.0
 11
29.1189
 21
11.2882
 31
0.0
  0
LINE
  8
0
 62
     0
 10
29.1189
 20
11.2882
 30
0.0
 11
28.8857
 21
11.178
 31
0.0
  0
LINE
  8
0
 62
     0
 10
28.8857
 20
11.178
 30
0.0
 11
28.6563
 21
11.0417
 31
0.0
  0
LINE
  8
0
 62
     0
 10
28.6563
 20
11.0417
 30
0.0
 11
28.4308
 21
10.8794
 31
0.0
  0
LINE
  8
0
 62
     0
 10
28.4308
 20
10.8794
 30
0.0
 11
28.2092
 21
10.691
 31
0.0
  0
LINE
  8
0
 62
     0
 10
28.2092
 20
10.691
 30
0.0
 11
27.9915
 21
10.4766
 31
0.0
  0
LINE
  8
0
 62
     0
 10
27.9915
 20
10.4766
 30
0.0
 11
27.7778
 21
10.2361
 31
0.0
  0
LINE
  8
0
 62
     0
 10
27.7778
 20
10.2361
 30
0.0
 11
27.6615
 21
10.0912
 31
0.0
  0
LINE
  8
0
 62
     0
 10
27.6615
 20
10.0912
 30
0.0
 11
27.5069
 21
9.89242
 31
0.0
  0
LINE
  8
0
 62
     0
 10
27.5069
 20
9.89242
 30
0.0
 11
27.3143
 21
9.63981
 31
0.0
  0
LINE
  8
0
 62
     0
 10
27.3143
 20
9.63981
 30
0.0
 11
27.0833
 21
9.33333
 31
0.0
  0
LINE
  8
0
 62
     0
 10
27.0833
 20
9.33333
 30
0.0
 11
26.8836
 21
9.0599
 31
0.0
  0
LINE
  8
0
 62
     0
 10
26.8836
 20
9.0599
 30
0.0
 11
26.7014
 21
8.82292
 31
0.0
  0
LINE
  8
0
 62
     0
 10
26.7014
 20
8.82292
 30
0.0
 11
26.5364
 21
8.6224
 31
0.0
  0
LINE
  8
0
 62
     0
 10
26.5364
 20
8.6224
 30
0.0
 11
26.3889
 21
8.45833
 31
0.0
  0
LINE
  8
0
 62
     0
 10
26.3889
 20
8.45833
 30
0.0
 11
26.3489
 21
8.40886
 31
0.0
  0
LINE
  8
0
 62
     0
 10
26.3489
 20
8.40886
 30
0.0
 11
26.3264
 21
8.35764
 31
0.0
  0
LINE
  8
0
 62
     0
 10
26.3264
 20
8.35764
 30
0.0
 11
26.3211
 21
8.30469
 31
0.0
  0
LINE
  8
0
 62
     0
 10
26.3211
 20
8.30469
 30
0.0
 11
26.3333
 21
8.25
 31
0.0
  0
LINE
  8
0
 62
     0
 10
26.3333
 20
8.25
 30
0.0
 11
26.3532
 21
8.19883
 31
0.0
  0
LINE
  8
0
 62
     0
 10
26.3532
 20
8.19883
 30
0.0
 11
26.3854
 21
8.15631
 31
0.0
  0
LINE
  8
0
 62
     0
 10
26.3854
 20
8.15631
 30
0.0
 11
26.4296
 21
8.12244
 31
0.0
  0
LINE
  8
0
 62
     0
 10
26.4296
 20
8.12244
 30
0.0
 11
26.4861
 21
8.09722
 31
0.0
  0
LINE
  8
0
 62
     0
 10
26.4861
 20
8.09722
 30
0.0
 11
26.7365
 21
7.98981
 31
0.0
  0
LINE
  8
0
 62
     0
 10
26.7365
 20
7.98981
 30
0.0
 11
27.0088
 21
7.87587
 31
0.0
  0
LINE
  8
0
 62
     0
 10
27.0088
 20
7.87587
 30
0.0
 11
27.3025
 21
7.75543
 31
0.0
  0
LINE
  8
0
 62
     0
 10
27.3025
 20
7.75543
 30
0.0
 11
27.6181
 21
7.62847
 31
0.0
  0
LINE
  8
0
 62
     0
 10
27.6181
 20
7.62847
 30
0.0
 11
27.9553
 21
7.49501
 31
0.0
  0
LINE
  8
0
 62
     0
 10
27.9553
 20
7.49501
 30
0.0
 11
28.3143
 21
7.35504
 31
0.0
  0
LINE
  8
0
 62
     0
 10
28.3143
 20
7.35504
 30
0.0
 11
28.6949
 21
7.20856
 31
0.0
  0
LINE
  8
0
 62
     0
 10
28.6949
 20
7.20856
 30
0.0
 11
29.0972
 21
7.05556
 31
0.0
  0
LINE
  8
0
 62
     0
 10
29.0972
 20
7.05556
 30
0.0
 11
29.5604
 21
6.87875
 31
0.0
  0
LINE
  8
0
 62
     0
 10
29.5604
 20
6.87875
 30
0.0
 11
29.9844
 21
6.71619
 31
0.0
  0
LINE
  8
0
 62
     0
 10
29.9844
 20
6.71619
 30
0.0
 11
30.3694
 21
6.56799
 31
0.0
  0
LINE
  8
0
 62
     0
 10
30.3694
 20
6.56799
 30
0.0
 11
30.7153
 21
6.43403
 31
0.0
  0
LINE
  8
0
 62
     0
 10
30.7153
 20
6.43403
 30
0.0
 11
31.0222
 21
6.31446
 31
0.0
  0
LINE
  8
0
 62
     0
 10
31.0222
 20
6.31446
 30
0.0
 11
31.29
 21
6.20921
 31
0.0
  0
LINE
  8
0
 62
     0
 10
31.29
 20
6.20921
 30
0.0
 11
31.5186
 21
6.11828
 31
0.0
  0
LINE
  8
0
 62
     0
 10
31.5186
 20
6.11828
 30
0.0
 11
31.7083
 21
6.04167
 31
0.0
  0
LINE
  8
0
 62
     0
 10
31.7083
 20
6.04167
 30
0.0
 11
31.9087
 21
6.00261
 31
0.0
  0
LINE
  8
0
 62
     0
 10
31.9087
 20
6.00261
 30
0.0
 11
32.1493
 21
6.02431
 31
0.0
  0
LINE
  8
0
 62
     0
 10
32.1493
 20
6.02431
 30
0.0
 11
32.4296
 21
6.10678
 31
0.0
  0
LINE
  8
0
 62
     0
 10
32.4296
 20
6.10678
 30
0.0
 11
32.75
 21
6.25
 31
0.0
  0
LINE
  8
0
 62
     0
 10
32.75
 20
6.25
 30
0.0
 11
32.9792
 21
6.38889
 31
0.0
  0
LINE
  8
0
 62
     0
 10
32.9792
 20
6.38889
 30
0.0
 11
33.1111
 21
6.52778
 31
0.0
  0
LINE
  8
0
 62
     0
 10
33.1111
 20
6.52778
 30
0.0
 11
33.1397
 21
6.60069
 31
0.0
  0
LINE
  8
0
 62
     0
 10
33.1397
 20
6.60069
 30
0.0
 11
33.1285
 21
6.66667
 31
0.0
  0
LINE
  8
0
 62
     0
 10
33.1285
 20
6.66667
 30
0.0
 11
33.0772
 21
6.72569
 31
0.0
  0
LINE
  8
0
 62
     0
 10
33.0772
 20
6.72569
 30
0.0
 11
32.9861
 21
6.77778
 31
0.0
  0
LINE
  8
0
 62
     0
 10
32.9861
 20
6.77778
 30
0.0
 11
32.7925
 21
6.85331
 31
0.0
  0
LINE
  8
0
 62
     0
 10
32.7925
 20
6.85331
 30
0.0
 11
32.566
 21
6.94097
 31
0.0
  0
LINE
  8
0
 62
     0
 10
32.566
 20
6.94097
 30
0.0
 11
32.3064
 21
7.04081
 31
0.0
  0
LINE
  8
0
 62
     0
 10
32.3064
 20
7.04081
 30
0.0
 11
32.0139
 21
7.15278
 31
0.0
  0
LINE
  8
0
 62
     0
 10
32.0139
 20
7.15278
 30
0.0
 11
31.6883
 21
7.27692
 31
0.0
  0
LINE
  8
0
 62
     0
 10
31.6883
 20
7.27692
 30
0.0
 11
31.3299
 21
7.41319
 31
0.0
  0
LINE
  8
0
 62
     0
 10
31.3299
 20
7.41319
 30
0.0
 11
30.9383
 21
7.56164
 31
0.0
  0
LINE
  8
0
 62
     0
 10
30.9383
 20
7.56164
 30
0.0
 11
30.5139
 21
7.72222
 31
0.0
  0
ENDSEC
  0
EOF
