  0
SECTION
  2
HEADER
  9
$ACADVER
  1
AC1009
  9
$EXTMIN
 10
0.0
 20
0.0
 30
0.0
  9
$EXTMAX
 10
1000.0
 20
1000.0
 30
0.0
  9
$FILLMODE
 70
 0
  9
$SPLFRAME
 70
 1
  0
ENDSEC
  0
SECTION
  2
TABLES
  0
TABLE
  2
LAYER
 70
1
  0
LAYER
  2
0
 70
     0
 62
     7
  6
CONTINUOUS
  0
ENDTAB
  0
ENDSEC
  0
SECTION
  2
ENTITIES
  0
LINE
  8
0
 62
     0
 10
5.93056
 20
13.8333
 30
0.0
 11
5.83681
 21
13.8664
 31
0.0
  0
LINE
  8
0
 62
     0
 10
5.83681
 20
13.8664
 30
0.0
 11
5.72222
 21
13.882
 31
0.0
  0
LINE
  8
0
 62
     0
 10
5.72222
 20
13.882
 30
0.0
 11
5.58681
 21
13.8803
 31
0.0
  0
LINE
  8
0
 62
     0
 10
5.58681
 20
13.8803
 30
0.0
 11
5.43056
 21
13.8611
 31
0.0
  0
LINE
  8
0
 62
     0
 10
5.43056
 20
13.8611
 30
0.0
 11
5.12842
 21
13.7847
 31
0.0
  0
LINE
  8
0
 62
     0
 10
5.12842
 20
13.7847
 30
0.0
 11
4.83333
 21
13.6667
 31
0.0
  0
LINE
  8
0
 62
     0
 10
4.83333
 20
13.6667
 30
0.0
 11
4.68837
 21
13.5902
 31
0.0
  0
LINE
  8
0
 62
     0
 10
4.68837
 20
13.5902
 30
0.0
 11
4.57292
 21
13.5138
 31
0.0
  0
LINE
  8
0
 62
     0
 10
4.57292
 20
13.5138
 30
0.0
 11
4.48699
 21
13.4374
 31
0.0
  0
LINE
  8
0
 62
     0
 10
4.48699
 20
13.4374
 30
0.0
 11
4.43056
 21
13.3611
 31
0.0
  0
LINE
  8
0
 62
     0
 10
4.43056
 20
13.3611
 30
0.0
 11
4.39671
 21
13.2743
 31
0.0
  0
LINE
  8
0
 62
     0
 10
4.39671
 20
13.2743
 30
0.0
 11
4.40625
 21
13.1944
 31
0.0
  0
LINE
  8
0
 62
     0
 10
4.40625
 20
13.1944
 30
0.0
 11
4.45921
 21
13.1215
 31
0.0
  0
LINE
  8
0
 62
     0
 10
4.45921
 20
13.1215
 30
0.0
 11
4.55556
 21
13.0556
 31
0.0
  0
LINE
  8
0
 62
     0
 10
4.55556
 20
13.0556
 30
0.0
 11
5.22607
 21
12.6597
 31
0.0
  0
LINE
  8
0
 62
     0
 10
5.22607
 20
12.6597
 30
0.0
 11
5.9114
 21
12.2014
 31
0.0
  0
LINE
  8
0
 62
     0
 10
5.9114
 20
12.2014
 30
0.0
 11
6.61149
 21
11.6806
 31
0.0
  0
LINE
  8
0
 62
     0
 10
6.61149
 20
11.6806
 30
0.0
 11
7.32633
 21
11.0972
 31
0.0
  0
LINE
  8
0
 62
     0
 10
7.32633
 20
11.0972
 30
0.0
 11
8.05593
 21
10.4514
 31
0.0
  0
LINE
  8
0
 62
     0
 10
8.05593
 20
10.4514
 30
0.0
 11
8.80029
 21
9.74306
 31
0.0
  0
LINE
  8
0
 62
     0
 10
8.80029
 20
9.74306
 30
0.0
 11
9.5594
 21
8.97222
 31
0.0
  0
LINE
  8
0
 62
     0
 10
9.5594
 20
8.97222
 30
0.0
 11
10.3333
 21
8.13889
 31
0.0
  0
LINE
  8
0
 62
     0
 10
10.3333
 20
8.13889
 30
0.0
 11
9.78342
 21
7.80165
 31
0.0
  0
LINE
  8
0
 62
     0
 10
9.78342
 20
7.80165
 30
0.0
 11
9.27257
 21
7.49826
 31
0.0
  0
LINE
  8
0
 62
     0
 10
9.27257
 20
7.49826
 30
0.0
 11
8.80078
 21
7.22874
 31
0.0
  0
LINE
  8
0
 62
     0
 10
8.80078
 20
7.22874
 30
0.0
 11
8.36806
 21
6.99306
 31
0.0
  0
LINE
  8
0
 62
     0
 10
8.36806
 20
6.99306
 30
0.0
 11
7.97433
 21
6.79124
 31
0.0
  0
LINE
  8
0
 62
     0
 10
7.97433
 20
6.79124
 30
0.0
 11
7.61974
 21
6.62326
 31
0.0
  0
LINE
  8
0
 62
     0
 10
7.61974
 20
6.62326
 30
0.0
 11
7.30419
 21
6.48915
 31
0.0
  0
LINE
  8
0
 62
     0
 10
7.30419
 20
6.48915
 30
0.0
 11
7.02778
 21
6.38889
 31
0.0
  0
LINE
  8
0
 62
     0
 10
7.02778
 20
6.38889
 30
0.0
 11
6.85938
 21
6.32818
 31
0.0
  0
LINE
  8
0
 62
     0
 10
6.85938
 20
6.32818
 30
0.0
 11
6.71528
 21
6.25694
 31
0.0
  0
LINE
  8
0
 62
     0
 10
6.71528
 20
6.25694
 30
0.0
 11
6.59549
 21
6.17535
 31
0.0
  0
LINE
  8
0
 62
     0
 10
6.59549
 20
6.17535
 30
0.0
 11
6.5
 21
6.08333
 31
0.0
  0
LINE
  8
0
 62
     0
 10
6.5
 20
6.08333
 30
0.0
 11
6.42969
 21
6.00087
 31
0.0
  0
LINE
  8
0
 62
     0
 10
6.42969
 20
6.00087
 30
0.0
 11
6.38542
 21
5.92014
 31
0.0
  0
LINE
  8
0
 62
     0
 10
6.38542
 20
5.92014
 30
0.0
 11
6.36719
 21
5.84115
 31
0.0
  0
LINE
  8
0
 62
     0
 10
6.36719
 20
5.84115
 30
0.0
 11
6.375
 21
5.76389
 31
0.0
  0
LINE
  8
0
 62
     0
 10
6.375
 20
5.76389
 30
0.0
 11
6.40625
 21
5.69363
 31
0.0
  0
LINE
  8
0
 62
     0
 10
6.40625
 20
5.69363
 30
0.0
 11
6.45833
 21
5.63547
 31
0.0
  0
LINE
  8
0
 62
     0
 10
6.45833
 20
5.63547
 30
0.0
 11
6.53125
 21
5.58946
 31
0.0
  0
LINE
  8
0
 62
     0
 10
6.53125
 20
5.58946
 30
0.0
 11
6.625
 21
5.55556
 31
0.0
  0
LINE
  8
0
 62
     0
 10
6.625
 20
5.55556
 30
0.0
 11
6.75694
 21
5.53907
 31
0.0
  0
LINE
  8
0
 62
     0
 10
6.75694
 20
5.53907
 30
0.0
 11
6.90278
 21
5.54514
 31
0.0
  0
LINE
  8
0
 62
     0
 10
6.90278
 20
5.54514
 30
0.0
 11
7.0625
 21
5.57379
 31
0.0
  0
LINE
  8
0
 62
     0
 10
7.0625
 20
5.57379
 30
0.0
 11
7.23611
 21
5.625
 31
0.0
  0
LINE
  8
0
 62
     0
 10
7.23611
 20
5.625
 30
0.0
 11
7.61518
 21
5.76258
 31
0.0
  0
LINE
  8
0
 62
     0
 10
7.61518
 20
5.76258
 30
0.0
 11
8.05117
 21
5.94618
 31
0.0
  0
LINE
  8
0
 62
     0
 10
8.05117
 20
5.94618
 30
0.0
 11
8.544
 21
6.17578
 31
0.0
  0
LINE
  8
0
 62
     0
 10
8.544
 20
6.17578
 30
0.0
 11
9.09369
 21
6.45139
 31
0.0
  0
LINE
  8
0
 62
     0
 10
9.09369
 20
6.45139
 30
0.0
 11
9.70025
 21
6.773
 31
0.0
  0
LINE
  8
0
 62
     0
 10
9.70025
 20
6.773
 30
0.0
 11
10.3637
 21
7.14063
 31
0.0
  0
LINE
  8
0
 62
     0
 10
10.3637
 20
7.14063
 30
0.0
 11
11.0839
 21
7.55425
 31
0.0
  0
LINE
  8
0
 62
     0
 10
11.0839
 20
7.55425
 30
0.0
 11
11.8611
 21
8.01389
 31
0.0
  0
LINE
  8
0
 62
     0
 10
11.8611
 20
8.01389
 30
0.0
 11
12.066
 21
8.15631
 31
0.0
  0
LINE
  8
0
 62
     0
 10
12.066
 20
8.15631
 30
0.0
 11
12.1806
 21
8.29172
 31
0.0
  0
LINE
  8
0
 62
     0
 10
12.1806
 20
8.29172
 30
0.0
 11
12.2049
 21
8.42019
 31
0.0
  0
LINE
  8
0
 62
     0
 10
12.2049
 20
8.42019
 30
0.0
 11
12.1389
 21
8.54167
 31
0.0
  0
LINE
  8
0
 62
     0
 10
12.1389
 20
8.54167
 30
0.0
 11
11.3218
 21
9.43251
 31
0.0
  0
LINE
  8
0
 62
     0
 10
11.3218
 20
9.43251
 30
0.0
 11
10.5165
 21
10.2578
 31
0.0
  0
LINE
  8
0
 62
     0
 10
10.5165
 20
10.2578
 30
0.0
 11
9.72288
 21
11.0176
 31
0.0
  0
LINE
  8
0
 62
     0
 10
9.72288
 20
11.0176
 30
0.0
 11
8.94097
 21
11.7118
 31
0.0
  0
LINE
  8
0
 62
     0
 10
8.94097
 20
11.7118
 30
0.0
 11
8.17079
 21
12.3405
 31
0.0
  0
LINE
  8
0
 62
     0
 10
8.17079
 20
12.3405
 30
0.0
 11
7.41233
 21
12.9037
 31
0.0
  0
LINE
  8
0
 62
     0
 10
7.41233
 20
12.9037
 30
0.0
 11
6.66558
 21
13.4013
 31
0.0
  0
LINE
  8
0
 62
     0
 10
6.66558
 20
13.4013
 30
0.0
 11
5.93056
 21
13.8333
 31
0.0
  0
LINE
  8
0
 62
     0
 10
3.52778
 20
11.9722
 30
0.0
 11
3.40365
 21
12.0096
 31
0.0
  0
LINE
  8
0
 62
     0
 10
3.40365
 20
12.0096
 30
0.0
 11
3.26736
 21
12.0244
 31
0.0
  0
LINE
  8
0
 62
     0
 10
3.26736
 20
12.0244
 30
0.0
 11
3.11893
 21
12.0165
 31
0.0
  0
LINE
  8
0
 62
     0
 10
3.11893
 20
12.0165
 30
0.0
 11
2.95833
 21
11.9861
 31
0.0
  0
LINE
  8
0
 62
     0
 10
2.95833
 20
11.9861
 30
0.0
 11
2.67008
 21
11.875
 31
0.0
  0
LINE
  8
0
 62
     0
 10
2.67008
 20
11.875
 30
0.0
 11
2.41667
 21
11.7083
 31
0.0
  0
LINE
  8
0
 62
     0
 10
2.41667
 20
11.7083
 30
0.0
 11
2.30729
 21
11.6042
 31
0.0
  0
LINE
  8
0
 62
     0
 10
2.30729
 20
11.6042
 30
0.0
 11
2.22917
 21
11.5
 31
0.0
  0
LINE
  8
0
 62
     0
 10
2.22917
 20
11.5
 30
0.0
 11
2.18229
 21
11.3958
 31
0.0
  0
LINE
  8
0
 62
     0
 10
2.18229
 20
11.3958
 30
0.0
 11
2.16667
 21
11.2917
 31
0.0
  0
LINE
  8
0
 62
     0
 10
2.16667
 20
11.2917
 30
0.0
 11
2.18832
 21
11.1797
 31
0.0
  0
LINE
  8
0
 62
     0
 10
2.18832
 20
11.1797
 30
0.0
 11
2.25342
 21
11.0799
 31
0.0
  0
LINE
  8
0
 62
     0
 10
2.25342
 20
11.0799
 30
0.0
 11
2.36193
 21
10.9922
 31
0.0
  0
LINE
  8
0
 62
     0
 10
2.36193
 20
10.9922
 30
0.0
 11
2.51389
 21
10.9167
 31
0.0
  0
LINE
  8
0
 62
     0
 10
2.51389
 20
10.9167
 30
0.0
 11
3.04101
 21
10.6784
 31
0.0
  0
LINE
  8
0
 62
     0
 10
3.04101
 20
10.6784
 30
0.0
 11
3.53907
 21
10.4288
 31
0.0
  0
LINE
  8
0
 62
     0
 10
3.53907
 20
10.4288
 30
0.0
 11
4.00803
 21
10.168
 31
0.0
  0
LINE
  8
0
 62
     0
 10
4.00803
 20
10.168
 30
0.0
 11
4.44792
 21
9.89583
 31
0.0
  0
LINE
  8
0
 62
     0
 10
4.44792
 20
9.89583
 30
0.0
 11
4.85872
 21
9.61242
 31
0.0
  0
LINE
  8
0
 62
     0
 10
4.85872
 20
9.61242
 30
0.0
 11
5.24046
 21
9.31771
 31
0.0
  0
LINE
  8
0
 62
     0
 10
5.24046
 20
9.31771
 30
0.0
 11
5.5931
 21
9.01172
 31
0.0
  0
LINE
  8
0
 62
     0
 10
5.5931
 20
9.01172
 30
0.0
 11
5.91667
 21
8.69444
 31
0.0
  0
LINE
  8
0
 62
     0
 10
5.91667
 20
8.69444
 30
0.0
 11
5.33768
 21
8.50526
 31
0.0
  0
LINE
  8
0
 62
     0
 10
5.33768
 20
8.50526
 30
0.0
 11
4.76736
 21
8.34033
 31
0.0
  0
LINE
  8
0
 62
     0
 10
4.76736
 20
8.34033
 30
0.0
 11
4.20574
 21
8.19971
 31
0.0
  0
LINE
  8
0
 62
     0
 10
4.20574
 20
8.19971
 30
0.0
 11
3.65278
 21
8.08333
 31
0.0
  0
LINE
  8
0
 62
     0
 10
3.65278
 20
8.08333
 30
0.0
 11
3.38889
 21
7.98958
 31
0.0
  0
LINE
  8
0
 62
     0
 10
3.38889
 20
7.98958
 30
0.0
 11
3.15278
 21
7.81944
 31
0.0
  0
LINE
  8
0
 62
     0
 10
3.15278
 20
7.81944
 30
0.0
 11
3.0356
 21
7.70057
 31
0.0
  0
LINE
  8
0
 62
     0
 10
3.0356
 20
7.70057
 30
0.0
 11
2.96181
 21
7.57992
 31
0.0
  0
LINE
  8
0
 62
     0
 10
2.96181
 20
7.57992
 30
0.0
 11
2.93143
 21
7.45751
 31
0.0
  0
LINE
  8
0
 62
     0
 10
2.93143
 20
7.45751
 30
0.0
 11
2.94444
 21
7.33333
 31
0.0
  0
LINE
  8
0
 62
     0
 10
2.94444
 20
7.33333
 30
0.0
 11
2.98742
 21
7.22547
 31
0.0
  0
LINE
  8
0
 62
     0
 10
2.98742
 20
7.22547
 30
0.0
 11
3.05382
 21
7.13803
 31
0.0
  0
LINE
  8
0
 62
     0
 10
3.05382
 20
7.13803
 30
0.0
 11
3.14367
 21
7.07096
 31
0.0
  0
LINE
  8
0
 62
     0
 10
3.14367
 20
7.07096
 30
0.0
 11
3.25694
 21
7.02431
 31
0.0
  0
LINE
  8
0
 62
     0
 10
3.25694
 20
7.02431
 30
0.0
 11
3.39367
 21
6.99804
 31
0.0
  0
LINE
  8
0
 62
     0
 10
3.39367
 20
6.99804
 30
0.0
 11
3.55382
 21
6.99219
 31
0.0
  0
LINE
  8
0
 62
     0
 10
3.55382
 20
6.99219
 30
0.0
 11
3.73742
 21
7.00672
 31
0.0
  0
LINE
  8
0
 62
     0
 10
3.73742
 20
7.00672
 30
0.0
 11
3.94444
 21
7.04167
 31
0.0
  0
LINE
  8
0
 62
     0
 10
3.94444
 20
7.04167
 30
0.0
 11
4.76476
 21
7.22314
 31
0.0
  0
LINE
  8
0
 62
     0
 10
4.76476
 20
7.22314
 30
0.0
 11
5.62847
 21
7.46186
 31
0.0
  0
LINE
  8
0
 62
     0
 10
5.62847
 20
7.46186
 30
0.0
 11
6.5356
 21
7.75786
 31
0.0
  0
LINE
  8
0
 62
     0
 10
6.5356
 20
7.75786
 30
0.0
 11
7.48611
 21
8.11111
 31
0.0
  0
LINE
  8
0
 62
     0
 10
7.48611
 20
8.11111
 30
0.0
 11
7.72222
 21
8.24653
 31
0.0
  0
LINE
  8
0
 62
     0
 10
7.72222
 20
8.24653
 30
0.0
 11
7.90278
 21
8.43056
 31
0.0
  0
LINE
  8
0
 62
     0
 10
7.90278
 20
8.43056
 30
0.0
 11
7.97136
 21
8.55994
 31
0.0
  0
LINE
  8
0
 62
     0
 10
7.97136
 20
8.55994
 30
0.0
 11
7.99653
 21
8.68408
 31
0.0
  0
LINE
  8
0
 62
     0
 10
7.99653
 20
8.68408
 30
0.0
 11
7.97831
 21
8.803
 31
0.0
  0
LINE
  8
0
 62
     0
 10
7.97831
 20
8.803
 30
0.0
 11
7.91667
 21
8.91667
 31
0.0
  0
LINE
  8
0
 62
     0
 10
7.91667
 20
8.91667
 30
0.0
 11
7.55333
 21
9.35032
 31
0.0
  0
LINE
  8
0
 62
     0
 10
7.55333
 20
9.35032
 30
0.0
 11
7.1371
 21
9.76915
 31
0.0
  0
LINE
  8
0
 62
     0
 10
7.1371
 20
9.76915
 30
0.0
 11
6.66792
 21
10.1732
 31
0.0
  0
LINE
  8
0
 62
     0
 10
6.66792
 20
10.1732
 30
0.0
 11
6.14578
 21
10.5626
 31
0.0
  0
LINE
  8
0
 62
     0
 10
6.14578
 20
10.5626
 30
0.0
 11
5.57069
 21
10.9371
 31
0.0
  0
LINE
  8
0
 62
     0
 10
5.57069
 20
10.9371
 30
0.0
 11
4.94265
 21
11.2969
 31
0.0
  0
LINE
  8
0
 62
     0
 10
4.94265
 20
11.2969
 30
0.0
 11
4.26167
 21
11.642
 31
0.0
  0
LINE
  8
0
 62
     0
 10
4.26167
 20
11.642
 30
0.0
 11
3.52778
 21
11.9722
 31
0.0
  0
ENDSEC
  0
EOF
