  0
SECTION
  2
HEADER
  9
$ACADVER
  1
AC1009
  9
$EXTMIN
 10
0.0
 20
0.0
 30
0.0
  9
$EXTMAX
 10
1000.0
 20
1000.0
 30
0.0
  9
$FILLMODE
 70
 0
  9
$SPLFRAME
 70
 1
  0
ENDSEC
  0
SECTION
  2
TABLES
  0
TABLE
  2
LAYER
 70
1
  0
LAYER
  2
0
 70
     0
 62
     7
  6
CONTINUOUS
  0
ENDTAB
  0
ENDSEC
  0
SECTION
  2
ENTITIES
  0
LINE
  8
0
 62
     0
 10
7.11111
 20
0.597222
 30
0.0
 11
7.16835
 21
0.412381
 31
0.0
  0
LINE
  8
0
 62
     0
 10
7.16835
 20
0.412381
 30
0.0
 11
7.27078
 21
0.260471
 31
0.0
  0
LINE
  8
0
 62
     0
 10
7.27078
 20
0.260471
 30
0.0
 11
7.41835
 21
0.141547
 31
0.0
  0
LINE
  8
0
 62
     0
 10
7.41835
 20
0.141547
 30
0.0
 11
7.61111
 21
0.0555556
 31
0.0
  0
LINE
  8
0
 62
     0
 10
7.61111
 20
0.0555556
 30
0.0
 11
7.82026
 21
0.00954861
 31
0.0
  0
LINE
  8
0
 62
     0
 10
7.82026
 20
0.00954861
 30
0.0
 11
8.04514
 21
-0.00347222
 31
0.0
  0
LINE
  8
0
 62
     0
 10
8.04514
 20
-0.00347222
 30
0.0
 11
8.2856
 21
0.0164931
 31
0.0
  0
LINE
  8
0
 62
     0
 10
8.2856
 20
0.0164931
 30
0.0
 11
8.54167
 21
0.0694444
 31
0.0
  0
LINE
  8
0
 62
     0
 10
8.54167
 20
0.0694444
 30
0.0
 11
8.79335
 21
0.150228
 31
0.0
  0
LINE
  8
0
 62
     0
 10
8.79335
 20
0.150228
 30
0.0
 11
9.02078
 21
0.253526
 31
0.0
  0
LINE
  8
0
 62
     0
 10
9.02078
 20
0.253526
 30
0.0
 11
9.2239
 21
0.379394
 31
0.0
  0
LINE
  8
0
 62
     0
 10
9.2239
 20
0.379394
 30
0.0
 11
9.40278
 21
0.527778
 31
0.0
  0
LINE
  8
0
 62
     0
 10
9.40278
 20
0.527778
 30
0.0
 11
9.56244
 21
0.705783
 31
0.0
  0
LINE
  8
0
 62
     0
 10
9.56244
 20
0.705783
 30
0.0
 11
9.66661
 21
0.892415
 31
0.0
  0
LINE
  8
0
 62
     0
 10
9.66661
 20
0.892415
 30
0.0
 11
9.71522
 21
1.08773
 31
0.0
  0
LINE
  8
0
 62
     0
 10
9.71522
 20
1.08773
 30
0.0
 11
9.70833
 21
1.29167
 31
0.0
  0
LINE
  8
0
 62
     0
 10
9.70833
 20
1.29167
 30
0.0
 11
9.57004
 21
2.3431
 31
0.0
  0
LINE
  8
0
 62
     0
 10
9.57004
 20
2.3431
 30
0.0
 11
9.45394
 21
3.40018
 31
0.0
  0
LINE
  8
0
 62
     0
 10
9.45394
 20
3.40018
 30
0.0
 11
9.35997
 21
4.46289
 31
0.0
  0
LINE
  8
0
 62
     0
 10
9.35997
 20
4.46289
 30
0.0
 11
9.28819
 21
5.53125
 31
0.0
  0
LINE
  8
0
 62
     0
 10
9.28819
 20
5.53125
 30
0.0
 11
9.2385
 21
6.60525
 31
0.0
  0
LINE
  8
0
 62
     0
 10
9.2385
 20
6.60525
 30
0.0
 11
9.21094
 21
7.6849
 31
0.0
  0
LINE
  8
0
 62
     0
 10
9.21094
 20
7.6849
 30
0.0
 11
9.20551
 21
8.77018
 31
0.0
  0
LINE
  8
0
 62
     0
 10
9.20551
 20
8.77018
 30
0.0
 11
9.22222
 21
9.86111
 31
0.0
  0
LINE
  8
0
 62
     0
 10
9.22222
 20
9.86111
 30
0.0
 11
9.22222
 21
9.86111
 31
0.0
  0
LINE
  8
0
 62
     0
 10
9.22222
 20
9.86111
 30
0.0
 11
9.32633
 21
9.96007
 31
0.0
  0
LINE
  8
0
 62
     0
 10
9.32633
 20
9.96007
 30
0.0
 11
9.40272
 21
10.0625
 31
0.0
  0
LINE
  8
0
 62
     0
 10
9.40272
 20
10.0625
 30
0.0
 11
9.45133
 21
10.1684
 31
0.0
  0
LINE
  8
0
 62
     0
 10
9.45133
 20
10.1684
 30
0.0
 11
9.47222
 21
10.2778
 31
0.0
  0
LINE
  8
0
 62
     0
 10
9.47222
 20
10.2778
 30
0.0
 11
9.45742
 21
10.382
 31
0.0
  0
LINE
  8
0
 62
     0
 10
9.45742
 20
10.382
 30
0.0
 11
9.41314
 21
10.4723
 31
0.0
  0
LINE
  8
0
 62
     0
 10
9.41314
 20
10.4723
 30
0.0
 11
9.33936
 21
10.5487
 31
0.0
  0
LINE
  8
0
 62
     0
 10
9.33936
 20
10.5487
 30
0.0
 11
9.23611
 21
10.6111
 31
0.0
  0
LINE
  8
0
 62
     0
 10
9.23611
 20
10.6111
 30
0.0
 11
9.35764
 21
12.7135
 31
0.0
  0
LINE
  8
0
 62
     0
 10
9.35764
 20
12.7135
 30
0.0
 11
9.55556
 21
14.8125
 31
0.0
  0
LINE
  8
0
 62
     0
 10
9.55556
 20
14.8125
 30
0.0
 11
9.82986
 21
16.9081
 31
0.0
  0
LINE
  8
0
 62
     0
 10
9.82986
 20
16.9081
 30
0.0
 11
10.1806
 21
19
 31
0.0
  0
LINE
  8
0
 62
     0
 10
10.1806
 20
19
 30
0.0
 11
10.1936
 21
19.2014
 31
0.0
  0
LINE
  8
0
 62
     0
 10
10.1936
 20
19.2014
 30
0.0
 11
10.1493
 21
19.375
 31
0.0
  0
LINE
  8
0
 62
     0
 10
10.1493
 20
19.375
 30
0.0
 11
10.0477
 21
19.5208
 31
0.0
  0
LINE
  8
0
 62
     0
 10
10.0477
 20
19.5208
 30
0.0
 11
9.88889
 21
19.6389
 31
0.0
  0
LINE
  8
0
 62
     0
 10
9.88889
 20
19.6389
 30
0.0
 11
9.71528
 21
19.7144
 31
0.0
  0
LINE
  8
0
 62
     0
 10
9.71528
 20
19.7144
 30
0.0
 11
9.51389
 21
19.7604
 31
0.0
  0
LINE
  8
0
 62
     0
 10
9.51389
 20
19.7604
 30
0.0
 11
9.28472
 21
19.7769
 31
0.0
  0
LINE
  8
0
 62
     0
 10
9.28472
 20
19.7769
 30
0.0
 11
9.02778
 21
19.7639
 31
0.0
  0
LINE
  8
0
 62
     0
 10
9.02778
 20
19.7639
 30
0.0
 11
8.77083
 21
19.7229
 31
0.0
  0
LINE
  8
0
 62
     0
 10
8.77083
 20
19.7229
 30
0.0
 11
8.52778
 21
19.656
 31
0.0
  0
LINE
  8
0
 62
     0
 10
8.52778
 20
19.656
 30
0.0
 11
8.29861
 21
19.5632
 31
0.0
  0
LINE
  8
0
 62
     0
 10
8.29861
 20
19.5632
 30
0.0
 11
8.08333
 21
19.4444
 31
0.0
  0
LINE
  8
0
 62
     0
 10
8.08333
 20
19.4444
 30
0.0
 11
7.87842
 21
19.2978
 31
0.0
  0
LINE
  8
0
 62
     0
 10
7.87842
 20
19.2978
 30
0.0
 11
7.72217
 21
19.1354
 31
0.0
  0
LINE
  8
0
 62
     0
 10
7.72217
 20
19.1354
 30
0.0
 11
7.61453
 21
18.9575
 31
0.0
  0
LINE
  8
0
 62
     0
 10
7.61453
 20
18.9575
 30
0.0
 11
7.55556
 21
18.7639
 31
0.0
  0
LINE
  8
0
 62
     0
 10
7.55556
 20
18.7639
 30
0.0
 11
7.22222
 21
16.816
 31
0.0
  0
LINE
  8
0
 62
     0
 10
7.22222
 20
16.816
 30
0.0
 11
6.95833
 21
14.8472
 31
0.0
  0
LINE
  8
0
 62
     0
 10
6.95833
 20
14.8472
 30
0.0
 11
6.76389
 21
12.8576
 31
0.0
  0
LINE
  8
0
 62
     0
 10
6.76389
 20
12.8576
 30
0.0
 11
6.63889
 21
10.8472
 31
0.0
  0
LINE
  8
0
 62
     0
 10
6.63889
 20
10.8472
 30
0.0
 11
6.11431
 21
10.8759
 31
0.0
  0
LINE
  8
0
 62
     0
 10
6.11431
 20
10.8759
 30
0.0
 11
5.62408
 21
10.9063
 31
0.0
  0
LINE
  8
0
 62
     0
 10
5.62408
 20
10.9063
 30
0.0
 11
5.16813
 21
10.9384
 31
0.0
  0
LINE
  8
0
 62
     0
 10
5.16813
 20
10.9384
 30
0.0
 11
4.74647
 21
10.9722
 31
0.0
  0
LINE
  8
0
 62
     0
 10
4.74647
 20
10.9722
 30
0.0
 11
4.3591
 21
11.0078
 31
0.0
  0
LINE
  8
0
 62
     0
 10
4.3591
 20
11.0078
 30
0.0
 11
4.00603
 21
11.0451
 31
0.0
  0
LINE
  8
0
 62
     0
 10
4.00603
 20
11.0451
 30
0.0
 11
3.68722
 21
11.0842
 31
0.0
  0
LINE
  8
0
 62
     0
 10
3.68722
 20
11.0842
 30
0.0
 11
3.40278
 21
11.125
 31
0.0
  0
LINE
  8
0
 62
     0
 10
3.40278
 20
11.125
 30
0.0
 11
3.11453
 21
11.1458
 31
0.0
  0
LINE
  8
0
 62
     0
 10
3.11453
 20
11.1458
 30
0.0
 11
2.77778
 21
11.125
 31
0.0
  0
LINE
  8
0
 62
     0
 10
2.77778
 20
11.125
 30
0.0
 11
2.78147
 21
12.2765
 31
0.0
  0
LINE
  8
0
 62
     0
 10
2.78147
 20
12.2765
 30
0.0
 11
2.77171
 21
13.4045
 31
0.0
  0
LINE
  8
0
 62
     0
 10
2.77171
 20
13.4045
 30
0.0
 11
2.74849
 21
14.5092
 31
0.0
  0
LINE
  8
0
 62
     0
 10
2.74849
 20
14.5092
 30
0.0
 11
2.71181
 21
15.5903
 31
0.0
  0
LINE
  8
0
 62
     0
 10
2.71181
 20
15.5903
 30
0.0
 11
2.66168
 21
16.6481
 31
0.0
  0
LINE
  8
0
 62
     0
 10
2.66168
 20
16.6481
 30
0.0
 11
2.5981
 21
17.6824
 31
0.0
  0
LINE
  8
0
 62
     0
 10
2.5981
 20
17.6824
 30
0.0
 11
2.52106
 21
18.6932
 31
0.0
  0
LINE
  8
0
 62
     0
 10
2.52106
 20
18.6932
 30
0.0
 11
2.43056
 21
19.6806
 31
0.0
  0
LINE
  8
0
 62
     0
 10
2.43056
 20
19.6806
 30
0.0
 11
2.39751
 21
19.7604
 31
0.0
  0
LINE
  8
0
 62
     0
 10
2.39751
 20
19.7604
 30
0.0
 11
2.3125
 21
19.8194
 31
0.0
  0
LINE
  8
0
 62
     0
 10
2.3125
 20
19.8194
 30
0.0
 11
2.17535
 21
19.8576
 31
0.0
  0
LINE
  8
0
 62
     0
 10
2.17535
 20
19.8576
 30
0.0
 11
1.98611
 21
19.875
 31
0.0
  0
LINE
  8
0
 62
     0
 10
1.98611
 20
19.875
 30
0.0
 11
1.78381
 21
19.8742
 31
0.0
  0
LINE
  8
0
 62
     0
 10
1.78381
 20
19.8742
 30
0.0
 11
1.56597
 21
19.8576
 31
0.0
  0
LINE
  8
0
 62
     0
 10
1.56597
 20
19.8576
 30
0.0
 11
1.33247
 21
19.8256
 31
0.0
  0
LINE
  8
0
 62
     0
 10
1.33247
 20
19.8256
 30
0.0
 11
1.08333
 21
19.7778
 31
0.0
  0
LINE
  8
0
 62
     0
 10
1.08333
 20
19.7778
 30
0.0
 11
0.778157
 21
19.7017
 31
0.0
  0
LINE
  8
0
 62
     0
 10
0.778157
 20
19.7017
 30
0.0
 11
0.515571
 21
19.6189
 31
0.0
  0
LINE
  8
0
 62
     0
 10
0.515571
 20
19.6189
 30
0.0
 11
0.295518
 21
19.5297
 31
0.0
  0
LINE
  8
0
 62
     0
 10
0.295518
 20
19.5297
 30
0.0
 11
0.118001
 21
19.434
 31
0.0
  0
LINE
  8
0
 62
     0
 10
0.118001
 20
19.434
 30
0.0
 11
-0.0169814
 21
19.3318
 31
0.0
  0
LINE
  8
0
 62
     0
 10
-0.0169814
 20
19.3318
 30
0.0
 11
-0.109429
 21
19.2231
 31
0.0
  0
LINE
  8
0
 62
     0
 10
-0.109429
 20
19.2231
 30
0.0
 11
-0.159343
 21
19.1079
 31
0.0
  0
LINE
  8
0
 62
     0
 10
-0.159343
 20
19.1079
 30
0.0
 11
-0.166667
 21
18.9861
 31
0.0
  0
LINE
  8
0
 62
     0
 10
-0.166667
 20
18.9861
 30
0.0
 11
-0.0841471
 21
18.0736
 31
0.0
  0
LINE
  8
0
 62
     0
 10
-0.0841471
 20
18.0736
 30
0.0
 11
-0.0135091
 21
17.1276
 31
0.0
  0
LINE
  8
0
 62
     0
 10
-0.0135091
 20
17.1276
 30
0.0
 11
0.0451932
 21
16.1482
 31
0.0
  0
LINE
  8
0
 62
     0
 10
0.0451932
 20
16.1482
 30
0.0
 11
0.0919596
 21
15.1354
 31
0.0
  0
LINE
  8
0
 62
     0
 10
0.0919596
 20
15.1354
 30
0.0
 11
0.12679
 21
14.0892
 31
0.0
  0
LINE
  8
0
 62
     0
 10
0.12679
 20
14.0892
 30
0.0
 11
0.149685
 21
13.0096
 31
0.0
  0
LINE
  8
0
 62
     0
 10
0.149685
 20
13.0096
 30
0.0
 11
0.160644
 21
11.8965
 31
0.0
  0
LINE
  8
0
 62
     0
 10
0.160644
 20
11.8965
 30
0.0
 11
0.159668
 21
10.75
 31
0.0
  0
LINE
  8
0
 62
     0
 10
0.159668
 20
10.75
 30
0.0
 11
0.146756
 21
9.5701
 31
0.0
  0
LINE
  8
0
 62
     0
 10
0.146756
 20
9.5701
 30
0.0
 11
0.121908
 21
8.35678
 31
0.0
  0
LINE
  8
0
 62
     0
 10
0.121908
 20
8.35678
 30
0.0
 11
0.0851238
 21
7.11003
 31
0.0
  0
LINE
  8
0
 62
     0
 10
0.0851238
 20
7.11003
 30
0.0
 11
0.036404
 21
5.82986
 31
0.0
  0
LINE
  8
0
 62
     0
 10
0.036404
 20
5.82986
 30
0.0
 11
-0.0242513
 21
4.51628
 31
0.0
  0
LINE
  8
0
 62
     0
 10
-0.0242513
 20
4.51628
 30
0.0
 11
-0.0968425
 21
3.16928
 31
0.0
  0
LINE
  8
0
 62
     0
 10
-0.0968425
 20
3.16928
 30
0.0
 11
-0.181369
 21
1.78885
 31
0.0
  0
LINE
  8
0
 62
     0
 10
-0.181369
 20
1.78885
 30
0.0
 11
-0.277778
 21
0.375
 31
0.0
  0
LINE
  8
0
 62
     0
 10
-0.277778
 20
0.375
 30
0.0
 11
-0.258735
 21
0.313368
 31
0.0
  0
LINE
  8
0
 62
     0
 10
-0.258735
 20
0.313368
 30
0.0
 11
-0.1875
 21
0.267361
 31
0.0
  0
LINE
  8
0
 62
     0
 10
-0.1875
 20
0.267361
 30
0.0
 11
-0.0642361
 21
0.237033
 31
0.0
  0
LINE
  8
0
 62
     0
 10
-0.0642361
 20
0.237033
 30
0.0
 11
0.111111
 21
0.222222
 31
0.0
  0
LINE
  8
0
 62
     0
 10
0.111111
 20
0.222222
 30
0.0
 11
0.306424
 21
0.2162
 31
0.0
  0
LINE
  8
0
 62
     0
 10
0.306424
 20
0.2162
 30
0.0
 11
0.517361
 21
0.225694
 31
0.0
  0
LINE
  8
0
 62
     0
 10
0.517361
 20
0.225694
 30
0.0
 11
0.743924
 21
0.250868
 31
0.0
  0
LINE
  8
0
 62
     0
 10
0.743924
 20
0.250868
 30
0.0
 11
0.986111
 21
0.291667
 31
0.0
  0
LINE
  8
0
 62
     0
 10
0.986111
 20
0.291667
 30
0.0
 11
1.2895
 21
0.358561
 31
0.0
  0
LINE
  8
0
 62
     0
 10
1.2895
 20
0.358561
 30
0.0
 11
1.55382
 21
0.434082
 31
0.0
  0
LINE
  8
0
 62
     0
 10
1.55382
 20
0.434082
 30
0.0
 11
1.77908
 21
0.518283
 31
0.0
  0
LINE
  8
0
 62
     0
 10
1.77908
 20
0.518283
 30
0.0
 11
1.96528
 21
0.611165
 31
0.0
  0
LINE
  8
0
 62
     0
 10
1.96528
 20
0.611165
 30
0.0
 11
2.11242
 21
0.712728
 31
0.0
  0
LINE
  8
0
 62
     0
 10
2.11242
 20
0.712728
 30
0.0
 11
2.22049
 21
0.822971
 31
0.0
  0
LINE
  8
0
 62
     0
 10
2.22049
 20
0.822971
 30
0.0
 11
2.2895
 21
0.941894
 31
0.0
  0
LINE
  8
0
 62
     0
 10
2.2895
 20
0.941894
 30
0.0
 11
2.31944
 21
1.06944
 31
0.0
  0
LINE
  8
0
 62
     0
 10
2.31944
 20
1.06944
 30
0.0
 11
2.40511
 21
2.28603
 31
0.0
  0
LINE
  8
0
 62
     0
 10
2.40511
 20
2.28603
 30
0.0
 11
2.48172
 21
3.46354
 31
0.0
  0
LINE
  8
0
 62
     0
 10
2.48172
 20
3.46354
 30
0.0
 11
2.54921
 21
4.602
 31
0.0
  0
LINE
  8
0
 62
     0
 10
2.54921
 20
4.602
 30
0.0
 11
2.60764
 21
5.70139
 31
0.0
  0
LINE
  8
0
 62
     0
 10
2.60764
 20
5.70139
 30
0.0
 11
2.6569
 21
6.76178
 31
0.0
  0
LINE
  8
0
 62
     0
 10
2.6569
 20
6.76178
 30
0.0
 11
2.69706
 21
7.78304
 31
0.0
  0
LINE
  8
0
 62
     0
 10
2.69706
 20
7.78304
 30
0.0
 11
2.72808
 21
8.76525
 31
0.0
  0
LINE
  8
0
 62
     0
 10
2.72808
 20
8.76525
 30
0.0
 11
2.75
 21
9.70833
 31
0.0
  0
LINE
  8
0
 62
     0
 10
2.75
 20
9.70833
 30
0.0
 11
3.14578
 21
9.66754
 31
0.0
  0
LINE
  8
0
 62
     0
 10
3.14578
 20
9.66754
 30
0.0
 11
3.59717
 21
9.62847
 31
0.0
  0
LINE
  8
0
 62
     0
 10
3.59717
 20
9.62847
 30
0.0
 11
4.10411
 21
9.59115
 31
0.0
  0
LINE
  8
0
 62
     0
 10
4.10411
 20
9.59115
 30
0.0
 11
4.66667
 21
9.55556
 31
0.0
  0
LINE
  8
0
 62
     0
 10
4.66667
 20
9.55556
 30
0.0
 11
5.02778
 21
9.5356
 31
0.0
  0
LINE
  8
0
 62
     0
 10
5.02778
 20
9.5356
 30
0.0
 11
5.35417
 21
9.51736
 31
0.0
  0
LINE
  8
0
 62
     0
 10
5.35417
 20
9.51736
 30
0.0
 11
5.64583
 21
9.50087
 31
0.0
  0
LINE
  8
0
 62
     0
 10
5.64583
 20
9.50087
 30
0.0
 11
5.90278
 21
9.48611
 31
0.0
  0
LINE
  8
0
 62
     0
 10
5.90278
 20
9.48611
 30
0.0
 11
6.125
 21
9.4731
 31
0.0
  0
LINE
  8
0
 62
     0
 10
6.125
 20
9.4731
 30
0.0
 11
6.3125
 21
9.46181
 31
0.0
  0
LINE
  8
0
 62
     0
 10
6.3125
 20
9.46181
 30
0.0
 11
6.46528
 21
9.45226
 31
0.0
  0
LINE
  8
0
 62
     0
 10
6.46528
 20
9.45226
 30
0.0
 11
6.58333
 21
9.44444
 31
0.0
  0
LINE
  8
0
 62
     0
 10
6.58333
 20
9.44444
 30
0.0
 11
6.58507
 21
7.20925
 31
0.0
  0
LINE
  8
0
 62
     0
 10
6.58507
 20
7.20925
 30
0.0
 11
6.67361
 21
4.98958
 31
0.0
  0
LINE
  8
0
 62
     0
 10
6.67361
 20
4.98958
 30
0.0
 11
6.84896
 21
2.7856
 31
0.0
  0
LINE
  8
0
 62
     0
 10
6.84896
 20
2.7856
 30
0.0
 11
7.11111
 21
0.597222
 31
0.0
  0
ENDSEC
  0
EOF
