  0
SECTION
  2
HEADER
  9
$ACADVER
  1
AC1009
  9
$EXTMIN
 10
0.0
 20
0.0
 30
0.0
  9
$EXTMAX
 10
1000.0
 20
1000.0
 30
0.0
  9
$FILLMODE
 70
 0
  9
$SPLFRAME
 70
 1
  0
ENDSEC
  0
SECTION
  2
TABLES
  0
TABLE
  2
LAYER
 70
1
  0
LAYER
  2
0
 70
     0
 62
     7
  6
CONTINUOUS
  0
ENDTAB
  0
ENDSEC
  0
SECTION
  2
ENTITIES
  0
LINE
  8
0
 62
     0
 10
2.81944
 20
16.25
 30
0.0
 11
2.83681
 21
16.1806
 31
0.0
  0
LINE
  8
0
 62
     0
 10
2.83681
 20
16.1806
 30
0.0
 11
2.88889
 21
16.125
 31
0.0
  0
LINE
  8
0
 62
     0
 10
2.88889
 20
16.125
 30
0.0
 11
2.97569
 21
16.0833
 31
0.0
  0
LINE
  8
0
 62
     0
 10
2.97569
 20
16.0833
 30
0.0
 11
3.09722
 21
16.0556
 31
0.0
  0
LINE
  8
0
 62
     0
 10
3.09722
 20
16.0556
 30
0.0
 11
3.36806
 21
16.0417
 31
0.0
  0
LINE
  8
0
 62
     0
 10
3.36806
 20
16.0417
 30
0.0
 11
3.68056
 21
16.0833
 31
0.0
  0
LINE
  8
0
 62
     0
 10
3.68056
 20
16.0833
 30
0.0
 11
4.01042
 21
16.184
 31
0.0
  0
LINE
  8
0
 62
     0
 10
4.01042
 20
16.184
 30
0.0
 11
4.27778
 21
16.3194
 31
0.0
  0
LINE
  8
0
 62
     0
 10
4.27778
 20
16.3194
 30
0.0
 11
4.39925
 21
16.4115
 31
0.0
  0
LINE
  8
0
 62
     0
 10
4.39925
 20
16.4115
 30
0.0
 11
4.48606
 21
16.5069
 31
0.0
  0
LINE
  8
0
 62
     0
 10
4.48606
 20
16.5069
 30
0.0
 11
4.53814
 21
16.606
 31
0.0
  0
LINE
  8
0
 62
     0
 10
4.53814
 20
16.606
 30
0.0
 11
4.55556
 21
16.7083
 31
0.0
  0
LINE
  8
0
 62
     0
 10
4.55556
 20
16.7083
 30
0.0
 11
4.55556
 21
22.3333
 31
0.0
  0
LINE
  8
0
 62
     0
 10
4.55556
 20
22.3333
 30
0.0
 11
4.53814
 21
22.4028
 31
0.0
  0
LINE
  8
0
 62
     0
 10
4.53814
 20
22.4028
 30
0.0
 11
4.48606
 21
22.4583
 31
0.0
  0
LINE
  8
0
 62
     0
 10
4.48606
 20
22.4583
 30
0.0
 11
4.39925
 21
22.5
 31
0.0
  0
LINE
  8
0
 62
     0
 10
4.39925
 20
22.5
 30
0.0
 11
4.27778
 21
22.5278
 31
0.0
  0
LINE
  8
0
 62
     0
 10
4.27778
 20
22.5278
 30
0.0
 11
4.14671
 21
22.5408
 31
0.0
  0
LINE
  8
0
 62
     0
 10
4.14671
 20
22.5408
 30
0.0
 11
4.00347
 21
22.5382
 31
0.0
  0
LINE
  8
0
 62
     0
 10
4.00347
 20
22.5382
 30
0.0
 11
3.8481
 21
22.52
 31
0.0
  0
LINE
  8
0
 62
     0
 10
3.8481
 20
22.52
 30
0.0
 11
3.68056
 21
22.4861
 31
0.0
  0
LINE
  8
0
 62
     0
 10
3.68056
 20
22.4861
 30
0.0
 11
3.36106
 21
22.3924
 31
0.0
  0
LINE
  8
0
 62
     0
 10
3.36106
 20
22.3924
 30
0.0
 11
3.09722
 21
22.25
 31
0.0
  0
LINE
  8
0
 62
     0
 10
3.09722
 20
22.25
 30
0.0
 11
2.97569
 21
22.1632
 31
0.0
  0
LINE
  8
0
 62
     0
 10
2.97569
 20
22.1632
 30
0.0
 11
2.88889
 21
22.0694
 31
0.0
  0
LINE
  8
0
 62
     0
 10
2.88889
 20
22.0694
 30
0.0
 11
2.83681
 21
21.9688
 31
0.0
  0
LINE
  8
0
 62
     0
 10
2.83681
 20
21.9688
 30
0.0
 11
2.81944
 21
21.8611
 31
0.0
  0
LINE
  8
0
 62
     0
 10
2.81944
 20
21.8611
 30
0.0
 11
2.81944
 21
16.25
 31
0.0
  0
LINE
  8
0
 62
     0
 10
5.29167
 20
16.8056
 30
0.0
 11
5.29601
 21
16.7032
 31
0.0
  0
LINE
  8
0
 62
     0
 10
5.29601
 20
16.7032
 30
0.0
 11
5.33681
 21
16.6181
 31
0.0
  0
LINE
  8
0
 62
     0
 10
5.33681
 20
16.6181
 30
0.0
 11
5.41401
 21
16.5504
 31
0.0
  0
LINE
  8
0
 62
     0
 10
5.41401
 20
16.5504
 30
0.0
 11
5.52778
 21
16.5
 31
0.0
  0
LINE
  8
0
 62
     0
 10
5.52778
 20
16.5
 30
0.0
 11
5.64757
 21
16.4732
 31
0.0
  0
LINE
  8
0
 62
     0
 10
5.64757
 20
16.4732
 30
0.0
 11
5.78472
 21
16.4618
 31
0.0
  0
LINE
  8
0
 62
     0
 10
5.78472
 20
16.4618
 30
0.0
 11
5.93924
 21
16.4661
 31
0.0
  0
LINE
  8
0
 62
     0
 10
5.93924
 20
16.4661
 30
0.0
 11
6.11111
 21
16.4861
 31
0.0
  0
LINE
  8
0
 62
     0
 10
6.11111
 20
16.4861
 30
0.0
 11
6.4375
 21
16.5729
 31
0.0
  0
LINE
  8
0
 62
     0
 10
6.4375
 20
16.5729
 30
0.0
 11
6.72222
 21
16.6944
 31
0.0
  0
LINE
  8
0
 62
     0
 10
6.72222
 20
16.6944
 30
0.0
 11
6.84549
 21
16.7796
 31
0.0
  0
LINE
  8
0
 62
     0
 10
6.84549
 20
16.7796
 30
0.0
 11
6.9375
 21
16.8681
 31
0.0
  0
LINE
  8
0
 62
     0
 10
6.9375
 20
16.8681
 30
0.0
 11
6.99826
 21
16.9601
 31
0.0
  0
LINE
  8
0
 62
     0
 10
6.99826
 20
16.9601
 30
0.0
 11
7.02778
 21
17.0556
 31
0.0
  0
LINE
  8
0
 62
     0
 10
7.02778
 20
17.0556
 30
0.0
 11
7.07986
 21
17.5699
 31
0.0
  0
LINE
  8
0
 62
     0
 10
7.07986
 20
17.5699
 30
0.0
 11
7.125
 21
18.1338
 31
0.0
  0
LINE
  8
0
 62
     0
 10
7.125
 20
18.1338
 30
0.0
 11
7.16319
 21
18.7469
 31
0.0
  0
LINE
  8
0
 62
     0
 10
7.16319
 20
18.7469
 30
0.0
 11
7.19444
 21
19.4097
 31
0.0
  0
LINE
  8
0
 62
     0
 10
7.19444
 20
19.4097
 30
0.0
 11
7.21875
 21
20.1219
 31
0.0
  0
LINE
  8
0
 62
     0
 10
7.21875
 20
20.1219
 30
0.0
 11
7.23611
 21
20.8838
 31
0.0
  0
LINE
  8
0
 62
     0
 10
7.23611
 20
20.8838
 30
0.0
 11
7.24653
 21
21.6949
 31
0.0
  0
LINE
  8
0
 62
     0
 10
7.24653
 20
21.6949
 30
0.0
 11
7.25
 21
22.5556
 31
0.0
  0
LINE
  8
0
 62
     0
 10
7.25
 20
22.5556
 30
0.0
 11
7.23351
 21
22.6319
 31
0.0
  0
LINE
  8
0
 62
     0
 10
7.23351
 20
22.6319
 30
0.0
 11
7.18403
 21
22.6944
 31
0.0
  0
LINE
  8
0
 62
     0
 10
7.18403
 20
22.6944
 30
0.0
 11
7.10157
 21
22.7431
 31
0.0
  0
LINE
  8
0
 62
     0
 10
7.10157
 20
22.7431
 30
0.0
 11
6.98611
 21
22.7778
 31
0.0
  0
LINE
  8
0
 62
     0
 10
6.98611
 20
22.7778
 30
0.0
 11
6.85504
 21
22.7908
 31
0.0
  0
LINE
  8
0
 62
     0
 10
6.85504
 20
22.7908
 30
0.0
 11
6.71181
 21
22.7882
 31
0.0
  0
LINE
  8
0
 62
     0
 10
6.71181
 20
22.7882
 30
0.0
 11
6.55643
 21
22.77
 31
0.0
  0
LINE
  8
0
 62
     0
 10
6.55643
 20
22.77
 30
0.0
 11
6.38889
 21
22.7361
 31
0.0
  0
LINE
  8
0
 62
     0
 10
6.38889
 20
22.7361
 30
0.0
 11
6.05903
 21
22.6354
 31
0.0
  0
LINE
  8
0
 62
     0
 10
6.05903
 20
22.6354
 30
0.0
 11
5.79167
 21
22.5
 31
0.0
  0
LINE
  8
0
 62
     0
 10
5.79167
 20
22.5
 30
0.0
 11
5.67014
 21
22.4019
 31
0.0
  0
LINE
  8
0
 62
     0
 10
5.67014
 20
22.4019
 30
0.0
 11
5.58333
 21
22.3021
 31
0.0
  0
LINE
  8
0
 62
     0
 10
5.58333
 20
22.3021
 30
0.0
 11
5.53125
 21
22.2006
 31
0.0
  0
LINE
  8
0
 62
     0
 10
5.53125
 20
22.2006
 30
0.0
 11
5.51389
 21
22.0972
 31
0.0
  0
LINE
  8
0
 62
     0
 10
5.51389
 20
22.0972
 30
0.0
 11
5.51042
 21
21.2763
 31
0.0
  0
LINE
  8
0
 62
     0
 10
5.51042
 20
21.2763
 30
0.0
 11
5.5
 21
20.5008
 31
0.0
  0
LINE
  8
0
 62
     0
 10
5.5
 20
20.5008
 30
0.0
 11
5.48264
 21
19.7711
 31
0.0
  0
LINE
  8
0
 62
     0
 10
5.48264
 20
19.7711
 30
0.0
 11
5.45833
 21
19.0868
 31
0.0
  0
LINE
  8
0
 62
     0
 10
5.45833
 20
19.0868
 30
0.0
 11
5.42708
 21
18.4482
 31
0.0
  0
LINE
  8
0
 62
     0
 10
5.42708
 20
18.4482
 30
0.0
 11
5.38889
 21
17.855
 31
0.0
  0
LINE
  8
0
 62
     0
 10
5.38889
 20
17.855
 30
0.0
 11
5.34375
 21
17.3075
 31
0.0
  0
LINE
  8
0
 62
     0
 10
5.34375
 20
17.3075
 30
0.0
 11
5.29167
 21
16.8056
 31
0.0
  0
ENDSEC
  0
EOF
