  0
SECTION
  2
HEADER
  9
$ACADVER
  1
AC1009
  9
$EXTMIN
 10
0.0
 20
0.0
 30
0.0
  9
$EXTMAX
 10
1000.0
 20
1000.0
 30
0.0
  9
$FILLMODE
 70
 0
  9
$SPLFRAME
 70
 1
  0
ENDSEC
  0
SECTION
  2
TABLES
  0
TABLE
  2
LAYER
 70
1
  0
LAYER
  2
0
 70
     0
 62
     7
  6
CONTINUOUS
  0
ENDTAB
  0
ENDSEC
  0
SECTION
  2
ENTITIES
  0
LINE
  8
0
 62
     0
 10
6.47222
 20
8.29167
 30
0.0
 11
6.24647
 21
8.28472
 31
0.0
  0
LINE
  8
0
 62
     0
 10
6.24647
 20
8.28472
 30
0.0
 11
5.98606
 21
8.27778
 31
0.0
  0
LINE
  8
0
 62
     0
 10
5.98606
 20
8.27778
 30
0.0
 11
5.69092
 21
8.27089
 31
0.0
  0
LINE
  8
0
 62
     0
 10
5.69092
 20
8.27089
 30
0.0
 11
5.36111
 21
8.26389
 31
0.0
  0
LINE
  8
0
 62
     0
 10
5.36111
 20
8.26389
 30
0.0
 11
4.96789
 21
8.24567
 31
0.0
  0
LINE
  8
0
 62
     0
 10
4.96789
 20
8.24567
 30
0.0
 11
4.64931
 21
8.23264
 31
0.0
  0
LINE
  8
0
 62
     0
 10
4.64931
 20
8.23264
 30
0.0
 11
4.40539
 21
8.22483
 31
0.0
  0
LINE
  8
0
 62
     0
 10
4.40539
 20
8.22483
 30
0.0
 11
4.23611
 21
8.22222
 31
0.0
  0
LINE
  8
0
 62
     0
 10
4.23611
 20
8.22222
 30
0.0
 11
3.59549
 21
8.20318
 31
0.0
  0
LINE
  8
0
 62
     0
 10
3.59549
 20
8.20318
 30
0.0
 11
3.00694
 21
8.18756
 31
0.0
  0
LINE
  8
0
 62
     0
 10
3.00694
 20
8.18756
 30
0.0
 11
2.47049
 21
8.1754
 31
0.0
  0
LINE
  8
0
 62
     0
 10
2.47049
 20
8.1754
 30
0.0
 11
1.98611
 21
8.16667
 31
0.0
  0
LINE
  8
0
 62
     0
 10
1.98611
 20
8.16667
 30
0.0
 11
1.82547
 21
8.15365
 31
0.0
  0
LINE
  8
0
 62
     0
 10
1.82547
 20
8.15365
 30
0.0
 11
1.64931
 21
8.11458
 31
0.0
  0
LINE
  8
0
 62
     0
 10
1.64931
 20
8.11458
 30
0.0
 11
1.45747
 21
8.04949
 31
0.0
  0
LINE
  8
0
 62
     0
 10
1.45747
 20
8.04949
 30
0.0
 11
1.25
 21
7.95833
 31
0.0
  0
LINE
  8
0
 62
     0
 10
1.25
 20
7.95833
 30
0.0
 11
0.871528
 21
7.75006
 31
0.0
  0
LINE
  8
0
 62
     0
 10
0.871528
 20
7.75006
 30
0.0
 11
0.569444
 21
7.51389
 31
0.0
  0
LINE
  8
0
 62
     0
 10
0.569444
 20
7.51389
 30
0.0
 11
0.452257
 21
7.382
 31
0.0
  0
LINE
  8
0
 62
     0
 10
0.452257
 20
7.382
 30
0.0
 11
0.378472
 21
7.26394
 31
0.0
  0
LINE
  8
0
 62
     0
 10
0.378472
 20
7.26394
 30
0.0
 11
0.34809
 21
7.15978
 31
0.0
  0
LINE
  8
0
 62
     0
 10
0.34809
 20
7.15978
 30
0.0
 11
0.361111
 21
7.06944
 31
0.0
  0
LINE
  8
0
 62
     0
 10
0.361111
 20
7.06944
 30
0.0
 11
0.439236
 21
6.98443
 31
0.0
  0
LINE
  8
0
 62
     0
 10
0.439236
 20
6.98443
 30
0.0
 11
0.576389
 21
6.92367
 31
0.0
  0
LINE
  8
0
 62
     0
 10
0.576389
 20
6.92367
 30
0.0
 11
0.772569
 21
6.88721
 31
0.0
  0
LINE
  8
0
 62
     0
 10
0.772569
 20
6.88721
 30
0.0
 11
1.02778
 21
6.875
 31
0.0
  0
LINE
  8
0
 62
     0
 10
1.02778
 20
6.875
 30
0.0
 11
1.51129
 21
6.87847
 31
0.0
  0
LINE
  8
0
 62
     0
 10
1.51129
 20
6.87847
 30
0.0
 11
2.04514
 21
6.88889
 31
0.0
  0
LINE
  8
0
 62
     0
 10
2.04514
 20
6.88889
 30
0.0
 11
2.62935
 21
6.90625
 31
0.0
  0
LINE
  8
0
 62
     0
 10
2.62935
 20
6.90625
 30
0.0
 11
3.26389
 21
6.93056
 31
0.0
  0
LINE
  8
0
 62
     0
 10
3.26389
 20
6.93056
 30
0.0
 11
3.43832
 21
6.93235
 31
0.0
  0
LINE
  8
0
 62
     0
 10
3.43832
 20
6.93235
 30
0.0
 11
3.68397
 21
6.93756
 31
0.0
  0
LINE
  8
0
 62
     0
 10
3.68397
 20
6.93756
 30
0.0
 11
4.00082
 21
6.94624
 31
0.0
  0
LINE
  8
0
 62
     0
 10
4.00082
 20
6.94624
 30
0.0
 11
4.38889
 21
6.95833
 31
0.0
  0
LINE
  8
0
 62
     0
 10
4.38889
 20
6.95833
 30
0.0
 11
4.71957
 21
6.97136
 31
0.0
  0
LINE
  8
0
 62
     0
 10
4.71957
 20
6.97136
 30
0.0
 11
5.01731
 21
6.98264
 31
0.0
  0
LINE
  8
0
 62
     0
 10
5.01731
 20
6.98264
 30
0.0
 11
5.28207
 21
6.99219
 31
0.0
  0
LINE
  8
0
 62
     0
 10
5.28207
 20
6.99219
 30
0.0
 11
5.51389
 21
7
 31
0.0
  0
LINE
  8
0
 62
     0
 10
5.51389
 20
7
 30
0.0
 11
6.17643
 21
7.01779
 31
0.0
  0
LINE
  8
0
 62
     0
 10
6.17643
 20
7.01779
 30
0.0
 11
6.8099
 21
7.02951
 31
0.0
  0
LINE
  8
0
 62
     0
 10
6.8099
 20
7.02951
 30
0.0
 11
7.41428
 21
7.03515
 31
0.0
  0
LINE
  8
0
 62
     0
 10
7.41428
 20
7.03515
 30
0.0
 11
7.98958
 21
7.03472
 31
0.0
  0
LINE
  8
0
 62
     0
 10
7.98958
 20
7.03472
 30
0.0
 11
8.53581
 21
7.02821
 31
0.0
  0
LINE
  8
0
 62
     0
 10
8.53581
 20
7.02821
 30
0.0
 11
9.05296
 21
7.01563
 31
0.0
  0
LINE
  8
0
 62
     0
 10
9.05296
 20
7.01563
 30
0.0
 11
9.54101
 21
6.99696
 31
0.0
  0
LINE
  8
0
 62
     0
 10
9.54101
 20
6.99696
 30
0.0
 11
10
 21
6.97222
 31
0.0
  0
LINE
  8
0
 62
     0
 10
10
 20
6.97222
 30
0.0
 11
10.1666
 21
6.97835
 31
0.0
  0
LINE
  8
0
 62
     0
 10
10.1666
 20
6.97835
 30
0.0
 11
10.3472
 21
7.01047
 31
0.0
  0
LINE
  8
0
 62
     0
 10
10.3472
 20
7.01047
 30
0.0
 11
10.5416
 21
7.06863
 31
0.0
  0
LINE
  8
0
 62
     0
 10
10.5416
 20
7.06863
 30
0.0
 11
10.75
 21
7.15278
 31
0.0
  0
LINE
  8
0
 62
     0
 10
10.75
 20
7.15278
 30
0.0
 11
11.118
 21
7.34028
 31
0.0
  0
LINE
  8
0
 62
     0
 10
11.118
 20
7.34028
 30
0.0
 11
11.4167
 21
7.56944
 31
0.0
  0
LINE
  8
0
 62
     0
 10
11.4167
 20
7.56944
 30
0.0
 11
11.5391
 21
7.6971
 31
0.0
  0
LINE
  8
0
 62
     0
 10
11.5391
 20
7.6971
 30
0.0
 11
11.6146
 21
7.81603
 31
0.0
  0
LINE
  8
0
 62
     0
 10
11.6146
 20
7.81603
 30
0.0
 11
11.6432
 21
7.92626
 31
0.0
  0
LINE
  8
0
 62
     0
 10
11.6432
 20
7.92626
 30
0.0
 11
11.625
 21
8.02778
 31
0.0
  0
LINE
  8
0
 62
     0
 10
11.625
 20
8.02778
 30
0.0
 11
11.5468
 21
8.12153
 31
0.0
  0
LINE
  8
0
 62
     0
 10
11.5468
 20
8.12153
 30
0.0
 11
11.4097
 21
8.19444
 31
0.0
  0
LINE
  8
0
 62
     0
 10
11.4097
 20
8.19444
 30
0.0
 11
11.2135
 21
8.24653
 31
0.0
  0
LINE
  8
0
 62
     0
 10
11.2135
 20
8.24653
 30
0.0
 11
10.9583
 21
8.27778
 31
0.0
  0
LINE
  8
0
 62
     0
 10
10.9583
 20
8.27778
 30
0.0
 11
10.5023
 21
8.29932
 31
0.0
  0
LINE
  8
0
 62
     0
 10
10.5023
 20
8.29932
 30
0.0
 11
10.0164
 21
8.31515
 31
0.0
  0
LINE
  8
0
 62
     0
 10
10.0164
 20
8.31515
 30
0.0
 11
9.5006
 21
8.32536
 31
0.0
  0
LINE
  8
0
 62
     0
 10
9.5006
 20
8.32536
 30
0.0
 11
8.95486
 21
8.32992
 31
0.0
  0
LINE
  8
0
 62
     0
 10
8.95486
 20
8.32992
 30
0.0
 11
8.37913
 21
8.32883
 31
0.0
  0
LINE
  8
0
 62
     0
 10
8.37913
 20
8.32883
 30
0.0
 11
7.77344
 21
8.3221
 31
0.0
  0
LINE
  8
0
 62
     0
 10
7.77344
 20
8.3221
 30
0.0
 11
7.13781
 21
8.30974
 31
0.0
  0
LINE
  8
0
 62
     0
 10
7.13781
 20
8.30974
 30
0.0
 11
6.47222
 21
8.29167
 31
0.0
  0
ENDSEC
  0
EOF
