  0
SECTION
  2
HEADER
  9
$ACADVER
  1
AC1009
  9
$EXTMIN
 10
0.0
 20
0.0
 30
0.0
  9
$EXTMAX
 10
1000.0
 20
1000.0
 30
0.0
  9
$FILLMODE
 70
 0
  9
$SPLFRAME
 70
 1
  0
ENDSEC
  0
SECTION
  2
TABLES
  0
TABLE
  2
LAYER
 70
1
  0
LAYER
  2
0
 70
     0
 62
     7
  6
CONTINUOUS
  0
ENDTAB
  0
ENDSEC
  0
SECTION
  2
ENTITIES
  0
LINE
  8
0
 62
     0
 10
1.75
 20
17.7222
 30
0.0
 11
1.71853
 21
16.3769
 31
0.0
  0
LINE
  8
0
 62
     0
 10
1.71853
 20
16.3769
 30
0.0
 11
1.69026
 21
15.0806
 31
0.0
  0
LINE
  8
0
 62
     0
 10
1.69026
 20
15.0806
 30
0.0
 11
1.66515
 21
13.8331
 31
0.0
  0
LINE
  8
0
 62
     0
 10
1.66515
 20
13.8331
 30
0.0
 11
1.64318
 21
12.6346
 31
0.0
  0
LINE
  8
0
 62
     0
 10
1.64318
 20
12.6346
 30
0.0
 11
1.62435
 21
11.485
 31
0.0
  0
LINE
  8
0
 62
     0
 10
1.62435
 20
11.485
 30
0.0
 11
1.60867
 21
10.3843
 31
0.0
  0
LINE
  8
0
 62
     0
 10
1.60867
 20
10.3843
 30
0.0
 11
1.59614
 21
9.33262
 31
0.0
  0
LINE
  8
0
 62
     0
 10
1.59614
 20
9.33262
 30
0.0
 11
1.58675
 21
8.32986
 31
0.0
  0
LINE
  8
0
 62
     0
 10
1.58675
 20
8.32986
 30
0.0
 11
1.58051
 21
7.37603
 31
0.0
  0
LINE
  8
0
 62
     0
 10
1.58051
 20
7.37603
 30
0.0
 11
1.57742
 21
6.47114
 31
0.0
  0
LINE
  8
0
 62
     0
 10
1.57742
 20
6.47114
 30
0.0
 11
1.57747
 21
5.61518
 31
0.0
  0
LINE
  8
0
 62
     0
 10
1.57747
 20
5.61518
 30
0.0
 11
1.58068
 21
4.80817
 31
0.0
  0
LINE
  8
0
 62
     0
 10
1.58068
 20
4.80817
 30
0.0
 11
1.58703
 21
4.05007
 31
0.0
  0
LINE
  8
0
 62
     0
 10
1.58703
 20
4.05007
 30
0.0
 11
1.59651
 21
3.34093
 31
0.0
  0
LINE
  8
0
 62
     0
 10
1.59651
 20
3.34093
 30
0.0
 11
1.60915
 21
2.68072
 31
0.0
  0
LINE
  8
0
 62
     0
 10
1.60915
 20
2.68072
 30
0.0
 11
1.625
 21
2.06944
 31
0.0
  0
LINE
  8
0
 62
     0
 10
1.625
 20
2.06944
 30
0.0
 11
1.58681
 21
2.08333
 31
0.0
  0
LINE
  8
0
 62
     0
 10
1.58681
 20
2.08333
 30
0.0
 11
1.52778
 21
2.09722
 31
0.0
  0
LINE
  8
0
 62
     0
 10
1.52778
 20
2.09722
 30
0.0
 11
1.47564
 21
2.10769
 31
0.0
  0
LINE
  8
0
 62
     0
 10
1.47564
 20
2.10769
 30
0.0
 11
1.43056
 21
2.11111
 31
0.0
  0
LINE
  8
0
 62
     0
 10
1.43056
 20
2.11111
 30
0.0
 11
1.17008
 21
2.17449
 31
0.0
  0
LINE
  8
0
 62
     0
 10
1.17008
 20
2.17449
 30
0.0
 11
0.902724
 21
2.19792
 31
0.0
  0
LINE
  8
0
 62
     0
 10
0.902724
 20
2.19792
 30
0.0
 11
0.628418
 21
2.18143
 31
0.0
  0
LINE
  8
0
 62
     0
 10
0.628418
 20
2.18143
 30
0.0
 11
0.347222
 21
2.125
 31
0.0
  0
LINE
  8
0
 62
     0
 10
0.347222
 20
2.125
 30
0.0
 11
0.0763889
 21
2.03907
 31
0.0
  0
LINE
  8
0
 62
     0
 10
0.0763889
 20
2.03907
 30
0.0
 11
-0.166667
 21
1.92014
 31
0.0
  0
LINE
  8
0
 62
     0
 10
-0.166667
 20
1.92014
 30
0.0
 11
-0.381944
 21
1.76824
 31
0.0
  0
LINE
  8
0
 62
     0
 10
-0.381944
 20
1.76824
 30
0.0
 11
-0.569444
 21
1.58333
 31
0.0
  0
LINE
  8
0
 62
     0
 10
-0.569444
 20
1.58333
 30
0.0
 11
-0.708333
 21
1.39324
 31
0.0
  0
LINE
  8
0
 62
     0
 10
-0.708333
 20
1.39324
 30
0.0
 11
-0.791667
 21
1.19792
 31
0.0
  0
LINE
  8
0
 62
     0
 10
-0.791667
 20
1.19792
 30
0.0
 11
-0.819444
 21
0.997396
 31
0.0
  0
LINE
  8
0
 62
     0
 10
-0.819444
 20
0.997396
 30
0.0
 11
-0.791667
 21
0.791667
 31
0.0
  0
LINE
  8
0
 62
     0
 10
-0.791667
 20
0.791667
 30
0.0
 11
-0.719618
 21
0.600749
 31
0.0
  0
LINE
  8
0
 62
     0
 10
-0.719618
 20
0.600749
 30
0.0
 11
-0.600694
 21
0.444499
 31
0.0
  0
LINE
  8
0
 62
     0
 10
-0.600694
 20
0.444499
 30
0.0
 11
-0.43495
 21
0.322971
 31
0.0
  0
LINE
  8
0
 62
     0
 10
-0.43495
 20
0.322971
 30
0.0
 11
-0.222222
 21
0.236111
 31
0.0
  0
LINE
  8
0
 62
     0
 10
-0.222222
 20
0.236111
 30
0.0
 11
0.109375
 21
0.145833
 31
0.0
  0
LINE
  8
0
 62
     0
 10
0.109375
 20
0.145833
 30
0.0
 11
0.461968
 21
0.0659722
 31
0.0
  0
LINE
  8
0
 62
     0
 10
0.461968
 20
0.0659722
 30
0.0
 11
0.835504
 21
-0.00347222
 31
0.0
  0
LINE
  8
0
 62
     0
 10
0.835504
 20
-0.00347222
 30
0.0
 11
1.22998
 21
-0.0625
 31
0.0
  0
LINE
  8
0
 62
     0
 10
1.22998
 20
-0.0625
 30
0.0
 11
1.6454
 21
-0.111111
 31
0.0
  0
LINE
  8
0
 62
     0
 10
1.6454
 20
-0.111111
 30
0.0
 11
2.08176
 21
-0.149306
 31
0.0
  0
LINE
  8
0
 62
     0
 10
2.08176
 20
-0.149306
 30
0.0
 11
2.53907
 21
-0.177083
 31
0.0
  0
LINE
  8
0
 62
     0
 10
2.53907
 20
-0.177083
 30
0.0
 11
3.01731
 21
-0.194444
 31
0.0
  0
LINE
  8
0
 62
     0
 10
3.01731
 20
-0.194444
 30
0.0
 11
3.5165
 21
-0.201335
 31
0.0
  0
LINE
  8
0
 62
     0
 10
3.5165
 20
-0.201335
 30
0.0
 11
4.03662
 21
-0.197863
 31
0.0
  0
LINE
  8
0
 62
     0
 10
4.03662
 20
-0.197863
 30
0.0
 11
4.57769
 21
-0.183974
 31
0.0
  0
LINE
  8
0
 62
     0
 10
4.57769
 20
-0.183974
 30
0.0
 11
5.13971
 21
-0.159668
 31
0.0
  0
LINE
  8
0
 62
     0
 10
5.13971
 20
-0.159668
 30
0.0
 11
5.72265
 21
-0.124946
 31
0.0
  0
LINE
  8
0
 62
     0
 10
5.72265
 20
-0.124946
 30
0.0
 11
6.32656
 21
-0.0798068
 31
0.0
  0
LINE
  8
0
 62
     0
 10
6.32656
 20
-0.0798068
 30
0.0
 11
6.95139
 21
-0.0242513
 31
0.0
  0
LINE
  8
0
 62
     0
 10
6.95139
 20
-0.0242513
 30
0.0
 11
7.59722
 21
0.0416667
 31
0.0
  0
LINE
  8
0
 62
     0
 10
7.59722
 20
0.0416667
 30
0.0
 11
7.86106
 21
0.0825196
 31
0.0
  0
LINE
  8
0
 62
     0
 10
7.86106
 20
0.0825196
 30
0.0
 11
8.11106
 21
0.149306
 31
0.0
  0
LINE
  8
0
 62
     0
 10
8.11106
 20
0.149306
 30
0.0
 11
8.34717
 21
0.242188
 31
0.0
  0
LINE
  8
0
 62
     0
 10
8.34717
 20
0.242188
 30
0.0
 11
8.56944
 21
0.361111
 31
0.0
  0
LINE
  8
0
 62
     0
 10
8.56944
 20
0.361111
 30
0.0
 11
8.80464
 21
0.53125
 31
0.0
  0
LINE
  8
0
 62
     0
 10
8.80464
 20
0.53125
 30
0.0
 11
8.98264
 21
0.722222
 31
0.0
  0
LINE
  8
0
 62
     0
 10
8.98264
 20
0.722222
 30
0.0
 11
9.10331
 21
0.934082
 31
0.0
  0
LINE
  8
0
 62
     0
 10
9.10331
 20
0.934082
 30
0.0
 11
9.16667
 21
1.16667
 31
0.0
  0
LINE
  8
0
 62
     0
 10
9.16667
 20
1.16667
 30
0.0
 11
9.16146
 21
1.39497
 31
0.0
  0
LINE
  8
0
 62
     0
 10
9.16146
 20
1.39497
 30
0.0
 11
9.09028
 21
1.59375
 31
0.0
  0
LINE
  8
0
 62
     0
 10
9.09028
 20
1.59375
 30
0.0
 11
8.95313
 21
1.76303
 31
0.0
  0
LINE
  8
0
 62
     0
 10
8.95313
 20
1.76303
 30
0.0
 11
8.75
 21
1.90278
 31
0.0
  0
LINE
  8
0
 62
     0
 10
8.75
 20
1.90278
 30
0.0
 11
8.54335
 21
1.99658
 31
0.0
  0
LINE
  8
0
 62
     0
 10
8.54335
 20
1.99658
 30
0.0
 11
8.32633
 21
2.05561
 31
0.0
  0
LINE
  8
0
 62
     0
 10
8.32633
 20
2.05561
 30
0.0
 11
8.0989
 21
2.07992
 31
0.0
  0
LINE
  8
0
 62
     0
 10
8.0989
 20
2.07992
 30
0.0
 11
7.86111
 21
2.06944
 31
0.0
  0
LINE
  8
0
 62
     0
 10
7.86111
 20
2.06944
 30
0.0
 11
7.23996
 21
2.00418
 31
0.0
  0
LINE
  8
0
 62
     0
 10
7.23996
 20
2.00418
 30
0.0
 11
6.67529
 21
1.9471
 31
0.0
  0
LINE
  8
0
 62
     0
 10
6.67529
 20
1.9471
 30
0.0
 11
6.16704
 21
1.89828
 31
0.0
  0
LINE
  8
0
 62
     0
 10
6.16704
 20
1.89828
 30
0.0
 11
5.71522
 21
1.85769
 31
0.0
  0
LINE
  8
0
 62
     0
 10
5.71522
 20
1.85769
 30
0.0
 11
5.31982
 21
1.82536
 31
0.0
  0
LINE
  8
0
 62
     0
 10
5.31982
 20
1.82536
 30
0.0
 11
4.98085
 21
1.80126
 31
0.0
  0
LINE
  8
0
 62
     0
 10
4.98085
 20
1.80126
 30
0.0
 11
4.69829
 21
1.78543
 31
0.0
  0
LINE
  8
0
 62
     0
 10
4.69829
 20
1.78543
 30
0.0
 11
4.47222
 21
1.77778
 31
0.0
  0
LINE
  8
0
 62
     0
 10
4.47222
 20
1.77778
 30
0.0
 11
4.48264
 21
1.86458
 31
0.0
  0
LINE
  8
0
 62
     0
 10
4.48264
 20
1.86458
 30
0.0
 11
4.48611
 21
1.93056
 31
0.0
  0
LINE
  8
0
 62
     0
 10
4.48611
 20
1.93056
 30
0.0
 11
4.46701
 21
2.51942
 31
0.0
  0
LINE
  8
0
 62
     0
 10
4.46701
 20
2.51942
 30
0.0
 11
4.45139
 21
3.16103
 31
0.0
  0
LINE
  8
0
 62
     0
 10
4.45139
 20
3.16103
 30
0.0
 11
4.43924
 21
3.85536
 31
0.0
  0
LINE
  8
0
 62
     0
 10
4.43924
 20
3.85536
 30
0.0
 11
4.43056
 21
4.60243
 31
0.0
  0
LINE
  8
0
 62
     0
 10
4.43056
 20
4.60243
 30
0.0
 11
4.42535
 21
5.40224
 31
0.0
  0
LINE
  8
0
 62
     0
 10
4.42535
 20
5.40224
 30
0.0
 11
4.42361
 21
6.25478
 31
0.0
  0
LINE
  8
0
 62
     0
 10
4.42361
 20
6.25478
 30
0.0
 11
4.42535
 21
7.16004
 31
0.0
  0
LINE
  8
0
 62
     0
 10
4.42535
 20
7.16004
 30
0.0
 11
4.43056
 21
8.11806
 31
0.0
  0
LINE
  8
0
 62
     0
 10
4.43056
 20
8.11806
 30
0.0
 11
4.43924
 21
9.12879
 31
0.0
  0
LINE
  8
0
 62
     0
 10
4.43924
 20
9.12879
 30
0.0
 11
4.45139
 21
10.1923
 31
0.0
  0
LINE
  8
0
 62
     0
 10
4.45139
 20
10.1923
 30
0.0
 11
4.46701
 21
11.3085
 31
0.0
  0
LINE
  8
0
 62
     0
 10
4.46701
 20
11.3085
 30
0.0
 11
4.48611
 21
12.4774
 31
0.0
  0
LINE
  8
0
 62
     0
 10
4.48611
 20
12.4774
 30
0.0
 11
4.50868
 21
13.6991
 31
0.0
  0
LINE
  8
0
 62
     0
 10
4.50868
 20
13.6991
 30
0.0
 11
4.53472
 21
14.9735
 31
0.0
  0
LINE
  8
0
 62
     0
 10
4.53472
 20
14.9735
 30
0.0
 11
4.56424
 21
16.3007
 31
0.0
  0
LINE
  8
0
 62
     0
 10
4.56424
 20
16.3007
 30
0.0
 11
4.59722
 21
17.6806
 31
0.0
  0
LINE
  8
0
 62
     0
 10
4.59722
 20
17.6806
 30
0.0
 11
5.47304
 21
17.691
 31
0.0
  0
LINE
  8
0
 62
     0
 10
5.47304
 20
17.691
 30
0.0
 11
6.30897
 21
17.7083
 31
0.0
  0
LINE
  8
0
 62
     0
 10
6.30897
 20
17.7083
 30
0.0
 11
7.10499
 21
17.7326
 31
0.0
  0
LINE
  8
0
 62
     0
 10
7.10499
 20
17.7326
 30
0.0
 11
7.86111
 21
17.7639
 31
0.0
  0
LINE
  8
0
 62
     0
 10
7.86111
 20
17.7639
 30
0.0
 11
8.14236
 21
17.7978
 31
0.0
  0
LINE
  8
0
 62
     0
 10
8.14236
 20
17.7978
 30
0.0
 11
8.40278
 21
17.8715
 31
0.0
  0
LINE
  8
0
 62
     0
 10
8.40278
 20
17.8715
 30
0.0
 11
8.64236
 21
17.9853
 31
0.0
  0
LINE
  8
0
 62
     0
 10
8.64236
 20
17.9853
 30
0.0
 11
8.86111
 21
18.1389
 31
0.0
  0
LINE
  8
0
 62
     0
 10
8.86111
 20
18.1389
 30
0.0
 11
9.02951
 21
18.3117
 31
0.0
  0
LINE
  8
0
 62
     0
 10
9.02951
 20
18.3117
 30
0.0
 11
9.15972
 21
18.4965
 31
0.0
  0
LINE
  8
0
 62
     0
 10
9.15972
 20
18.4965
 30
0.0
 11
9.25174
 21
18.6936
 31
0.0
  0
LINE
  8
0
 62
     0
 10
9.25174
 20
18.6936
 30
0.0
 11
9.30556
 21
18.9028
 31
0.0
  0
LINE
  8
0
 62
     0
 10
9.30556
 20
18.9028
 30
0.0
 11
9.32379
 21
19.1147
 31
0.0
  0
LINE
  8
0
 62
     0
 10
9.32379
 20
19.1147
 30
0.0
 11
9.29514
 21
19.3057
 31
0.0
  0
LINE
  8
0
 62
     0
 10
9.29514
 20
19.3057
 30
0.0
 11
9.21962
 21
19.4758
 31
0.0
  0
LINE
  8
0
 62
     0
 10
9.21962
 20
19.4758
 30
0.0
 11
9.09722
 21
19.625
 31
0.0
  0
LINE
  8
0
 62
     0
 10
9.09722
 20
19.625
 30
0.0
 11
8.90886
 21
19.7631
 31
0.0
  0
LINE
  8
0
 62
     0
 10
8.90886
 20
19.7631
 30
0.0
 11
8.67708
 21
19.8576
 31
0.0
  0
LINE
  8
0
 62
     0
 10
8.67708
 20
19.8576
 30
0.0
 11
8.40192
 21
19.9089
 31
0.0
  0
LINE
  8
0
 62
     0
 10
8.40192
 20
19.9089
 30
0.0
 11
8.08333
 21
19.9167
 31
0.0
  0
LINE
  8
0
 62
     0
 10
8.08333
 20
19.9167
 30
0.0
 11
6.29254
 21
19.8533
 31
0.0
  0
LINE
  8
0
 62
     0
 10
6.29254
 20
19.8533
 30
0.0
 11
4.53125
 21
19.8299
 31
0.0
  0
LINE
  8
0
 62
     0
 10
4.53125
 20
19.8299
 30
0.0
 11
2.79949
 21
19.8464
 31
0.0
  0
LINE
  8
0
 62
     0
 10
2.79949
 20
19.8464
 30
0.0
 11
1.09722
 21
19.9028
 31
0.0
  0
LINE
  8
0
 62
     0
 10
1.09722
 20
19.9028
 30
0.0
 11
0.758464
 21
19.9043
 31
0.0
  0
LINE
  8
0
 62
     0
 10
0.758464
 20
19.9043
 30
0.0
 11
0.450521
 21
19.8742
 31
0.0
  0
LINE
  8
0
 62
     0
 10
0.450521
 20
19.8742
 30
0.0
 11
0.173394
 21
19.8122
 31
0.0
  0
LINE
  8
0
 62
     0
 10
0.173394
 20
19.8122
 30
0.0
 11
-0.0729167
 21
19.7188
 31
0.0
  0
LINE
  8
0
 62
     0
 10
-0.0729167
 20
19.7188
 30
0.0
 11
-0.288411
 21
19.5935
 31
0.0
  0
LINE
  8
0
 62
     0
 10
-0.288411
 20
19.5935
 30
0.0
 11
-0.47309
 21
19.4367
 31
0.0
  0
LINE
  8
0
 62
     0
 10
-0.47309
 20
19.4367
 30
0.0
 11
-0.626953
 21
19.2481
 31
0.0
  0
LINE
  8
0
 62
     0
 10
-0.626953
 20
19.2481
 30
0.0
 11
-0.75
 21
19.0278
 31
0.0
  0
LINE
  8
0
 62
     0
 10
-0.75
 20
19.0278
 30
0.0
 11
-0.822103
 21
18.8031
 31
0.0
  0
LINE
  8
0
 62
     0
 10
-0.822103
 20
18.8031
 30
0.0
 11
-0.829915
 21
18.5868
 31
0.0
  0
LINE
  8
0
 62
     0
 10
-0.829915
 20
18.5868
 30
0.0
 11
-0.773492
 21
18.3794
 31
0.0
  0
LINE
  8
0
 62
     0
 10
-0.773492
 20
18.3794
 30
0.0
 11
-0.652778
 21
18.1806
 31
0.0
  0
LINE
  8
0
 62
     0
 10
-0.652778
 20
18.1806
 30
0.0
 11
-0.494792
 21
18.0094
 31
0.0
  0
LINE
  8
0
 62
     0
 10
-0.494792
 20
18.0094
 30
0.0
 11
-0.3125
 21
17.8851
 31
0.0
  0
LINE
  8
0
 62
     0
 10
-0.3125
 20
17.8851
 30
0.0
 11
-0.105903
 21
17.8081
 31
0.0
  0
LINE
  8
0
 62
     0
 10
-0.105903
 20
17.8081
 30
0.0
 11
0.125
 21
17.7778
 31
0.0
  0
LINE
  8
0
 62
     0
 10
0.125
 20
17.7778
 30
0.0
 11
0.486925
 21
17.7588
 31
0.0
  0
LINE
  8
0
 62
     0
 10
0.486925
 20
17.7588
 30
0.0
 11
0.878418
 21
17.7431
 31
0.0
  0
LINE
  8
0
 62
     0
 10
0.878418
 20
17.7431
 30
0.0
 11
1.29943
 21
17.731
 31
0.0
  0
LINE
  8
0
 62
     0
 10
1.29943
 20
17.731
 30
0.0
 11
1.75
 21
17.7222
 31
0.0
  0
ENDSEC
  0
EOF
