  0
SECTION
  2
HEADER
  9
$ACADVER
  1
AC1009
  9
$EXTMIN
 10
0.0
 20
0.0
 30
0.0
  9
$EXTMAX
 10
1000.0
 20
1000.0
 30
0.0
  9
$FILLMODE
 70
 0
  9
$SPLFRAME
 70
 1
  0
ENDSEC
  0
SECTION
  2
TABLES
  0
TABLE
  2
LAYER
 70
1
  0
LAYER
  2
0
 70
     0
 62
     7
  6
CONTINUOUS
  0
ENDTAB
  0
ENDSEC
  0
SECTION
  2
ENTITIES
  0
LINE
  8
0
 62
     0
 10
1.75
 20
17.7222
 30
0.0
 11
1.7169
 21
16.3769
 31
0.0
  0
LINE
  8
0
 62
     0
 10
1.7169
 20
16.3769
 30
0.0
 11
1.68707
 21
15.0806
 31
0.0
  0
LINE
  8
0
 62
     0
 10
1.68707
 20
15.0806
 30
0.0
 11
1.66049
 21
13.8331
 31
0.0
  0
LINE
  8
0
 62
     0
 10
1.66049
 20
13.8331
 30
0.0
 11
1.63715
 21
12.6346
 31
0.0
  0
LINE
  8
0
 62
     0
 10
1.63715
 20
12.6346
 30
0.0
 11
1.61708
 21
11.485
 31
0.0
  0
LINE
  8
0
 62
     0
 10
1.61708
 20
11.485
 30
0.0
 11
1.60026
 21
10.3843
 31
0.0
  0
LINE
  8
0
 62
     0
 10
1.60026
 20
10.3843
 30
0.0
 11
1.58669
 21
9.33262
 31
0.0
  0
LINE
  8
0
 62
     0
 10
1.58669
 20
9.33262
 30
0.0
 11
1.57639
 21
8.32986
 31
0.0
  0
LINE
  8
0
 62
     0
 10
1.57639
 20
8.32986
 30
0.0
 11
1.56928
 21
7.37603
 31
0.0
  0
LINE
  8
0
 62
     0
 10
1.56928
 20
7.37603
 30
0.0
 11
1.56549
 21
6.47114
 31
0.0
  0
LINE
  8
0
 62
     0
 10
1.56549
 20
6.47114
 30
0.0
 11
1.56494
 21
5.61518
 31
0.0
  0
LINE
  8
0
 62
     0
 10
1.56494
 20
5.61518
 30
0.0
 11
1.56765
 21
4.80817
 31
0.0
  0
LINE
  8
0
 62
     0
 10
1.56765
 20
4.80817
 30
0.0
 11
1.57363
 21
4.05007
 31
0.0
  0
LINE
  8
0
 62
     0
 10
1.57363
 20
4.05007
 30
0.0
 11
1.58285
 21
3.34093
 31
0.0
  0
LINE
  8
0
 62
     0
 10
1.58285
 20
3.34093
 30
0.0
 11
1.59532
 21
2.68072
 31
0.0
  0
LINE
  8
0
 62
     0
 10
1.59532
 20
2.68072
 30
0.0
 11
1.61111
 21
2.06944
 31
0.0
  0
LINE
  8
0
 62
     0
 10
1.61111
 20
2.06944
 30
0.0
 11
1.58328
 21
2.08333
 31
0.0
  0
LINE
  8
0
 62
     0
 10
1.58328
 20
2.08333
 30
0.0
 11
1.52778
 21
2.09722
 31
0.0
  0
LINE
  8
0
 62
     0
 10
1.52778
 20
2.09722
 30
0.0
 11
1.46875
 21
2.10769
 31
0.0
  0
LINE
  8
0
 62
     0
 10
1.46875
 20
2.10769
 30
0.0
 11
1.43056
 21
2.11111
 31
0.0
  0
LINE
  8
0
 62
     0
 10
1.43056
 20
2.11111
 30
0.0
 11
1.16493
 21
2.17449
 31
0.0
  0
LINE
  8
0
 62
     0
 10
1.16493
 20
2.17449
 30
0.0
 11
0.895833
 21
2.19792
 31
0.0
  0
LINE
  8
0
 62
     0
 10
0.895833
 20
2.19792
 30
0.0
 11
0.623264
 21
2.18143
 31
0.0
  0
LINE
  8
0
 62
     0
 10
0.623264
 20
2.18143
 30
0.0
 11
0.347222
 21
2.125
 31
0.0
  0
LINE
  8
0
 62
     0
 10
0.347222
 20
2.125
 30
0.0
 11
0.0755208
 21
2.03907
 31
0.0
  0
LINE
  8
0
 62
     0
 10
0.0755208
 20
2.03907
 30
0.0
 11
-0.170139
 21
1.92014
 31
0.0
  0
LINE
  8
0
 62
     0
 10
-0.170139
 20
1.92014
 30
0.0
 11
-0.389811
 21
1.76824
 31
0.0
  0
LINE
  8
0
 62
     0
 10
-0.389811
 20
1.76824
 30
0.0
 11
-0.583333
 21
1.58333
 31
0.0
  0
LINE
  8
0
 62
     0
 10
-0.583333
 20
1.58333
 30
0.0
 11
-0.716146
 21
1.39324
 31
0.0
  0
LINE
  8
0
 62
     0
 10
-0.716146
 20
1.39324
 30
0.0
 11
-0.795139
 21
1.19792
 31
0.0
  0
LINE
  8
0
 62
     0
 10
-0.795139
 20
1.19792
 30
0.0
 11
-0.820313
 21
0.997396
 31
0.0
  0
LINE
  8
0
 62
     0
 10
-0.820313
 20
0.997396
 30
0.0
 11
-0.791667
 21
0.791667
 31
0.0
  0
LINE
  8
0
 62
     0
 10
-0.791667
 20
0.791667
 30
0.0
 11
-0.719618
 21
0.600749
 31
0.0
  0
LINE
  8
0
 62
     0
 10
-0.719618
 20
0.600749
 30
0.0
 11
-0.600694
 21
0.444499
 31
0.0
  0
LINE
  8
0
 62
     0
 10
-0.600694
 20
0.444499
 30
0.0
 11
-0.43495
 21
0.322971
 31
0.0
  0
LINE
  8
0
 62
     0
 10
-0.43495
 20
0.322971
 30
0.0
 11
-0.222222
 21
0.236111
 31
0.0
  0
LINE
  8
0
 62
     0
 10
-0.222222
 20
0.236111
 30
0.0
 11
0.107747
 21
0.145833
 31
0.0
  0
LINE
  8
0
 62
     0
 10
0.107747
 20
0.145833
 30
0.0
 11
0.458768
 21
0.0659722
 31
0.0
  0
LINE
  8
0
 62
     0
 10
0.458768
 20
0.0659722
 30
0.0
 11
0.830838
 21
-0.00347222
 31
0.0
  0
LINE
  8
0
 62
     0
 10
0.830838
 20
-0.00347222
 30
0.0
 11
1.22396
 21
-0.0625
 31
0.0
  0
LINE
  8
0
 62
     0
 10
1.22396
 20
-0.0625
 30
0.0
 11
1.63813
 21
-0.111111
 31
0.0
  0
LINE
  8
0
 62
     0
 10
1.63813
 20
-0.111111
 30
0.0
 11
2.07335
 21
-0.149306
 31
0.0
  0
LINE
  8
0
 62
     0
 10
2.07335
 20
-0.149306
 30
0.0
 11
2.52962
 21
-0.177083
 31
0.0
  0
LINE
  8
0
 62
     0
 10
2.52962
 20
-0.177083
 30
0.0
 11
3.00694
 21
-0.194444
 31
0.0
  0
LINE
  8
0
 62
     0
 10
3.00694
 20
-0.194444
 30
0.0
 11
3.50532
 21
-0.201335
 31
0.0
  0
LINE
  8
0
 62
     0
 10
3.50532
 20
-0.201335
 30
0.0
 11
4.02474
 21
-0.197863
 31
0.0
  0
LINE
  8
0
 62
     0
 10
4.02474
 20
-0.197863
 30
0.0
 11
4.56521
 21
-0.183974
 31
0.0
  0
LINE
  8
0
 62
     0
 10
4.56521
 20
-0.183974
 30
0.0
 11
5.12674
 21
-0.159668
 31
0.0
  0
LINE
  8
0
 62
     0
 10
5.12674
 20
-0.159668
 30
0.0
 11
5.70931
 21
-0.124946
 31
0.0
  0
LINE
  8
0
 62
     0
 10
5.70931
 20
-0.124946
 30
0.0
 11
6.31293
 21
-0.0798068
 31
0.0
  0
LINE
  8
0
 62
     0
 10
6.31293
 20
-0.0798068
 30
0.0
 11
6.93761
 21
-0.0242513
 31
0.0
  0
LINE
  8
0
 62
     0
 10
6.93761
 20
-0.0242513
 30
0.0
 11
7.58333
 21
0.0416667
 31
0.0
  0
LINE
  8
0
 62
     0
 10
7.58333
 20
0.0416667
 30
0.0
 11
7.85331
 21
0.0825196
 31
0.0
  0
LINE
  8
0
 62
     0
 10
7.85331
 20
0.0825196
 30
0.0
 11
8.10764
 21
0.149306
 31
0.0
  0
LINE
  8
0
 62
     0
 10
8.10764
 20
0.149306
 30
0.0
 11
8.34636
 21
0.242188
 31
0.0
  0
LINE
  8
0
 62
     0
 10
8.34636
 20
0.242188
 30
0.0
 11
8.56944
 21
0.361111
 31
0.0
  0
LINE
  8
0
 62
     0
 10
8.56944
 20
0.361111
 30
0.0
 11
8.80376
 21
0.53125
 31
0.0
  0
LINE
  8
0
 62
     0
 10
8.80376
 20
0.53125
 30
0.0
 11
8.97911
 21
0.722222
 31
0.0
  0
LINE
  8
0
 62
     0
 10
8.97911
 20
0.722222
 30
0.0
 11
9.09543
 21
0.934082
 31
0.0
  0
LINE
  8
0
 62
     0
 10
9.09543
 20
0.934082
 30
0.0
 11
9.15278
 21
1.16667
 31
0.0
  0
LINE
  8
0
 62
     0
 10
9.15278
 20
1.16667
 30
0.0
 11
9.1536
 21
1.39497
 31
0.0
  0
LINE
  8
0
 62
     0
 10
9.1536
 20
1.39497
 30
0.0
 11
9.08681
 21
1.59375
 31
0.0
  0
LINE
  8
0
 62
     0
 10
9.08681
 20
1.59375
 30
0.0
 11
8.95226
 21
1.76303
 31
0.0
  0
LINE
  8
0
 62
     0
 10
8.95226
 20
1.76303
 30
0.0
 11
8.75
 21
1.90278
 31
0.0
  0
LINE
  8
0
 62
     0
 10
8.75
 20
1.90278
 30
0.0
 11
8.53728
 21
1.99658
 31
0.0
  0
LINE
  8
0
 62
     0
 10
8.53728
 20
1.99658
 30
0.0
 11
8.31592
 21
2.05561
 31
0.0
  0
LINE
  8
0
 62
     0
 10
8.31592
 20
2.05561
 30
0.0
 11
8.08589
 21
2.07992
 31
0.0
  0
LINE
  8
0
 62
     0
 10
8.08589
 20
2.07992
 30
0.0
 11
7.84722
 21
2.06944
 31
0.0
  0
LINE
  8
0
 62
     0
 10
7.84722
 20
2.06944
 30
0.0
 11
7.22917
 21
2.00418
 31
0.0
  0
LINE
  8
0
 62
     0
 10
7.22917
 20
2.00418
 30
0.0
 11
6.66667
 21
1.9471
 31
0.0
  0
LINE
  8
0
 62
     0
 10
6.66667
 20
1.9471
 30
0.0
 11
6.15972
 21
1.89828
 31
0.0
  0
LINE
  8
0
 62
     0
 10
6.15972
 20
1.89828
 30
0.0
 11
5.70833
 21
1.85769
 31
0.0
  0
LINE
  8
0
 62
     0
 10
5.70833
 20
1.85769
 30
0.0
 11
5.3125
 21
1.82536
 31
0.0
  0
LINE
  8
0
 62
     0
 10
5.3125
 20
1.82536
 30
0.0
 11
4.97222
 21
1.80126
 31
0.0
  0
LINE
  8
0
 62
     0
 10
4.97222
 20
1.80126
 30
0.0
 11
4.6875
 21
1.78543
 31
0.0
  0
LINE
  8
0
 62
     0
 10
4.6875
 20
1.78543
 30
0.0
 11
4.45833
 21
1.77778
 31
0.0
  0
LINE
  8
0
 62
     0
 10
4.45833
 20
1.77778
 30
0.0
 11
4.47911
 21
1.86458
 31
0.0
  0
LINE
  8
0
 62
     0
 10
4.47911
 20
1.86458
 30
0.0
 11
4.48611
 21
1.93056
 31
0.0
  0
LINE
  8
0
 62
     0
 10
4.48611
 20
1.93056
 30
0.0
 11
4.46701
 21
2.51942
 31
0.0
  0
LINE
  8
0
 62
     0
 10
4.46701
 20
2.51942
 30
0.0
 11
4.45139
 21
3.16103
 31
0.0
  0
LINE
  8
0
 62
     0
 10
4.45139
 20
3.16103
 30
0.0
 11
4.43924
 21
3.85536
 31
0.0
  0
LINE
  8
0
 62
     0
 10
4.43924
 20
3.85536
 30
0.0
 11
4.43056
 21
4.60243
 31
0.0
  0
LINE
  8
0
 62
     0
 10
4.43056
 20
4.60243
 30
0.0
 11
4.42535
 21
5.40224
 31
0.0
  0
LINE
  8
0
 62
     0
 10
4.42535
 20
5.40224
 30
0.0
 11
4.42361
 21
6.25478
 31
0.0
  0
LINE
  8
0
 62
     0
 10
4.42361
 20
6.25478
 30
0.0
 11
4.42535
 21
7.16004
 31
0.0
  0
LINE
  8
0
 62
     0
 10
4.42535
 20
7.16004
 30
0.0
 11
4.43056
 21
8.11806
 31
0.0
  0
LINE
  8
0
 62
     0
 10
4.43056
 20
8.11806
 30
0.0
 11
4.43924
 21
9.12879
 31
0.0
  0
LINE
  8
0
 62
     0
 10
4.43924
 20
9.12879
 30
0.0
 11
4.45139
 21
10.1923
 31
0.0
  0
LINE
  8
0
 62
     0
 10
4.45139
 20
10.1923
 30
0.0
 11
4.46701
 21
11.3085
 31
0.0
  0
LINE
  8
0
 62
     0
 10
4.46701
 20
11.3085
 30
0.0
 11
4.48611
 21
12.4774
 31
0.0
  0
LINE
  8
0
 62
     0
 10
4.48611
 20
12.4774
 30
0.0
 11
4.50868
 21
13.6991
 31
0.0
  0
LINE
  8
0
 62
     0
 10
4.50868
 20
13.6991
 30
0.0
 11
4.53472
 21
14.9735
 31
0.0
  0
LINE
  8
0
 62
     0
 10
4.53472
 20
14.9735
 30
0.0
 11
4.56424
 21
16.3007
 31
0.0
  0
LINE
  8
0
 62
     0
 10
4.56424
 20
16.3007
 30
0.0
 11
4.59722
 21
17.6806
 31
0.0
  0
LINE
  8
0
 62
     0
 10
4.59722
 20
17.6806
 30
0.0
 11
5.47222
 21
17.691
 31
0.0
  0
LINE
  8
0
 62
     0
 10
5.47222
 20
17.691
 30
0.0
 11
6.30556
 21
17.7083
 31
0.0
  0
LINE
  8
0
 62
     0
 10
6.30556
 20
17.7083
 30
0.0
 11
7.09722
 21
17.7326
 31
0.0
  0
LINE
  8
0
 62
     0
 10
7.09722
 20
17.7326
 30
0.0
 11
7.84722
 21
17.7639
 31
0.0
  0
LINE
  8
0
 62
     0
 10
7.84722
 20
17.7639
 30
0.0
 11
8.12847
 21
17.7978
 31
0.0
  0
LINE
  8
0
 62
     0
 10
8.12847
 20
17.7978
 30
0.0
 11
8.38889
 21
17.8715
 31
0.0
  0
LINE
  8
0
 62
     0
 10
8.38889
 20
17.8715
 30
0.0
 11
8.62847
 21
17.9853
 31
0.0
  0
LINE
  8
0
 62
     0
 10
8.62847
 20
17.9853
 30
0.0
 11
8.84722
 21
18.1389
 31
0.0
  0
LINE
  8
0
 62
     0
 10
8.84722
 20
18.1389
 30
0.0
 11
9.02171
 21
18.3117
 31
0.0
  0
LINE
  8
0
 62
     0
 10
9.02171
 20
18.3117
 30
0.0
 11
9.15625
 21
18.4965
 31
0.0
  0
LINE
  8
0
 62
     0
 10
9.15625
 20
18.4965
 30
0.0
 11
9.25087
 21
18.6936
 31
0.0
  0
LINE
  8
0
 62
     0
 10
9.25087
 20
18.6936
 30
0.0
 11
9.30556
 21
18.9028
 31
0.0
  0
LINE
  8
0
 62
     0
 10
9.30556
 20
18.9028
 30
0.0
 11
9.32379
 21
19.1147
 31
0.0
  0
LINE
  8
0
 62
     0
 10
9.32379
 20
19.1147
 30
0.0
 11
9.29514
 21
19.3057
 31
0.0
  0
LINE
  8
0
 62
     0
 10
9.29514
 20
19.3057
 30
0.0
 11
9.21962
 21
19.4758
 31
0.0
  0
LINE
  8
0
 62
     0
 10
9.21962
 20
19.4758
 30
0.0
 11
9.09722
 21
19.625
 31
0.0
  0
LINE
  8
0
 62
     0
 10
9.09722
 20
19.625
 30
0.0
 11
8.90886
 21
19.7631
 31
0.0
  0
LINE
  8
0
 62
     0
 10
8.90886
 20
19.7631
 30
0.0
 11
8.67708
 21
19.8576
 31
0.0
  0
LINE
  8
0
 62
     0
 10
8.67708
 20
19.8576
 30
0.0
 11
8.40192
 21
19.9089
 31
0.0
  0
LINE
  8
0
 62
     0
 10
8.40192
 20
19.9089
 30
0.0
 11
8.08333
 21
19.9167
 31
0.0
  0
LINE
  8
0
 62
     0
 10
8.08333
 20
19.9167
 30
0.0
 11
6.29167
 21
19.8533
 31
0.0
  0
LINE
  8
0
 62
     0
 10
6.29167
 20
19.8533
 30
0.0
 11
4.52778
 21
19.8299
 31
0.0
  0
LINE
  8
0
 62
     0
 10
4.52778
 20
19.8299
 30
0.0
 11
2.79167
 21
19.8464
 31
0.0
  0
LINE
  8
0
 62
     0
 10
2.79167
 20
19.8464
 30
0.0
 11
1.08333
 21
19.9028
 31
0.0
  0
LINE
  8
0
 62
     0
 10
1.08333
 20
19.9028
 30
0.0
 11
0.744575
 21
19.9043
 31
0.0
  0
LINE
  8
0
 62
     0
 10
0.744575
 20
19.9043
 30
0.0
 11
0.436632
 21
19.8742
 31
0.0
  0
LINE
  8
0
 62
     0
 10
0.436632
 20
19.8742
 30
0.0
 11
0.159506
 21
19.8122
 31
0.0
  0
LINE
  8
0
 62
     0
 10
0.159506
 20
19.8122
 30
0.0
 11
-0.0868056
 21
19.7188
 31
0.0
  0
LINE
  8
0
 62
     0
 10
-0.0868056
 20
19.7188
 30
0.0
 11
-0.3023
 21
19.5935
 31
0.0
  0
LINE
  8
0
 62
     0
 10
-0.3023
 20
19.5935
 30
0.0
 11
-0.486979
 21
19.4367
 31
0.0
  0
LINE
  8
0
 62
     0
 10
-0.486979
 20
19.4367
 30
0.0
 11
-0.640842
 21
19.2481
 31
0.0
  0
LINE
  8
0
 62
     0
 10
-0.640842
 20
19.2481
 30
0.0
 11
-0.763889
 21
19.0278
 31
0.0
  0
LINE
  8
0
 62
     0
 10
-0.763889
 20
19.0278
 30
0.0
 11
-0.830729
 21
18.8031
 31
0.0
  0
LINE
  8
0
 62
     0
 10
-0.830729
 20
18.8031
 30
0.0
 11
-0.836806
 21
18.5868
 31
0.0
  0
LINE
  8
0
 62
     0
 10
-0.836806
 20
18.5868
 30
0.0
 11
-0.782118
 21
18.3794
 31
0.0
  0
LINE
  8
0
 62
     0
 10
-0.782118
 20
18.3794
 30
0.0
 11
-0.666667
 21
18.1806
 31
0.0
  0
LINE
  8
0
 62
     0
 10
-0.666667
 20
18.1806
 30
0.0
 11
-0.507813
 21
18.0094
 31
0.0
  0
LINE
  8
0
 62
     0
 10
-0.507813
 20
18.0094
 30
0.0
 11
-0.322917
 21
17.8851
 31
0.0
  0
LINE
  8
0
 62
     0
 10
-0.322917
 20
17.8851
 30
0.0
 11
-0.111979
 21
17.8081
 31
0.0
  0
LINE
  8
0
 62
     0
 10
-0.111979
 20
17.8081
 30
0.0
 11
0.125
 21
17.7778
 31
0.0
  0
LINE
  8
0
 62
     0
 10
0.125
 20
17.7778
 30
0.0
 11
0.486925
 21
17.7588
 31
0.0
  0
LINE
  8
0
 62
     0
 10
0.486925
 20
17.7588
 30
0.0
 11
0.878418
 21
17.7431
 31
0.0
  0
LINE
  8
0
 62
     0
 10
0.878418
 20
17.7431
 30
0.0
 11
1.29943
 21
17.731
 31
0.0
  0
LINE
  8
0
 62
     0
 10
1.29943
 20
17.731
 30
0.0
 11
1.75
 21
17.7222
 31
0.0
  0
LINE
  8
0
 62
     0
 10
-1
 20
20.7917
 30
0.0
 11
-0.979167
 21
20.6882
 31
0.0
  0
LINE
  8
0
 62
     0
 10
-0.979167
 20
20.6882
 30
0.0
 11
-0.916667
 21
20.6004
 31
0.0
  0
LINE
  8
0
 62
     0
 10
-0.916667
 20
20.6004
 30
0.0
 11
-0.8125
 21
20.5285
 31
0.0
  0
LINE
  8
0
 62
     0
 10
-0.8125
 20
20.5285
 30
0.0
 11
-0.666667
 21
20.4722
 31
0.0
  0
LINE
  8
0
 62
     0
 10
-0.666667
 20
20.4722
 30
0.0
 11
-0.506076
 21
20.4383
 31
0.0
  0
LINE
  8
0
 62
     0
 10
-0.506076
 20
20.4383
 30
0.0
 11
-0.329861
 21
20.4201
 31
0.0
  0
LINE
  8
0
 62
     0
 10
-0.329861
 20
20.4201
 30
0.0
 11
-0.138075
 21
20.4175
 31
0.0
  0
LINE
  8
0
 62
     0
 10
-0.138075
 20
20.4175
 30
0.0
 11
0.0694444
 21
20.4306
 31
0.0
  0
LINE
  8
0
 62
     0
 10
0.0694444
 20
20.4306
 30
0.0
 11
0.472222
 21
20.5069
 31
0.0
  0
LINE
  8
0
 62
     0
 10
0.472222
 20
20.5069
 30
0.0
 11
0.819444
 21
20.625
 31
0.0
  0
LINE
  8
0
 62
     0
 10
0.819444
 20
20.625
 30
0.0
 11
0.965278
 21
20.6971
 31
0.0
  0
LINE
  8
0
 62
     0
 10
0.965278
 20
20.6971
 30
0.0
 11
1.06944
 21
20.7743
 31
0.0
  0
LINE
  8
0
 62
     0
 10
1.06944
 20
20.7743
 30
0.0
 11
1.13194
 21
20.8568
 31
0.0
  0
LINE
  8
0
 62
     0
 10
1.13194
 20
20.8568
 30
0.0
 11
1.15278
 21
20.9444
 31
0.0
  0
LINE
  8
0
 62
     0
 10
1.15278
 20
20.9444
 30
0.0
 11
1.15278
 21
22.625
 31
0.0
  0
LINE
  8
0
 62
     0
 10
1.15278
 20
22.625
 30
0.0
 11
1.13194
 21
22.7275
 31
0.0
  0
LINE
  8
0
 62
     0
 10
1.13194
 20
22.7275
 30
0.0
 11
1.06944
 21
22.8125
 31
0.0
  0
LINE
  8
0
 62
     0
 10
1.06944
 20
22.8125
 30
0.0
 11
0.965278
 21
22.8803
 31
0.0
  0
LINE
  8
0
 62
     0
 10
0.965278
 20
22.8803
 30
0.0
 11
0.819444
 21
22.9306
 31
0.0
  0
LINE
  8
0
 62
     0
 10
0.819444
 20
22.9306
 30
0.0
 11
0.657932
 21
22.9644
 31
0.0
  0
LINE
  8
0
 62
     0
 10
0.657932
 20
22.9644
 30
0.0
 11
0.479113
 21
22.9826
 31
0.0
  0
LINE
  8
0
 62
     0
 10
0.479113
 20
22.9826
 30
0.0
 11
0.282932
 21
22.9853
 31
0.0
  0
LINE
  8
0
 62
     0
 10
0.282932
 20
22.9853
 30
0.0
 11
0.0694444
 21
22.9722
 31
0.0
  0
LINE
  8
0
 62
     0
 10
0.0694444
 20
22.9722
 30
0.0
 11
-0.138075
 21
22.9454
 31
0.0
  0
LINE
  8
0
 62
     0
 10
-0.138075
 20
22.9454
 30
0.0
 11
-0.329861
 21
22.9063
 31
0.0
  0
LINE
  8
0
 62
     0
 10
-0.329861
 20
22.9063
 30
0.0
 11
-0.506076
 21
22.8551
 31
0.0
  0
LINE
  8
0
 62
     0
 10
-0.506076
 20
22.8551
 30
0.0
 11
-0.666667
 21
22.7917
 31
0.0
  0
LINE
  8
0
 62
     0
 10
-0.666667
 20
22.7917
 30
0.0
 11
-0.8125
 21
22.7136
 31
0.0
  0
LINE
  8
0
 62
     0
 10
-0.8125
 20
22.7136
 30
0.0
 11
-0.916667
 21
22.6319
 31
0.0
  0
LINE
  8
0
 62
     0
 10
-0.916667
 20
22.6319
 30
0.0
 11
-0.979167
 21
22.5469
 31
0.0
  0
LINE
  8
0
 62
     0
 10
-0.979167
 20
22.5469
 30
0.0
 11
-1
 21
22.4583
 31
0.0
  0
LINE
  8
0
 62
     0
 10
-1
 20
22.4583
 30
0.0
 11
-1
 21
20.7917
 31
0.0
  0
LINE
  8
0
 62
     0
 10
4.83333
 20
21.0556
 30
0.0
 11
4.85417
 21
20.98
 31
0.0
  0
LINE
  8
0
 62
     0
 10
4.85417
 20
20.98
 30
0.0
 11
4.91667
 21
20.9201
 31
0.0
  0
LINE
  8
0
 62
     0
 10
4.91667
 20
20.9201
 30
0.0
 11
5.02083
 21
20.8758
 31
0.0
  0
LINE
  8
0
 62
     0
 10
5.02083
 20
20.8758
 30
0.0
 11
5.16667
 21
20.8472
 31
0.0
  0
LINE
  8
0
 62
     0
 10
5.16667
 20
20.8472
 30
0.0
 11
5.32726
 21
20.8325
 31
0.0
  0
LINE
  8
0
 62
     0
 10
5.32726
 20
20.8325
 30
0.0
 11
5.50347
 21
20.8299
 31
0.0
  0
LINE
  8
0
 62
     0
 10
5.50347
 20
20.8299
 30
0.0
 11
5.69526
 21
20.8394
 31
0.0
  0
LINE
  8
0
 62
     0
 10
5.69526
 20
20.8394
 30
0.0
 11
5.90278
 21
20.8611
 31
0.0
  0
LINE
  8
0
 62
     0
 10
5.90278
 20
20.8611
 30
0.0
 11
6.1154
 21
20.9001
 31
0.0
  0
LINE
  8
0
 62
     0
 10
6.1154
 20
20.9001
 30
0.0
 11
6.30897
 21
20.9479
 31
0.0
  0
LINE
  8
0
 62
     0
 10
6.30897
 20
20.9479
 30
0.0
 11
6.48346
 21
21.0043
 31
0.0
  0
LINE
  8
0
 62
     0
 10
6.48346
 20
21.0043
 30
0.0
 11
6.63889
 21
21.0694
 31
0.0
  0
LINE
  8
0
 62
     0
 10
6.63889
 20
21.0694
 30
0.0
 11
6.78472
 21
21.1546
 31
0.0
  0
LINE
  8
0
 62
     0
 10
6.78472
 20
21.1546
 30
0.0
 11
6.88889
 21
21.2431
 31
0.0
  0
LINE
  8
0
 62
     0
 10
6.88889
 20
21.2431
 30
0.0
 11
6.95139
 21
21.3351
 31
0.0
  0
LINE
  8
0
 62
     0
 10
6.95139
 20
21.3351
 30
0.0
 11
6.97222
 21
21.4306
 31
0.0
  0
LINE
  8
0
 62
     0
 10
6.97222
 20
21.4306
 30
0.0
 11
6.97222
 21
23.0972
 31
0.0
  0
LINE
  8
0
 62
     0
 10
6.97222
 20
23.0972
 30
0.0
 11
6.95139
 21
23.1728
 31
0.0
  0
LINE
  8
0
 62
     0
 10
6.95139
 20
23.1728
 30
0.0
 11
6.88889
 21
23.2326
 31
0.0
  0
LINE
  8
0
 62
     0
 10
6.88889
 20
23.2326
 30
0.0
 11
6.78472
 21
23.2769
 31
0.0
  0
LINE
  8
0
 62
     0
 10
6.78472
 20
23.2769
 30
0.0
 11
6.63889
 21
23.3056
 31
0.0
  0
LINE
  8
0
 62
     0
 10
6.63889
 20
23.3056
 30
0.0
 11
6.47825
 21
23.3194
 31
0.0
  0
LINE
  8
0
 62
     0
 10
6.47825
 20
23.3194
 30
0.0
 11
6.30203
 21
23.3194
 31
0.0
  0
LINE
  8
0
 62
     0
 10
6.30203
 20
23.3194
 30
0.0
 11
6.11019
 21
23.3056
 31
0.0
  0
LINE
  8
0
 62
     0
 10
6.11019
 20
23.3056
 30
0.0
 11
5.90278
 21
23.2778
 31
0.0
  0
LINE
  8
0
 62
     0
 10
5.90278
 20
23.2778
 30
0.0
 11
5.69011
 21
23.2439
 31
0.0
  0
LINE
  8
0
 62
     0
 10
5.69011
 20
23.2439
 30
0.0
 11
5.49653
 21
23.1979
 31
0.0
  0
LINE
  8
0
 62
     0
 10
5.49653
 20
23.1979
 30
0.0
 11
5.32206
 21
23.1397
 31
0.0
  0
LINE
  8
0
 62
     0
 10
5.32206
 20
23.1397
 30
0.0
 11
5.16667
 21
23.0694
 31
0.0
  0
LINE
  8
0
 62
     0
 10
5.16667
 20
23.0694
 30
0.0
 11
5.02083
 21
22.9906
 31
0.0
  0
LINE
  8
0
 62
     0
 10
5.02083
 20
22.9906
 30
0.0
 11
4.91667
 21
22.9063
 31
0.0
  0
LINE
  8
0
 62
     0
 10
4.91667
 20
22.9063
 30
0.0
 11
4.85417
 21
22.8168
 31
0.0
  0
LINE
  8
0
 62
     0
 10
4.85417
 20
22.8168
 30
0.0
 11
4.83333
 21
22.7222
 31
0.0
  0
LINE
  8
0
 62
     0
 10
4.83333
 20
22.7222
 30
0.0
 11
4.83333
 21
21.0556
 31
0.0
  0
ENDSEC
  0
EOF
