  0
SECTION
  2
HEADER
  9
$ACADVER
  1
AC1009
  9
$EXTMIN
 10
0.0
 20
0.0
 30
0.0
  9
$EXTMAX
 10
1000.0
 20
1000.0
 30
0.0
  9
$FILLMODE
 70
 0
  9
$SPLFRAME
 70
 1
  0
ENDSEC
  0
SECTION
  2
TABLES
  0
TABLE
  2
LAYER
 70
1
  0
LAYER
  2
0
 70
     0
 62
     7
  6
CONTINUOUS
  0
ENDTAB
  0
ENDSEC
  0
SECTION
  2
ENTITIES
  0
LINE
  8
0
 62
     0
 10
8.86111
 20
19.8472
 30
0.0
 11
8.06896
 21
19.7917
 31
0.0
  0
LINE
  8
0
 62
     0
 10
8.06896
 20
19.7917
 30
0.0
 11
7.31071
 21
19.7393
 31
0.0
  0
LINE
  8
0
 62
     0
 10
7.31071
 20
19.7393
 30
0.0
 11
6.58632
 21
19.6904
 31
0.0
  0
LINE
  8
0
 62
     0
 10
6.58632
 20
19.6904
 30
0.0
 11
5.89578
 21
19.645
 31
0.0
  0
LINE
  8
0
 62
     0
 10
5.89578
 20
19.645
 30
0.0
 11
5.2391
 21
19.6028
 31
0.0
  0
LINE
  8
0
 62
     0
 10
5.2391
 20
19.6028
 30
0.0
 11
4.61626
 21
19.564
 31
0.0
  0
LINE
  8
0
 62
     0
 10
4.61626
 20
19.564
 30
0.0
 11
4.02729
 21
19.5286
 31
0.0
  0
LINE
  8
0
 62
     0
 10
4.02729
 20
19.5286
 30
0.0
 11
3.47222
 21
19.4965
 31
0.0
  0
LINE
  8
0
 62
     0
 10
3.47222
 20
19.4965
 30
0.0
 11
2.95096
 21
19.4678
 31
0.0
  0
LINE
  8
0
 62
     0
 10
2.95096
 20
19.4678
 30
0.0
 11
2.46354
 21
19.4425
 31
0.0
  0
LINE
  8
0
 62
     0
 10
2.46354
 20
19.4425
 30
0.0
 11
2.00999
 21
19.4206
 31
0.0
  0
LINE
  8
0
 62
     0
 10
2.00999
 20
19.4206
 30
0.0
 11
1.59028
 21
19.4019
 31
0.0
  0
LINE
  8
0
 62
     0
 10
1.59028
 20
19.4019
 30
0.0
 11
1.20443
 21
19.3867
 31
0.0
  0
LINE
  8
0
 62
     0
 10
1.20443
 20
19.3867
 30
0.0
 11
0.852431
 21
19.3747
 31
0.0
  0
LINE
  8
0
 62
     0
 10
0.852431
 20
19.3747
 30
0.0
 11
0.534289
 21
19.3663
 31
0.0
  0
LINE
  8
0
 62
     0
 10
0.534289
 20
19.3663
 30
0.0
 11
0.25
 21
19.3611
 31
0.0
  0
LINE
  8
0
 62
     0
 10
0.25
 20
19.3611
 30
0.0
 11
-0.0556099
 21
19.3238
 31
0.0
  0
LINE
  8
0
 62
     0
 10
-0.0556099
 20
19.3238
 30
0.0
 11
-0.375054
 21
19.2257
 31
0.0
  0
LINE
  8
0
 62
     0
 10
-0.375054
 20
19.2257
 30
0.0
 11
-0.708387
 21
19.0668
 31
0.0
  0
LINE
  8
0
 62
     0
 10
-0.708387
 20
19.0668
 30
0.0
 11
-1.05556
 21
18.8472
 31
0.0
  0
LINE
  8
0
 62
     0
 10
-1.05556
 20
18.8472
 30
0.0
 11
-1.18056
 21
18.7483
 31
0.0
  0
LINE
  8
0
 62
     0
 10
-1.18056
 20
18.7483
 30
0.0
 11
-1.26389
 21
18.6597
 31
0.0
  0
LINE
  8
0
 62
     0
 10
-1.26389
 20
18.6597
 30
0.0
 11
-1.30556
 21
18.5817
 31
0.0
  0
LINE
  8
0
 62
     0
 10
-1.30556
 20
18.5817
 30
0.0
 11
-1.30556
 21
18.5139
 31
0.0
  0
LINE
  8
0
 62
     0
 10
-1.30556
 20
18.5139
 30
0.0
 11
-1.24826
 21
18.4471
 31
0.0
  0
LINE
  8
0
 62
     0
 10
-1.24826
 20
18.4471
 30
0.0
 11
-1.13194
 21
18.3993
 31
0.0
  0
LINE
  8
0
 62
     0
 10
-1.13194
 20
18.3993
 30
0.0
 11
-0.956597
 21
18.3707
 31
0.0
  0
LINE
  8
0
 62
     0
 10
-0.956597
 20
18.3707
 30
0.0
 11
-0.722222
 21
18.3611
 31
0.0
  0
LINE
  8
0
 62
     0
 10
-0.722222
 20
18.3611
 30
0.0
 11
-0.133681
 21
18.3711
 31
0.0
  0
LINE
  8
0
 62
     0
 10
-0.133681
 20
18.3711
 30
0.0
 11
0.479167
 21
18.3872
 31
0.0
  0
LINE
  8
0
 62
     0
 10
0.479167
 20
18.3872
 30
0.0
 11
1.11632
 21
18.4093
 31
0.0
  0
LINE
  8
0
 62
     0
 10
1.11632
 20
18.4093
 30
0.0
 11
1.77778
 21
18.4375
 31
0.0
  0
LINE
  8
0
 62
     0
 10
1.77778
 20
18.4375
 30
0.0
 11
2.46354
 21
18.4718
 31
0.0
  0
LINE
  8
0
 62
     0
 10
2.46354
 20
18.4718
 30
0.0
 11
3.17361
 21
18.5122
 31
0.0
  0
LINE
  8
0
 62
     0
 10
3.17361
 20
18.5122
 30
0.0
 11
3.90799
 21
18.5586
 31
0.0
  0
LINE
  8
0
 62
     0
 10
3.90799
 20
18.5586
 30
0.0
 11
4.66667
 21
18.6111
 31
0.0
  0
LINE
  8
0
 62
     0
 10
4.66667
 20
18.6111
 30
0.0
 11
4.80817
 21
18.625
 31
0.0
  0
LINE
  8
0
 62
     0
 10
4.80817
 20
18.625
 30
0.0
 11
4.99653
 21
18.6528
 31
0.0
  0
LINE
  8
0
 62
     0
 10
4.99653
 20
18.6528
 30
0.0
 11
5.23178
 21
18.6944
 31
0.0
  0
LINE
  8
0
 62
     0
 10
5.23178
 20
18.6944
 30
0.0
 11
5.51389
 21
18.75
 31
0.0
  0
LINE
  8
0
 62
     0
 10
5.51389
 20
18.75
 30
0.0
 11
5.77946
 21
18.7935
 31
0.0
  0
LINE
  8
0
 62
     0
 10
5.77946
 20
18.7935
 30
0.0
 11
6.00689
 21
18.8264
 31
0.0
  0
LINE
  8
0
 62
     0
 10
6.00689
 20
18.8264
 30
0.0
 11
6.19613
 21
18.849
 31
0.0
  0
LINE
  8
0
 62
     0
 10
6.19613
 20
18.849
 30
0.0
 11
6.34722
 21
18.8611
 31
0.0
  0
LINE
  8
0
 62
     0
 10
6.34722
 20
18.8611
 30
0.0
 11
6.5625
 21
18.855
 31
0.0
  0
LINE
  8
0
 62
     0
 10
6.5625
 20
18.855
 30
0.0
 11
6.75
 21
18.8229
 31
0.0
  0
LINE
  8
0
 62
     0
 10
6.75
 20
18.8229
 30
0.0
 11
6.90972
 21
18.7647
 31
0.0
  0
LINE
  8
0
 62
     0
 10
6.90972
 20
18.7647
 30
0.0
 11
7.04167
 21
18.6806
 31
0.0
  0
LINE
  8
0
 62
     0
 10
7.04167
 20
18.6806
 30
0.0
 11
7.14583
 21
18.5703
 31
0.0
  0
LINE
  8
0
 62
     0
 10
7.14583
 20
18.5703
 30
0.0
 11
7.22222
 21
18.434
 31
0.0
  0
LINE
  8
0
 62
     0
 10
7.22222
 20
18.434
 30
0.0
 11
7.27083
 21
18.2717
 31
0.0
  0
LINE
  8
0
 62
     0
 10
7.27083
 20
18.2717
 30
0.0
 11
7.29167
 21
18.0833
 31
0.0
  0
LINE
  8
0
 62
     0
 10
7.29167
 20
18.0833
 30
0.0
 11
7.3055
 21
17.4942
 31
0.0
  0
LINE
  8
0
 62
     0
 10
7.3055
 20
17.4942
 30
0.0
 11
7.29856
 21
16.8585
 31
0.0
  0
LINE
  8
0
 62
     0
 10
7.29856
 20
16.8585
 30
0.0
 11
7.27078
 21
16.1764
 31
0.0
  0
LINE
  8
0
 62
     0
 10
7.27078
 20
16.1764
 30
0.0
 11
7.22217
 21
15.4479
 31
0.0
  0
LINE
  8
0
 62
     0
 10
7.22217
 20
15.4479
 30
0.0
 11
7.15272
 21
14.6729
 31
0.0
  0
LINE
  8
0
 62
     0
 10
7.15272
 20
14.6729
 30
0.0
 11
7.06244
 21
13.8516
 31
0.0
  0
LINE
  8
0
 62
     0
 10
7.06244
 20
13.8516
 30
0.0
 11
6.95133
 21
12.9837
 31
0.0
  0
LINE
  8
0
 62
     0
 10
6.95133
 20
12.9837
 30
0.0
 11
6.81944
 21
12.0694
 31
0.0
  0
LINE
  8
0
 62
     0
 10
6.81944
 20
12.0694
 30
0.0
 11
6.6651
 21
11.1224
 31
0.0
  0
LINE
  8
0
 62
     0
 10
6.6651
 20
11.1224
 30
0.0
 11
6.50082
 21
10.2118
 31
0.0
  0
LINE
  8
0
 62
     0
 10
6.50082
 20
10.2118
 30
0.0
 11
6.32656
 21
9.33768
 31
0.0
  0
LINE
  8
0
 62
     0
 10
6.32656
 20
9.33768
 30
0.0
 11
6.14231
 21
8.5
 31
0.0
  0
LINE
  8
0
 62
     0
 10
6.14231
 20
8.5
 30
0.0
 11
5.94808
 21
7.69879
 31
0.0
  0
LINE
  8
0
 62
     0
 10
5.94808
 20
7.69879
 30
0.0
 11
5.74387
 21
6.93403
 31
0.0
  0
LINE
  8
0
 62
     0
 10
5.74387
 20
6.93403
 30
0.0
 11
5.52968
 21
6.20574
 31
0.0
  0
LINE
  8
0
 62
     0
 10
5.52968
 20
6.20574
 30
0.0
 11
5.30556
 21
5.51389
 31
0.0
  0
LINE
  8
0
 62
     0
 10
5.30556
 20
5.51389
 30
0.0
 11
5.09819
 21
4.93983
 31
0.0
  0
LINE
  8
0
 62
     0
 10
5.09819
 20
4.93983
 30
0.0
 11
4.88601
 21
4.40517
 31
0.0
  0
LINE
  8
0
 62
     0
 10
4.88601
 20
4.40517
 30
0.0
 11
4.66894
 21
3.90989
 31
0.0
  0
LINE
  8
0
 62
     0
 10
4.66894
 20
3.90989
 30
0.0
 11
4.447
 21
3.454
 31
0.0
  0
LINE
  8
0
 62
     0
 10
4.447
 20
3.454
 30
0.0
 11
4.22017
 21
3.03749
 31
0.0
  0
LINE
  8
0
 62
     0
 10
4.22017
 20
3.03749
 30
0.0
 11
3.98844
 21
2.66037
 31
0.0
  0
LINE
  8
0
 62
     0
 10
3.98844
 20
2.66037
 30
0.0
 11
3.75185
 21
2.32264
 31
0.0
  0
LINE
  8
0
 62
     0
 10
3.75185
 20
2.32264
 30
0.0
 11
3.51042
 21
2.02431
 31
0.0
  0
LINE
  8
0
 62
     0
 10
3.51042
 20
2.02431
 30
0.0
 11
3.26406
 21
1.76535
 31
0.0
  0
LINE
  8
0
 62
     0
 10
3.26406
 20
1.76535
 30
0.0
 11
3.01281
 21
1.54579
 31
0.0
  0
LINE
  8
0
 62
     0
 10
3.01281
 20
1.54579
 30
0.0
 11
2.75667
 21
1.36561
 31
0.0
  0
LINE
  8
0
 62
     0
 10
2.75667
 20
1.36561
 30
0.0
 11
2.49567
 21
1.22483
 31
0.0
  0
LINE
  8
0
 62
     0
 10
2.49567
 20
1.22483
 30
0.0
 11
2.22976
 21
1.12343
 31
0.0
  0
LINE
  8
0
 62
     0
 10
2.22976
 20
1.12343
 30
0.0
 11
1.95899
 21
1.06142
 31
0.0
  0
LINE
  8
0
 62
     0
 10
1.95899
 20
1.06142
 30
0.0
 11
1.68332
 21
1.03879
 31
0.0
  0
LINE
  8
0
 62
     0
 10
1.68332
 20
1.03879
 30
0.0
 11
1.40278
 21
1.05556
 31
0.0
  0
LINE
  8
0
 62
     0
 10
1.40278
 20
1.05556
 30
0.0
 11
1.27474
 21
1.06424
 31
0.0
  0
LINE
  8
0
 62
     0
 10
1.27474
 20
1.06424
 30
0.0
 11
1.13368
 21
1.05556
 31
0.0
  0
LINE
  8
0
 62
     0
 10
1.13368
 20
1.05556
 30
0.0
 11
0.979601
 21
1.02951
 31
0.0
  0
LINE
  8
0
 62
     0
 10
0.979601
 20
1.02951
 30
0.0
 11
0.8125
 21
0.986111
 31
0.0
  0
LINE
  8
0
 62
     0
 10
0.8125
 20
0.986111
 30
0.0
 11
0.632324
 21
0.925347
 31
0.0
  0
LINE
  8
0
 62
     0
 10
0.632324
 20
0.925347
 30
0.0
 11
0.439182
 21
0.847222
 31
0.0
  0
LINE
  8
0
 62
     0
 10
0.439182
 20
0.847222
 30
0.0
 11
0.233018
 21
0.751736
 31
0.0
  0
LINE
  8
0
 62
     0
 10
0.233018
 20
0.751736
 30
0.0
 11
0.0138889
 21
0.638889
 31
0.0
  0
LINE
  8
0
 62
     0
 10
0.0138889
 20
0.638889
 30
0.0
 11
-0.153646
 21
0.544325
 31
0.0
  0
LINE
  8
0
 62
     0
 10
-0.153646
 20
0.544325
 30
0.0
 11
-0.28125
 21
0.454861
 31
0.0
  0
LINE
  8
0
 62
     0
 10
-0.28125
 20
0.454861
 30
0.0
 11
-0.368924
 21
0.37066
 31
0.0
  0
LINE
  8
0
 62
     0
 10
-0.368924
 20
0.37066
 30
0.0
 11
-0.416667
 21
0.291667
 31
0.0
  0
LINE
  8
0
 62
     0
 10
-0.416667
 20
0.291667
 30
0.0
 11
-0.421007
 21
0.209201
 31
0.0
  0
LINE
  8
0
 62
     0
 10
-0.421007
 20
0.209201
 30
0.0
 11
-0.364583
 21
0.142361
 31
0.0
  0
LINE
  8
0
 62
     0
 10
-0.364583
 20
0.142361
 30
0.0
 11
-0.247396
 21
0.0912001
 31
0.0
  0
LINE
  8
0
 62
     0
 10
-0.247396
 20
0.0912001
 30
0.0
 11
-0.0694444
 21
0.0555556
 31
0.0
  0
LINE
  8
0
 62
     0
 10
-0.0694444
 20
0.0555556
 30
0.0
 11
0.667697
 21
-0.00173611
 31
0.0
  0
LINE
  8
0
 62
     0
 10
0.667697
 20
-0.00173611
 30
0.0
 11
1.37929
 21
0.0208333
 31
0.0
  0
LINE
  8
0
 62
     0
 10
1.37929
 20
0.0208333
 30
0.0
 11
2.06526
 21
0.123264
 31
0.0
  0
LINE
  8
0
 62
     0
 10
2.06526
 20
0.123264
 30
0.0
 11
2.72564
 21
0.305556
 31
0.0
  0
LINE
  8
0
 62
     0
 10
2.72564
 20
0.305556
 30
0.0
 11
3.3604
 21
0.567708
 31
0.0
  0
LINE
  8
0
 62
     0
 10
3.3604
 20
0.567708
 30
0.0
 11
3.96957
 21
0.909722
 31
0.0
  0
LINE
  8
0
 62
     0
 10
3.96957
 20
0.909722
 30
0.0
 11
4.55311
 21
1.3316
 31
0.0
  0
LINE
  8
0
 62
     0
 10
4.55311
 20
1.3316
 30
0.0
 11
5.11111
 21
1.83333
 31
0.0
  0
LINE
  8
0
 62
     0
 10
5.11111
 20
1.83333
 30
0.0
 11
5.56879
 21
2.32531
 31
0.0
  0
LINE
  8
0
 62
     0
 10
5.56879
 20
2.32531
 30
0.0
 11
6.00435
 21
2.87067
 31
0.0
  0
LINE
  8
0
 62
     0
 10
6.00435
 20
2.87067
 30
0.0
 11
6.41775
 21
3.4694
 31
0.0
  0
LINE
  8
0
 62
     0
 10
6.41775
 20
3.4694
 30
0.0
 11
6.80903
 21
4.12153
 31
0.0
  0
LINE
  8
0
 62
     0
 10
6.80903
 20
4.12153
 30
0.0
 11
7.17817
 21
4.8271
 31
0.0
  0
LINE
  8
0
 62
     0
 10
7.17817
 20
4.8271
 30
0.0
 11
7.52518
 21
5.58599
 31
0.0
  0
LINE
  8
0
 62
     0
 10
7.52518
 20
5.58599
 30
0.0
 11
7.85004
 21
6.39828
 31
0.0
  0
LINE
  8
0
 62
     0
 10
7.85004
 20
6.39828
 30
0.0
 11
8.15278
 21
7.26389
 31
0.0
  0
LINE
  8
0
 62
     0
 10
8.15278
 20
7.26389
 30
0.0
 11
8.61481
 21
8.80974
 31
0.0
  0
LINE
  8
0
 62
     0
 10
8.61481
 20
8.80974
 30
0.0
 11
8.99393
 21
10.3568
 31
0.0
  0
LINE
  8
0
 62
     0
 10
8.99393
 20
10.3568
 30
0.0
 11
9.29015
 21
11.9052
 31
0.0
  0
LINE
  8
0
 62
     0
 10
9.29015
 20
11.9052
 30
0.0
 11
9.50347
 21
13.4549
 31
0.0
  0
LINE
  8
0
 62
     0
 10
9.50347
 20
13.4549
 30
0.0
 11
9.6339
 21
15.0058
 31
0.0
  0
LINE
  8
0
 62
     0
 10
9.6339
 20
15.0058
 30
0.0
 11
9.68143
 21
16.5582
 31
0.0
  0
LINE
  8
0
 62
     0
 10
9.68143
 20
16.5582
 30
0.0
 11
9.64606
 21
18.1118
 31
0.0
  0
LINE
  8
0
 62
     0
 10
9.64606
 20
18.1118
 30
0.0
 11
9.52778
 21
19.6667
 31
0.0
  0
LINE
  8
0
 62
     0
 10
9.52778
 20
19.6667
 30
0.0
 11
9.51129
 21
19.7214
 31
0.0
  0
LINE
  8
0
 62
     0
 10
9.51129
 20
19.7214
 30
0.0
 11
9.47569
 21
19.7668
 31
0.0
  0
LINE
  8
0
 62
     0
 10
9.47569
 20
19.7668
 30
0.0
 11
9.42101
 21
19.8032
 31
0.0
  0
LINE
  8
0
 62
     0
 10
9.42101
 20
19.8032
 30
0.0
 11
9.34722
 21
19.8304
 31
0.0
  0
LINE
  8
0
 62
     0
 10
9.34722
 20
19.8304
 30
0.0
 11
9.25435
 21
19.8483
 31
0.0
  0
LINE
  8
0
 62
     0
 10
9.25435
 20
19.8483
 30
0.0
 11
9.14236
 21
19.8571
 31
0.0
  0
LINE
  8
0
 62
     0
 10
9.14236
 20
19.8571
 30
0.0
 11
9.01129
 21
19.8568
 31
0.0
  0
LINE
  8
0
 62
     0
 10
9.01129
 20
19.8568
 30
0.0
 11
8.86111
 21
19.8472
 31
0.0
  0
ENDSEC
  0
EOF
