  0
SECTION
  2
HEADER
  9
$ACADVER
  1
AC1009
  9
$EXTMIN
 10
0.0
 20
0.0
 30
0.0
  9
$EXTMAX
 10
1000.0
 20
1000.0
 30
0.0
  9
$FILLMODE
 70
 0
  9
$SPLFRAME
 70
 1
  0
ENDSEC
  0
SECTION
  2
TABLES
  0
TABLE
  2
LAYER
 70
1
  0
LAYER
  2
0
 70
     0
 62
     7
  6
CONTINUOUS
  0
ENDTAB
  0
ENDSEC
  0
SECTION
  2
ENTITIES
  0
LINE
  8
0
 62
     0
 10
0.486111
 20
-0.958333
 30
0.0
 11
0.674425
 21
-0.969564
 31
0.0
  0
LINE
  8
0
 62
     0
 10
0.674425
 20
-0.969564
 30
0.0
 11
0.878472
 21
-0.961751
 31
0.0
  0
LINE
  8
0
 62
     0
 10
0.878472
 20
-0.961751
 30
0.0
 11
1.09809
 21
-0.934842
 31
0.0
  0
LINE
  8
0
 62
     0
 10
1.09809
 20
-0.934842
 30
0.0
 11
1.33333
 21
-0.888889
 31
0.0
  0
LINE
  8
0
 62
     0
 10
1.33333
 20
-0.888889
 30
0.0
 11
1.6154
 21
-0.811849
 31
0.0
  0
LINE
  8
0
 62
     0
 10
1.6154
 20
-0.811849
 30
0.0
 11
1.85758
 21
-0.726563
 31
0.0
  0
LINE
  8
0
 62
     0
 10
1.85758
 20
-0.726563
 30
0.0
 11
2.05985
 21
-0.633029
 31
0.0
  0
LINE
  8
0
 62
     0
 10
2.05985
 20
-0.633029
 30
0.0
 11
2.22217
 21
-0.53125
 31
0.0
  0
LINE
  8
0
 62
     0
 10
2.22217
 20
-0.53125
 30
0.0
 11
2.34457
 21
-0.421224
 31
0.0
  0
LINE
  8
0
 62
     0
 10
2.34457
 20
-0.421224
 30
0.0
 11
2.42703
 21
-0.302951
 31
0.0
  0
LINE
  8
0
 62
     0
 10
2.42703
 20
-0.302951
 30
0.0
 11
2.46957
 21
-0.176432
 31
0.0
  0
LINE
  8
0
 62
     0
 10
2.46957
 20
-0.176432
 30
0.0
 11
2.47222
 21
-0.0416667
 31
0.0
  0
LINE
  8
0
 62
     0
 10
2.47222
 20
-0.0416667
 30
0.0
 11
2.40381
 21
0.716362
 31
0.0
  0
LINE
  8
0
 62
     0
 10
2.40381
 20
0.716362
 30
0.0
 11
2.35151
 21
1.53213
 31
0.0
  0
LINE
  8
0
 62
     0
 10
2.35151
 20
1.53213
 30
0.0
 11
2.31526
 21
2.4056
 31
0.0
  0
LINE
  8
0
 62
     0
 10
2.31526
 20
2.4056
 30
0.0
 11
2.29508
 21
3.33681
 31
0.0
  0
LINE
  8
0
 62
     0
 10
2.29508
 20
3.33681
 30
0.0
 11
2.29096
 21
4.32574
 31
0.0
  0
LINE
  8
0
 62
     0
 10
2.29096
 20
4.32574
 30
0.0
 11
2.3029
 21
5.3724
 31
0.0
  0
LINE
  8
0
 62
     0
 10
2.3029
 20
5.3724
 30
0.0
 11
2.33089
 21
6.47678
 31
0.0
  0
LINE
  8
0
 62
     0
 10
2.33089
 20
6.47678
 30
0.0
 11
2.375
 21
7.63889
 31
0.0
  0
LINE
  8
0
 62
     0
 10
2.375
 20
7.63889
 30
0.0
 11
2.71983
 21
7.02479
 31
0.0
  0
LINE
  8
0
 62
     0
 10
2.71983
 20
7.02479
 30
0.0
 11
3.07726
 21
6.42888
 31
0.0
  0
LINE
  8
0
 62
     0
 10
3.07726
 20
6.42888
 30
0.0
 11
3.44726
 21
5.85118
 31
0.0
  0
LINE
  8
0
 62
     0
 10
3.44726
 20
5.85118
 30
0.0
 11
3.82986
 21
5.29172
 31
0.0
  0
LINE
  8
0
 62
     0
 10
3.82986
 20
5.29172
 30
0.0
 11
4.22504
 21
4.75049
 31
0.0
  0
LINE
  8
0
 62
     0
 10
4.22504
 20
4.75049
 30
0.0
 11
4.63282
 21
4.22749
 31
0.0
  0
LINE
  8
0
 62
     0
 10
4.63282
 20
4.22749
 30
0.0
 11
5.05317
 21
3.72271
 31
0.0
  0
LINE
  8
0
 62
     0
 10
5.05317
 20
3.72271
 30
0.0
 11
5.48611
 21
3.23611
 31
0.0
  0
LINE
  8
0
 62
     0
 10
5.48611
 20
3.23611
 30
0.0
 11
5.93164
 21
2.76779
 31
0.0
  0
LINE
  8
0
 62
     0
 10
5.93164
 20
2.76779
 30
0.0
 11
6.38976
 21
2.31771
 31
0.0
  0
LINE
  8
0
 62
     0
 10
6.38976
 20
2.31771
 30
0.0
 11
6.86046
 21
1.88585
 31
0.0
  0
LINE
  8
0
 62
     0
 10
6.86046
 20
1.88585
 30
0.0
 11
7.34375
 21
1.47222
 31
0.0
  0
LINE
  8
0
 62
     0
 10
7.34375
 20
1.47222
 30
0.0
 11
7.83963
 21
1.07682
 31
0.0
  0
LINE
  8
0
 62
     0
 10
7.83963
 20
1.07682
 30
0.0
 11
8.3481
 21
0.699653
 31
0.0
  0
LINE
  8
0
 62
     0
 10
8.3481
 20
0.699653
 30
0.0
 11
8.86914
 21
0.340712
 31
0.0
  0
LINE
  8
0
 62
     0
 10
8.86914
 20
0.340712
 30
0.0
 11
9.40278
 21
-0
 31
0.0
  0
LINE
  8
0
 62
     0
 10
9.40278
 20
-0
 30
0.0
 11
9.5586
 21
-0.0756836
 31
0.0
  0
LINE
  8
0
 62
     0
 10
9.5586
 20
-0.0756836
 30
0.0
 11
9.72743
 21
-0.122342
 31
0.0
  0
LINE
  8
0
 62
     0
 10
9.72743
 20
-0.122342
 30
0.0
 11
9.90929
 21
-0.139919
 31
0.0
  0
LINE
  8
0
 62
     0
 10
9.90929
 20
-0.139919
 30
0.0
 11
10.1042
 21
-0.128418
 31
0.0
  0
LINE
  8
0
 62
     0
 10
10.1042
 20
-0.128418
 30
0.0
 11
10.3121
 21
-0.0878364
 31
0.0
  0
LINE
  8
0
 62
     0
 10
10.3121
 20
-0.0878364
 30
0.0
 11
10.533
 21
-0.0181749
 31
0.0
  0
LINE
  8
0
 62
     0
 10
10.533
 20
-0.0181749
 30
0.0
 11
10.7669
 21
0.0805664
 31
0.0
  0
LINE
  8
0
 62
     0
 10
10.7669
 20
0.0805664
 30
0.0
 11
11.0139
 21
0.208333
 31
0.0
  0
LINE
  8
0
 62
     0
 10
11.0139
 20
0.208333
 30
0.0
 11
11.2083
 21
0.328125
 31
0.0
  0
LINE
  8
0
 62
     0
 10
11.2083
 20
0.328125
 30
0.0
 11
11.3612
 21
0.451389
 31
0.0
  0
LINE
  8
0
 62
     0
 10
11.3612
 20
0.451389
 30
0.0
 11
11.4722
 21
0.578125
 31
0.0
  0
LINE
  8
0
 62
     0
 10
11.4722
 20
0.578125
 30
0.0
 11
11.5417
 21
0.708333
 31
0.0
  0
LINE
  8
0
 62
     0
 10
11.5417
 20
0.708333
 30
0.0
 11
11.5737
 21
0.855957
 31
0.0
  0
LINE
  8
0
 62
     0
 10
11.5737
 20
0.855957
 30
0.0
 11
11.5451
 21
0.993056
 31
0.0
  0
LINE
  8
0
 62
     0
 10
11.5451
 20
0.993056
 30
0.0
 11
11.4557
 21
1.11979
 31
0.0
  0
LINE
  8
0
 62
     0
 10
11.4557
 20
1.11979
 30
0.0
 11
11.3056
 21
1.23611
 31
0.0
  0
LINE
  8
0
 62
     0
 10
11.3056
 20
1.23611
 30
0.0
 11
10.7503
 21
1.59233
 31
0.0
  0
LINE
  8
0
 62
     0
 10
10.7503
 20
1.59233
 30
0.0
 11
10.2096
 21
1.96989
 31
0.0
  0
LINE
  8
0
 62
     0
 10
10.2096
 20
1.96989
 30
0.0
 11
9.68349
 21
2.36882
 31
0.0
  0
LINE
  8
0
 62
     0
 10
9.68349
 20
2.36882
 30
0.0
 11
9.17188
 21
2.78911
 31
0.0
  0
LINE
  8
0
 62
     0
 10
9.17188
 20
2.78911
 30
0.0
 11
8.67481
 21
3.23079
 31
0.0
  0
LINE
  8
0
 62
     0
 10
8.67481
 20
3.23079
 30
0.0
 11
8.19228
 21
3.69385
 31
0.0
  0
LINE
  8
0
 62
     0
 10
8.19228
 20
3.69385
 30
0.0
 11
7.72428
 21
4.17828
 31
0.0
  0
LINE
  8
0
 62
     0
 10
7.72428
 20
4.17828
 30
0.0
 11
7.27083
 21
4.68408
 31
0.0
  0
LINE
  8
0
 62
     0
 10
7.27083
 20
4.68408
 30
0.0
 11
6.83192
 21
5.21126
 31
0.0
  0
LINE
  8
0
 62
     0
 10
6.83192
 20
5.21126
 30
0.0
 11
6.40756
 21
5.75982
 31
0.0
  0
LINE
  8
0
 62
     0
 10
6.40756
 20
5.75982
 30
0.0
 11
5.99772
 21
6.32975
 31
0.0
  0
LINE
  8
0
 62
     0
 10
5.99772
 20
6.32975
 30
0.0
 11
5.60243
 21
6.92106
 31
0.0
  0
LINE
  8
0
 62
     0
 10
5.60243
 20
6.92106
 30
0.0
 11
5.22168
 21
7.53375
 31
0.0
  0
LINE
  8
0
 62
     0
 10
5.22168
 20
7.53375
 30
0.0
 11
4.85547
 21
8.16781
 31
0.0
  0
LINE
  8
0
 62
     0
 10
4.85547
 20
8.16781
 30
0.0
 11
4.50379
 21
8.82324
 31
0.0
  0
LINE
  8
0
 62
     0
 10
4.50379
 20
8.82324
 30
0.0
 11
4.16667
 21
9.5
 31
0.0
  0
LINE
  8
0
 62
     0
 10
4.16667
 20
9.5
 30
0.0
 11
4.11458
 21
9.58333
 31
0.0
  0
LINE
  8
0
 62
     0
 10
4.11458
 20
9.58333
 30
0.0
 11
4.04167
 21
9.66667
 31
0.0
  0
LINE
  8
0
 62
     0
 10
4.04167
 20
9.66667
 30
0.0
 11
4.46208
 21
10.084
 31
0.0
  0
LINE
  8
0
 62
     0
 10
4.46208
 20
10.084
 30
0.0
 11
4.86236
 21
10.4852
 31
0.0
  0
LINE
  8
0
 62
     0
 10
4.86236
 20
10.4852
 30
0.0
 11
5.24246
 21
10.8704
 31
0.0
  0
LINE
  8
0
 62
     0
 10
5.24246
 20
10.8704
 30
0.0
 11
5.60238
 21
11.2396
 31
0.0
  0
LINE
  8
0
 62
     0
 10
5.60238
 20
11.2396
 30
0.0
 11
5.94211
 21
11.5927
 31
0.0
  0
LINE
  8
0
 62
     0
 10
5.94211
 20
11.5927
 30
0.0
 11
6.26167
 21
11.9297
 31
0.0
  0
LINE
  8
0
 62
     0
 10
6.26167
 20
11.9297
 30
0.0
 11
6.56104
 21
12.2507
 31
0.0
  0
LINE
  8
0
 62
     0
 10
6.56104
 20
12.2507
 30
0.0
 11
6.84028
 21
12.5556
 31
0.0
  0
LINE
  8
0
 62
     0
 10
6.84028
 20
12.5556
 30
0.0
 11
7.09928
 21
12.8444
 31
0.0
  0
LINE
  8
0
 62
     0
 10
7.09928
 20
12.8444
 30
0.0
 11
7.33811
 21
13.1172
 31
0.0
  0
LINE
  8
0
 62
     0
 10
7.33811
 20
13.1172
 30
0.0
 11
7.55675
 21
13.3739
 31
0.0
  0
LINE
  8
0
 62
     0
 10
7.55675
 20
13.3739
 30
0.0
 11
7.75521
 21
13.6146
 31
0.0
  0
LINE
  8
0
 62
     0
 10
7.75521
 20
13.6146
 30
0.0
 11
7.93349
 21
13.8392
 31
0.0
  0
LINE
  8
0
 62
     0
 10
7.93349
 20
13.8392
 30
0.0
 11
8.09158
 21
14.0478
 31
0.0
  0
LINE
  8
0
 62
     0
 10
8.09158
 20
14.0478
 30
0.0
 11
8.22949
 21
14.2403
 31
0.0
  0
LINE
  8
0
 62
     0
 10
8.22949
 20
14.2403
 30
0.0
 11
8.34722
 21
14.4167
 31
0.0
  0
LINE
  8
0
 62
     0
 10
8.34722
 20
14.4167
 30
0.0
 11
8.42535
 21
14.5964
 31
0.0
  0
LINE
  8
0
 62
     0
 10
8.42535
 20
14.5964
 30
0.0
 11
8.4375
 21
14.7743
 31
0.0
  0
LINE
  8
0
 62
     0
 10
8.4375
 20
14.7743
 30
0.0
 11
8.38368
 21
14.9506
 31
0.0
  0
LINE
  8
0
 62
     0
 10
8.38368
 20
14.9506
 30
0.0
 11
8.26389
 21
15.125
 31
0.0
  0
LINE
  8
0
 62
     0
 10
8.26389
 20
15.125
 30
0.0
 11
8.12321
 21
15.2622
 31
0.0
  0
LINE
  8
0
 62
     0
 10
8.12321
 20
15.2622
 30
0.0
 11
7.96522
 21
15.3681
 31
0.0
  0
LINE
  8
0
 62
     0
 10
7.96522
 20
15.3681
 30
0.0
 11
7.78987
 21
15.4428
 31
0.0
  0
LINE
  8
0
 62
     0
 10
7.78987
 20
15.4428
 30
0.0
 11
7.59722
 21
15.4861
 31
0.0
  0
LINE
  8
0
 62
     0
 10
7.59722
 20
15.4861
 30
0.0
 11
7.35389
 21
15.5018
 31
0.0
  0
LINE
  8
0
 62
     0
 10
7.35389
 20
15.5018
 30
0.0
 11
7.12408
 21
15.4861
 31
0.0
  0
LINE
  8
0
 62
     0
 10
7.12408
 20
15.4861
 30
0.0
 11
6.90771
 21
15.4393
 31
0.0
  0
LINE
  8
0
 62
     0
 10
6.90771
 20
15.4393
 30
0.0
 11
6.70481
 21
15.3611
 31
0.0
  0
LINE
  8
0
 62
     0
 10
6.70481
 20
15.3611
 30
0.0
 11
6.51535
 21
15.2518
 31
0.0
  0
LINE
  8
0
 62
     0
 10
6.51535
 20
15.2518
 30
0.0
 11
6.33936
 21
15.1111
 31
0.0
  0
LINE
  8
0
 62
     0
 10
6.33936
 20
15.1111
 30
0.0
 11
6.17681
 21
14.9393
 31
0.0
  0
LINE
  8
0
 62
     0
 10
6.17681
 20
14.9393
 30
0.0
 11
6.02778
 21
14.7361
 31
0.0
  0
LINE
  8
0
 62
     0
 10
6.02778
 20
14.7361
 30
0.0
 11
5.78792
 21
14.3812
 31
0.0
  0
LINE
  8
0
 62
     0
 10
5.78792
 20
14.3812
 30
0.0
 11
5.49214
 21
13.9904
 31
0.0
  0
LINE
  8
0
 62
     0
 10
5.49214
 20
13.9904
 30
0.0
 11
5.14035
 21
13.5636
 31
0.0
  0
LINE
  8
0
 62
     0
 10
5.14035
 20
13.5636
 30
0.0
 11
4.73264
 21
13.1007
 31
0.0
  0
LINE
  8
0
 62
     0
 10
4.73264
 20
13.1007
 30
0.0
 11
4.26888
 21
12.6018
 31
0.0
  0
LINE
  8
0
 62
     0
 10
4.26888
 20
12.6018
 30
0.0
 11
3.74914
 21
12.0668
 31
0.0
  0
LINE
  8
0
 62
     0
 10
3.74914
 20
12.0668
 30
0.0
 11
3.17339
 21
11.4959
 31
0.0
  0
LINE
  8
0
 62
     0
 10
3.17339
 20
11.4959
 30
0.0
 11
2.54167
 21
10.8889
 31
0.0
  0
LINE
  8
0
 62
     0
 10
2.54167
 20
10.8889
 30
0.0
 11
2.58594
 21
12.2003
 31
0.0
  0
LINE
  8
0
 62
     0
 10
2.58594
 20
12.2003
 30
0.0
 11
2.60764
 21
13.4471
 31
0.0
  0
LINE
  8
0
 62
     0
 10
2.60764
 20
13.4471
 30
0.0
 11
2.60678
 21
14.6292
 31
0.0
  0
LINE
  8
0
 62
     0
 10
2.60678
 20
14.6292
 30
0.0
 11
2.58333
 21
15.7465
 31
0.0
  0
LINE
  8
0
 62
     0
 10
2.58333
 20
15.7465
 30
0.0
 11
2.53733
 21
16.7993
 31
0.0
  0
LINE
  8
0
 62
     0
 10
2.53733
 20
16.7993
 30
0.0
 11
2.46875
 21
17.7874
 31
0.0
  0
LINE
  8
0
 62
     0
 10
2.46875
 20
17.7874
 30
0.0
 11
2.37761
 21
18.7107
 31
0.0
  0
LINE
  8
0
 62
     0
 10
2.37761
 20
18.7107
 30
0.0
 11
2.26389
 21
19.5694
 31
0.0
  0
LINE
  8
0
 62
     0
 10
2.26389
 20
19.5694
 30
0.0
 11
2.22651
 21
19.6754
 31
0.0
  0
LINE
  8
0
 62
     0
 10
2.22651
 20
19.6754
 30
0.0
 11
2.14231
 21
19.7569
 31
0.0
  0
LINE
  8
0
 62
     0
 10
2.14231
 20
19.7569
 30
0.0
 11
2.01124
 21
19.8143
 31
0.0
  0
LINE
  8
0
 62
     0
 10
2.01124
 20
19.8143
 30
0.0
 11
1.83333
 21
19.8472
 31
0.0
  0
LINE
  8
0
 62
     0
 10
1.83333
 20
19.8472
 30
0.0
 11
1.64497
 21
19.8576
 31
0.0
  0
LINE
  8
0
 62
     0
 10
1.64497
 20
19.8576
 30
0.0
 11
1.44097
 21
19.8472
 31
0.0
  0
LINE
  8
0
 62
     0
 10
1.44097
 20
19.8472
 30
0.0
 11
1.2213
 21
19.816
 31
0.0
  0
LINE
  8
0
 62
     0
 10
1.2213
 20
19.816
 30
0.0
 11
0.986111
 21
19.7639
 31
0.0
  0
LINE
  8
0
 62
     0
 10
0.986111
 20
19.7639
 30
0.0
 11
0.748264
 21
19.7014
 31
0.0
  0
LINE
  8
0
 62
     0
 10
0.748264
 20
19.7014
 30
0.0
 11
0.534722
 21
19.625
 31
0.0
  0
LINE
  8
0
 62
     0
 10
0.534722
 20
19.625
 30
0.0
 11
0.345486
 21
19.5347
 31
0.0
  0
LINE
  8
0
 62
     0
 10
0.345486
 20
19.5347
 30
0.0
 11
0.180556
 21
19.4306
 31
0.0
  0
LINE
  8
0
 62
     0
 10
0.180556
 20
19.4306
 30
0.0
 11
0.0251736
 21
19.3108
 31
0.0
  0
LINE
  8
0
 62
     0
 10
0.0251736
 20
19.3108
 30
0.0
 11
-0.0798611
 21
19.1875
 31
0.0
  0
LINE
  8
0
 62
     0
 10
-0.0798611
 20
19.1875
 30
0.0
 11
-0.134549
 21
19.0608
 31
0.0
  0
LINE
  8
0
 62
     0
 10
-0.134549
 20
19.0608
 30
0.0
 11
-0.138889
 21
18.9306
 31
0.0
  0
LINE
  8
0
 62
     0
 10
-0.138889
 20
18.9306
 30
0.0
 11
-0.0762261
 21
18.4871
 31
0.0
  0
LINE
  8
0
 62
     0
 10
-0.0762261
 20
18.4871
 30
0.0
 11
-0.0200196
 21
18.0208
 31
0.0
  0
LINE
  8
0
 62
     0
 10
-0.0200196
 20
18.0208
 30
0.0
 11
0.0296767
 21
17.5322
 31
0.0
  0
LINE
  8
0
 62
     0
 10
0.0296767
 20
17.5322
 30
0.0
 11
0.0728624
 21
17.0208
 31
0.0
  0
LINE
  8
0
 62
     0
 10
0.0728624
 20
17.0208
 30
0.0
 11
0.109538
 21
16.4871
 31
0.0
  0
LINE
  8
0
 62
     0
 10
0.109538
 20
16.4871
 30
0.0
 11
0.139703
 21
15.9306
 31
0.0
  0
LINE
  8
0
 62
     0
 10
0.139703
 20
15.9306
 30
0.0
 11
0.163357
 21
15.3517
 31
0.0
  0
LINE
  8
0
 62
     0
 10
0.163357
 20
15.3517
 30
0.0
 11
0.180556
 21
14.75
 31
0.0
  0
LINE
  8
0
 62
     0
 10
0.180556
 20
14.75
 30
0.0
 11
0.191189
 21
14.126
 31
0.0
  0
LINE
  8
0
 62
     0
 10
0.191189
 20
14.126
 30
0.0
 11
0.195313
 21
13.4792
 31
0.0
  0
LINE
  8
0
 62
     0
 10
0.195313
 20
13.4792
 30
0.0
 11
0.192925
 21
12.8099
 31
0.0
  0
LINE
  8
0
 62
     0
 10
0.192925
 20
12.8099
 30
0.0
 11
0.184028
 21
12.1181
 31
0.0
  0
LINE
  8
0
 62
     0
 10
0.184028
 20
12.1181
 30
0.0
 11
0.168619
 21
11.4037
 31
0.0
  0
LINE
  8
0
 62
     0
 10
0.168619
 20
11.4037
 30
0.0
 11
0.146701
 21
10.6667
 31
0.0
  0
LINE
  8
0
 62
     0
 10
0.146701
 20
10.6667
 30
0.0
 11
0.118273
 21
9.90717
 31
0.0
  0
LINE
  8
0
 62
     0
 10
0.118273
 20
9.90717
 30
0.0
 11
0.0833333
 21
9.125
 31
0.0
  0
LINE
  8
0
 62
     0
 10
0.0833333
 20
9.125
 30
0.0
 11
0.0442165
 21
8.29243
 31
0.0
  0
LINE
  8
0
 62
     0
 10
0.0442165
 20
8.29243
 30
0.0
 11
0.0101997
 21
7.48899
 31
0.0
  0
LINE
  8
0
 62
     0
 10
0.0101997
 20
7.48899
 30
0.0
 11
-0.0187175
 21
6.71474
 31
0.0
  0
LINE
  8
0
 62
     0
 10
-0.0187175
 20
6.71474
 30
0.0
 11
-0.0425347
 21
5.96967
 31
0.0
  0
LINE
  8
0
 62
     0
 10
-0.0425347
 20
5.96967
 30
0.0
 11
-0.0612522
 21
5.25379
 31
0.0
  0
LINE
  8
0
 62
     0
 10
-0.0612522
 20
5.25379
 30
0.0
 11
-0.0748699
 21
4.56711
 31
0.0
  0
LINE
  8
0
 62
     0
 10
-0.0748699
 20
4.56711
 30
0.0
 11
-0.0833876
 21
3.90961
 31
0.0
  0
LINE
  8
0
 62
     0
 10
-0.0833876
 20
3.90961
 30
0.0
 11
-0.0868056
 21
3.28131
 31
0.0
  0
LINE
  8
0
 62
     0
 10
-0.0868056
 20
3.28131
 30
0.0
 11
-0.0851238
 21
2.68218
 31
0.0
  0
LINE
  8
0
 62
     0
 10
-0.0851238
 20
2.68218
 30
0.0
 11
-0.0783421
 21
2.11225
 31
0.0
  0
LINE
  8
0
 62
     0
 10
-0.0783421
 20
2.11225
 30
0.0
 11
-0.0664606
 21
1.5715
 31
0.0
  0
LINE
  8
0
 62
     0
 10
-0.0664606
 20
1.5715
 30
0.0
 11
-0.0494792
 21
1.05995
 31
0.0
  0
LINE
  8
0
 62
     0
 10
-0.0494792
 20
1.05995
 30
0.0
 11
-0.0273981
 21
0.577582
 31
0.0
  0
LINE
  8
0
 62
     0
 10
-0.0273981
 20
0.577582
 30
0.0
 11
-0.000217014
 21
0.124403
 31
0.0
  0
LINE
  8
0
 62
     0
 10
-0.000217014
 20
0.124403
 30
0.0
 11
0.0320637
 21
-0.299587
 31
0.0
  0
LINE
  8
0
 62
     0
 10
0.0320637
 20
-0.299587
 30
0.0
 11
0.0694444
 21
-0.694444
 31
0.0
  0
LINE
  8
0
 62
     0
 10
0.0694444
 20
-0.694444
 30
0.0
 11
0.105848
 21
-0.794271
 31
0.0
  0
LINE
  8
0
 62
     0
 10
0.105848
 20
-0.794271
 30
0.0
 11
0.187446
 21
-0.871528
 31
0.0
  0
LINE
  8
0
 62
     0
 10
0.187446
 20
-0.871528
 30
0.0
 11
0.314182
 21
-0.926215
 31
0.0
  0
LINE
  8
0
 62
     0
 10
0.314182
 20
-0.926215
 30
0.0
 11
0.486111
 21
-0.958333
 31
0.0
  0
ENDSEC
  0
EOF
