  0
SECTION
  2
HEADER
  9
$ACADVER
  1
AC1009
  9
$EXTMIN
 10
0.0
 20
0.0
 30
0.0
  9
$EXTMAX
 10
1000.0
 20
1000.0
 30
0.0
  9
$FILLMODE
 70
 0
  9
$SPLFRAME
 70
 1
  0
ENDSEC
  0
SECTION
  2
TABLES
  0
TABLE
  2
LAYER
 70
1
  0
LAYER
  2
0
 70
     0
 62
     7
  6
CONTINUOUS
  0
ENDTAB
  0
ENDSEC
  0
SECTION
  2
ENTITIES
  0
LINE
  8
0
 62
     0
 10
0.791667
 20
-1.08333
 30
0.0
 11
1.0816
 21
-1.1588
 31
0.0
  0
LINE
  8
0
 62
     0
 10
1.0816
 20
-1.1588
 30
0.0
 11
1.35417
 21
-1.19092
 31
0.0
  0
LINE
  8
0
 62
     0
 10
1.35417
 20
-1.19092
 30
0.0
 11
1.60938
 21
-1.17963
 31
0.0
  0
LINE
  8
0
 62
     0
 10
1.60938
 20
-1.17963
 30
0.0
 11
1.84722
 21
-1.125
 31
0.0
  0
LINE
  8
0
 62
     0
 10
1.84722
 20
-1.125
 30
0.0
 11
2.31575
 21
-0.9579
 31
0.0
  0
LINE
  8
0
 62
     0
 10
2.31575
 20
-0.9579
 30
0.0
 11
2.83942
 21
-0.762153
 31
0.0
  0
LINE
  8
0
 62
     0
 10
2.83942
 20
-0.762153
 30
0.0
 11
3.41818
 21
-0.537761
 31
0.0
  0
LINE
  8
0
 62
     0
 10
3.41818
 20
-0.537761
 30
0.0
 11
4.05208
 21
-0.284722
 31
0.0
  0
LINE
  8
0
 62
     0
 10
4.05208
 20
-0.284722
 30
0.0
 11
4.7411
 21
-0.00298394
 31
0.0
  0
LINE
  8
0
 62
     0
 10
4.7411
 20
-0.00298394
 30
0.0
 11
5.48525
 21
0.307346
 31
0.0
  0
LINE
  8
0
 62
     0
 10
5.48525
 20
0.307346
 30
0.0
 11
6.2845
 21
0.646322
 31
0.0
  0
LINE
  8
0
 62
     0
 10
6.2845
 20
0.646322
 30
0.0
 11
7.13889
 21
1.01389
 31
0.0
  0
LINE
  8
0
 62
     0
 10
7.13889
 20
1.01389
 30
0.0
 11
7.97808
 21
1.37505
 31
0.0
  0
LINE
  8
0
 62
     0
 10
7.97808
 20
1.37505
 30
0.0
 11
8.7665
 21
1.70839
 31
0.0
  0
LINE
  8
0
 62
     0
 10
8.7665
 20
1.70839
 30
0.0
 11
9.50413
 21
2.01394
 31
0.0
  0
LINE
  8
0
 62
     0
 10
9.50413
 20
2.01394
 30
0.0
 11
10.191
 21
2.29172
 31
0.0
  0
LINE
  8
0
 62
     0
 10
10.191
 20
2.29172
 30
0.0
 11
10.827
 21
2.54172
 31
0.0
  0
LINE
  8
0
 62
     0
 10
10.827
 20
2.54172
 30
0.0
 11
11.4123
 21
2.76394
 31
0.0
  0
LINE
  8
0
 62
     0
 10
11.4123
 20
2.76394
 30
0.0
 11
11.9468
 21
2.95839
 31
0.0
  0
LINE
  8
0
 62
     0
 10
11.9468
 20
2.95839
 30
0.0
 11
12.4306
 21
3.125
 31
0.0
  0
LINE
  8
0
 62
     0
 10
12.4306
 20
3.125
 30
0.0
 11
12.6961
 21
3.23525
 31
0.0
  0
LINE
  8
0
 62
     0
 10
12.6961
 20
3.23525
 30
0.0
 11
12.9236
 21
3.37153
 31
0.0
  0
LINE
  8
0
 62
     0
 10
12.9236
 20
3.37153
 30
0.0
 11
13.1128
 21
3.5339
 31
0.0
  0
LINE
  8
0
 62
     0
 10
13.1128
 20
3.5339
 30
0.0
 11
13.2639
 21
3.72222
 31
0.0
  0
LINE
  8
0
 62
     0
 10
13.2639
 20
3.72222
 30
0.0
 11
13.3611
 21
3.90283
 31
0.0
  0
LINE
  8
0
 62
     0
 10
13.3611
 20
3.90283
 30
0.0
 11
13.4167
 21
4.08339
 31
0.0
  0
LINE
  8
0
 62
     0
 10
13.4167
 20
4.08339
 30
0.0
 11
13.4306
 21
4.26394
 31
0.0
  0
LINE
  8
0
 62
     0
 10
13.4306
 20
4.26394
 30
0.0
 11
13.4028
 21
4.44444
 31
0.0
  0
LINE
  8
0
 62
     0
 10
13.4028
 20
4.44444
 30
0.0
 11
13.3376
 21
4.61811
 31
0.0
  0
LINE
  8
0
 62
     0
 10
13.3376
 20
4.61811
 30
0.0
 11
13.2395
 21
4.76394
 31
0.0
  0
LINE
  8
0
 62
     0
 10
13.2395
 20
4.76394
 30
0.0
 11
13.1085
 21
4.882
 31
0.0
  0
LINE
  8
0
 62
     0
 10
13.1085
 20
4.882
 30
0.0
 11
12.9444
 21
4.97222
 31
0.0
  0
LINE
  8
0
 62
     0
 10
12.9444
 20
4.97222
 30
0.0
 11
12.7257
 21
5.03299
 31
0.0
  0
LINE
  8
0
 62
     0
 10
12.7257
 20
5.03299
 30
0.0
 11
12.4861
 21
5.04861
 31
0.0
  0
LINE
  8
0
 62
     0
 10
12.4861
 20
5.04861
 30
0.0
 11
12.2257
 21
5.0191
 31
0.0
  0
LINE
  8
0
 62
     0
 10
12.2257
 20
5.0191
 30
0.0
 11
11.9444
 21
4.94444
 31
0.0
  0
LINE
  8
0
 62
     0
 10
11.9444
 20
4.94444
 30
0.0
 11
11.4961
 21
4.78999
 31
0.0
  0
LINE
  8
0
 62
     0
 10
11.4961
 20
4.78999
 30
0.0
 11
11.0191
 21
4.61811
 31
0.0
  0
LINE
  8
0
 62
     0
 10
11.0191
 20
4.61811
 30
0.0
 11
10.5135
 21
4.42888
 31
0.0
  0
LINE
  8
0
 62
     0
 10
10.5135
 20
4.42888
 30
0.0
 11
9.97917
 21
4.22228
 31
0.0
  0
LINE
  8
0
 62
     0
 10
9.97917
 20
4.22228
 30
0.0
 11
9.41618
 21
3.99832
 31
0.0
  0
LINE
  8
0
 62
     0
 10
9.41618
 20
3.99832
 30
0.0
 11
8.8246
 21
3.757
 31
0.0
  0
LINE
  8
0
 62
     0
 10
8.8246
 20
3.757
 30
0.0
 11
8.20438
 21
3.49832
 31
0.0
  0
LINE
  8
0
 62
     0
 10
8.20438
 20
3.49832
 30
0.0
 11
7.55556
 21
3.22222
 31
0.0
  0
LINE
  8
0
 62
     0
 10
7.55556
 20
3.22222
 30
0.0
 11
7.12354
 21
3.03765
 31
0.0
  0
LINE
  8
0
 62
     0
 10
7.12354
 20
3.03765
 30
0.0
 11
6.71289
 21
2.86242
 31
0.0
  0
LINE
  8
0
 62
     0
 10
6.71289
 20
2.86242
 30
0.0
 11
6.32362
 21
2.6965
 31
0.0
  0
LINE
  8
0
 62
     0
 10
6.32362
 20
2.6965
 30
0.0
 11
5.95574
 21
2.53993
 31
0.0
  0
LINE
  8
0
 62
     0
 10
5.95574
 20
2.53993
 30
0.0
 11
5.60921
 21
2.39268
 31
0.0
  0
LINE
  8
0
 62
     0
 10
5.60921
 20
2.39268
 30
0.0
 11
5.28407
 21
2.25478
 31
0.0
  0
LINE
  8
0
 62
     0
 10
5.28407
 20
2.25478
 30
0.0
 11
4.98031
 21
2.12619
 31
0.0
  0
LINE
  8
0
 62
     0
 10
4.98031
 20
2.12619
 30
0.0
 11
4.69792
 21
2.00694
 31
0.0
  0
LINE
  8
0
 62
     0
 10
4.69792
 20
2.00694
 30
0.0
 11
4.4369
 21
1.89703
 31
0.0
  0
LINE
  8
0
 62
     0
 10
4.4369
 20
1.89703
 30
0.0
 11
4.19726
 21
1.79644
 31
0.0
  0
LINE
  8
0
 62
     0
 10
4.19726
 20
1.79644
 30
0.0
 11
3.979
 21
1.70518
 31
0.0
  0
LINE
  8
0
 62
     0
 10
3.979
 20
1.70518
 30
0.0
 11
3.78212
 21
1.62326
 31
0.0
  0
LINE
  8
0
 62
     0
 10
3.78212
 20
1.62326
 30
0.0
 11
3.60661
 21
1.55067
 31
0.0
  0
LINE
  8
0
 62
     0
 10
3.60661
 20
1.55067
 30
0.0
 11
3.45247
 21
1.48742
 31
0.0
  0
LINE
  8
0
 62
     0
 10
3.45247
 20
1.48742
 30
0.0
 11
3.31972
 21
1.43349
 31
0.0
  0
LINE
  8
0
 62
     0
 10
3.31972
 20
1.43349
 30
0.0
 11
3.20833
 21
1.38889
 31
0.0
  0
LINE
  8
0
 62
     0
 10
3.20833
 20
1.38889
 30
0.0
 11
3.21528
 21
1.51708
 31
0.0
  0
LINE
  8
0
 62
     0
 10
3.21528
 20
1.51708
 30
0.0
 11
3.21892
 21
1.676
 31
0.0
  0
LINE
  8
0
 62
     0
 10
3.21892
 20
1.676
 30
0.0
 11
3.21918
 21
1.86561
 31
0.0
  0
LINE
  8
0
 62
     0
 10
3.21918
 20
1.86561
 30
0.0
 11
3.2161
 21
2.08594
 31
0.0
  0
LINE
  8
0
 62
     0
 10
3.2161
 20
2.08594
 30
0.0
 11
3.20964
 21
2.33697
 31
0.0
  0
LINE
  8
0
 62
     0
 10
3.20964
 20
2.33697
 30
0.0
 11
3.19982
 21
2.61871
 31
0.0
  0
LINE
  8
0
 62
     0
 10
3.19982
 20
2.61871
 30
0.0
 11
3.18664
 21
2.93115
 31
0.0
  0
LINE
  8
0
 62
     0
 10
3.18664
 20
2.93115
 30
0.0
 11
3.17008
 21
3.27431
 31
0.0
  0
LINE
  8
0
 62
     0
 10
3.17008
 20
3.27431
 30
0.0
 11
3.15018
 21
3.64817
 31
0.0
  0
LINE
  8
0
 62
     0
 10
3.15018
 20
3.64817
 30
0.0
 11
3.1269
 21
4.05274
 31
0.0
  0
LINE
  8
0
 62
     0
 10
3.1269
 20
4.05274
 30
0.0
 11
3.10026
 21
4.48801
 31
0.0
  0
LINE
  8
0
 62
     0
 10
3.10026
 20
4.48801
 30
0.0
 11
3.07026
 21
4.954
 31
0.0
  0
LINE
  8
0
 62
     0
 10
3.07026
 20
4.954
 30
0.0
 11
3.03689
 21
5.45068
 31
0.0
  0
LINE
  8
0
 62
     0
 10
3.03689
 20
5.45068
 30
0.0
 11
3.00017
 21
5.97808
 31
0.0
  0
LINE
  8
0
 62
     0
 10
3.00017
 20
5.97808
 30
0.0
 11
2.96007
 21
6.53618
 31
0.0
  0
LINE
  8
0
 62
     0
 10
2.96007
 20
6.53618
 30
0.0
 11
2.91667
 21
7.125
 31
0.0
  0
LINE
  8
0
 62
     0
 10
2.91667
 20
7.125
 30
0.0
 11
2.83365
 21
8.26503
 31
0.0
  0
LINE
  8
0
 62
     0
 10
2.83365
 20
8.26503
 30
0.0
 11
2.75493
 21
9.35178
 31
0.0
  0
LINE
  8
0
 62
     0
 10
2.75493
 20
9.35178
 30
0.0
 11
2.68044
 21
10.3852
 31
0.0
  0
LINE
  8
0
 62
     0
 10
2.68044
 20
10.3852
 30
0.0
 11
2.61019
 21
11.3655
 31
0.0
  0
LINE
  8
0
 62
     0
 10
2.61019
 20
11.3655
 30
0.0
 11
2.54417
 21
12.2924
 31
0.0
  0
LINE
  8
0
 62
     0
 10
2.54417
 20
12.2924
 30
0.0
 11
2.48236
 21
13.166
 31
0.0
  0
LINE
  8
0
 62
     0
 10
2.48236
 20
13.166
 30
0.0
 11
2.42481
 21
13.9864
 31
0.0
  0
LINE
  8
0
 62
     0
 10
2.42481
 20
13.9864
 30
0.0
 11
2.37153
 21
14.7535
 31
0.0
  0
LINE
  8
0
 62
     0
 10
2.37153
 20
14.7535
 30
0.0
 11
2.32243
 21
15.4672
 31
0.0
  0
LINE
  8
0
 62
     0
 10
2.32243
 20
15.4672
 30
0.0
 11
2.27756
 21
16.1278
 31
0.0
  0
LINE
  8
0
 62
     0
 10
2.27756
 20
16.1278
 30
0.0
 11
2.23693
 21
16.7351
 31
0.0
  0
LINE
  8
0
 62
     0
 10
2.23693
 20
16.7351
 30
0.0
 11
2.20053
 21
17.289
 31
0.0
  0
LINE
  8
0
 62
     0
 10
2.20053
 20
17.289
 30
0.0
 11
2.16835
 21
17.7897
 31
0.0
  0
LINE
  8
0
 62
     0
 10
2.16835
 20
17.7897
 30
0.0
 11
2.1404
 21
18.2372
 31
0.0
  0
LINE
  8
0
 62
     0
 10
2.1404
 20
18.2372
 30
0.0
 11
2.11669
 21
18.6314
 31
0.0
  0
LINE
  8
0
 62
     0
 10
2.11669
 20
18.6314
 30
0.0
 11
2.09722
 21
18.9722
 31
0.0
  0
LINE
  8
0
 62
     0
 10
2.09722
 20
18.9722
 30
0.0
 11
2.05817
 21
19.2049
 31
0.0
  0
LINE
  8
0
 62
     0
 10
2.05817
 20
19.2049
 30
0.0
 11
1.96875
 21
19.4028
 31
0.0
  0
LINE
  8
0
 62
     0
 10
1.96875
 20
19.4028
 30
0.0
 11
1.829
 21
19.566
 31
0.0
  0
LINE
  8
0
 62
     0
 10
1.829
 20
19.566
 30
0.0
 11
1.63889
 21
19.6944
 31
0.0
  0
LINE
  8
0
 62
     0
 10
1.63889
 20
19.6944
 30
0.0
 11
1.43397
 21
19.7813
 31
0.0
  0
LINE
  8
0
 62
     0
 10
1.43397
 20
19.7813
 30
0.0
 11
1.20833
 21
19.8333
 31
0.0
  0
LINE
  8
0
 62
     0
 10
1.20833
 20
19.8333
 30
0.0
 11
0.961806
 21
19.8507
 31
0.0
  0
LINE
  8
0
 62
     0
 10
0.961806
 20
19.8507
 30
0.0
 11
0.694444
 21
19.8333
 31
0.0
  0
LINE
  8
0
 62
     0
 10
0.694444
 20
19.8333
 30
0.0
 11
0.428765
 21
19.7917
 31
0.0
  0
LINE
  8
0
 62
     0
 10
0.428765
 20
19.7917
 30
0.0
 11
0.187446
 21
19.7222
 31
0.0
  0
LINE
  8
0
 62
     0
 10
0.187446
 20
19.7222
 30
0.0
 11
-0.0295682
 21
19.625
 31
0.0
  0
LINE
  8
0
 62
     0
 10
-0.0295682
 20
19.625
 30
0.0
 11
-0.222222
 21
19.5
 31
0.0
  0
LINE
  8
0
 62
     0
 10
-0.222222
 20
19.5
 30
0.0
 11
-0.402778
 21
19.3343
 31
0.0
  0
LINE
  8
0
 62
     0
 10
-0.402778
 20
19.3343
 30
0.0
 11
-0.527778
 21
19.1563
 31
0.0
  0
LINE
  8
0
 62
     0
 10
-0.527778
 20
19.1563
 30
0.0
 11
-0.597222
 21
18.9662
 31
0.0
  0
LINE
  8
0
 62
     0
 10
-0.597222
 20
18.9662
 30
0.0
 11
-0.611111
 21
18.7639
 31
0.0
  0
LINE
  8
0
 62
     0
 10
-0.611111
 20
18.7639
 30
0.0
 11
-0.563151
 21
17.8683
 31
0.0
  0
LINE
  8
0
 62
     0
 10
-0.563151
 20
17.8683
 30
0.0
 11
-0.509549
 21
16.9314
 31
0.0
  0
LINE
  8
0
 62
     0
 10
-0.509549
 20
16.9314
 30
0.0
 11
-0.450304
 21
15.9533
 31
0.0
  0
LINE
  8
0
 62
     0
 10
-0.450304
 20
15.9533
 30
0.0
 11
-0.385417
 21
14.934
 31
0.0
  0
LINE
  8
0
 62
     0
 10
-0.385417
 20
14.934
 30
0.0
 11
-0.314887
 21
13.8735
 31
0.0
  0
LINE
  8
0
 62
     0
 10
-0.314887
 20
13.8735
 30
0.0
 11
-0.238715
 21
12.7717
 31
0.0
  0
LINE
  8
0
 62
     0
 10
-0.238715
 20
12.7717
 30
0.0
 11
-0.156901
 21
11.6287
 31
0.0
  0
LINE
  8
0
 62
     0
 10
-0.156901
 20
11.6287
 30
0.0
 11
-0.0694444
 21
10.4444
 31
0.0
  0
LINE
  8
0
 62
     0
 10
-0.0694444
 20
10.4444
 30
0.0
 11
-0.0499675
 21
10.2116
 31
0.0
  0
LINE
  8
0
 62
     0
 10
-0.0499675
 20
10.2116
 30
0.0
 11
-0.026096
 21
9.95053
 31
0.0
  0
LINE
  8
0
 62
     0
 10
-0.026096
 20
9.95053
 30
0.0
 11
0.00211589
 21
9.66124
 31
0.0
  0
LINE
  8
0
 62
     0
 10
0.00211589
 20
9.66124
 30
0.0
 11
0.0346679
 21
9.34375
 31
0.0
  0
LINE
  8
0
 62
     0
 10
0.0346679
 20
9.34375
 30
0.0
 11
0.0715603
 21
8.99804
 31
0.0
  0
LINE
  8
0
 62
     0
 10
0.0715603
 20
8.99804
 30
0.0
 11
0.112793
 21
8.62414
 31
0.0
  0
LINE
  8
0
 62
     0
 10
0.112793
 20
8.62414
 30
0.0
 11
0.158365
 21
8.222
 31
0.0
  0
LINE
  8
0
 62
     0
 10
0.158365
 20
8.222
 30
0.0
 11
0.208333
 21
7.79167
 31
0.0
  0
LINE
  8
0
 62
     0
 10
0.208333
 20
7.79167
 30
0.0
 11
0.261501
 21
7.34164
 31
0.0
  0
LINE
  8
0
 62
     0
 10
0.261501
 20
7.34164
 30
0.0
 11
0.309896
 21
6.92193
 31
0.0
  0
LINE
  8
0
 62
     0
 10
0.309896
 20
6.92193
 30
0.0
 11
0.353515
 21
6.53261
 31
0.0
  0
LINE
  8
0
 62
     0
 10
0.353515
 20
6.53261
 30
0.0
 11
0.392361
 21
6.17367
 31
0.0
  0
LINE
  8
0
 62
     0
 10
0.392361
 20
6.17367
 30
0.0
 11
0.426432
 21
5.84511
 31
0.0
  0
LINE
  8
0
 62
     0
 10
0.426432
 20
5.84511
 30
0.0
 11
0.455729
 21
5.54693
 31
0.0
  0
LINE
  8
0
 62
     0
 10
0.455729
 20
5.54693
 30
0.0
 11
0.480251
 21
5.27914
 31
0.0
  0
LINE
  8
0
 62
     0
 10
0.480251
 20
5.27914
 30
0.0
 11
0.5
 21
5.04167
 31
0.0
  0
LINE
  8
0
 62
     0
 10
0.5
 20
5.04167
 30
0.0
 11
0.556803
 21
4.24094
 31
0.0
  0
LINE
  8
0
 62
     0
 10
0.556803
 20
4.24094
 30
0.0
 11
0.588488
 21
3.47749
 31
0.0
  0
LINE
  8
0
 62
     0
 10
0.588488
 20
3.47749
 30
0.0
 11
0.594997
 21
2.75136
 31
0.0
  0
LINE
  8
0
 62
     0
 10
0.594997
 20
2.75136
 30
0.0
 11
0.576335
 21
2.06256
 31
0.0
  0
LINE
  8
0
 62
     0
 10
0.576335
 20
2.06256
 30
0.0
 11
0.532497
 21
1.41108
 31
0.0
  0
LINE
  8
0
 62
     0
 10
0.532497
 20
1.41108
 30
0.0
 11
0.463488
 21
0.796929
 31
0.0
  0
LINE
  8
0
 62
     0
 10
0.463488
 20
0.796929
 30
0.0
 11
0.369303
 21
0.220107
 31
0.0
  0
LINE
  8
0
 62
     0
 10
0.369303
 20
0.220107
 30
0.0
 11
0.25
 21
-0.319444
 31
0.0
  0
LINE
  8
0
 62
     0
 10
0.25
 20
-0.319444
 30
0.0
 11
0.228028
 21
-0.449815
 31
0.0
  0
LINE
  8
0
 62
     0
 10
0.228028
 20
-0.449815
 30
0.0
 11
0.231717
 21
-0.570258
 31
0.0
  0
LINE
  8
0
 62
     0
 10
0.231717
 20
-0.570258
 30
0.0
 11
0.261014
 21
-0.680718
 31
0.0
  0
LINE
  8
0
 62
     0
 10
0.261014
 20
-0.680718
 30
0.0
 11
0.315918
 21
-0.781196
 31
0.0
  0
LINE
  8
0
 62
     0
 10
0.315918
 20
-0.781196
 30
0.0
 11
0.396431
 21
-0.87169
 31
0.0
  0
LINE
  8
0
 62
     0
 10
0.396431
 20
-0.87169
 30
0.0
 11
0.50255
 21
-0.952203
 31
0.0
  0
LINE
  8
0
 62
     0
 10
0.50255
 20
-0.952203
 30
0.0
 11
0.634278
 21
-1.02273
 31
0.0
  0
LINE
  8
0
 62
     0
 10
0.634278
 20
-1.02273
 30
0.0
 11
0.791667
 21
-1.08333
 31
0.0
  0
ENDSEC
  0
EOF
