  0
SECTION
  2
HEADER
  9
$ACADVER
  1
AC1009
  9
$EXTMIN
 10
0.0
 20
0.0
 30
0.0
  9
$EXTMAX
 10
1000.0
 20
1000.0
 30
0.0
  9
$FILLMODE
 70
 0
  9
$SPLFRAME
 70
 1
  0
ENDSEC
  0
SECTION
  2
TABLES
  0
TABLE
  2
LAYER
 70
1
  0
LAYER
  2
0
 70
     0
 62
     7
  6
CONTINUOUS
  0
ENDTAB
  0
ENDSEC
  0
SECTION
  2
ENTITIES
  0
LINE
  8
0
 62
     0
 10
6.66667
 20
12.0972
 30
0.0
 11
6.91862
 21
12.3892
 31
0.0
  0
LINE
  8
0
 62
     0
 10
6.91862
 20
12.3892
 30
0.0
 11
7.14671
 21
12.6537
 31
0.0
  0
LINE
  8
0
 62
     0
 10
7.14671
 20
12.6537
 30
0.0
 11
7.35092
 21
12.8909
 31
0.0
  0
LINE
  8
0
 62
     0
 10
7.35092
 20
12.8909
 30
0.0
 11
7.53125
 21
13.1008
 31
0.0
  0
LINE
  8
0
 62
     0
 10
7.53125
 20
13.1008
 30
0.0
 11
7.68772
 21
13.2833
 31
0.0
  0
LINE
  8
0
 62
     0
 10
7.68772
 20
13.2833
 30
0.0
 11
7.82032
 21
13.4384
 31
0.0
  0
LINE
  8
0
 62
     0
 10
7.82032
 20
13.4384
 30
0.0
 11
7.92904
 21
13.5663
 31
0.0
  0
LINE
  8
0
 62
     0
 10
7.92904
 20
13.5663
 30
0.0
 11
8.01389
 21
13.6667
 31
0.0
  0
LINE
  8
0
 62
     0
 10
8.01389
 20
13.6667
 30
0.0
 11
8.20053
 21
13.9393
 31
0.0
  0
LINE
  8
0
 62
     0
 10
8.20053
 20
13.9393
 30
0.0
 11
8.30208
 21
14.1875
 31
0.0
  0
LINE
  8
0
 62
     0
 10
8.30208
 20
14.1875
 30
0.0
 11
8.31858
 21
14.4115
 31
0.0
  0
LINE
  8
0
 62
     0
 10
8.31858
 20
14.4115
 30
0.0
 11
8.25
 21
14.6111
 31
0.0
  0
LINE
  8
0
 62
     0
 10
8.25
 20
14.6111
 30
0.0
 11
8.12587
 21
14.7631
 31
0.0
  0
LINE
  8
0
 62
     0
 10
8.12587
 20
14.7631
 30
0.0
 11
7.94792
 21
14.8854
 31
0.0
  0
LINE
  8
0
 62
     0
 10
7.94792
 20
14.8854
 30
0.0
 11
7.71615
 21
14.9783
 31
0.0
  0
LINE
  8
0
 62
     0
 10
7.71615
 20
14.9783
 30
0.0
 11
7.43056
 21
15.0417
 31
0.0
  0
LINE
  8
0
 62
     0
 10
7.43056
 20
15.0417
 30
0.0
 11
7.13015
 21
15.0739
 31
0.0
  0
LINE
  8
0
 62
     0
 10
7.13015
 20
15.0739
 30
0.0
 11
6.82633
 21
15.0729
 31
0.0
  0
LINE
  8
0
 62
     0
 10
6.82633
 20
15.0729
 30
0.0
 11
6.51904
 21
15.0392
 31
0.0
  0
LINE
  8
0
 62
     0
 10
6.51904
 20
15.0392
 30
0.0
 11
6.20833
 21
14.9722
 31
0.0
  0
LINE
  8
0
 62
     0
 10
6.20833
 20
14.9722
 30
0.0
 11
5.89844
 21
14.8758
 31
0.0
  0
LINE
  8
0
 62
     0
 10
5.89844
 20
14.8758
 30
0.0
 11
5.63542
 21
14.7535
 31
0.0
  0
LINE
  8
0
 62
     0
 10
5.63542
 20
14.7535
 30
0.0
 11
5.41928
 21
14.605
 31
0.0
  0
LINE
  8
0
 62
     0
 10
5.41928
 20
14.605
 30
0.0
 11
5.25
 21
14.4306
 31
0.0
  0
LINE
  8
0
 62
     0
 10
5.25
 20
14.4306
 30
0.0
 11
5.2009
 21
14.3711
 31
0.0
  0
LINE
  8
0
 62
     0
 10
5.2009
 20
14.3711
 30
0.0
 11
5.10238
 21
14.2553
 31
0.0
  0
LINE
  8
0
 62
     0
 10
5.10238
 20
14.2553
 30
0.0
 11
4.95437
 21
14.0829
 31
0.0
  0
LINE
  8
0
 62
     0
 10
4.95437
 20
14.0829
 30
0.0
 11
4.75694
 21
13.8542
 31
0.0
  0
LINE
  8
0
 62
     0
 10
4.75694
 20
13.8542
 30
0.0
 11
4.50999
 21
13.5691
 31
0.0
  0
LINE
  8
0
 62
     0
 10
4.50999
 20
13.5691
 30
0.0
 11
4.21354
 21
13.2275
 31
0.0
  0
LINE
  8
0
 62
     0
 10
4.21354
 20
13.2275
 30
0.0
 11
3.86762
 21
12.8295
 31
0.0
  0
LINE
  8
0
 62
     0
 10
3.86762
 20
12.8295
 30
0.0
 11
3.47222
 21
12.375
 31
0.0
  0
LINE
  8
0
 62
     0
 10
3.47222
 20
12.375
 30
0.0
 11
2.9739
 21
11.777
 31
0.0
  0
LINE
  8
0
 62
     0
 10
2.9739
 20
11.777
 30
0.0
 11
2.53467
 21
11.2188
 31
0.0
  0
LINE
  8
0
 62
     0
 10
2.53467
 20
11.2188
 30
0.0
 11
2.15446
 21
10.7006
 31
0.0
  0
LINE
  8
0
 62
     0
 10
2.15446
 20
10.7006
 30
0.0
 11
1.83333
 21
10.2222
 31
0.0
  0
LINE
  8
0
 62
     0
 10
1.83333
 20
10.2222
 30
0.0
 11
1.73958
 21
10.0313
 31
0.0
  0
LINE
  8
0
 62
     0
 10
1.73958
 20
10.0313
 30
0.0
 11
1.70833
 21
9.81944
 31
0.0
  0
LINE
  8
0
 62
     0
 10
1.70833
 20
9.81944
 30
0.0
 11
1.71789
 21
9.69532
 31
0.0
  0
LINE
  8
0
 62
     0
 10
1.71789
 20
9.69532
 30
0.0
 11
1.74653
 21
9.58681
 31
0.0
  0
LINE
  8
0
 62
     0
 10
1.74653
 20
9.58681
 30
0.0
 11
1.79428
 21
9.49397
 31
0.0
  0
LINE
  8
0
 62
     0
 10
1.79428
 20
9.49397
 30
0.0
 11
1.86111
 21
9.41667
 31
0.0
  0
LINE
  8
0
 62
     0
 10
1.86111
 20
9.41667
 30
0.0
 11
2.03683
 21
9.27067
 31
0.0
  0
LINE
  8
0
 62
     0
 10
2.03683
 20
9.27067
 30
0.0
 11
2.25863
 21
9.0964
 31
0.0
  0
LINE
  8
0
 62
     0
 10
2.25863
 20
9.0964
 30
0.0
 11
2.52642
 21
8.89393
 31
0.0
  0
LINE
  8
0
 62
     0
 10
2.52642
 20
8.89393
 30
0.0
 11
2.84022
 21
8.66325
 31
0.0
  0
LINE
  8
0
 62
     0
 10
2.84022
 20
8.66325
 30
0.0
 11
3.20003
 21
8.40435
 31
0.0
  0
LINE
  8
0
 62
     0
 10
3.20003
 20
8.40435
 30
0.0
 11
3.60585
 21
8.11724
 31
0.0
  0
LINE
  8
0
 62
     0
 10
3.60585
 20
8.11724
 30
0.0
 11
4.05767
 21
7.80192
 31
0.0
  0
LINE
  8
0
 62
     0
 10
4.05767
 20
7.80192
 30
0.0
 11
4.55556
 21
7.45833
 31
0.0
  0
LINE
  8
0
 62
     0
 10
4.55556
 20
7.45833
 30
0.0
 11
4.96913
 21
7.16689
 31
0.0
  0
LINE
  8
0
 62
     0
 10
4.96913
 20
7.16689
 30
0.0
 11
5.35585
 21
6.88282
 31
0.0
  0
LINE
  8
0
 62
     0
 10
5.35585
 20
6.88282
 30
0.0
 11
5.71565
 21
6.60612
 31
0.0
  0
LINE
  8
0
 62
     0
 10
5.71565
 20
6.60612
 30
0.0
 11
6.04856
 21
6.33681
 31
0.0
  0
LINE
  8
0
 62
     0
 10
6.04856
 20
6.33681
 30
0.0
 11
6.35454
 21
6.07487
 31
0.0
  0
LINE
  8
0
 62
     0
 10
6.35454
 20
6.07487
 30
0.0
 11
6.63363
 21
5.82032
 31
0.0
  0
LINE
  8
0
 62
     0
 10
6.63363
 20
5.82032
 30
0.0
 11
6.88579
 21
5.57314
 31
0.0
  0
LINE
  8
0
 62
     0
 10
6.88579
 20
5.57314
 30
0.0
 11
7.11111
 21
5.33333
 31
0.0
  0
LINE
  8
0
 62
     0
 10
7.11111
 20
5.33333
 30
0.0
 11
7.29335
 21
5.18143
 31
0.0
  0
LINE
  8
0
 62
     0
 10
7.29335
 20
5.18143
 30
0.0
 11
7.52078
 21
5.07292
 31
0.0
  0
LINE
  8
0
 62
     0
 10
7.52078
 20
5.07292
 30
0.0
 11
7.79335
 21
5.00782
 31
0.0
  0
LINE
  8
0
 62
     0
 10
7.79335
 20
5.00782
 30
0.0
 11
8.11111
 21
4.98611
 31
0.0
  0
LINE
  8
0
 62
     0
 10
8.11111
 20
4.98611
 30
0.0
 11
8.42443
 21
4.99744
 31
0.0
  0
LINE
  8
0
 62
     0
 10
8.42443
 20
4.99744
 30
0.0
 11
8.73953
 21
5.04519
 31
0.0
  0
LINE
  8
0
 62
     0
 10
8.73953
 20
5.04519
 30
0.0
 11
9.05638
 21
5.12939
 31
0.0
  0
LINE
  8
0
 62
     0
 10
9.05638
 20
5.12939
 30
0.0
 11
9.375
 21
5.25
 31
0.0
  0
LINE
  8
0
 62
     0
 10
9.375
 20
5.25
 30
0.0
 11
9.67703
 21
5.38981
 31
0.0
  0
LINE
  8
0
 62
     0
 10
9.67703
 20
5.38981
 30
0.0
 11
9.9305
 21
5.54514
 31
0.0
  0
LINE
  8
0
 62
     0
 10
9.9305
 20
5.54514
 30
0.0
 11
10.1354
 21
5.71615
 31
0.0
  0
LINE
  8
0
 62
     0
 10
10.1354
 20
5.71615
 30
0.0
 11
10.2917
 21
5.90278
 31
0.0
  0
LINE
  8
0
 62
     0
 10
10.2917
 20
5.90278
 30
0.0
 11
10.3967
 21
6.12153
 31
0.0
  0
LINE
  8
0
 62
     0
 10
10.3967
 20
6.12153
 30
0.0
 11
10.4201
 21
6.33333
 31
0.0
  0
LINE
  8
0
 62
     0
 10
10.4201
 20
6.33333
 30
0.0
 11
10.3619
 21
6.53819
 31
0.0
  0
LINE
  8
0
 62
     0
 10
10.3619
 20
6.53819
 30
0.0
 11
10.2222
 21
6.73611
 31
0.0
  0
LINE
  8
0
 62
     0
 10
10.2222
 20
6.73611
 30
0.0
 11
9.76824
 21
7.20404
 31
0.0
  0
LINE
  8
0
 62
     0
 10
9.76824
 20
7.20404
 30
0.0
 11
9.22569
 21
7.69103
 31
0.0
  0
LINE
  8
0
 62
     0
 10
9.22569
 20
7.69103
 30
0.0
 11
8.59457
 21
8.1971
 31
0.0
  0
LINE
  8
0
 62
     0
 10
8.59457
 20
8.1971
 30
0.0
 11
7.875
 21
8.72222
 31
0.0
  0
LINE
  8
0
 62
     0
 10
7.875
 20
8.72222
 30
0.0
 11
7.35867
 21
9.08122
 31
0.0
  0
LINE
  8
0
 62
     0
 10
7.35867
 20
9.08122
 30
0.0
 11
6.90012
 21
9.4011
 31
0.0
  0
LINE
  8
0
 62
     0
 10
6.90012
 20
9.4011
 30
0.0
 11
6.49929
 21
9.68192
 31
0.0
  0
LINE
  8
0
 62
     0
 10
6.49929
 20
9.68192
 30
0.0
 11
6.15619
 21
9.92367
 31
0.0
  0
LINE
  8
0
 62
     0
 10
6.15619
 20
9.92367
 30
0.0
 11
5.87082
 21
10.1264
 31
0.0
  0
LINE
  8
0
 62
     0
 10
5.87082
 20
10.1264
 30
0.0
 11
5.64318
 21
10.29
 31
0.0
  0
LINE
  8
0
 62
     0
 10
5.64318
 20
10.29
 30
0.0
 11
5.47325
 21
10.4146
 31
0.0
  0
LINE
  8
0
 62
     0
 10
5.47325
 20
10.4146
 30
0.0
 11
5.36111
 21
10.5
 31
0.0
  0
LINE
  8
0
 62
     0
 10
5.36111
 20
10.5
 30
0.0
 11
5.61979
 21
10.8395
 31
0.0
  0
LINE
  8
0
 62
     0
 10
5.61979
 20
10.8395
 30
0.0
 11
5.92361
 21
11.2188
 31
0.0
  0
LINE
  8
0
 62
     0
 10
5.92361
 20
11.2188
 30
0.0
 11
6.27257
 21
11.6381
 31
0.0
  0
LINE
  8
0
 62
     0
 10
6.27257
 20
11.6381
 30
0.0
 11
6.66667
 21
12.0972
 31
0.0
  0
ENDSEC
  0
EOF
