  0
SECTION
  2
HEADER
  9
$ACADVER
  1
AC1009
  9
$EXTMIN
 10
0.0
 20
0.0
 30
0.0
  9
$EXTMAX
 10
1000.0
 20
1000.0
 30
0.0
  9
$FILLMODE
 70
 0
  9
$SPLFRAME
 70
 1
  0
ENDSEC
  0
SECTION
  2
TABLES
  0
TABLE
  2
LAYER
 70
1
  0
LAYER
  2
0
 70
     0
 62
     7
  6
CONTINUOUS
  0
ENDTAB
  0
ENDSEC
  0
SECTION
  2
ENTITIES
  0
LINE
  8
0
 62
     0
 10
16.6806
 20
19.6528
 30
0.0
 11
16.3901
 21
19.5679
 31
0.0
  0
LINE
  8
0
 62
     0
 10
16.3901
 20
19.5679
 30
0.0
 11
16.1372
 21
19.4801
 31
0.0
  0
LINE
  8
0
 62
     0
 10
16.1372
 20
19.4801
 30
0.0
 11
15.9214
 21
19.3892
 31
0.0
  0
LINE
  8
0
 62
     0
 10
15.9214
 20
19.3892
 30
0.0
 11
15.7431
 21
19.2951
 31
0.0
  0
LINE
  8
0
 62
     0
 10
15.7431
 20
19.2951
 30
0.0
 11
15.6019
 21
19.1982
 31
0.0
  0
LINE
  8
0
 62
     0
 10
15.6019
 20
19.1982
 30
0.0
 11
15.4983
 21
19.0982
 31
0.0
  0
LINE
  8
0
 62
     0
 10
15.4983
 20
19.0982
 30
0.0
 11
15.4318
 21
18.995
 31
0.0
  0
LINE
  8
0
 62
     0
 10
15.4318
 20
18.995
 30
0.0
 11
15.4028
 21
18.8889
 31
0.0
  0
LINE
  8
0
 62
     0
 10
15.4028
 20
18.8889
 30
0.0
 11
15.3561
 21
18.4578
 31
0.0
  0
LINE
  8
0
 62
     0
 10
15.3561
 20
18.4578
 30
0.0
 11
15.2925
 21
17.9906
 31
0.0
  0
LINE
  8
0
 62
     0
 10
15.2925
 20
17.9906
 30
0.0
 11
15.2121
 21
17.4872
 31
0.0
  0
LINE
  8
0
 62
     0
 10
15.2121
 20
17.4872
 30
0.0
 11
15.1146
 21
16.9479
 31
0.0
  0
LINE
  8
0
 62
     0
 10
15.1146
 20
16.9479
 30
0.0
 11
15.0001
 21
16.3726
 31
0.0
  0
LINE
  8
0
 62
     0
 10
15.0001
 20
16.3726
 30
0.0
 11
14.8689
 21
15.7614
 31
0.0
  0
LINE
  8
0
 62
     0
 10
14.8689
 20
15.7614
 30
0.0
 11
14.7207
 21
15.114
 31
0.0
  0
LINE
  8
0
 62
     0
 10
14.7207
 20
15.114
 30
0.0
 11
14.5556
 21
14.4306
 31
0.0
  0
LINE
  8
0
 62
     0
 10
14.5556
 20
14.4306
 30
0.0
 11
14.3735
 21
13.6778
 31
0.0
  0
LINE
  8
0
 62
     0
 10
14.3735
 20
13.6778
 30
0.0
 11
14.2092
 21
12.9818
 31
0.0
  0
LINE
  8
0
 62
     0
 10
14.2092
 20
12.9818
 30
0.0
 11
14.0626
 21
12.3427
 31
0.0
  0
LINE
  8
0
 62
     0
 10
14.0626
 20
12.3427
 30
0.0
 11
13.934
 21
11.7605
 31
0.0
  0
LINE
  8
0
 62
     0
 10
13.934
 20
11.7605
 30
0.0
 11
13.8231
 21
11.2351
 31
0.0
  0
LINE
  8
0
 62
     0
 10
13.8231
 20
11.2351
 30
0.0
 11
13.73
 21
10.7665
 31
0.0
  0
LINE
  8
0
 62
     0
 10
13.73
 20
10.7665
 30
0.0
 11
13.6547
 21
10.3549
 31
0.0
  0
LINE
  8
0
 62
     0
 10
13.6547
 20
10.3549
 30
0.0
 11
13.5972
 21
10
 31
0.0
  0
LINE
  8
0
 62
     0
 10
13.5972
 20
10
 30
0.0
 11
13.5111
 21
9.40142
 31
0.0
  0
LINE
  8
0
 62
     0
 10
13.5111
 20
9.40142
 30
0.0
 11
13.4301
 21
8.83832
 31
0.0
  0
LINE
  8
0
 62
     0
 10
13.4301
 20
8.83832
 30
0.0
 11
13.354
 21
8.31071
 31
0.0
  0
LINE
  8
0
 62
     0
 10
13.354
 20
8.31071
 30
0.0
 11
13.2829
 21
7.81858
 31
0.0
  0
LINE
  8
0
 62
     0
 10
13.2829
 20
7.81858
 30
0.0
 11
13.2168
 21
7.36193
 31
0.0
  0
LINE
  8
0
 62
     0
 10
13.2168
 20
7.36193
 30
0.0
 11
13.1558
 21
6.94075
 31
0.0
  0
LINE
  8
0
 62
     0
 10
13.1558
 20
6.94075
 30
0.0
 11
13.0997
 21
6.55507
 31
0.0
  0
LINE
  8
0
 62
     0
 10
13.0997
 20
6.55507
 30
0.0
 11
13.0486
 21
6.20486
 31
0.0
  0
LINE
  8
0
 62
     0
 10
13.0486
 20
6.20486
 30
0.0
 11
13.0024
 21
5.89019
 31
0.0
  0
LINE
  8
0
 62
     0
 10
13.0024
 20
5.89019
 30
0.0
 11
12.9613
 21
5.61094
 31
0.0
  0
LINE
  8
0
 62
     0
 10
12.9613
 20
5.61094
 30
0.0
 11
12.9252
 21
5.36719
 31
0.0
  0
LINE
  8
0
 62
     0
 10
12.9252
 20
5.36719
 30
0.0
 11
12.894
 21
5.1589
 31
0.0
  0
LINE
  8
0
 62
     0
 10
12.894
 20
5.1589
 30
0.0
 11
12.8679
 21
4.98611
 31
0.0
  0
LINE
  8
0
 62
     0
 10
12.8679
 20
4.98611
 30
0.0
 11
12.8467
 21
4.84879
 31
0.0
  0
LINE
  8
0
 62
     0
 10
12.8467
 20
4.84879
 30
0.0
 11
12.8306
 21
4.74696
 31
0.0
  0
LINE
  8
0
 62
     0
 10
12.8306
 20
4.74696
 30
0.0
 11
12.8194
 21
4.68056
 31
0.0
  0
LINE
  8
0
 62
     0
 10
12.8194
 20
4.68056
 30
0.0
 11
12.5727
 21
5.77171
 31
0.0
  0
LINE
  8
0
 62
     0
 10
12.5727
 20
5.77171
 30
0.0
 11
12.3186
 21
6.84028
 31
0.0
  0
LINE
  8
0
 62
     0
 10
12.3186
 20
6.84028
 30
0.0
 11
12.0571
 21
7.88629
 31
0.0
  0
LINE
  8
0
 62
     0
 10
12.0571
 20
7.88629
 30
0.0
 11
11.7882
 21
8.90972
 31
0.0
  0
LINE
  8
0
 62
     0
 10
11.7882
 20
8.90972
 30
0.0
 11
11.5119
 21
9.9106
 31
0.0
  0
LINE
  8
0
 62
     0
 10
11.5119
 20
9.9106
 30
0.0
 11
11.2283
 21
10.8889
 31
0.0
  0
LINE
  8
0
 62
     0
 10
11.2283
 20
10.8889
 30
0.0
 11
10.9373
 21
11.8446
 31
0.0
  0
LINE
  8
0
 62
     0
 10
10.9373
 20
11.8446
 30
0.0
 11
10.6389
 21
12.7778
 31
0.0
  0
LINE
  8
0
 62
     0
 10
10.6389
 20
12.7778
 30
0.0
 11
10.3331
 21
13.6884
 31
0.0
  0
LINE
  8
0
 62
     0
 10
10.3331
 20
13.6884
 30
0.0
 11
10.02
 21
14.5764
 31
0.0
  0
LINE
  8
0
 62
     0
 10
10.02
 20
14.5764
 30
0.0
 11
9.69943
 21
15.4418
 31
0.0
  0
LINE
  8
0
 62
     0
 10
9.69943
 20
15.4418
 30
0.0
 11
9.37153
 21
16.2847
 31
0.0
  0
LINE
  8
0
 62
     0
 10
9.37153
 20
16.2847
 30
0.0
 11
9.03624
 21
17.105
 31
0.0
  0
LINE
  8
0
 62
     0
 10
9.03624
 20
17.105
 30
0.0
 11
8.69358
 21
17.9028
 31
0.0
  0
LINE
  8
0
 62
     0
 10
8.69358
 20
17.9028
 30
0.0
 11
8.34353
 21
18.6779
 31
0.0
  0
LINE
  8
0
 62
     0
 10
8.34353
 20
18.6779
 30
0.0
 11
7.98611
 21
19.4306
 31
0.0
  0
LINE
  8
0
 62
     0
 10
7.98611
 20
19.4306
 30
0.0
 11
7.92572
 21
19.5107
 31
0.0
  0
LINE
  8
0
 62
     0
 10
7.92572
 20
19.5107
 30
0.0
 11
7.83501
 21
19.5703
 31
0.0
  0
LINE
  8
0
 62
     0
 10
7.83501
 20
19.5703
 30
0.0
 11
7.71392
 21
19.6096
 31
0.0
  0
LINE
  8
0
 62
     0
 10
7.71392
 20
19.6096
 30
0.0
 11
7.56244
 21
19.6285
 31
0.0
  0
LINE
  8
0
 62
     0
 10
7.56244
 20
19.6285
 30
0.0
 11
7.38058
 21
19.6269
 31
0.0
  0
LINE
  8
0
 62
     0
 10
7.38058
 20
19.6269
 30
0.0
 11
7.16835
 21
19.605
 31
0.0
  0
LINE
  8
0
 62
     0
 10
7.16835
 20
19.605
 30
0.0
 11
6.92572
 21
19.5628
 31
0.0
  0
LINE
  8
0
 62
     0
 10
6.92572
 20
19.5628
 30
0.0
 11
6.65278
 21
19.5
 31
0.0
  0
LINE
  8
0
 62
     0
 10
6.65278
 20
19.5
 30
0.0
 11
6.38064
 21
19.4258
 31
0.0
  0
LINE
  8
0
 62
     0
 10
6.38064
 20
19.4258
 30
0.0
 11
6.14063
 21
19.349
 31
0.0
  0
LINE
  8
0
 62
     0
 10
6.14063
 20
19.349
 30
0.0
 11
5.93272
 21
19.2696
 31
0.0
  0
LINE
  8
0
 62
     0
 10
5.93272
 20
19.2696
 30
0.0
 11
5.75694
 21
19.1875
 31
0.0
  0
LINE
  8
0
 62
     0
 10
5.75694
 20
19.1875
 30
0.0
 11
5.61328
 21
19.1029
 31
0.0
  0
LINE
  8
0
 62
     0
 10
5.61328
 20
19.1029
 30
0.0
 11
5.50174
 21
19.0157
 31
0.0
  0
LINE
  8
0
 62
     0
 10
5.50174
 20
19.0157
 30
0.0
 11
5.42231
 21
18.9258
 31
0.0
  0
LINE
  8
0
 62
     0
 10
5.42231
 20
18.9258
 30
0.0
 11
5.375
 21
18.8333
 31
0.0
  0
LINE
  8
0
 62
     0
 10
5.375
 20
18.8333
 30
0.0
 11
5.05772
 21
17.7646
 31
0.0
  0
LINE
  8
0
 62
     0
 10
5.05772
 20
17.7646
 30
0.0
 11
4.75017
 21
16.7269
 31
0.0
  0
LINE
  8
0
 62
     0
 10
4.75017
 20
16.7269
 30
0.0
 11
4.45215
 21
15.7201
 31
0.0
  0
LINE
  8
0
 62
     0
 10
4.45215
 20
15.7201
 30
0.0
 11
4.16385
 21
14.7443
 31
0.0
  0
LINE
  8
0
 62
     0
 10
4.16385
 20
14.7443
 30
0.0
 11
3.8851
 21
13.7996
 31
0.0
  0
LINE
  8
0
 62
     0
 10
3.8851
 20
13.7996
 30
0.0
 11
3.61604
 21
12.8857
 31
0.0
  0
LINE
  8
0
 62
     0
 10
3.61604
 20
12.8857
 30
0.0
 11
3.35656
 21
12.0029
 31
0.0
  0
LINE
  8
0
 62
     0
 10
3.35656
 20
12.0029
 30
0.0
 11
3.10678
 21
11.151
 31
0.0
  0
LINE
  8
0
 62
     0
 10
3.10678
 20
11.151
 30
0.0
 11
2.86654
 21
10.3302
 31
0.0
  0
LINE
  8
0
 62
     0
 10
2.86654
 20
10.3302
 30
0.0
 11
2.63601
 21
9.54025
 31
0.0
  0
LINE
  8
0
 62
     0
 10
2.63601
 20
9.54025
 30
0.0
 11
2.41504
 21
8.78136
 31
0.0
  0
LINE
  8
0
 62
     0
 10
2.41504
 20
8.78136
 30
0.0
 11
2.20378
 21
8.05339
 31
0.0
  0
LINE
  8
0
 62
     0
 10
2.20378
 20
8.05339
 30
0.0
 11
2.00206
 21
7.35644
 31
0.0
  0
LINE
  8
0
 62
     0
 10
2.00206
 20
7.35644
 30
0.0
 11
1.81006
 21
6.69043
 31
0.0
  0
LINE
  8
0
 62
     0
 10
1.81006
 20
6.69043
 30
0.0
 11
1.62761
 21
6.05544
 31
0.0
  0
LINE
  8
0
 62
     0
 10
1.62761
 20
6.05544
 30
0.0
 11
1.45486
 21
5.45139
 31
0.0
  0
LINE
  8
0
 62
     0
 10
1.45486
 20
5.45139
 30
0.0
 11
1.29167
 21
4.87836
 31
0.0
  0
LINE
  8
0
 62
     0
 10
1.29167
 20
4.87836
 30
0.0
 11
1.13818
 21
4.33626
 31
0.0
  0
LINE
  8
0
 62
     0
 10
1.13818
 20
4.33626
 30
0.0
 11
0.994249
 21
3.82519
 31
0.0
  0
LINE
  8
0
 62
     0
 10
0.994249
 20
3.82519
 30
0.0
 11
0.860026
 21
3.34506
 31
0.0
  0
LINE
  8
0
 62
     0
 10
0.860026
 20
3.34506
 30
0.0
 11
0.735351
 21
2.89594
 31
0.0
  0
LINE
  8
0
 62
     0
 10
0.735351
 20
2.89594
 30
0.0
 11
0.620389
 21
2.47775
 31
0.0
  0
LINE
  8
0
 62
     0
 10
0.620389
 20
2.47775
 30
0.0
 11
0.514974
 21
2.0906
 31
0.0
  0
LINE
  8
0
 62
     0
 10
0.514974
 20
2.0906
 30
0.0
 11
0.419271
 21
1.73438
 31
0.0
  0
LINE
  8
0
 62
     0
 10
0.419271
 20
1.73438
 30
0.0
 11
0.333117
 21
1.40918
 31
0.0
  0
LINE
  8
0
 62
     0
 10
0.333117
 20
1.40918
 30
0.0
 11
0.256674
 21
1.11491
 31
0.0
  0
LINE
  8
0
 62
     0
 10
0.256674
 20
1.11491
 30
0.0
 11
0.189779
 21
0.851671
 31
0.0
  0
LINE
  8
0
 62
     0
 10
0.189779
 20
0.851671
 30
0.0
 11
0.132596
 21
0.619358
 31
0.0
  0
LINE
  8
0
 62
     0
 10
0.132596
 20
0.619358
 30
0.0
 11
0.084961
 21
0.418078
 31
0.0
  0
LINE
  8
0
 62
     0
 10
0.084961
 20
0.418078
 30
0.0
 11
0.0470378
 21
0.247721
 31
0.0
  0
LINE
  8
0
 62
     0
 10
0.0470378
 20
0.247721
 30
0.0
 11
0.0186632
 21
0.108398
 31
0.0
  0
LINE
  8
0
 62
     0
 10
0.0186632
 20
0.108398
 30
0.0
 11
0
 21
-0
 31
0.0
  0
LINE
  8
0
 62
     0
 10
0
 20
-0
 30
0.0
 11
0.0181749
 21
-0.0372721
 31
0.0
  0
LINE
  8
0
 62
     0
 10
0.0181749
 20
-0.0372721
 30
0.0
 11
0.0867512
 21
-0.0659179
 31
0.0
  0
LINE
  8
0
 62
     0
 10
0.0867512
 20
-0.0659179
 30
0.0
 11
0.205675
 21
-0.0858832
 31
0.0
  0
LINE
  8
0
 62
     0
 10
0.205675
 20
-0.0858832
 30
0.0
 11
0.375
 21
-0.0972222
 31
0.0
  0
LINE
  8
0
 62
     0
 10
0.375
 20
-0.0972222
 30
0.0
 11
0.798611
 21
-0.0763889
 31
0.0
  0
LINE
  8
0
 62
     0
 10
0.798611
 20
-0.0763889
 30
0.0
 11
1.26389
 21
-0.0138889
 31
0.0
  0
LINE
  8
0
 62
     0
 10
1.26389
 20
-0.0138889
 30
0.0
 11
1.56771
 21
0.0460613
 31
0.0
  0
LINE
  8
0
 62
     0
 10
1.56771
 20
0.0460613
 30
0.0
 11
1.83333
 21
0.114638
 31
0.0
  0
LINE
  8
0
 62
     0
 10
1.83333
 20
0.114638
 30
0.0
 11
2.06076
 21
0.191894
 31
0.0
  0
LINE
  8
0
 62
     0
 10
2.06076
 20
0.191894
 30
0.0
 11
2.25
 21
0.277832
 31
0.0
  0
LINE
  8
0
 62
     0
 10
2.25
 20
0.277832
 30
0.0
 11
2.40104
 21
0.37245
 31
0.0
  0
LINE
  8
0
 62
     0
 10
2.40104
 20
0.37245
 30
0.0
 11
2.51389
 21
0.475749
 31
0.0
  0
LINE
  8
0
 62
     0
 10
2.51389
 20
0.475749
 30
0.0
 11
2.58854
 21
0.587728
 31
0.0
  0
LINE
  8
0
 62
     0
 10
2.58854
 20
0.587728
 30
0.0
 11
2.625
 21
0.708333
 31
0.0
  0
LINE
  8
0
 62
     0
 10
2.625
 20
0.708333
 30
0.0
 11
2.71604
 21
1.25765
 31
0.0
  0
LINE
  8
0
 62
     0
 10
2.71604
 20
1.25765
 30
0.0
 11
2.82943
 21
1.85699
 31
0.0
  0
LINE
  8
0
 62
     0
 10
2.82943
 20
1.85699
 30
0.0
 11
2.96517
 21
2.50635
 31
0.0
  0
LINE
  8
0
 62
     0
 10
2.96517
 20
2.50635
 30
0.0
 11
3.12326
 21
3.20574
 31
0.0
  0
LINE
  8
0
 62
     0
 10
3.12326
 20
3.20574
 30
0.0
 11
3.30371
 21
3.95514
 31
0.0
  0
LINE
  8
0
 62
     0
 10
3.30371
 20
3.95514
 30
0.0
 11
3.50651
 21
4.75456
 31
0.0
  0
LINE
  8
0
 62
     0
 10
3.50651
 20
4.75456
 30
0.0
 11
3.73167
 21
5.604
 31
0.0
  0
LINE
  8
0
 62
     0
 10
3.73167
 20
5.604
 30
0.0
 11
3.97917
 21
6.50347
 31
0.0
  0
LINE
  8
0
 62
     0
 10
3.97917
 20
6.50347
 30
0.0
 11
4.24903
 21
7.45296
 31
0.0
  0
LINE
  8
0
 62
     0
 10
4.24903
 20
7.45296
 30
0.0
 11
4.54124
 21
8.45247
 31
0.0
  0
LINE
  8
0
 62
     0
 10
4.54124
 20
8.45247
 30
0.0
 11
4.85579
 21
9.50201
 31
0.0
  0
LINE
  8
0
 62
     0
 10
4.85579
 20
9.50201
 30
0.0
 11
5.19271
 21
10.6016
 31
0.0
  0
LINE
  8
0
 62
     0
 10
5.19271
 20
10.6016
 30
0.0
 11
5.55197
 21
11.7511
 31
0.0
  0
LINE
  8
0
 62
     0
 10
5.55197
 20
11.7511
 30
0.0
 11
5.9336
 21
12.9507
 31
0.0
  0
LINE
  8
0
 62
     0
 10
5.9336
 20
12.9507
 30
0.0
 11
6.33757
 21
14.2004
 31
0.0
  0
LINE
  8
0
 62
     0
 10
6.33757
 20
14.2004
 30
0.0
 11
6.76389
 21
15.5
 31
0.0
  0
LINE
  8
0
 62
     0
 10
6.76389
 20
15.5
 30
0.0
 11
7.08371
 21
14.6749
 31
0.0
  0
LINE
  8
0
 62
     0
 10
7.08371
 20
14.6749
 30
0.0
 11
7.39751
 21
13.8241
 31
0.0
  0
LINE
  8
0
 62
     0
 10
7.39751
 20
13.8241
 30
0.0
 11
7.70524
 21
12.9478
 31
0.0
  0
LINE
  8
0
 62
     0
 10
7.70524
 20
12.9478
 30
0.0
 11
8.00689
 21
12.0461
 31
0.0
  0
LINE
  8
0
 62
     0
 10
8.00689
 20
12.0461
 30
0.0
 11
8.30246
 21
11.1188
 31
0.0
  0
LINE
  8
0
 62
     0
 10
8.30246
 20
11.1188
 30
0.0
 11
8.59196
 21
10.1661
 31
0.0
  0
LINE
  8
0
 62
     0
 10
8.59196
 20
10.1661
 30
0.0
 11
8.87537
 21
9.18782
 31
0.0
  0
LINE
  8
0
 62
     0
 10
8.87537
 20
9.18782
 30
0.0
 11
9.15272
 21
8.18408
 31
0.0
  0
LINE
  8
0
 62
     0
 10
9.15272
 20
8.18408
 30
0.0
 11
9.42399
 21
7.15483
 31
0.0
  0
LINE
  8
0
 62
     0
 10
9.42399
 20
7.15483
 30
0.0
 11
9.68918
 21
6.1001
 31
0.0
  0
LINE
  8
0
 62
     0
 10
9.68918
 20
6.1001
 30
0.0
 11
9.94829
 21
5.01986
 31
0.0
  0
LINE
  8
0
 62
     0
 10
9.94829
 20
5.01986
 30
0.0
 11
10.2013
 21
3.91411
 31
0.0
  0
LINE
  8
0
 62
     0
 10
10.2013
 20
3.91411
 30
0.0
 11
10.4483
 21
2.78288
 31
0.0
  0
LINE
  8
0
 62
     0
 10
10.4483
 20
2.78288
 30
0.0
 11
10.6892
 21
1.62614
 31
0.0
  0
LINE
  8
0
 62
     0
 10
10.6892
 20
1.62614
 30
0.0
 11
10.924
 21
0.443901
 31
0.0
  0
LINE
  8
0
 62
     0
 10
10.924
 20
0.443901
 30
0.0
 11
11.1528
 21
-0.763889
 31
0.0
  0
LINE
  8
0
 62
     0
 10
11.1528
 20
-0.763889
 30
0.0
 11
11.1877
 21
-0.849826
 31
0.0
  0
LINE
  8
0
 62
     0
 10
11.1877
 20
-0.849826
 30
0.0
 11
11.2578
 21
-0.913194
 31
0.0
  0
LINE
  8
0
 62
     0
 10
11.2578
 20
-0.913194
 30
0.0
 11
11.363
 21
-0.953993
 31
0.0
  0
LINE
  8
0
 62
     0
 10
11.363
 20
-0.953993
 30
0.0
 11
11.5035
 21
-0.972222
 31
0.0
  0
LINE
  8
0
 62
     0
 10
11.5035
 20
-0.972222
 30
0.0
 11
11.679
 21
-0.967882
 31
0.0
  0
LINE
  8
0
 62
     0
 10
11.679
 20
-0.967882
 30
0.0
 11
11.8898
 21
-0.940972
 31
0.0
  0
LINE
  8
0
 62
     0
 10
11.8898
 20
-0.940972
 30
0.0
 11
12.1356
 21
-0.891493
 31
0.0
  0
LINE
  8
0
 62
     0
 10
12.1356
 20
-0.891493
 30
0.0
 11
12.4167
 21
-0.819444
 31
0.0
  0
LINE
  8
0
 62
     0
 10
12.4167
 20
-0.819444
 30
0.0
 11
12.6958
 21
-0.739367
 31
0.0
  0
LINE
  8
0
 62
     0
 10
12.6958
 20
-0.739367
 30
0.0
 11
12.9427
 21
-0.658854
 31
0.0
  0
LINE
  8
0
 62
     0
 10
12.9427
 20
-0.658854
 30
0.0
 11
13.1576
 21
-0.577908
 31
0.0
  0
LINE
  8
0
 62
     0
 10
13.1576
 20
-0.577908
 30
0.0
 11
13.3403
 21
-0.496528
 31
0.0
  0
LINE
  8
0
 62
     0
 10
13.3403
 20
-0.496528
 30
0.0
 11
13.4909
 21
-0.414714
 31
0.0
  0
LINE
  8
0
 62
     0
 10
13.4909
 20
-0.414714
 30
0.0
 11
13.6094
 21
-0.332465
 31
0.0
  0
LINE
  8
0
 62
     0
 10
13.6094
 20
-0.332465
 30
0.0
 11
13.6958
 21
-0.249783
 31
0.0
  0
LINE
  8
0
 62
     0
 10
13.6958
 20
-0.249783
 30
0.0
 11
13.75
 21
-0.166667
 31
0.0
  0
LINE
  8
0
 62
     0
 10
13.75
 20
-0.166667
 30
0.0
 11
14.1888
 21
0.815756
 31
0.0
  0
LINE
  8
0
 62
     0
 10
14.1888
 20
0.815756
 30
0.0
 11
14.5817
 21
1.82553
 31
0.0
  0
LINE
  8
0
 62
     0
 10
14.5817
 20
1.82553
 30
0.0
 11
14.9283
 21
2.86262
 31
0.0
  0
LINE
  8
0
 62
     0
 10
14.9283
 20
2.86262
 30
0.0
 11
15.2292
 21
3.92708
 31
0.0
  0
LINE
  8
0
 62
     0
 10
15.2292
 20
3.92708
 30
0.0
 11
15.4839
 21
5.01888
 31
0.0
  0
LINE
  8
0
 62
     0
 10
15.4839
 20
5.01888
 30
0.0
 11
15.6928
 21
6.13803
 31
0.0
  0
LINE
  8
0
 62
     0
 10
15.6928
 20
6.13803
 30
0.0
 11
15.8554
 21
7.2845
 31
0.0
  0
LINE
  8
0
 62
     0
 10
15.8554
 20
7.2845
 30
0.0
 11
15.9722
 21
8.45833
 31
0.0
  0
LINE
  8
0
 62
     0
 10
15.9722
 20
8.45833
 30
0.0
 11
16.0167
 21
8.94814
 31
0.0
  0
LINE
  8
0
 62
     0
 10
16.0167
 20
8.94814
 30
0.0
 11
16.0807
 21
9.48004
 31
0.0
  0
LINE
  8
0
 62
     0
 10
16.0807
 20
9.48004
 30
0.0
 11
16.1643
 21
10.054
 31
0.0
  0
LINE
  8
0
 62
     0
 10
16.1643
 20
10.054
 30
0.0
 11
16.2674
 21
10.6701
 31
0.0
  0
LINE
  8
0
 62
     0
 10
16.2674
 20
10.6701
 30
0.0
 11
16.3899
 21
11.3283
 31
0.0
  0
LINE
  8
0
 62
     0
 10
16.3899
 20
11.3283
 30
0.0
 11
16.5321
 21
12.0287
 31
0.0
  0
LINE
  8
0
 62
     0
 10
16.5321
 20
12.0287
 30
0.0
 11
16.6937
 21
12.7711
 31
0.0
  0
LINE
  8
0
 62
     0
 10
16.6937
 20
12.7711
 30
0.0
 11
16.875
 21
13.5556
 31
0.0
  0
LINE
  8
0
 62
     0
 10
16.875
 20
13.5556
 30
0.0
 11
17.0524
 21
12.9072
 31
0.0
  0
LINE
  8
0
 62
     0
 10
17.0524
 20
12.9072
 30
0.0
 11
17.2231
 21
12.2883
 31
0.0
  0
LINE
  8
0
 62
     0
 10
17.2231
 20
12.2883
 30
0.0
 11
17.3874
 21
11.6988
 31
0.0
  0
LINE
  8
0
 62
     0
 10
17.3874
 20
11.6988
 30
0.0
 11
17.5451
 21
11.1389
 31
0.0
  0
LINE
  8
0
 62
     0
 10
17.5451
 20
11.1389
 30
0.0
 11
17.6964
 21
10.6086
 31
0.0
  0
LINE
  8
0
 62
     0
 10
17.6964
 20
10.6086
 30
0.0
 11
17.8411
 21
10.1077
 31
0.0
  0
LINE
  8
0
 62
     0
 10
17.8411
 20
10.1077
 30
0.0
 11
17.9793
 21
9.63633
 31
0.0
  0
LINE
  8
0
 62
     0
 10
17.9793
 20
9.63633
 30
0.0
 11
18.1111
 21
9.19444
 31
0.0
  0
LINE
  8
0
 62
     0
 10
18.1111
 20
9.19444
 30
0.0
 11
18.2203
 21
8.83751
 31
0.0
  0
LINE
  8
0
 62
     0
 10
18.2203
 20
8.83751
 30
0.0
 11
18.3603
 21
8.40543
 31
0.0
  0
LINE
  8
0
 62
     0
 10
18.3603
 20
8.40543
 30
0.0
 11
18.531
 21
7.89828
 31
0.0
  0
LINE
  8
0
 62
     0
 10
18.531
 20
7.89828
 30
0.0
 11
18.7326
 21
7.31603
 31
0.0
  0
LINE
  8
0
 62
     0
 10
18.7326
 20
7.31603
 30
0.0
 11
18.965
 21
6.65869
 31
0.0
  0
LINE
  8
0
 62
     0
 10
18.965
 20
6.65869
 30
0.0
 11
19.2283
 21
5.92626
 31
0.0
  0
LINE
  8
0
 62
     0
 10
19.2283
 20
5.92626
 30
0.0
 11
19.5224
 21
5.11876
 31
0.0
  0
LINE
  8
0
 62
     0
 10
19.5224
 20
5.11876
 30
0.0
 11
19.8472
 21
4.23611
 31
0.0
  0
LINE
  8
0
 62
     0
 10
19.8472
 20
4.23611
 30
0.0
 11
20.1212
 21
3.48351
 31
0.0
  0
LINE
  8
0
 62
     0
 10
20.1212
 20
3.48351
 30
0.0
 11
20.3742
 21
2.76736
 31
0.0
  0
LINE
  8
0
 62
     0
 10
20.3742
 20
2.76736
 30
0.0
 11
20.6057
 21
2.08768
 31
0.0
  0
LINE
  8
0
 62
     0
 10
20.6057
 20
2.08768
 30
0.0
 11
20.816
 21
1.44444
 31
0.0
  0
LINE
  8
0
 62
     0
 10
20.816
 20
1.44444
 30
0.0
 11
21.005
 21
0.837674
 31
0.0
  0
LINE
  8
0
 62
     0
 10
21.005
 20
0.837674
 30
0.0
 11
21.1728
 21
0.267361
 31
0.0
  0
LINE
  8
0
 62
     0
 10
21.1728
 20
0.267361
 30
0.0
 11
21.3192
 21
-0.266493
 31
0.0
  0
LINE
  8
0
 62
     0
 10
21.3192
 20
-0.266493
 30
0.0
 11
21.4444
 21
-0.763889
 31
0.0
  0
LINE
  8
0
 62
     0
 10
21.4444
 20
-0.763889
 30
0.0
 11
21.4846
 21
-0.84961
 31
0.0
  0
LINE
  8
0
 62
     0
 10
21.4846
 20
-0.84961
 30
0.0
 11
21.5633
 21
-0.912326
 31
0.0
  0
LINE
  8
0
 62
     0
 10
21.5633
 20
-0.912326
 30
0.0
 11
21.6808
 21
-0.95204
 31
0.0
  0
LINE
  8
0
 62
     0
 10
21.6808
 20
-0.95204
 30
0.0
 11
21.8368
 21
-0.96875
 31
0.0
  0
LINE
  8
0
 62
     0
 10
21.8368
 20
-0.96875
 30
0.0
 11
22.0315
 21
-0.962457
 31
0.0
  0
LINE
  8
0
 62
     0
 10
22.0315
 20
-0.962457
 30
0.0
 11
22.2647
 21
-0.93316
 31
0.0
  0
LINE
  8
0
 62
     0
 10
22.2647
 20
-0.93316
 30
0.0
 11
22.5367
 21
-0.88086
 31
0.0
  0
LINE
  8
0
 62
     0
 10
22.5367
 20
-0.88086
 30
0.0
 11
22.8472
 21
-0.805556
 31
0.0
  0
LINE
  8
0
 62
     0
 10
22.8472
 20
-0.805556
 30
0.0
 11
23.155
 21
-0.721083
 31
0.0
  0
LINE
  8
0
 62
     0
 10
23.155
 20
-0.721083
 30
0.0
 11
23.4185
 21
-0.634494
 31
0.0
  0
LINE
  8
0
 62
     0
 10
23.4185
 20
-0.634494
 30
0.0
 11
23.6376
 21
-0.545736
 31
0.0
  0
LINE
  8
0
 62
     0
 10
23.6376
 20
-0.545736
 30
0.0
 11
23.8125
 21
-0.454807
 31
0.0
  0
LINE
  8
0
 62
     0
 10
23.8125
 20
-0.454807
 30
0.0
 11
23.9432
 21
-0.361708
 31
0.0
  0
LINE
  8
0
 62
     0
 10
23.9432
 20
-0.361708
 30
0.0
 11
24.0296
 21
-0.266439
 31
0.0
  0
LINE
  8
0
 62
     0
 10
24.0296
 20
-0.266439
 30
0.0
 11
24.0717
 21
-0.169
 31
0.0
  0
LINE
  8
0
 62
     0
 10
24.0717
 20
-0.169
 30
0.0
 11
24.0694
 21
-0.0694444
 31
0.0
  0
LINE
  8
0
 62
     0
 10
24.0694
 20
-0.0694444
 30
0.0
 11
24.0611
 21
-0.0481771
 31
0.0
  0
LINE
  8
0
 62
     0
 10
24.0611
 20
-0.0481771
 30
0.0
 11
24.0294
 21
0.04324
 31
0.0
  0
LINE
  8
0
 62
     0
 10
24.0294
 20
0.04324
 30
0.0
 11
23.9743
 21
0.204861
 31
0.0
  0
LINE
  8
0
 62
     0
 10
23.9743
 20
0.204861
 30
0.0
 11
23.8958
 21
0.436686
 31
0.0
  0
LINE
  8
0
 62
     0
 10
23.8958
 20
0.436686
 30
0.0
 11
23.7938
 21
0.738715
 31
0.0
  0
LINE
  8
0
 62
     0
 10
23.7938
 20
0.738715
 30
0.0
 11
23.6683
 21
1.11095
 31
0.0
  0
LINE
  8
0
 62
     0
 10
23.6683
 20
1.11095
 30
0.0
 11
23.5194
 21
1.55339
 31
0.0
  0
LINE
  8
0
 62
     0
 10
23.5194
 20
1.55339
 30
0.0
 11
23.3471
 21
2.06603
 31
0.0
  0
LINE
  8
0
 62
     0
 10
23.3471
 20
2.06603
 30
0.0
 11
23.1514
 21
2.64887
 31
0.0
  0
LINE
  8
0
 62
     0
 10
23.1514
 20
2.64887
 30
0.0
 11
22.9322
 21
3.30192
 31
0.0
  0
LINE
  8
0
 62
     0
 10
22.9322
 20
3.30192
 30
0.0
 11
22.6896
 21
4.02518
 31
0.0
  0
LINE
  8
0
 62
     0
 10
22.6896
 20
4.02518
 30
0.0
 11
22.4236
 21
4.81863
 31
0.0
  0
LINE
  8
0
 62
     0
 10
22.4236
 20
4.81863
 30
0.0
 11
22.134
 21
5.68229
 31
0.0
  0
LINE
  8
0
 62
     0
 10
22.134
 20
5.68229
 30
0.0
 11
21.8211
 21
6.61615
 31
0.0
  0
LINE
  8
0
 62
     0
 10
21.8211
 20
6.61615
 30
0.0
 11
21.4847
 21
7.62022
 31
0.0
  0
LINE
  8
0
 62
     0
 10
21.4847
 20
7.62022
 30
0.0
 11
21.125
 21
8.69444
 31
0.0
  0
LINE
  8
0
 62
     0
 10
21.125
 20
8.69444
 30
0.0
 11
21.1129
 21
8.7354
 31
0.0
  0
LINE
  8
0
 62
     0
 10
21.1129
 20
8.7354
 30
0.0
 11
21.0767
 21
8.86176
 31
0.0
  0
LINE
  8
0
 62
     0
 10
21.0767
 20
8.86176
 30
0.0
 11
21.0161
 21
9.07351
 31
0.0
  0
LINE
  8
0
 62
     0
 10
21.0161
 20
9.07351
 30
0.0
 11
20.9314
 21
9.37067
 31
0.0
  0
LINE
  8
0
 62
     0
 10
20.9314
 20
9.37067
 30
0.0
 11
20.8225
 21
9.75319
 31
0.0
  0
LINE
  8
0
 62
     0
 10
20.8225
 20
9.75319
 30
0.0
 11
20.6894
 21
10.2211
 31
0.0
  0
LINE
  8
0
 62
     0
 10
20.6894
 20
10.2211
 30
0.0
 11
20.5322
 21
10.7745
 31
0.0
  0
LINE
  8
0
 62
     0
 10
20.5322
 20
10.7745
 30
0.0
 11
20.3507
 21
11.4132
 31
0.0
  0
LINE
  8
0
 62
     0
 10
20.3507
 20
11.4132
 30
0.0
 11
20.145
 21
12.1373
 31
0.0
  0
LINE
  8
0
 62
     0
 10
20.145
 20
12.1373
 30
0.0
 11
19.9151
 21
12.9468
 31
0.0
  0
LINE
  8
0
 62
     0
 10
19.9151
 20
12.9468
 30
0.0
 11
19.6611
 21
13.8417
 31
0.0
  0
LINE
  8
0
 62
     0
 10
19.6611
 20
13.8417
 30
0.0
 11
19.3828
 21
14.8221
 31
0.0
  0
LINE
  8
0
 62
     0
 10
19.3828
 20
14.8221
 30
0.0
 11
19.0804
 21
15.8878
 31
0.0
  0
LINE
  8
0
 62
     0
 10
19.0804
 20
15.8878
 30
0.0
 11
18.7538
 21
17.0389
 31
0.0
  0
LINE
  8
0
 62
     0
 10
18.7538
 20
17.0389
 30
0.0
 11
18.4028
 21
18.2753
 31
0.0
  0
LINE
  8
0
 62
     0
 10
18.4028
 20
18.2753
 30
0.0
 11
18.0278
 21
19.5972
 31
0.0
  0
LINE
  8
0
 62
     0
 10
18.0278
 20
19.5972
 30
0.0
 11
17.9824
 21
19.6832
 31
0.0
  0
LINE
  8
0
 62
     0
 10
17.9824
 20
19.6832
 30
0.0
 11
17.9019
 21
19.7465
 31
0.0
  0
LINE
  8
0
 62
     0
 10
17.9019
 20
19.7465
 30
0.0
 11
17.7862
 21
19.7874
 31
0.0
  0
LINE
  8
0
 62
     0
 10
17.7862
 20
19.7874
 30
0.0
 11
17.6354
 21
19.8056
 31
0.0
  0
LINE
  8
0
 62
     0
 10
17.6354
 20
19.8056
 30
0.0
 11
17.4494
 21
19.8012
 31
0.0
  0
LINE
  8
0
 62
     0
 10
17.4494
 20
19.8012
 30
0.0
 11
17.2282
 21
19.7743
 31
0.0
  0
LINE
  8
0
 62
     0
 10
17.2282
 20
19.7743
 30
0.0
 11
16.9719
 21
19.7249
 31
0.0
  0
LINE
  8
0
 62
     0
 10
16.9719
 20
19.7249
 30
0.0
 11
16.6806
 21
19.6528
 31
0.0
  0
ENDSEC
  0
EOF
