  0
SECTION
  2
HEADER
  9
$ACADVER
  1
AC1009
  9
$EXTMIN
 10
0.0
 20
0.0
 30
0.0
  9
$EXTMAX
 10
1000.0
 20
1000.0
 30
0.0
  9
$FILLMODE
 70
 0
  9
$SPLFRAME
 70
 1
  0
ENDSEC
  0
SECTION
  2
TABLES
  0
TABLE
  2
LAYER
 70
1
  0
LAYER
  2
0
 70
     0
 62
     7
  6
CONTINUOUS
  0
ENDTAB
  0
ENDSEC
  0
SECTION
  2
ENTITIES
  0
LINE
  8
0
 62
     0
 10
8.15278
 20
11.1806
 30
0.0
 11
8.35151
 21
11.2353
 31
0.0
  0
LINE
  8
0
 62
     0
 10
8.35151
 20
11.2353
 30
0.0
 11
8.53119
 21
11.3021
 31
0.0
  0
LINE
  8
0
 62
     0
 10
8.53119
 20
11.3021
 30
0.0
 11
8.69179
 21
11.3811
 31
0.0
  0
LINE
  8
0
 62
     0
 10
8.69179
 20
11.3811
 30
0.0
 11
8.83333
 21
11.4722
 31
0.0
  0
LINE
  8
0
 62
     0
 10
8.83333
 20
11.4722
 30
0.0
 11
8.95915
 21
11.5842
 31
0.0
  0
LINE
  8
0
 62
     0
 10
8.95915
 20
11.5842
 30
0.0
 11
9.04508
 21
11.698
 31
0.0
  0
LINE
  8
0
 62
     0
 10
9.04508
 20
11.698
 30
0.0
 11
9.0911
 21
11.8134
 31
0.0
  0
LINE
  8
0
 62
     0
 10
9.0911
 20
11.8134
 30
0.0
 11
9.09722
 21
11.9306
 31
0.0
  0
LINE
  8
0
 62
     0
 10
9.09722
 20
11.9306
 30
0.0
 11
8.95833
 21
12.9722
 31
0.0
  0
LINE
  8
0
 62
     0
 10
8.95833
 20
12.9722
 30
0.0
 11
8.92796
 21
13.0781
 31
0.0
  0
LINE
  8
0
 62
     0
 10
8.92796
 20
13.0781
 30
0.0
 11
8.86458
 21
13.1597
 31
0.0
  0
LINE
  8
0
 62
     0
 10
8.86458
 20
13.1597
 30
0.0
 11
8.76824
 21
13.217
 31
0.0
  0
LINE
  8
0
 62
     0
 10
8.76824
 20
13.217
 30
0.0
 11
8.63889
 21
13.25
 31
0.0
  0
LINE
  8
0
 62
     0
 10
8.63889
 20
13.25
 30
0.0
 11
8.50608
 21
13.2613
 31
0.0
  0
LINE
  8
0
 62
     0
 10
8.50608
 20
13.2613
 30
0.0
 11
8.35764
 21
13.2535
 31
0.0
  0
LINE
  8
0
 62
     0
 10
8.35764
 20
13.2535
 30
0.0
 11
8.19358
 21
13.2266
 31
0.0
  0
LINE
  8
0
 62
     0
 10
8.19358
 20
13.2266
 30
0.0
 11
8.01389
 21
13.1806
 31
0.0
  0
LINE
  8
0
 62
     0
 10
8.01389
 20
13.1806
 30
0.0
 11
7.62067
 21
13.0425
 31
0.0
  0
LINE
  8
0
 62
     0
 10
7.62067
 20
13.0425
 30
0.0
 11
7.31597
 21
12.8924
 31
0.0
  0
LINE
  8
0
 62
     0
 10
7.31597
 20
12.8924
 30
0.0
 11
7.09983
 21
12.73
 31
0.0
  0
LINE
  8
0
 62
     0
 10
7.09983
 20
12.73
 30
0.0
 11
6.97222
 21
12.5556
 31
0.0
  0
LINE
  8
0
 62
     0
 10
6.97222
 20
12.5556
 30
0.0
 11
6.65625
 21
11.8776
 31
0.0
  0
LINE
  8
0
 62
     0
 10
6.65625
 20
11.8776
 30
0.0
 11
6.29167
 21
11.1493
 31
0.0
  0
LINE
  8
0
 62
     0
 10
6.29167
 20
11.1493
 30
0.0
 11
5.87847
 21
10.3707
 31
0.0
  0
LINE
  8
0
 62
     0
 10
5.87847
 20
10.3707
 30
0.0
 11
5.41667
 21
9.54167
 31
0.0
  0
LINE
  8
0
 62
     0
 10
5.41667
 20
9.54167
 30
0.0
 11
4.77083
 21
10.3013
 31
0.0
  0
LINE
  8
0
 62
     0
 10
4.77083
 20
10.3013
 30
0.0
 11
4.16667
 21
11.0383
 31
0.0
  0
LINE
  8
0
 62
     0
 10
4.16667
 20
11.0383
 30
0.0
 11
3.60417
 21
11.7527
 31
0.0
  0
LINE
  8
0
 62
     0
 10
3.60417
 20
11.7527
 30
0.0
 11
3.08333
 21
12.4444
 31
0.0
  0
LINE
  8
0
 62
     0
 10
3.08333
 20
12.4444
 30
0.0
 11
2.99908
 21
12.5295
 31
0.0
  0
LINE
  8
0
 62
     0
 10
2.99908
 20
12.5295
 30
0.0
 11
2.88536
 21
12.5903
 31
0.0
  0
LINE
  8
0
 62
     0
 10
2.88536
 20
12.5903
 30
0.0
 11
2.74214
 21
12.6267
 31
0.0
  0
LINE
  8
0
 62
     0
 10
2.74214
 20
12.6267
 30
0.0
 11
2.56944
 21
12.6389
 31
0.0
  0
LINE
  8
0
 62
     0
 10
2.56944
 20
12.6389
 30
0.0
 11
2.21181
 21
12.6108
 31
0.0
  0
LINE
  8
0
 62
     0
 10
2.21181
 20
12.6108
 30
0.0
 11
1.83333
 21
12.5
 31
0.0
  0
LINE
  8
0
 62
     0
 10
1.83333
 20
12.5
 30
0.0
 11
1.65186
 21
12.4202
 31
0.0
  0
LINE
  8
0
 62
     0
 10
1.65186
 20
12.4202
 30
0.0
 11
1.49653
 21
12.3334
 31
0.0
  0
LINE
  8
0
 62
     0
 10
1.49653
 20
12.3334
 30
0.0
 11
1.36719
 21
12.2396
 31
0.0
  0
LINE
  8
0
 62
     0
 10
1.36719
 20
12.2396
 30
0.0
 11
1.26389
 21
12.1389
 31
0.0
  0
LINE
  8
0
 62
     0
 10
1.26389
 20
12.1389
 30
0.0
 11
1.18924
 21
12.0157
 31
0.0
  0
LINE
  8
0
 62
     0
 10
1.18924
 20
12.0157
 30
0.0
 11
1.15972
 21
11.8959
 31
0.0
  0
LINE
  8
0
 62
     0
 10
1.15972
 20
11.8959
 30
0.0
 11
1.17535
 21
11.7796
 31
0.0
  0
LINE
  8
0
 62
     0
 10
1.17535
 20
11.7796
 30
0.0
 11
1.23611
 21
11.6667
 31
0.0
  0
LINE
  8
0
 62
     0
 10
1.23611
 20
11.6667
 30
0.0
 11
1.56506
 21
11.2238
 31
0.0
  0
LINE
  8
0
 62
     0
 10
1.56506
 20
11.2238
 30
0.0
 11
1.91314
 21
10.77
 31
0.0
  0
LINE
  8
0
 62
     0
 10
1.91314
 20
10.77
 30
0.0
 11
2.28033
 21
10.3054
 31
0.0
  0
LINE
  8
0
 62
     0
 10
2.28033
 20
10.3054
 30
0.0
 11
2.66661
 21
9.82992
 31
0.0
  0
LINE
  8
0
 62
     0
 10
2.66661
 20
9.82992
 30
0.0
 11
3.072
 21
9.34358
 31
0.0
  0
LINE
  8
0
 62
     0
 10
3.072
 20
9.34358
 30
0.0
 11
3.49647
 21
8.8464
 31
0.0
  0
LINE
  8
0
 62
     0
 10
3.49647
 20
8.8464
 30
0.0
 11
3.94006
 21
8.33837
 31
0.0
  0
LINE
  8
0
 62
     0
 10
3.94006
 20
8.33837
 30
0.0
 11
4.40278
 21
7.81944
 31
0.0
  0
LINE
  8
0
 62
     0
 10
4.40278
 20
7.81944
 30
0.0
 11
3.94618
 21
7.05578
 31
0.0
  0
LINE
  8
0
 62
     0
 10
3.94618
 20
7.05578
 30
0.0
 11
3.52778
 21
6.3481
 31
0.0
  0
LINE
  8
0
 62
     0
 10
3.52778
 20
6.3481
 30
0.0
 11
3.14757
 21
5.6964
 31
0.0
  0
LINE
  8
0
 62
     0
 10
3.14757
 20
5.6964
 30
0.0
 11
2.80556
 21
5.10069
 31
0.0
  0
LINE
  8
0
 62
     0
 10
2.80556
 20
5.10069
 30
0.0
 11
2.50174
 21
4.56099
 31
0.0
  0
LINE
  8
0
 62
     0
 10
2.50174
 20
4.56099
 30
0.0
 11
2.23611
 21
4.07726
 31
0.0
  0
LINE
  8
0
 62
     0
 10
2.23611
 20
4.07726
 30
0.0
 11
2.00868
 21
3.64953
 31
0.0
  0
LINE
  8
0
 62
     0
 10
2.00868
 20
3.64953
 30
0.0
 11
1.81944
 21
3.27778
 31
0.0
  0
LINE
  8
0
 62
     0
 10
1.81944
 20
3.27778
 30
0.0
 11
1.79249
 21
3.18842
 31
0.0
  0
LINE
  8
0
 62
     0
 10
1.79249
 20
3.18842
 30
0.0
 11
1.80897
 21
3.11458
 31
0.0
  0
LINE
  8
0
 62
     0
 10
1.80897
 20
3.11458
 30
0.0
 11
1.86888
 21
3.05643
 31
0.0
  0
LINE
  8
0
 62
     0
 10
1.86888
 20
3.05643
 30
0.0
 11
1.97222
 21
3.01389
 31
0.0
  0
LINE
  8
0
 62
     0
 10
1.97222
 20
3.01389
 30
0.0
 11
2.09978
 21
2.98617
 31
0.0
  0
LINE
  8
0
 62
     0
 10
2.09978
 20
2.98617
 30
0.0
 11
2.24647
 21
2.97228
 31
0.0
  0
LINE
  8
0
 62
     0
 10
2.24647
 20
2.97228
 30
0.0
 11
2.41228
 21
2.97228
 31
0.0
  0
LINE
  8
0
 62
     0
 10
2.41228
 20
2.97228
 30
0.0
 11
2.59722
 21
2.98611
 31
0.0
  0
LINE
  8
0
 62
     0
 10
2.59722
 20
2.98611
 30
0.0
 11
2.83176
 21
3.0224
 31
0.0
  0
LINE
  8
0
 62
     0
 10
2.83176
 20
3.0224
 30
0.0
 11
3.04249
 21
3.06862
 31
0.0
  0
LINE
  8
0
 62
     0
 10
3.04249
 20
3.06862
 30
0.0
 11
3.22933
 21
3.12483
 31
0.0
  0
LINE
  8
0
 62
     0
 10
3.22933
 20
3.12483
 30
0.0
 11
3.39231
 21
3.19103
 31
0.0
  0
LINE
  8
0
 62
     0
 10
3.39231
 20
3.19103
 30
0.0
 11
3.53142
 21
3.26719
 31
0.0
  0
LINE
  8
0
 62
     0
 10
3.53142
 20
3.26719
 30
0.0
 11
3.64665
 21
3.35335
 31
0.0
  0
LINE
  8
0
 62
     0
 10
3.64665
 20
3.35335
 30
0.0
 11
3.73801
 21
3.44949
 31
0.0
  0
LINE
  8
0
 62
     0
 10
3.73801
 20
3.44949
 30
0.0
 11
3.80556
 21
3.55556
 31
0.0
  0
LINE
  8
0
 62
     0
 10
3.80556
 20
3.55556
 30
0.0
 11
3.96588
 21
3.87392
 31
0.0
  0
LINE
  8
0
 62
     0
 10
3.96588
 20
3.87392
 30
0.0
 11
4.14144
 21
4.21094
 31
0.0
  0
LINE
  8
0
 62
     0
 10
4.14144
 20
4.21094
 30
0.0
 11
4.33219
 21
4.56662
 31
0.0
  0
LINE
  8
0
 62
     0
 10
4.33219
 20
4.56662
 30
0.0
 11
4.53814
 21
4.94097
 31
0.0
  0
LINE
  8
0
 62
     0
 10
4.53814
 20
4.94097
 30
0.0
 11
4.75928
 21
5.33399
 31
0.0
  0
LINE
  8
0
 62
     0
 10
4.75928
 20
5.33399
 30
0.0
 11
4.99561
 21
5.74567
 31
0.0
  0
LINE
  8
0
 62
     0
 10
4.99561
 20
5.74567
 30
0.0
 11
5.24713
 21
6.176
 31
0.0
  0
LINE
  8
0
 62
     0
 10
5.24713
 20
6.176
 30
0.0
 11
5.51389
 21
6.625
 31
0.0
  0
LINE
  8
0
 62
     0
 10
5.51389
 20
6.625
 30
0.0
 11
5.50651
 21
6.63183
 31
0.0
  0
LINE
  8
0
 62
     0
 10
5.50651
 20
6.63183
 30
0.0
 11
5.52257
 21
6.61415
 31
0.0
  0
LINE
  8
0
 62
     0
 10
5.52257
 20
6.61415
 30
0.0
 11
5.56207
 21
6.57194
 31
0.0
  0
LINE
  8
0
 62
     0
 10
5.56207
 20
6.57194
 30
0.0
 11
5.625
 21
6.50521
 31
0.0
  0
LINE
  8
0
 62
     0
 10
5.625
 20
6.50521
 30
0.0
 11
5.71137
 21
6.41396
 31
0.0
  0
LINE
  8
0
 62
     0
 10
5.71137
 20
6.41396
 30
0.0
 11
5.82118
 21
6.29818
 31
0.0
  0
LINE
  8
0
 62
     0
 10
5.82118
 20
6.29818
 30
0.0
 11
5.95443
 21
6.15788
 31
0.0
  0
LINE
  8
0
 62
     0
 10
5.95443
 20
6.15788
 30
0.0
 11
6.11111
 21
5.99306
 31
0.0
  0
LINE
  8
0
 62
     0
 10
6.11111
 20
5.99306
 30
0.0
 11
6.29118
 21
5.80371
 31
0.0
  0
LINE
  8
0
 62
     0
 10
6.29118
 20
5.80371
 30
0.0
 11
6.49474
 21
5.58985
 31
0.0
  0
LINE
  8
0
 62
     0
 10
6.49474
 20
5.58985
 30
0.0
 11
6.72174
 21
5.35146
 31
0.0
  0
LINE
  8
0
 62
     0
 10
6.72174
 20
5.35146
 30
0.0
 11
6.97217
 21
5.08854
 31
0.0
  0
LINE
  8
0
 62
     0
 10
6.97217
 20
5.08854
 30
0.0
 11
7.24604
 21
4.80111
 31
0.0
  0
LINE
  8
0
 62
     0
 10
7.24604
 20
4.80111
 30
0.0
 11
7.54335
 21
4.48915
 31
0.0
  0
LINE
  8
0
 62
     0
 10
7.54335
 20
4.48915
 30
0.0
 11
7.8641
 21
4.15267
 31
0.0
  0
LINE
  8
0
 62
     0
 10
7.8641
 20
4.15267
 30
0.0
 11
8.20833
 21
3.79167
 31
0.0
  0
LINE
  8
0
 62
     0
 10
8.20833
 20
3.79167
 30
0.0
 11
8.3055
 21
3.71354
 31
0.0
  0
LINE
  8
0
 62
     0
 10
8.3055
 20
3.71354
 30
0.0
 11
8.4305
 21
3.65972
 31
0.0
  0
LINE
  8
0
 62
     0
 10
8.4305
 20
3.65972
 30
0.0
 11
8.58328
 21
3.63021
 31
0.0
  0
LINE
  8
0
 62
     0
 10
8.58328
 20
3.63021
 30
0.0
 11
8.76389
 21
3.625
 31
0.0
  0
LINE
  8
0
 62
     0
 10
8.76389
 20
3.625
 30
0.0
 11
9.12842
 21
3.67367
 31
0.0
  0
LINE
  8
0
 62
     0
 10
9.12842
 20
3.67367
 30
0.0
 11
9.5
 21
3.79167
 31
0.0
  0
LINE
  8
0
 62
     0
 10
9.5
 20
3.79167
 30
0.0
 11
9.68056
 21
3.87153
 31
0.0
  0
LINE
  8
0
 62
     0
 10
9.68056
 20
3.87153
 30
0.0
 11
9.83333
 21
3.95833
 31
0.0
  0
LINE
  8
0
 62
     0
 10
9.83333
 20
3.95833
 30
0.0
 11
9.95833
 21
4.05208
 31
0.0
  0
LINE
  8
0
 62
     0
 10
9.95833
 20
4.05208
 30
0.0
 11
10.0556
 21
4.15278
 31
0.0
  0
LINE
  8
0
 62
     0
 10
10.0556
 20
4.15278
 30
0.0
 11
10.1233
 21
4.26221
 31
0.0
  0
LINE
  8
0
 62
     0
 10
10.1233
 20
4.26221
 30
0.0
 11
10.1458
 21
4.36811
 31
0.0
  0
LINE
  8
0
 62
     0
 10
10.1458
 20
4.36811
 30
0.0
 11
10.1233
 21
4.47054
 31
0.0
  0
LINE
  8
0
 62
     0
 10
10.1233
 20
4.47054
 30
0.0
 11
10.0556
 21
4.56944
 31
0.0
  0
LINE
  8
0
 62
     0
 10
10.0556
 20
4.56944
 30
0.0
 11
9.67719
 21
4.96815
 31
0.0
  0
LINE
  8
0
 62
     0
 10
9.67719
 20
4.96815
 30
0.0
 11
9.31988
 21
5.34483
 31
0.0
  0
LINE
  8
0
 62
     0
 10
9.31988
 20
5.34483
 30
0.0
 11
8.98361
 21
5.69949
 31
0.0
  0
LINE
  8
0
 62
     0
 10
8.98361
 20
5.69949
 30
0.0
 11
8.6684
 21
6.03212
 31
0.0
  0
LINE
  8
0
 62
     0
 10
8.6684
 20
6.03212
 30
0.0
 11
8.37424
 21
6.34272
 31
0.0
  0
LINE
  8
0
 62
     0
 10
8.37424
 20
6.34272
 30
0.0
 11
8.10113
 21
6.63129
 31
0.0
  0
LINE
  8
0
 62
     0
 10
8.10113
 20
6.63129
 30
0.0
 11
7.84907
 21
6.89785
 31
0.0
  0
LINE
  8
0
 62
     0
 10
7.84907
 20
6.89785
 30
0.0
 11
7.61806
 21
7.14236
 31
0.0
  0
LINE
  8
0
 62
     0
 10
7.61806
 20
7.14236
 30
0.0
 11
7.4081
 21
7.36486
 31
0.0
  0
LINE
  8
0
 62
     0
 10
7.4081
 20
7.36486
 30
0.0
 11
7.21918
 21
7.56532
 31
0.0
  0
LINE
  8
0
 62
     0
 10
7.21918
 20
7.56532
 30
0.0
 11
7.05132
 21
7.74376
 31
0.0
  0
LINE
  8
0
 62
     0
 10
7.05132
 20
7.74376
 30
0.0
 11
6.90451
 21
7.90018
 31
0.0
  0
LINE
  8
0
 62
     0
 10
6.90451
 20
7.90018
 30
0.0
 11
6.77875
 21
8.03456
 31
0.0
  0
LINE
  8
0
 62
     0
 10
6.77875
 20
8.03456
 30
0.0
 11
6.67404
 21
8.14692
 31
0.0
  0
LINE
  8
0
 62
     0
 10
6.67404
 20
8.14692
 30
0.0
 11
6.59039
 21
8.23725
 31
0.0
  0
LINE
  8
0
 62
     0
 10
6.59039
 20
8.23725
 30
0.0
 11
6.52778
 21
8.30556
 31
0.0
  0
LINE
  8
0
 62
     0
 10
6.52778
 20
8.30556
 30
0.0
 11
6.99908
 21
9.11025
 31
0.0
  0
LINE
  8
0
 62
     0
 10
6.99908
 20
9.11025
 30
0.0
 11
7.42703
 21
9.85764
 31
0.0
  0
LINE
  8
0
 62
     0
 10
7.42703
 20
9.85764
 30
0.0
 11
7.81158
 21
10.5477
 31
0.0
  0
LINE
  8
0
 62
     0
 10
7.81158
 20
10.5477
 30
0.0
 11
8.15278
 21
11.1806
 31
0.0
  0
ENDSEC
  0
EOF
