  0
SECTION
  2
HEADER
  9
$ACADVER
  1
AC1009
  9
$EXTMIN
 10
0.0
 20
0.0
 30
0.0
  9
$EXTMAX
 10
1000.0
 20
1000.0
 30
0.0
  9
$FILLMODE
 70
 0
  9
$SPLFRAME
 70
 1
  0
ENDSEC
  0
SECTION
  2
TABLES
  0
TABLE
  2
LAYER
 70
1
  0
LAYER
  2
0
 70
     0
 62
     7
  6
CONTINUOUS
  0
ENDTAB
  0
ENDSEC
  0
SECTION
  2
ENTITIES
  0
LINE
  8
0
 62
     0
 10
8.09722
 20
12.3194
 30
0.0
 11
8.08029
 21
11.5254
 31
0.0
  0
LINE
  8
0
 62
     0
 10
8.08029
 20
11.5254
 30
0.0
 11
8.0644
 21
10.7787
 31
0.0
  0
LINE
  8
0
 62
     0
 10
8.0644
 20
10.7787
 30
0.0
 11
8.04949
 21
10.0792
 31
0.0
  0
LINE
  8
0
 62
     0
 10
8.04949
 20
10.0792
 30
0.0
 11
8.03554
 21
9.42708
 31
0.0
  0
LINE
  8
0
 62
     0
 10
8.03554
 20
9.42708
 30
0.0
 11
8.02257
 21
8.82226
 31
0.0
  0
LINE
  8
0
 62
     0
 10
8.02257
 20
8.82226
 30
0.0
 11
8.01058
 21
8.26476
 31
0.0
  0
LINE
  8
0
 62
     0
 10
8.01058
 20
8.26476
 30
0.0
 11
7.99957
 21
7.75456
 31
0.0
  0
LINE
  8
0
 62
     0
 10
7.99957
 20
7.75456
 30
0.0
 11
7.98958
 21
7.29167
 31
0.0
  0
LINE
  8
0
 62
     0
 10
7.98958
 20
7.29167
 30
0.0
 11
7.98053
 21
6.87608
 31
0.0
  0
LINE
  8
0
 62
     0
 10
7.98053
 20
6.87608
 30
0.0
 11
7.97244
 21
6.50782
 31
0.0
  0
LINE
  8
0
 62
     0
 10
7.97244
 20
6.50782
 30
0.0
 11
7.96533
 21
6.18685
 31
0.0
  0
LINE
  8
0
 62
     0
 10
7.96533
 20
6.18685
 30
0.0
 11
7.95921
 21
5.91319
 31
0.0
  0
LINE
  8
0
 62
     0
 10
7.95921
 20
5.91319
 30
0.0
 11
7.95404
 21
5.68685
 31
0.0
  0
LINE
  8
0
 62
     0
 10
7.95404
 20
5.68685
 30
0.0
 11
7.94987
 21
5.50782
 31
0.0
  0
LINE
  8
0
 62
     0
 10
7.94987
 20
5.50782
 30
0.0
 11
7.94667
 21
5.37608
 31
0.0
  0
LINE
  8
0
 62
     0
 10
7.94667
 20
5.37608
 30
0.0
 11
7.94444
 21
5.29167
 31
0.0
  0
LINE
  8
0
 62
     0
 10
7.94444
 20
5.29167
 30
0.0
 11
7.72657
 21
5.81142
 31
0.0
  0
LINE
  8
0
 62
     0
 10
7.72657
 20
5.81142
 30
0.0
 11
7.52431
 21
6.28733
 31
0.0
  0
LINE
  8
0
 62
     0
 10
7.52431
 20
6.28733
 30
0.0
 11
7.33768
 21
6.7194
 31
0.0
  0
LINE
  8
0
 62
     0
 10
7.33768
 20
6.7194
 30
0.0
 11
7.16667
 21
7.10764
 31
0.0
  0
LINE
  8
0
 62
     0
 10
7.16667
 20
7.10764
 30
0.0
 11
7.01124
 21
7.45204
 31
0.0
  0
LINE
  8
0
 62
     0
 10
7.01124
 20
7.45204
 30
0.0
 11
6.87147
 21
7.75261
 31
0.0
  0
LINE
  8
0
 62
     0
 10
6.87147
 20
7.75261
 30
0.0
 11
6.74735
 21
8.00933
 31
0.0
  0
LINE
  8
0
 62
     0
 10
6.74735
 20
8.00933
 30
0.0
 11
6.63889
 21
8.22222
 31
0.0
  0
LINE
  8
0
 62
     0
 10
6.63889
 20
8.22222
 30
0.0
 11
6.56853
 21
8.35633
 31
0.0
  0
LINE
  8
0
 62
     0
 10
6.56853
 20
8.35633
 30
0.0
 11
6.46853
 21
8.5434
 31
0.0
  0
LINE
  8
0
 62
     0
 10
6.46853
 20
8.5434
 30
0.0
 11
6.33892
 21
8.78342
 31
0.0
  0
LINE
  8
0
 62
     0
 10
6.33892
 20
8.78342
 30
0.0
 11
6.17969
 21
9.07639
 31
0.0
  0
LINE
  8
0
 62
     0
 10
6.17969
 20
9.07639
 30
0.0
 11
5.99083
 21
9.42231
 31
0.0
  0
LINE
  8
0
 62
     0
 10
5.99083
 20
9.42231
 30
0.0
 11
5.77235
 21
9.82118
 31
0.0
  0
LINE
  8
0
 62
     0
 10
5.77235
 20
9.82118
 30
0.0
 11
5.52425
 21
10.273
 31
0.0
  0
LINE
  8
0
 62
     0
 10
5.52425
 20
10.273
 30
0.0
 11
5.24653
 21
10.7778
 31
0.0
  0
LINE
  8
0
 62
     0
 10
5.24653
 20
10.7778
 30
0.0
 11
4.93913
 21
11.3355
 31
0.0
  0
LINE
  8
0
 62
     0
 10
4.93913
 20
11.3355
 30
0.0
 11
4.60215
 21
11.9462
 31
0.0
  0
LINE
  8
0
 62
     0
 10
4.60215
 20
11.9462
 30
0.0
 11
4.23557
 21
12.6098
 31
0.0
  0
LINE
  8
0
 62
     0
 10
4.23557
 20
12.6098
 30
0.0
 11
3.83936
 21
13.3264
 31
0.0
  0
LINE
  8
0
 62
     0
 10
3.83936
 20
13.3264
 30
0.0
 11
3.41351
 21
14.096
 31
0.0
  0
LINE
  8
0
 62
     0
 10
3.41351
 20
14.096
 30
0.0
 11
2.95806
 21
14.9185
 31
0.0
  0
LINE
  8
0
 62
     0
 10
2.95806
 20
14.9185
 30
0.0
 11
2.47299
 21
15.7939
 31
0.0
  0
LINE
  8
0
 62
     0
 10
2.47299
 20
15.7939
 30
0.0
 11
1.95833
 21
16.7222
 31
0.0
  0
LINE
  8
0
 62
     0
 10
1.95833
 20
16.7222
 30
0.0
 11
1.93181
 21
17.0031
 31
0.0
  0
LINE
  8
0
 62
     0
 10
1.93181
 20
17.0031
 30
0.0
 11
1.90793
 21
17.2553
 31
0.0
  0
LINE
  8
0
 62
     0
 10
1.90793
 20
17.2553
 30
0.0
 11
1.88667
 21
17.4787
 31
0.0
  0
LINE
  8
0
 62
     0
 10
1.88667
 20
17.4787
 30
0.0
 11
1.868
 21
17.6736
 31
0.0
  0
LINE
  8
0
 62
     0
 10
1.868
 20
17.6736
 30
0.0
 11
1.85194
 21
17.8399
 31
0.0
  0
LINE
  8
0
 62
     0
 10
1.85194
 20
17.8399
 30
0.0
 11
1.83849
 21
17.9775
 31
0.0
  0
LINE
  8
0
 62
     0
 10
1.83849
 20
17.9775
 30
0.0
 11
1.82764
 21
18.0864
 31
0.0
  0
LINE
  8
0
 62
     0
 10
1.82764
 20
18.0864
 30
0.0
 11
1.81944
 21
18.1667
 31
0.0
  0
LINE
  8
0
 62
     0
 10
1.81944
 20
18.1667
 30
0.0
 11
1.78039
 21
18.2465
 31
0.0
  0
LINE
  8
0
 62
     0
 10
1.78039
 20
18.2465
 30
0.0
 11
1.69097
 21
18.3056
 31
0.0
  0
LINE
  8
0
 62
     0
 10
1.69097
 20
18.3056
 30
0.0
 11
1.55122
 21
18.3438
 31
0.0
  0
LINE
  8
0
 62
     0
 10
1.55122
 20
18.3438
 30
0.0
 11
1.36111
 21
18.3611
 31
0.0
  0
LINE
  8
0
 62
     0
 10
1.36111
 20
18.3611
 30
0.0
 11
1.15706
 21
18.3594
 31
0.0
  0
LINE
  8
0
 62
     0
 10
1.15706
 20
18.3594
 30
0.0
 11
0.933974
 21
18.3403
 31
0.0
  0
LINE
  8
0
 62
     0
 10
0.933974
 20
18.3403
 30
0.0
 11
0.691786
 21
18.3039
 31
0.0
  0
LINE
  8
0
 62
     0
 10
0.691786
 20
18.3039
 30
0.0
 11
0.430556
 21
18.25
 31
0.0
  0
LINE
  8
0
 62
     0
 10
0.430556
 20
18.25
 30
0.0
 11
0.118869
 21
18.1706
 31
0.0
  0
LINE
  8
0
 62
     0
 10
0.118869
 20
18.1706
 30
0.0
 11
-0.14936
 21
18.0851
 31
0.0
  0
LINE
  8
0
 62
     0
 10
-0.14936
 20
18.0851
 30
0.0
 11
-0.374186
 21
17.9935
 31
0.0
  0
LINE
  8
0
 62
     0
 10
-0.374186
 20
17.9935
 30
0.0
 11
-0.55561
 21
17.8958
 31
0.0
  0
LINE
  8
0
 62
     0
 10
-0.55561
 20
17.8958
 30
0.0
 11
-0.693631
 21
17.7921
 31
0.0
  0
LINE
  8
0
 62
     0
 10
-0.693631
 20
17.7921
 30
0.0
 11
-0.788249
 21
17.6824
 31
0.0
  0
LINE
  8
0
 62
     0
 10
-0.788249
 20
17.6824
 30
0.0
 11
-0.839464
 21
17.5664
 31
0.0
  0
LINE
  8
0
 62
     0
 10
-0.839464
 20
17.5664
 30
0.0
 11
-0.847222
 21
17.4444
 31
0.0
  0
LINE
  8
0
 62
     0
 10
-0.847222
 20
17.4444
 30
0.0
 11
-0.829861
 21
17.2708
 31
0.0
  0
LINE
  8
0
 62
     0
 10
-0.829861
 20
17.2708
 30
0.0
 11
-0.805556
 21
17.0556
 31
0.0
  0
LINE
  8
0
 62
     0
 10
-0.805556
 20
17.0556
 30
0.0
 11
-0.793457
 21
16.9167
 31
0.0
  0
LINE
  8
0
 62
     0
 10
-0.793457
 20
16.9167
 30
0.0
 11
-0.784776
 21
16.8056
 31
0.0
  0
LINE
  8
0
 62
     0
 10
-0.784776
 20
16.8056
 30
0.0
 11
-0.779568
 21
16.7222
 31
0.0
  0
LINE
  8
0
 62
     0
 10
-0.779568
 20
16.7222
 30
0.0
 11
-0.777778
 21
16.6667
 31
0.0
  0
LINE
  8
0
 62
     0
 10
-0.777778
 20
16.6667
 30
0.0
 11
-0.865506
 21
16.5886
 31
0.0
  0
LINE
  8
0
 62
     0
 10
-0.865506
 20
16.5886
 30
0.0
 11
-0.920193
 21
16.5208
 31
0.0
  0
LINE
  8
0
 62
     0
 10
-0.920193
 20
16.5208
 30
0.0
 11
-0.941894
 21
16.4636
 31
0.0
  0
LINE
  8
0
 62
     0
 10
-0.941894
 20
16.4636
 30
0.0
 11
-0.930556
 21
16.4167
 31
0.0
  0
LINE
  8
0
 62
     0
 10
-0.930556
 20
16.4167
 30
0.0
 11
-0.913249
 21
16.3776
 31
0.0
  0
LINE
  8
0
 62
     0
 10
-0.913249
 20
16.3776
 30
0.0
 11
-0.888943
 21
16.3299
 31
0.0
  0
LINE
  8
0
 62
     0
 10
-0.888943
 20
16.3299
 30
0.0
 11
-0.857693
 21
16.2735
 31
0.0
  0
LINE
  8
0
 62
     0
 10
-0.857693
 20
16.2735
 30
0.0
 11
-0.819444
 21
16.2083
 31
0.0
  0
LINE
  8
0
 62
     0
 10
-0.819444
 20
16.2083
 30
0.0
 11
-0.756999
 21
16.0868
 31
0.0
  0
LINE
  8
0
 62
     0
 10
-0.756999
 20
16.0868
 30
0.0
 11
-0.708333
 21
16
 31
0.0
  0
LINE
  8
0
 62
     0
 10
-0.708333
 20
16
 30
0.0
 11
-0.536458
 21
14.2432
 31
0.0
  0
LINE
  8
0
 62
     0
 10
-0.536458
 20
14.2432
 30
0.0
 11
-0.371365
 21
12.5767
 31
0.0
  0
LINE
  8
0
 62
     0
 10
-0.371365
 20
12.5767
 30
0.0
 11
-0.213108
 21
11.0005
 31
0.0
  0
LINE
  8
0
 62
     0
 10
-0.213108
 20
11.0005
 30
0.0
 11
-0.0616863
 21
9.51481
 31
0.0
  0
LINE
  8
0
 62
     0
 10
-0.0616863
 20
9.51481
 30
0.0
 11
0.0828993
 21
8.11947
 31
0.0
  0
LINE
  8
0
 62
     0
 10
0.0828993
 20
8.11947
 30
0.0
 11
0.220649
 21
6.81451
 31
0.0
  0
LINE
  8
0
 62
     0
 10
0.220649
 20
6.81451
 30
0.0
 11
0.351563
 21
5.59993
 31
0.0
  0
LINE
  8
0
 62
     0
 10
0.351563
 20
5.59993
 30
0.0
 11
0.475694
 21
4.47575
 31
0.0
  0
LINE
  8
0
 62
     0
 10
0.475694
 20
4.47575
 30
0.0
 11
0.592936
 21
3.44194
 31
0.0
  0
LINE
  8
0
 62
     0
 10
0.592936
 20
3.44194
 30
0.0
 11
0.703342
 21
2.49854
 31
0.0
  0
LINE
  8
0
 62
     0
 10
0.703342
 20
2.49854
 30
0.0
 11
0.806912
 21
1.64551
 31
0.0
  0
LINE
  8
0
 62
     0
 10
0.806912
 20
1.64551
 30
0.0
 11
0.903646
 21
0.882867
 31
0.0
  0
LINE
  8
0
 62
     0
 10
0.903646
 20
0.882867
 30
0.0
 11
0.993544
 21
0.210612
 31
0.0
  0
LINE
  8
0
 62
     0
 10
0.993544
 20
0.210612
 30
0.0
 11
1.07661
 21
-0.371257
 31
0.0
  0
LINE
  8
0
 62
     0
 10
1.07661
 20
-0.371257
 30
0.0
 11
1.15283
 21
-0.862739
 31
0.0
  0
LINE
  8
0
 62
     0
 10
1.15283
 20
-0.862739
 30
0.0
 11
1.22222
 21
-1.26389
 31
0.0
  0
LINE
  8
0
 62
     0
 10
1.22222
 20
-1.26389
 30
0.0
 11
1.2621
 21
-1.34977
 31
0.0
  0
LINE
  8
0
 62
     0
 10
1.2621
 20
-1.34977
 30
0.0
 11
1.35417
 21
-1.41314
 31
0.0
  0
LINE
  8
0
 62
     0
 10
1.35417
 20
-1.41314
 30
0.0
 11
1.49826
 21
-1.45394
 31
0.0
  0
LINE
  8
0
 62
     0
 10
1.49826
 20
-1.45394
 30
0.0
 11
1.69444
 21
-1.47222
 31
0.0
  0
LINE
  8
0
 62
     0
 10
1.69444
 20
-1.47222
 30
0.0
 11
1.90446
 21
-1.46963
 31
0.0
  0
LINE
  8
0
 62
     0
 10
1.90446
 20
-1.46963
 30
0.0
 11
2.13189
 21
-1.44792
 31
0.0
  0
LINE
  8
0
 62
     0
 10
2.13189
 20
-1.44792
 30
0.0
 11
2.37668
 21
-1.40713
 31
0.0
  0
LINE
  8
0
 62
     0
 10
2.37668
 20
-1.40713
 30
0.0
 11
2.63889
 21
-1.34722
 31
0.0
  0
LINE
  8
0
 62
     0
 10
2.63889
 20
-1.34722
 30
0.0
 11
2.95008
 21
-1.26172
 31
0.0
  0
LINE
  8
0
 62
     0
 10
2.95008
 20
-1.26172
 30
0.0
 11
3.21701
 21
-1.17188
 31
0.0
  0
LINE
  8
0
 62
     0
 10
3.21701
 20
-1.17188
 30
0.0
 11
3.43967
 21
-1.07769
 31
0.0
  0
LINE
  8
0
 62
     0
 10
3.43967
 20
-1.07769
 30
0.0
 11
3.61806
 21
-0.979167
 31
0.0
  0
LINE
  8
0
 62
     0
 10
3.61806
 20
-0.979167
 30
0.0
 11
3.75217
 21
-0.876303
 31
0.0
  0
LINE
  8
0
 62
     0
 10
3.75217
 20
-0.876303
 30
0.0
 11
3.84201
 21
-0.769097
 31
0.0
  0
LINE
  8
0
 62
     0
 10
3.84201
 20
-0.769097
 30
0.0
 11
3.88758
 21
-0.657553
 31
0.0
  0
LINE
  8
0
 62
     0
 10
3.88758
 20
-0.657553
 30
0.0
 11
3.88889
 21
-0.541667
 31
0.0
  0
LINE
  8
0
 62
     0
 10
3.88889
 20
-0.541667
 30
0.0
 11
3.70378
 21
0.506076
 31
0.0
  0
LINE
  8
0
 62
     0
 10
3.70378
 20
0.506076
 30
0.0
 11
3.52344
 21
1.63542
 31
0.0
  0
LINE
  8
0
 62
     0
 10
3.52344
 20
1.63542
 30
0.0
 11
3.34787
 21
2.84636
 31
0.0
  0
LINE
  8
0
 62
     0
 10
3.34787
 20
2.84636
 30
0.0
 11
3.17708
 21
4.13889
 31
0.0
  0
LINE
  8
0
 62
     0
 10
3.17708
 20
4.13889
 30
0.0
 11
3.01107
 21
5.51303
 31
0.0
  0
LINE
  8
0
 62
     0
 10
3.01107
 20
5.51303
 30
0.0
 11
2.84983
 21
6.96875
 31
0.0
  0
LINE
  8
0
 62
     0
 10
2.84983
 20
6.96875
 30
0.0
 11
2.69336
 21
8.50608
 31
0.0
  0
LINE
  8
0
 62
     0
 10
2.69336
 20
8.50608
 30
0.0
 11
2.54167
 21
10.125
 31
0.0
  0
LINE
  8
0
 62
     0
 10
2.54167
 20
10.125
 30
0.0
 11
2.82547
 21
9.61003
 31
0.0
  0
LINE
  8
0
 62
     0
 10
2.82547
 20
9.61003
 30
0.0
 11
3.07981
 21
9.14844
 31
0.0
  0
LINE
  8
0
 62
     0
 10
3.07981
 20
9.14844
 30
0.0
 11
3.30464
 21
8.74024
 31
0.0
  0
LINE
  8
0
 62
     0
 10
3.30464
 20
8.74024
 30
0.0
 11
3.49994
 21
8.38542
 31
0.0
  0
LINE
  8
0
 62
     0
 10
3.49994
 20
8.38542
 30
0.0
 11
3.66575
 21
8.08399
 31
0.0
  0
LINE
  8
0
 62
     0
 10
3.66575
 20
8.08399
 30
0.0
 11
3.80203
 21
7.83594
 31
0.0
  0
LINE
  8
0
 62
     0
 10
3.80203
 20
7.83594
 30
0.0
 11
3.90881
 21
7.64128
 31
0.0
  0
LINE
  8
0
 62
     0
 10
3.90881
 20
7.64128
 30
0.0
 11
3.98611
 21
7.5
 31
0.0
  0
LINE
  8
0
 62
     0
 10
3.98611
 20
7.5
 30
0.0
 11
4.01856
 21
7.43668
 31
0.0
  0
LINE
  8
0
 62
     0
 10
4.01856
 20
7.43668
 30
0.0
 11
4.06033
 21
7.35075
 31
0.0
  0
LINE
  8
0
 62
     0
 10
4.06033
 20
7.35075
 30
0.0
 11
4.11143
 21
7.24224
 31
0.0
  0
LINE
  8
0
 62
     0
 10
4.11143
 20
7.24224
 30
0.0
 11
4.17188
 21
7.11117
 31
0.0
  0
LINE
  8
0
 62
     0
 10
4.17188
 20
7.11117
 30
0.0
 11
4.24164
 21
6.95751
 31
0.0
  0
LINE
  8
0
 62
     0
 10
4.24164
 20
6.95751
 30
0.0
 11
4.32075
 21
6.78131
 31
0.0
  0
LINE
  8
0
 62
     0
 10
4.32075
 20
6.78131
 30
0.0
 11
4.40918
 21
6.58251
 31
0.0
  0
LINE
  8
0
 62
     0
 10
4.40918
 20
6.58251
 30
0.0
 11
4.50694
 21
6.36117
 31
0.0
  0
LINE
  8
0
 62
     0
 10
4.50694
 20
6.36117
 30
0.0
 11
4.61404
 21
6.11724
 31
0.0
  0
LINE
  8
0
 62
     0
 10
4.61404
 20
6.11724
 30
0.0
 11
4.73047
 21
5.85075
 31
0.0
  0
LINE
  8
0
 62
     0
 10
4.73047
 20
5.85075
 30
0.0
 11
4.85622
 21
5.56168
 31
0.0
  0
LINE
  8
0
 62
     0
 10
4.85622
 20
5.56168
 30
0.0
 11
4.99132
 21
5.25006
 31
0.0
  0
LINE
  8
0
 62
     0
 10
4.99132
 20
5.25006
 30
0.0
 11
5.13574
 21
4.91585
 31
0.0
  0
LINE
  8
0
 62
     0
 10
5.13574
 20
4.91585
 30
0.0
 11
5.2895
 21
4.55908
 31
0.0
  0
LINE
  8
0
 62
     0
 10
5.2895
 20
4.55908
 30
0.0
 11
5.45258
 21
4.17974
 31
0.0
  0
LINE
  8
0
 62
     0
 10
5.45258
 20
4.17974
 30
0.0
 11
5.625
 21
3.77778
 31
0.0
  0
LINE
  8
0
 62
     0
 10
5.625
 20
3.77778
 30
0.0
 11
5.87761
 21
3.20985
 31
0.0
  0
LINE
  8
0
 62
     0
 10
5.87761
 20
3.20985
 30
0.0
 11
6.12847
 21
2.67969
 31
0.0
  0
LINE
  8
0
 62
     0
 10
6.12847
 20
2.67969
 30
0.0
 11
6.37761
 21
2.18728
 31
0.0
  0
LINE
  8
0
 62
     0
 10
6.37761
 20
2.18728
 30
0.0
 11
6.625
 21
1.73264
 31
0.0
  0
LINE
  8
0
 62
     0
 10
6.625
 20
1.73264
 30
0.0
 11
6.87067
 21
1.31581
 31
0.0
  0
LINE
  8
0
 62
     0
 10
6.87067
 20
1.31581
 30
0.0
 11
7.11458
 21
0.936686
 31
0.0
  0
LINE
  8
0
 62
     0
 10
7.11458
 20
0.936686
 30
0.0
 11
7.35678
 21
0.595324
 31
0.0
  0
LINE
  8
0
 62
     0
 10
7.35678
 20
0.595324
 30
0.0
 11
7.59722
 21
0.291667
 31
0.0
  0
LINE
  8
0
 62
     0
 10
7.59722
 20
0.291667
 30
0.0
 11
7.68685
 21
0.211643
 31
0.0
  0
LINE
  8
0
 62
     0
 10
7.68685
 20
0.211643
 30
0.0
 11
7.80296
 21
0.151964
 31
0.0
  0
LINE
  8
0
 62
     0
 10
7.80296
 20
0.151964
 30
0.0
 11
7.94553
 21
0.112684
 31
0.0
  0
LINE
  8
0
 62
     0
 10
7.94553
 20
0.112684
 30
0.0
 11
8.11458
 21
0.0938043
 31
0.0
  0
LINE
  8
0
 62
     0
 10
8.11458
 20
0.0938043
 30
0.0
 11
8.31011
 21
0.0953233
 31
0.0
  0
LINE
  8
0
 62
     0
 10
8.31011
 20
0.0953233
 30
0.0
 11
8.53212
 21
0.117242
 31
0.0
  0
LINE
  8
0
 62
     0
 10
8.53212
 20
0.117242
 30
0.0
 11
8.7806
 21
0.15956
 31
0.0
  0
LINE
  8
0
 62
     0
 10
8.7806
 20
0.15956
 30
0.0
 11
9.05556
 21
0.222222
 31
0.0
  0
LINE
  8
0
 62
     0
 10
9.05556
 20
0.222222
 30
0.0
 11
9.32656
 21
0.301486
 31
0.0
  0
LINE
  8
0
 62
     0
 10
9.32656
 20
0.301486
 30
0.0
 11
9.56332
 21
0.386339
 31
0.0
  0
LINE
  8
0
 62
     0
 10
9.56332
 20
0.386339
 30
0.0
 11
9.76579
 21
0.476833
 31
0.0
  0
LINE
  8
0
 62
     0
 10
9.76579
 20
0.476833
 30
0.0
 11
9.93397
 21
0.572971
 31
0.0
  0
LINE
  8
0
 62
     0
 10
9.93397
 20
0.572971
 30
0.0
 11
10.0679
 21
0.67475
 31
0.0
  0
LINE
  8
0
 62
     0
 10
10.0679
 20
0.67475
 30
0.0
 11
10.1675
 21
0.782172
 31
0.0
  0
LINE
  8
0
 62
     0
 10
10.1675
 20
0.782172
 30
0.0
 11
10.2328
 21
0.895236
 31
0.0
  0
LINE
  8
0
 62
     0
 10
10.2328
 20
0.895236
 30
0.0
 11
10.2639
 21
1.01389
 31
0.0
  0
LINE
  8
0
 62
     0
 10
10.2639
 20
1.01389
 30
0.0
 11
10.35
 21
1.87657
 31
0.0
  0
LINE
  8
0
 62
     0
 10
10.35
 20
1.87657
 30
0.0
 11
10.4279
 21
2.83251
 31
0.0
  0
LINE
  8
0
 62
     0
 10
10.4279
 20
2.83251
 30
0.0
 11
10.4976
 21
3.88178
 31
0.0
  0
LINE
  8
0
 62
     0
 10
10.4976
 20
3.88178
 30
0.0
 11
10.559
 21
5.02436
 31
0.0
  0
LINE
  8
0
 62
     0
 10
10.559
 20
5.02436
 30
0.0
 11
10.6121
 21
6.26025
 31
0.0
  0
LINE
  8
0
 62
     0
 10
10.6121
 20
6.26025
 30
0.0
 11
10.6571
 21
7.58946
 31
0.0
  0
LINE
  8
0
 62
     0
 10
10.6571
 20
7.58946
 30
0.0
 11
10.6937
 21
9.01199
 31
0.0
  0
LINE
  8
0
 62
     0
 10
10.6937
 20
9.01199
 30
0.0
 11
10.7222
 21
10.5278
 31
0.0
  0
LINE
  8
0
 62
     0
 10
10.7222
 20
10.5278
 30
0.0
 11
10.7368
 21
11.3251
 31
0.0
  0
LINE
  8
0
 62
     0
 10
10.7368
 20
11.3251
 30
0.0
 11
10.7528
 21
12.0955
 31
0.0
  0
LINE
  8
0
 62
     0
 10
10.7528
 20
12.0955
 30
0.0
 11
10.7702
 21
12.839
 31
0.0
  0
LINE
  8
0
 62
     0
 10
10.7702
 20
12.839
 30
0.0
 11
10.789
 21
13.5556
 31
0.0
  0
LINE
  8
0
 62
     0
 10
10.789
 20
13.5556
 30
0.0
 11
10.8092
 21
14.2453
 31
0.0
  0
LINE
  8
0
 62
     0
 10
10.8092
 20
14.2453
 30
0.0
 11
10.8309
 21
14.9081
 31
0.0
  0
LINE
  8
0
 62
     0
 10
10.8309
 20
14.9081
 30
0.0
 11
10.8539
 21
15.5439
 31
0.0
  0
LINE
  8
0
 62
     0
 10
10.8539
 20
15.5439
 30
0.0
 11
10.8784
 21
16.1528
 31
0.0
  0
LINE
  8
0
 62
     0
 10
10.8784
 20
16.1528
 30
0.0
 11
10.9043
 21
16.7349
 31
0.0
  0
LINE
  8
0
 62
     0
 10
10.9043
 20
16.7349
 30
0.0
 11
10.9316
 21
17.29
 31
0.0
  0
LINE
  8
0
 62
     0
 10
10.9316
 20
17.29
 30
0.0
 11
10.9603
 21
17.8182
 31
0.0
  0
LINE
  8
0
 62
     0
 10
10.9603
 20
17.8182
 30
0.0
 11
10.9904
 21
18.3194
 31
0.0
  0
LINE
  8
0
 62
     0
 10
10.9904
 20
18.3194
 30
0.0
 11
11.0219
 21
18.7939
 31
0.0
  0
LINE
  8
0
 62
     0
 10
11.0219
 20
18.7939
 30
0.0
 11
11.0548
 21
19.2414
 31
0.0
  0
LINE
  8
0
 62
     0
 10
11.0548
 20
19.2414
 30
0.0
 11
11.0892
 21
19.6619
 31
0.0
  0
LINE
  8
0
 62
     0
 10
11.0892
 20
19.6619
 30
0.0
 11
11.125
 21
20.0556
 31
0.0
  0
LINE
  8
0
 62
     0
 10
11.125
 20
20.0556
 30
0.0
 11
11.1058
 21
20.1042
 31
0.0
  0
LINE
  8
0
 62
     0
 10
11.1058
 20
20.1042
 30
0.0
 11
11.0346
 21
20.1389
 31
0.0
  0
LINE
  8
0
 62
     0
 10
11.0346
 20
20.1389
 30
0.0
 11
10.9114
 21
20.1597
 31
0.0
  0
LINE
  8
0
 62
     0
 10
10.9114
 20
20.1597
 30
0.0
 11
10.7361
 21
20.1667
 31
0.0
  0
LINE
  8
0
 62
     0
 10
10.7361
 20
20.1667
 30
0.0
 11
10.309
 21
20.1563
 31
0.0
  0
LINE
  8
0
 62
     0
 10
10.309
 20
20.1563
 30
0.0
 11
9.83333
 21
20.0972
 31
0.0
  0
LINE
  8
0
 62
     0
 10
9.83333
 20
20.0972
 30
0.0
 11
9.52322
 21
20.0308
 31
0.0
  0
LINE
  8
0
 62
     0
 10
9.52322
 20
20.0308
 30
0.0
 11
9.25261
 21
19.9567
 31
0.0
  0
LINE
  8
0
 62
     0
 10
9.25261
 20
19.9567
 30
0.0
 11
9.02149
 21
19.8746
 31
0.0
  0
LINE
  8
0
 62
     0
 10
9.02149
 20
19.8746
 30
0.0
 11
8.82986
 21
19.7847
 31
0.0
  0
LINE
  8
0
 62
     0
 10
8.82986
 20
19.7847
 30
0.0
 11
8.67774
 21
19.6871
 31
0.0
  0
LINE
  8
0
 62
     0
 10
8.67774
 20
19.6871
 30
0.0
 11
8.56511
 21
19.5817
 31
0.0
  0
LINE
  8
0
 62
     0
 10
8.56511
 20
19.5817
 30
0.0
 11
8.49197
 21
19.4683
 31
0.0
  0
LINE
  8
0
 62
     0
 10
8.49197
 20
19.4683
 30
0.0
 11
8.45833
 21
19.3472
 31
0.0
  0
LINE
  8
0
 62
     0
 10
8.45833
 20
19.3472
 30
0.0
 11
8.39492
 21
18.6268
 31
0.0
  0
LINE
  8
0
 62
     0
 10
8.39492
 20
18.6268
 30
0.0
 11
8.33675
 21
17.8611
 31
0.0
  0
LINE
  8
0
 62
     0
 10
8.33675
 20
17.8611
 30
0.0
 11
8.28381
 21
17.0504
 31
0.0
  0
LINE
  8
0
 62
     0
 10
8.28381
 20
17.0504
 30
0.0
 11
8.23611
 21
16.1944
 31
0.0
  0
LINE
  8
0
 62
     0
 10
8.23611
 20
16.1944
 30
0.0
 11
8.19358
 21
15.2935
 31
0.0
  0
LINE
  8
0
 62
     0
 10
8.19358
 20
15.2935
 30
0.0
 11
8.15625
 21
14.3472
 31
0.0
  0
LINE
  8
0
 62
     0
 10
8.15625
 20
14.3472
 30
0.0
 11
8.12414
 21
13.3559
 31
0.0
  0
LINE
  8
0
 62
     0
 10
8.12414
 20
13.3559
 30
0.0
 11
8.09722
 21
12.3194
 31
0.0
  0
ENDSEC
  0
EOF
