  0
SECTION
  2
HEADER
  9
$ACADVER
  1
AC1009
  9
$EXTMIN
 10
0.0
 20
0.0
 30
0.0
  9
$EXTMAX
 10
1000.0
 20
1000.0
 30
0.0
  9
$FILLMODE
 70
 0
  9
$SPLFRAME
 70
 1
  0
ENDSEC
  0
SECTION
  2
TABLES
  0
TABLE
  2
LAYER
 70
1
  0
LAYER
  2
0
 70
     0
 62
     7
  6
CONTINUOUS
  0
ENDTAB
  0
ENDSEC
  0
SECTION
  2
ENTITIES
  0
LINE
  8
0
 62
     0
 10
4.125
 20
18.7639
 30
0.0
 11
3.67182
 21
18.4644
 31
0.0
  0
LINE
  8
0
 62
     0
 10
3.67182
 20
18.4644
 30
0.0
 11
3.23606
 21
18.1424
 31
0.0
  0
LINE
  8
0
 62
     0
 10
3.23606
 20
18.1424
 30
0.0
 11
2.81765
 21
17.7978
 31
0.0
  0
LINE
  8
0
 62
     0
 10
2.81765
 20
17.7978
 30
0.0
 11
2.41661
 21
17.4306
 31
0.0
  0
LINE
  8
0
 62
     0
 10
2.41661
 20
17.4306
 30
0.0
 11
2.03293
 21
17.0408
 31
0.0
  0
LINE
  8
0
 62
     0
 10
2.03293
 20
17.0408
 30
0.0
 11
1.66661
 21
16.6285
 31
0.0
  0
LINE
  8
0
 62
     0
 10
1.66661
 20
16.6285
 30
0.0
 11
1.31765
 21
16.1936
 31
0.0
  0
LINE
  8
0
 62
     0
 10
1.31765
 20
16.1936
 30
0.0
 11
0.986111
 21
15.7361
 31
0.0
  0
LINE
  8
0
 62
     0
 10
0.986111
 20
15.7361
 30
0.0
 11
0.686632
 21
15.2588
 31
0.0
  0
LINE
  8
0
 62
     0
 10
0.686632
 20
15.2588
 30
0.0
 11
0.440972
 21
14.7847
 31
0.0
  0
LINE
  8
0
 62
     0
 10
0.440972
 20
14.7847
 30
0.0
 11
0.249132
 21
14.3143
 31
0.0
  0
LINE
  8
0
 62
     0
 10
0.249132
 20
14.3143
 30
0.0
 11
0.111111
 21
13.8472
 31
0.0
  0
LINE
  8
0
 62
     0
 10
0.111111
 20
13.8472
 30
0.0
 11
0.0507269
 21
13.561
 31
0.0
  0
LINE
  8
0
 62
     0
 10
0.0507269
 20
13.561
 30
0.0
 11
0.0155707
 21
13.2856
 31
0.0
  0
LINE
  8
0
 62
     0
 10
0.0155707
 20
13.2856
 30
0.0
 11
0.00558811
 21
13.0211
 31
0.0
  0
LINE
  8
0
 62
     0
 10
0.00558811
 20
13.0211
 30
0.0
 11
0.020779
 21
12.7674
 31
0.0
  0
LINE
  8
0
 62
     0
 10
0.020779
 20
12.7674
 30
0.0
 11
0.0611436
 21
12.5245
 31
0.0
  0
LINE
  8
0
 62
     0
 10
0.0611436
 20
12.5245
 30
0.0
 11
0.126682
 21
12.2925
 31
0.0
  0
LINE
  8
0
 62
     0
 10
0.126682
 20
12.2925
 30
0.0
 11
0.217393
 21
12.0714
 31
0.0
  0
LINE
  8
0
 62
     0
 10
0.217393
 20
12.0714
 30
0.0
 11
0.333333
 21
11.8611
 31
0.0
  0
LINE
  8
0
 62
     0
 10
0.333333
 20
11.8611
 30
0.0
 11
0.469347
 21
11.6751
 31
0.0
  0
LINE
  8
0
 62
     0
 10
0.469347
 20
11.6751
 30
0.0
 11
0.634494
 21
11.513
 31
0.0
  0
LINE
  8
0
 62
     0
 10
0.634494
 20
11.513
 30
0.0
 11
0.828722
 21
11.3748
 31
0.0
  0
LINE
  8
0
 62
     0
 10
0.828722
 20
11.3748
 30
0.0
 11
1.05203
 21
11.2604
 31
0.0
  0
LINE
  8
0
 62
     0
 10
1.05203
 20
11.2604
 30
0.0
 11
1.30442
 21
11.1699
 31
0.0
  0
LINE
  8
0
 62
     0
 10
1.30442
 20
11.1699
 30
0.0
 11
1.58589
 21
11.1033
 31
0.0
  0
LINE
  8
0
 62
     0
 10
1.58589
 20
11.1033
 30
0.0
 11
1.89643
 21
11.0605
 31
0.0
  0
LINE
  8
0
 62
     0
 10
1.89643
 20
11.0605
 30
0.0
 11
2.23611
 21
11.0417
 31
0.0
  0
LINE
  8
0
 62
     0
 10
2.23611
 20
11.0417
 30
0.0
 11
2.42204
 21
11.0423
 31
0.0
  0
LINE
  8
0
 62
     0
 10
2.42204
 20
11.0423
 30
0.0
 11
2.63276
 21
11.0512
 31
0.0
  0
LINE
  8
0
 62
     0
 10
2.63276
 20
11.0512
 30
0.0
 11
2.86822
 21
11.0684
 31
0.0
  0
LINE
  8
0
 62
     0
 10
2.86822
 20
11.0684
 30
0.0
 11
3.12847
 21
11.0938
 31
0.0
  0
LINE
  8
0
 62
     0
 10
3.12847
 20
11.0938
 30
0.0
 11
3.41342
 21
11.1274
 31
0.0
  0
LINE
  8
0
 62
     0
 10
3.41342
 20
11.1274
 30
0.0
 11
3.7231
 21
11.1693
 31
0.0
  0
LINE
  8
0
 62
     0
 10
3.7231
 20
11.1693
 30
0.0
 11
4.05751
 21
11.2194
 31
0.0
  0
LINE
  8
0
 62
     0
 10
4.05751
 20
11.2194
 30
0.0
 11
4.41667
 21
11.2778
 31
0.0
  0
LINE
  8
0
 62
     0
 10
4.41667
 20
11.2778
 30
0.0
 11
4.78907
 21
11.3664
 31
0.0
  0
LINE
  8
0
 62
     0
 10
4.78907
 20
11.3664
 30
0.0
 11
5.11458
 21
11.4931
 31
0.0
  0
LINE
  8
0
 62
     0
 10
5.11458
 20
11.4931
 30
0.0
 11
5.39324
 21
11.658
 31
0.0
  0
LINE
  8
0
 62
     0
 10
5.39324
 20
11.658
 30
0.0
 11
5.625
 21
11.8611
 31
0.0
  0
LINE
  8
0
 62
     0
 10
5.625
 20
11.8611
 30
0.0
 11
5.69358
 21
11.9454
 31
0.0
  0
LINE
  8
0
 62
     0
 10
5.69358
 20
11.9454
 30
0.0
 11
5.71875
 21
12.0174
 31
0.0
  0
LINE
  8
0
 62
     0
 10
5.71875
 20
12.0174
 30
0.0
 11
5.70053
 21
12.0773
 31
0.0
  0
LINE
  8
0
 62
     0
 10
5.70053
 20
12.0773
 30
0.0
 11
5.63889
 21
12.125
 31
0.0
  0
LINE
  8
0
 62
     0
 10
5.63889
 20
12.125
 30
0.0
 11
5.52339
 21
12.1554
 31
0.0
  0
LINE
  8
0
 62
     0
 10
5.52339
 20
12.1554
 30
0.0
 11
5.35758
 21
12.1633
 31
0.0
  0
LINE
  8
0
 62
     0
 10
5.35758
 20
12.1633
 30
0.0
 11
5.14144
 21
12.1485
 31
0.0
  0
LINE
  8
0
 62
     0
 10
5.14144
 20
12.1485
 30
0.0
 11
4.875
 21
12.1111
 31
0.0
  0
LINE
  8
0
 62
     0
 10
4.875
 20
12.1111
 30
0.0
 11
4.52713
 21
12.061
 31
0.0
  0
LINE
  8
0
 62
     0
 10
4.52713
 20
12.061
 30
0.0
 11
4.20574
 21
12.0356
 31
0.0
  0
LINE
  8
0
 62
     0
 10
4.20574
 20
12.0356
 30
0.0
 11
3.91081
 21
12.0349
 31
0.0
  0
LINE
  8
0
 62
     0
 10
3.91081
 20
12.0349
 30
0.0
 11
3.64236
 21
12.059
 31
0.0
  0
LINE
  8
0
 62
     0
 10
3.64236
 20
12.059
 30
0.0
 11
3.40039
 21
12.1079
 31
0.0
  0
LINE
  8
0
 62
     0
 10
3.40039
 20
12.1079
 30
0.0
 11
3.1849
 21
12.1814
 31
0.0
  0
LINE
  8
0
 62
     0
 10
3.1849
 20
12.1814
 30
0.0
 11
2.99588
 21
12.2797
 31
0.0
  0
LINE
  8
0
 62
     0
 10
2.99588
 20
12.2797
 30
0.0
 11
2.83333
 21
12.4028
 31
0.0
  0
LINE
  8
0
 62
     0
 10
2.83333
 20
12.4028
 30
0.0
 11
2.71853
 21
12.5257
 31
0.0
  0
LINE
  8
0
 62
     0
 10
2.71853
 20
12.5257
 30
0.0
 11
2.62414
 21
12.665
 31
0.0
  0
LINE
  8
0
 62
     0
 10
2.62414
 20
12.665
 30
0.0
 11
2.55012
 21
12.8208
 31
0.0
  0
LINE
  8
0
 62
     0
 10
2.55012
 20
12.8208
 30
0.0
 11
2.49653
 21
12.9931
 31
0.0
  0
LINE
  8
0
 62
     0
 10
2.49653
 20
12.9931
 30
0.0
 11
2.46332
 21
13.1819
 31
0.0
  0
LINE
  8
0
 62
     0
 10
2.46332
 20
13.1819
 30
0.0
 11
2.45053
 21
13.3872
 31
0.0
  0
LINE
  8
0
 62
     0
 10
2.45053
 20
13.3872
 30
0.0
 11
2.45811
 21
13.609
 31
0.0
  0
LINE
  8
0
 62
     0
 10
2.45811
 20
13.609
 30
0.0
 11
2.48611
 21
13.8472
 31
0.0
  0
LINE
  8
0
 62
     0
 10
2.48611
 20
13.8472
 30
0.0
 11
2.56749
 21
14.2869
 31
0.0
  0
LINE
  8
0
 62
     0
 10
2.56749
 20
14.2869
 30
0.0
 11
2.68664
 21
14.724
 31
0.0
  0
LINE
  8
0
 62
     0
 10
2.68664
 20
14.724
 30
0.0
 11
2.84353
 21
15.1585
 31
0.0
  0
LINE
  8
0
 62
     0
 10
2.84353
 20
15.1585
 30
0.0
 11
3.03819
 21
15.5903
 31
0.0
  0
LINE
  8
0
 62
     0
 10
3.03819
 20
15.5903
 30
0.0
 11
3.27061
 21
16.0196
 31
0.0
  0
LINE
  8
0
 62
     0
 10
3.27061
 20
16.0196
 30
0.0
 11
3.54081
 21
16.4463
 31
0.0
  0
LINE
  8
0
 62
     0
 10
3.54081
 20
16.4463
 30
0.0
 11
3.84874
 21
16.8703
 31
0.0
  0
LINE
  8
0
 62
     0
 10
3.84874
 20
16.8703
 30
0.0
 11
4.19444
 21
17.2917
 31
0.0
  0
LINE
  8
0
 62
     0
 10
4.19444
 20
17.2917
 30
0.0
 11
4.64931
 21
17.7631
 31
0.0
  0
LINE
  8
0
 62
     0
 10
4.64931
 20
17.7631
 30
0.0
 11
5.09722
 21
18.1354
 31
0.0
  0
LINE
  8
0
 62
     0
 10
5.09722
 20
18.1354
 30
0.0
 11
5.53819
 21
18.4089
 31
0.0
  0
LINE
  8
0
 62
     0
 10
5.53819
 20
18.4089
 30
0.0
 11
5.97222
 21
18.5833
 31
0.0
  0
LINE
  8
0
 62
     0
 10
5.97222
 20
18.5833
 30
0.0
 11
6.35069
 21
18.6519
 31
0.0
  0
LINE
  8
0
 62
     0
 10
6.35069
 20
18.6519
 30
0.0
 11
6.70833
 21
18.6354
 31
0.0
  0
LINE
  8
0
 62
     0
 10
6.70833
 20
18.6354
 30
0.0
 11
7.04514
 21
18.5339
 31
0.0
  0
LINE
  8
0
 62
     0
 10
7.04514
 20
18.5339
 30
0.0
 11
7.36111
 21
18.3472
 31
0.0
  0
LINE
  8
0
 62
     0
 10
7.36111
 20
18.3472
 30
0.0
 11
7.63456
 21
18.1076
 31
0.0
  0
LINE
  8
0
 62
     0
 10
7.63456
 20
18.1076
 30
0.0
 11
7.87153
 21
17.8056
 31
0.0
  0
LINE
  8
0
 62
     0
 10
7.87153
 20
17.8056
 30
0.0
 11
8.07206
 21
17.441
 31
0.0
  0
LINE
  8
0
 62
     0
 10
8.07206
 20
17.441
 30
0.0
 11
8.23611
 21
17.0139
 31
0.0
  0
LINE
  8
0
 62
     0
 10
8.23611
 20
17.0139
 30
0.0
 11
8.35151
 21
16.5496
 31
0.0
  0
LINE
  8
0
 62
     0
 10
8.35151
 20
16.5496
 30
0.0
 11
8.42014
 21
16.059
 31
0.0
  0
LINE
  8
0
 62
     0
 10
8.42014
 20
16.059
 30
0.0
 11
8.44185
 21
15.5425
 31
0.0
  0
LINE
  8
0
 62
     0
 10
8.44185
 20
15.5425
 30
0.0
 11
8.41667
 21
15
 31
0.0
  0
LINE
  8
0
 62
     0
 10
8.41667
 20
15
 30
0.0
 11
8.31814
 21
14.2046
 31
0.0
  0
LINE
  8
0
 62
     0
 10
8.31814
 20
14.2046
 30
0.0
 11
8.16146
 21
13.3672
 31
0.0
  0
LINE
  8
0
 62
     0
 10
8.16146
 20
13.3672
 30
0.0
 11
7.94661
 21
12.4876
 31
0.0
  0
LINE
  8
0
 62
     0
 10
7.94661
 20
12.4876
 30
0.0
 11
7.67361
 21
11.566
 31
0.0
  0
LINE
  8
0
 62
     0
 10
7.67361
 20
11.566
 30
0.0
 11
7.34244
 21
10.6022
 31
0.0
  0
LINE
  8
0
 62
     0
 10
7.34244
 20
10.6022
 30
0.0
 11
6.95313
 21
9.59636
 31
0.0
  0
LINE
  8
0
 62
     0
 10
6.95313
 20
9.59636
 30
0.0
 11
6.50564
 21
8.54839
 31
0.0
  0
LINE
  8
0
 62
     0
 10
6.50564
 20
8.54839
 30
0.0
 11
6
 21
7.45833
 31
0.0
  0
LINE
  8
0
 62
     0
 10
6
 20
7.45833
 30
0.0
 11
5.65338
 21
6.74154
 31
0.0
  0
LINE
  8
0
 62
     0
 10
5.65338
 20
6.74154
 30
0.0
 11
5.32547
 21
6.05974
 31
0.0
  0
LINE
  8
0
 62
     0
 10
5.32547
 20
6.05974
 30
0.0
 11
5.01622
 21
5.41297
 31
0.0
  0
LINE
  8
0
 62
     0
 10
5.01622
 20
5.41297
 30
0.0
 11
4.72564
 21
4.80126
 31
0.0
  0
LINE
  8
0
 62
     0
 10
4.72564
 20
4.80126
 30
0.0
 11
4.45372
 21
4.22461
 31
0.0
  0
LINE
  8
0
 62
     0
 10
4.45372
 20
4.22461
 30
0.0
 11
4.20047
 21
3.683
 31
0.0
  0
LINE
  8
0
 62
     0
 10
4.20047
 20
3.683
 30
0.0
 11
3.96588
 21
3.17643
 31
0.0
  0
LINE
  8
0
 62
     0
 10
3.96588
 20
3.17643
 30
0.0
 11
3.74994
 21
2.70492
 31
0.0
  0
LINE
  8
0
 62
     0
 10
3.74994
 20
2.70492
 30
0.0
 11
3.55268
 21
2.26844
 31
0.0
  0
LINE
  8
0
 62
     0
 10
3.55268
 20
2.26844
 30
0.0
 11
3.37408
 21
1.86703
 31
0.0
  0
LINE
  8
0
 62
     0
 10
3.37408
 20
1.86703
 30
0.0
 11
3.21414
 21
1.50065
 31
0.0
  0
LINE
  8
0
 62
     0
 10
3.21414
 20
1.50065
 30
0.0
 11
3.07286
 21
1.16932
 31
0.0
  0
LINE
  8
0
 62
     0
 10
3.07286
 20
1.16932
 30
0.0
 11
2.95025
 21
0.873047
 31
0.0
  0
LINE
  8
0
 62
     0
 10
2.95025
 20
0.873047
 30
0.0
 11
2.84631
 21
0.611817
 31
0.0
  0
LINE
  8
0
 62
     0
 10
2.84631
 20
0.611817
 30
0.0
 11
2.76101
 21
0.385633
 31
0.0
  0
LINE
  8
0
 62
     0
 10
2.76101
 20
0.385633
 30
0.0
 11
2.69444
 21
0.194444
 31
0.0
  0
LINE
  8
0
 62
     0
 10
2.69444
 20
0.194444
 30
0.0
 11
2.69706
 21
0.131076
 31
0.0
  0
LINE
  8
0
 62
     0
 10
2.69706
 20
0.131076
 30
0.0
 11
2.74653
 21
0.0798611
 31
0.0
  0
LINE
  8
0
 62
     0
 10
2.74653
 20
0.0798611
 30
0.0
 11
2.84289
 21
0.0407986
 31
0.0
  0
LINE
  8
0
 62
     0
 10
2.84289
 20
0.0407986
 30
0.0
 11
2.98611
 21
0.0138889
 31
0.0
  0
LINE
  8
0
 62
     0
 10
2.98611
 20
0.0138889
 30
0.0
 11
3.14844
 21
5.42535e-05
 31
0.0
  0
LINE
  8
0
 62
     0
 10
3.14844
 20
5.42535e-05
 30
0.0
 11
3.32986
 21
5.42535e-05
 31
0.0
  0
LINE
  8
0
 62
     0
 10
3.32986
 20
5.42535e-05
 30
0.0
 11
3.53039
 21
0.0139432
 31
0.0
  0
LINE
  8
0
 62
     0
 10
3.53039
 20
0.0139432
 30
0.0
 11
3.75
 21
0.0416667
 31
0.0
  0
LINE
  8
0
 62
     0
 10
3.75
 20
0.0416667
 30
0.0
 11
4.02229
 21
0.090549
 31
0.0
  0
LINE
  8
0
 62
     0
 10
4.02229
 20
0.090549
 30
0.0
 11
4.26297
 21
0.146756
 31
0.0
  0
LINE
  8
0
 62
     0
 10
4.26297
 20
0.146756
 30
0.0
 11
4.47194
 21
0.21034
 31
0.0
  0
LINE
  8
0
 62
     0
 10
4.47194
 20
0.21034
 30
0.0
 11
4.64925
 21
0.281304
 31
0.0
  0
LINE
  8
0
 62
     0
 10
4.64925
 20
0.281304
 30
0.0
 11
4.79486
 21
0.359646
 31
0.0
  0
LINE
  8
0
 62
     0
 10
4.79486
 20
0.359646
 30
0.0
 11
4.90881
 21
0.445367
 31
0.0
  0
LINE
  8
0
 62
     0
 10
4.90881
 20
0.445367
 30
0.0
 11
4.99104
 21
0.538465
 31
0.0
  0
LINE
  8
0
 62
     0
 10
4.99104
 20
0.538465
 30
0.0
 11
5.04167
 21
0.638889
 31
0.0
  0
LINE
  8
0
 62
     0
 10
5.04167
 20
0.638889
 30
0.0
 11
5.07374
 21
0.728624
 31
0.0
  0
LINE
  8
0
 62
     0
 10
5.07374
 20
0.728624
 30
0.0
 11
5.118
 21
0.841581
 31
0.0
  0
LINE
  8
0
 62
     0
 10
5.118
 20
0.841581
 30
0.0
 11
5.17443
 21
0.977756
 31
0.0
  0
LINE
  8
0
 62
     0
 10
5.17443
 20
0.977756
 30
0.0
 11
5.243
 21
1.13715
 31
0.0
  0
LINE
  8
0
 62
     0
 10
5.243
 20
1.13715
 30
0.0
 11
5.32374
 21
1.31977
 31
0.0
  0
LINE
  8
0
 62
     0
 10
5.32374
 20
1.31977
 30
0.0
 11
5.41661
 21
1.52561
 31
0.0
  0
LINE
  8
0
 62
     0
 10
5.41661
 20
1.52561
 30
0.0
 11
5.52165
 21
1.75467
 31
0.0
  0
LINE
  8
0
 62
     0
 10
5.52165
 20
1.75467
 30
0.0
 11
5.63883
 21
2.00694
 31
0.0
  0
LINE
  8
0
 62
     0
 10
5.63883
 20
2.00694
 30
0.0
 11
5.76818
 21
2.28244
 31
0.0
  0
LINE
  8
0
 62
     0
 10
5.76818
 20
2.28244
 30
0.0
 11
5.90967
 21
2.58117
 31
0.0
  0
LINE
  8
0
 62
     0
 10
5.90967
 20
2.58117
 30
0.0
 11
6.06332
 21
2.9031
 31
0.0
  0
LINE
  8
0
 62
     0
 10
6.06332
 20
2.9031
 30
0.0
 11
6.22911
 21
3.24826
 31
0.0
  0
LINE
  8
0
 62
     0
 10
6.22911
 20
3.24826
 30
0.0
 11
6.40707
 21
3.61664
 31
0.0
  0
LINE
  8
0
 62
     0
 10
6.40707
 20
3.61664
 30
0.0
 11
6.59717
 21
4.00825
 31
0.0
  0
LINE
  8
0
 62
     0
 10
6.59717
 20
4.00825
 30
0.0
 11
6.79943
 21
4.42307
 31
0.0
  0
LINE
  8
0
 62
     0
 10
6.79943
 20
4.42307
 30
0.0
 11
7.01389
 21
4.86111
 31
0.0
  0
LINE
  8
0
 62
     0
 10
7.01389
 20
4.86111
 30
0.0
 11
7.4605
 21
5.78342
 31
0.0
  0
LINE
  8
0
 62
     0
 10
7.4605
 20
5.78342
 30
0.0
 11
7.87674
 21
6.66146
 31
0.0
  0
LINE
  8
0
 62
     0
 10
7.87674
 20
6.66146
 30
0.0
 11
8.26258
 21
7.49522
 31
0.0
  0
LINE
  8
0
 62
     0
 10
8.26258
 20
7.49522
 30
0.0
 11
8.61806
 21
8.28472
 31
0.0
  0
LINE
  8
0
 62
     0
 10
8.61806
 20
8.28472
 30
0.0
 11
8.94314
 21
9.03
 31
0.0
  0
LINE
  8
0
 62
     0
 10
8.94314
 20
9.03
 30
0.0
 11
9.23785
 21
9.73096
 31
0.0
  0
LINE
  8
0
 62
     0
 10
9.23785
 20
9.73096
 30
0.0
 11
9.50217
 21
10.3876
 31
0.0
  0
LINE
  8
0
 62
     0
 10
9.50217
 20
10.3876
 30
0.0
 11
9.73611
 21
11
 31
0.0
  0
LINE
  8
0
 62
     0
 10
9.73611
 20
11
 30
0.0
 11
9.91465
 21
11.4964
 31
0.0
  0
LINE
  8
0
 62
     0
 10
9.91465
 20
11.4964
 30
0.0
 11
10.0788
 21
11.9783
 31
0.0
  0
LINE
  8
0
 62
     0
 10
10.0788
 20
11.9783
 30
0.0
 11
10.2285
 21
12.446
 31
0.0
  0
LINE
  8
0
 62
     0
 10
10.2285
 20
12.446
 30
0.0
 11
10.3637
 21
12.8994
 31
0.0
  0
LINE
  8
0
 62
     0
 10
10.3637
 20
12.8994
 30
0.0
 11
10.4845
 21
13.3384
 31
0.0
  0
LINE
  8
0
 62
     0
 10
10.4845
 20
13.3384
 30
0.0
 11
10.5909
 21
13.7631
 31
0.0
  0
LINE
  8
0
 62
     0
 10
10.5909
 20
13.7631
 30
0.0
 11
10.6829
 21
14.1735
 31
0.0
  0
LINE
  8
0
 62
     0
 10
10.6829
 20
14.1735
 30
0.0
 11
10.7604
 21
14.5694
 31
0.0
  0
LINE
  8
0
 62
     0
 10
10.7604
 20
14.5694
 30
0.0
 11
10.8235
 21
14.9512
 31
0.0
  0
LINE
  8
0
 62
     0
 10
10.8235
 20
14.9512
 30
0.0
 11
10.8722
 21
15.3186
 31
0.0
  0
LINE
  8
0
 62
     0
 10
10.8722
 20
15.3186
 30
0.0
 11
10.9064
 21
15.6717
 31
0.0
  0
LINE
  8
0
 62
     0
 10
10.9064
 20
15.6717
 30
0.0
 11
10.9262
 21
16.0104
 31
0.0
  0
LINE
  8
0
 62
     0
 10
10.9262
 20
16.0104
 30
0.0
 11
10.9316
 21
16.3349
 31
0.0
  0
LINE
  8
0
 62
     0
 10
10.9316
 20
16.3349
 30
0.0
 11
10.9225
 21
16.645
 31
0.0
  0
LINE
  8
0
 62
     0
 10
10.9225
 20
16.645
 30
0.0
 11
10.899
 21
16.9408
 31
0.0
  0
LINE
  8
0
 62
     0
 10
10.899
 20
16.9408
 30
0.0
 11
10.8611
 21
17.2222
 31
0.0
  0
LINE
  8
0
 62
     0
 10
10.8611
 20
17.2222
 30
0.0
 11
10.8087
 21
17.4893
 31
0.0
  0
LINE
  8
0
 62
     0
 10
10.8087
 20
17.4893
 30
0.0
 11
10.742
 21
17.7422
 31
0.0
  0
LINE
  8
0
 62
     0
 10
10.742
 20
17.7422
 30
0.0
 11
10.6607
 21
17.9807
 31
0.0
  0
LINE
  8
0
 62
     0
 10
10.6607
 20
17.9807
 30
0.0
 11
10.5651
 21
18.2049
 31
0.0
  0
LINE
  8
0
 62
     0
 10
10.5651
 20
18.2049
 30
0.0
 11
10.455
 21
18.4147
 31
0.0
  0
LINE
  8
0
 62
     0
 10
10.455
 20
18.4147
 30
0.0
 11
10.3305
 21
18.6103
 31
0.0
  0
LINE
  8
0
 62
     0
 10
10.3305
 20
18.6103
 30
0.0
 11
10.1916
 21
18.7914
 31
0.0
  0
LINE
  8
0
 62
     0
 10
10.1916
 20
18.7914
 30
0.0
 11
10.0382
 21
18.9583
 31
0.0
  0
LINE
  8
0
 62
     0
 10
10.0382
 20
18.9583
 30
0.0
 11
9.87039
 21
19.1108
 31
0.0
  0
LINE
  8
0
 62
     0
 10
9.87039
 20
19.1108
 30
0.0
 11
9.68815
 21
19.2492
 31
0.0
  0
LINE
  8
0
 62
     0
 10
9.68815
 20
19.2492
 30
0.0
 11
9.49149
 21
19.3731
 31
0.0
  0
LINE
  8
0
 62
     0
 10
9.49149
 20
19.3731
 30
0.0
 11
9.28039
 21
19.4826
 31
0.0
  0
LINE
  8
0
 62
     0
 10
9.28039
 20
19.4826
 30
0.0
 11
9.05485
 21
19.5779
 31
0.0
  0
LINE
  8
0
 62
     0
 10
9.05485
 20
19.5779
 30
0.0
 11
8.81489
 21
19.6589
 31
0.0
  0
LINE
  8
0
 62
     0
 10
8.81489
 20
19.6589
 30
0.0
 11
8.56049
 21
19.7254
 31
0.0
  0
LINE
  8
0
 62
     0
 10
8.56049
 20
19.7254
 30
0.0
 11
8.29167
 21
19.7778
 31
0.0
  0
LINE
  8
0
 62
     0
 10
8.29167
 20
19.7778
 30
0.0
 11
7.78597
 21
19.8349
 31
0.0
  0
LINE
  8
0
 62
     0
 10
7.78597
 20
19.8349
 30
0.0
 11
7.27599
 21
19.8394
 31
0.0
  0
LINE
  8
0
 62
     0
 10
7.27599
 20
19.8394
 30
0.0
 11
6.76167
 21
19.7915
 31
0.0
  0
LINE
  8
0
 62
     0
 10
6.76167
 20
19.7915
 30
0.0
 11
6.243
 21
19.691
 31
0.0
  0
LINE
  8
0
 62
     0
 10
6.243
 20
19.691
 30
0.0
 11
5.72
 21
19.5381
 31
0.0
  0
LINE
  8
0
 62
     0
 10
5.72
 20
19.5381
 30
0.0
 11
5.19265
 21
19.3325
 31
0.0
  0
LINE
  8
0
 62
     0
 10
5.19265
 20
19.3325
 30
0.0
 11
4.66097
 21
19.0744
 31
0.0
  0
LINE
  8
0
 62
     0
 10
4.66097
 20
19.0744
 30
0.0
 11
4.125
 21
18.7639
 31
0.0
  0
ENDSEC
  0
EOF
