  0
SECTION
  2
HEADER
  9
$ACADVER
  1
AC1009
  9
$EXTMIN
 10
0.0
 20
0.0
 30
0.0
  9
$EXTMAX
 10
1000.0
 20
1000.0
 30
0.0
  9
$FILLMODE
 70
 0
  9
$SPLFRAME
 70
 1
  0
ENDSEC
  0
SECTION
  2
TABLES
  0
TABLE
  2
LAYER
 70
1
  0
LAYER
  2
0
 70
     0
 62
     7
  6
CONTINUOUS
  0
ENDTAB
  0
ENDSEC
  0
SECTION
  2
ENTITIES
  0
LINE
  8
0
 62
     0
 10
7.88889
 20
11.0972
 30
0.0
 11
8.24653
 21
11.1363
 31
0.0
  0
LINE
  8
0
 62
     0
 10
8.24653
 20
11.1363
 30
0.0
 11
8.55556
 21
11.1701
 31
0.0
  0
LINE
  8
0
 62
     0
 10
8.55556
 20
11.1701
 30
0.0
 11
8.81597
 21
11.1988
 31
0.0
  0
LINE
  8
0
 62
     0
 10
8.81597
 20
11.1988
 30
0.0
 11
9.02778
 21
11.2222
 31
0.0
  0
LINE
  8
0
 62
     0
 10
9.02778
 20
11.2222
 30
0.0
 11
9.02778
 21
9.80556
 31
0.0
  0
LINE
  8
0
 62
     0
 10
9.02778
 20
9.80556
 30
0.0
 11
8.44439
 21
9.77089
 31
0.0
  0
LINE
  8
0
 62
     0
 10
8.44439
 20
9.77089
 30
0.0
 11
7.88889
 21
9.72222
 31
0.0
  0
LINE
  8
0
 62
     0
 10
7.88889
 20
9.72222
 30
0.0
 11
7.88889
 21
11.0972
 31
0.0
  0
LINE
  8
0
 62
     0
 10
11.7083
 20
12.4167
 30
0.0
 11
11.7083
 21
16
 31
0.0
  0
LINE
  8
0
 62
     0
 10
11.7083
 20
16
 30
0.0
 11
11.6823
 21
16.1268
 31
0.0
  0
LINE
  8
0
 62
     0
 10
11.6823
 20
16.1268
 30
0.0
 11
11.6042
 21
16.2292
 31
0.0
  0
LINE
  8
0
 62
     0
 10
11.6042
 20
16.2292
 30
0.0
 11
11.474
 21
16.3074
 31
0.0
  0
LINE
  8
0
 62
     0
 10
11.474
 20
16.3074
 30
0.0
 11
11.2917
 21
16.3611
 31
0.0
  0
LINE
  8
0
 62
     0
 10
11.2917
 20
16.3611
 30
0.0
 11
11.0885
 21
16.3846
 31
0.0
  0
LINE
  8
0
 62
     0
 10
11.0885
 20
16.3846
 30
0.0
 11
10.868
 21
16.3854
 31
0.0
  0
LINE
  8
0
 62
     0
 10
10.868
 20
16.3854
 30
0.0
 11
10.6302
 21
16.3637
 31
0.0
  0
LINE
  8
0
 62
     0
 10
10.6302
 20
16.3637
 30
0.0
 11
10.375
 21
16.3194
 31
0.0
  0
LINE
  8
0
 62
     0
 10
10.375
 20
16.3194
 30
0.0
 11
10.1085
 21
16.2483
 31
0.0
  0
LINE
  8
0
 62
     0
 10
10.1085
 20
16.2483
 30
0.0
 11
9.86453
 21
16.1597
 31
0.0
  0
LINE
  8
0
 62
     0
 10
9.86453
 20
16.1597
 30
0.0
 11
9.64318
 21
16.0539
 31
0.0
  0
LINE
  8
0
 62
     0
 10
9.64318
 20
16.0539
 30
0.0
 11
9.44444
 21
15.9306
 31
0.0
  0
LINE
  8
0
 62
     0
 10
9.44444
 20
15.9306
 30
0.0
 11
9.26215
 21
15.7804
 31
0.0
  0
LINE
  8
0
 62
     0
 10
9.26215
 20
15.7804
 30
0.0
 11
9.13194
 21
15.6215
 31
0.0
  0
LINE
  8
0
 62
     0
 10
9.13194
 20
15.6215
 30
0.0
 11
9.05382
 21
15.454
 31
0.0
  0
LINE
  8
0
 62
     0
 10
9.05382
 20
15.454
 30
0.0
 11
9.02778
 21
15.2778
 31
0.0
  0
LINE
  8
0
 62
     0
 10
9.02778
 20
15.2778
 30
0.0
 11
9.02778
 21
12.2222
 31
0.0
  0
LINE
  8
0
 62
     0
 10
9.02778
 20
12.2222
 30
0.0
 11
8.69097
 21
12.184
 31
0.0
  0
LINE
  8
0
 62
     0
 10
8.69097
 20
12.184
 30
0.0
 11
8.38889
 21
12.1528
 31
0.0
  0
LINE
  8
0
 62
     0
 10
8.38889
 20
12.1528
 30
0.0
 11
8.12153
 21
12.1285
 31
0.0
  0
LINE
  8
0
 62
     0
 10
8.12153
 20
12.1285
 30
0.0
 11
7.88889
 21
12.1111
 31
0.0
  0
LINE
  8
0
 62
     0
 10
7.88889
 20
12.1111
 30
0.0
 11
7.88889
 21
12.3333
 31
0.0
  0
LINE
  8
0
 62
     0
 10
7.88889
 20
12.3333
 30
0.0
 11
7.89165
 21
12.3479
 31
0.0
  0
LINE
  8
0
 62
     0
 10
7.89165
 20
12.3479
 30
0.0
 11
7.90013
 21
12.4401
 31
0.0
  0
LINE
  8
0
 62
     0
 10
7.90013
 20
12.4401
 30
0.0
 11
7.91422
 21
12.61
 31
0.0
  0
LINE
  8
0
 62
     0
 10
7.91422
 20
12.61
 30
0.0
 11
7.93397
 21
12.8576
 31
0.0
  0
LINE
  8
0
 62
     0
 10
7.93397
 20
12.8576
 30
0.0
 11
7.95936
 21
13.1829
 31
0.0
  0
LINE
  8
0
 62
     0
 10
7.95936
 20
13.1829
 30
0.0
 11
7.9904
 21
13.5859
 31
0.0
  0
LINE
  8
0
 62
     0
 10
7.9904
 20
13.5859
 30
0.0
 11
8.02707
 21
14.0667
 31
0.0
  0
LINE
  8
0
 62
     0
 10
8.02707
 20
14.0667
 30
0.0
 11
8.06944
 21
14.625
 31
0.0
  0
LINE
  8
0
 62
     0
 10
8.06944
 20
14.625
 30
0.0
 11
8.09131
 21
14.9918
 31
0.0
  0
LINE
  8
0
 62
     0
 10
8.09131
 20
14.9918
 30
0.0
 11
8.10151
 21
15.3351
 31
0.0
  0
LINE
  8
0
 62
     0
 10
8.10151
 20
15.3351
 30
0.0
 11
8.09999
 21
15.655
 31
0.0
  0
LINE
  8
0
 62
     0
 10
8.09999
 20
15.655
 30
0.0
 11
8.08681
 21
15.9514
 31
0.0
  0
LINE
  8
0
 62
     0
 10
8.08681
 20
15.9514
 30
0.0
 11
8.06185
 21
16.2244
 31
0.0
  0
LINE
  8
0
 62
     0
 10
8.06185
 20
16.2244
 30
0.0
 11
8.02518
 21
16.474
 31
0.0
  0
LINE
  8
0
 62
     0
 10
8.02518
 20
16.474
 30
0.0
 11
7.97678
 21
16.7001
 31
0.0
  0
LINE
  8
0
 62
     0
 10
7.97678
 20
16.7001
 30
0.0
 11
7.91667
 21
16.9028
 31
0.0
  0
LINE
  8
0
 62
     0
 10
7.91667
 20
16.9028
 30
0.0
 11
7.85417
 21
17.0104
 31
0.0
  0
LINE
  8
0
 62
     0
 10
7.85417
 20
17.0104
 30
0.0
 11
7.75
 21
17.0974
 31
0.0
  0
LINE
  8
0
 62
     0
 10
7.75
 20
17.0974
 30
0.0
 11
7.60417
 21
17.1632
 31
0.0
  0
LINE
  8
0
 62
     0
 10
7.60417
 20
17.1632
 30
0.0
 11
7.41667
 21
17.2083
 31
0.0
  0
LINE
  8
0
 62
     0
 10
7.41667
 20
17.2083
 30
0.0
 11
7.33328
 21
17.2222
 31
0.0
  0
LINE
  8
0
 62
     0
 10
7.33328
 20
17.2222
 30
0.0
 11
7.27778
 21
17.2361
 31
0.0
  0
LINE
  8
0
 62
     0
 10
7.27778
 20
17.2361
 30
0.0
 11
7.10568
 21
17.2553
 31
0.0
  0
LINE
  8
0
 62
     0
 10
7.10568
 20
17.2553
 30
0.0
 11
6.92275
 21
17.25
 31
0.0
  0
LINE
  8
0
 62
     0
 10
6.92275
 20
17.25
 30
0.0
 11
6.72894
 21
17.2206
 31
0.0
  0
LINE
  8
0
 62
     0
 10
6.72894
 20
17.2206
 30
0.0
 11
6.52431
 21
17.1667
 31
0.0
  0
LINE
  8
0
 62
     0
 10
6.52431
 20
17.1667
 30
0.0
 11
6.30881
 21
17.0886
 31
0.0
  0
LINE
  8
0
 62
     0
 10
6.30881
 20
17.0886
 30
0.0
 11
6.08247
 21
16.9861
 31
0.0
  0
LINE
  8
0
 62
     0
 10
6.08247
 20
16.9861
 30
0.0
 11
5.84526
 21
16.8594
 31
0.0
  0
LINE
  8
0
 62
     0
 10
5.84526
 20
16.8594
 30
0.0
 11
5.59722
 21
16.7083
 31
0.0
  0
LINE
  8
0
 62
     0
 10
5.59722
 20
16.7083
 30
0.0
 11
5.40619
 21
16.5799
 31
0.0
  0
LINE
  8
0
 62
     0
 10
5.40619
 20
16.5799
 30
0.0
 11
5.26383
 21
16.4583
 31
0.0
  0
LINE
  8
0
 62
     0
 10
5.26383
 20
16.4583
 30
0.0
 11
5.17008
 21
16.3438
 31
0.0
  0
LINE
  8
0
 62
     0
 10
5.17008
 20
16.3438
 30
0.0
 11
5.125
 21
16.2361
 31
0.0
  0
LINE
  8
0
 62
     0
 10
5.125
 20
16.2361
 30
0.0
 11
5.13883
 21
16.1207
 31
0.0
  0
LINE
  8
0
 62
     0
 10
5.13883
 20
16.1207
 30
0.0
 11
5.22217
 21
16.0243
 31
0.0
  0
LINE
  8
0
 62
     0
 10
5.22217
 20
16.0243
 30
0.0
 11
5.37494
 21
15.9471
 31
0.0
  0
LINE
  8
0
 62
     0
 10
5.37494
 20
15.9471
 30
0.0
 11
5.59722
 21
15.8889
 31
0.0
  0
LINE
  8
0
 62
     0
 10
5.59722
 20
15.8889
 30
0.0
 11
5.51861
 21
15.8929
 31
0.0
  0
LINE
  8
0
 62
     0
 10
5.51861
 20
15.8929
 30
0.0
 11
5.4496
 21
15.8768
 31
0.0
  0
LINE
  8
0
 62
     0
 10
5.4496
 20
15.8768
 30
0.0
 11
5.39014
 21
15.8408
 31
0.0
  0
LINE
  8
0
 62
     0
 10
5.39014
 20
15.8408
 30
0.0
 11
5.34022
 21
15.7847
 31
0.0
  0
LINE
  8
0
 62
     0
 10
5.34022
 20
15.7847
 30
0.0
 11
5.29986
 21
15.7089
 31
0.0
  0
LINE
  8
0
 62
     0
 10
5.29986
 20
15.7089
 30
0.0
 11
5.26904
 21
15.6129
 31
0.0
  0
LINE
  8
0
 62
     0
 10
5.26904
 20
15.6129
 30
0.0
 11
5.24778
 21
15.4971
 31
0.0
  0
LINE
  8
0
 62
     0
 10
5.24778
 20
15.4971
 30
0.0
 11
5.23611
 21
15.3611
 31
0.0
  0
LINE
  8
0
 62
     0
 10
5.23611
 20
15.3611
 30
0.0
 11
5.23693
 21
15.2708
 31
0.0
  0
LINE
  8
0
 62
     0
 10
5.23693
 20
15.2708
 30
0.0
 11
5.23953
 21
15.1528
 31
0.0
  0
LINE
  8
0
 62
     0
 10
5.23953
 20
15.1528
 30
0.0
 11
5.24387
 21
15.0069
 31
0.0
  0
LINE
  8
0
 62
     0
 10
5.24387
 20
15.0069
 30
0.0
 11
5.25
 21
14.8333
 31
0.0
  0
LINE
  8
0
 62
     0
 10
5.25
 20
14.8333
 30
0.0
 11
5.26133
 21
14.6789
 31
0.0
  0
LINE
  8
0
 62
     0
 10
5.26133
 20
14.6789
 30
0.0
 11
5.26747
 21
14.5486
 31
0.0
  0
LINE
  8
0
 62
     0
 10
5.26747
 20
14.5486
 30
0.0
 11
5.26828
 21
14.4428
 31
0.0
  0
LINE
  8
0
 62
     0
 10
5.26828
 20
14.4428
 30
0.0
 11
5.26389
 21
14.3611
 31
0.0
  0
LINE
  8
0
 62
     0
 10
5.26389
 20
14.3611
 30
0.0
 11
5.23953
 21
13.9914
 31
0.0
  0
LINE
  8
0
 62
     0
 10
5.23953
 20
13.9914
 30
0.0
 11
5.22217
 21
13.5625
 31
0.0
  0
LINE
  8
0
 62
     0
 10
5.22217
 20
13.5625
 30
0.0
 11
5.21175
 21
13.0747
 31
0.0
  0
LINE
  8
0
 62
     0
 10
5.21175
 20
13.0747
 30
0.0
 11
5.20833
 21
12.5278
 31
0.0
  0
LINE
  8
0
 62
     0
 10
5.20833
 20
12.5278
 30
0.0
 11
5.20833
 21
12.4722
 31
0.0
  0
LINE
  8
0
 62
     0
 10
5.20833
 20
12.4722
 30
0.0
 11
5.08594
 21
12.534
 31
0.0
  0
LINE
  8
0
 62
     0
 10
5.08594
 20
12.534
 30
0.0
 11
4.99653
 21
12.58
 31
0.0
  0
LINE
  8
0
 62
     0
 10
4.99653
 20
12.58
 30
0.0
 11
4.94011
 21
12.6104
 31
0.0
  0
LINE
  8
0
 62
     0
 10
4.94011
 20
12.6104
 30
0.0
 11
4.91667
 21
12.625
 31
0.0
  0
LINE
  8
0
 62
     0
 10
4.91667
 20
12.625
 30
0.0
 11
4.79362
 21
12.6889
 31
0.0
  0
LINE
  8
0
 62
     0
 10
4.79362
 20
12.6889
 30
0.0
 11
4.64671
 21
12.7275
 31
0.0
  0
LINE
  8
0
 62
     0
 10
4.64671
 20
12.7275
 30
0.0
 11
4.47592
 21
12.7409
 31
0.0
  0
LINE
  8
0
 62
     0
 10
4.47592
 20
12.7409
 30
0.0
 11
4.28125
 21
12.7292
 31
0.0
  0
LINE
  8
0
 62
     0
 10
4.28125
 20
12.7292
 30
0.0
 11
4.06272
 21
12.6923
 31
0.0
  0
LINE
  8
0
 62
     0
 10
4.06272
 20
12.6923
 30
0.0
 11
3.82032
 21
12.6303
 31
0.0
  0
LINE
  8
0
 62
     0
 10
3.82032
 20
12.6303
 30
0.0
 11
3.55404
 21
12.543
 31
0.0
  0
LINE
  8
0
 62
     0
 10
3.55404
 20
12.543
 30
0.0
 11
3.26389
 21
12.4306
 31
0.0
  0
LINE
  8
0
 62
     0
 10
3.26389
 20
12.4306
 30
0.0
 11
3.04075
 21
12.3325
 31
0.0
  0
LINE
  8
0
 62
     0
 10
3.04075
 20
12.3325
 30
0.0
 11
2.84375
 21
12.2327
 31
0.0
  0
LINE
  8
0
 62
     0
 10
2.84375
 20
12.2327
 30
0.0
 11
2.67275
 21
12.1311
 31
0.0
  0
LINE
  8
0
 62
     0
 10
2.67275
 20
12.1311
 30
0.0
 11
2.52778
 21
12.0278
 31
0.0
  0
LINE
  8
0
 62
     0
 10
2.52778
 20
12.0278
 30
0.0
 11
2.41488
 21
11.9245
 31
0.0
  0
LINE
  8
0
 62
     0
 10
2.41488
 20
11.9245
 30
0.0
 11
2.35411
 21
11.8368
 31
0.0
  0
LINE
  8
0
 62
     0
 10
2.35411
 20
11.8368
 30
0.0
 11
2.34543
 21
11.7648
 31
0.0
  0
LINE
  8
0
 62
     0
 10
2.34543
 20
11.7648
 30
0.0
 11
2.38889
 21
11.7083
 31
0.0
  0
LINE
  8
0
 62
     0
 10
2.38889
 20
11.7083
 30
0.0
 11
2.67904
 21
11.5287
 31
0.0
  0
LINE
  8
0
 62
     0
 10
2.67904
 20
11.5287
 30
0.0
 11
2.98699
 21
11.3715
 31
0.0
  0
LINE
  8
0
 62
     0
 10
2.98699
 20
11.3715
 30
0.0
 11
3.31272
 21
11.237
 31
0.0
  0
LINE
  8
0
 62
     0
 10
3.31272
 20
11.237
 30
0.0
 11
3.65625
 21
11.125
 31
0.0
  0
LINE
  8
0
 62
     0
 10
3.65625
 20
11.125
 30
0.0
 11
4.01758
 21
11.0356
 31
0.0
  0
LINE
  8
0
 62
     0
 10
4.01758
 20
11.0356
 30
0.0
 11
4.39671
 21
10.9688
 31
0.0
  0
LINE
  8
0
 62
     0
 10
4.39671
 20
10.9688
 30
0.0
 11
4.79362
 21
10.9245
 31
0.0
  0
LINE
  8
0
 62
     0
 10
4.79362
 20
10.9245
 30
0.0
 11
5.20833
 21
10.9028
 31
0.0
  0
LINE
  8
0
 62
     0
 10
5.20833
 20
10.9028
 30
0.0
 11
5.20833
 21
9.29167
 31
0.0
  0
LINE
  8
0
 62
     0
 10
5.20833
 20
9.29167
 30
0.0
 11
4.69613
 21
9.16325
 31
0.0
  0
LINE
  8
0
 62
     0
 10
4.69613
 20
9.16325
 30
0.0
 11
4.21522
 21
9.02783
 31
0.0
  0
LINE
  8
0
 62
     0
 10
4.21522
 20
9.02783
 30
0.0
 11
3.76557
 21
8.88547
 31
0.0
  0
LINE
  8
0
 62
     0
 10
3.76557
 20
8.88547
 30
0.0
 11
3.34722
 21
8.73611
 31
0.0
  0
LINE
  8
0
 62
     0
 10
3.34722
 20
8.73611
 30
0.0
 11
3.16054
 21
8.64931
 31
0.0
  0
LINE
  8
0
 62
     0
 10
3.16054
 20
8.64931
 30
0.0
 11
2.98958
 21
8.54167
 31
0.0
  0
LINE
  8
0
 62
     0
 10
2.98958
 20
8.54167
 30
0.0
 11
2.83421
 21
8.41319
 31
0.0
  0
LINE
  8
0
 62
     0
 10
2.83421
 20
8.41319
 30
0.0
 11
2.69444
 21
8.26389
 31
0.0
  0
LINE
  8
0
 62
     0
 10
2.69444
 20
8.26389
 30
0.0
 11
2.57206
 21
8.07465
 31
0.0
  0
LINE
  8
0
 62
     0
 10
2.57206
 20
8.07465
 30
0.0
 11
2.52431
 21
7.89583
 31
0.0
  0
LINE
  8
0
 62
     0
 10
2.52431
 20
7.89583
 30
0.0
 11
2.55122
 21
7.72749
 31
0.0
  0
LINE
  8
0
 62
     0
 10
2.55122
 20
7.72749
 30
0.0
 11
2.65278
 21
7.56944
 31
0.0
  0
LINE
  8
0
 62
     0
 10
2.65278
 20
7.56944
 30
0.0
 11
2.78993
 21
7.44385
 31
0.0
  0
LINE
  8
0
 62
     0
 10
2.78993
 20
7.44385
 30
0.0
 11
2.95139
 21
7.35161
 31
0.0
  0
LINE
  8
0
 62
     0
 10
2.95139
 20
7.35161
 30
0.0
 11
3.13715
 21
7.29281
 31
0.0
  0
LINE
  8
0
 62
     0
 10
3.13715
 20
7.29281
 30
0.0
 11
3.34722
 21
7.26742
 31
0.0
  0
LINE
  8
0
 62
     0
 10
3.34722
 20
7.26742
 30
0.0
 11
3.5816
 21
7.27544
 31
0.0
  0
LINE
  8
0
 62
     0
 10
3.5816
 20
7.27544
 30
0.0
 11
3.84028
 21
7.31689
 31
0.0
  0
LINE
  8
0
 62
     0
 10
3.84028
 20
7.31689
 30
0.0
 11
4.12326
 21
7.39176
 31
0.0
  0
LINE
  8
0
 62
     0
 10
4.12326
 20
7.39176
 30
0.0
 11
4.43056
 21
7.5
 31
0.0
  0
LINE
  8
0
 62
     0
 10
4.43056
 20
7.5
 30
0.0
 11
4.77778
 21
7.61458
 31
0.0
  0
LINE
  8
0
 62
     0
 10
4.77778
 20
7.61458
 30
0.0
 11
5.20833
 21
7.73611
 31
0.0
  0
LINE
  8
0
 62
     0
 10
5.20833
 20
7.73611
 30
0.0
 11
5.20833
 21
4.27778
 31
0.0
  0
LINE
  8
0
 62
     0
 10
5.20833
 20
4.27778
 30
0.0
 11
5.23438
 21
4.16407
 31
0.0
  0
LINE
  8
0
 62
     0
 10
5.23438
 20
4.16407
 30
0.0
 11
5.3125
 21
4.07292
 31
0.0
  0
LINE
  8
0
 62
     0
 10
5.3125
 20
4.07292
 30
0.0
 11
5.44271
 21
4.00435
 31
0.0
  0
LINE
  8
0
 62
     0
 10
5.44271
 20
4.00435
 30
0.0
 11
5.625
 21
3.95833
 31
0.0
  0
LINE
  8
0
 62
     0
 10
5.625
 20
3.95833
 30
0.0
 11
5.829
 21
3.93582
 31
0.0
  0
LINE
  8
0
 62
     0
 10
5.829
 20
3.93582
 30
0.0
 11
6.05208
 21
3.93756
 31
0.0
  0
LINE
  8
0
 62
     0
 10
6.05208
 20
3.93756
 30
0.0
 11
6.29428
 21
3.9636
 31
0.0
  0
LINE
  8
0
 62
     0
 10
6.29428
 20
3.9636
 30
0.0
 11
6.55556
 21
4.01389
 31
0.0
  0
LINE
  8
0
 62
     0
 10
6.55556
 20
4.01389
 30
0.0
 11
6.82118
 21
4.08339
 31
0.0
  0
LINE
  8
0
 62
     0
 10
6.82118
 20
4.08339
 30
0.0
 11
7.0625
 21
4.16672
 31
0.0
  0
LINE
  8
0
 62
     0
 10
7.0625
 20
4.16672
 30
0.0
 11
7.27951
 21
4.26394
 31
0.0
  0
LINE
  8
0
 62
     0
 10
7.27951
 20
4.26394
 30
0.0
 11
7.47222
 21
4.375
 31
0.0
  0
LINE
  8
0
 62
     0
 10
7.47222
 20
4.375
 30
0.0
 11
7.65451
 21
4.52344
 31
0.0
  0
LINE
  8
0
 62
     0
 10
7.65451
 20
4.52344
 30
0.0
 11
7.78472
 21
4.67708
 31
0.0
  0
LINE
  8
0
 62
     0
 10
7.78472
 20
4.67708
 30
0.0
 11
7.86285
 21
4.83594
 31
0.0
  0
LINE
  8
0
 62
     0
 10
7.86285
 20
4.83594
 30
0.0
 11
7.88889
 21
5
 31
0.0
  0
LINE
  8
0
 62
     0
 10
7.88889
 20
5
 30
0.0
 11
7.88889
 21
8.19444
 31
0.0
  0
LINE
  8
0
 62
     0
 10
7.88889
 20
8.19444
 30
0.0
 11
9.02778
 21
8.26389
 31
0.0
  0
LINE
  8
0
 62
     0
 10
9.02778
 20
8.26389
 30
0.0
 11
9.02778
 21
2.43056
 31
0.0
  0
LINE
  8
0
 62
     0
 10
9.02778
 20
2.43056
 30
0.0
 11
9.05382
 21
2.29775
 31
0.0
  0
LINE
  8
0
 62
     0
 10
9.05382
 20
2.29775
 30
0.0
 11
9.13194
 21
2.19097
 31
0.0
  0
LINE
  8
0
 62
     0
 10
9.13194
 20
2.19097
 30
0.0
 11
9.26215
 21
2.11025
 31
0.0
  0
LINE
  8
0
 62
     0
 10
9.26215
 20
2.11025
 30
0.0
 11
9.44444
 21
2.05556
 31
0.0
  0
LINE
  8
0
 62
     0
 10
9.44444
 20
2.05556
 30
0.0
 11
9.64844
 21
2.03304
 31
0.0
  0
LINE
  8
0
 62
     0
 10
9.64844
 20
2.03304
 30
0.0
 11
9.87153
 21
2.03478
 31
0.0
  0
LINE
  8
0
 62
     0
 10
9.87153
 20
2.03478
 30
0.0
 11
10.1137
 21
2.06082
 31
0.0
  0
LINE
  8
0
 62
     0
 10
10.1137
 20
2.06082
 30
0.0
 11
10.375
 21
2.11111
 31
0.0
  0
LINE
  8
0
 62
     0
 10
10.375
 20
2.11111
 30
0.0
 11
10.6406
 21
2.18229
 31
0.0
  0
LINE
  8
0
 62
     0
 10
10.6406
 20
2.18229
 30
0.0
 11
10.8819
 21
2.27083
 31
0.0
  0
LINE
  8
0
 62
     0
 10
10.8819
 20
2.27083
 30
0.0
 11
11.099
 21
2.37674
 31
0.0
  0
LINE
  8
0
 62
     0
 10
11.099
 20
2.37674
 30
0.0
 11
11.2917
 21
2.5
 31
0.0
  0
LINE
  8
0
 62
     0
 10
11.2917
 20
2.5
 30
0.0
 11
11.474
 21
2.64931
 31
0.0
  0
LINE
  8
0
 62
     0
 10
11.474
 20
2.64931
 30
0.0
 11
11.6042
 21
2.80556
 31
0.0
  0
LINE
  8
0
 62
     0
 10
11.6042
 20
2.80556
 30
0.0
 11
11.6823
 21
2.96875
 31
0.0
  0
LINE
  8
0
 62
     0
 10
11.6823
 20
2.96875
 30
0.0
 11
11.7083
 21
3.13889
 31
0.0
  0
LINE
  8
0
 62
     0
 10
11.7083
 20
3.13889
 30
0.0
 11
11.7083
 21
8.33333
 31
0.0
  0
LINE
  8
0
 62
     0
 10
11.7083
 20
8.33333
 30
0.0
 11
11.9097
 21
8.33946
 31
0.0
  0
LINE
  8
0
 62
     0
 10
11.9097
 20
8.33946
 30
0.0
 11
12.0555
 21
8.34381
 31
0.0
  0
LINE
  8
0
 62
     0
 10
12.0555
 20
8.34381
 30
0.0
 11
12.1458
 21
8.3464
 31
0.0
  0
LINE
  8
0
 62
     0
 10
12.1458
 20
8.3464
 30
0.0
 11
12.1806
 21
8.34722
 31
0.0
  0
LINE
  8
0
 62
     0
 10
12.1806
 20
8.34722
 30
0.0
 11
12.4183
 21
8.37071
 31
0.0
  0
LINE
  8
0
 62
     0
 10
12.4183
 20
8.37071
 30
0.0
 11
12.6458
 21
8.42714
 31
0.0
  0
LINE
  8
0
 62
     0
 10
12.6458
 20
8.42714
 30
0.0
 11
12.8628
 21
8.51654
 31
0.0
  0
LINE
  8
0
 62
     0
 10
12.8628
 20
8.51654
 30
0.0
 11
13.0694
 21
8.63889
 31
0.0
  0
LINE
  8
0
 62
     0
 10
13.0694
 20
8.63889
 30
0.0
 11
13.2405
 21
8.76303
 31
0.0
  0
LINE
  8
0
 62
     0
 10
13.2405
 20
8.76303
 30
0.0
 11
13.3785
 21
8.89931
 31
0.0
  0
LINE
  8
0
 62
     0
 10
13.3785
 20
8.89931
 30
0.0
 11
13.4835
 21
9.04775
 31
0.0
  0
LINE
  8
0
 62
     0
 10
13.4835
 20
9.04775
 30
0.0
 11
13.5556
 21
9.20833
 31
0.0
  0
LINE
  8
0
 62
     0
 10
13.5556
 20
9.20833
 30
0.0
 11
13.5894
 21
9.36719
 31
0.0
  0
LINE
  8
0
 62
     0
 10
13.5894
 20
9.36719
 30
0.0
 11
13.5798
 21
9.51042
 31
0.0
  0
LINE
  8
0
 62
     0
 10
13.5798
 20
9.51042
 30
0.0
 11
13.5269
 21
9.63803
 31
0.0
  0
LINE
  8
0
 62
     0
 10
13.5269
 20
9.63803
 30
0.0
 11
13.4306
 21
9.75
 31
0.0
  0
LINE
  8
0
 62
     0
 10
13.4306
 20
9.75
 30
0.0
 11
13.2682
 21
9.85157
 31
0.0
  0
LINE
  8
0
 62
     0
 10
13.2682
 20
9.85157
 30
0.0
 11
13.059
 21
9.92014
 31
0.0
  0
LINE
  8
0
 62
     0
 10
13.059
 20
9.92014
 30
0.0
 11
12.8029
 21
9.95574
 31
0.0
  0
LINE
  8
0
 62
     0
 10
12.8029
 20
9.95574
 30
0.0
 11
12.5
 21
9.95833
 31
0.0
  0
LINE
  8
0
 62
     0
 10
12.5
 20
9.95833
 30
0.0
 11
12.3568
 21
9.9566
 31
0.0
  0
LINE
  8
0
 62
     0
 10
12.3568
 20
9.9566
 30
0.0
 11
12.1771
 21
9.95139
 31
0.0
  0
LINE
  8
0
 62
     0
 10
12.1771
 20
9.95139
 30
0.0
 11
11.9609
 21
9.94271
 31
0.0
  0
LINE
  8
0
 62
     0
 10
11.9609
 20
9.94271
 30
0.0
 11
11.7083
 21
9.93056
 31
0.0
  0
LINE
  8
0
 62
     0
 10
11.7083
 20
9.93056
 30
0.0
 11
11.7083
 21
11.1389
 31
0.0
  0
LINE
  8
0
 62
     0
 10
11.7083
 20
11.1389
 30
0.0
 11
11.8342
 21
11.1077
 31
0.0
  0
LINE
  8
0
 62
     0
 10
11.8342
 20
11.1077
 30
0.0
 11
11.934
 21
11.0834
 31
0.0
  0
LINE
  8
0
 62
     0
 10
11.934
 20
11.0834
 30
0.0
 11
12.0078
 21
11.066
 31
0.0
  0
LINE
  8
0
 62
     0
 10
12.0078
 20
11.066
 30
0.0
 11
12.0556
 21
11.0556
 31
0.0
  0
LINE
  8
0
 62
     0
 10
12.0556
 20
11.0556
 30
0.0
 11
12.1874
 21
11.031
 31
0.0
  0
LINE
  8
0
 62
     0
 10
12.1874
 20
11.031
 30
0.0
 11
12.3402
 21
11.0269
 31
0.0
  0
LINE
  8
0
 62
     0
 10
12.3402
 20
11.0269
 30
0.0
 11
12.5138
 21
11.0432
 31
0.0
  0
LINE
  8
0
 62
     0
 10
12.5138
 20
11.0432
 30
0.0
 11
12.7083
 21
11.0799
 31
0.0
  0
LINE
  8
0
 62
     0
 10
12.7083
 20
11.0799
 30
0.0
 11
12.9236
 21
11.1369
 31
0.0
  0
LINE
  8
0
 62
     0
 10
12.9236
 20
11.1369
 30
0.0
 11
13.1597
 21
11.2144
 31
0.0
  0
LINE
  8
0
 62
     0
 10
13.1597
 20
11.2144
 30
0.0
 11
13.4167
 21
11.3123
 31
0.0
  0
LINE
  8
0
 62
     0
 10
13.4167
 20
11.3123
 30
0.0
 11
13.6944
 21
11.4306
 31
0.0
  0
LINE
  8
0
 62
     0
 10
13.6944
 20
11.4306
 30
0.0
 11
13.9115
 21
11.533
 31
0.0
  0
LINE
  8
0
 62
     0
 10
13.9115
 20
11.533
 30
0.0
 11
14.0903
 21
11.6319
 31
0.0
  0
LINE
  8
0
 62
     0
 10
14.0903
 20
11.6319
 30
0.0
 11
14.231
 21
11.7274
 31
0.0
  0
LINE
  8
0
 62
     0
 10
14.231
 20
11.7274
 30
0.0
 11
14.3333
 21
11.8194
 31
0.0
  0
LINE
  8
0
 62
     0
 10
14.3333
 20
11.8194
 30
0.0
 11
14.401
 21
11.9158
 31
0.0
  0
LINE
  8
0
 62
     0
 10
14.401
 20
11.9158
 30
0.0
 11
14.4097
 21
11.9965
 31
0.0
  0
LINE
  8
0
 62
     0
 10
14.4097
 20
11.9965
 30
0.0
 11
14.3593
 21
12.0616
 31
0.0
  0
LINE
  8
0
 62
     0
 10
14.3593
 20
12.0616
 30
0.0
 11
14.25
 21
12.1111
 31
0.0
  0
LINE
  8
0
 62
     0
 10
14.25
 20
12.1111
 30
0.0
 11
13.6849
 21
12.25
 31
0.0
  0
LINE
  8
0
 62
     0
 10
13.6849
 20
12.25
 30
0.0
 11
13.0729
 21
12.3472
 31
0.0
  0
LINE
  8
0
 62
     0
 10
13.0729
 20
12.3472
 30
0.0
 11
12.4141
 21
12.4028
 31
0.0
  0
LINE
  8
0
 62
     0
 10
12.4141
 20
12.4028
 30
0.0
 11
11.7083
 21
12.4167
 31
0.0
  0
ENDSEC
  0
EOF
