  0
SECTION
  2
HEADER
  9
$ACADVER
  1
AC1009
  9
$EXTMIN
 10
0.0
 20
0.0
 30
0.0
  9
$EXTMAX
 10
1000.0
 20
1000.0
 30
0.0
  9
$FILLMODE
 70
 0
  9
$SPLFRAME
 70
 1
  0
ENDSEC
  0
SECTION
  2
TABLES
  0
TABLE
  2
LAYER
 70
1
  0
LAYER
  2
0
 70
     0
 62
     7
  6
CONTINUOUS
  0
ENDTAB
  0
ENDSEC
  0
SECTION
  2
ENTITIES
  0
LINE
  8
0
 62
     0
 10
9.90278
 20
17.875
 30
0.0
 11
10.2201
 21
17.6774
 31
0.0
  0
LINE
  8
0
 62
     0
 10
10.2201
 20
17.6774
 30
0.0
 11
10.5191
 21
17.4315
 31
0.0
  0
LINE
  8
0
 62
     0
 10
10.5191
 20
17.4315
 30
0.0
 11
10.7999
 21
17.1374
 31
0.0
  0
LINE
  8
0
 62
     0
 10
10.7999
 20
17.1374
 30
0.0
 11
11.0625
 21
16.7951
 31
0.0
  0
LINE
  8
0
 62
     0
 10
11.0625
 20
16.7951
 30
0.0
 11
11.3069
 21
16.4047
 31
0.0
  0
LINE
  8
0
 62
     0
 10
11.3069
 20
16.4047
 30
0.0
 11
11.533
 21
15.9661
 31
0.0
  0
LINE
  8
0
 62
     0
 10
11.533
 20
15.9661
 30
0.0
 11
11.7409
 21
15.4794
 31
0.0
  0
LINE
  8
0
 62
     0
 10
11.7409
 20
15.4794
 30
0.0
 11
11.9306
 21
14.9444
 31
0.0
  0
LINE
  8
0
 62
     0
 10
11.9306
 20
14.9444
 30
0.0
 11
12.105
 21
14.2693
 31
0.0
  0
LINE
  8
0
 62
     0
 10
12.105
 20
14.2693
 30
0.0
 11
12.2049
 21
13.5634
 31
0.0
  0
LINE
  8
0
 62
     0
 10
12.2049
 20
13.5634
 30
0.0
 11
12.23
 21
12.8266
 31
0.0
  0
LINE
  8
0
 62
     0
 10
12.23
 20
12.8266
 30
0.0
 11
12.1806
 21
12.059
 31
0.0
  0
LINE
  8
0
 62
     0
 10
12.1806
 20
12.059
 30
0.0
 11
12.0564
 21
11.2606
 31
0.0
  0
LINE
  8
0
 62
     0
 10
12.0564
 20
11.2606
 30
0.0
 11
11.8576
 21
10.4314
 31
0.0
  0
LINE
  8
0
 62
     0
 10
11.8576
 20
10.4314
 30
0.0
 11
11.5842
 21
9.5714
 31
0.0
  0
LINE
  8
0
 62
     0
 10
11.5842
 20
9.5714
 30
0.0
 11
11.2361
 21
8.68056
 31
0.0
  0
LINE
  8
0
 62
     0
 10
11.2361
 20
8.68056
 30
0.0
 11
10.7405
 21
7.61458
 31
0.0
  0
LINE
  8
0
 62
     0
 10
10.7405
 20
7.61458
 30
0.0
 11
10.1701
 21
6.55556
 31
0.0
  0
LINE
  8
0
 62
     0
 10
10.1701
 20
6.55556
 30
0.0
 11
9.52518
 21
5.50347
 31
0.0
  0
LINE
  8
0
 62
     0
 10
9.52518
 20
5.50347
 30
0.0
 11
8.80556
 21
4.45833
 31
0.0
  0
LINE
  8
0
 62
     0
 10
8.80556
 20
4.45833
 30
0.0
 11
8.30208
 21
3.79839
 31
0.0
  0
LINE
  8
0
 62
     0
 10
8.30208
 20
3.79839
 30
0.0
 11
7.8125
 21
3.22136
 31
0.0
  0
LINE
  8
0
 62
     0
 10
7.8125
 20
3.22136
 30
0.0
 11
7.33681
 21
2.72721
 31
0.0
  0
LINE
  8
0
 62
     0
 10
7.33681
 20
2.72721
 30
0.0
 11
6.875
 21
2.31597
 31
0.0
  0
LINE
  8
0
 62
     0
 10
6.875
 20
2.31597
 30
0.0
 11
6.42708
 21
1.98762
 31
0.0
  0
LINE
  8
0
 62
     0
 10
6.42708
 20
1.98762
 30
0.0
 11
5.99306
 21
1.74219
 31
0.0
  0
LINE
  8
0
 62
     0
 10
5.99306
 20
1.74219
 30
0.0
 11
5.57292
 21
1.57964
 31
0.0
  0
LINE
  8
0
 62
     0
 10
5.57292
 20
1.57964
 30
0.0
 11
5.16667
 21
1.5
 31
0.0
  0
LINE
  8
0
 62
     0
 10
5.16667
 20
1.5
 30
0.0
 11
4.7239
 21
1.82357
 31
0.0
  0
LINE
  8
0
 62
     0
 10
4.7239
 20
1.82357
 30
0.0
 11
4.31939
 21
2.17622
 31
0.0
  0
LINE
  8
0
 62
     0
 10
4.31939
 20
2.17622
 30
0.0
 11
3.95307
 21
2.55794
 31
0.0
  0
LINE
  8
0
 62
     0
 10
3.95307
 20
2.55794
 30
0.0
 11
3.62494
 21
2.96875
 31
0.0
  0
LINE
  8
0
 62
     0
 10
3.62494
 20
2.96875
 30
0.0
 11
3.33501
 21
3.40864
 31
0.0
  0
LINE
  8
0
 62
     0
 10
3.33501
 20
3.40864
 30
0.0
 11
3.08328
 21
3.87761
 31
0.0
  0
LINE
  8
0
 62
     0
 10
3.08328
 20
3.87761
 30
0.0
 11
2.86974
 21
4.37565
 31
0.0
  0
LINE
  8
0
 62
     0
 10
2.86974
 20
4.37565
 30
0.0
 11
2.69444
 21
4.90278
 31
0.0
  0
LINE
  8
0
 62
     0
 10
2.69444
 20
4.90278
 30
0.0
 11
2.57135
 21
5.39328
 31
0.0
  0
LINE
  8
0
 62
     0
 10
2.57135
 20
5.39328
 30
0.0
 11
2.47999
 21
5.89936
 31
0.0
  0
LINE
  8
0
 62
     0
 10
2.47999
 20
5.89936
 30
0.0
 11
2.42031
 21
6.42106
 31
0.0
  0
LINE
  8
0
 62
     0
 10
2.42031
 20
6.42106
 30
0.0
 11
2.39231
 21
6.95833
 31
0.0
  0
LINE
  8
0
 62
     0
 10
2.39231
 20
6.95833
 30
0.0
 11
2.396
 21
7.51129
 31
0.0
  0
LINE
  8
0
 62
     0
 10
2.396
 20
7.51129
 30
0.0
 11
2.43138
 21
8.07986
 31
0.0
  0
LINE
  8
0
 62
     0
 10
2.43138
 20
8.07986
 30
0.0
 11
2.49843
 21
8.66407
 31
0.0
  0
LINE
  8
0
 62
     0
 10
2.49843
 20
8.66407
 30
0.0
 11
2.59722
 21
9.26389
 31
0.0
  0
LINE
  8
0
 62
     0
 10
2.59722
 20
9.26389
 30
0.0
 11
2.84543
 21
10.3646
 31
0.0
  0
LINE
  8
0
 62
     0
 10
2.84543
 20
10.3646
 30
0.0
 11
3.1875
 21
11.4584
 31
0.0
  0
LINE
  8
0
 62
     0
 10
3.1875
 20
11.4584
 30
0.0
 11
3.62326
 21
12.5452
 31
0.0
  0
LINE
  8
0
 62
     0
 10
3.62326
 20
12.5452
 30
0.0
 11
4.15278
 21
13.625
 31
0.0
  0
LINE
  8
0
 62
     0
 10
4.15278
 20
13.625
 30
0.0
 11
4.43186
 21
14.1276
 31
0.0
  0
LINE
  8
0
 62
     0
 10
4.43186
 20
14.1276
 30
0.0
 11
4.72049
 21
14.6076
 31
0.0
  0
LINE
  8
0
 62
     0
 10
4.72049
 20
14.6076
 30
0.0
 11
5.01867
 21
15.0651
 31
0.0
  0
LINE
  8
0
 62
     0
 10
5.01867
 20
15.0651
 30
0.0
 11
5.32639
 21
15.5
 31
0.0
  0
LINE
  8
0
 62
     0
 10
5.32639
 20
15.5
 30
0.0
 11
5.64367
 21
15.9124
 31
0.0
  0
LINE
  8
0
 62
     0
 10
5.64367
 20
15.9124
 30
0.0
 11
5.97049
 21
16.3021
 31
0.0
  0
LINE
  8
0
 62
     0
 10
5.97049
 20
16.3021
 30
0.0
 11
6.30686
 21
16.6693
 31
0.0
  0
LINE
  8
0
 62
     0
 10
6.30686
 20
16.6693
 30
0.0
 11
6.65278
 21
17.0139
 31
0.0
  0
LINE
  8
0
 62
     0
 10
6.65278
 20
17.0139
 30
0.0
 11
7.08637
 21
17.3889
 31
0.0
  0
LINE
  8
0
 62
     0
 10
7.08637
 20
17.3889
 30
0.0
 11
7.51215
 21
17.6875
 31
0.0
  0
LINE
  8
0
 62
     0
 10
7.51215
 20
17.6875
 30
0.0
 11
7.93012
 21
17.9097
 31
0.0
  0
LINE
  8
0
 62
     0
 10
7.93012
 20
17.9097
 30
0.0
 11
8.34028
 21
18.0556
 31
0.0
  0
LINE
  8
0
 62
     0
 10
8.34028
 20
18.0556
 30
0.0
 11
8.74262
 21
18.125
 31
0.0
  0
LINE
  8
0
 62
     0
 10
8.74262
 20
18.125
 30
0.0
 11
9.13715
 21
18.1181
 31
0.0
  0
LINE
  8
0
 62
     0
 10
9.13715
 20
18.1181
 30
0.0
 11
9.52387
 21
18.0347
 31
0.0
  0
LINE
  8
0
 62
     0
 10
9.52387
 20
18.0347
 30
0.0
 11
9.90278
 21
17.875
 31
0.0
  0
LINE
  8
0
 62
     0
 10
3.69444
 20
-0.111111
 30
0.0
 11
3.73611
 21
-0.138889
 31
0.0
  0
LINE
  8
0
 62
     0
 10
3.73611
 20
-0.138889
 30
0.0
 11
3.76389
 21
-0.166667
 31
0.0
  0
LINE
  8
0
 62
     0
 10
3.76389
 20
-0.166667
 30
0.0
 11
4.00603
 21
-0.253418
 31
0.0
  0
LINE
  8
0
 62
     0
 10
4.00603
 20
-0.253418
 30
0.0
 11
4.28814
 21
-0.277778
 31
0.0
  0
LINE
  8
0
 62
     0
 10
4.28814
 20
-0.277778
 30
0.0
 11
4.61019
 21
-0.239583
 31
0.0
  0
LINE
  8
0
 62
     0
 10
4.61019
 20
-0.239583
 30
0.0
 11
4.97222
 21
-0.138889
 31
0.0
  0
LINE
  8
0
 62
     0
 10
4.97222
 20
-0.138889
 30
0.0
 11
5.60656
 21
-0.0399306
 31
0.0
  0
LINE
  8
0
 62
     0
 10
5.60656
 20
-0.0399306
 30
0.0
 11
6.23178
 21
0.131944
 31
0.0
  0
LINE
  8
0
 62
     0
 10
6.23178
 20
0.131944
 30
0.0
 11
6.84788
 21
0.376736
 31
0.0
  0
LINE
  8
0
 62
     0
 10
6.84788
 20
0.376736
 30
0.0
 11
7.45486
 21
0.694444
 31
0.0
  0
LINE
  8
0
 62
     0
 10
7.45486
 20
0.694444
 30
0.0
 11
8.05268
 21
1.08507
 31
0.0
  0
LINE
  8
0
 62
     0
 10
8.05268
 20
1.08507
 30
0.0
 11
8.64144
 21
1.54861
 31
0.0
  0
LINE
  8
0
 62
     0
 10
8.64144
 20
1.54861
 30
0.0
 11
9.22108
 21
2.08507
 31
0.0
  0
LINE
  8
0
 62
     0
 10
9.22108
 20
2.08507
 30
0.0
 11
9.79167
 21
2.69444
 31
0.0
  0
LINE
  8
0
 62
     0
 10
9.79167
 20
2.69444
 30
0.0
 11
9.92985
 21
2.85678
 31
0.0
  0
LINE
  8
0
 62
     0
 10
9.92985
 20
2.85678
 30
0.0
 11
10.0772
 21
3.03803
 31
0.0
  0
LINE
  8
0
 62
     0
 10
10.0772
 20
3.03803
 30
0.0
 11
10.2337
 21
3.23828
 31
0.0
  0
LINE
  8
0
 62
     0
 10
10.2337
 20
3.23828
 30
0.0
 11
10.3992
 21
3.45751
 31
0.0
  0
LINE
  8
0
 62
     0
 10
10.3992
 20
3.45751
 30
0.0
 11
10.5739
 21
3.69575
 31
0.0
  0
LINE
  8
0
 62
     0
 10
10.5739
 20
3.69575
 30
0.0
 11
10.7578
 21
3.95296
 31
0.0
  0
LINE
  8
0
 62
     0
 10
10.7578
 20
3.95296
 30
0.0
 11
10.9507
 21
4.22917
 31
0.0
  0
LINE
  8
0
 62
     0
 10
10.9507
 20
4.22917
 30
0.0
 11
11.1528
 21
4.52436
 31
0.0
  0
LINE
  8
0
 62
     0
 10
11.1528
 20
4.52436
 30
0.0
 11
11.3639
 21
4.83854
 31
0.0
  0
LINE
  8
0
 62
     0
 10
11.3639
 20
4.83854
 30
0.0
 11
11.5842
 21
5.17171
 31
0.0
  0
LINE
  8
0
 62
     0
 10
11.5842
 20
5.17171
 30
0.0
 11
11.8136
 21
5.52387
 31
0.0
  0
LINE
  8
0
 62
     0
 10
11.8136
 20
5.52387
 30
0.0
 11
12.0521
 21
5.89501
 31
0.0
  0
LINE
  8
0
 62
     0
 10
12.0521
 20
5.89501
 30
0.0
 11
12.2997
 21
6.28515
 31
0.0
  0
LINE
  8
0
 62
     0
 10
12.2997
 20
6.28515
 30
0.0
 11
12.5564
 21
6.69428
 31
0.0
  0
LINE
  8
0
 62
     0
 10
12.5564
 20
6.69428
 30
0.0
 11
12.8223
 21
7.1224
 31
0.0
  0
LINE
  8
0
 62
     0
 10
12.8223
 20
7.1224
 30
0.0
 11
13.0972
 21
7.56944
 31
0.0
  0
LINE
  8
0
 62
     0
 10
13.0972
 20
7.56944
 30
0.0
 11
13.5694
 21
8.41818
 31
0.0
  0
LINE
  8
0
 62
     0
 10
13.5694
 20
8.41818
 30
0.0
 11
13.9583
 21
9.28386
 31
0.0
  0
LINE
  8
0
 62
     0
 10
13.9583
 20
9.28386
 30
0.0
 11
14.2639
 21
10.1664
 31
0.0
  0
LINE
  8
0
 62
     0
 10
14.2639
 20
10.1664
 30
0.0
 11
14.4861
 21
11.066
 31
0.0
  0
LINE
  8
0
 62
     0
 10
14.4861
 20
11.066
 30
0.0
 11
14.625
 21
11.9825
 31
0.0
  0
LINE
  8
0
 62
     0
 10
14.625
 20
11.9825
 30
0.0
 11
14.6806
 21
12.9158
 31
0.0
  0
LINE
  8
0
 62
     0
 10
14.6806
 20
12.9158
 30
0.0
 11
14.6528
 21
13.8662
 31
0.0
  0
LINE
  8
0
 62
     0
 10
14.6528
 20
13.8662
 30
0.0
 11
14.5417
 21
14.8333
 31
0.0
  0
LINE
  8
0
 62
     0
 10
14.5417
 20
14.8333
 30
0.0
 11
14.4535
 21
15.3197
 31
0.0
  0
LINE
  8
0
 62
     0
 10
14.4535
 20
15.3197
 30
0.0
 11
14.3419
 21
15.7856
 31
0.0
  0
LINE
  8
0
 62
     0
 10
14.3419
 20
15.7856
 30
0.0
 11
14.2069
 21
16.2311
 31
0.0
  0
LINE
  8
0
 62
     0
 10
14.2069
 20
16.2311
 30
0.0
 11
14.0486
 21
16.6563
 31
0.0
  0
LINE
  8
0
 62
     0
 10
14.0486
 20
16.6563
 30
0.0
 11
13.8667
 21
17.061
 31
0.0
  0
LINE
  8
0
 62
     0
 10
13.8667
 20
17.061
 30
0.0
 11
13.6614
 21
17.4453
 31
0.0
  0
LINE
  8
0
 62
     0
 10
13.6614
 20
17.4453
 30
0.0
 11
13.4327
 21
17.8093
 31
0.0
  0
LINE
  8
0
 62
     0
 10
13.4327
 20
17.8093
 30
0.0
 11
13.1806
 21
18.1528
 31
0.0
  0
LINE
  8
0
 62
     0
 10
13.1806
 20
18.1528
 30
0.0
 11
12.8765
 21
18.5085
 31
0.0
  0
LINE
  8
0
 62
     0
 10
12.8765
 20
18.5085
 30
0.0
 11
12.5477
 21
18.8325
 31
0.0
  0
LINE
  8
0
 62
     0
 10
12.5477
 20
18.8325
 30
0.0
 11
12.1942
 21
19.1247
 31
0.0
  0
LINE
  8
0
 62
     0
 10
12.1942
 20
19.1247
 30
0.0
 11
11.816
 21
19.3854
 31
0.0
  0
LINE
  8
0
 62
     0
 10
11.816
 20
19.3854
 30
0.0
 11
11.413
 21
19.6143
 31
0.0
  0
LINE
  8
0
 62
     0
 10
11.413
 20
19.6143
 30
0.0
 11
10.9852
 21
19.8117
 31
0.0
  0
LINE
  8
0
 62
     0
 10
10.9852
 20
19.8117
 30
0.0
 11
10.5328
 21
19.9772
 31
0.0
  0
LINE
  8
0
 62
     0
 10
10.5328
 20
19.9772
 30
0.0
 11
10.0556
 21
20.1111
 31
0.0
  0
LINE
  8
0
 62
     0
 10
10.0556
 20
20.1111
 30
0.0
 11
9.73247
 21
20.1749
 31
0.0
  0
LINE
  8
0
 62
     0
 10
9.73247
 20
20.1749
 30
0.0
 11
9.4056
 21
20.2101
 31
0.0
  0
LINE
  8
0
 62
     0
 10
9.4056
 20
20.2101
 30
0.0
 11
9.07493
 21
20.2165
 31
0.0
  0
LINE
  8
0
 62
     0
 10
9.07493
 20
20.2165
 30
0.0
 11
8.74046
 21
20.1944
 31
0.0
  0
LINE
  8
0
 62
     0
 10
8.74046
 20
20.1944
 30
0.0
 11
8.40218
 21
20.1436
 31
0.0
  0
LINE
  8
0
 62
     0
 10
8.40218
 20
20.1436
 30
0.0
 11
8.06011
 21
20.0643
 31
0.0
  0
LINE
  8
0
 62
     0
 10
8.06011
 20
20.0643
 30
0.0
 11
7.71425
 21
19.9561
 31
0.0
  0
LINE
  8
0
 62
     0
 10
7.71425
 20
19.9561
 30
0.0
 11
7.36458
 21
19.8194
 31
0.0
  0
LINE
  8
0
 62
     0
 10
7.36458
 20
19.8194
 30
0.0
 11
7.01112
 21
19.654
 31
0.0
  0
LINE
  8
0
 62
     0
 10
7.01112
 20
19.654
 30
0.0
 11
6.65386
 21
19.4601
 31
0.0
  0
LINE
  8
0
 62
     0
 10
6.65386
 20
19.4601
 30
0.0
 11
6.29281
 21
19.2374
 31
0.0
  0
LINE
  8
0
 62
     0
 10
6.29281
 20
19.2374
 30
0.0
 11
5.92796
 21
18.9861
 31
0.0
  0
LINE
  8
0
 62
     0
 10
5.92796
 20
18.9861
 30
0.0
 11
5.55931
 21
18.7061
 31
0.0
  0
LINE
  8
0
 62
     0
 10
5.55931
 20
18.7061
 30
0.0
 11
5.18685
 21
18.3976
 31
0.0
  0
LINE
  8
0
 62
     0
 10
5.18685
 20
18.3976
 30
0.0
 11
4.8106
 21
18.0603
 31
0.0
  0
LINE
  8
0
 62
     0
 10
4.8106
 20
18.0603
 30
0.0
 11
4.43056
 21
17.6944
 31
0.0
  0
LINE
  8
0
 62
     0
 10
4.43056
 20
17.6944
 30
0.0
 11
3.80701
 21
17.0456
 31
0.0
  0
LINE
  8
0
 62
     0
 10
3.80701
 20
17.0456
 30
0.0
 11
3.23519
 21
16.3907
 31
0.0
  0
LINE
  8
0
 62
     0
 10
3.23519
 20
16.3907
 30
0.0
 11
2.715
 21
15.7296
 31
0.0
  0
LINE
  8
0
 62
     0
 10
2.715
 20
15.7296
 30
0.0
 11
2.24647
 21
15.0625
 31
0.0
  0
LINE
  8
0
 62
     0
 10
2.24647
 20
15.0625
 30
0.0
 11
1.82958
 21
14.3893
 31
0.0
  0
LINE
  8
0
 62
     0
 10
1.82958
 20
14.3893
 30
0.0
 11
1.46436
 21
13.7101
 31
0.0
  0
LINE
  8
0
 62
     0
 10
1.46436
 20
13.7101
 30
0.0
 11
1.15077
 21
13.0247
 31
0.0
  0
LINE
  8
0
 62
     0
 10
1.15077
 20
13.0247
 30
0.0
 11
0.888889
 21
12.3333
 31
0.0
  0
LINE
  8
0
 62
     0
 10
0.888889
 20
12.3333
 30
0.0
 11
0.618218
 21
11.4733
 31
0.0
  0
LINE
  8
0
 62
     0
 10
0.618218
 20
11.4733
 30
0.0
 11
0.396647
 21
10.6224
 31
0.0
  0
LINE
  8
0
 62
     0
 10
0.396647
 20
10.6224
 30
0.0
 11
0.224121
 21
9.7806
 31
0.0
  0
LINE
  8
0
 62
     0
 10
0.224121
 20
9.7806
 30
0.0
 11
0.10064
 21
8.94792
 31
0.0
  0
LINE
  8
0
 62
     0
 10
0.10064
 20
8.94792
 30
0.0
 11
0.0262044
 21
8.12435
 31
0.0
  0
LINE
  8
0
 62
     0
 10
0.0262044
 20
8.12435
 30
0.0
 11
0.000813803
 21
7.3099
 31
0.0
  0
LINE
  8
0
 62
     0
 10
0.000813803
 20
7.3099
 30
0.0
 11
0.0244683
 21
6.50456
 31
0.0
  0
LINE
  8
0
 62
     0
 10
0.0244683
 20
6.50456
 30
0.0
 11
0.0972222
 21
5.70833
 31
0.0
  0
LINE
  8
0
 62
     0
 10
0.0972222
 20
5.70833
 30
0.0
 11
0.164822
 21
5.24724
 31
0.0
  0
LINE
  8
0
 62
     0
 10
0.164822
 20
5.24724
 30
0.0
 11
0.249567
 21
4.80143
 31
0.0
  0
LINE
  8
0
 62
     0
 10
0.249567
 20
4.80143
 30
0.0
 11
0.351454
 21
4.37093
 31
0.0
  0
LINE
  8
0
 62
     0
 10
0.351454
 20
4.37093
 30
0.0
 11
0.470486
 21
3.95574
 31
0.0
  0
LINE
  8
0
 62
     0
 10
0.470486
 20
3.95574
 30
0.0
 11
0.606662
 21
3.55583
 31
0.0
  0
LINE
  8
0
 62
     0
 10
0.606662
 20
3.55583
 30
0.0
 11
0.759983
 21
3.17122
 31
0.0
  0
LINE
  8
0
 62
     0
 10
0.759983
 20
3.17122
 30
0.0
 11
0.930447
 21
2.80192
 31
0.0
  0
LINE
  8
0
 62
     0
 10
0.930447
 20
2.80192
 30
0.0
 11
1.11806
 21
2.44792
 31
0.0
  0
LINE
  8
0
 62
     0
 10
1.11806
 20
2.44792
 30
0.0
 11
1.32281
 21
2.10921
 31
0.0
  0
LINE
  8
0
 62
     0
 10
1.32281
 20
2.10921
 30
0.0
 11
1.54471
 21
1.78581
 31
0.0
  0
LINE
  8
0
 62
     0
 10
1.54471
 20
1.78581
 30
0.0
 11
1.78375
 21
1.47771
 31
0.0
  0
LINE
  8
0
 62
     0
 10
1.78375
 20
1.47771
 30
0.0
 11
2.03993
 21
1.1849
 31
0.0
  0
LINE
  8
0
 62
     0
 10
2.03993
 20
1.1849
 30
0.0
 11
2.31326
 21
0.907389
 31
0.0
  0
LINE
  8
0
 62
     0
 10
2.31326
 20
0.907389
 30
0.0
 11
2.60374
 21
0.645182
 31
0.0
  0
LINE
  8
0
 62
     0
 10
2.60374
 20
0.645182
 30
0.0
 11
2.91135
 21
0.398275
 31
0.0
  0
LINE
  8
0
 62
     0
 10
2.91135
 20
0.398275
 30
0.0
 11
3.23611
 21
0.166667
 31
0.0
  0
LINE
  8
0
 62
     0
 10
3.23611
 20
0.166667
 30
0.0
 11
3.30122
 21
0.0711806
 31
0.0
  0
LINE
  8
0
 62
     0
 10
3.30122
 20
0.0711806
 30
0.0
 11
3.39931
 21
-0.00694444
 31
0.0
  0
LINE
  8
0
 62
     0
 10
3.39931
 20
-0.00694444
 30
0.0
 11
3.53039
 21
-0.0677083
 31
0.0
  0
LINE
  8
0
 62
     0
 10
3.53039
 20
-0.0677083
 30
0.0
 11
3.69444
 21
-0.111111
 31
0.0
  0
LINE
  8
0
 62
     0
 10
4.06944
 20
20.75
 30
0.0
 11
4.0911
 21
20.6465
 31
0.0
  0
LINE
  8
0
 62
     0
 10
4.0911
 20
20.6465
 30
0.0
 11
4.15619
 21
20.5587
 31
0.0
  0
LINE
  8
0
 62
     0
 10
4.15619
 20
20.5587
 30
0.0
 11
4.26471
 21
20.4868
 31
0.0
  0
LINE
  8
0
 62
     0
 10
4.26471
 20
20.4868
 30
0.0
 11
4.41667
 21
20.4306
 31
0.0
  0
LINE
  8
0
 62
     0
 10
4.41667
 20
20.4306
 30
0.0
 11
4.57206
 21
20.3967
 31
0.0
  0
LINE
  8
0
 62
     0
 10
4.57206
 20
20.3967
 30
0.0
 11
4.74653
 21
20.3785
 31
0.0
  0
LINE
  8
0
 62
     0
 10
4.74653
 20
20.3785
 30
0.0
 11
4.94011
 21
20.3758
 31
0.0
  0
LINE
  8
0
 62
     0
 10
4.94011
 20
20.3758
 30
0.0
 11
5.15278
 21
20.3889
 31
0.0
  0
LINE
  8
0
 62
     0
 10
5.15278
 20
20.3889
 30
0.0
 11
5.55208
 21
20.4653
 31
0.0
  0
LINE
  8
0
 62
     0
 10
5.55208
 20
20.4653
 30
0.0
 11
5.88889
 21
20.5833
 31
0.0
  0
LINE
  8
0
 62
     0
 10
5.88889
 20
20.5833
 30
0.0
 11
6.03472
 21
20.6554
 31
0.0
  0
LINE
  8
0
 62
     0
 10
6.03472
 20
20.6554
 30
0.0
 11
6.13889
 21
20.7326
 31
0.0
  0
LINE
  8
0
 62
     0
 10
6.13889
 20
20.7326
 30
0.0
 11
6.20139
 21
20.8151
 31
0.0
  0
LINE
  8
0
 62
     0
 10
6.20139
 20
20.8151
 30
0.0
 11
6.22222
 21
20.9028
 31
0.0
  0
LINE
  8
0
 62
     0
 10
6.22222
 20
20.9028
 30
0.0
 11
6.22222
 21
22.5833
 31
0.0
  0
LINE
  8
0
 62
     0
 10
6.22222
 20
22.5833
 30
0.0
 11
6.20139
 21
22.6858
 31
0.0
  0
LINE
  8
0
 62
     0
 10
6.20139
 20
22.6858
 30
0.0
 11
6.13889
 21
22.7708
 31
0.0
  0
LINE
  8
0
 62
     0
 10
6.13889
 20
22.7708
 30
0.0
 11
6.03472
 21
22.8386
 31
0.0
  0
LINE
  8
0
 62
     0
 10
6.03472
 20
22.8386
 30
0.0
 11
5.88889
 21
22.8889
 31
0.0
  0
LINE
  8
0
 62
     0
 10
5.88889
 20
22.8889
 30
0.0
 11
5.73346
 21
22.9228
 31
0.0
  0
LINE
  8
0
 62
     0
 10
5.73346
 20
22.9228
 30
0.0
 11
5.55897
 21
22.941
 31
0.0
  0
LINE
  8
0
 62
     0
 10
5.55897
 20
22.941
 30
0.0
 11
5.3654
 21
22.9436
 31
0.0
  0
LINE
  8
0
 62
     0
 10
5.3654
 20
22.9436
 30
0.0
 11
5.15278
 21
22.9306
 31
0.0
  0
LINE
  8
0
 62
     0
 10
5.15278
 20
22.9306
 30
0.0
 11
4.94526
 21
22.9037
 31
0.0
  0
LINE
  8
0
 62
     0
 10
4.94526
 20
22.9037
 30
0.0
 11
4.75342
 21
22.8646
 31
0.0
  0
LINE
  8
0
 62
     0
 10
4.75342
 20
22.8646
 30
0.0
 11
4.57721
 21
22.8135
 31
0.0
  0
LINE
  8
0
 62
     0
 10
4.57721
 20
22.8135
 30
0.0
 11
4.41667
 21
22.75
 31
0.0
  0
LINE
  8
0
 62
     0
 10
4.41667
 20
22.75
 30
0.0
 11
4.26471
 21
22.6719
 31
0.0
  0
LINE
  8
0
 62
     0
 10
4.26471
 20
22.6719
 30
0.0
 11
4.15619
 21
22.5903
 31
0.0
  0
LINE
  8
0
 62
     0
 10
4.15619
 20
22.5903
 30
0.0
 11
4.0911
 21
22.5053
 31
0.0
  0
LINE
  8
0
 62
     0
 10
4.0911
 20
22.5053
 30
0.0
 11
4.06944
 21
22.4167
 31
0.0
  0
LINE
  8
0
 62
     0
 10
4.06944
 20
22.4167
 30
0.0
 11
4.06944
 21
20.75
 31
0.0
  0
LINE
  8
0
 62
     0
 10
9.90278
 20
21.0139
 30
0.0
 11
9.92361
 21
20.9383
 31
0.0
  0
LINE
  8
0
 62
     0
 10
9.92361
 20
20.9383
 30
0.0
 11
9.98611
 21
20.8785
 31
0.0
  0
LINE
  8
0
 62
     0
 10
9.98611
 20
20.8785
 30
0.0
 11
10.0903
 21
20.8342
 31
0.0
  0
LINE
  8
0
 62
     0
 10
10.0903
 20
20.8342
 30
0.0
 11
10.2361
 21
20.8056
 31
0.0
  0
LINE
  8
0
 62
     0
 10
10.2361
 20
20.8056
 30
0.0
 11
10.3967
 21
20.7908
 31
0.0
  0
LINE
  8
0
 62
     0
 10
10.3967
 20
20.7908
 30
0.0
 11
10.5729
 21
20.7882
 31
0.0
  0
LINE
  8
0
 62
     0
 10
10.5729
 20
20.7882
 30
0.0
 11
10.7648
 21
20.7978
 31
0.0
  0
LINE
  8
0
 62
     0
 10
10.7648
 20
20.7978
 30
0.0
 11
10.9722
 21
20.8194
 31
0.0
  0
LINE
  8
0
 62
     0
 10
10.9722
 20
20.8194
 30
0.0
 11
11.1848
 21
20.8585
 31
0.0
  0
LINE
  8
0
 62
     0
 10
11.1848
 20
20.8585
 30
0.0
 11
11.3784
 21
20.9063
 31
0.0
  0
LINE
  8
0
 62
     0
 10
11.3784
 20
20.9063
 30
0.0
 11
11.5529
 21
20.9626
 31
0.0
  0
LINE
  8
0
 62
     0
 10
11.5529
 20
20.9626
 30
0.0
 11
11.7083
 21
21.0278
 31
0.0
  0
LINE
  8
0
 62
     0
 10
11.7083
 20
21.0278
 30
0.0
 11
11.8542
 21
21.1129
 31
0.0
  0
LINE
  8
0
 62
     0
 10
11.8542
 20
21.1129
 30
0.0
 11
11.9583
 21
21.2014
 31
0.0
  0
LINE
  8
0
 62
     0
 10
11.9583
 20
21.2014
 30
0.0
 11
12.0208
 21
21.2935
 31
0.0
  0
LINE
  8
0
 62
     0
 10
12.0208
 20
21.2935
 30
0.0
 11
12.0417
 21
21.3889
 31
0.0
  0
LINE
  8
0
 62
     0
 10
12.0417
 20
21.3889
 30
0.0
 11
12.0417
 21
23.0556
 31
0.0
  0
LINE
  8
0
 62
     0
 10
12.0417
 20
23.0556
 30
0.0
 11
12.0208
 21
23.1311
 31
0.0
  0
LINE
  8
0
 62
     0
 10
12.0208
 20
23.1311
 30
0.0
 11
11.9583
 21
23.191
 31
0.0
  0
LINE
  8
0
 62
     0
 10
11.9583
 20
23.191
 30
0.0
 11
11.8542
 21
23.2353
 31
0.0
  0
LINE
  8
0
 62
     0
 10
11.8542
 20
23.2353
 30
0.0
 11
11.7083
 21
23.2639
 31
0.0
  0
LINE
  8
0
 62
     0
 10
11.7083
 20
23.2639
 30
0.0
 11
11.5477
 21
23.2778
 31
0.0
  0
LINE
  8
0
 62
     0
 10
11.5477
 20
23.2778
 30
0.0
 11
11.3715
 21
23.2778
 31
0.0
  0
LINE
  8
0
 62
     0
 10
11.3715
 20
23.2778
 30
0.0
 11
11.1797
 21
23.2639
 31
0.0
  0
LINE
  8
0
 62
     0
 10
11.1797
 20
23.2639
 30
0.0
 11
10.9722
 21
23.2361
 31
0.0
  0
LINE
  8
0
 62
     0
 10
10.9722
 20
23.2361
 30
0.0
 11
10.5729
 21
23.1563
 31
0.0
  0
LINE
  8
0
 62
     0
 10
10.5729
 20
23.1563
 30
0.0
 11
10.2361
 21
23.0278
 31
0.0
  0
LINE
  8
0
 62
     0
 10
10.2361
 20
23.0278
 30
0.0
 11
10.0903
 21
22.9489
 31
0.0
  0
LINE
  8
0
 62
     0
 10
10.0903
 20
22.9489
 30
0.0
 11
9.98611
 21
22.8646
 31
0.0
  0
LINE
  8
0
 62
     0
 10
9.98611
 20
22.8646
 30
0.0
 11
9.92361
 21
22.7751
 31
0.0
  0
LINE
  8
0
 62
     0
 10
9.92361
 20
22.7751
 30
0.0
 11
9.90278
 21
22.6806
 31
0.0
  0
LINE
  8
0
 62
     0
 10
9.90278
 20
22.6806
 30
0.0
 11
9.90278
 21
21.0139
 31
0.0
  0
ENDSEC
  0
EOF
