  0
SECTION
  2
HEADER
  9
$ACADVER
  1
AC1009
  9
$EXTMIN
 10
0.0
 20
0.0
 30
0.0
  9
$EXTMAX
 10
1000.0
 20
1000.0
 30
0.0
  9
$FILLMODE
 70
 0
  9
$SPLFRAME
 70
 1
  0
ENDSEC
  0
SECTION
  2
TABLES
  0
TABLE
  2
LAYER
 70
1
  0
LAYER
  2
0
 70
     0
 62
     7
  6
CONTINUOUS
  0
ENDTAB
  0
ENDSEC
  0
SECTION
  2
ENTITIES
  0
LINE
  8
0
 62
     0
 10
2.27778
 20
14.625
 30
0.0
 11
2.18485
 21
14.4519
 31
0.0
  0
LINE
  8
0
 62
     0
 10
2.18485
 20
14.4519
 30
0.0
 11
2.07981
 21
14.2588
 31
0.0
  0
LINE
  8
0
 62
     0
 10
2.07981
 20
14.2588
 30
0.0
 11
1.96263
 21
14.0457
 31
0.0
  0
LINE
  8
0
 62
     0
 10
1.96263
 20
14.0457
 30
0.0
 11
1.83328
 21
13.8126
 31
0.0
  0
LINE
  8
0
 62
     0
 10
1.83328
 20
13.8126
 30
0.0
 11
1.69179
 21
13.5595
 31
0.0
  0
LINE
  8
0
 62
     0
 10
1.69179
 20
13.5595
 30
0.0
 11
1.53814
 21
13.2865
 31
0.0
  0
LINE
  8
0
 62
     0
 10
1.53814
 20
13.2865
 30
0.0
 11
1.37234
 21
12.9935
 31
0.0
  0
LINE
  8
0
 62
     0
 10
1.37234
 20
12.9935
 30
0.0
 11
1.19444
 21
12.6806
 31
0.0
  0
LINE
  8
0
 62
     0
 10
1.19444
 20
12.6806
 30
0.0
 11
1.01649
 21
12.3642
 31
0.0
  0
LINE
  8
0
 62
     0
 10
1.01649
 20
12.3642
 30
0.0
 11
0.850694
 21
12.0677
 31
0.0
  0
LINE
  8
0
 62
     0
 10
0.850694
 20
12.0677
 30
0.0
 11
0.697049
 21
11.7912
 31
0.0
  0
LINE
  8
0
 62
     0
 10
0.697049
 20
11.7912
 30
0.0
 11
0.555556
 21
11.5347
 31
0.0
  0
LINE
  8
0
 62
     0
 10
0.555556
 20
11.5347
 30
0.0
 11
0.426215
 21
11.2982
 31
0.0
  0
LINE
  8
0
 62
     0
 10
0.426215
 20
11.2982
 30
0.0
 11
0.309028
 21
11.0816
 31
0.0
  0
LINE
  8
0
 62
     0
 10
0.309028
 20
11.0816
 30
0.0
 11
0.203993
 21
10.885
 31
0.0
  0
LINE
  8
0
 62
     0
 10
0.203993
 20
10.885
 30
0.0
 11
0.111111
 21
10.7083
 31
0.0
  0
LINE
  8
0
 62
     0
 10
0.111111
 20
10.7083
 30
0.0
 11
0.0190972
 21
10.4835
 31
0.0
  0
LINE
  8
0
 62
     0
 10
0.0190972
 20
10.4835
 30
0.0
 11
-0.00694444
 21
10.2813
 31
0.0
  0
LINE
  8
0
 62
     0
 10
-0.00694444
 20
10.2813
 30
0.0
 11
0.0329861
 21
10.1016
 31
0.0
  0
LINE
  8
0
 62
     0
 10
0.0329861
 20
10.1016
 30
0.0
 11
0.138889
 21
9.94444
 31
0.0
  0
LINE
  8
0
 62
     0
 10
0.138889
 20
9.94444
 30
0.0
 11
0.282932
 21
9.83333
 31
0.0
  0
LINE
  8
0
 62
     0
 10
0.282932
 20
9.83333
 30
0.0
 11
0.465224
 21
9.75
 31
0.0
  0
LINE
  8
0
 62
     0
 10
0.465224
 20
9.75
 30
0.0
 11
0.68571
 21
9.69444
 31
0.0
  0
LINE
  8
0
 62
     0
 10
0.68571
 20
9.69444
 30
0.0
 11
0.944444
 21
9.66667
 31
0.0
  0
LINE
  8
0
 62
     0
 10
0.944444
 20
9.66667
 30
0.0
 11
1.21267
 21
9.66672
 31
0.0
  0
LINE
  8
0
 62
     0
 10
1.21267
 20
9.66672
 30
0.0
 11
1.47569
 21
9.6945
 31
0.0
  0
LINE
  8
0
 62
     0
 10
1.47569
 20
9.6945
 30
0.0
 11
1.73351
 21
9.75006
 31
0.0
  0
LINE
  8
0
 62
     0
 10
1.73351
 20
9.75006
 30
0.0
 11
1.98611
 21
9.83333
 31
0.0
  0
LINE
  8
0
 62
     0
 10
1.98611
 20
9.83333
 30
0.0
 11
2.23525
 21
9.94792
 31
0.0
  0
LINE
  8
0
 62
     0
 10
2.23525
 20
9.94792
 30
0.0
 11
2.44097
 21
10.0833
 31
0.0
  0
LINE
  8
0
 62
     0
 10
2.44097
 20
10.0833
 30
0.0
 11
2.60331
 21
10.2396
 31
0.0
  0
LINE
  8
0
 62
     0
 10
2.60331
 20
10.2396
 30
0.0
 11
2.72222
 21
10.4167
 31
0.0
  0
LINE
  8
0
 62
     0
 10
2.72222
 20
10.4167
 30
0.0
 11
2.79318
 21
10.5484
 31
0.0
  0
LINE
  8
0
 62
     0
 10
2.79318
 20
10.5484
 30
0.0
 11
2.89497
 21
10.7352
 31
0.0
  0
LINE
  8
0
 62
     0
 10
2.89497
 20
10.7352
 30
0.0
 11
3.02756
 21
10.9772
 31
0.0
  0
LINE
  8
0
 62
     0
 10
3.02756
 20
10.9772
 30
0.0
 11
3.19097
 21
11.2743
 31
0.0
  0
LINE
  8
0
 62
     0
 10
3.19097
 20
11.2743
 30
0.0
 11
3.38519
 21
11.6265
 31
0.0
  0
LINE
  8
0
 62
     0
 10
3.38519
 20
11.6265
 30
0.0
 11
3.61025
 21
12.0339
 31
0.0
  0
LINE
  8
0
 62
     0
 10
3.61025
 20
12.0339
 30
0.0
 11
3.8661
 21
12.4963
 31
0.0
  0
LINE
  8
0
 62
     0
 10
3.8661
 20
12.4963
 30
0.0
 11
4.15278
 21
13.0139
 31
0.0
  0
LINE
  8
0
 62
     0
 10
4.15278
 20
13.0139
 30
0.0
 11
4.20763
 21
11.9477
 31
0.0
  0
LINE
  8
0
 62
     0
 10
4.20763
 20
11.9477
 30
0.0
 11
4.25776
 21
10.9226
 31
0.0
  0
LINE
  8
0
 62
     0
 10
4.25776
 20
10.9226
 30
0.0
 11
4.30311
 21
9.93858
 31
0.0
  0
LINE
  8
0
 62
     0
 10
4.30311
 20
9.93858
 30
0.0
 11
4.34369
 21
8.99571
 31
0.0
  0
LINE
  8
0
 62
     0
 10
4.34369
 20
8.99571
 30
0.0
 11
4.3795
 21
8.09397
 31
0.0
  0
LINE
  8
0
 62
     0
 10
4.3795
 20
8.09397
 30
0.0
 11
4.41054
 21
7.23335
 31
0.0
  0
LINE
  8
0
 62
     0
 10
4.41054
 20
7.23335
 30
0.0
 11
4.43679
 21
6.41385
 31
0.0
  0
LINE
  8
0
 62
     0
 10
4.43679
 20
6.41385
 30
0.0
 11
4.45828
 21
5.63547
 31
0.0
  0
LINE
  8
0
 62
     0
 10
4.45828
 20
5.63547
 30
0.0
 11
4.47499
 21
4.89822
 31
0.0
  0
LINE
  8
0
 62
     0
 10
4.47499
 20
4.89822
 30
0.0
 11
4.48693
 21
4.2021
 31
0.0
  0
LINE
  8
0
 62
     0
 10
4.48693
 20
4.2021
 30
0.0
 11
4.49408
 21
3.5471
 31
0.0
  0
LINE
  8
0
 62
     0
 10
4.49408
 20
3.5471
 30
0.0
 11
4.49647
 21
2.93321
 31
0.0
  0
LINE
  8
0
 62
     0
 10
4.49647
 20
2.93321
 30
0.0
 11
4.49408
 21
2.36046
 31
0.0
  0
LINE
  8
0
 62
     0
 10
4.49408
 20
2.36046
 30
0.0
 11
4.48693
 21
1.82883
 31
0.0
  0
LINE
  8
0
 62
     0
 10
4.48693
 20
1.82883
 30
0.0
 11
4.47499
 21
1.33832
 31
0.0
  0
LINE
  8
0
 62
     0
 10
4.47499
 20
1.33832
 30
0.0
 11
4.45833
 21
0.888889
 31
0.0
  0
LINE
  8
0
 62
     0
 10
4.45833
 20
0.888889
 30
0.0
 11
4.47825
 21
0.655382
 31
0.0
  0
LINE
  8
0
 62
     0
 10
4.47825
 20
0.655382
 30
0.0
 11
4.55203
 21
0.454861
 31
0.0
  0
LINE
  8
0
 62
     0
 10
4.55203
 20
0.454861
 30
0.0
 11
4.67964
 21
0.287326
 31
0.0
  0
LINE
  8
0
 62
     0
 10
4.67964
 20
0.287326
 30
0.0
 11
4.86111
 21
0.152778
 31
0.0
  0
LINE
  8
0
 62
     0
 10
4.86111
 20
0.152778
 30
0.0
 11
5.06076
 21
0.0660265
 31
0.0
  0
LINE
  8
0
 62
     0
 10
5.06076
 20
0.0660265
 30
0.0
 11
5.28472
 21
0.0139432
 31
0.0
  0
LINE
  8
0
 62
     0
 10
5.28472
 20
0.0139432
 30
0.0
 11
5.53299
 21
-0.00341797
 31
0.0
  0
LINE
  8
0
 62
     0
 10
5.53299
 20
-0.00341797
 30
0.0
 11
5.80556
 21
0.0138889
 31
0.0
  0
LINE
  8
0
 62
     0
 10
5.80556
 20
0.0138889
 30
0.0
 11
6.07379
 21
0.0616319
 31
0.0
  0
LINE
  8
0
 62
     0
 10
6.07379
 20
0.0616319
 30
0.0
 11
6.32292
 21
0.135417
 31
0.0
  0
LINE
  8
0
 62
     0
 10
6.32292
 20
0.135417
 30
0.0
 11
6.55296
 21
0.235297
 31
0.0
  0
LINE
  8
0
 62
     0
 10
6.55296
 20
0.235297
 30
0.0
 11
6.76389
 21
0.361111
 31
0.0
  0
LINE
  8
0
 62
     0
 10
6.76389
 20
0.361111
 30
0.0
 11
6.96001
 21
0.527778
 31
0.0
  0
LINE
  8
0
 62
     0
 10
6.96001
 20
0.527778
 30
0.0
 11
7.10417
 21
0.708333
 31
0.0
  0
LINE
  8
0
 62
     0
 10
7.10417
 20
0.708333
 30
0.0
 11
7.19618
 21
0.902778
 31
0.0
  0
LINE
  8
0
 62
     0
 10
7.19618
 20
0.902778
 30
0.0
 11
7.23611
 21
1.11111
 31
0.0
  0
LINE
  8
0
 62
     0
 10
7.23611
 20
1.11111
 30
0.0
 11
7.26411
 21
1.99522
 31
0.0
  0
LINE
  8
0
 62
     0
 10
7.26411
 20
1.99522
 30
0.0
 11
7.27865
 21
2.94618
 31
0.0
  0
LINE
  8
0
 62
     0
 10
7.27865
 20
2.94618
 30
0.0
 11
7.27974
 21
3.96397
 31
0.0
  0
LINE
  8
0
 62
     0
 10
7.27974
 20
3.96397
 30
0.0
 11
7.26736
 21
5.04861
 31
0.0
  0
LINE
  8
0
 62
     0
 10
7.26736
 20
5.04861
 30
0.0
 11
7.24154
 21
6.20008
 31
0.0
  0
LINE
  8
0
 62
     0
 10
7.24154
 20
6.20008
 30
0.0
 11
7.20226
 21
7.4184
 31
0.0
  0
LINE
  8
0
 62
     0
 10
7.20226
 20
7.4184
 30
0.0
 11
7.14953
 21
8.70356
 31
0.0
  0
LINE
  8
0
 62
     0
 10
7.14953
 20
8.70356
 30
0.0
 11
7.08333
 21
10.0556
 31
0.0
  0
LINE
  8
0
 62
     0
 10
7.08333
 20
10.0556
 30
0.0
 11
7.0395
 21
10.9011
 31
0.0
  0
LINE
  8
0
 62
     0
 10
7.0395
 20
10.9011
 30
0.0
 11
6.99826
 21
11.7084
 31
0.0
  0
LINE
  8
0
 62
     0
 10
6.99826
 20
11.7084
 30
0.0
 11
6.95964
 21
12.4775
 31
0.0
  0
LINE
  8
0
 62
     0
 10
6.95964
 20
12.4775
 30
0.0
 11
6.92361
 21
13.2084
 31
0.0
  0
LINE
  8
0
 62
     0
 10
6.92361
 20
13.2084
 30
0.0
 11
6.89019
 21
13.9011
 31
0.0
  0
LINE
  8
0
 62
     0
 10
6.89019
 20
13.9011
 30
0.0
 11
6.85938
 21
14.5556
 31
0.0
  0
LINE
  8
0
 62
     0
 10
6.85938
 20
14.5556
 30
0.0
 11
6.83117
 21
15.1719
 31
0.0
  0
LINE
  8
0
 62
     0
 10
6.83117
 20
15.1719
 30
0.0
 11
6.80556
 21
15.75
 31
0.0
  0
LINE
  8
0
 62
     0
 10
6.80556
 20
15.75
 30
0.0
 11
6.7825
 21
16.29
 31
0.0
  0
LINE
  8
0
 62
     0
 10
6.7825
 20
16.29
 30
0.0
 11
6.7621
 21
16.7917
 31
0.0
  0
LINE
  8
0
 62
     0
 10
6.7621
 20
16.7917
 30
0.0
 11
6.74431
 21
17.2553
 31
0.0
  0
LINE
  8
0
 62
     0
 10
6.74431
 20
17.2553
 30
0.0
 11
6.72911
 21
17.6806
 31
0.0
  0
LINE
  8
0
 62
     0
 10
6.72911
 20
17.6806
 30
0.0
 11
6.71653
 21
18.0678
 31
0.0
  0
LINE
  8
0
 62
     0
 10
6.71653
 20
18.0678
 30
0.0
 11
6.70654
 21
18.4167
 31
0.0
  0
LINE
  8
0
 62
     0
 10
6.70654
 20
18.4167
 30
0.0
 11
6.69917
 21
18.7275
 31
0.0
  0
LINE
  8
0
 62
     0
 10
6.69917
 20
18.7275
 30
0.0
 11
6.69444
 21
19
 31
0.0
  0
LINE
  8
0
 62
     0
 10
6.69444
 20
19
 30
0.0
 11
6.67014
 21
19.2396
 31
0.0
  0
LINE
  8
0
 62
     0
 10
6.67014
 20
19.2396
 30
0.0
 11
6.59722
 21
19.4444
 31
0.0
  0
LINE
  8
0
 62
     0
 10
6.59722
 20
19.4444
 30
0.0
 11
6.47569
 21
19.6146
 31
0.0
  0
LINE
  8
0
 62
     0
 10
6.47569
 20
19.6146
 30
0.0
 11
6.30556
 21
19.75
 31
0.0
  0
LINE
  8
0
 62
     0
 10
6.30556
 20
19.75
 30
0.0
 11
6.11458
 21
19.8299
 31
0.0
  0
LINE
  8
0
 62
     0
 10
6.11458
 20
19.8299
 30
0.0
 11
5.90278
 21
19.875
 31
0.0
  0
LINE
  8
0
 62
     0
 10
5.90278
 20
19.875
 30
0.0
 11
5.67008
 21
19.8854
 31
0.0
  0
LINE
  8
0
 62
     0
 10
5.67008
 20
19.8854
 30
0.0
 11
5.41667
 21
19.8611
 31
0.0
  0
LINE
  8
0
 62
     0
 10
5.41667
 20
19.8611
 30
0.0
 11
5.15972
 21
19.8125
 31
0.0
  0
LINE
  8
0
 62
     0
 10
5.15972
 20
19.8125
 30
0.0
 11
4.91667
 21
19.7361
 31
0.0
  0
LINE
  8
0
 62
     0
 10
4.91667
 20
19.7361
 30
0.0
 11
4.6875
 21
19.6319
 31
0.0
  0
LINE
  8
0
 62
     0
 10
4.6875
 20
19.6319
 30
0.0
 11
4.47222
 21
19.5
 31
0.0
  0
LINE
  8
0
 62
     0
 10
4.47222
 20
19.5
 30
0.0
 11
4.27171
 21
19.3351
 31
0.0
  0
LINE
  8
0
 62
     0
 10
4.27171
 20
19.3351
 30
0.0
 11
4.11458
 21
19.1597
 31
0.0
  0
LINE
  8
0
 62
     0
 10
4.11458
 20
19.1597
 30
0.0
 11
4.00087
 21
18.974
 31
0.0
  0
LINE
  8
0
 62
     0
 10
4.00087
 20
18.974
 30
0.0
 11
3.93056
 21
18.7778
 31
0.0
  0
LINE
  8
0
 62
     0
 10
3.93056
 20
18.7778
 30
0.0
 11
3.80751
 21
18.3087
 31
0.0
  0
LINE
  8
0
 62
     0
 10
3.80751
 20
18.3087
 30
0.0
 11
3.6606
 21
17.8256
 31
0.0
  0
LINE
  8
0
 62
     0
 10
3.6606
 20
17.8256
 30
0.0
 11
3.48981
 21
17.3279
 31
0.0
  0
LINE
  8
0
 62
     0
 10
3.48981
 20
17.3279
 30
0.0
 11
3.29514
 21
16.816
 31
0.0
  0
LINE
  8
0
 62
     0
 10
3.29514
 20
16.816
 30
0.0
 11
3.07661
 21
16.2897
 31
0.0
  0
LINE
  8
0
 62
     0
 10
3.07661
 20
16.2897
 30
0.0
 11
2.83421
 21
15.7492
 31
0.0
  0
LINE
  8
0
 62
     0
 10
2.83421
 20
15.7492
 30
0.0
 11
2.56793
 21
15.1943
 31
0.0
  0
LINE
  8
0
 62
     0
 10
2.56793
 20
15.1943
 30
0.0
 11
2.27778
 21
14.625
 31
0.0
  0
ENDSEC
  0
EOF
