  0
SECTION
  2
HEADER
  9
$ACADVER
  1
AC1009
  9
$EXTMIN
 10
0.0
 20
0.0
 30
0.0
  9
$EXTMAX
 10
1000.0
 20
1000.0
 30
0.0
  9
$FILLMODE
 70
 0
  9
$SPLFRAME
 70
 1
  0
ENDSEC
  0
SECTION
  2
TABLES
  0
TABLE
  2
LAYER
 70
1
  0
LAYER
  2
0
 70
     0
 62
     7
  6
CONTINUOUS
  0
ENDTAB
  0
ENDSEC
  0
SECTION
  2
ENTITIES
  0
LINE
  8
0
 62
     0
 10
14.125
 20
16.5139
 30
0.0
 11
14.3608
 21
16.2874
 31
0.0
  0
LINE
  8
0
 62
     0
 10
14.3608
 20
16.2874
 30
0.0
 11
14.5825
 21
16.0451
 31
0.0
  0
LINE
  8
0
 62
     0
 10
14.5825
 20
16.0451
 30
0.0
 11
14.7897
 21
15.7874
 31
0.0
  0
LINE
  8
0
 62
     0
 10
14.7897
 20
15.7874
 30
0.0
 11
14.9826
 21
15.5139
 31
0.0
  0
LINE
  8
0
 62
     0
 10
14.9826
 20
15.5139
 30
0.0
 11
15.1612
 21
15.2249
 31
0.0
  0
LINE
  8
0
 62
     0
 10
15.1612
 20
15.2249
 30
0.0
 11
15.3254
 21
14.9201
 31
0.0
  0
LINE
  8
0
 62
     0
 10
15.3254
 20
14.9201
 30
0.0
 11
15.4754
 21
14.5999
 31
0.0
  0
LINE
  8
0
 62
     0
 10
15.4754
 20
14.5999
 30
0.0
 11
15.6111
 21
14.2639
 31
0.0
  0
LINE
  8
0
 62
     0
 10
15.6111
 20
14.2639
 30
0.0
 11
15.7376
 21
13.8609
 31
0.0
  0
LINE
  8
0
 62
     0
 10
15.7376
 20
13.8609
 30
0.0
 11
15.8186
 21
13.4367
 31
0.0
  0
LINE
  8
0
 62
     0
 10
15.8186
 20
13.4367
 30
0.0
 11
15.8539
 21
12.9912
 31
0.0
  0
LINE
  8
0
 62
     0
 10
15.8539
 20
12.9912
 30
0.0
 11
15.8438
 21
12.5244
 31
0.0
  0
LINE
  8
0
 62
     0
 10
15.8438
 20
12.5244
 30
0.0
 11
15.7879
 21
12.0363
 31
0.0
  0
LINE
  8
0
 62
     0
 10
15.7879
 20
12.0363
 30
0.0
 11
15.6865
 21
11.527
 31
0.0
  0
LINE
  8
0
 62
     0
 10
15.6865
 20
11.527
 30
0.0
 11
15.5397
 21
10.9964
 31
0.0
  0
LINE
  8
0
 62
     0
 10
15.5397
 20
10.9964
 30
0.0
 11
15.3472
 21
10.4444
 31
0.0
  0
LINE
  8
0
 62
     0
 10
15.3472
 20
10.4444
 30
0.0
 11
15.1378
 21
9.93121
 31
0.0
  0
LINE
  8
0
 62
     0
 10
15.1378
 20
9.93121
 30
0.0
 11
14.8985
 21
9.41928
 31
0.0
  0
LINE
  8
0
 62
     0
 10
14.8985
 20
9.41928
 30
0.0
 11
14.6292
 21
8.90864
 31
0.0
  0
LINE
  8
0
 62
     0
 10
14.6292
 20
8.90864
 30
0.0
 11
14.3299
 21
8.39931
 31
0.0
  0
LINE
  8
0
 62
     0
 10
14.3299
 20
8.39931
 30
0.0
 11
14.0006
 21
7.89133
 31
0.0
  0
LINE
  8
0
 62
     0
 10
14.0006
 20
7.89133
 30
0.0
 11
13.6414
 21
7.3846
 31
0.0
  0
LINE
  8
0
 62
     0
 10
13.6414
 20
7.3846
 30
0.0
 11
13.2523
 21
6.87918
 31
0.0
  0
LINE
  8
0
 62
     0
 10
13.2523
 20
6.87918
 30
0.0
 11
12.8333
 21
6.375
 31
0.0
  0
LINE
  8
0
 62
     0
 10
12.8333
 20
6.375
 30
0.0
 11
12.4032
 21
5.89176
 31
0.0
  0
LINE
  8
0
 62
     0
 10
12.4032
 20
5.89176
 30
0.0
 11
11.967
 21
5.43494
 31
0.0
  0
LINE
  8
0
 62
     0
 10
11.967
 20
5.43494
 30
0.0
 11
11.5247
 21
5.00461
 31
0.0
  0
LINE
  8
0
 62
     0
 10
11.5247
 20
5.00461
 30
0.0
 11
11.0763
 21
4.60075
 31
0.0
  0
LINE
  8
0
 62
     0
 10
11.0763
 20
4.60075
 30
0.0
 11
10.6219
 21
4.22336
 31
0.0
  0
LINE
  8
0
 62
     0
 10
10.6219
 20
4.22336
 30
0.0
 11
10.1614
 21
3.87244
 31
0.0
  0
LINE
  8
0
 62
     0
 10
10.1614
 20
3.87244
 30
0.0
 11
9.69482
 21
3.54801
 31
0.0
  0
LINE
  8
0
 62
     0
 10
9.69482
 20
3.54801
 30
0.0
 11
9.22222
 21
3.25
 31
0.0
  0
LINE
  8
0
 62
     0
 10
9.22222
 20
3.25
 30
0.0
 11
8.71653
 21
2.97054
 31
0.0
  0
LINE
  8
0
 62
     0
 10
8.71653
 20
2.97054
 30
0.0
 11
8.22737
 21
2.73617
 31
0.0
  0
LINE
  8
0
 62
     0
 10
8.22737
 20
2.73617
 30
0.0
 11
7.75472
 21
2.54693
 31
0.0
  0
LINE
  8
0
 62
     0
 10
7.75472
 20
2.54693
 30
0.0
 11
7.29856
 21
2.40283
 31
0.0
  0
LINE
  8
0
 62
     0
 10
7.29856
 20
2.40283
 30
0.0
 11
6.85889
 21
2.30387
 31
0.0
  0
LINE
  8
0
 62
     0
 10
6.85889
 20
2.30387
 30
0.0
 11
6.43571
 21
2.25006
 31
0.0
  0
LINE
  8
0
 62
     0
 10
6.43571
 20
2.25006
 30
0.0
 11
6.02903
 21
2.24137
 31
0.0
  0
LINE
  8
0
 62
     0
 10
6.02903
 20
2.24137
 30
0.0
 11
5.63889
 21
2.27778
 31
0.0
  0
LINE
  8
0
 62
     0
 10
5.63889
 20
2.27778
 30
0.0
 11
5.722
 21
2.42626
 31
0.0
  0
LINE
  8
0
 62
     0
 10
5.722
 20
2.42626
 30
0.0
 11
5.81685
 21
2.59386
 31
0.0
  0
LINE
  8
0
 62
     0
 10
5.81685
 20
2.59386
 30
0.0
 11
5.9235
 21
2.78054
 31
0.0
  0
LINE
  8
0
 62
     0
 10
5.9235
 20
2.78054
 30
0.0
 11
6.04183
 21
2.98639
 31
0.0
  0
LINE
  8
0
 62
     0
 10
6.04183
 20
2.98639
 30
0.0
 11
6.17199
 21
3.21132
 31
0.0
  0
LINE
  8
0
 62
     0
 10
6.17199
 20
3.21132
 30
0.0
 11
6.31381
 21
3.4554
 31
0.0
  0
LINE
  8
0
 62
     0
 10
6.31381
 20
3.4554
 30
0.0
 11
6.46744
 21
3.71858
 31
0.0
  0
LINE
  8
0
 62
     0
 10
6.46744
 20
3.71858
 30
0.0
 11
6.63276
 21
4.00092
 31
0.0
  0
LINE
  8
0
 62
     0
 10
6.63276
 20
4.00092
 30
0.0
 11
6.8099
 21
4.30236
 31
0.0
  0
LINE
  8
0
 62
     0
 10
6.8099
 20
4.30236
 30
0.0
 11
6.99869
 21
4.62294
 31
0.0
  0
LINE
  8
0
 62
     0
 10
6.99869
 20
4.62294
 30
0.0
 11
7.19933
 21
4.96262
 31
0.0
  0
LINE
  8
0
 62
     0
 10
7.19933
 20
4.96262
 30
0.0
 11
7.41163
 21
5.32146
 31
0.0
  0
LINE
  8
0
 62
     0
 10
7.41163
 20
5.32146
 30
0.0
 11
7.63574
 21
5.69938
 31
0.0
  0
LINE
  8
0
 62
     0
 10
7.63574
 20
5.69938
 30
0.0
 11
7.87153
 21
6.09646
 31
0.0
  0
LINE
  8
0
 62
     0
 10
7.87153
 20
6.09646
 30
0.0
 11
8.11914
 21
6.51264
 31
0.0
  0
LINE
  8
0
 62
     0
 10
8.11914
 20
6.51264
 30
0.0
 11
8.37842
 21
6.94792
 31
0.0
  0
LINE
  8
0
 62
     0
 10
8.37842
 20
6.94792
 30
0.0
 11
8.64953
 21
7.4024
 31
0.0
  0
LINE
  8
0
 62
     0
 10
8.64953
 20
7.4024
 30
0.0
 11
8.93229
 21
7.87592
 31
0.0
  0
LINE
  8
0
 62
     0
 10
8.93229
 20
7.87592
 30
0.0
 11
9.22689
 21
8.36865
 31
0.0
  0
LINE
  8
0
 62
     0
 10
9.22689
 20
8.36865
 30
0.0
 11
9.53315
 21
8.88043
 31
0.0
  0
LINE
  8
0
 62
     0
 10
9.53315
 20
8.88043
 30
0.0
 11
9.85124
 21
9.4114
 31
0.0
  0
LINE
  8
0
 62
     0
 10
9.85124
 20
9.4114
 30
0.0
 11
10.181
 21
9.96143
 31
0.0
  0
LINE
  8
0
 62
     0
 10
10.181
 20
9.96143
 30
0.0
 11
10.5226
 21
10.5307
 31
0.0
  0
LINE
  8
0
 62
     0
 10
10.5226
 20
10.5307
 30
0.0
 11
10.8758
 21
11.1189
 31
0.0
  0
LINE
  8
0
 62
     0
 10
10.8758
 20
11.1189
 30
0.0
 11
11.2409
 21
11.7264
 31
0.0
  0
LINE
  8
0
 62
     0
 10
11.2409
 20
11.7264
 30
0.0
 11
11.6176
 21
12.3529
 31
0.0
  0
LINE
  8
0
 62
     0
 10
11.6176
 20
12.3529
 30
0.0
 11
12.0062
 21
12.9986
 31
0.0
  0
LINE
  8
0
 62
     0
 10
12.0062
 20
12.9986
 30
0.0
 11
12.4064
 21
13.6634
 31
0.0
  0
LINE
  8
0
 62
     0
 10
12.4064
 20
13.6634
 30
0.0
 11
12.8185
 21
14.3474
 31
0.0
  0
LINE
  8
0
 62
     0
 10
12.8185
 20
14.3474
 30
0.0
 11
13.2422
 21
15.0504
 31
0.0
  0
LINE
  8
0
 62
     0
 10
13.2422
 20
15.0504
 30
0.0
 11
13.6777
 21
15.7726
 31
0.0
  0
LINE
  8
0
 62
     0
 10
13.6777
 20
15.7726
 30
0.0
 11
14.125
 21
16.5139
 31
0.0
  0
LINE
  8
0
 62
     0
 10
2.40278
 20
9.22222
 30
0.0
 11
2.48004
 21
9.92296
 31
0.0
  0
LINE
  8
0
 62
     0
 10
2.48004
 20
9.92296
 30
0.0
 11
2.60764
 21
10.6155
 31
0.0
  0
LINE
  8
0
 62
     0
 10
2.60764
 20
10.6155
 30
0.0
 11
2.7856
 21
11.2997
 31
0.0
  0
LINE
  8
0
 62
     0
 10
2.7856
 20
11.2997
 30
0.0
 11
3.01389
 21
11.9757
 31
0.0
  0
LINE
  8
0
 62
     0
 10
3.01389
 20
11.9757
 30
0.0
 11
3.29254
 21
12.6434
 31
0.0
  0
LINE
  8
0
 62
     0
 10
3.29254
 20
12.6434
 30
0.0
 11
3.62153
 21
13.303
 31
0.0
  0
LINE
  8
0
 62
     0
 10
3.62153
 20
13.303
 30
0.0
 11
4.00087
 21
13.9542
 31
0.0
  0
LINE
  8
0
 62
     0
 10
4.00087
 20
13.9542
 30
0.0
 11
4.43056
 21
14.5972
 31
0.0
  0
LINE
  8
0
 62
     0
 10
4.43056
 20
14.5972
 30
0.0
 11
4.7736
 21
15.0436
 31
0.0
  0
LINE
  8
0
 62
     0
 10
4.7736
 20
15.0436
 30
0.0
 11
5.14318
 21
15.4593
 31
0.0
  0
LINE
  8
0
 62
     0
 10
5.14318
 20
15.4593
 30
0.0
 11
5.53922
 21
15.844
 31
0.0
  0
LINE
  8
0
 62
     0
 10
5.53922
 20
15.844
 30
0.0
 11
5.96175
 21
16.1979
 31
0.0
  0
LINE
  8
0
 62
     0
 10
5.96175
 20
16.1979
 30
0.0
 11
6.41075
 21
16.5211
 31
0.0
  0
LINE
  8
0
 62
     0
 10
6.41075
 20
16.5211
 30
0.0
 11
6.88624
 21
16.8135
 31
0.0
  0
LINE
  8
0
 62
     0
 10
6.88624
 20
16.8135
 30
0.0
 11
7.38818
 21
17.0749
 31
0.0
  0
LINE
  8
0
 62
     0
 10
7.38818
 20
17.0749
 30
0.0
 11
7.91667
 21
17.3056
 31
0.0
  0
LINE
  8
0
 62
     0
 10
7.91667
 20
17.3056
 30
0.0
 11
8.45524
 21
17.4992
 31
0.0
  0
LINE
  8
0
 62
     0
 10
8.45524
 20
17.4992
 30
0.0
 11
8.98779
 21
17.6493
 31
0.0
  0
LINE
  8
0
 62
     0
 10
8.98779
 20
17.6493
 30
0.0
 11
9.51426
 21
17.7561
 31
0.0
  0
LINE
  8
0
 62
     0
 10
9.51426
 20
17.7561
 30
0.0
 11
10.0347
 21
17.8194
 31
0.0
  0
LINE
  8
0
 62
     0
 10
10.0347
 20
17.8194
 30
0.0
 11
10.549
 21
17.8394
 31
0.0
  0
LINE
  8
0
 62
     0
 10
10.549
 20
17.8394
 30
0.0
 11
11.0572
 21
17.816
 31
0.0
  0
LINE
  8
0
 62
     0
 10
11.0572
 20
17.816
 30
0.0
 11
11.5594
 21
17.7492
 31
0.0
  0
LINE
  8
0
 62
     0
 10
11.5594
 20
17.7492
 30
0.0
 11
12.0556
 21
17.6389
 31
0.0
  0
LINE
  8
0
 62
     0
 10
12.0556
 20
17.6389
 30
0.0
 11
11.5564
 21
16.8065
 31
0.0
  0
LINE
  8
0
 62
     0
 10
11.5564
 20
16.8065
 30
0.0
 11
11.0729
 21
16
 31
0.0
  0
LINE
  8
0
 62
     0
 10
11.0729
 20
16
 30
0.0
 11
10.605
 21
15.2197
 31
0.0
  0
LINE
  8
0
 62
     0
 10
10.605
 20
15.2197
 30
0.0
 11
10.1528
 21
14.4653
 31
0.0
  0
LINE
  8
0
 62
     0
 10
10.1528
 20
14.4653
 30
0.0
 11
9.71615
 21
13.737
 31
0.0
  0
LINE
  8
0
 62
     0
 10
9.71615
 20
13.737
 30
0.0
 11
9.29514
 21
13.0348
 31
0.0
  0
LINE
  8
0
 62
     0
 10
9.29514
 20
13.0348
 30
0.0
 11
8.88976
 21
12.3586
 31
0.0
  0
LINE
  8
0
 62
     0
 10
8.88976
 20
12.3586
 30
0.0
 11
8.5
 21
11.7084
 31
0.0
  0
LINE
  8
0
 62
     0
 10
8.5
 20
11.7084
 30
0.0
 11
8.12587
 21
11.0842
 31
0.0
  0
LINE
  8
0
 62
     0
 10
8.12587
 20
11.0842
 30
0.0
 11
7.76736
 21
10.4862
 31
0.0
  0
LINE
  8
0
 62
     0
 10
7.76736
 20
10.4862
 30
0.0
 11
7.42449
 21
9.91411
 31
0.0
  0
LINE
  8
0
 62
     0
 10
7.42449
 20
9.91411
 30
0.0
 11
7.09722
 21
9.36811
 31
0.0
  0
LINE
  8
0
 62
     0
 10
7.09722
 20
9.36811
 30
0.0
 11
6.7856
 21
8.84814
 31
0.0
  0
LINE
  8
0
 62
     0
 10
6.7856
 20
8.84814
 30
0.0
 11
6.48958
 21
8.35422
 31
0.0
  0
LINE
  8
0
 62
     0
 10
6.48958
 20
8.35422
 30
0.0
 11
6.20921
 21
7.88633
 31
0.0
  0
LINE
  8
0
 62
     0
 10
6.20921
 20
7.88633
 30
0.0
 11
5.94444
 21
7.44444
 31
0.0
  0
LINE
  8
0
 62
     0
 10
5.94444
 20
7.44444
 30
0.0
 11
5.69526
 21
7.02865
 31
0.0
  0
LINE
  8
0
 62
     0
 10
5.69526
 20
7.02865
 30
0.0
 11
5.46175
 21
6.63889
 31
0.0
  0
LINE
  8
0
 62
     0
 10
5.46175
 20
6.63889
 30
0.0
 11
5.24387
 21
6.27518
 31
0.0
  0
LINE
  8
0
 62
     0
 10
5.24387
 20
6.27518
 30
0.0
 11
5.04161
 21
5.9375
 31
0.0
  0
LINE
  8
0
 62
     0
 10
5.04161
 20
5.9375
 30
0.0
 11
4.85499
 21
5.62587
 31
0.0
  0
LINE
  8
0
 62
     0
 10
4.85499
 20
5.62587
 30
0.0
 11
4.68397
 21
5.34028
 31
0.0
  0
LINE
  8
0
 62
     0
 10
4.68397
 20
5.34028
 30
0.0
 11
4.5286
 21
5.08074
 31
0.0
  0
LINE
  8
0
 62
     0
 10
4.5286
 20
5.08074
 30
0.0
 11
4.38883
 21
4.84722
 31
0.0
  0
LINE
  8
0
 62
     0
 10
4.38883
 20
4.84722
 30
0.0
 11
4.26471
 21
4.63976
 31
0.0
  0
LINE
  8
0
 62
     0
 10
4.26471
 20
4.63976
 30
0.0
 11
4.15619
 21
4.45833
 31
0.0
  0
LINE
  8
0
 62
     0
 10
4.15619
 20
4.45833
 30
0.0
 11
4.06332
 21
4.30296
 31
0.0
  0
LINE
  8
0
 62
     0
 10
4.06332
 20
4.30296
 30
0.0
 11
3.98606
 21
4.17361
 31
0.0
  0
LINE
  8
0
 62
     0
 10
3.98606
 20
4.17361
 30
0.0
 11
3.92443
 21
4.07032
 31
0.0
  0
LINE
  8
0
 62
     0
 10
3.92443
 20
4.07032
 30
0.0
 11
3.87842
 21
3.99306
 31
0.0
  0
LINE
  8
0
 62
     0
 10
3.87842
 20
3.99306
 30
0.0
 11
3.84804
 21
3.94185
 31
0.0
  0
LINE
  8
0
 62
     0
 10
3.84804
 20
3.94185
 30
0.0
 11
3.83333
 21
3.91667
 31
0.0
  0
LINE
  8
0
 62
     0
 10
3.83333
 20
3.91667
 30
0.0
 11
3.44943
 21
4.51307
 31
0.0
  0
LINE
  8
0
 62
     0
 10
3.44943
 20
4.51307
 30
0.0
 11
3.12414
 21
5.12853
 31
0.0
  0
LINE
  8
0
 62
     0
 10
3.12414
 20
5.12853
 30
0.0
 11
2.85742
 21
5.76307
 31
0.0
  0
LINE
  8
0
 62
     0
 10
2.85742
 20
5.76307
 30
0.0
 11
2.64931
 21
6.41672
 31
0.0
  0
LINE
  8
0
 62
     0
 10
2.64931
 20
6.41672
 30
0.0
 11
2.49972
 21
7.08946
 31
0.0
  0
LINE
  8
0
 62
     0
 10
2.49972
 20
7.08946
 30
0.0
 11
2.40881
 21
7.78131
 31
0.0
  0
LINE
  8
0
 62
     0
 10
2.40881
 20
7.78131
 30
0.0
 11
2.37646
 21
8.49224
 31
0.0
  0
LINE
  8
0
 62
     0
 10
2.37646
 20
8.49224
 30
0.0
 11
2.40278
 21
9.22222
 31
0.0
  0
LINE
  8
0
 62
     0
 10
15.4028
 20
18.6528
 30
0.0
 11
15.4514
 21
18.7396
 31
0.0
  0
LINE
  8
0
 62
     0
 10
15.4514
 20
18.7396
 30
0.0
 11
15.5417
 21
18.8889
 31
0.0
  0
LINE
  8
0
 62
     0
 10
15.5417
 20
18.8889
 30
0.0
 11
15.6181
 21
19.0243
 31
0.0
  0
LINE
  8
0
 62
     0
 10
15.6181
 20
19.0243
 30
0.0
 11
15.6806
 21
19.125
 31
0.0
  0
LINE
  8
0
 62
     0
 10
15.6806
 20
19.125
 30
0.0
 11
15.7804
 21
19.3438
 31
0.0
  0
LINE
  8
0
 62
     0
 10
15.7804
 20
19.3438
 30
0.0
 11
15.816
 21
19.5417
 31
0.0
  0
LINE
  8
0
 62
     0
 10
15.816
 20
19.5417
 30
0.0
 11
15.7874
 21
19.7188
 31
0.0
  0
LINE
  8
0
 62
     0
 10
15.7874
 20
19.7188
 30
0.0
 11
15.6944
 21
19.875
 31
0.0
  0
LINE
  8
0
 62
     0
 10
15.6944
 20
19.875
 30
0.0
 11
15.5703
 21
19.9879
 31
0.0
  0
LINE
  8
0
 62
     0
 10
15.5703
 20
19.9879
 30
0.0
 11
15.4063
 21
20.0764
 31
0.0
  0
LINE
  8
0
 62
     0
 10
15.4063
 20
20.0764
 30
0.0
 11
15.2022
 21
20.1407
 31
0.0
  0
LINE
  8
0
 62
     0
 10
15.2022
 20
20.1407
 30
0.0
 11
14.9583
 21
20.1806
 31
0.0
  0
LINE
  8
0
 62
     0
 10
14.9583
 20
20.1806
 30
0.0
 11
14.654
 21
20.1975
 31
0.0
  0
LINE
  8
0
 62
     0
 10
14.654
 20
20.1975
 30
0.0
 11
14.3732
 21
20.1858
 31
0.0
  0
LINE
  8
0
 62
     0
 10
14.3732
 20
20.1858
 30
0.0
 11
14.1158
 21
20.1454
 31
0.0
  0
LINE
  8
0
 62
     0
 10
14.1158
 20
20.1454
 30
0.0
 11
13.8819
 21
20.0764
 31
0.0
  0
LINE
  8
0
 62
     0
 10
13.8819
 20
20.0764
 30
0.0
 11
13.6714
 21
19.9787
 31
0.0
  0
LINE
  8
0
 62
     0
 10
13.6714
 20
19.9787
 30
0.0
 11
13.4843
 21
19.8525
 31
0.0
  0
LINE
  8
0
 62
     0
 10
13.4843
 20
19.8525
 30
0.0
 11
13.3208
 21
19.6975
 31
0.0
  0
LINE
  8
0
 62
     0
 10
13.3208
 20
19.6975
 30
0.0
 11
13.1806
 21
19.5139
 31
0.0
  0
LINE
  8
0
 62
     0
 10
13.1806
 20
19.5139
 30
0.0
 11
12.6417
 21
19.6133
 31
0.0
  0
LINE
  8
0
 62
     0
 10
12.6417
 20
19.6133
 30
0.0
 11
12.0946
 21
19.6824
 31
0.0
  0
LINE
  8
0
 62
     0
 10
12.0946
 20
19.6824
 30
0.0
 11
11.5392
 21
19.721
 31
0.0
  0
LINE
  8
0
 62
     0
 10
11.5392
 20
19.721
 30
0.0
 11
10.9756
 21
19.7292
 31
0.0
  0
LINE
  8
0
 62
     0
 10
10.9756
 20
19.7292
 30
0.0
 11
10.4038
 21
19.7071
 31
0.0
  0
LINE
  8
0
 62
     0
 10
10.4038
 20
19.7071
 30
0.0
 11
9.82374
 21
19.6546
 31
0.0
  0
LINE
  8
0
 62
     0
 10
9.82374
 20
19.6546
 30
0.0
 11
9.2354
 21
19.5717
 31
0.0
  0
LINE
  8
0
 62
     0
 10
9.2354
 20
19.5717
 30
0.0
 11
8.63889
 21
19.4583
 31
0.0
  0
LINE
  8
0
 62
     0
 10
8.63889
 20
19.4583
 30
0.0
 11
8.06549
 21
19.3218
 31
0.0
  0
LINE
  8
0
 62
     0
 10
8.06549
 20
19.3218
 30
0.0
 11
7.5121
 21
19.1624
 31
0.0
  0
LINE
  8
0
 62
     0
 10
7.5121
 20
19.1624
 30
0.0
 11
6.97868
 21
18.9799
 31
0.0
  0
LINE
  8
0
 62
     0
 10
6.97868
 20
18.9799
 30
0.0
 11
6.46522
 21
18.7743
 31
0.0
  0
LINE
  8
0
 62
     0
 10
6.46522
 20
18.7743
 30
0.0
 11
5.97174
 21
18.5458
 31
0.0
  0
LINE
  8
0
 62
     0
 10
5.97174
 20
18.5458
 30
0.0
 11
5.49821
 21
18.2943
 31
0.0
  0
LINE
  8
0
 62
     0
 10
5.49821
 20
18.2943
 30
0.0
 11
5.04465
 21
18.0197
 31
0.0
  0
LINE
  8
0
 62
     0
 10
5.04465
 20
18.0197
 30
0.0
 11
4.61111
 21
17.7222
 31
0.0
  0
LINE
  8
0
 62
     0
 10
4.61111
 20
17.7222
 30
0.0
 11
4.20969
 21
17.4207
 31
0.0
  0
LINE
  8
0
 62
     0
 10
4.20969
 20
17.4207
 30
0.0
 11
3.82487
 21
17.1064
 31
0.0
  0
LINE
  8
0
 62
     0
 10
3.82487
 20
17.1064
 30
0.0
 11
3.45665
 21
16.7793
 31
0.0
  0
LINE
  8
0
 62
     0
 10
3.45665
 20
16.7793
 30
0.0
 11
3.10504
 21
16.4393
 31
0.0
  0
LINE
  8
0
 62
     0
 10
3.10504
 20
16.4393
 30
0.0
 11
2.77001
 21
16.0865
 31
0.0
  0
LINE
  8
0
 62
     0
 10
2.77001
 20
16.0865
 30
0.0
 11
2.45161
 21
15.721
 31
0.0
  0
LINE
  8
0
 62
     0
 10
2.45161
 20
15.721
 30
0.0
 11
2.14979
 21
15.3426
 31
0.0
  0
LINE
  8
0
 62
     0
 10
2.14979
 20
15.3426
 30
0.0
 11
1.86458
 21
14.9514
 31
0.0
  0
LINE
  8
0
 62
     0
 10
1.86458
 20
14.9514
 30
0.0
 11
1.59592
 21
14.5475
 31
0.0
  0
LINE
  8
0
 62
     0
 10
1.59592
 20
14.5475
 30
0.0
 11
1.34391
 21
14.1307
 31
0.0
  0
LINE
  8
0
 62
     0
 10
1.34391
 20
14.1307
 30
0.0
 11
1.10851
 21
13.7011
 31
0.0
  0
LINE
  8
0
 62
     0
 10
1.10851
 20
13.7011
 30
0.0
 11
0.889703
 21
13.2587
 31
0.0
  0
LINE
  8
0
 62
     0
 10
0.889703
 20
13.2587
 30
0.0
 11
0.6875
 21
12.8035
 31
0.0
  0
LINE
  8
0
 62
     0
 10
0.6875
 20
12.8035
 30
0.0
 11
0.501899
 21
12.3356
 31
0.0
  0
LINE
  8
0
 62
     0
 10
0.501899
 20
12.3356
 30
0.0
 11
0.3329
 21
11.8548
 31
0.0
  0
LINE
  8
0
 62
     0
 10
0.3329
 20
11.8548
 30
0.0
 11
0.180556
 21
11.3611
 31
0.0
  0
LINE
  8
0
 62
     0
 10
0.180556
 20
11.3611
 30
0.0
 11
0.0443793
 21
10.8533
 31
0.0
  0
LINE
  8
0
 62
     0
 10
0.0443793
 20
10.8533
 30
0.0
 11
-0.0688476
 21
10.3509
 31
0.0
  0
LINE
  8
0
 62
     0
 10
-0.0688476
 20
10.3509
 30
0.0
 11
-0.159179
 21
9.85379
 31
0.0
  0
LINE
  8
0
 62
     0
 10
-0.159179
 20
9.85379
 30
0.0
 11
-0.226617
 21
9.36199
 31
0.0
  0
LINE
  8
0
 62
     0
 10
-0.226617
 20
9.36199
 30
0.0
 11
-0.271158
 21
8.87549
 31
0.0
  0
LINE
  8
0
 62
     0
 10
-0.271158
 20
8.87549
 30
0.0
 11
-0.292806
 21
8.39432
 31
0.0
  0
LINE
  8
0
 62
     0
 10
-0.292806
 20
8.39432
 30
0.0
 11
-0.291558
 21
7.91846
 31
0.0
  0
LINE
  8
0
 62
     0
 10
-0.291558
 20
7.91846
 30
0.0
 11
-0.267415
 21
7.44792
 31
0.0
  0
LINE
  8
0
 62
     0
 10
-0.267415
 20
7.44792
 30
0.0
 11
-0.220378
 21
6.98269
 31
0.0
  0
LINE
  8
0
 62
     0
 10
-0.220378
 20
6.98269
 30
0.0
 11
-0.150444
 21
6.52279
 31
0.0
  0
LINE
  8
0
 62
     0
 10
-0.150444
 20
6.52279
 30
0.0
 11
-0.0576172
 21
6.06819
 31
0.0
  0
LINE
  8
0
 62
     0
 10
-0.0576172
 20
6.06819
 30
0.0
 11
0.0581054
 21
5.61893
 31
0.0
  0
LINE
  8
0
 62
     0
 10
0.0581054
 20
5.61893
 30
0.0
 11
0.196724
 21
5.17497
 31
0.0
  0
LINE
  8
0
 62
     0
 10
0.196724
 20
5.17497
 30
0.0
 11
0.358236
 21
4.73633
 31
0.0
  0
LINE
  8
0
 62
     0
 10
0.358236
 20
4.73633
 30
0.0
 11
0.542643
 21
4.303
 31
0.0
  0
LINE
  8
0
 62
     0
 10
0.542643
 20
4.303
 30
0.0
 11
0.75
 21
3.875
 31
0.0
  0
LINE
  8
0
 62
     0
 10
0.75
 20
3.875
 30
0.0
 11
0.739583
 21
3.67014
 31
0.0
  0
LINE
  8
0
 62
     0
 10
0.739583
 20
3.67014
 30
0.0
 11
0.791667
 21
3.47222
 31
0.0
  0
LINE
  8
0
 62
     0
 10
0.791667
 20
3.47222
 30
0.0
 11
0.946615
 21
3.1339
 31
0.0
  0
LINE
  8
0
 62
     0
 10
0.946615
 20
3.1339
 30
0.0
 11
1.11285
 21
2.81338
 31
0.0
  0
LINE
  8
0
 62
     0
 10
1.11285
 20
2.81338
 30
0.0
 11
1.29037
 21
2.51064
 31
0.0
  0
LINE
  8
0
 62
     0
 10
1.29037
 20
2.51064
 30
0.0
 11
1.47917
 21
2.22569
 31
0.0
  0
LINE
  8
0
 62
     0
 10
1.47917
 20
2.22569
 30
0.0
 11
1.67925
 21
1.95856
 31
0.0
  0
LINE
  8
0
 62
     0
 10
1.67925
 20
1.95856
 30
0.0
 11
1.89063
 21
1.70921
 31
0.0
  0
LINE
  8
0
 62
     0
 10
1.89063
 20
1.70921
 30
0.0
 11
2.11328
 21
1.47765
 31
0.0
  0
LINE
  8
0
 62
     0
 10
2.11328
 20
1.47765
 30
0.0
 11
2.34722
 21
1.26389
 31
0.0
  0
LINE
  8
0
 62
     0
 10
2.34722
 20
1.26389
 30
0.0
 11
1.52083
 21
-0.279514
 31
0.0
  0
LINE
  8
0
 62
     0
 10
1.52083
 20
-0.279514
 30
0.0
 11
0.75
 21
-1.77083
 31
0.0
  0
LINE
  8
0
 62
     0
 10
0.75
 20
-1.77083
 30
0.0
 11
0.0347222
 21
-3.21001
 31
0.0
  0
LINE
  8
0
 62
     0
 10
0.0347222
 20
-3.21001
 30
0.0
 11
-0.625
 21
-4.59722
 31
0.0
  0
LINE
  8
0
 62
     0
 10
-0.625
 20
-4.59722
 30
0.0
 11
-0.710938
 21
-4.82981
 31
0.0
  0
LINE
  8
0
 62
     0
 10
-0.710938
 20
-4.82981
 30
0.0
 11
-0.732639
 21
-5.04167
 31
0.0
  0
LINE
  8
0
 62
     0
 10
-0.732639
 20
-5.04167
 30
0.0
 11
-0.690104
 21
-5.23264
 31
0.0
  0
LINE
  8
0
 62
     0
 10
-0.690104
 20
-5.23264
 30
0.0
 11
-0.583333
 21
-5.40278
 31
0.0
  0
LINE
  8
0
 62
     0
 10
-0.583333
 20
-5.40278
 30
0.0
 11
-0.446235
 21
-5.52083
 31
0.0
  0
LINE
  8
0
 62
     0
 10
-0.446235
 20
-5.52083
 30
0.0
 11
-0.270888
 21
-5.61111
 31
0.0
  0
LINE
  8
0
 62
     0
 10
-0.270888
 20
-5.61111
 30
0.0
 11
-0.057346
 21
-5.67361
 31
0.0
  0
LINE
  8
0
 62
     0
 10
-0.057346
 20
-5.67361
 30
0.0
 11
0.194444
 21
-5.70833
 31
0.0
  0
LINE
  8
0
 62
     0
 10
0.194444
 20
-5.70833
 30
0.0
 11
0.448785
 21
-5.71962
 31
0.0
  0
LINE
  8
0
 62
     0
 10
0.448785
 20
-5.71962
 30
0.0
 11
0.697917
 21
-5.69792
 31
0.0
  0
LINE
  8
0
 62
     0
 10
0.697917
 20
-5.69792
 30
0.0
 11
0.941786
 21
-5.64324
 31
0.0
  0
LINE
  8
0
 62
     0
 10
0.941786
 20
-5.64324
 30
0.0
 11
1.18056
 21
-5.55556
 31
0.0
  0
LINE
  8
0
 62
     0
 10
1.18056
 20
-5.55556
 30
0.0
 11
1.42269
 21
-5.43918
 31
0.0
  0
LINE
  8
0
 62
     0
 10
1.42269
 20
-5.43918
 30
0.0
 11
1.62147
 21
-5.29856
 31
0.0
  0
LINE
  8
0
 62
     0
 10
1.62147
 20
-5.29856
 30
0.0
 11
1.77686
 21
-5.13363
 31
0.0
  0
LINE
  8
0
 62
     0
 10
1.77686
 20
-5.13363
 30
0.0
 11
1.88889
 21
-4.94444
 31
0.0
  0
LINE
  8
0
 62
     0
 10
1.88889
 20
-4.94444
 30
0.0
 11
2.16704
 21
-4.36193
 31
0.0
  0
LINE
  8
0
 62
     0
 10
2.16704
 20
-4.36193
 30
0.0
 11
2.46001
 21
-3.76036
 31
0.0
  0
LINE
  8
0
 62
     0
 10
2.46001
 20
-3.76036
 30
0.0
 11
2.76774
 21
-3.13971
 31
0.0
  0
LINE
  8
0
 62
     0
 10
2.76774
 20
-3.13971
 30
0.0
 11
3.09022
 21
-2.49994
 31
0.0
  0
LINE
  8
0
 62
     0
 10
3.09022
 20
-2.49994
 30
0.0
 11
3.42746
 21
-1.8411
 31
0.0
  0
LINE
  8
0
 62
     0
 10
3.42746
 20
-1.8411
 30
0.0
 11
3.77946
 21
-1.16314
 31
0.0
  0
LINE
  8
0
 62
     0
 10
3.77946
 20
-1.16314
 30
0.0
 11
4.14621
 21
-0.466092
 31
0.0
  0
LINE
  8
0
 62
     0
 10
4.14621
 20
-0.466092
 30
0.0
 11
4.52778
 21
0.25
 31
0.0
  0
LINE
  8
0
 62
     0
 10
4.52778
 20
0.25
 30
0.0
 11
5.07856
 21
0.180339
 31
0.0
  0
LINE
  8
0
 62
     0
 10
5.07856
 20
0.180339
 30
0.0
 11
5.64757
 21
0.165799
 31
0.0
  0
LINE
  8
0
 62
     0
 10
5.64757
 20
0.165799
 30
0.0
 11
6.23481
 21
0.206381
 31
0.0
  0
LINE
  8
0
 62
     0
 10
6.23481
 20
0.206381
 30
0.0
 11
6.84028
 21
0.302083
 31
0.0
  0
LINE
  8
0
 62
     0
 10
6.84028
 20
0.302083
 30
0.0
 11
7.46397
 21
0.452908
 31
0.0
  0
LINE
  8
0
 62
     0
 10
7.46397
 20
0.452908
 30
0.0
 11
8.1059
 21
0.658854
 31
0.0
  0
LINE
  8
0
 62
     0
 10
8.1059
 20
0.658854
 30
0.0
 11
8.76606
 21
0.919922
 31
0.0
  0
LINE
  8
0
 62
     0
 10
8.76606
 20
0.919922
 30
0.0
 11
9.44444
 21
1.23611
 31
0.0
  0
LINE
  8
0
 62
     0
 10
9.44444
 20
1.23611
 30
0.0
 11
10.082
 21
1.57596
 31
0.0
  0
LINE
  8
0
 62
     0
 10
10.082
 20
1.57596
 30
0.0
 11
10.71
 21
1.94965
 31
0.0
  0
LINE
  8
0
 62
     0
 10
10.71
 20
1.94965
 30
0.0
 11
11.3285
 21
2.35721
 31
0.0
  0
LINE
  8
0
 62
     0
 10
11.3285
 20
2.35721
 30
0.0
 11
11.9374
 21
2.79861
 31
0.0
  0
LINE
  8
0
 62
     0
 10
11.9374
 20
2.79861
 30
0.0
 11
12.5368
 21
3.27387
 31
0.0
  0
LINE
  8
0
 62
     0
 10
12.5368
 20
3.27387
 30
0.0
 11
13.1267
 21
3.78299
 31
0.0
  0
LINE
  8
0
 62
     0
 10
13.1267
 20
3.78299
 30
0.0
 11
13.707
 21
4.32596
 31
0.0
  0
LINE
  8
0
 62
     0
 10
13.707
 20
4.32596
 30
0.0
 11
14.2778
 21
4.90278
 31
0.0
  0
LINE
  8
0
 62
     0
 10
14.2778
 20
4.90278
 30
0.0
 11
14.8319
 21
5.51004
 31
0.0
  0
LINE
  8
0
 62
     0
 10
14.8319
 20
5.51004
 30
0.0
 11
15.3489
 21
6.12332
 31
0.0
  0
LINE
  8
0
 62
     0
 10
15.3489
 20
6.12332
 30
0.0
 11
15.8285
 21
6.74268
 31
0.0
  0
LINE
  8
0
 62
     0
 10
15.8285
 20
6.74268
 30
0.0
 11
16.2708
 21
7.36811
 31
0.0
  0
LINE
  8
0
 62
     0
 10
16.2708
 20
7.36811
 30
0.0
 11
16.6757
 21
7.99963
 31
0.0
  0
LINE
  8
0
 62
     0
 10
16.6757
 20
7.99963
 30
0.0
 11
17.0433
 21
8.63721
 31
0.0
  0
LINE
  8
0
 62
     0
 10
17.0433
 20
8.63721
 30
0.0
 11
17.3736
 21
9.28088
 31
0.0
  0
LINE
  8
0
 62
     0
 10
17.3736
 20
9.28088
 30
0.0
 11
17.6667
 21
9.93056
 31
0.0
  0
LINE
  8
0
 62
     0
 10
17.6667
 20
9.93056
 30
0.0
 11
17.9337
 21
10.629
 31
0.0
  0
LINE
  8
0
 62
     0
 10
17.9337
 20
10.629
 30
0.0
 11
18.145
 21
11.3073
 31
0.0
  0
LINE
  8
0
 62
     0
 10
18.145
 20
11.3073
 30
0.0
 11
18.3001
 21
11.9658
 31
0.0
  0
LINE
  8
0
 62
     0
 10
18.3001
 20
11.9658
 30
0.0
 11
18.3993
 21
12.6042
 31
0.0
  0
LINE
  8
0
 62
     0
 10
18.3993
 20
12.6042
 30
0.0
 11
18.4425
 21
13.2227
 31
0.0
  0
LINE
  8
0
 62
     0
 10
18.4425
 20
13.2227
 30
0.0
 11
18.4296
 21
13.8212
 31
0.0
  0
LINE
  8
0
 62
     0
 10
18.4296
 20
13.8212
 30
0.0
 11
18.3608
 21
14.3999
 31
0.0
  0
LINE
  8
0
 62
     0
 10
18.3608
 20
14.3999
 30
0.0
 11
18.2361
 21
14.9583
 31
0.0
  0
LINE
  8
0
 62
     0
 10
18.2361
 20
14.9583
 30
0.0
 11
18.04
 21
15.5508
 31
0.0
  0
LINE
  8
0
 62
     0
 10
18.04
 20
15.5508
 30
0.0
 11
17.7986
 21
16.106
 31
0.0
  0
LINE
  8
0
 62
     0
 10
17.7986
 20
16.106
 30
0.0
 11
17.5122
 21
16.6238
 31
0.0
  0
LINE
  8
0
 62
     0
 10
17.5122
 20
16.6238
 30
0.0
 11
17.1806
 21
17.1042
 31
0.0
  0
LINE
  8
0
 62
     0
 10
17.1806
 20
17.1042
 30
0.0
 11
16.8039
 21
17.5474
 31
0.0
  0
LINE
  8
0
 62
     0
 10
16.8039
 20
17.5474
 30
0.0
 11
16.3819
 21
17.9532
 31
0.0
  0
LINE
  8
0
 62
     0
 10
16.3819
 20
17.9532
 30
0.0
 11
15.915
 21
18.3217
 31
0.0
  0
LINE
  8
0
 62
     0
 10
15.915
 20
18.3217
 30
0.0
 11
15.4028
 21
18.6528
 31
0.0
  0
ENDSEC
  0
EOF
