  0
SECTION
  2
HEADER
  9
$ACADVER
  1
AC1009
  9
$EXTMIN
 10
0.0
 20
0.0
 30
0.0
  9
$EXTMAX
 10
1000.0
 20
1000.0
 30
0.0
  9
$FILLMODE
 70
 0
  9
$SPLFRAME
 70
 1
  0
ENDSEC
  0
SECTION
  2
TABLES
  0
TABLE
  2
LAYER
 70
1
  0
LAYER
  2
0
 70
     0
 62
     7
  6
CONTINUOUS
  0
ENDTAB
  0
ENDSEC
  0
SECTION
  2
ENTITIES
  0
LINE
  8
0
 62
     0
 10
6.84722
 20
10.7778
 30
0.0
 11
6.33333
 21
10.1788
 31
0.0
  0
LINE
  8
0
 62
     0
 10
6.33333
 20
10.1788
 30
0.0
 11
5.8125
 21
9.65278
 31
0.0
  0
LINE
  8
0
 62
     0
 10
5.8125
 20
9.65278
 30
0.0
 11
5.28472
 21
9.19965
 31
0.0
  0
LINE
  8
0
 62
     0
 10
5.28472
 20
9.19965
 30
0.0
 11
4.75
 21
8.81944
 31
0.0
  0
LINE
  8
0
 62
     0
 10
4.75
 20
8.81944
 30
0.0
 11
4.20833
 21
8.51215
 31
0.0
  0
LINE
  8
0
 62
     0
 10
4.20833
 20
8.51215
 30
0.0
 11
3.65972
 21
8.27778
 31
0.0
  0
LINE
  8
0
 62
     0
 10
3.65972
 20
8.27778
 30
0.0
 11
3.10417
 21
8.11632
 31
0.0
  0
LINE
  8
0
 62
     0
 10
3.10417
 20
8.11632
 30
0.0
 11
2.54167
 21
8.02778
 31
0.0
  0
LINE
  8
0
 62
     0
 10
2.54167
 20
8.02778
 30
0.0
 11
2.54861
 21
8.02436
 31
0.0
  0
LINE
  8
0
 62
     0
 10
2.54861
 20
8.02436
 30
0.0
 11
2.51389
 21
8.01389
 31
0.0
  0
LINE
  8
0
 62
     0
 10
2.51389
 20
8.01389
 30
0.0
 11
2.49388
 21
8.42275
 31
0.0
  0
LINE
  8
0
 62
     0
 10
2.49388
 20
8.42275
 30
0.0
 11
2.47564
 21
8.86458
 31
0.0
  0
LINE
  8
0
 62
     0
 10
2.47564
 20
8.86458
 30
0.0
 11
2.45915
 21
9.33942
 31
0.0
  0
LINE
  8
0
 62
     0
 10
2.45915
 20
9.33942
 30
0.0
 11
2.44439
 21
9.84722
 31
0.0
  0
LINE
  8
0
 62
     0
 10
2.44439
 20
9.84722
 30
0.0
 11
2.43138
 21
10.388
 31
0.0
  0
LINE
  8
0
 62
     0
 10
2.43138
 20
10.388
 30
0.0
 11
2.42008
 21
10.9618
 31
0.0
  0
LINE
  8
0
 62
     0
 10
2.42008
 20
10.9618
 30
0.0
 11
2.41054
 21
11.5686
 31
0.0
  0
LINE
  8
0
 62
     0
 10
2.41054
 20
11.5686
 30
0.0
 11
2.40278
 21
12.2083
 31
0.0
  0
LINE
  8
0
 62
     0
 10
2.40278
 20
12.2083
 30
0.0
 11
2.39253
 21
12.9373
 31
0.0
  0
LINE
  8
0
 62
     0
 10
2.39253
 20
12.9373
 30
0.0
 11
2.38276
 21
13.6033
 31
0.0
  0
LINE
  8
0
 62
     0
 10
2.38276
 20
13.6033
 30
0.0
 11
2.37343
 21
14.2064
 31
0.0
  0
LINE
  8
0
 62
     0
 10
2.37343
 20
14.2064
 30
0.0
 11
2.36453
 21
14.7465
 31
0.0
  0
LINE
  8
0
 62
     0
 10
2.36453
 20
14.7465
 30
0.0
 11
2.35607
 21
15.2237
 31
0.0
  0
LINE
  8
0
 62
     0
 10
2.35607
 20
15.2237
 30
0.0
 11
2.34804
 21
15.6381
 31
0.0
  0
LINE
  8
0
 62
     0
 10
2.34804
 20
15.6381
 30
0.0
 11
2.34044
 21
15.9894
 31
0.0
  0
LINE
  8
0
 62
     0
 10
2.34044
 20
15.9894
 30
0.0
 11
2.33333
 21
16.2778
 31
0.0
  0
LINE
  8
0
 62
     0
 10
2.33333
 20
16.2778
 30
0.0
 11
2.56158
 21
16.3446
 31
0.0
  0
LINE
  8
0
 62
     0
 10
2.56158
 20
16.3446
 30
0.0
 11
2.76036
 21
16.434
 31
0.0
  0
LINE
  8
0
 62
     0
 10
2.76036
 20
16.434
 30
0.0
 11
2.92964
 21
16.546
 31
0.0
  0
LINE
  8
0
 62
     0
 10
2.92964
 20
16.546
 30
0.0
 11
3.06944
 21
16.6806
 31
0.0
  0
LINE
  8
0
 62
     0
 10
3.06944
 20
16.6806
 30
0.0
 11
3.40013
 21
17.0278
 31
0.0
  0
LINE
  8
0
 62
     0
 10
3.40013
 20
17.0278
 30
0.0
 11
3.78119
 21
17.3335
 31
0.0
  0
LINE
  8
0
 62
     0
 10
3.78119
 20
17.3335
 30
0.0
 11
4.21262
 21
17.5972
 31
0.0
  0
LINE
  8
0
 62
     0
 10
4.21262
 20
17.5972
 30
0.0
 11
4.69444
 21
17.8194
 31
0.0
  0
LINE
  8
0
 62
     0
 10
4.69444
 20
17.8194
 30
0.0
 11
5.18571
 21
17.9844
 31
0.0
  0
LINE
  8
0
 62
     0
 10
5.18571
 20
17.9844
 30
0.0
 11
5.67356
 21
18.0903
 31
0.0
  0
LINE
  8
0
 62
     0
 10
5.67356
 20
18.0903
 30
0.0
 11
6.15793
 21
18.1372
 31
0.0
  0
LINE
  8
0
 62
     0
 10
6.15793
 20
18.1372
 30
0.0
 11
6.63889
 21
18.125
 31
0.0
  0
LINE
  8
0
 62
     0
 10
6.63889
 20
18.125
 30
0.0
 11
6.88883
 21
18.096
 31
0.0
  0
LINE
  8
0
 62
     0
 10
6.88883
 20
18.096
 30
0.0
 11
7.12494
 21
18.0504
 31
0.0
  0
LINE
  8
0
 62
     0
 10
7.12494
 20
18.0504
 30
0.0
 11
7.34717
 21
17.9883
 31
0.0
  0
LINE
  8
0
 62
     0
 10
7.34717
 20
17.9883
 30
0.0
 11
7.5555
 21
17.9097
 31
0.0
  0
LINE
  8
0
 62
     0
 10
7.5555
 20
17.9097
 30
0.0
 11
7.74994
 21
17.8147
 31
0.0
  0
LINE
  8
0
 62
     0
 10
7.74994
 20
17.8147
 30
0.0
 11
7.9305
 21
17.7032
 31
0.0
  0
LINE
  8
0
 62
     0
 10
7.9305
 20
17.7032
 30
0.0
 11
8.09717
 21
17.5751
 31
0.0
  0
LINE
  8
0
 62
     0
 10
8.09717
 20
17.5751
 30
0.0
 11
8.25
 21
17.4306
 31
0.0
  0
LINE
  8
0
 62
     0
 10
8.25
 20
17.4306
 30
0.0
 11
8.40576
 21
17.2524
 31
0.0
  0
LINE
  8
0
 62
     0
 10
8.40576
 20
17.2524
 30
0.0
 11
8.53987
 21
17.0582
 31
0.0
  0
LINE
  8
0
 62
     0
 10
8.53987
 20
17.0582
 30
0.0
 11
8.65229
 21
16.8479
 31
0.0
  0
LINE
  8
0
 62
     0
 10
8.65229
 20
16.8479
 30
0.0
 11
8.743
 21
16.6215
 31
0.0
  0
LINE
  8
0
 62
     0
 10
8.743
 20
16.6215
 30
0.0
 11
8.81201
 21
16.3792
 31
0.0
  0
LINE
  8
0
 62
     0
 10
8.81201
 20
16.3792
 30
0.0
 11
8.85932
 21
16.1207
 31
0.0
  0
LINE
  8
0
 62
     0
 10
8.85932
 20
16.1207
 30
0.0
 11
8.88493
 21
15.8461
 31
0.0
  0
LINE
  8
0
 62
     0
 10
8.88493
 20
15.8461
 30
0.0
 11
8.88889
 21
15.5556
 31
0.0
  0
LINE
  8
0
 62
     0
 10
8.88889
 20
15.5556
 30
0.0
 11
8.84179
 21
14.9706
 31
0.0
  0
LINE
  8
0
 62
     0
 10
8.84179
 20
14.9706
 30
0.0
 11
8.73525
 21
14.3819
 31
0.0
  0
LINE
  8
0
 62
     0
 10
8.73525
 20
14.3819
 30
0.0
 11
8.56922
 21
13.7899
 31
0.0
  0
LINE
  8
0
 62
     0
 10
8.56922
 20
13.7899
 30
0.0
 11
8.34375
 21
13.1944
 31
0.0
  0
LINE
  8
0
 62
     0
 10
8.34375
 20
13.1944
 30
0.0
 11
8.05881
 21
12.5955
 31
0.0
  0
LINE
  8
0
 62
     0
 10
8.05881
 20
12.5955
 30
0.0
 11
7.71442
 21
11.9931
 31
0.0
  0
LINE
  8
0
 62
     0
 10
7.71442
 20
11.9931
 30
0.0
 11
7.31054
 21
11.3872
 31
0.0
  0
LINE
  8
0
 62
     0
 10
7.31054
 20
11.3872
 30
0.0
 11
6.84722
 21
10.7778
 31
0.0
  0
LINE
  8
0
 62
     0
 10
2.625
 20
6.29167
 30
0.0
 11
3.06982
 21
6.36724
 31
0.0
  0
LINE
  8
0
 62
     0
 10
3.06982
 20
6.36724
 30
0.0
 11
3.50846
 21
6.46533
 31
0.0
  0
LINE
  8
0
 62
     0
 10
3.50846
 20
6.46533
 30
0.0
 11
3.94092
 21
6.58599
 31
0.0
  0
LINE
  8
0
 62
     0
 10
3.94092
 20
6.58599
 30
0.0
 11
4.36719
 21
6.72922
 31
0.0
  0
LINE
  8
0
 62
     0
 10
4.36719
 20
6.72922
 30
0.0
 11
4.78728
 21
6.89501
 31
0.0
  0
LINE
  8
0
 62
     0
 10
4.78728
 20
6.89501
 30
0.0
 11
5.20117
 21
7.08339
 31
0.0
  0
LINE
  8
0
 62
     0
 10
5.20117
 20
7.08339
 30
0.0
 11
5.60889
 21
7.29432
 31
0.0
  0
LINE
  8
0
 62
     0
 10
5.60889
 20
7.29432
 30
0.0
 11
6.01042
 21
7.52783
 31
0.0
  0
LINE
  8
0
 62
     0
 10
6.01042
 20
7.52783
 30
0.0
 11
6.40576
 21
7.7839
 31
0.0
  0
LINE
  8
0
 62
     0
 10
6.40576
 20
7.7839
 30
0.0
 11
6.79492
 21
8.06256
 31
0.0
  0
LINE
  8
0
 62
     0
 10
6.79492
 20
8.06256
 30
0.0
 11
7.1779
 21
8.36376
 31
0.0
  0
LINE
  8
0
 62
     0
 10
7.1779
 20
8.36376
 30
0.0
 11
7.55469
 21
8.68756
 31
0.0
  0
LINE
  8
0
 62
     0
 10
7.55469
 20
8.68756
 30
0.0
 11
7.92529
 21
9.0339
 31
0.0
  0
LINE
  8
0
 62
     0
 10
7.92529
 20
9.0339
 30
0.0
 11
8.28971
 21
9.40283
 31
0.0
  0
LINE
  8
0
 62
     0
 10
8.28971
 20
9.40283
 30
0.0
 11
8.64794
 21
9.79432
 31
0.0
  0
LINE
  8
0
 62
     0
 10
8.64794
 20
9.79432
 30
0.0
 11
9
 21
10.2083
 31
0.0
  0
LINE
  8
0
 62
     0
 10
9
 20
10.2083
 30
0.0
 11
9.65821
 21
11.0803
 31
0.0
  0
LINE
  8
0
 62
     0
 10
9.65821
 20
11.0803
 30
0.0
 11
10.2092
 21
11.9531
 31
0.0
  0
LINE
  8
0
 62
     0
 10
10.2092
 20
11.9531
 30
0.0
 11
10.653
 21
12.8268
 31
0.0
  0
LINE
  8
0
 62
     0
 10
10.653
 20
12.8268
 30
0.0
 11
10.9896
 21
13.7014
 31
0.0
  0
LINE
  8
0
 62
     0
 10
10.9896
 20
13.7014
 30
0.0
 11
11.219
 21
14.5768
 31
0.0
  0
LINE
  8
0
 62
     0
 10
11.219
 20
14.5768
 30
0.0
 11
11.3412
 21
15.4532
 31
0.0
  0
LINE
  8
0
 62
     0
 10
11.3412
 20
15.4532
 30
0.0
 11
11.3561
 21
16.3303
 31
0.0
  0
LINE
  8
0
 62
     0
 10
11.3561
 20
16.3303
 30
0.0
 11
11.2639
 21
17.2083
 31
0.0
  0
LINE
  8
0
 62
     0
 10
11.2639
 20
17.2083
 30
0.0
 11
11.1805
 21
17.6032
 31
0.0
  0
LINE
  8
0
 62
     0
 10
11.1805
 20
17.6032
 30
0.0
 11
11.0624
 21
17.9679
 31
0.0
  0
LINE
  8
0
 62
     0
 10
11.0624
 20
17.9679
 30
0.0
 11
10.9097
 21
18.3028
 31
0.0
  0
LINE
  8
0
 62
     0
 10
10.9097
 20
18.3028
 30
0.0
 11
10.7222
 21
18.6076
 31
0.0
  0
LINE
  8
0
 62
     0
 10
10.7222
 20
18.6076
 30
0.0
 11
10.4999
 21
18.8826
 31
0.0
  0
LINE
  8
0
 62
     0
 10
10.4999
 20
18.8826
 30
0.0
 11
10.243
 21
19.1276
 31
0.0
  0
LINE
  8
0
 62
     0
 10
10.243
 20
19.1276
 30
0.0
 11
9.95133
 21
19.3426
 31
0.0
  0
LINE
  8
0
 62
     0
 10
9.95133
 20
19.3426
 30
0.0
 11
9.625
 21
19.5278
 31
0.0
  0
LINE
  8
0
 62
     0
 10
9.625
 20
19.5278
 30
0.0
 11
9.3164
 21
19.6647
 31
0.0
  0
LINE
  8
0
 62
     0
 10
9.3164
 20
19.6647
 30
0.0
 11
8.98785
 21
19.7769
 31
0.0
  0
LINE
  8
0
 62
     0
 10
8.98785
 20
19.7769
 30
0.0
 11
8.63932
 21
19.8644
 31
0.0
  0
LINE
  8
0
 62
     0
 10
8.63932
 20
19.8644
 30
0.0
 11
8.27083
 21
19.9271
 31
0.0
  0
LINE
  8
0
 62
     0
 10
8.27083
 20
19.9271
 30
0.0
 11
7.88238
 21
19.965
 31
0.0
  0
LINE
  8
0
 62
     0
 10
7.88238
 20
19.965
 30
0.0
 11
7.47396
 21
19.9783
 31
0.0
  0
LINE
  8
0
 62
     0
 10
7.47396
 20
19.9783
 30
0.0
 11
7.04557
 21
19.9668
 31
0.0
  0
LINE
  8
0
 62
     0
 10
7.04557
 20
19.9668
 30
0.0
 11
6.59722
 21
19.9306
 31
0.0
  0
LINE
  8
0
 62
     0
 10
6.59722
 20
19.9306
 30
0.0
 11
5.77946
 21
19.8056
 31
0.0
  0
LINE
  8
0
 62
     0
 10
5.77946
 20
19.8056
 30
0.0
 11
4.96522
 21
19.6111
 31
0.0
  0
LINE
  8
0
 62
     0
 10
4.96522
 20
19.6111
 30
0.0
 11
4.15446
 21
19.3472
 31
0.0
  0
LINE
  8
0
 62
     0
 10
4.15446
 20
19.3472
 30
0.0
 11
3.34722
 21
19.0139
 31
0.0
  0
LINE
  8
0
 62
     0
 10
3.34722
 20
19.0139
 30
0.0
 11
2.96442
 21
18.8275
 31
0.0
  0
LINE
  8
0
 62
     0
 10
2.96442
 20
18.8275
 30
0.0
 11
2.60764
 21
18.6364
 31
0.0
  0
LINE
  8
0
 62
     0
 10
2.60764
 20
18.6364
 30
0.0
 11
2.27692
 21
18.4404
 31
0.0
  0
LINE
  8
0
 62
     0
 10
2.27692
 20
18.4404
 30
0.0
 11
1.97222
 21
18.2396
 31
0.0
  0
LINE
  8
0
 62
     0
 10
1.97222
 20
18.2396
 30
0.0
 11
1.69358
 21
18.0342
 31
0.0
  0
LINE
  8
0
 62
     0
 10
1.69358
 20
18.0342
 30
0.0
 11
1.44097
 21
17.8239
 31
0.0
  0
LINE
  8
0
 62
     0
 10
1.44097
 20
17.8239
 30
0.0
 11
1.21441
 21
17.6087
 31
0.0
  0
LINE
  8
0
 62
     0
 10
1.21441
 20
17.6087
 30
0.0
 11
1.01389
 21
17.3889
 31
0.0
  0
LINE
  8
0
 62
     0
 10
1.01389
 20
17.3889
 30
0.0
 11
0.91059
 21
17.2457
 31
0.0
  0
LINE
  8
0
 62
     0
 10
0.91059
 20
17.2457
 30
0.0
 11
0.836806
 21
17.1076
 31
0.0
  0
LINE
  8
0
 62
     0
 10
0.836806
 20
17.1076
 30
0.0
 11
0.792535
 21
16.9749
 31
0.0
  0
LINE
  8
0
 62
     0
 10
0.792535
 20
16.9749
 30
0.0
 11
0.777778
 21
16.8472
 31
0.0
  0
LINE
  8
0
 62
     0
 10
0.777778
 20
16.8472
 30
0.0
 11
0.559842
 21
16.7757
 31
0.0
  0
LINE
  8
0
 62
     0
 10
0.559842
 20
16.7757
 30
0.0
 11
0.371474
 21
16.6997
 31
0.0
  0
LINE
  8
0
 62
     0
 10
0.371474
 20
16.6997
 30
0.0
 11
0.212619
 21
16.6194
 31
0.0
  0
LINE
  8
0
 62
     0
 10
0.212619
 20
16.6194
 30
0.0
 11
0.083279
 21
16.5347
 31
0.0
  0
LINE
  8
0
 62
     0
 10
0.083279
 20
16.5347
 30
0.0
 11
-0.0165474
 21
16.4458
 31
0.0
  0
LINE
  8
0
 62
     0
 10
-0.0165474
 20
16.4458
 30
0.0
 11
-0.0868599
 21
16.3525
 31
0.0
  0
LINE
  8
0
 62
     0
 10
-0.0868599
 20
16.3525
 30
0.0
 11
-0.127658
 21
16.2549
 31
0.0
  0
LINE
  8
0
 62
     0
 10
-0.127658
 20
16.2549
 30
0.0
 11
-0.138889
 21
16.1528
 31
0.0
  0
LINE
  8
0
 62
     0
 10
-0.138889
 20
16.1528
 30
0.0
 11
-0.125434
 21
15.8101
 31
0.0
  0
LINE
  8
0
 62
     0
 10
-0.125434
 20
15.8101
 30
0.0
 11
-0.112847
 21
15.4211
 31
0.0
  0
LINE
  8
0
 62
     0
 10
-0.112847
 20
15.4211
 30
0.0
 11
-0.101128
 21
14.9856
 31
0.0
  0
LINE
  8
0
 62
     0
 10
-0.101128
 20
14.9856
 30
0.0
 11
-0.0902778
 21
14.5035
 31
0.0
  0
LINE
  8
0
 62
     0
 10
-0.0902778
 20
14.5035
 30
0.0
 11
-0.0802951
 21
13.9751
 31
0.0
  0
LINE
  8
0
 62
     0
 10
-0.0802951
 20
13.9751
 30
0.0
 11
-0.0711806
 21
13.4002
 31
0.0
  0
LINE
  8
0
 62
     0
 10
-0.0711806
 20
13.4002
 30
0.0
 11
-0.062934
 21
12.7789
 31
0.0
  0
LINE
  8
0
 62
     0
 10
-0.062934
 20
12.7789
 30
0.0
 11
-0.0555556
 21
12.1111
 31
0.0
  0
LINE
  8
0
 62
     0
 10
-0.0555556
 20
12.1111
 30
0.0
 11
-0.0482314
 21
11.4378
 31
0.0
  0
LINE
  8
0
 62
     0
 10
-0.0482314
 20
11.4378
 30
0.0
 11
-0.0399849
 21
10.8065
 31
0.0
  0
LINE
  8
0
 62
     0
 10
-0.0399849
 20
10.8065
 30
0.0
 11
-0.0308703
 21
10.2173
 31
0.0
  0
LINE
  8
0
 62
     0
 10
-0.0308703
 20
10.2173
 30
0.0
 11
-0.0208876
 21
9.67019
 31
0.0
  0
LINE
  8
0
 62
     0
 10
-0.0208876
 20
9.67019
 30
0.0
 11
-0.0100369
 21
9.16521
 31
0.0
  0
LINE
  8
0
 62
     0
 10
-0.0100369
 20
9.16521
 30
0.0
 11
0.00168186
 21
8.70231
 31
0.0
  0
LINE
  8
0
 62
     0
 10
0.00168186
 20
8.70231
 30
0.0
 11
0.0142686
 21
8.28153
 31
0.0
  0
LINE
  8
0
 62
     0
 10
0.0142686
 20
8.28153
 30
0.0
 11
0.0277778
 21
7.90278
 31
0.0
  0
LINE
  8
0
 62
     0
 10
0.0277778
 20
7.90278
 30
0.0
 11
0.0974393
 21
6.68625
 31
0.0
  0
LINE
  8
0
 62
     0
 10
0.0974393
 20
6.68625
 30
0.0
 11
0.195313
 21
5.52957
 31
0.0
  0
LINE
  8
0
 62
     0
 10
0.195313
 20
5.52957
 30
0.0
 11
0.321397
 21
4.43278
 31
0.0
  0
LINE
  8
0
 62
     0
 10
0.321397
 20
4.43278
 30
0.0
 11
0.475694
 21
3.39583
 31
0.0
  0
LINE
  8
0
 62
     0
 10
0.475694
 20
3.39583
 30
0.0
 11
0.658203
 21
2.41883
 31
0.0
  0
LINE
  8
0
 62
     0
 10
0.658203
 20
2.41883
 30
0.0
 11
0.868924
 21
1.50174
 31
0.0
  0
LINE
  8
0
 62
     0
 10
0.868924
 20
1.50174
 30
0.0
 11
1.10786
 21
0.644532
 31
0.0
  0
LINE
  8
0
 62
     0
 10
1.10786
 20
0.644532
 30
0.0
 11
1.375
 21
-0.152778
 31
0.0
  0
LINE
  8
0
 62
     0
 10
1.375
 20
-0.152778
 30
0.0
 11
1.43294
 21
-0.254775
 31
0.0
  0
LINE
  8
0
 62
     0
 10
1.43294
 20
-0.254775
 30
0.0
 11
1.52344
 21
-0.331597
 31
0.0
  0
LINE
  8
0
 62
     0
 10
1.52344
 20
-0.331597
 30
0.0
 11
1.64649
 21
-0.383247
 31
0.0
  0
LINE
  8
0
 62
     0
 10
1.64649
 20
-0.383247
 30
0.0
 11
1.80208
 21
-0.409722
 31
0.0
  0
LINE
  8
0
 62
     0
 10
1.80208
 20
-0.409722
 30
0.0
 11
1.99024
 21
-0.411025
 31
0.0
  0
LINE
  8
0
 62
     0
 10
1.99024
 20
-0.411025
 30
0.0
 11
2.21094
 21
-0.387153
 31
0.0
  0
LINE
  8
0
 62
     0
 10
2.21094
 20
-0.387153
 30
0.0
 11
2.46419
 21
-0.338108
 31
0.0
  0
LINE
  8
0
 62
     0
 10
2.46419
 20
-0.338108
 30
0.0
 11
2.75
 21
-0.263889
 31
0.0
  0
LINE
  8
0
 62
     0
 10
2.75
 20
-0.263889
 30
0.0
 11
2.98258
 21
-0.19005
 31
0.0
  0
LINE
  8
0
 62
     0
 10
2.98258
 20
-0.19005
 30
0.0
 11
3.19444
 21
-0.107585
 31
0.0
  0
LINE
  8
0
 62
     0
 10
3.19444
 20
-0.107585
 30
0.0
 11
3.38542
 21
-0.0164388
 31
0.0
  0
LINE
  8
0
 62
     0
 10
3.38542
 20
-0.0164388
 30
0.0
 11
3.55556
 21
0.0833333
 31
0.0
  0
LINE
  8
0
 62
     0
 10
3.55556
 20
0.0833333
 30
0.0
 11
3.697
 21
0.192762
 31
0.0
  0
LINE
  8
0
 62
     0
 10
3.697
 20
0.192762
 30
0.0
 11
3.78814
 21
0.298665
 31
0.0
  0
LINE
  8
0
 62
     0
 10
3.78814
 20
0.298665
 30
0.0
 11
3.82894
 21
0.401096
 31
0.0
  0
LINE
  8
0
 62
     0
 10
3.82894
 20
0.401096
 30
0.0
 11
3.81944
 21
0.5
 31
0.0
  0
LINE
  8
0
 62
     0
 10
3.81944
 20
0.5
 30
0.0
 11
3.60932
 21
1.1161
 31
0.0
  0
LINE
  8
0
 62
     0
 10
3.60932
 20
1.1161
 30
0.0
 11
3.41661
 21
1.76303
 31
0.0
  0
LINE
  8
0
 62
     0
 10
3.41661
 20
1.76303
 30
0.0
 11
3.24126
 21
2.44075
 31
0.0
  0
LINE
  8
0
 62
     0
 10
3.24126
 20
2.44075
 30
0.0
 11
3.08328
 21
3.14931
 31
0.0
  0
LINE
  8
0
 62
     0
 10
3.08328
 20
3.14931
 30
0.0
 11
2.94265
 21
3.88867
 31
0.0
  0
LINE
  8
0
 62
     0
 10
2.94265
 20
3.88867
 30
0.0
 11
2.81939
 21
4.65886
 31
0.0
  0
LINE
  8
0
 62
     0
 10
2.81939
 20
4.65886
 30
0.0
 11
2.71349
 21
5.45985
 31
0.0
  0
LINE
  8
0
 62
     0
 10
2.71349
 20
5.45985
 30
0.0
 11
2.625
 21
6.29167
 31
0.0
  0
ENDSEC
  0
EOF
