  0
SECTION
  2
HEADER
  9
$ACADVER
  1
AC1009
  9
$EXTMIN
 10
0.0
 20
0.0
 30
0.0
  9
$EXTMAX
 10
1000.0
 20
1000.0
 30
0.0
  9
$FILLMODE
 70
 0
  9
$SPLFRAME
 70
 1
  0
ENDSEC
  0
SECTION
  2
TABLES
  0
TABLE
  2
LAYER
 70
1
  0
LAYER
  2
0
 70
     0
 62
     7
  6
CONTINUOUS
  0
ENDTAB
  0
ENDSEC
  0
SECTION
  2
ENTITIES
  0
LINE
  8
0
 62
     0
 10
5.19444
 20
18.375
 30
0.0
 11
4.81776
 21
18.8696
 31
0.0
  0
LINE
  8
0
 62
     0
 10
4.81776
 20
18.8696
 30
0.0
 11
4.42051
 21
19.3286
 31
0.0
  0
LINE
  8
0
 62
     0
 10
4.42051
 20
19.3286
 30
0.0
 11
4.00265
 21
19.7524
 31
0.0
  0
LINE
  8
0
 62
     0
 10
4.00265
 20
19.7524
 30
0.0
 11
3.56418
 21
20.1407
 31
0.0
  0
LINE
  8
0
 62
     0
 10
3.56418
 20
20.1407
 30
0.0
 11
3.10508
 21
20.4936
 31
0.0
  0
LINE
  8
0
 62
     0
 10
3.10508
 20
20.4936
 30
0.0
 11
2.62537
 21
20.8113
 31
0.0
  0
LINE
  8
0
 62
     0
 10
2.62537
 20
20.8113
 30
0.0
 11
2.12506
 21
21.0935
 31
0.0
  0
LINE
  8
0
 62
     0
 10
2.12506
 20
21.0935
 30
0.0
 11
1.60411
 21
21.3403
 31
0.0
  0
LINE
  8
0
 62
     0
 10
1.60411
 20
21.3403
 30
0.0
 11
1.06255
 21
21.5518
 31
0.0
  0
LINE
  8
0
 62
     0
 10
1.06255
 20
21.5518
 30
0.0
 11
0.500379
 21
21.7279
 31
0.0
  0
LINE
  8
0
 62
     0
 10
0.500379
 20
21.7279
 30
0.0
 11
-0.082411
 21
21.8686
 31
0.0
  0
LINE
  8
0
 62
     0
 10
-0.082411
 20
21.8686
 30
0.0
 11
-0.685818
 21
21.974
 31
0.0
  0
LINE
  8
0
 62
     0
 10
-0.685818
 20
21.974
 30
0.0
 11
-1.30984
 21
22.044
 31
0.0
  0
LINE
  8
0
 62
     0
 10
-1.30984
 20
22.044
 30
0.0
 11
-1.95449
 21
22.0786
 31
0.0
  0
LINE
  8
0
 62
     0
 10
-1.95449
 20
22.0786
 30
0.0
 11
-2.61974
 21
22.0779
 31
0.0
  0
LINE
  8
0
 62
     0
 10
-2.61974
 20
22.0779
 30
0.0
 11
-3.30556
 21
22.0417
 31
0.0
  0
LINE
  8
0
 62
     0
 10
-3.30556
 20
22.0417
 30
0.0
 11
-3.56689
 21
21.994
 31
0.0
  0
LINE
  8
0
 62
     0
 10
-3.56689
 20
21.994
 30
0.0
 11
-3.83686
 21
21.8924
 31
0.0
  0
LINE
  8
0
 62
     0
 10
-3.83686
 20
21.8924
 30
0.0
 11
-4.1155
 21
21.7371
 31
0.0
  0
LINE
  8
0
 62
     0
 10
-4.1155
 20
21.7371
 30
0.0
 11
-4.40278
 21
21.5278
 31
0.0
  0
LINE
  8
0
 62
     0
 10
-4.40278
 20
21.5278
 30
0.0
 11
-4.50347
 21
21.4358
 31
0.0
  0
LINE
  8
0
 62
     0
 10
-4.50347
 20
21.4358
 30
0.0
 11
-4.56944
 21
21.3542
 31
0.0
  0
LINE
  8
0
 62
     0
 10
-4.56944
 20
21.3542
 30
0.0
 11
-4.60069
 21
21.2831
 31
0.0
  0
LINE
  8
0
 62
     0
 10
-4.60069
 20
21.2831
 30
0.0
 11
-4.59722
 21
21.2222
 31
0.0
  0
LINE
  8
0
 62
     0
 10
-4.59722
 20
21.2222
 30
0.0
 11
-4.54514
 21
21.1693
 31
0.0
  0
LINE
  8
0
 62
     0
 10
-4.54514
 20
21.1693
 30
0.0
 11
-4.44444
 21
21.1354
 31
0.0
  0
LINE
  8
0
 62
     0
 10
-4.44444
 20
21.1354
 30
0.0
 11
-4.29514
 21
21.1207
 31
0.0
  0
LINE
  8
0
 62
     0
 10
-4.29514
 20
21.1207
 30
0.0
 11
-4.09722
 21
21.125
 31
0.0
  0
LINE
  8
0
 62
     0
 10
-4.09722
 20
21.125
 30
0.0
 11
-3.49864
 21
21.1561
 31
0.0
  0
LINE
  8
0
 62
     0
 10
-3.49864
 20
21.1561
 30
0.0
 11
-2.91803
 21
21.1554
 31
0.0
  0
LINE
  8
0
 62
     0
 10
-2.91803
 20
21.1554
 30
0.0
 11
-2.35542
 21
21.1231
 31
0.0
  0
LINE
  8
0
 62
     0
 10
-2.35542
 20
21.1231
 30
0.0
 11
-1.81082
 21
21.059
 31
0.0
  0
LINE
  8
0
 62
     0
 10
-1.81082
 20
21.059
 30
0.0
 11
-1.28423
 21
20.9633
 31
0.0
  0
LINE
  8
0
 62
     0
 10
-1.28423
 20
20.9633
 30
0.0
 11
-0.775662
 21
20.836
 31
0.0
  0
LINE
  8
0
 62
     0
 10
-0.775662
 20
20.836
 30
0.0
 11
-0.285101
 21
20.6769
 31
0.0
  0
LINE
  8
0
 62
     0
 10
-0.285101
 20
20.6769
 30
0.0
 11
0.187446
 21
20.4861
 31
0.0
  0
LINE
  8
0
 62
     0
 10
0.187446
 20
20.4861
 30
0.0
 11
0.641982
 21
20.2638
 31
0.0
  0
LINE
  8
0
 62
     0
 10
0.641982
 20
20.2638
 30
0.0
 11
1.0785
 21
20.0096
 31
0.0
  0
LINE
  8
0
 62
     0
 10
1.0785
 20
20.0096
 30
0.0
 11
1.49701
 21
19.7237
 31
0.0
  0
LINE
  8
0
 62
     0
 10
1.49701
 20
19.7237
 30
0.0
 11
1.89751
 21
19.4063
 31
0.0
  0
LINE
  8
0
 62
     0
 10
1.89751
 20
19.4063
 30
0.0
 11
2.28
 21
19.0571
 31
0.0
  0
LINE
  8
0
 62
     0
 10
2.28
 20
19.0571
 30
0.0
 11
2.64447
 21
18.6762
 31
0.0
  0
LINE
  8
0
 62
     0
 10
2.64447
 20
18.6762
 30
0.0
 11
2.99094
 21
18.2638
 31
0.0
  0
LINE
  8
0
 62
     0
 10
2.99094
 20
18.2638
 30
0.0
 11
3.31944
 21
17.8194
 31
0.0
  0
LINE
  8
0
 62
     0
 10
3.31944
 20
17.8194
 30
0.0
 11
3.58951
 21
17.4133
 31
0.0
  0
LINE
  8
0
 62
     0
 10
3.58951
 20
17.4133
 30
0.0
 11
3.84071
 21
16.9933
 31
0.0
  0
LINE
  8
0
 62
     0
 10
3.84071
 20
16.9933
 30
0.0
 11
4.07303
 21
16.5596
 31
0.0
  0
LINE
  8
0
 62
     0
 10
4.07303
 20
16.5596
 30
0.0
 11
4.28646
 21
16.1121
 31
0.0
  0
LINE
  8
0
 62
     0
 10
4.28646
 20
16.1121
 30
0.0
 11
4.48101
 21
15.6507
 31
0.0
  0
LINE
  8
0
 62
     0
 10
4.48101
 20
15.6507
 30
0.0
 11
4.65668
 21
15.1756
 31
0.0
  0
LINE
  8
0
 62
     0
 10
4.65668
 20
15.1756
 30
0.0
 11
4.81347
 21
14.6868
 31
0.0
  0
LINE
  8
0
 62
     0
 10
4.81347
 20
14.6868
 30
0.0
 11
4.95139
 21
14.184
 31
0.0
  0
LINE
  8
0
 62
     0
 10
4.95139
 20
14.184
 30
0.0
 11
5.07042
 21
13.6676
 31
0.0
  0
LINE
  8
0
 62
     0
 10
5.07042
 20
13.6676
 30
0.0
 11
5.17057
 21
13.1374
 31
0.0
  0
LINE
  8
0
 62
     0
 10
5.17057
 20
13.1374
 30
0.0
 11
5.25185
 21
12.5934
 31
0.0
  0
LINE
  8
0
 62
     0
 10
5.25185
 20
12.5934
 30
0.0
 11
5.31424
 21
12.0356
 31
0.0
  0
LINE
  8
0
 62
     0
 10
5.31424
 20
12.0356
 30
0.0
 11
5.35775
 21
11.4641
 31
0.0
  0
LINE
  8
0
 62
     0
 10
5.35775
 20
11.4641
 30
0.0
 11
5.38238
 21
10.8788
 31
0.0
  0
LINE
  8
0
 62
     0
 10
5.38238
 20
10.8788
 30
0.0
 11
5.38813
 21
10.2796
 31
0.0
  0
LINE
  8
0
 62
     0
 10
5.38813
 20
10.2796
 30
0.0
 11
5.375
 21
9.66667
 31
0.0
  0
LINE
  8
0
 62
     0
 10
5.375
 20
9.66667
 30
0.0
 11
5.34446
 21
9.07379
 31
0.0
  0
LINE
  8
0
 62
     0
 10
5.34446
 20
9.07379
 30
0.0
 11
5.29812
 21
8.49306
 31
0.0
  0
LINE
  8
0
 62
     0
 10
5.29812
 20
8.49306
 30
0.0
 11
5.23594
 21
7.92449
 31
0.0
  0
LINE
  8
0
 62
     0
 10
5.23594
 20
7.92449
 30
0.0
 11
5.15793
 21
7.36806
 31
0.0
  0
LINE
  8
0
 62
     0
 10
5.15793
 20
7.36806
 30
0.0
 11
5.06407
 21
6.82379
 31
0.0
  0
LINE
  8
0
 62
     0
 10
5.06407
 20
6.82379
 30
0.0
 11
4.95437
 21
6.29167
 31
0.0
  0
LINE
  8
0
 62
     0
 10
4.95437
 20
6.29167
 30
0.0
 11
4.82883
 21
5.77171
 31
0.0
  0
LINE
  8
0
 62
     0
 10
4.82883
 20
5.77171
 30
0.0
 11
4.68744
 21
5.26389
 31
0.0
  0
LINE
  8
0
 62
     0
 10
4.68744
 20
5.26389
 30
0.0
 11
4.53022
 21
4.76824
 31
0.0
  0
LINE
  8
0
 62
     0
 10
4.53022
 20
4.76824
 30
0.0
 11
4.35715
 21
4.28472
 31
0.0
  0
LINE
  8
0
 62
     0
 10
4.35715
 20
4.28472
 30
0.0
 11
4.16824
 21
3.81337
 31
0.0
  0
LINE
  8
0
 62
     0
 10
4.16824
 20
3.81337
 30
0.0
 11
3.96349
 21
3.35417
 31
0.0
  0
LINE
  8
0
 62
     0
 10
3.96349
 20
3.35417
 30
0.0
 11
3.74289
 21
2.90713
 31
0.0
  0
LINE
  8
0
 62
     0
 10
3.74289
 20
2.90713
 30
0.0
 11
3.50646
 21
2.47222
 31
0.0
  0
LINE
  8
0
 62
     0
 10
3.50646
 20
2.47222
 30
0.0
 11
3.25418
 21
2.04949
 31
0.0
  0
LINE
  8
0
 62
     0
 10
3.25418
 20
2.04949
 30
0.0
 11
2.98611
 21
1.63889
 31
0.0
  0
LINE
  8
0
 62
     0
 10
2.98611
 20
1.63889
 30
0.0
 11
2.67806
 21
1.21593
 31
0.0
  0
LINE
  8
0
 62
     0
 10
2.67806
 20
1.21593
 30
0.0
 11
2.36171
 21
0.825521
 31
0.0
  0
LINE
  8
0
 62
     0
 10
2.36171
 20
0.825521
 30
0.0
 11
2.037
 21
0.467665
 31
0.0
  0
LINE
  8
0
 62
     0
 10
2.037
 20
0.467665
 30
0.0
 11
1.70394
 21
0.142361
 31
0.0
  0
LINE
  8
0
 62
     0
 10
1.70394
 20
0.142361
 30
0.0
 11
1.36252
 21
-0.15039
 31
0.0
  0
LINE
  8
0
 62
     0
 10
1.36252
 20
-0.15039
 30
0.0
 11
1.01275
 21
-0.41059
 31
0.0
  0
LINE
  8
0
 62
     0
 10
1.01275
 20
-0.41059
 30
0.0
 11
0.654622
 21
-0.638237
 31
0.0
  0
LINE
  8
0
 62
     0
 10
0.654622
 20
-0.638237
 30
0.0
 11
0.28814
 21
-0.833333
 31
0.0
  0
LINE
  8
0
 62
     0
 10
0.28814
 20
-0.833333
 30
0.0
 11
-0.0866971
 21
-0.995822
 31
0.0
  0
LINE
  8
0
 62
     0
 10
-0.0866971
 20
-0.995822
 30
0.0
 11
-0.469889
 21
-1.12581
 31
0.0
  0
LINE
  8
0
 62
     0
 10
-0.469889
 20
-1.12581
 30
0.0
 11
-0.861436
 21
-1.22325
 31
0.0
  0
LINE
  8
0
 62
     0
 10
-0.861436
 20
-1.22325
 30
0.0
 11
-1.26134
 21
-1.28814
 31
0.0
  0
LINE
  8
0
 62
     0
 10
-1.26134
 20
-1.28814
 30
0.0
 11
-1.6696
 21
-1.32048
 31
0.0
  0
LINE
  8
0
 62
     0
 10
-1.6696
 20
-1.32048
 30
0.0
 11
-2.08621
 21
-1.32026
 31
0.0
  0
LINE
  8
0
 62
     0
 10
-2.08621
 20
-1.32026
 30
0.0
 11
-2.51118
 21
-1.28749
 31
0.0
  0
LINE
  8
0
 62
     0
 10
-2.51118
 20
-1.28749
 30
0.0
 11
-2.94444
 21
-1.22222
 31
0.0
  0
LINE
  8
0
 62
     0
 10
-2.94444
 20
-1.22222
 30
0.0
 11
-3.17974
 21
-1.21262
 31
0.0
  0
LINE
  8
0
 62
     0
 10
-3.17974
 20
-1.21262
 30
0.0
 11
-3.45492
 21
-1.26731
 31
0.0
  0
LINE
  8
0
 62
     0
 10
-3.45492
 20
-1.26731
 30
0.0
 11
-3.77001
 21
-1.38623
 31
0.0
  0
LINE
  8
0
 62
     0
 10
-3.77001
 20
-1.38623
 30
0.0
 11
-4.125
 21
-1.56944
 31
0.0
  0
LINE
  8
0
 62
     0
 10
-4.125
 20
-1.56944
 30
0.0
 11
-4.26133
 21
-1.65713
 31
0.0
  0
LINE
  8
0
 62
     0
 10
-4.26133
 20
-1.65713
 30
0.0
 11
-4.36464
 21
-1.73958
 31
0.0
  0
LINE
  8
0
 62
     0
 10
-4.36464
 20
-1.73958
 30
0.0
 11
-4.43494
 21
-1.81679
 31
0.0
  0
LINE
  8
0
 62
     0
 10
-4.43494
 20
-1.81679
 30
0.0
 11
-4.47222
 21
-1.88889
 31
0.0
  0
LINE
  8
0
 62
     0
 10
-4.47222
 20
-1.88889
 30
0.0
 11
-4.46881
 21
-1.96615
 31
0.0
  0
LINE
  8
0
 62
     0
 10
-4.46881
 20
-1.96615
 30
0.0
 11
-4.41672
 21
-2.03125
 31
0.0
  0
LINE
  8
0
 62
     0
 10
-4.41672
 20
-2.03125
 30
0.0
 11
-4.31603
 21
-2.08421
 31
0.0
  0
LINE
  8
0
 62
     0
 10
-4.31603
 20
-2.08421
 30
0.0
 11
-4.16667
 21
-2.125
 31
0.0
  0
LINE
  8
0
 62
     0
 10
-4.16667
 20
-2.125
 30
0.0
 11
-3.59565
 21
-2.21431
 31
0.0
  0
LINE
  8
0
 62
     0
 10
-3.59565
 20
-2.21431
 30
0.0
 11
-3.03521
 21
-2.26708
 31
0.0
  0
LINE
  8
0
 62
     0
 10
-3.03521
 20
-2.26708
 30
0.0
 11
-2.4854
 21
-2.28331
 31
0.0
  0
LINE
  8
0
 62
     0
 10
-2.4854
 20
-2.28331
 30
0.0
 11
-1.94624
 21
-2.26297
 31
0.0
  0
LINE
  8
0
 62
     0
 10
-1.94624
 20
-2.26297
 30
0.0
 11
-1.41769
 21
-2.20606
 31
0.0
  0
LINE
  8
0
 62
     0
 10
-1.41769
 20
-2.20606
 30
0.0
 11
-0.899794
 21
-2.11257
 31
0.0
  0
LINE
  8
0
 62
     0
 10
-0.899794
 20
-2.11257
 30
0.0
 11
-0.392524
 21
-1.98253
 31
0.0
  0
LINE
  8
0
 62
     0
 10
-0.392524
 20
-1.98253
 30
0.0
 11
0.104112
 21
-1.81592
 31
0.0
  0
LINE
  8
0
 62
     0
 10
0.104112
 20
-1.81592
 30
0.0
 11
0.590115
 21
-1.61274
 31
0.0
  0
LINE
  8
0
 62
     0
 10
0.590115
 20
-1.61274
 30
0.0
 11
1.06548
 21
-1.37299
 31
0.0
  0
LINE
  8
0
 62
     0
 10
1.06548
 20
-1.37299
 30
0.0
 11
1.53022
 21
-1.09668
 31
0.0
  0
LINE
  8
0
 62
     0
 10
1.53022
 20
-1.09668
 30
0.0
 11
1.98432
 21
-0.7838
 31
0.0
  0
LINE
  8
0
 62
     0
 10
1.98432
 20
-0.7838
 30
0.0
 11
2.42779
 21
-0.434353
 31
0.0
  0
LINE
  8
0
 62
     0
 10
2.42779
 20
-0.434353
 30
0.0
 11
2.86062
 21
-0.0483399
 31
0.0
  0
LINE
  8
0
 62
     0
 10
2.86062
 20
-0.0483399
 30
0.0
 11
3.28282
 21
0.37424
 31
0.0
  0
LINE
  8
0
 62
     0
 10
3.28282
 20
0.37424
 30
0.0
 11
3.69444
 21
0.833333
 31
0.0
  0
LINE
  8
0
 62
     0
 10
3.69444
 20
0.833333
 30
0.0
 11
4.03179
 21
1.24598
 31
0.0
  0
LINE
  8
0
 62
     0
 10
4.03179
 20
1.24598
 30
0.0
 11
4.35286
 21
1.67144
 31
0.0
  0
LINE
  8
0
 62
     0
 10
4.35286
 20
1.67144
 30
0.0
 11
4.65767
 21
2.10969
 31
0.0
  0
LINE
  8
0
 62
     0
 10
4.65767
 20
2.10969
 30
0.0
 11
4.94618
 21
2.56076
 31
0.0
  0
LINE
  8
0
 62
     0
 10
4.94618
 20
2.56076
 30
0.0
 11
5.21843
 21
3.02462
 31
0.0
  0
LINE
  8
0
 62
     0
 10
5.21843
 20
3.02462
 30
0.0
 11
5.47439
 21
3.50131
 31
0.0
  0
LINE
  8
0
 62
     0
 10
5.47439
 20
3.50131
 30
0.0
 11
5.71408
 21
3.99078
 31
0.0
  0
LINE
  8
0
 62
     0
 10
5.71408
 20
3.99078
 30
0.0
 11
5.9375
 21
4.49306
 31
0.0
  0
LINE
  8
0
 62
     0
 10
5.9375
 20
4.49306
 30
0.0
 11
6.14458
 21
5.00814
 31
0.0
  0
LINE
  8
0
 62
     0
 10
6.14458
 20
5.00814
 30
0.0
 11
6.33544
 21
5.53603
 31
0.0
  0
LINE
  8
0
 62
     0
 10
6.33544
 20
5.53603
 30
0.0
 11
6.51004
 21
6.07671
 31
0.0
  0
LINE
  8
0
 62
     0
 10
6.51004
 20
6.07671
 30
0.0
 11
6.66835
 21
6.63021
 31
0.0
  0
LINE
  8
0
 62
     0
 10
6.66835
 20
6.63021
 30
0.0
 11
6.81039
 21
7.1965
 31
0.0
  0
LINE
  8
0
 62
     0
 10
6.81039
 20
7.1965
 30
0.0
 11
6.93614
 21
7.77561
 31
0.0
  0
LINE
  8
0
 62
     0
 10
6.93614
 20
7.77561
 30
0.0
 11
7.04563
 21
8.36751
 31
0.0
  0
LINE
  8
0
 62
     0
 10
7.04563
 20
8.36751
 30
0.0
 11
7.13889
 21
8.97222
 31
0.0
  0
LINE
  8
0
 62
     0
 10
7.13889
 20
8.97222
 30
0.0
 11
7.22081
 21
9.6665
 31
0.0
  0
LINE
  8
0
 62
     0
 10
7.22081
 20
9.6665
 30
0.0
 11
7.27561
 21
10.3466
 31
0.0
  0
LINE
  8
0
 62
     0
 10
7.27561
 20
10.3466
 30
0.0
 11
7.30328
 21
11.0124
 31
0.0
  0
LINE
  8
0
 62
     0
 10
7.30328
 20
11.0124
 30
0.0
 11
7.30382
 21
11.6641
 31
0.0
  0
LINE
  8
0
 62
     0
 10
7.30382
 20
11.6641
 30
0.0
 11
7.27724
 21
12.3015
 31
0.0
  0
LINE
  8
0
 62
     0
 10
7.27724
 20
12.3015
 30
0.0
 11
7.22353
 21
12.9247
 31
0.0
  0
LINE
  8
0
 62
     0
 10
7.22353
 20
12.9247
 30
0.0
 11
7.14268
 21
13.5337
 31
0.0
  0
LINE
  8
0
 62
     0
 10
7.14268
 20
13.5337
 30
0.0
 11
7.03472
 21
14.1285
 31
0.0
  0
LINE
  8
0
 62
     0
 10
7.03472
 20
14.1285
 30
0.0
 11
6.89963
 21
14.709
 31
0.0
  0
LINE
  8
0
 62
     0
 10
6.89963
 20
14.709
 30
0.0
 11
6.73742
 21
15.2754
 31
0.0
  0
LINE
  8
0
 62
     0
 10
6.73742
 20
15.2754
 30
0.0
 11
6.54807
 21
15.8275
 31
0.0
  0
LINE
  8
0
 62
     0
 10
6.54807
 20
15.8275
 30
0.0
 11
6.3316
 21
16.3654
 31
0.0
  0
LINE
  8
0
 62
     0
 10
6.3316
 20
16.3654
 30
0.0
 11
6.088
 21
16.8892
 31
0.0
  0
LINE
  8
0
 62
     0
 10
6.088
 20
16.8892
 30
0.0
 11
5.81728
 21
17.3986
 31
0.0
  0
LINE
  8
0
 62
     0
 10
5.81728
 20
17.3986
 30
0.0
 11
5.51942
 21
17.8939
 31
0.0
  0
LINE
  8
0
 62
     0
 10
5.51942
 20
17.8939
 30
0.0
 11
5.19444
 21
18.375
 31
0.0
  0
ENDSEC
  0
EOF
