  0
SECTION
  2
HEADER
  9
$ACADVER
  1
AC1009
  9
$EXTMIN
 10
0.0
 20
0.0
 30
0.0
  9
$EXTMAX
 10
1000.0
 20
1000.0
 30
0.0
  9
$FILLMODE
 70
 0
  9
$SPLFRAME
 70
 1
  0
ENDSEC
  0
SECTION
  2
TABLES
  0
TABLE
  2
LAYER
 70
1
  0
LAYER
  2
0
 70
     0
 62
     7
  6
CONTINUOUS
  0
ENDTAB
  0
ENDSEC
  0
SECTION
  2
ENTITIES
  0
LINE
  8
0
 62
     0
 10
6.04167
 20
1.33333
 30
0.0
 11
5.46094
 21
2.035
 31
0.0
  0
LINE
  8
0
 62
     0
 10
5.46094
 20
2.035
 30
0.0
 11
4.94097
 21
2.78564
 31
0.0
  0
LINE
  8
0
 62
     0
 10
4.94097
 20
2.78564
 30
0.0
 11
4.48178
 21
3.58535
 31
0.0
  0
LINE
  8
0
 62
     0
 10
4.48178
 20
3.58535
 30
0.0
 11
4.08333
 21
4.43408
 31
0.0
  0
LINE
  8
0
 62
     0
 10
4.08333
 20
4.43408
 30
0.0
 11
3.74567
 21
5.33187
 31
0.0
  0
LINE
  8
0
 62
     0
 10
3.74567
 20
5.33187
 30
0.0
 11
3.46875
 21
6.27869
 31
0.0
  0
LINE
  8
0
 62
     0
 10
3.46875
 20
6.27869
 30
0.0
 11
3.25261
 21
7.27458
 31
0.0
  0
LINE
  8
0
 62
     0
 10
3.25261
 20
7.27458
 30
0.0
 11
3.09722
 21
8.31944
 31
0.0
  0
LINE
  8
0
 62
     0
 10
3.09722
 20
8.31944
 30
0.0
 11
3.00868
 21
9.36529
 31
0.0
  0
LINE
  8
0
 62
     0
 10
3.00868
 20
9.36529
 30
0.0
 11
2.98611
 21
10.3915
 31
0.0
  0
LINE
  8
0
 62
     0
 10
2.98611
 20
10.3915
 30
0.0
 11
3.02951
 21
11.3983
 31
0.0
  0
LINE
  8
0
 62
     0
 10
3.02951
 20
11.3983
 30
0.0
 11
3.13889
 21
12.3854
 31
0.0
  0
LINE
  8
0
 62
     0
 10
3.13889
 20
12.3854
 30
0.0
 11
3.31424
 21
13.3531
 31
0.0
  0
LINE
  8
0
 62
     0
 10
3.31424
 20
13.3531
 30
0.0
 11
3.55556
 21
14.3012
 31
0.0
  0
LINE
  8
0
 62
     0
 10
3.55556
 20
14.3012
 30
0.0
 11
3.86285
 21
15.2299
 31
0.0
  0
LINE
  8
0
 62
     0
 10
3.86285
 20
15.2299
 30
0.0
 11
4.23611
 21
16.1389
 31
0.0
  0
LINE
  8
0
 62
     0
 10
4.23611
 20
16.1389
 30
0.0
 11
4.4636
 21
16.6153
 31
0.0
  0
LINE
  8
0
 62
     0
 10
4.4636
 20
16.6153
 30
0.0
 11
4.70508
 21
17.0724
 31
0.0
  0
LINE
  8
0
 62
     0
 10
4.70508
 20
17.0724
 30
0.0
 11
4.96056
 21
17.5099
 31
0.0
  0
LINE
  8
0
 62
     0
 10
4.96056
 20
17.5099
 30
0.0
 11
5.23004
 21
17.9281
 31
0.0
  0
LINE
  8
0
 62
     0
 10
5.23004
 20
17.9281
 30
0.0
 11
5.51351
 21
18.3267
 31
0.0
  0
LINE
  8
0
 62
     0
 10
5.51351
 20
18.3267
 30
0.0
 11
5.81099
 21
18.706
 31
0.0
  0
LINE
  8
0
 62
     0
 10
5.81099
 20
18.706
 30
0.0
 11
6.12244
 21
19.0658
 31
0.0
  0
LINE
  8
0
 62
     0
 10
6.12244
 20
19.0658
 30
0.0
 11
6.44792
 21
19.4063
 31
0.0
  0
LINE
  8
0
 62
     0
 10
6.44792
 20
19.4063
 30
0.0
 11
6.78733
 21
19.7274
 31
0.0
  0
LINE
  8
0
 62
     0
 10
6.78733
 20
19.7274
 30
0.0
 11
7.14079
 21
20.0289
 31
0.0
  0
LINE
  8
0
 62
     0
 10
7.14079
 20
20.0289
 30
0.0
 11
7.50825
 21
20.3111
 31
0.0
  0
LINE
  8
0
 62
     0
 10
7.50825
 20
20.3111
 30
0.0
 11
7.88971
 21
20.5739
 31
0.0
  0
LINE
  8
0
 62
     0
 10
7.88971
 20
20.5739
 30
0.0
 11
8.28515
 21
20.8172
 31
0.0
  0
LINE
  8
0
 62
     0
 10
8.28515
 20
20.8172
 30
0.0
 11
8.69461
 21
21.0411
 31
0.0
  0
LINE
  8
0
 62
     0
 10
8.69461
 20
21.0411
 30
0.0
 11
9.11806
 21
21.2456
 31
0.0
  0
LINE
  8
0
 62
     0
 10
9.11806
 20
21.2456
 30
0.0
 11
9.55556
 21
21.4306
 31
0.0
  0
LINE
  8
0
 62
     0
 10
9.55556
 20
21.4306
 30
0.0
 11
9.76275
 21
21.5174
 31
0.0
  0
LINE
  8
0
 62
     0
 10
9.76275
 20
21.5174
 30
0.0
 11
9.92617
 21
21.5972
 31
0.0
  0
LINE
  8
0
 62
     0
 10
9.92617
 20
21.5972
 30
0.0
 11
10.0457
 21
21.6701
 31
0.0
  0
LINE
  8
0
 62
     0
 10
10.0457
 20
21.6701
 30
0.0
 11
10.1215
 21
21.7361
 31
0.0
  0
LINE
  8
0
 62
     0
 10
10.1215
 20
21.7361
 30
0.0
 11
10.1534
 21
21.7951
 31
0.0
  0
LINE
  8
0
 62
     0
 10
10.1534
 20
21.7951
 30
0.0
 11
10.1414
 21
21.8472
 31
0.0
  0
LINE
  8
0
 62
     0
 10
10.1414
 20
21.8472
 30
0.0
 11
10.0857
 21
21.8924
 31
0.0
  0
LINE
  8
0
 62
     0
 10
10.0857
 20
21.8924
 30
0.0
 11
9.98611
 21
21.9306
 31
0.0
  0
LINE
  8
0
 62
     0
 10
9.98611
 20
21.9306
 30
0.0
 11
9.7404
 21
21.9706
 31
0.0
  0
LINE
  8
0
 62
     0
 10
9.7404
 20
21.9706
 30
0.0
 11
9.47564
 21
21.9653
 31
0.0
  0
LINE
  8
0
 62
     0
 10
9.47564
 20
21.9653
 30
0.0
 11
9.19179
 21
21.915
 31
0.0
  0
LINE
  8
0
 62
     0
 10
9.19179
 20
21.915
 30
0.0
 11
8.88889
 21
21.8194
 31
0.0
  0
LINE
  8
0
 62
     0
 10
8.88889
 20
21.8194
 30
0.0
 11
8.40315
 21
21.6164
 31
0.0
  0
LINE
  8
0
 62
     0
 10
8.40315
 20
21.6164
 30
0.0
 11
7.93207
 21
21.3963
 31
0.0
  0
LINE
  8
0
 62
     0
 10
7.93207
 20
21.3963
 30
0.0
 11
7.47564
 21
21.159
 31
0.0
  0
LINE
  8
0
 62
     0
 10
7.47564
 20
21.159
 30
0.0
 11
7.03386
 21
20.9046
 31
0.0
  0
LINE
  8
0
 62
     0
 10
7.03386
 20
20.9046
 30
0.0
 11
6.60672
 21
20.6329
 31
0.0
  0
LINE
  8
0
 62
     0
 10
6.60672
 20
20.6329
 30
0.0
 11
6.19422
 21
20.3442
 31
0.0
  0
LINE
  8
0
 62
     0
 10
6.19422
 20
20.3442
 30
0.0
 11
5.79639
 21
20.0383
 31
0.0
  0
LINE
  8
0
 62
     0
 10
5.79639
 20
20.0383
 30
0.0
 11
5.41319
 21
19.7153
 31
0.0
  0
LINE
  8
0
 62
     0
 10
5.41319
 20
19.7153
 30
0.0
 11
5.0446
 21
19.3751
 31
0.0
  0
LINE
  8
0
 62
     0
 10
5.0446
 20
19.3751
 30
0.0
 11
4.69069
 21
19.0178
 31
0.0
  0
LINE
  8
0
 62
     0
 10
4.69069
 20
19.0178
 30
0.0
 11
4.35146
 21
18.6433
 31
0.0
  0
LINE
  8
0
 62
     0
 10
4.35146
 20
18.6433
 30
0.0
 11
4.02686
 21
18.2518
 31
0.0
  0
LINE
  8
0
 62
     0
 10
4.02686
 20
18.2518
 30
0.0
 11
3.7169
 21
17.8431
 31
0.0
  0
LINE
  8
0
 62
     0
 10
3.7169
 20
17.8431
 30
0.0
 11
3.4216
 21
17.4171
 31
0.0
  0
LINE
  8
0
 62
     0
 10
3.4216
 20
17.4171
 30
0.0
 11
3.14094
 21
16.974
 31
0.0
  0
LINE
  8
0
 62
     0
 10
3.14094
 20
16.974
 30
0.0
 11
2.875
 21
16.5139
 31
0.0
  0
LINE
  8
0
 62
     0
 10
2.875
 20
16.5139
 30
0.0
 11
2.42486
 21
15.6304
 31
0.0
  0
LINE
  8
0
 62
     0
 10
2.42486
 20
15.6304
 30
0.0
 11
2.03988
 21
14.7161
 31
0.0
  0
LINE
  8
0
 62
     0
 10
2.03988
 20
14.7161
 30
0.0
 11
1.72
 21
13.7711
 31
0.0
  0
LINE
  8
0
 62
     0
 10
1.72
 20
13.7711
 30
0.0
 11
1.46528
 21
12.7951
 31
0.0
  0
LINE
  8
0
 62
     0
 10
1.46528
 20
12.7951
 30
0.0
 11
1.27561
 21
11.7884
 31
0.0
  0
LINE
  8
0
 62
     0
 10
1.27561
 20
11.7884
 30
0.0
 11
1.15104
 21
10.7509
 31
0.0
  0
LINE
  8
0
 62
     0
 10
1.15104
 20
10.7509
 30
0.0
 11
1.09158
 21
9.68251
 31
0.0
  0
LINE
  8
0
 62
     0
 10
1.09158
 20
9.68251
 30
0.0
 11
1.09722
 21
8.58333
 31
0.0
  0
LINE
  8
0
 62
     0
 10
1.09722
 20
8.58333
 30
0.0
 11
1.12674
 21
8.00114
 31
0.0
  0
LINE
  8
0
 62
     0
 10
1.12674
 20
8.00114
 30
0.0
 11
1.17725
 21
7.43164
 31
0.0
  0
LINE
  8
0
 62
     0
 10
1.17725
 20
7.43164
 30
0.0
 11
1.2487
 21
6.87483
 31
0.0
  0
LINE
  8
0
 62
     0
 10
1.2487
 20
6.87483
 30
0.0
 11
1.34109
 21
6.33074
 31
0.0
  0
LINE
  8
0
 62
     0
 10
1.34109
 20
6.33074
 30
0.0
 11
1.45443
 21
5.79932
 31
0.0
  0
LINE
  8
0
 62
     0
 10
1.45443
 20
5.79932
 30
0.0
 11
1.58871
 21
5.2806
 31
0.0
  0
LINE
  8
0
 62
     0
 10
1.58871
 20
5.2806
 30
0.0
 11
1.74393
 21
4.77458
 31
0.0
  0
LINE
  8
0
 62
     0
 10
1.74393
 20
4.77458
 30
0.0
 11
1.92008
 21
4.28125
 31
0.0
  0
LINE
  8
0
 62
     0
 10
1.92008
 20
4.28125
 30
0.0
 11
2.11719
 21
3.80062
 31
0.0
  0
LINE
  8
0
 62
     0
 10
2.11719
 20
3.80062
 30
0.0
 11
2.33524
 21
3.33268
 31
0.0
  0
LINE
  8
0
 62
     0
 10
2.33524
 20
3.33268
 30
0.0
 11
2.57422
 21
2.87744
 31
0.0
  0
LINE
  8
0
 62
     0
 10
2.57422
 20
2.87744
 30
0.0
 11
2.83415
 21
2.4349
 31
0.0
  0
LINE
  8
0
 62
     0
 10
2.83415
 20
2.4349
 30
0.0
 11
3.11501
 21
2.00504
 31
0.0
  0
LINE
  8
0
 62
     0
 10
3.11501
 20
2.00504
 30
0.0
 11
3.41683
 21
1.58789
 31
0.0
  0
LINE
  8
0
 62
     0
 10
3.41683
 20
1.58789
 30
0.0
 11
3.73958
 21
1.18343
 31
0.0
  0
LINE
  8
0
 62
     0
 10
3.73958
 20
1.18343
 30
0.0
 11
4.08333
 21
0.791667
 31
0.0
  0
LINE
  8
0
 62
     0
 10
4.08333
 20
0.791667
 30
0.0
 11
4.46115
 21
0.400553
 31
0.0
  0
LINE
  8
0
 62
     0
 10
4.46115
 20
0.400553
 30
0.0
 11
4.85157
 21
0.0360786
 31
0.0
  0
LINE
  8
0
 62
     0
 10
4.85157
 20
0.0360786
 30
0.0
 11
5.25456
 21
-0.301704
 31
0.0
  0
LINE
  8
0
 62
     0
 10
5.25456
 20
-0.301704
 30
0.0
 11
5.67014
 21
-0.612793
 31
0.0
  0
LINE
  8
0
 62
     0
 10
5.67014
 20
-0.612793
 30
0.0
 11
6.09831
 21
-0.89719
 31
0.0
  0
LINE
  8
0
 62
     0
 10
6.09831
 20
-0.89719
 30
0.0
 11
6.53907
 21
-1.15489
 31
0.0
  0
LINE
  8
0
 62
     0
 10
6.53907
 20
-1.15489
 30
0.0
 11
6.9924
 21
-1.38591
 31
0.0
  0
LINE
  8
0
 62
     0
 10
6.9924
 20
-1.38591
 30
0.0
 11
7.45833
 21
-1.59028
 31
0.0
  0
LINE
  8
0
 62
     0
 10
7.45833
 20
-1.59028
 30
0.0
 11
7.93685
 21
-1.7679
 31
0.0
  0
LINE
  8
0
 62
     0
 10
7.93685
 20
-1.7679
 30
0.0
 11
8.42796
 21
-1.91883
 31
0.0
  0
LINE
  8
0
 62
     0
 10
8.42796
 20
-1.91883
 30
0.0
 11
8.93164
 21
-2.04308
 31
0.0
  0
LINE
  8
0
 62
     0
 10
8.93164
 20
-2.04308
 30
0.0
 11
9.44792
 21
-2.14063
 31
0.0
  0
LINE
  8
0
 62
     0
 10
9.44792
 20
-2.14063
 30
0.0
 11
9.97678
 21
-2.21149
 31
0.0
  0
LINE
  8
0
 62
     0
 10
9.97678
 20
-2.21149
 30
0.0
 11
10.5182
 21
-2.25564
 31
0.0
  0
LINE
  8
0
 62
     0
 10
10.5182
 20
-2.25564
 30
0.0
 11
11.0723
 21
-2.27311
 31
0.0
  0
LINE
  8
0
 62
     0
 10
11.0723
 20
-2.27311
 30
0.0
 11
11.6389
 21
-2.26389
 31
0.0
  0
LINE
  8
0
 62
     0
 10
11.6389
 20
-2.26389
 30
0.0
 11
11.8454
 21
-2.23432
 31
0.0
  0
LINE
  8
0
 62
     0
 10
11.8454
 20
-2.23432
 30
0.0
 11
12.1042
 21
-2.15967
 31
0.0
  0
LINE
  8
0
 62
     0
 10
12.1042
 20
-2.15967
 30
0.0
 11
12.4149
 21
-2.03988
 31
0.0
  0
LINE
  8
0
 62
     0
 10
12.4149
 20
-2.03988
 30
0.0
 11
12.7778
 21
-1.875
 31
0.0
  0
LINE
  8
0
 62
     0
 10
12.7778
 20
-1.875
 30
0.0
 11
12.9536
 21
-1.78424
 31
0.0
  0
LINE
  8
0
 62
     0
 10
12.9536
 20
-1.78424
 30
0.0
 11
13.0851
 21
-1.70654
 31
0.0
  0
LINE
  8
0
 62
     0
 10
13.0851
 20
-1.70654
 30
0.0
 11
13.1723
 21
-1.64187
 31
0.0
  0
LINE
  8
0
 62
     0
 10
13.1723
 20
-1.64187
 30
0.0
 11
13.2153
 21
-1.59028
 31
0.0
  0
LINE
  8
0
 62
     0
 10
13.2153
 20
-1.59028
 30
0.0
 11
13.214
 21
-1.55165
 31
0.0
  0
LINE
  8
0
 62
     0
 10
13.214
 20
-1.55165
 30
0.0
 11
13.1684
 21
-1.52604
 31
0.0
  0
LINE
  8
0
 62
     0
 10
13.1684
 20
-1.52604
 30
0.0
 11
13.0786
 21
-1.51346
 31
0.0
  0
LINE
  8
0
 62
     0
 10
13.0786
 20
-1.51346
 30
0.0
 11
12.9444
 21
-1.51389
 31
0.0
  0
LINE
  8
0
 62
     0
 10
12.9444
 20
-1.51389
 30
0.0
 11
12.4259
 21
-1.52061
 31
0.0
  0
LINE
  8
0
 62
     0
 10
12.4259
 20
-1.52061
 30
0.0
 11
11.9191
 21
-1.50276
 31
0.0
  0
LINE
  8
0
 62
     0
 10
11.9191
 20
-1.50276
 30
0.0
 11
11.4238
 21
-1.46029
 31
0.0
  0
LINE
  8
0
 62
     0
 10
11.4238
 20
-1.46029
 30
0.0
 11
10.9401
 21
-1.39318
 31
0.0
  0
LINE
  8
0
 62
     0
 10
10.9401
 20
-1.39318
 30
0.0
 11
10.468
 21
-1.30143
 31
0.0
  0
LINE
  8
0
 62
     0
 10
10.468
 20
-1.30143
 30
0.0
 11
10.0076
 21
-1.18506
 31
0.0
  0
LINE
  8
0
 62
     0
 10
10.0076
 20
-1.18506
 30
0.0
 11
9.55875
 21
-1.04405
 31
0.0
  0
LINE
  8
0
 62
     0
 10
9.55875
 20
-1.04405
 30
0.0
 11
9.12153
 21
-0.878418
 31
0.0
  0
LINE
  8
0
 62
     0
 10
9.12153
 20
-0.878418
 30
0.0
 11
8.6959
 21
-0.688151
 31
0.0
  0
LINE
  8
0
 62
     0
 10
8.6959
 20
-0.688151
 30
0.0
 11
8.2819
 21
-0.473253
 31
0.0
  0
LINE
  8
0
 62
     0
 10
8.2819
 20
-0.473253
 30
0.0
 11
7.8795
 21
-0.233724
 31
0.0
  0
LINE
  8
0
 62
     0
 10
7.8795
 20
-0.233724
 30
0.0
 11
7.48872
 21
0.0304363
 31
0.0
  0
LINE
  8
0
 62
     0
 10
7.48872
 20
0.0304363
 30
0.0
 11
7.10954
 21
0.319228
 31
0.0
  0
LINE
  8
0
 62
     0
 10
7.10954
 20
0.319228
 30
0.0
 11
6.74197
 21
0.63265
 31
0.0
  0
LINE
  8
0
 62
     0
 10
6.74197
 20
0.63265
 30
0.0
 11
6.38601
 21
0.970703
 31
0.0
  0
LINE
  8
0
 62
     0
 10
6.38601
 20
0.970703
 30
0.0
 11
6.04167
 21
1.33333
 31
0.0
  0
ENDSEC
  0
EOF
