  0
SECTION
  2
HEADER
  9
$ACADVER
  1
AC1009
  9
$EXTMIN
 10
0.0
 20
0.0
 30
0.0
  9
$EXTMAX
 10
1000.0
 20
1000.0
 30
0.0
  9
$FILLMODE
 70
 0
  9
$SPLFRAME
 70
 1
  0
ENDSEC
  0
SECTION
  2
TABLES
  0
TABLE
  2
LAYER
 70
1
  0
LAYER
  2
0
 70
     0
 62
     7
  6
CONTINUOUS
  0
ENDTAB
  0
ENDSEC
  0
SECTION
  2
ENTITIES
  0
LINE
  8
0
 62
     0
 10
6.25
 20
7.95833
 30
0.0
 11
6.13585
 21
7.84164
 31
0.0
  0
LINE
  8
0
 62
     0
 10
6.13585
 20
7.84164
 30
0.0
 11
5.99479
 21
7.69971
 31
0.0
  0
LINE
  8
0
 62
     0
 10
5.99479
 20
7.69971
 30
0.0
 11
5.82682
 21
7.53261
 31
0.0
  0
LINE
  8
0
 62
     0
 10
5.82682
 20
7.53261
 30
0.0
 11
5.63194
 21
7.34033
 31
0.0
  0
LINE
  8
0
 62
     0
 10
5.63194
 20
7.34033
 30
0.0
 11
5.41015
 21
7.12289
 31
0.0
  0
LINE
  8
0
 62
     0
 10
5.41015
 20
7.12289
 30
0.0
 11
5.16146
 21
6.88026
 31
0.0
  0
LINE
  8
0
 62
     0
 10
5.16146
 20
6.88026
 30
0.0
 11
4.88585
 21
6.61247
 31
0.0
  0
LINE
  8
0
 62
     0
 10
4.88585
 20
6.61247
 30
0.0
 11
4.58333
 21
6.31944
 31
0.0
  0
LINE
  8
0
 62
     0
 10
4.58333
 20
6.31944
 30
0.0
 11
4.2864
 21
6.03478
 31
0.0
  0
LINE
  8
0
 62
     0
 10
4.2864
 20
6.03478
 30
0.0
 11
4.00689
 21
5.76394
 31
0.0
  0
LINE
  8
0
 62
     0
 10
4.00689
 20
5.76394
 30
0.0
 11
3.74474
 21
5.507
 31
0.0
  0
LINE
  8
0
 62
     0
 10
3.74474
 20
5.507
 30
0.0
 11
3.49994
 21
5.26394
 31
0.0
  0
LINE
  8
0
 62
     0
 10
3.49994
 20
5.26394
 30
0.0
 11
3.27251
 21
5.03478
 31
0.0
  0
LINE
  8
0
 62
     0
 10
3.27251
 20
5.03478
 30
0.0
 11
3.06244
 21
4.8195
 31
0.0
  0
LINE
  8
0
 62
     0
 10
3.06244
 20
4.8195
 30
0.0
 11
2.86974
 21
4.61811
 31
0.0
  0
LINE
  8
0
 62
     0
 10
2.86974
 20
4.61811
 30
0.0
 11
2.69444
 21
4.43056
 31
0.0
  0
LINE
  8
0
 62
     0
 10
2.69444
 20
4.43056
 30
0.0
 11
2.16639
 21
3.84332
 31
0.0
  0
LINE
  8
0
 62
     0
 10
2.16639
 20
3.84332
 30
0.0
 11
1.69353
 21
3.27604
 31
0.0
  0
LINE
  8
0
 62
     0
 10
1.69353
 20
3.27604
 30
0.0
 11
1.27577
 21
2.72874
 31
0.0
  0
LINE
  8
0
 62
     0
 10
1.27577
 20
2.72874
 30
0.0
 11
0.91314
 21
2.20139
 31
0.0
  0
LINE
  8
0
 62
     0
 10
0.91314
 20
2.20139
 30
0.0
 11
0.605632
 21
1.69401
 31
0.0
  0
LINE
  8
0
 62
     0
 10
0.605632
 20
1.69401
 30
0.0
 11
0.353244
 21
1.2066
 31
0.0
  0
LINE
  8
0
 62
     0
 10
0.353244
 20
1.2066
 30
0.0
 11
0.155979
 21
0.73915
 31
0.0
  0
LINE
  8
0
 62
     0
 10
0.155979
 20
0.73915
 30
0.0
 11
0.0138889
 21
0.291667
 31
0.0
  0
LINE
  8
0
 62
     0
 10
0.0138889
 20
0.291667
 30
0.0
 11
0.0138346
 21
0.197103
 31
0.0
  0
LINE
  8
0
 62
     0
 10
0.0138346
 20
0.197103
 30
0.0
 11
0.0693901
 21
0.121582
 31
0.0
  0
LINE
  8
0
 62
     0
 10
0.0693901
 20
0.121582
 30
0.0
 11
0.180501
 21
0.0651585
 31
0.0
  0
LINE
  8
0
 62
     0
 10
0.180501
 20
0.0651585
 30
0.0
 11
0.347222
 21
0.0277778
 31
0.0
  0
LINE
  8
0
 62
     0
 10
0.347222
 20
0.0277778
 30
0.0
 11
0.532986
 21
0.00868056
 31
0.0
  0
LINE
  8
0
 62
     0
 10
0.532986
 20
0.00868056
 30
0.0
 11
0.743056
 21
0.00694444
 31
0.0
  0
LINE
  8
0
 62
     0
 10
0.743056
 20
0.00694444
 30
0.0
 11
0.977431
 21
0.0225694
 31
0.0
  0
LINE
  8
0
 62
     0
 10
0.977431
 20
0.0225694
 30
0.0
 11
1.23611
 21
0.0555556
 31
0.0
  0
LINE
  8
0
 62
     0
 10
1.23611
 20
0.0555556
 30
0.0
 11
1.55404
 21
0.112413
 31
0.0
  0
LINE
  8
0
 62
     0
 10
1.55404
 20
0.112413
 30
0.0
 11
1.83421
 21
0.178819
 31
0.0
  0
LINE
  8
0
 62
     0
 10
1.83421
 20
0.178819
 30
0.0
 11
2.07661
 21
0.254775
 31
0.0
  0
LINE
  8
0
 62
     0
 10
2.07661
 20
0.254775
 30
0.0
 11
2.28125
 21
0.340278
 31
0.0
  0
LINE
  8
0
 62
     0
 10
2.28125
 20
0.340278
 30
0.0
 11
2.44808
 21
0.435331
 31
0.0
  0
LINE
  8
0
 62
     0
 10
2.44808
 20
0.435331
 30
0.0
 11
2.57721
 21
0.539931
 31
0.0
  0
LINE
  8
0
 62
     0
 10
2.57721
 20
0.539931
 30
0.0
 11
2.66857
 21
0.654081
 31
0.0
  0
LINE
  8
0
 62
     0
 10
2.66857
 20
0.654081
 30
0.0
 11
2.72222
 21
0.777778
 31
0.0
  0
LINE
  8
0
 62
     0
 10
2.72222
 20
0.777778
 30
0.0
 11
2.87175
 21
1.25136
 31
0.0
  0
LINE
  8
0
 62
     0
 10
2.87175
 20
1.25136
 30
0.0
 11
3.08421
 21
1.74832
 31
0.0
  0
LINE
  8
0
 62
     0
 10
3.08421
 20
1.74832
 30
0.0
 11
3.3596
 21
2.26872
 31
0.0
  0
LINE
  8
0
 62
     0
 10
3.3596
 20
2.26872
 30
0.0
 11
3.69792
 21
2.8125
 31
0.0
  0
LINE
  8
0
 62
     0
 10
3.69792
 20
2.8125
 30
0.0
 11
4.09918
 21
3.37978
 31
0.0
  0
LINE
  8
0
 62
     0
 10
4.09918
 20
3.37978
 30
0.0
 11
4.56337
 21
3.97049
 31
0.0
  0
LINE
  8
0
 62
     0
 10
4.56337
 20
3.97049
 30
0.0
 11
5.0905
 21
4.58464
 31
0.0
  0
LINE
  8
0
 62
     0
 10
5.0905
 20
4.58464
 30
0.0
 11
5.68056
 21
5.22222
 31
0.0
  0
LINE
  8
0
 62
     0
 10
5.68056
 20
5.22222
 30
0.0
 11
5.87435
 21
5.42171
 31
0.0
  0
LINE
  8
0
 62
     0
 10
5.87435
 20
5.42171
 30
0.0
 11
6.08768
 21
5.63807
 31
0.0
  0
LINE
  8
0
 62
     0
 10
6.08768
 20
5.63807
 30
0.0
 11
6.32053
 21
5.87136
 31
0.0
  0
LINE
  8
0
 62
     0
 10
6.32053
 20
5.87136
 30
0.0
 11
6.57292
 21
6.12153
 31
0.0
  0
LINE
  8
0
 62
     0
 10
6.57292
 20
6.12153
 30
0.0
 11
6.84483
 21
6.38867
 31
0.0
  0
LINE
  8
0
 62
     0
 10
6.84483
 20
6.38867
 30
0.0
 11
7.13629
 21
6.67275
 31
0.0
  0
LINE
  8
0
 62
     0
 10
7.13629
 20
6.67275
 30
0.0
 11
7.44726
 21
6.97374
 31
0.0
  0
LINE
  8
0
 62
     0
 10
7.44726
 20
6.97374
 30
0.0
 11
7.77778
 21
7.29167
 31
0.0
  0
LINE
  8
0
 62
     0
 10
7.77778
 20
7.29167
 30
0.0
 11
8.10411
 21
7.60221
 31
0.0
  0
LINE
  8
0
 62
     0
 10
8.10411
 20
7.60221
 30
0.0
 11
8.40272
 21
7.88803
 31
0.0
  0
LINE
  8
0
 62
     0
 10
8.40272
 20
7.88803
 30
0.0
 11
8.67356
 21
8.14908
 31
0.0
  0
LINE
  8
0
 62
     0
 10
8.67356
 20
8.14908
 30
0.0
 11
8.91661
 21
8.38542
 31
0.0
  0
LINE
  8
0
 62
     0
 10
8.91661
 20
8.38542
 30
0.0
 11
9.13189
 21
8.597
 31
0.0
  0
LINE
  8
0
 62
     0
 10
9.13189
 20
8.597
 30
0.0
 11
9.31939
 21
8.78386
 31
0.0
  0
LINE
  8
0
 62
     0
 10
9.31939
 20
8.78386
 30
0.0
 11
9.47911
 21
8.94596
 31
0.0
  0
LINE
  8
0
 62
     0
 10
9.47911
 20
8.94596
 30
0.0
 11
9.61111
 21
9.08333
 31
0.0
  0
LINE
  8
0
 62
     0
 10
9.61111
 20
9.08333
 30
0.0
 11
10.0123
 21
9.50196
 31
0.0
  0
LINE
  8
0
 62
     0
 10
10.0123
 20
9.50196
 30
0.0
 11
10.4348
 21
9.93837
 31
0.0
  0
LINE
  8
0
 62
     0
 10
10.4348
 20
9.93837
 30
0.0
 11
10.8786
 21
10.3926
 31
0.0
  0
LINE
  8
0
 62
     0
 10
10.8786
 20
10.3926
 30
0.0
 11
11.3437
 21
10.8646
 31
0.0
  0
LINE
  8
0
 62
     0
 10
11.3437
 20
10.8646
 30
0.0
 11
11.83
 21
11.3544
 31
0.0
  0
LINE
  8
0
 62
     0
 10
11.83
 20
11.3544
 30
0.0
 11
12.3376
 21
11.862
 31
0.0
  0
LINE
  8
0
 62
     0
 10
12.3376
 20
11.862
 30
0.0
 11
12.8665
 21
12.3874
 31
0.0
  0
LINE
  8
0
 62
     0
 10
12.8665
 20
12.3874
 30
0.0
 11
13.4166
 21
12.9306
 31
0.0
  0
LINE
  8
0
 62
     0
 10
13.4166
 20
12.9306
 30
0.0
 11
13.9881
 21
13.4915
 31
0.0
  0
LINE
  8
0
 62
     0
 10
13.9881
 20
13.4915
 30
0.0
 11
14.5807
 21
14.0703
 31
0.0
  0
LINE
  8
0
 62
     0
 10
14.5807
 20
14.0703
 30
0.0
 11
15.1946
 21
14.6669
 31
0.0
  0
LINE
  8
0
 62
     0
 10
15.1946
 20
14.6669
 30
0.0
 11
15.8299
 21
15.2813
 31
0.0
  0
LINE
  8
0
 62
     0
 10
15.8299
 20
15.2813
 30
0.0
 11
16.4863
 21
15.9135
 31
0.0
  0
LINE
  8
0
 62
     0
 10
16.4863
 20
15.9135
 30
0.0
 11
17.164
 21
16.5633
 31
0.0
  0
LINE
  8
0
 62
     0
 10
17.164
 20
16.5633
 30
0.0
 11
17.8631
 21
17.2311
 31
0.0
  0
LINE
  8
0
 62
     0
 10
17.8631
 20
17.2311
 30
0.0
 11
18.5833
 21
17.9167
 31
0.0
  0
LINE
  8
0
 62
     0
 10
18.5833
 20
17.9167
 30
0.0
 11
18.6571
 21
18.0064
 31
0.0
  0
LINE
  8
0
 62
     0
 10
18.6571
 20
18.0064
 30
0.0
 11
18.6701
 21
18.0803
 31
0.0
  0
LINE
  8
0
 62
     0
 10
18.6701
 20
18.0803
 30
0.0
 11
18.6224
 21
18.1383
 31
0.0
  0
LINE
  8
0
 62
     0
 10
18.6224
 20
18.1383
 30
0.0
 11
18.5139
 21
18.1806
 31
0.0
  0
LINE
  8
0
 62
     0
 10
18.5139
 20
18.1806
 30
0.0
 11
18.3724
 21
18.2075
 31
0.0
  0
LINE
  8
0
 62
     0
 10
18.3724
 20
18.2075
 30
0.0
 11
18.1979
 21
18.2188
 31
0.0
  0
LINE
  8
0
 62
     0
 10
18.1979
 20
18.2188
 30
0.0
 11
17.9904
 21
18.2144
 31
0.0
  0
LINE
  8
0
 62
     0
 10
17.9904
 20
18.2144
 30
0.0
 11
17.75
 21
18.1944
 31
0.0
  0
LINE
  8
0
 62
     0
 10
17.75
 20
18.1944
 30
0.0
 11
17.4447
 21
18.1594
 31
0.0
  0
LINE
  8
0
 62
     0
 10
17.4447
 20
18.1594
 30
0.0
 11
17.1675
 21
18.1172
 31
0.0
  0
LINE
  8
0
 62
     0
 10
17.1675
 20
18.1172
 30
0.0
 11
16.9186
 21
18.0675
 31
0.0
  0
LINE
  8
0
 62
     0
 10
16.9186
 20
18.0675
 30
0.0
 11
16.6979
 21
18.0104
 31
0.0
  0
LINE
  8
0
 62
     0
 10
16.6979
 20
18.0104
 30
0.0
 11
16.5054
 21
17.946
 31
0.0
  0
LINE
  8
0
 62
     0
 10
16.5054
 20
17.946
 30
0.0
 11
16.3411
 21
17.8742
 31
0.0
  0
LINE
  8
0
 62
     0
 10
16.3411
 20
17.8742
 30
0.0
 11
16.2051
 21
17.7949
 31
0.0
  0
LINE
  8
0
 62
     0
 10
16.2051
 20
17.7949
 30
0.0
 11
16.0972
 21
17.7083
 31
0.0
  0
LINE
  8
0
 62
     0
 10
16.0972
 20
17.7083
 30
0.0
 11
14.6642
 21
16.3407
 31
0.0
  0
LINE
  8
0
 62
     0
 10
14.6642
 20
16.3407
 30
0.0
 11
13.289
 21
15.0157
 31
0.0
  0
LINE
  8
0
 62
     0
 10
13.289
 20
15.0157
 30
0.0
 11
11.9715
 21
13.7331
 31
0.0
  0
LINE
  8
0
 62
     0
 10
11.9715
 20
13.7331
 30
0.0
 11
10.7117
 21
12.4931
 31
0.0
  0
LINE
  8
0
 62
     0
 10
10.7117
 20
12.4931
 30
0.0
 11
9.50971
 21
11.2956
 31
0.0
  0
LINE
  8
0
 62
     0
 10
9.50971
 20
11.2956
 30
0.0
 11
8.3654
 21
10.1406
 31
0.0
  0
LINE
  8
0
 62
     0
 10
8.3654
 20
10.1406
 30
0.0
 11
7.27881
 21
9.02821
 31
0.0
  0
LINE
  8
0
 62
     0
 10
7.27881
 20
9.02821
 30
0.0
 11
6.25
 21
7.95833
 31
0.0
  0
LINE
  8
0
 62
     0
 10
7.51389
 20
16.2222
 30
0.0
 11
7.21268
 21
15.7353
 31
0.0
  0
LINE
  8
0
 62
     0
 10
7.21268
 20
15.7353
 30
0.0
 11
6.87847
 21
15.2743
 31
0.0
  0
LINE
  8
0
 62
     0
 10
6.87847
 20
15.2743
 30
0.0
 11
6.51129
 21
14.8394
 31
0.0
  0
LINE
  8
0
 62
     0
 10
6.51129
 20
14.8394
 30
0.0
 11
6.11111
 21
14.4306
 31
0.0
  0
LINE
  8
0
 62
     0
 10
6.11111
 20
14.4306
 30
0.0
 11
5.72569
 21
14.0972
 31
0.0
  0
LINE
  8
0
 62
     0
 10
5.72569
 20
14.0972
 30
0.0
 11
5.31944
 21
13.8056
 31
0.0
  0
LINE
  8
0
 62
     0
 10
5.31944
 20
13.8056
 30
0.0
 11
4.89236
 21
13.5556
 31
0.0
  0
LINE
  8
0
 62
     0
 10
4.89236
 20
13.5556
 30
0.0
 11
4.44444
 21
13.3472
 31
0.0
  0
LINE
  8
0
 62
     0
 10
4.44444
 20
13.3472
 30
0.0
 11
4.16314
 21
13.2501
 31
0.0
  0
LINE
  8
0
 62
     0
 10
4.16314
 20
13.2501
 30
0.0
 11
3.84722
 21
13.1806
 31
0.0
  0
LINE
  8
0
 62
     0
 10
3.84722
 20
13.1806
 30
0.0
 11
3.86025
 21
13.2127
 31
0.0
  0
LINE
  8
0
 62
     0
 10
3.86025
 20
13.2127
 30
0.0
 11
3.88542
 21
13.2674
 31
0.0
  0
LINE
  8
0
 62
     0
 10
3.88542
 20
13.2674
 30
0.0
 11
3.92275
 21
13.3446
 31
0.0
  0
LINE
  8
0
 62
     0
 10
3.92275
 20
13.3446
 30
0.0
 11
3.97222
 21
13.4444
 31
0.0
  0
LINE
  8
0
 62
     0
 10
3.97222
 20
13.4444
 30
0.0
 11
4.02604
 21
13.5886
 31
0.0
  0
LINE
  8
0
 62
     0
 10
4.02604
 20
13.5886
 30
0.0
 11
4.05556
 21
13.7223
 31
0.0
  0
LINE
  8
0
 62
     0
 10
4.05556
 20
13.7223
 30
0.0
 11
4.06076
 21
13.8455
 31
0.0
  0
LINE
  8
0
 62
     0
 10
4.06076
 20
13.8455
 30
0.0
 11
4.04167
 21
13.9583
 31
0.0
  0
LINE
  8
0
 62
     0
 10
4.04167
 20
13.9583
 30
0.0
 11
3.99826
 21
14.0608
 31
0.0
  0
LINE
  8
0
 62
     0
 10
3.99826
 20
14.0608
 30
0.0
 11
3.93056
 21
14.1528
 31
0.0
  0
LINE
  8
0
 62
     0
 10
3.93056
 20
14.1528
 30
0.0
 11
3.83854
 21
14.2344
 31
0.0
  0
LINE
  8
0
 62
     0
 10
3.83854
 20
14.2344
 30
0.0
 11
3.72222
 21
14.3056
 31
0.0
  0
LINE
  8
0
 62
     0
 10
3.72222
 20
14.3056
 30
0.0
 11
3.85325
 21
14.7647
 31
0.0
  0
LINE
  8
0
 62
     0
 10
3.85325
 20
14.7647
 30
0.0
 11
4.05208
 21
15.2257
 31
0.0
  0
LINE
  8
0
 62
     0
 10
4.05208
 20
15.2257
 30
0.0
 11
4.31858
 21
15.6883
 31
0.0
  0
LINE
  8
0
 62
     0
 10
4.31858
 20
15.6883
 30
0.0
 11
4.65278
 21
16.1528
 31
0.0
  0
LINE
  8
0
 62
     0
 10
4.65278
 20
16.1528
 30
0.0
 11
4.92269
 21
16.4887
 31
0.0
  0
LINE
  8
0
 62
     0
 10
4.92269
 20
16.4887
 30
0.0
 11
5.20481
 21
16.8021
 31
0.0
  0
LINE
  8
0
 62
     0
 10
5.20481
 20
16.8021
 30
0.0
 11
5.49908
 21
17.0929
 31
0.0
  0
LINE
  8
0
 62
     0
 10
5.49908
 20
17.0929
 30
0.0
 11
5.80556
 21
17.3611
 31
0.0
  0
LINE
  8
0
 62
     0
 10
5.80556
 20
17.3611
 30
0.0
 11
6.02235
 21
17.5382
 31
0.0
  0
LINE
  8
0
 62
     0
 10
6.02235
 20
17.5382
 30
0.0
 11
6.22831
 21
17.6875
 31
0.0
  0
LINE
  8
0
 62
     0
 10
6.22831
 20
17.6875
 30
0.0
 11
6.42339
 21
17.809
 31
0.0
  0
LINE
  8
0
 62
     0
 10
6.42339
 20
17.809
 30
0.0
 11
6.60764
 21
17.9028
 31
0.0
  0
LINE
  8
0
 62
     0
 10
6.60764
 20
17.9028
 30
0.0
 11
6.78103
 21
17.9688
 31
0.0
  0
LINE
  8
0
 62
     0
 10
6.78103
 20
17.9688
 30
0.0
 11
6.94358
 21
18.0069
 31
0.0
  0
LINE
  8
0
 62
     0
 10
6.94358
 20
18.0069
 30
0.0
 11
7.09526
 21
18.0174
 31
0.0
  0
LINE
  8
0
 62
     0
 10
7.09526
 20
18.0174
 30
0.0
 11
7.23611
 21
18
 31
0.0
  0
LINE
  8
0
 62
     0
 10
7.23611
 20
18
 30
0.0
 11
7.48654
 21
17.9144
 31
0.0
  0
LINE
  8
0
 62
     0
 10
7.48654
 20
17.9144
 30
0.0
 11
7.67535
 21
17.79
 31
0.0
  0
LINE
  8
0
 62
     0
 10
7.67535
 20
17.79
 30
0.0
 11
7.80251
 21
17.6262
 31
0.0
  0
LINE
  8
0
 62
     0
 10
7.80251
 20
17.6262
 30
0.0
 11
7.86806
 21
17.4236
 31
0.0
  0
LINE
  8
0
 62
     0
 10
7.86806
 20
17.4236
 30
0.0
 11
7.87196
 21
17.1818
 31
0.0
  0
LINE
  8
0
 62
     0
 10
7.87196
 20
17.1818
 30
0.0
 11
7.81424
 21
16.9011
 31
0.0
  0
LINE
  8
0
 62
     0
 10
7.81424
 20
16.9011
 30
0.0
 11
7.69488
 21
16.5811
 31
0.0
  0
LINE
  8
0
 62
     0
 10
7.69488
 20
16.5811
 30
0.0
 11
7.51389
 21
16.2222
 31
0.0
  0
LINE
  8
0
 62
     0
 10
6.23611
 20
12.2083
 30
0.0
 11
6.72282
 21
12.4647
 31
0.0
  0
LINE
  8
0
 62
     0
 10
6.72282
 20
12.4647
 30
0.0
 11
7.19006
 21
12.7474
 31
0.0
  0
LINE
  8
0
 62
     0
 10
7.19006
 20
12.7474
 30
0.0
 11
7.63775
 21
13.0567
 31
0.0
  0
LINE
  8
0
 62
     0
 10
7.63775
 20
13.0567
 30
0.0
 11
8.06597
 21
13.3924
 31
0.0
  0
LINE
  8
0
 62
     0
 10
8.06597
 20
13.3924
 30
0.0
 11
8.47461
 21
13.7546
 31
0.0
  0
LINE
  8
0
 62
     0
 10
8.47461
 20
13.7546
 30
0.0
 11
8.86372
 21
14.1433
 31
0.0
  0
LINE
  8
0
 62
     0
 10
8.86372
 20
14.1433
 30
0.0
 11
9.23329
 21
14.5585
 31
0.0
  0
LINE
  8
0
 62
     0
 10
9.23329
 20
14.5585
 30
0.0
 11
9.58333
 21
15
 31
0.0
  0
LINE
  8
0
 62
     0
 10
9.58333
 20
15
 30
0.0
 11
9.95899
 21
15.55
 31
0.0
  0
LINE
  8
0
 62
     0
 10
9.95899
 20
15.55
 30
0.0
 11
10.2457
 21
16.0817
 31
0.0
  0
LINE
  8
0
 62
     0
 10
10.2457
 20
16.0817
 30
0.0
 11
10.4434
 21
16.5951
 31
0.0
  0
LINE
  8
0
 62
     0
 10
10.4434
 20
16.5951
 30
0.0
 11
10.5521
 21
17.0904
 31
0.0
  0
LINE
  8
0
 62
     0
 10
10.5521
 20
17.0904
 30
0.0
 11
10.5718
 21
17.5674
 31
0.0
  0
LINE
  8
0
 62
     0
 10
10.5718
 20
17.5674
 30
0.0
 11
10.5026
 21
18.0261
 31
0.0
  0
LINE
  8
0
 62
     0
 10
10.5026
 20
18.0261
 30
0.0
 11
10.3444
 21
18.4667
 31
0.0
  0
LINE
  8
0
 62
     0
 10
10.3444
 20
18.4667
 30
0.0
 11
10.0972
 21
18.8889
 31
0.0
  0
LINE
  8
0
 62
     0
 10
10.0972
 20
18.8889
 30
0.0
 11
9.81944
 21
19.2299
 31
0.0
  0
LINE
  8
0
 62
     0
 10
9.81944
 20
19.2299
 30
0.0
 11
9.5
 21
19.5026
 31
0.0
  0
LINE
  8
0
 62
     0
 10
9.5
 20
19.5026
 30
0.0
 11
9.13889
 21
19.7074
 31
0.0
  0
LINE
  8
0
 62
     0
 10
9.13889
 20
19.7074
 30
0.0
 11
8.73611
 21
19.8438
 31
0.0
  0
LINE
  8
0
 62
     0
 10
8.73611
 20
19.8438
 30
0.0
 11
8.29161
 21
19.9122
 31
0.0
  0
LINE
  8
0
 62
     0
 10
8.29161
 20
19.9122
 30
0.0
 11
7.8055
 21
19.9124
 31
0.0
  0
LINE
  8
0
 62
     0
 10
7.8055
 20
19.9124
 30
0.0
 11
7.27772
 21
19.8444
 31
0.0
  0
LINE
  8
0
 62
     0
 10
7.27772
 20
19.8444
 30
0.0
 11
6.70833
 21
19.7083
 31
0.0
  0
LINE
  8
0
 62
     0
 10
6.70833
 20
19.7083
 30
0.0
 11
6.25868
 21
19.5643
 31
0.0
  0
LINE
  8
0
 62
     0
 10
6.25868
 20
19.5643
 30
0.0
 11
5.81944
 21
19.3958
 31
0.0
  0
LINE
  8
0
 62
     0
 10
5.81944
 20
19.3958
 30
0.0
 11
5.39063
 21
19.2032
 31
0.0
  0
LINE
  8
0
 62
     0
 10
5.39063
 20
19.2032
 30
0.0
 11
4.97222
 21
18.9861
 31
0.0
  0
LINE
  8
0
 62
     0
 10
4.97222
 20
18.9861
 30
0.0
 11
4.56418
 21
18.7449
 31
0.0
  0
LINE
  8
0
 62
     0
 10
4.56418
 20
18.7449
 30
0.0
 11
4.16661
 21
18.4792
 31
0.0
  0
LINE
  8
0
 62
     0
 10
4.16661
 20
18.4792
 30
0.0
 11
3.77946
 21
18.1893
 31
0.0
  0
LINE
  8
0
 62
     0
 10
3.77946
 20
18.1893
 30
0.0
 11
3.40278
 21
17.875
 31
0.0
  0
LINE
  8
0
 62
     0
 10
3.40278
 20
17.875
 30
0.0
 11
3.02192
 21
17.5208
 31
0.0
  0
LINE
  8
0
 62
     0
 10
3.02192
 20
17.5208
 30
0.0
 11
2.67101
 21
17.1597
 31
0.0
  0
LINE
  8
0
 62
     0
 10
2.67101
 20
17.1597
 30
0.0
 11
2.35004
 21
16.7917
 31
0.0
  0
LINE
  8
0
 62
     0
 10
2.35004
 20
16.7917
 30
0.0
 11
2.05903
 21
16.4167
 31
0.0
  0
LINE
  8
0
 62
     0
 10
2.05903
 20
16.4167
 30
0.0
 11
1.79796
 21
16.0347
 31
0.0
  0
LINE
  8
0
 62
     0
 10
1.79796
 20
16.0347
 30
0.0
 11
1.56685
 21
15.6458
 31
0.0
  0
LINE
  8
0
 62
     0
 10
1.56685
 20
15.6458
 30
0.0
 11
1.36567
 21
15.25
 31
0.0
  0
LINE
  8
0
 62
     0
 10
1.36567
 20
15.25
 30
0.0
 11
1.19444
 21
14.8472
 31
0.0
  0
LINE
  8
0
 62
     0
 10
1.19444
 20
14.8472
 30
0.0
 11
1.02951
 21
14.3576
 31
0.0
  0
LINE
  8
0
 62
     0
 10
1.02951
 20
14.3576
 30
0.0
 11
0.923611
 21
13.882
 31
0.0
  0
LINE
  8
0
 62
     0
 10
0.923611
 20
13.882
 30
0.0
 11
0.876736
 21
13.4202
 31
0.0
  0
LINE
  8
0
 62
     0
 10
0.876736
 20
13.4202
 30
0.0
 11
0.888889
 21
12.9723
 31
0.0
  0
LINE
  8
0
 62
     0
 10
0.888889
 20
12.9723
 30
0.0
 11
0.960069
 21
12.5383
 31
0.0
  0
LINE
  8
0
 62
     0
 10
0.960069
 20
12.5383
 30
0.0
 11
1.09028
 21
12.1181
 31
0.0
  0
LINE
  8
0
 62
     0
 10
1.09028
 20
12.1181
 30
0.0
 11
1.27951
 21
11.7119
 31
0.0
  0
LINE
  8
0
 62
     0
 10
1.27951
 20
11.7119
 30
0.0
 11
1.52778
 21
11.3194
 31
0.0
  0
LINE
  8
0
 62
     0
 10
1.52778
 20
11.3194
 30
0.0
 11
1.61176
 21
11.2198
 31
0.0
  0
LINE
  8
0
 62
     0
 10
1.61176
 20
11.2198
 30
0.0
 11
1.71094
 21
11.1363
 31
0.0
  0
LINE
  8
0
 62
     0
 10
1.71094
 20
11.1363
 30
0.0
 11
1.82531
 21
11.0688
 31
0.0
  0
LINE
  8
0
 62
     0
 10
1.82531
 20
11.0688
 30
0.0
 11
1.95486
 21
11.0174
 31
0.0
  0
LINE
  8
0
 62
     0
 10
1.95486
 20
11.0174
 30
0.0
 11
2.09961
 21
10.982
 31
0.0
  0
LINE
  8
0
 62
     0
 10
2.09961
 20
10.982
 30
0.0
 11
2.25956
 21
10.9627
 31
0.0
  0
LINE
  8
0
 62
     0
 10
2.25956
 20
10.9627
 30
0.0
 11
2.43468
 21
10.9594
 31
0.0
  0
LINE
  8
0
 62
     0
 10
2.43468
 20
10.9594
 30
0.0
 11
2.625
 21
10.9722
 31
0.0
  0
LINE
  8
0
 62
     0
 10
2.625
 20
10.9722
 30
0.0
 11
2.98351
 21
11.0356
 31
0.0
  0
LINE
  8
0
 62
     0
 10
2.98351
 20
11.0356
 30
0.0
 11
3.30903
 21
11.1424
 31
0.0
  0
LINE
  8
0
 62
     0
 10
3.30903
 20
11.1424
 30
0.0
 11
3.60157
 21
11.2925
 31
0.0
  0
LINE
  8
0
 62
     0
 10
3.60157
 20
11.2925
 30
0.0
 11
3.86111
 21
11.4861
 31
0.0
  0
LINE
  8
0
 62
     0
 10
3.86111
 20
11.4861
 30
0.0
 11
4.53039
 21
11.6146
 31
0.0
  0
LINE
  8
0
 62
     0
 10
4.53039
 20
11.6146
 30
0.0
 11
5.14931
 21
11.7778
 31
0.0
  0
LINE
  8
0
 62
     0
 10
5.14931
 20
11.7778
 30
0.0
 11
5.71789
 21
11.9758
 31
0.0
  0
LINE
  8
0
 62
     0
 10
5.71789
 20
11.9758
 30
0.0
 11
6.23611
 21
12.2083
 31
0.0
  0
LINE
  8
0
 62
     0
 10
12.2361
 20
2.5
 30
0.0
 11
12.0936
 21
2.63194
 31
0.0
  0
LINE
  8
0
 62
     0
 10
12.0936
 20
2.63194
 30
0.0
 11
11.9722
 21
2.80556
 31
0.0
  0
LINE
  8
0
 62
     0
 10
11.9722
 20
2.80556
 30
0.0
 11
12.1016
 21
2.91064
 31
0.0
  0
LINE
  8
0
 62
     0
 10
12.1016
 20
2.91064
 30
0.0
 11
12.184
 21
3.00353
 31
0.0
  0
LINE
  8
0
 62
     0
 10
12.184
 20
3.00353
 30
0.0
 11
12.2196
 21
3.08425
 31
0.0
  0
LINE
  8
0
 62
     0
 10
12.2196
 20
3.08425
 30
0.0
 11
12.2083
 21
3.15278
 31
0.0
  0
LINE
  8
0
 62
     0
 10
12.2083
 20
3.15278
 30
0.0
 11
12.1013
 21
3.35389
 31
0.0
  0
LINE
  8
0
 62
     0
 10
12.1013
 20
3.35389
 30
0.0
 11
12.0163
 21
3.56489
 31
0.0
  0
LINE
  8
0
 62
     0
 10
12.0163
 20
3.56489
 30
0.0
 11
11.9533
 21
3.78575
 31
0.0
  0
LINE
  8
0
 62
     0
 10
11.9533
 20
3.78575
 30
0.0
 11
11.9123
 21
4.0165
 31
0.0
  0
LINE
  8
0
 62
     0
 10
11.9123
 20
4.0165
 30
0.0
 11
11.8934
 21
4.25711
 31
0.0
  0
LINE
  8
0
 62
     0
 10
11.8934
 20
4.25711
 30
0.0
 11
11.8965
 21
4.5076
 31
0.0
  0
LINE
  8
0
 62
     0
 10
11.8965
 20
4.5076
 30
0.0
 11
11.9216
 21
4.76796
 31
0.0
  0
LINE
  8
0
 62
     0
 10
11.9216
 20
4.76796
 30
0.0
 11
11.9688
 21
5.03819
 31
0.0
  0
LINE
  8
0
 62
     0
 10
11.9688
 20
5.03819
 30
0.0
 11
12.0379
 21
5.31831
 31
0.0
  0
LINE
  8
0
 62
     0
 10
12.0379
 20
5.31831
 30
0.0
 11
12.1291
 21
5.60829
 31
0.0
  0
LINE
  8
0
 62
     0
 10
12.1291
 20
5.60829
 30
0.0
 11
12.2423
 21
5.90815
 31
0.0
  0
LINE
  8
0
 62
     0
 10
12.2423
 20
5.90815
 30
0.0
 11
12.3776
 21
6.21789
 31
0.0
  0
LINE
  8
0
 62
     0
 10
12.3776
 20
6.21789
 30
0.0
 11
12.5349
 21
6.53749
 31
0.0
  0
LINE
  8
0
 62
     0
 10
12.5349
 20
6.53749
 30
0.0
 11
12.7142
 21
6.86697
 31
0.0
  0
LINE
  8
0
 62
     0
 10
12.7142
 20
6.86697
 30
0.0
 11
12.9155
 21
7.20632
 31
0.0
  0
LINE
  8
0
 62
     0
 10
12.9155
 20
7.20632
 30
0.0
 11
13.1389
 21
7.55556
 31
0.0
  0
LINE
  8
0
 62
     0
 10
13.1389
 20
7.55556
 30
0.0
 11
13.5234
 21
8.10161
 31
0.0
  0
LINE
  8
0
 62
     0
 10
13.5234
 20
8.10161
 30
0.0
 11
13.8993
 21
8.55908
 31
0.0
  0
LINE
  8
0
 62
     0
 10
13.8993
 20
8.55908
 30
0.0
 11
14.2664
 21
8.928
 31
0.0
  0
LINE
  8
0
 62
     0
 10
14.2664
 20
8.928
 30
0.0
 11
14.625
 21
9.20833
 31
0.0
  0
LINE
  8
0
 62
     0
 10
14.625
 20
9.20833
 30
0.0
 11
14.6389
 21
9.22353
 31
0.0
  0
LINE
  8
0
 62
     0
 10
14.6389
 20
9.22353
 30
0.0
 11
14.6667
 21
9.22049
 31
0.0
  0
LINE
  8
0
 62
     0
 10
14.6667
 20
9.22049
 30
0.0
 11
14.7083
 21
9.19917
 31
0.0
  0
LINE
  8
0
 62
     0
 10
14.7083
 20
9.19917
 30
0.0
 11
14.7639
 21
9.15967
 31
0.0
  0
LINE
  8
0
 62
     0
 10
14.7639
 20
9.15967
 30
0.0
 11
14.8333
 21
9.10194
 31
0.0
  0
LINE
  8
0
 62
     0
 10
14.8333
 20
9.10194
 30
0.0
 11
14.9167
 21
9.02604
 31
0.0
  0
LINE
  8
0
 62
     0
 10
14.9167
 20
9.02604
 30
0.0
 11
15.0139
 21
8.93186
 31
0.0
  0
LINE
  8
0
 62
     0
 10
15.0139
 20
8.93186
 30
0.0
 11
15.125
 21
8.81944
 31
0.0
  0
LINE
  8
0
 62
     0
 10
15.125
 20
8.81944
 30
0.0
 11
15.23
 21
8.67888
 31
0.0
  0
LINE
  8
0
 62
     0
 10
15.23
 20
8.67888
 30
0.0
 11
15.3229
 21
8.49311
 31
0.0
  0
LINE
  8
0
 62
     0
 10
15.3229
 20
8.49311
 30
0.0
 11
15.4036
 21
8.26221
 31
0.0
  0
LINE
  8
0
 62
     0
 10
15.4036
 20
8.26221
 30
0.0
 11
15.4722
 21
7.98611
 31
0.0
  0
LINE
  8
0
 62
     0
 10
15.4722
 20
7.98611
 30
0.0
 11
15.5147
 21
7.55707
 31
0.0
  0
LINE
  8
0
 62
     0
 10
15.5147
 20
7.55707
 30
0.0
 11
15.4826
 21
7.10331
 31
0.0
  0
LINE
  8
0
 62
     0
 10
15.4826
 20
7.10331
 30
0.0
 11
15.3758
 21
6.62478
 31
0.0
  0
LINE
  8
0
 62
     0
 10
15.3758
 20
6.62478
 30
0.0
 11
15.1944
 21
6.12153
 31
0.0
  0
LINE
  8
0
 62
     0
 10
15.1944
 20
6.12153
 30
0.0
 11
14.9383
 21
5.59353
 31
0.0
  0
LINE
  8
0
 62
     0
 10
14.9383
 20
5.59353
 30
0.0
 11
14.6076
 21
5.04081
 31
0.0
  0
LINE
  8
0
 62
     0
 10
14.6076
 20
5.04081
 30
0.0
 11
14.2022
 21
4.46332
 31
0.0
  0
LINE
  8
0
 62
     0
 10
14.2022
 20
4.46332
 30
0.0
 11
13.7222
 21
3.86111
 31
0.0
  0
LINE
  8
0
 62
     0
 10
13.7222
 20
3.86111
 30
0.0
 11
13.3741
 21
3.47917
 31
0.0
  0
LINE
  8
0
 62
     0
 10
13.3741
 20
3.47917
 30
0.0
 11
13.0104
 21
3.125
 31
0.0
  0
LINE
  8
0
 62
     0
 10
13.0104
 20
3.125
 30
0.0
 11
12.6311
 21
2.79861
 31
0.0
  0
LINE
  8
0
 62
     0
 10
12.6311
 20
2.79861
 30
0.0
 11
12.2361
 21
2.5
 31
0.0
  0
LINE
  8
0
 62
     0
 10
9.88889
 20
6.29167
 30
0.0
 11
9.61301
 21
5.76714
 31
0.0
  0
LINE
  8
0
 62
     0
 10
9.61301
 20
5.76714
 30
0.0
 11
9.39665
 21
5.26303
 31
0.0
  0
LINE
  8
0
 62
     0
 10
9.39665
 20
5.26303
 30
0.0
 11
9.23975
 21
4.77929
 31
0.0
  0
LINE
  8
0
 62
     0
 10
9.23975
 20
4.77929
 30
0.0
 11
9.14231
 21
4.31597
 31
0.0
  0
LINE
  8
0
 62
     0
 10
9.14231
 20
4.31597
 30
0.0
 11
9.10433
 21
3.87304
 31
0.0
  0
LINE
  8
0
 62
     0
 10
9.10433
 20
3.87304
 30
0.0
 11
9.12582
 21
3.45053
 31
0.0
  0
LINE
  8
0
 62
     0
 10
9.12582
 20
3.45053
 30
0.0
 11
9.20676
 21
3.04839
 31
0.0
  0
LINE
  8
0
 62
     0
 10
9.20676
 20
3.04839
 30
0.0
 11
9.34722
 21
2.66667
 31
0.0
  0
LINE
  8
0
 62
     0
 10
9.34722
 20
2.66667
 30
0.0
 11
9.21783
 21
2.5599
 31
0.0
  0
LINE
  8
0
 62
     0
 10
9.21783
 20
2.5599
 30
0.0
 11
9.13542
 21
2.46181
 31
0.0
  0
LINE
  8
0
 62
     0
 10
9.13542
 20
2.46181
 30
0.0
 11
9.09983
 21
2.3724
 31
0.0
  0
LINE
  8
0
 62
     0
 10
9.09983
 20
2.3724
 30
0.0
 11
9.11111
 21
2.29167
 31
0.0
  0
LINE
  8
0
 62
     0
 10
9.11111
 20
2.29167
 30
0.0
 11
9.29508
 21
1.97244
 31
0.0
  0
LINE
  8
0
 62
     0
 10
9.29508
 20
1.97244
 30
0.0
 11
9.52078
 21
1.70921
 31
0.0
  0
LINE
  8
0
 62
     0
 10
9.52078
 20
1.70921
 30
0.0
 11
9.78814
 21
1.50196
 31
0.0
  0
LINE
  8
0
 62
     0
 10
9.78814
 20
1.50196
 30
0.0
 11
10.0972
 21
1.35069
 31
0.0
  0
LINE
  8
0
 62
     0
 10
10.0972
 20
1.35069
 30
0.0
 11
10.4479
 21
1.25548
 31
0.0
  0
LINE
  8
0
 62
     0
 10
10.4479
 20
1.25548
 30
0.0
 11
10.8403
 21
1.2162
 31
0.0
  0
LINE
  8
0
 62
     0
 10
10.8403
 20
1.2162
 30
0.0
 11
11.2743
 21
1.23291
 31
0.0
  0
LINE
  8
0
 62
     0
 10
11.2743
 20
1.23291
 30
0.0
 11
11.75
 21
1.30556
 31
0.0
  0
LINE
  8
0
 62
     0
 10
11.75
 20
1.30556
 30
0.0
 11
12.4983
 21
1.50782
 31
0.0
  0
LINE
  8
0
 62
     0
 10
12.4983
 20
1.50782
 30
0.0
 11
13.2292
 21
1.79514
 31
0.0
  0
LINE
  8
0
 62
     0
 10
13.2292
 20
1.79514
 30
0.0
 11
13.9428
 21
2.16754
 31
0.0
  0
LINE
  8
0
 62
     0
 10
13.9428
 20
2.16754
 30
0.0
 11
14.6389
 21
2.625
 31
0.0
  0
LINE
  8
0
 62
     0
 10
14.6389
 20
2.625
 30
0.0
 11
15.0092
 21
2.90543
 31
0.0
  0
LINE
  8
0
 62
     0
 10
15.0092
 20
2.90543
 30
0.0
 11
15.3629
 21
3.19797
 31
0.0
  0
LINE
  8
0
 62
     0
 10
15.3629
 20
3.19797
 30
0.0
 11
15.7001
 21
3.50265
 31
0.0
  0
LINE
  8
0
 62
     0
 10
15.7001
 20
3.50265
 30
0.0
 11
16.0208
 21
3.8195
 31
0.0
  0
LINE
  8
0
 62
     0
 10
16.0208
 20
3.8195
 30
0.0
 11
16.3251
 21
4.14849
 31
0.0
  0
LINE
  8
0
 62
     0
 10
16.3251
 20
4.14849
 30
0.0
 11
16.6129
 21
4.48964
 31
0.0
  0
LINE
  8
0
 62
     0
 10
16.6129
 20
4.48964
 30
0.0
 11
16.8842
 21
4.84293
 31
0.0
  0
LINE
  8
0
 62
     0
 10
16.8842
 20
4.84293
 30
0.0
 11
17.1389
 21
5.20833
 31
0.0
  0
LINE
  8
0
 62
     0
 10
17.1389
 20
5.20833
 30
0.0
 11
17.4082
 21
5.6404
 31
0.0
  0
LINE
  8
0
 62
     0
 10
17.4082
 20
5.6404
 30
0.0
 11
17.6399
 21
6.06858
 31
0.0
  0
LINE
  8
0
 62
     0
 10
17.6399
 20
6.06858
 30
0.0
 11
17.8336
 21
6.49283
 31
0.0
  0
LINE
  8
0
 62
     0
 10
17.8336
 20
6.49283
 30
0.0
 11
17.9896
 21
6.91319
 31
0.0
  0
LINE
  8
0
 62
     0
 10
17.9896
 20
6.91319
 30
0.0
 11
18.1079
 21
7.32969
 31
0.0
  0
LINE
  8
0
 62
     0
 10
18.1079
 20
7.32969
 30
0.0
 11
18.1885
 21
7.74224
 31
0.0
  0
LINE
  8
0
 62
     0
 10
18.1885
 20
7.74224
 30
0.0
 11
18.2311
 21
8.15087
 31
0.0
  0
LINE
  8
0
 62
     0
 10
18.2311
 20
8.15087
 30
0.0
 11
18.2361
 21
8.55556
 31
0.0
  0
LINE
  8
0
 62
     0
 10
18.2361
 20
8.55556
 30
0.0
 11
18.2168
 21
8.79536
 31
0.0
  0
LINE
  8
0
 62
     0
 10
18.2168
 20
8.79536
 30
0.0
 11
18.1799
 21
9.01824
 31
0.0
  0
LINE
  8
0
 62
     0
 10
18.1799
 20
9.01824
 30
0.0
 11
18.1253
 21
9.22418
 31
0.0
  0
LINE
  8
0
 62
     0
 10
18.1253
 20
9.22418
 30
0.0
 11
18.0529
 21
9.41319
 31
0.0
  0
LINE
  8
0
 62
     0
 10
18.0529
 20
9.41319
 30
0.0
 11
17.9629
 21
9.58529
 31
0.0
  0
LINE
  8
0
 62
     0
 10
17.9629
 20
9.58529
 30
0.0
 11
17.8553
 21
9.74046
 31
0.0
  0
LINE
  8
0
 62
     0
 10
17.8553
 20
9.74046
 30
0.0
 11
17.7299
 21
9.87869
 31
0.0
  0
LINE
  8
0
 62
     0
 10
17.7299
 20
9.87869
 30
0.0
 11
17.5868
 21
10
 31
0.0
  0
LINE
  8
0
 62
     0
 10
17.5868
 20
10
 30
0.0
 11
17.4261
 21
10.1044
 31
0.0
  0
LINE
  8
0
 62
     0
 10
17.4261
 20
10.1044
 30
0.0
 11
17.2476
 21
10.1919
 31
0.0
  0
LINE
  8
0
 62
     0
 10
17.2476
 20
10.1919
 30
0.0
 11
17.0515
 21
10.2624
 31
0.0
  0
LINE
  8
0
 62
     0
 10
17.0515
 20
10.2624
 30
0.0
 11
16.8376
 21
10.316
 31
0.0
  0
LINE
  8
0
 62
     0
 10
16.8376
 20
10.316
 30
0.0
 11
16.6061
 21
10.3527
 31
0.0
  0
LINE
  8
0
 62
     0
 10
16.6061
 20
10.3527
 30
0.0
 11
16.3569
 21
10.3724
 31
0.0
  0
LINE
  8
0
 62
     0
 10
16.3569
 20
10.3724
 30
0.0
 11
16.0901
 21
10.3753
 31
0.0
  0
LINE
  8
0
 62
     0
 10
16.0901
 20
10.3753
 30
0.0
 11
15.8056
 21
10.3611
 31
0.0
  0
LINE
  8
0
 62
     0
 10
15.8056
 20
10.3611
 30
0.0
 11
15.3271
 21
10.3091
 31
0.0
  0
LINE
  8
0
 62
     0
 10
15.3271
 20
10.3091
 30
0.0
 11
14.8637
 21
10.2292
 31
0.0
  0
LINE
  8
0
 62
     0
 10
14.8637
 20
10.2292
 30
0.0
 11
14.4156
 21
10.1216
 31
0.0
  0
LINE
  8
0
 62
     0
 10
14.4156
 20
10.1216
 30
0.0
 11
13.9826
 21
9.98617
 31
0.0
  0
LINE
  8
0
 62
     0
 10
13.9826
 20
9.98617
 30
0.0
 11
13.5649
 21
9.82297
 31
0.0
  0
LINE
  8
0
 62
     0
 10
13.5649
 20
9.82297
 30
0.0
 11
13.1623
 21
9.632
 31
0.0
  0
LINE
  8
0
 62
     0
 10
13.1623
 20
9.632
 30
0.0
 11
12.775
 21
9.41325
 31
0.0
  0
LINE
  8
0
 62
     0
 10
12.775
 20
9.41325
 30
0.0
 11
12.4028
 21
9.16667
 31
0.0
  0
LINE
  8
0
 62
     0
 10
12.4028
 20
9.16667
 30
0.0
 11
12.0354
 21
8.88476
 31
0.0
  0
LINE
  8
0
 62
     0
 10
12.0354
 20
8.88476
 30
0.0
 11
11.6832
 21
8.58074
 31
0.0
  0
LINE
  8
0
 62
     0
 10
11.6832
 20
8.58074
 30
0.0
 11
11.3461
 21
8.25456
 31
0.0
  0
LINE
  8
0
 62
     0
 10
11.3461
 20
8.25456
 30
0.0
 11
11.0243
 21
7.90625
 31
0.0
  0
LINE
  8
0
 62
     0
 10
11.0243
 20
7.90625
 30
0.0
 11
10.7177
 21
7.53581
 31
0.0
  0
LINE
  8
0
 62
     0
 10
10.7177
 20
7.53581
 30
0.0
 11
10.4262
 21
7.14324
 31
0.0
  0
LINE
  8
0
 62
     0
 10
10.4262
 20
7.14324
 30
0.0
 11
10.15
 21
6.72851
 31
0.0
  0
LINE
  8
0
 62
     0
 10
10.15
 20
6.72851
 30
0.0
 11
9.88889
 21
6.29167
 31
0.0
  0
ENDSEC
  0
EOF
