  0
SECTION
  2
HEADER
  9
$ACADVER
  1
AC1009
  9
$EXTMIN
 10
0.0
 20
0.0
 30
0.0
  9
$EXTMAX
 10
1000.0
 20
1000.0
 30
0.0
  9
$FILLMODE
 70
 0
  9
$SPLFRAME
 70
 1
  0
ENDSEC
  0
SECTION
  2
TABLES
  0
TABLE
  2
LAYER
 70
1
  0
LAYER
  2
0
 70
     0
 62
     7
  6
CONTINUOUS
  0
ENDTAB
  0
ENDSEC
  0
SECTION
  2
ENTITIES
  0
LINE
  8
0
 62
     0
 10
1.27778
 20
0.0694444
 30
0.0
 11
1.32639
 21
0.0833333
 31
0.0
  0
LINE
  8
0
 62
     0
 10
1.32639
 20
0.0833333
 30
0.0
 11
1.36111
 21
0.0972222
 31
0.0
  0
LINE
  8
0
 62
     0
 10
1.36111
 20
0.0972222
 30
0.0
 11
1.45833
 21
0.0972222
 31
0.0
  0
LINE
  8
0
 62
     0
 10
1.45833
 20
0.0972222
 30
0.0
 11
1.72049
 21
0.133735
 31
0.0
  0
LINE
  8
0
 62
     0
 10
1.72049
 20
0.133735
 30
0.0
 11
1.96528
 21
0.187554
 31
0.0
  0
LINE
  8
0
 62
     0
 10
1.96528
 20
0.187554
 30
0.0
 11
2.19271
 21
0.258735
 31
0.0
  0
LINE
  8
0
 62
     0
 10
2.19271
 20
0.258735
 30
0.0
 11
2.40278
 21
0.347222
 31
0.0
  0
LINE
  8
0
 62
     0
 10
2.40278
 20
0.347222
 30
0.0
 11
2.51036
 21
0.406304
 31
0.0
  0
LINE
  8
0
 62
     0
 10
2.51036
 20
0.406304
 30
0.0
 11
2.59722
 21
0.458387
 31
0.0
  0
LINE
  8
0
 62
     0
 10
2.59722
 20
0.458387
 30
0.0
 11
2.66319
 21
0.503526
 31
0.0
  0
LINE
  8
0
 62
     0
 10
2.66319
 20
0.503526
 30
0.0
 11
2.70833
 21
0.541667
 31
0.0
  0
LINE
  8
0
 62
     0
 10
2.70833
 20
0.541667
 30
0.0
 11
2.78467
 21
0.684082
 31
0.0
  0
LINE
  8
0
 62
     0
 10
2.78467
 20
0.684082
 30
0.0
 11
2.79167
 21
0.861111
 31
0.0
  0
LINE
  8
0
 62
     0
 10
2.79167
 20
0.861111
 30
0.0
 11
2.76036
 21
0.913249
 31
0.0
  0
LINE
  8
0
 62
     0
 10
2.76036
 20
0.913249
 30
0.0
 11
2.69444
 21
0.958333
 31
0.0
  0
LINE
  8
0
 62
     0
 10
2.69444
 20
0.958333
 30
0.0
 11
2.69444
 21
0.958333
 31
0.0
  0
LINE
  8
0
 62
     0
 10
2.69444
 20
0.958333
 30
0.0
 11
2.69444
 21
0.958333
 31
0.0
  0
LINE
  8
0
 62
     0
 10
2.69444
 20
0.958333
 30
0.0
 11
2.64931
 21
1.16672
 31
0.0
  0
LINE
  8
0
 62
     0
 10
2.64931
 20
1.16672
 30
0.0
 11
2.625
 21
1.34722
 31
0.0
  0
LINE
  8
0
 62
     0
 10
2.625
 20
1.34722
 30
0.0
 11
2.61279
 21
1.39068
 31
0.0
  0
LINE
  8
0
 62
     0
 10
2.61279
 20
1.39068
 30
0.0
 11
2.57633
 21
1.42361
 31
0.0
  0
LINE
  8
0
 62
     0
 10
2.57633
 20
1.42361
 30
0.0
 11
2.51557
 21
1.44618
 31
0.0
  0
LINE
  8
0
 62
     0
 10
2.51557
 20
1.44618
 30
0.0
 11
2.43056
 21
1.45833
 31
0.0
  0
LINE
  8
0
 62
     0
 10
2.43056
 20
1.45833
 30
0.0
 11
2.23606
 21
1.45839
 31
0.0
  0
LINE
  8
0
 62
     0
 10
2.23606
 20
1.45839
 30
0.0
 11
1.98611
 21
1.43056
 31
0.0
  0
LINE
  8
0
 62
     0
 10
1.98611
 20
1.43056
 30
0.0
 11
1.93744
 21
1.55561
 31
0.0
  0
LINE
  8
0
 62
     0
 10
1.93744
 20
1.55561
 30
0.0
 11
1.90278
 21
1.65278
 31
0.0
  0
LINE
  8
0
 62
     0
 10
1.90278
 20
1.65278
 30
0.0
 11
1.86372
 21
1.72835
 31
0.0
  0
LINE
  8
0
 62
     0
 10
1.86372
 20
1.72835
 30
0.0
 11
1.77431
 21
1.77436
 31
0.0
  0
LINE
  8
0
 62
     0
 10
1.77431
 20
1.77436
 30
0.0
 11
1.63456
 21
1.79085
 31
0.0
  0
LINE
  8
0
 62
     0
 10
1.63456
 20
1.79085
 30
0.0
 11
1.44444
 21
1.77778
 31
0.0
  0
LINE
  8
0
 62
     0
 10
1.44444
 20
1.77778
 30
0.0
 11
1.19444
 21
1.74653
 31
0.0
  0
LINE
  8
0
 62
     0
 10
1.19444
 20
1.74653
 30
0.0
 11
0.916667
 21
1.68056
 31
0.0
  0
LINE
  8
0
 62
     0
 10
0.916667
 20
1.68056
 30
0.0
 11
0.702636
 21
1.61789
 31
0.0
  0
LINE
  8
0
 62
     0
 10
0.702636
 20
1.61789
 30
0.0
 11
0.519043
 21
1.55474
 31
0.0
  0
LINE
  8
0
 62
     0
 10
0.519043
 20
1.55474
 30
0.0
 11
0.365831
 21
1.49115
 31
0.0
  0
LINE
  8
0
 62
     0
 10
0.365831
 20
1.49115
 30
0.0
 11
0.243001
 21
1.42714
 31
0.0
  0
LINE
  8
0
 62
     0
 10
0.243001
 20
1.42714
 30
0.0
 11
0.150553
 21
1.36268
 31
0.0
  0
LINE
  8
0
 62
     0
 10
0.150553
 20
1.36268
 30
0.0
 11
0.0884874
 21
1.2978
 31
0.0
  0
LINE
  8
0
 62
     0
 10
0.0884874
 20
1.2978
 30
0.0
 11
0.0568033
 21
1.23248
 31
0.0
  0
LINE
  8
0
 62
     0
 10
0.0568033
 20
1.23248
 30
0.0
 11
0.0555556
 21
1.16667
 31
0.0
  0
LINE
  8
0
 62
     0
 10
0.0555556
 20
1.16667
 30
0.0
 11
0.0885417
 21
1.06082
 31
0.0
  0
LINE
  8
0
 62
     0
 10
0.0885417
 20
1.06082
 30
0.0
 11
0.131944
 21
0.937554
 31
0.0
  0
LINE
  8
0
 62
     0
 10
0.131944
 20
0.937554
 30
0.0
 11
0.18571
 21
0.796929
 31
0.0
  0
LINE
  8
0
 62
     0
 10
0.18571
 20
0.796929
 30
0.0
 11
0.25
 21
0.638889
 31
0.0
  0
LINE
  8
0
 62
     0
 10
0.25
 20
0.638889
 30
0.0
 11
0.325521
 21
0.476563
 31
0.0
  0
LINE
  8
0
 62
     0
 10
0.325521
 20
0.476563
 30
0.0
 11
0.385417
 21
0.336806
 31
0.0
  0
LINE
  8
0
 62
     0
 10
0.385417
 20
0.336806
 30
0.0
 11
0.429688
 21
0.219618
 31
0.0
  0
LINE
  8
0
 62
     0
 10
0.429688
 20
0.219618
 30
0.0
 11
0.458333
 21
0.125
 31
0.0
  0
LINE
  8
0
 62
     0
 10
0.458333
 20
0.125
 30
0.0
 11
0.495606
 21
0.0651042
 31
0.0
  0
LINE
  8
0
 62
     0
 10
0.495606
 20
0.0651042
 30
0.0
 11
0.565918
 21
0.0243056
 31
0.0
  0
LINE
  8
0
 62
     0
 10
0.565918
 20
0.0243056
 30
0.0
 11
0.669217
 21
0.00260417
 31
0.0
  0
LINE
  8
0
 62
     0
 10
0.669217
 20
0.00260417
 30
0.0
 11
0.805556
 21
-0
 31
0.0
  0
LINE
  8
0
 62
     0
 10
0.805556
 20
-0
 30
0.0
 11
0.975694
 21
0.0208876
 31
0.0
  0
LINE
  8
0
 62
     0
 10
0.975694
 20
0.0208876
 30
0.0
 11
1.20833
 21
0.0555556
 31
0.0
  0
LINE
  8
0
 62
     0
 10
1.20833
 20
0.0555556
 30
0.0
 11
1.23953
 21
0.0590278
 31
0.0
  0
LINE
  8
0
 62
     0
 10
1.23953
 20
0.0590278
 30
0.0
 11
1.27778
 21
0.0694444
 31
0.0
  0
ENDSEC
  0
EOF
