  0
SECTION
  2
HEADER
  9
$ACADVER
  1
AC1009
  9
$EXTMIN
 10
0.0
 20
0.0
 30
0.0
  9
$EXTMAX
 10
1000.0
 20
1000.0
 30
0.0
  9
$FILLMODE
 70
 0
  9
$SPLFRAME
 70
 1
  0
ENDSEC
  0
SECTION
  2
TABLES
  0
TABLE
  2
LAYER
 70
1
  0
LAYER
  2
0
 70
     0
 62
     7
  6
CONTINUOUS
  0
ENDTAB
  0
ENDSEC
  0
SECTION
  2
ENTITIES
  0
LINE
  8
0
 62
     0
 10
6.97222
 20
8.93056
 30
0.0
 11
6.96001
 21
9.9566
 31
0.0
  0
LINE
  8
0
 62
     0
 10
6.96001
 20
9.9566
 30
0.0
 11
6.96522
 21
10.9236
 31
0.0
  0
LINE
  8
0
 62
     0
 10
6.96522
 20
10.9236
 30
0.0
 11
6.98779
 21
11.8316
 31
0.0
  0
LINE
  8
0
 62
     0
 10
6.98779
 20
11.8316
 30
0.0
 11
7.02778
 21
12.6806
 31
0.0
  0
LINE
  8
0
 62
     0
 10
7.02778
 20
12.6806
 30
0.0
 11
7.01818
 21
12.882
 31
0.0
  0
LINE
  8
0
 62
     0
 10
7.01818
 20
12.882
 30
0.0
 11
6.96175
 21
13.0556
 31
0.0
  0
LINE
  8
0
 62
     0
 10
6.96175
 20
13.0556
 30
0.0
 11
6.85846
 21
13.2014
 31
0.0
  0
LINE
  8
0
 62
     0
 10
6.85846
 20
13.2014
 30
0.0
 11
6.70833
 21
13.3194
 31
0.0
  0
LINE
  8
0
 62
     0
 10
6.70833
 20
13.3194
 30
0.0
 11
6.55122
 21
13.4019
 31
0.0
  0
LINE
  8
0
 62
     0
 10
6.55122
 20
13.4019
 30
0.0
 11
6.37153
 21
13.4549
 31
0.0
  0
LINE
  8
0
 62
     0
 10
6.37153
 20
13.4549
 30
0.0
 11
6.16928
 21
13.4783
 31
0.0
  0
LINE
  8
0
 62
     0
 10
6.16928
 20
13.4783
 30
0.0
 11
5.94444
 21
13.4722
 31
0.0
  0
LINE
  8
0
 62
     0
 10
5.94444
 20
13.4722
 30
0.0
 11
5.72917
 21
13.4392
 31
0.0
  0
LINE
  8
0
 62
     0
 10
5.72917
 20
13.4392
 30
0.0
 11
5.52778
 21
13.3819
 31
0.0
  0
LINE
  8
0
 62
     0
 10
5.52778
 20
13.3819
 30
0.0
 11
5.34028
 21
13.3003
 31
0.0
  0
LINE
  8
0
 62
     0
 10
5.34028
 20
13.3003
 30
0.0
 11
5.16667
 21
13.1944
 31
0.0
  0
LINE
  8
0
 62
     0
 10
5.16667
 20
13.1944
 30
0.0
 11
5.00174
 21
13.0547
 31
0.0
  0
LINE
  8
0
 62
     0
 10
5.00174
 20
13.0547
 30
0.0
 11
4.88194
 21
12.8993
 31
0.0
  0
LINE
  8
0
 62
     0
 10
4.88194
 20
12.8993
 30
0.0
 11
4.80729
 21
12.7283
 31
0.0
  0
LINE
  8
0
 62
     0
 10
4.80729
 20
12.7283
 30
0.0
 11
4.77778
 21
12.5417
 31
0.0
  0
LINE
  8
0
 62
     0
 10
4.77778
 20
12.5417
 30
0.0
 11
4.73779
 21
11.691
 31
0.0
  0
LINE
  8
0
 62
     0
 10
4.73779
 20
11.691
 30
0.0
 11
4.71522
 21
10.7778
 31
0.0
  0
LINE
  8
0
 62
     0
 10
4.71522
 20
10.7778
 30
0.0
 11
4.71001
 21
9.80214
 31
0.0
  0
LINE
  8
0
 62
     0
 10
4.71001
 20
9.80214
 30
0.0
 11
4.72222
 21
8.76389
 31
0.0
  0
LINE
  8
0
 62
     0
 10
4.72222
 20
8.76389
 30
0.0
 11
4.31939
 21
8.76303
 31
0.0
  0
LINE
  8
0
 62
     0
 10
4.31939
 20
8.76303
 30
0.0
 11
3.94439
 21
8.77431
 31
0.0
  0
LINE
  8
0
 62
     0
 10
3.94439
 20
8.77431
 30
0.0
 11
3.59717
 21
8.79775
 31
0.0
  0
LINE
  8
0
 62
     0
 10
3.59717
 20
8.79775
 30
0.0
 11
3.27778
 21
8.83333
 31
0.0
  0
LINE
  8
0
 62
     0
 10
3.27778
 20
8.83333
 30
0.0
 11
2.91054
 21
8.85764
 31
0.0
  0
LINE
  8
0
 62
     0
 10
2.91054
 20
8.85764
 30
0.0
 11
2.53119
 21
8.81944
 31
0.0
  0
LINE
  8
0
 62
     0
 10
2.53119
 20
8.81944
 30
0.0
 11
2.13971
 21
8.71881
 31
0.0
  0
LINE
  8
0
 62
     0
 10
2.13971
 20
8.71881
 30
0.0
 11
1.73611
 21
8.55556
 31
0.0
  0
LINE
  8
0
 62
     0
 10
1.73611
 20
8.55556
 30
0.0
 11
1.52772
 21
8.4375
 31
0.0
  0
LINE
  8
0
 62
     0
 10
1.52772
 20
8.4375
 30
0.0
 11
1.34722
 21
8.27778
 31
0.0
  0
LINE
  8
0
 62
     0
 10
1.34722
 20
8.27778
 30
0.0
 11
1.27078
 21
8.16581
 31
0.0
  0
LINE
  8
0
 62
     0
 10
1.27078
 20
8.16581
 30
0.0
 11
1.26383
 21
8.07986
 31
0.0
  0
LINE
  8
0
 62
     0
 10
1.26383
 20
8.07986
 30
0.0
 11
1.32633
 21
8.01997
 31
0.0
  0
LINE
  8
0
 62
     0
 10
1.32633
 20
8.01997
 30
0.0
 11
1.45833
 21
7.98611
 31
0.0
  0
LINE
  8
0
 62
     0
 10
1.45833
 20
7.98611
 30
0.0
 11
1.81054
 21
7.94054
 31
0.0
  0
LINE
  8
0
 62
     0
 10
1.81054
 20
7.94054
 30
0.0
 11
2.17969
 21
7.90799
 31
0.0
  0
LINE
  8
0
 62
     0
 10
2.17969
 20
7.90799
 30
0.0
 11
2.56575
 21
7.88846
 31
0.0
  0
LINE
  8
0
 62
     0
 10
2.56575
 20
7.88846
 30
0.0
 11
2.96875
 21
7.88194
 31
0.0
  0
LINE
  8
0
 62
     0
 10
2.96875
 20
7.88194
 30
0.0
 11
3.38867
 21
7.88846
 31
0.0
  0
LINE
  8
0
 62
     0
 10
3.38867
 20
7.88846
 30
0.0
 11
3.82553
 21
7.90799
 31
0.0
  0
LINE
  8
0
 62
     0
 10
3.82553
 20
7.90799
 30
0.0
 11
4.27929
 21
7.94054
 31
0.0
  0
LINE
  8
0
 62
     0
 10
4.27929
 20
7.94054
 30
0.0
 11
4.75
 21
7.98611
 31
0.0
  0
LINE
  8
0
 62
     0
 10
4.75
 20
7.98611
 30
0.0
 11
4.78472
 21
7.14063
 31
0.0
  0
LINE
  8
0
 62
     0
 10
4.78472
 20
7.14063
 30
0.0
 11
4.83333
 21
6.20139
 31
0.0
  0
LINE
  8
0
 62
     0
 10
4.83333
 20
6.20139
 30
0.0
 11
4.89583
 21
5.16846
 31
0.0
  0
LINE
  8
0
 62
     0
 10
4.89583
 20
5.16846
 30
0.0
 11
4.97222
 21
4.04167
 31
0.0
  0
LINE
  8
0
 62
     0
 10
4.97222
 20
4.04167
 30
0.0
 11
5.00694
 21
3.84028
 31
0.0
  0
LINE
  8
0
 62
     0
 10
5.00694
 20
3.84028
 30
0.0
 11
5.08333
 21
3.66667
 31
0.0
  0
LINE
  8
0
 62
     0
 10
5.08333
 20
3.66667
 30
0.0
 11
5.20139
 21
3.52083
 31
0.0
  0
LINE
  8
0
 62
     0
 10
5.20139
 20
3.52083
 30
0.0
 11
5.36111
 21
3.40278
 31
0.0
  0
LINE
  8
0
 62
     0
 10
5.36111
 20
3.40278
 30
0.0
 11
5.5356
 21
3.32118
 31
0.0
  0
LINE
  8
0
 62
     0
 10
5.5356
 20
3.32118
 30
0.0
 11
5.72569
 21
3.27083
 31
0.0
  0
LINE
  8
0
 62
     0
 10
5.72569
 20
3.27083
 30
0.0
 11
5.93143
 21
3.25174
 31
0.0
  0
LINE
  8
0
 62
     0
 10
5.93143
 20
3.25174
 30
0.0
 11
6.15278
 21
3.26389
 31
0.0
  0
LINE
  8
0
 62
     0
 10
6.15278
 20
3.26389
 30
0.0
 11
6.36626
 21
3.29693
 31
0.0
  0
LINE
  8
0
 62
     0
 10
6.36626
 20
3.29693
 30
0.0
 11
6.56244
 21
3.35422
 31
0.0
  0
LINE
  8
0
 62
     0
 10
6.56244
 20
3.35422
 30
0.0
 11
6.74126
 21
3.43582
 31
0.0
  0
LINE
  8
0
 62
     0
 10
6.74126
 20
3.43582
 30
0.0
 11
6.90278
 21
3.54167
 31
0.0
  0
LINE
  8
0
 62
     0
 10
6.90278
 20
3.54167
 30
0.0
 11
7.04775
 21
3.68061
 31
0.0
  0
LINE
  8
0
 62
     0
 10
7.04775
 20
3.68061
 30
0.0
 11
7.14931
 21
3.83339
 31
0.0
  0
LINE
  8
0
 62
     0
 10
7.14931
 20
3.83339
 30
0.0
 11
7.20747
 21
4.00006
 31
0.0
  0
LINE
  8
0
 62
     0
 10
7.20747
 20
4.00006
 30
0.0
 11
7.22222
 21
4.18056
 31
0.0
  0
LINE
  8
0
 62
     0
 10
7.22222
 20
4.18056
 30
0.0
 11
7.17919
 21
4.785
 31
0.0
  0
LINE
  8
0
 62
     0
 10
7.17919
 20
4.785
 30
0.0
 11
7.14057
 21
5.36203
 31
0.0
  0
LINE
  8
0
 62
     0
 10
7.14057
 20
5.36203
 30
0.0
 11
7.10628
 21
5.91174
 31
0.0
  0
LINE
  8
0
 62
     0
 10
7.10628
 20
5.91174
 30
0.0
 11
7.07633
 21
6.43403
 31
0.0
  0
LINE
  8
0
 62
     0
 10
7.07633
 20
6.43403
 30
0.0
 11
7.05072
 21
6.92904
 31
0.0
  0
LINE
  8
0
 62
     0
 10
7.05072
 20
6.92904
 30
0.0
 11
7.02946
 21
7.39671
 31
0.0
  0
LINE
  8
0
 62
     0
 10
7.02946
 20
7.39671
 30
0.0
 11
7.01253
 21
7.83703
 31
0.0
  0
LINE
  8
0
 62
     0
 10
7.01253
 20
7.83703
 30
0.0
 11
7
 21
8.25
 31
0.0
  0
LINE
  8
0
 62
     0
 10
7
 20
8.25
 30
0.0
 11
7.74393
 21
8.33507
 31
0.0
  0
LINE
  8
0
 62
     0
 10
7.74393
 20
8.33507
 30
0.0
 11
8.42014
 21
8.39583
 31
0.0
  0
LINE
  8
0
 62
     0
 10
8.42014
 20
8.39583
 30
0.0
 11
9.02865
 21
8.43229
 31
0.0
  0
LINE
  8
0
 62
     0
 10
9.02865
 20
8.43229
 30
0.0
 11
9.56944
 21
8.44444
 31
0.0
  0
LINE
  8
0
 62
     0
 10
9.56944
 20
8.44444
 30
0.0
 11
9.68403
 21
8.44835
 31
0.0
  0
LINE
  8
0
 62
     0
 10
9.68403
 20
8.44835
 30
0.0
 11
9.8125
 21
8.46701
 31
0.0
  0
LINE
  8
0
 62
     0
 10
9.8125
 20
8.46701
 30
0.0
 11
9.95486
 21
8.50043
 31
0.0
  0
LINE
  8
0
 62
     0
 10
9.95486
 20
8.50043
 30
0.0
 11
10.1111
 21
8.54861
 31
0.0
  0
LINE
  8
0
 62
     0
 10
10.1111
 20
8.54861
 30
0.0
 11
10.2813
 21
8.61154
 31
0.0
  0
LINE
  8
0
 62
     0
 10
10.2813
 20
8.61154
 30
0.0
 11
10.4653
 21
8.68924
 31
0.0
  0
LINE
  8
0
 62
     0
 10
10.4653
 20
8.68924
 30
0.0
 11
10.6632
 21
8.78168
 31
0.0
  0
LINE
  8
0
 62
     0
 10
10.6632
 20
8.78168
 30
0.0
 11
10.875
 21
8.88889
 31
0.0
  0
LINE
  8
0
 62
     0
 10
10.875
 20
8.88889
 30
0.0
 11
11.0373
 21
8.97575
 31
0.0
  0
LINE
  8
0
 62
     0
 10
11.0373
 20
8.97575
 30
0.0
 11
11.1632
 21
9.05561
 31
0.0
  0
LINE
  8
0
 62
     0
 10
11.1632
 20
9.05561
 30
0.0
 11
11.2526
 21
9.12853
 31
0.0
  0
LINE
  8
0
 62
     0
 10
11.2526
 20
9.12853
 30
0.0
 11
11.3056
 21
9.19444
 31
0.0
  0
LINE
  8
0
 62
     0
 10
11.3056
 20
9.19444
 30
0.0
 11
11.3186
 21
9.25526
 31
0.0
  0
LINE
  8
0
 62
     0
 10
11.3186
 20
9.25526
 30
0.0
 11
11.2743
 21
9.29867
 31
0.0
  0
LINE
  8
0
 62
     0
 10
11.2743
 20
9.29867
 30
0.0
 11
11.1727
 21
9.32471
 31
0.0
  0
LINE
  8
0
 62
     0
 10
11.1727
 20
9.32471
 30
0.0
 11
11.0139
 21
9.33333
 31
0.0
  0
LINE
  8
0
 62
     0
 10
11.0139
 20
9.33333
 30
0.0
 11
10.7471
 21
9.33014
 31
0.0
  0
LINE
  8
0
 62
     0
 10
10.7471
 20
9.33014
 30
0.0
 11
10.4123
 21
9.31342
 31
0.0
  0
LINE
  8
0
 62
     0
 10
10.4123
 20
9.31342
 30
0.0
 11
10.0093
 21
9.28326
 31
0.0
  0
LINE
  8
0
 62
     0
 10
10.0093
 20
9.28326
 30
0.0
 11
9.53814
 21
9.23964
 31
0.0
  0
LINE
  8
0
 62
     0
 10
9.53814
 20
9.23964
 30
0.0
 11
8.99886
 21
9.18257
 31
0.0
  0
LINE
  8
0
 62
     0
 10
8.99886
 20
9.18257
 30
0.0
 11
8.39144
 21
9.11203
 31
0.0
  0
LINE
  8
0
 62
     0
 10
8.39144
 20
9.11203
 30
0.0
 11
7.71588
 21
9.02806
 31
0.0
  0
LINE
  8
0
 62
     0
 10
7.71588
 20
9.02806
 30
0.0
 11
6.97222
 21
8.93056
 31
0.0
  0
ENDSEC
  0
EOF
