  0
SECTION
  2
HEADER
  9
$ACADVER
  1
AC1009
  9
$EXTMIN
 10
0.0
 20
0.0
 30
0.0
  9
$EXTMAX
 10
1000.0
 20
1000.0
 30
0.0
  9
$FILLMODE
 70
 0
  9
$SPLFRAME
 70
 1
  0
ENDSEC
  0
SECTION
  2
TABLES
  0
TABLE
  2
LAYER
 70
1
  0
LAYER
  2
0
 70
     0
 62
     7
  6
CONTINUOUS
  0
ENDTAB
  0
ENDSEC
  0
SECTION
  2
ENTITIES
  0
LINE
  8
0
 62
     0
 10
7.48611
 20
17.2917
 30
0.0
 11
7.84918
 21
17.5315
 31
0.0
  0
LINE
  8
0
 62
     0
 10
7.84918
 20
17.5315
 30
0.0
 11
8.20226
 21
17.7369
 31
0.0
  0
LINE
  8
0
 62
     0
 10
8.20226
 20
17.7369
 30
0.0
 11
8.54536
 21
17.9082
 31
0.0
  0
LINE
  8
0
 62
     0
 10
8.54536
 20
17.9082
 30
0.0
 11
8.87847
 21
18.0451
 31
0.0
  0
LINE
  8
0
 62
     0
 10
8.87847
 20
18.0451
 30
0.0
 11
9.20161
 21
18.1478
 31
0.0
  0
LINE
  8
0
 62
     0
 10
9.20161
 20
18.1478
 30
0.0
 11
9.51476
 21
18.2161
 31
0.0
  0
LINE
  8
0
 62
     0
 10
9.51476
 20
18.2161
 30
0.0
 11
9.81793
 21
18.2503
 31
0.0
  0
LINE
  8
0
 62
     0
 10
9.81793
 20
18.2503
 30
0.0
 11
10.1111
 21
18.25
 31
0.0
  0
LINE
  8
0
 62
     0
 10
10.1111
 20
18.25
 30
0.0
 11
10.4392
 21
18.2018
 31
0.0
  0
LINE
  8
0
 62
     0
 10
10.4392
 20
18.2018
 30
0.0
 11
10.75
 21
18.106
 31
0.0
  0
LINE
  8
0
 62
     0
 10
10.75
 20
18.106
 30
0.0
 11
11.0434
 21
17.9622
 31
0.0
  0
LINE
  8
0
 62
     0
 10
11.0434
 20
17.9622
 30
0.0
 11
11.3194
 21
17.7708
 31
0.0
  0
LINE
  8
0
 62
     0
 10
11.3194
 20
17.7708
 30
0.0
 11
11.5781
 21
17.5317
 31
0.0
  0
LINE
  8
0
 62
     0
 10
11.5781
 20
17.5317
 30
0.0
 11
11.8194
 21
17.2449
 31
0.0
  0
LINE
  8
0
 62
     0
 10
11.8194
 20
17.2449
 30
0.0
 11
12.0434
 21
16.9101
 31
0.0
  0
LINE
  8
0
 62
     0
 10
12.0434
 20
16.9101
 30
0.0
 11
12.25
 21
16.5278
 31
0.0
  0
LINE
  8
0
 62
     0
 10
12.25
 20
16.5278
 30
0.0
 11
12.4578
 21
16.0446
 31
0.0
  0
LINE
  8
0
 62
     0
 10
12.4578
 20
16.0446
 30
0.0
 11
12.6302
 21
15.5322
 31
0.0
  0
LINE
  8
0
 62
     0
 10
12.6302
 20
15.5322
 30
0.0
 11
12.7669
 21
14.9907
 31
0.0
  0
LINE
  8
0
 62
     0
 10
12.7669
 20
14.9907
 30
0.0
 11
12.868
 21
14.4201
 31
0.0
  0
LINE
  8
0
 62
     0
 10
12.868
 20
14.4201
 30
0.0
 11
12.9335
 21
13.8206
 31
0.0
  0
LINE
  8
0
 62
     0
 10
12.9335
 20
13.8206
 30
0.0
 11
12.9635
 21
13.1919
 31
0.0
  0
LINE
  8
0
 62
     0
 10
12.9635
 20
13.1919
 30
0.0
 11
12.9578
 21
12.5341
 31
0.0
  0
LINE
  8
0
 62
     0
 10
12.9578
 20
12.5341
 30
0.0
 11
12.9167
 21
11.8472
 31
0.0
  0
LINE
  8
0
 62
     0
 10
12.9167
 20
11.8472
 30
0.0
 11
12.8426
 21
11.1727
 31
0.0
  0
LINE
  8
0
 62
     0
 10
12.8426
 20
11.1727
 30
0.0
 11
12.7387
 21
10.5035
 31
0.0
  0
LINE
  8
0
 62
     0
 10
12.7387
 20
10.5035
 30
0.0
 11
12.6048
 21
9.83942
 31
0.0
  0
LINE
  8
0
 62
     0
 10
12.6048
 20
9.83942
 30
0.0
 11
12.4409
 21
9.18056
 31
0.0
  0
LINE
  8
0
 62
     0
 10
12.4409
 20
9.18056
 30
0.0
 11
12.2471
 21
8.52692
 31
0.0
  0
LINE
  8
0
 62
     0
 10
12.2471
 20
8.52692
 30
0.0
 11
12.0234
 21
7.87847
 31
0.0
  0
LINE
  8
0
 62
     0
 10
12.0234
 20
7.87847
 30
0.0
 11
11.7697
 21
7.23525
 31
0.0
  0
LINE
  8
0
 62
     0
 10
11.7697
 20
7.23525
 30
0.0
 11
11.4861
 21
6.59722
 31
0.0
  0
LINE
  8
0
 62
     0
 10
11.4861
 20
6.59722
 30
0.0
 11
10.8242
 21
6.61833
 31
0.0
  0
LINE
  8
0
 62
     0
 10
10.8242
 20
6.61833
 30
0.0
 11
10.1788
 21
6.54953
 31
0.0
  0
LINE
  8
0
 62
     0
 10
10.1788
 20
6.54953
 30
0.0
 11
9.54986
 21
6.3909
 31
0.0
  0
LINE
  8
0
 62
     0
 10
9.54986
 20
6.3909
 30
0.0
 11
8.93744
 21
6.14236
 31
0.0
  0
LINE
  8
0
 62
     0
 10
8.93744
 20
6.14236
 30
0.0
 11
8.34153
 21
5.80404
 31
0.0
  0
LINE
  8
0
 62
     0
 10
8.34153
 20
5.80404
 30
0.0
 11
7.7621
 21
5.37587
 31
0.0
  0
LINE
  8
0
 62
     0
 10
7.7621
 20
5.37587
 30
0.0
 11
7.19917
 21
4.85786
 31
0.0
  0
LINE
  8
0
 62
     0
 10
7.19917
 20
4.85786
 30
0.0
 11
6.65278
 21
4.25
 31
0.0
  0
LINE
  8
0
 62
     0
 10
6.65278
 20
4.25
 30
0.0
 11
6.51036
 21
4.053
 31
0.0
  0
LINE
  8
0
 62
     0
 10
6.51036
 20
4.053
 30
0.0
 11
6.4305
 21
3.86464
 31
0.0
  0
LINE
  8
0
 62
     0
 10
6.4305
 20
3.86464
 30
0.0
 11
6.41314
 21
3.68494
 31
0.0
  0
LINE
  8
0
 62
     0
 10
6.41314
 20
3.68494
 30
0.0
 11
6.45833
 21
3.51389
 31
0.0
  0
LINE
  8
0
 62
     0
 10
6.45833
 20
3.51389
 30
0.0
 11
6.54081
 21
3.3846
 31
0.0
  0
LINE
  8
0
 62
     0
 10
6.54081
 20
3.3846
 30
0.0
 11
6.66319
 21
3.27436
 31
0.0
  0
LINE
  8
0
 62
     0
 10
6.66319
 20
3.27436
 30
0.0
 11
6.82553
 21
3.18321
 31
0.0
  0
LINE
  8
0
 62
     0
 10
6.82553
 20
3.18321
 30
0.0
 11
7.02778
 21
3.11111
 31
0.0
  0
LINE
  8
0
 62
     0
 10
7.02778
 20
3.11111
 30
0.0
 11
7.23953
 21
3.06858
 31
0.0
  0
LINE
  8
0
 62
     0
 10
7.23953
 20
3.06858
 30
0.0
 11
7.45828
 21
3.05208
 31
0.0
  0
LINE
  8
0
 62
     0
 10
7.45828
 20
3.05208
 30
0.0
 11
7.68397
 21
3.06164
 31
0.0
  0
LINE
  8
0
 62
     0
 10
7.68397
 20
3.06164
 30
0.0
 11
7.91667
 21
3.09722
 31
0.0
  0
LINE
  8
0
 62
     0
 10
7.91667
 20
3.09722
 30
0.0
 11
8.15104
 21
3.15978
 31
0.0
  0
LINE
  8
0
 62
     0
 10
8.15104
 20
3.15978
 30
0.0
 11
8.35417
 21
3.25006
 31
0.0
  0
LINE
  8
0
 62
     0
 10
8.35417
 20
3.25006
 30
0.0
 11
8.52604
 21
3.36811
 31
0.0
  0
LINE
  8
0
 62
     0
 10
8.52604
 20
3.36811
 30
0.0
 11
8.66667
 21
3.51389
 31
0.0
  0
LINE
  8
0
 62
     0
 10
8.66667
 20
3.51389
 30
0.0
 11
8.86936
 21
3.74094
 31
0.0
  0
LINE
  8
0
 62
     0
 10
8.86936
 20
3.74094
 30
0.0
 11
9.07465
 21
3.94276
 31
0.0
  0
LINE
  8
0
 62
     0
 10
9.07465
 20
3.94276
 30
0.0
 11
9.28256
 21
4.11942
 31
0.0
  0
LINE
  8
0
 62
     0
 10
9.28256
 20
4.11942
 30
0.0
 11
9.49306
 21
4.27089
 31
0.0
  0
LINE
  8
0
 62
     0
 10
9.49306
 20
4.27089
 30
0.0
 11
9.70617
 21
4.39719
 31
0.0
  0
LINE
  8
0
 62
     0
 10
9.70617
 20
4.39719
 30
0.0
 11
9.92188
 21
4.49832
 31
0.0
  0
LINE
  8
0
 62
     0
 10
9.92188
 20
4.49832
 30
0.0
 11
10.1402
 21
4.57428
 31
0.0
  0
LINE
  8
0
 62
     0
 10
10.1402
 20
4.57428
 30
0.0
 11
10.3611
 21
4.625
 31
0.0
  0
LINE
  8
0
 62
     0
 10
10.3611
 20
4.625
 30
0.0
 11
10.0668
 21
4.21767
 31
0.0
  0
LINE
  8
0
 62
     0
 10
10.0668
 20
4.21767
 30
0.0
 11
9.76714
 21
3.83578
 31
0.0
  0
LINE
  8
0
 62
     0
 10
9.76714
 20
3.83578
 30
0.0
 11
9.46218
 21
3.47939
 31
0.0
  0
LINE
  8
0
 62
     0
 10
9.46218
 20
3.47939
 30
0.0
 11
9.15192
 21
3.14849
 31
0.0
  0
LINE
  8
0
 62
     0
 10
9.15192
 20
3.14849
 30
0.0
 11
8.83632
 21
2.8431
 31
0.0
  0
LINE
  8
0
 62
     0
 10
8.83632
 20
2.8431
 30
0.0
 11
8.5154
 21
2.56321
 31
0.0
  0
LINE
  8
0
 62
     0
 10
8.5154
 20
2.56321
 30
0.0
 11
8.18918
 21
2.30881
 31
0.0
  0
LINE
  8
0
 62
     0
 10
8.18918
 20
2.30881
 30
0.0
 11
7.85764
 21
2.07992
 31
0.0
  0
LINE
  8
0
 62
     0
 10
7.85764
 20
2.07992
 30
0.0
 11
7.52078
 21
1.87651
 31
0.0
  0
LINE
  8
0
 62
     0
 10
7.52078
 20
1.87651
 30
0.0
 11
7.1786
 21
1.69863
 31
0.0
  0
LINE
  8
0
 62
     0
 10
7.1786
 20
1.69863
 30
0.0
 11
6.83111
 21
1.54622
 31
0.0
  0
LINE
  8
0
 62
     0
 10
6.83111
 20
1.54622
 30
0.0
 11
6.47831
 21
1.41932
 31
0.0
  0
LINE
  8
0
 62
     0
 10
6.47831
 20
1.41932
 30
0.0
 11
6.12017
 21
1.31793
 31
0.0
  0
LINE
  8
0
 62
     0
 10
6.12017
 20
1.31793
 30
0.0
 11
5.75672
 21
1.24202
 31
0.0
  0
LINE
  8
0
 62
     0
 10
5.75672
 20
1.24202
 30
0.0
 11
5.38797
 21
1.19162
 31
0.0
  0
LINE
  8
0
 62
     0
 10
5.38797
 20
1.19162
 30
0.0
 11
5.01389
 21
1.16667
 31
0.0
  0
LINE
  8
0
 62
     0
 10
5.01389
 20
1.16667
 30
0.0
 11
5.18658
 21
1.26649
 31
0.0
  0
LINE
  8
0
 62
     0
 10
5.18658
 20
1.26649
 30
0.0
 11
5.32981
 21
1.37153
 31
0.0
  0
LINE
  8
0
 62
     0
 10
5.32981
 20
1.37153
 30
0.0
 11
5.44353
 21
1.48182
 31
0.0
  0
LINE
  8
0
 62
     0
 10
5.44353
 20
1.48182
 30
0.0
 11
5.52778
 21
1.59722
 31
0.0
  0
LINE
  8
0
 62
     0
 10
5.52778
 20
1.59722
 30
0.0
 11
5.58062
 21
1.72749
 31
0.0
  0
LINE
  8
0
 62
     0
 10
5.58062
 20
1.72749
 30
0.0
 11
5.58664
 21
1.85422
 31
0.0
  0
LINE
  8
0
 62
     0
 10
5.58664
 20
1.85422
 30
0.0
 11
5.54585
 21
1.97749
 31
0.0
  0
LINE
  8
0
 62
     0
 10
5.54585
 20
1.97749
 30
0.0
 11
5.45833
 21
2.09722
 31
0.0
  0
LINE
  8
0
 62
     0
 10
5.45833
 20
2.09722
 30
0.0
 11
4.86426
 21
2.74875
 31
0.0
  0
LINE
  8
0
 62
     0
 10
4.86426
 20
2.74875
 30
0.0
 11
4.33203
 21
3.4011
 31
0.0
  0
LINE
  8
0
 62
     0
 10
4.33203
 20
3.4011
 30
0.0
 11
3.86165
 21
4.05431
 31
0.0
  0
LINE
  8
0
 62
     0
 10
3.86165
 20
4.05431
 30
0.0
 11
3.45313
 21
4.70839
 31
0.0
  0
LINE
  8
0
 62
     0
 10
3.45313
 20
4.70839
 30
0.0
 11
3.10644
 21
5.36333
 31
0.0
  0
LINE
  8
0
 62
     0
 10
3.10644
 20
5.36333
 30
0.0
 11
2.82161
 21
6.01915
 31
0.0
  0
LINE
  8
0
 62
     0
 10
2.82161
 20
6.01915
 30
0.0
 11
2.59864
 21
6.67583
 31
0.0
  0
LINE
  8
0
 62
     0
 10
2.59864
 20
6.67583
 30
0.0
 11
2.4375
 21
7.33339
 31
0.0
  0
LINE
  8
0
 62
     0
 10
2.4375
 20
7.33339
 30
0.0
 11
2.33822
 21
7.99181
 31
0.0
  0
LINE
  8
0
 62
     0
 10
2.33822
 20
7.99181
 30
0.0
 11
2.30078
 21
8.6511
 31
0.0
  0
LINE
  8
0
 62
     0
 10
2.30078
 20
8.6511
 30
0.0
 11
2.32519
 21
9.31125
 31
0.0
  0
LINE
  8
0
 62
     0
 10
2.32519
 20
9.31125
 30
0.0
 11
2.41146
 21
9.97228
 31
0.0
  0
LINE
  8
0
 62
     0
 10
2.41146
 20
9.97228
 30
0.0
 11
2.55957
 21
10.6342
 31
0.0
  0
LINE
  8
0
 62
     0
 10
2.55957
 20
10.6342
 30
0.0
 11
2.76953
 21
11.2969
 31
0.0
  0
LINE
  8
0
 62
     0
 10
2.76953
 20
11.2969
 30
0.0
 11
3.04135
 21
11.9606
 31
0.0
  0
LINE
  8
0
 62
     0
 10
3.04135
 20
11.9606
 30
0.0
 11
3.375
 21
12.625
 31
0.0
  0
LINE
  8
0
 62
     0
 10
3.375
 20
12.625
 30
0.0
 11
3.7825
 21
13.3299
 31
0.0
  0
LINE
  8
0
 62
     0
 10
3.7825
 20
13.3299
 30
0.0
 11
4.22043
 21
14
 31
0.0
  0
LINE
  8
0
 62
     0
 10
4.22043
 20
14
 30
0.0
 11
4.68875
 21
14.6354
 31
0.0
  0
LINE
  8
0
 62
     0
 10
4.68875
 20
14.6354
 30
0.0
 11
5.18744
 21
15.2361
 31
0.0
  0
LINE
  8
0
 62
     0
 10
5.18744
 20
15.2361
 30
0.0
 11
5.71653
 21
15.8021
 31
0.0
  0
LINE
  8
0
 62
     0
 10
5.71653
 20
15.8021
 30
0.0
 11
6.27599
 21
16.3333
 31
0.0
  0
LINE
  8
0
 62
     0
 10
6.27599
 20
16.3333
 30
0.0
 11
6.86583
 21
16.8299
 31
0.0
  0
LINE
  8
0
 62
     0
 10
6.86583
 20
16.8299
 30
0.0
 11
7.48611
 21
17.2917
 31
0.0
  0
LINE
  8
0
 62
     0
 10
0.666667
 20
1.52778
 30
0.0
 11
0.477376
 21
1.4089
 31
0.0
  0
LINE
  8
0
 62
     0
 10
0.477376
 20
1.4089
 30
0.0
 11
0.326335
 21
1.28825
 31
0.0
  0
LINE
  8
0
 62
     0
 10
0.326335
 20
1.28825
 30
0.0
 11
0.213488
 21
1.16585
 31
0.0
  0
LINE
  8
0
 62
     0
 10
0.213488
 20
1.16585
 30
0.0
 11
0.138889
 21
1.04167
 31
0.0
  0
LINE
  8
0
 62
     0
 10
0.138889
 20
1.04167
 30
0.0
 11
0.113715
 21
0.908908
 31
0.0
  0
LINE
  8
0
 62
     0
 10
0.113715
 20
0.908908
 30
0.0
 11
0.149306
 21
0.788249
 31
0.0
  0
LINE
  8
0
 62
     0
 10
0.149306
 20
0.788249
 30
0.0
 11
0.24566
 21
0.679742
 31
0.0
  0
LINE
  8
0
 62
     0
 10
0.24566
 20
0.679742
 30
0.0
 11
0.402778
 21
0.583333
 31
0.0
  0
LINE
  8
0
 62
     0
 10
0.402778
 20
0.583333
 30
0.0
 11
1.17101
 21
0.243761
 31
0.0
  0
LINE
  8
0
 62
     0
 10
1.17101
 20
0.243761
 30
0.0
 11
1.94792
 21
-0.0112305
 31
0.0
  0
LINE
  8
0
 62
     0
 10
1.94792
 20
-0.0112305
 30
0.0
 11
2.73351
 21
-0.181586
 31
0.0
  0
LINE
  8
0
 62
     0
 10
2.73351
 20
-0.181586
 30
0.0
 11
3.52778
 21
-0.267361
 31
0.0
  0
LINE
  8
0
 62
     0
 10
3.52778
 20
-0.267361
 30
0.0
 11
4.33074
 21
-0.268446
 31
0.0
  0
LINE
  8
0
 62
     0
 10
4.33074
 20
-0.268446
 30
0.0
 11
5.14236
 21
-0.184896
 31
0.0
  0
LINE
  8
0
 62
     0
 10
5.14236
 20
-0.184896
 30
0.0
 11
5.96268
 21
-0.0167101
 31
0.0
  0
LINE
  8
0
 62
     0
 10
5.96268
 20
-0.0167101
 30
0.0
 11
6.79167
 21
0.236111
 31
0.0
  0
LINE
  8
0
 62
     0
 10
6.79167
 20
0.236111
 30
0.0
 11
7.54183
 21
0.529135
 31
0.0
  0
LINE
  8
0
 62
     0
 10
7.54183
 20
0.529135
 30
0.0
 11
8.27165
 21
0.880262
 31
0.0
  0
LINE
  8
0
 62
     0
 10
8.27165
 20
0.880262
 30
0.0
 11
8.98107
 21
1.28955
 31
0.0
  0
LINE
  8
0
 62
     0
 10
8.98107
 20
1.28955
 30
0.0
 11
9.67008
 21
1.757
 31
0.0
  0
LINE
  8
0
 62
     0
 10
9.67008
 20
1.757
 30
0.0
 11
10.3387
 21
2.28261
 31
0.0
  0
LINE
  8
0
 62
     0
 10
10.3387
 20
2.28261
 30
0.0
 11
10.9869
 21
2.86637
 31
0.0
  0
LINE
  8
0
 62
     0
 10
10.9869
 20
2.86637
 30
0.0
 11
11.6148
 21
3.50831
 31
0.0
  0
LINE
  8
0
 62
     0
 10
11.6148
 20
3.50831
 30
0.0
 11
12.2222
 21
4.20833
 31
0.0
  0
LINE
  8
0
 62
     0
 10
12.2222
 20
4.20833
 30
0.0
 11
12.3747
 21
4.12261
 31
0.0
  0
LINE
  8
0
 62
     0
 10
12.3747
 20
4.12261
 30
0.0
 11
12.5477
 21
4.01824
 31
0.0
  0
LINE
  8
0
 62
     0
 10
12.5477
 20
4.01824
 30
0.0
 11
12.741
 21
3.89518
 31
0.0
  0
LINE
  8
0
 62
     0
 10
12.741
 20
3.89518
 30
0.0
 11
12.9548
 21
3.75347
 31
0.0
  0
LINE
  8
0
 62
     0
 10
12.9548
 20
3.75347
 30
0.0
 11
13.189
 21
3.5931
 31
0.0
  0
LINE
  8
0
 62
     0
 10
13.189
 20
3.5931
 30
0.0
 11
13.4435
 21
3.41407
 31
0.0
  0
LINE
  8
0
 62
     0
 10
13.4435
 20
3.41407
 30
0.0
 11
13.7185
 21
3.21636
 31
0.0
  0
LINE
  8
0
 62
     0
 10
13.7185
 20
3.21636
 30
0.0
 11
14.0139
 21
3
 31
0.0
  0
LINE
  8
0
 62
     0
 10
14.0139
 20
3
 30
0.0
 11
14.7456
 21
2.46967
 31
0.0
  0
LINE
  8
0
 62
     0
 10
14.7456
 20
2.46967
 30
0.0
 11
15.4271
 21
1.99658
 31
0.0
  0
LINE
  8
0
 62
     0
 10
15.4271
 20
1.99658
 30
0.0
 11
16.0581
 21
1.58078
 31
0.0
  0
LINE
  8
0
 62
     0
 10
16.0581
 20
1.58078
 30
0.0
 11
16.6389
 21
1.22222
 31
0.0
  0
LINE
  8
0
 62
     0
 10
16.6389
 20
1.22222
 30
0.0
 11
17.1692
 21
0.921007
 31
0.0
  0
LINE
  8
0
 62
     0
 10
17.1692
 20
0.921007
 30
0.0
 11
17.6493
 21
0.677083
 31
0.0
  0
LINE
  8
0
 62
     0
 10
17.6493
 20
0.677083
 30
0.0
 11
18.0789
 21
0.490451
 31
0.0
  0
LINE
  8
0
 62
     0
 10
18.0789
 20
0.490451
 30
0.0
 11
18.4583
 21
0.361111
 31
0.0
  0
LINE
  8
0
 62
     0
 10
18.4583
 20
0.361111
 30
0.0
 11
18.6528
 21
0.329861
 31
0.0
  0
LINE
  8
0
 62
     0
 10
18.6528
 20
0.329861
 30
0.0
 11
18.8611
 21
0.333333
 31
0.0
  0
LINE
  8
0
 62
     0
 10
18.8611
 20
0.333333
 30
0.0
 11
19.0833
 21
0.371528
 31
0.0
  0
LINE
  8
0
 62
     0
 10
19.0833
 20
0.371528
 30
0.0
 11
19.3194
 21
0.444444
 31
0.0
  0
LINE
  8
0
 62
     0
 10
19.3194
 20
0.444444
 30
0.0
 11
19.539
 21
0.537381
 31
0.0
  0
LINE
  8
0
 62
     0
 10
19.539
 20
0.537381
 30
0.0
 11
19.7396
 21
0.64936
 31
0.0
  0
LINE
  8
0
 62
     0
 10
19.7396
 20
0.64936
 30
0.0
 11
19.921
 21
0.780436
 31
0.0
  0
LINE
  8
0
 62
     0
 10
19.921
 20
0.780436
 30
0.0
 11
20.0833
 21
0.930556
 31
0.0
  0
LINE
  8
0
 62
     0
 10
20.0833
 20
0.930556
 30
0.0
 11
20.2265
 21
1.0938
 31
0.0
  0
LINE
  8
0
 62
     0
 10
20.2265
 20
1.0938
 30
0.0
 11
20.3229
 21
1.25005
 31
0.0
  0
LINE
  8
0
 62
     0
 10
20.3229
 20
1.25005
 30
0.0
 11
20.3724
 21
1.39936
 31
0.0
  0
LINE
  8
0
 62
     0
 10
20.3724
 20
1.39936
 30
0.0
 11
20.375
 21
1.54167
 31
0.0
  0
LINE
  8
0
 62
     0
 10
20.375
 20
1.54167
 30
0.0
 11
20.3307
 21
1.69618
 31
0.0
  0
LINE
  8
0
 62
     0
 10
20.3307
 20
1.69618
 30
0.0
 11
20.2257
 21
1.82639
 31
0.0
  0
LINE
  8
0
 62
     0
 10
20.2257
 20
1.82639
 30
0.0
 11
20.0599
 21
1.93229
 31
0.0
  0
LINE
  8
0
 62
     0
 10
20.0599
 20
1.93229
 30
0.0
 11
19.8333
 21
2.01389
 31
0.0
  0
LINE
  8
0
 62
     0
 10
19.8333
 20
2.01389
 30
0.0
 11
19.4785
 21
2.12657
 31
0.0
  0
LINE
  8
0
 62
     0
 10
19.4785
 20
2.12657
 30
0.0
 11
19.1085
 21
2.27001
 31
0.0
  0
LINE
  8
0
 62
     0
 10
19.1085
 20
2.27001
 30
0.0
 11
18.7232
 21
2.44428
 31
0.0
  0
LINE
  8
0
 62
     0
 10
18.7232
 20
2.44428
 30
0.0
 11
18.3229
 21
2.64936
 31
0.0
  0
LINE
  8
0
 62
     0
 10
18.3229
 20
2.64936
 30
0.0
 11
17.9072
 21
2.88525
 31
0.0
  0
LINE
  8
0
 62
     0
 10
17.9072
 20
2.88525
 30
0.0
 11
17.4765
 21
3.15196
 31
0.0
  0
LINE
  8
0
 62
     0
 10
17.4765
 20
3.15196
 30
0.0
 11
17.0306
 21
3.44949
 31
0.0
  0
LINE
  8
0
 62
     0
 10
17.0306
 20
3.44949
 30
0.0
 11
16.5694
 21
3.77778
 31
0.0
  0
LINE
  8
0
 62
     0
 10
16.5694
 20
3.77778
 30
0.0
 11
15.9772
 21
4.20964
 31
0.0
  0
LINE
  8
0
 62
     0
 10
15.9772
 20
4.20964
 30
0.0
 11
15.4436
 21
4.59549
 31
0.0
  0
LINE
  8
0
 62
     0
 10
15.4436
 20
4.59549
 30
0.0
 11
14.9685
 21
4.93533
 31
0.0
  0
LINE
  8
0
 62
     0
 10
14.9685
 20
4.93533
 30
0.0
 11
14.5521
 21
5.22917
 31
0.0
  0
LINE
  8
0
 62
     0
 10
14.5521
 20
5.22917
 30
0.0
 11
14.1942
 21
5.477
 31
0.0
  0
LINE
  8
0
 62
     0
 10
14.1942
 20
5.477
 30
0.0
 11
13.895
 21
5.67882
 31
0.0
  0
LINE
  8
0
 62
     0
 10
13.895
 20
5.67882
 30
0.0
 11
13.6542
 21
5.83464
 31
0.0
  0
LINE
  8
0
 62
     0
 10
13.6542
 20
5.83464
 30
0.0
 11
13.4722
 21
5.94444
 31
0.0
  0
LINE
  8
0
 62
     0
 10
13.4722
 20
5.94444
 30
0.0
 11
13.9032
 21
6.67996
 31
0.0
  0
LINE
  8
0
 62
     0
 10
13.9032
 20
6.67996
 30
0.0
 11
14.2864
 21
7.42106
 31
0.0
  0
LINE
  8
0
 62
     0
 10
14.2864
 20
7.42106
 30
0.0
 11
14.6219
 21
8.16781
 31
0.0
  0
LINE
  8
0
 62
     0
 10
14.6219
 20
8.16781
 30
0.0
 11
14.9097
 21
8.92019
 31
0.0
  0
LINE
  8
0
 62
     0
 10
14.9097
 20
8.92019
 30
0.0
 11
15.1497
 21
9.67822
 31
0.0
  0
LINE
  8
0
 62
     0
 10
15.1497
 20
9.67822
 30
0.0
 11
15.3419
 21
10.4419
 31
0.0
  0
LINE
  8
0
 62
     0
 10
15.3419
 20
10.4419
 30
0.0
 11
15.4865
 21
11.2112
 31
0.0
  0
LINE
  8
0
 62
     0
 10
15.4865
 20
11.2112
 30
0.0
 11
15.5833
 21
11.9861
 31
0.0
  0
LINE
  8
0
 62
     0
 10
15.5833
 20
11.9861
 30
0.0
 11
15.6332
 21
12.8099
 31
0.0
  0
LINE
  8
0
 62
     0
 10
15.6332
 20
12.8099
 30
0.0
 11
15.6232
 21
13.6077
 31
0.0
  0
LINE
  8
0
 62
     0
 10
15.6232
 20
13.6077
 30
0.0
 11
15.5533
 21
14.3794
 31
0.0
  0
LINE
  8
0
 62
     0
 10
15.5533
 20
14.3794
 30
0.0
 11
15.4235
 21
15.125
 31
0.0
  0
LINE
  8
0
 62
     0
 10
15.4235
 20
15.125
 30
0.0
 11
15.2339
 21
15.8446
 31
0.0
  0
LINE
  8
0
 62
     0
 10
15.2339
 20
15.8446
 30
0.0
 11
14.9843
 21
16.5382
 31
0.0
  0
LINE
  8
0
 62
     0
 10
14.9843
 20
16.5382
 30
0.0
 11
14.6749
 21
17.2057
 31
0.0
  0
LINE
  8
0
 62
     0
 10
14.6749
 20
17.2057
 30
0.0
 11
14.3056
 21
17.8472
 31
0.0
  0
LINE
  8
0
 62
     0
 10
14.3056
 20
17.8472
 30
0.0
 11
14.0711
 21
18.1907
 31
0.0
  0
LINE
  8
0
 62
     0
 10
14.0711
 20
18.1907
 30
0.0
 11
13.8227
 21
18.5022
 31
0.0
  0
LINE
  8
0
 62
     0
 10
13.8227
 20
18.5022
 30
0.0
 11
13.5603
 21
18.7818
 31
0.0
  0
LINE
  8
0
 62
     0
 10
13.5603
 20
18.7818
 30
0.0
 11
13.2839
 21
19.0296
 31
0.0
  0
LINE
  8
0
 62
     0
 10
13.2839
 20
19.0296
 30
0.0
 11
12.9934
 21
19.2453
 31
0.0
  0
LINE
  8
0
 62
     0
 10
12.9934
 20
19.2453
 30
0.0
 11
12.689
 21
19.4293
 31
0.0
  0
LINE
  8
0
 62
     0
 10
12.689
 20
19.4293
 30
0.0
 11
12.3706
 21
19.5812
 31
0.0
  0
LINE
  8
0
 62
     0
 10
12.3706
 20
19.5812
 30
0.0
 11
12.0382
 21
19.7014
 31
0.0
  0
LINE
  8
0
 62
     0
 10
12.0382
 20
19.7014
 30
0.0
 11
11.6917
 21
19.7896
 31
0.0
  0
LINE
  8
0
 62
     0
 10
11.6917
 20
19.7896
 30
0.0
 11
11.3313
 21
19.846
 31
0.0
  0
LINE
  8
0
 62
     0
 10
11.3313
 20
19.846
 30
0.0
 11
10.9569
 21
19.8703
 31
0.0
  0
LINE
  8
0
 62
     0
 10
10.9569
 20
19.8703
 30
0.0
 11
10.5685
 21
19.8629
 31
0.0
  0
LINE
  8
0
 62
     0
 10
10.5685
 20
19.8629
 30
0.0
 11
10.1661
 21
19.8235
 31
0.0
  0
LINE
  8
0
 62
     0
 10
10.1661
 20
19.8235
 30
0.0
 11
9.74972
 21
19.7522
 31
0.0
  0
LINE
  8
0
 62
     0
 10
9.74972
 20
19.7522
 30
0.0
 11
9.31933
 21
19.649
 31
0.0
  0
LINE
  8
0
 62
     0
 10
9.31933
 20
19.649
 30
0.0
 11
8.875
 21
19.5139
 31
0.0
  0
LINE
  8
0
 62
     0
 10
8.875
 20
19.5139
 30
0.0
 11
8.18468
 21
19.2588
 31
0.0
  0
LINE
  8
0
 62
     0
 10
8.18468
 20
19.2588
 30
0.0
 11
7.50261
 21
18.9514
 31
0.0
  0
LINE
  8
0
 62
     0
 10
7.50261
 20
18.9514
 30
0.0
 11
6.82878
 21
18.5921
 31
0.0
  0
LINE
  8
0
 62
     0
 10
6.82878
 20
18.5921
 30
0.0
 11
6.16319
 21
18.1806
 31
0.0
  0
LINE
  8
0
 62
     0
 10
6.16319
 20
18.1806
 30
0.0
 11
5.50586
 21
17.7171
 31
0.0
  0
LINE
  8
0
 62
     0
 10
5.50586
 20
17.7171
 30
0.0
 11
4.85678
 21
17.2014
 31
0.0
  0
LINE
  8
0
 62
     0
 10
4.85678
 20
17.2014
 30
0.0
 11
4.21593
 21
16.6338
 31
0.0
  0
LINE
  8
0
 62
     0
 10
4.21593
 20
16.6338
 30
0.0
 11
3.58333
 21
16.0139
 31
0.0
  0
LINE
  8
0
 62
     0
 10
3.58333
 20
16.0139
 30
0.0
 11
2.79833
 21
15.1576
 31
0.0
  0
LINE
  8
0
 62
     0
 10
2.79833
 20
15.1576
 30
0.0
 11
2.11019
 21
14.29
 31
0.0
  0
LINE
  8
0
 62
     0
 10
2.11019
 20
14.29
 30
0.0
 11
1.51882
 21
13.4111
 31
0.0
  0
LINE
  8
0
 62
     0
 10
1.51882
 20
13.4111
 30
0.0
 11
1.02425
 21
12.5209
 31
0.0
  0
LINE
  8
0
 62
     0
 10
1.02425
 20
12.5209
 30
0.0
 11
0.626465
 21
11.6194
 31
0.0
  0
LINE
  8
0
 62
     0
 10
0.626465
 20
11.6194
 30
0.0
 11
0.325467
 21
10.7067
 31
0.0
  0
LINE
  8
0
 62
     0
 10
0.325467
 20
10.7067
 30
0.0
 11
0.121257
 21
9.78261
 31
0.0
  0
LINE
  8
0
 62
     0
 10
0.121257
 20
9.78261
 30
0.0
 11
0.0138889
 21
8.84722
 31
0.0
  0
LINE
  8
0
 62
     0
 10
0.0138889
 20
8.84722
 30
0.0
 11
-0.00113932
 21
8.36957
 31
0.0
  0
LINE
  8
0
 62
     0
 10
-0.00113932
 20
8.36957
 30
0.0
 11
0.00949436
 21
7.89497
 31
0.0
  0
LINE
  8
0
 62
     0
 10
0.00949436
 20
7.89497
 30
0.0
 11
0.0457357
 21
7.42339
 31
0.0
  0
LINE
  8
0
 62
     0
 10
0.0457357
 20
7.42339
 30
0.0
 11
0.107585
 21
6.95486
 31
0.0
  0
LINE
  8
0
 62
     0
 10
0.107585
 20
6.95486
 30
0.0
 11
0.195042
 21
6.48936
 31
0.0
  0
LINE
  8
0
 62
     0
 10
0.195042
 20
6.48936
 30
0.0
 11
0.308106
 21
6.02692
 31
0.0
  0
LINE
  8
0
 62
     0
 10
0.308106
 20
6.02692
 30
0.0
 11
0.446778
 21
5.56749
 31
0.0
  0
LINE
  8
0
 62
     0
 10
0.446778
 20
5.56749
 30
0.0
 11
0.611057
 21
5.11111
 31
0.0
  0
LINE
  8
0
 62
     0
 10
0.611057
 20
5.11111
 30
0.0
 11
0.800944
 21
4.65776
 31
0.0
  0
LINE
  8
0
 62
     0
 10
0.800944
 20
4.65776
 30
0.0
 11
1.01644
 21
4.20747
 31
0.0
  0
LINE
  8
0
 62
     0
 10
1.01644
 20
4.20747
 30
0.0
 11
1.25754
 21
3.76019
 31
0.0
  0
LINE
  8
0
 62
     0
 10
1.25754
 20
3.76019
 30
0.0
 11
1.52425
 21
3.31597
 31
0.0
  0
LINE
  8
0
 62
     0
 10
1.52425
 20
3.31597
 30
0.0
 11
1.81657
 21
2.87478
 31
0.0
  0
LINE
  8
0
 62
     0
 10
1.81657
 20
2.87478
 30
0.0
 11
2.1345
 21
2.43664
 31
0.0
  0
LINE
  8
0
 62
     0
 10
2.1345
 20
2.43664
 30
0.0
 11
2.47803
 21
2.00151
 31
0.0
  0
LINE
  8
0
 62
     0
 10
2.47803
 20
2.00151
 30
0.0
 11
2.84722
 21
1.56944
 31
0.0
  0
LINE
  8
0
 62
     0
 10
2.84722
 20
1.56944
 30
0.0
 11
2.53467
 21
1.69103
 31
0.0
  0
LINE
  8
0
 62
     0
 10
2.53467
 20
1.69103
 30
0.0
 11
2.29167
 21
1.80556
 31
0.0
  0
LINE
  8
0
 62
     0
 10
2.29167
 20
1.80556
 30
0.0
 11
2.1326
 21
1.86811
 31
0.0
  0
LINE
  8
0
 62
     0
 10
2.1326
 20
1.86811
 30
0.0
 11
1.96094
 21
1.90283
 31
0.0
  0
LINE
  8
0
 62
     0
 10
1.96094
 20
1.90283
 30
0.0
 11
1.77669
 21
1.90978
 31
0.0
  0
LINE
  8
0
 62
     0
 10
1.77669
 20
1.90978
 30
0.0
 11
1.57986
 21
1.88894
 31
0.0
  0
LINE
  8
0
 62
     0
 10
1.57986
 20
1.88894
 30
0.0
 11
1.37044
 21
1.84033
 31
0.0
  0
LINE
  8
0
 62
     0
 10
1.37044
 20
1.84033
 30
0.0
 11
1.14844
 21
1.76394
 31
0.0
  0
LINE
  8
0
 62
     0
 10
1.14844
 20
1.76394
 30
0.0
 11
0.913846
 21
1.65978
 31
0.0
  0
LINE
  8
0
 62
     0
 10
0.913846
 20
1.65978
 30
0.0
 11
0.666667
 21
1.52778
 31
0.0
  0
ENDSEC
  0
EOF
