  0
SECTION
  2
HEADER
  9
$ACADVER
  1
AC1009
  9
$EXTMIN
 10
0.0
 20
0.0
 30
0.0
  9
$EXTMAX
 10
1000.0
 20
1000.0
 30
0.0
  9
$FILLMODE
 70
 0
  9
$SPLFRAME
 70
 1
  0
ENDSEC
  0
SECTION
  2
TABLES
  0
TABLE
  2
LAYER
 70
1
  0
LAYER
  2
0
 70
     0
 62
     7
  6
CONTINUOUS
  0
ENDTAB
  0
ENDSEC
  0
SECTION
  2
ENTITIES
  0
LINE
  8
0
 62
     0
 10
5.55556
 20
17.9167
 30
0.0
 11
5.78407
 21
18.0456
 31
0.0
  0
LINE
  8
0
 62
     0
 10
5.78407
 20
18.0456
 30
0.0
 11
5.98351
 21
18.099
 31
0.0
  0
LINE
  8
0
 62
     0
 10
5.98351
 20
18.099
 30
0.0
 11
6.15386
 21
18.0768
 31
0.0
  0
LINE
  8
0
 62
     0
 10
6.15386
 20
18.0768
 30
0.0
 11
6.29514
 21
17.9792
 31
0.0
  0
LINE
  8
0
 62
     0
 10
6.29514
 20
17.9792
 30
0.0
 11
6.40733
 21
17.806
 31
0.0
  0
LINE
  8
0
 62
     0
 10
6.40733
 20
17.806
 30
0.0
 11
6.49046
 21
17.5574
 31
0.0
  0
LINE
  8
0
 62
     0
 10
6.49046
 20
17.5574
 30
0.0
 11
6.54449
 21
17.2331
 31
0.0
  0
LINE
  8
0
 62
     0
 10
6.54449
 20
17.2331
 30
0.0
 11
6.56944
 21
16.8333
 31
0.0
  0
LINE
  8
0
 62
     0
 10
6.56944
 20
16.8333
 30
0.0
 11
6.55903
 21
16.2136
 31
0.0
  0
LINE
  8
0
 62
     0
 10
6.55903
 20
16.2136
 30
0.0
 11
6.51389
 21
15.6319
 31
0.0
  0
LINE
  8
0
 62
     0
 10
6.51389
 20
15.6319
 30
0.0
 11
6.43403
 21
15.0886
 31
0.0
  0
LINE
  8
0
 62
     0
 10
6.43403
 20
15.0886
 30
0.0
 11
6.31944
 21
14.5833
 31
0.0
  0
LINE
  8
0
 62
     0
 10
6.31944
 20
14.5833
 30
0.0
 11
6.28743
 21
14.4674
 31
0.0
  0
LINE
  8
0
 62
     0
 10
6.28743
 20
14.4674
 30
0.0
 11
6.24713
 21
14.3276
 31
0.0
  0
LINE
  8
0
 62
     0
 10
6.24713
 20
14.3276
 30
0.0
 11
6.19846
 21
14.1644
 31
0.0
  0
LINE
  8
0
 62
     0
 10
6.19846
 20
14.1644
 30
0.0
 11
6.14144
 21
13.9775
 31
0.0
  0
LINE
  8
0
 62
     0
 10
6.14144
 20
13.9775
 30
0.0
 11
6.07607
 21
13.7668
 31
0.0
  0
LINE
  8
0
 62
     0
 10
6.07607
 20
13.7668
 30
0.0
 11
6.00233
 21
13.5326
 31
0.0
  0
LINE
  8
0
 62
     0
 10
6.00233
 20
13.5326
 30
0.0
 11
5.92025
 21
13.2746
 31
0.0
  0
LINE
  8
0
 62
     0
 10
5.92025
 20
13.2746
 30
0.0
 11
5.82981
 21
12.9931
 31
0.0
  0
LINE
  8
0
 62
     0
 10
5.82981
 20
12.9931
 30
0.0
 11
5.73101
 21
12.6878
 31
0.0
  0
LINE
  8
0
 62
     0
 10
5.73101
 20
12.6878
 30
0.0
 11
5.62386
 21
12.3589
 31
0.0
  0
LINE
  8
0
 62
     0
 10
5.62386
 20
12.3589
 30
0.0
 11
5.50836
 21
12.0064
 31
0.0
  0
LINE
  8
0
 62
     0
 10
5.50836
 20
12.0064
 30
0.0
 11
5.3845
 21
11.6302
 31
0.0
  0
LINE
  8
0
 62
     0
 10
5.3845
 20
11.6302
 30
0.0
 11
5.25228
 21
11.2304
 31
0.0
  0
LINE
  8
0
 62
     0
 10
5.25228
 20
11.2304
 30
0.0
 11
5.11171
 21
10.8069
 31
0.0
  0
LINE
  8
0
 62
     0
 10
5.11171
 20
10.8069
 30
0.0
 11
4.96278
 21
10.3597
 31
0.0
  0
LINE
  8
0
 62
     0
 10
4.96278
 20
10.3597
 30
0.0
 11
4.80556
 21
9.88889
 31
0.0
  0
LINE
  8
0
 62
     0
 10
4.80556
 20
9.88889
 30
0.0
 11
4.57617
 21
9.19422
 31
0.0
  0
LINE
  8
0
 62
     0
 10
4.57617
 20
9.19422
 30
0.0
 11
4.36719
 21
8.52692
 31
0.0
  0
LINE
  8
0
 62
     0
 10
4.36719
 20
8.52692
 30
0.0
 11
4.1786
 21
7.88693
 31
0.0
  0
LINE
  8
0
 62
     0
 10
4.1786
 20
7.88693
 30
0.0
 11
4.01042
 21
7.27431
 31
0.0
  0
LINE
  8
0
 62
     0
 10
4.01042
 20
7.27431
 30
0.0
 11
3.86263
 21
6.68901
 31
0.0
  0
LINE
  8
0
 62
     0
 10
3.86263
 20
6.68901
 30
0.0
 11
3.73525
 21
6.13108
 31
0.0
  0
LINE
  8
0
 62
     0
 10
3.73525
 20
6.13108
 30
0.0
 11
3.62825
 21
5.60047
 31
0.0
  0
LINE
  8
0
 62
     0
 10
3.62825
 20
5.60047
 30
0.0
 11
3.54167
 21
5.09722
 31
0.0
  0
LINE
  8
0
 62
     0
 10
3.54167
 20
5.09722
 30
0.0
 11
3.53819
 21
4.92361
 31
0.0
  0
LINE
  8
0
 62
     0
 10
3.53819
 20
4.92361
 30
0.0
 11
3.59722
 21
4.77778
 31
0.0
  0
LINE
  8
0
 62
     0
 10
3.59722
 20
4.77778
 30
0.0
 11
3.71869
 21
4.65972
 31
0.0
  0
LINE
  8
0
 62
     0
 10
3.71869
 20
4.65972
 30
0.0
 11
3.90278
 21
4.56944
 31
0.0
  0
LINE
  8
0
 62
     0
 10
3.90278
 20
4.56944
 30
0.0
 11
4.10331
 21
4.52083
 31
0.0
  0
LINE
  8
0
 62
     0
 10
4.10331
 20
4.52083
 30
0.0
 11
4.32986
 21
4.5
 31
0.0
  0
LINE
  8
0
 62
     0
 10
4.32986
 20
4.5
 30
0.0
 11
4.58247
 21
4.50694
 31
0.0
  0
LINE
  8
0
 62
     0
 10
4.58247
 20
4.50694
 30
0.0
 11
4.86111
 21
4.54167
 31
0.0
  0
LINE
  8
0
 62
     0
 10
4.86111
 20
4.54167
 30
0.0
 11
5.1441
 21
4.59375
 31
0.0
  0
LINE
  8
0
 62
     0
 10
5.1441
 20
4.59375
 30
0.0
 11
5.40972
 21
4.66667
 31
0.0
  0
LINE
  8
0
 62
     0
 10
5.40972
 20
4.66667
 30
0.0
 11
5.65799
 21
4.76042
 31
0.0
  0
LINE
  8
0
 62
     0
 10
5.65799
 20
4.76042
 30
0.0
 11
5.88889
 21
4.875
 31
0.0
  0
LINE
  8
0
 62
     0
 10
5.88889
 20
4.875
 30
0.0
 11
6.10499
 21
5.01736
 31
0.0
  0
LINE
  8
0
 62
     0
 10
6.10499
 20
5.01736
 30
0.0
 11
6.26731
 21
5.16667
 31
0.0
  0
LINE
  8
0
 62
     0
 10
6.26731
 20
5.16667
 30
0.0
 11
6.37582
 21
5.32292
 31
0.0
  0
LINE
  8
0
 62
     0
 10
6.37582
 20
5.32292
 30
0.0
 11
6.43056
 21
5.48611
 31
0.0
  0
LINE
  8
0
 62
     0
 10
6.43056
 20
5.48611
 30
0.0
 11
6.57721
 21
6.31424
 31
0.0
  0
LINE
  8
0
 62
     0
 10
6.57721
 20
6.31424
 30
0.0
 11
6.76731
 21
7.20139
 31
0.0
  0
LINE
  8
0
 62
     0
 10
6.76731
 20
7.20139
 30
0.0
 11
7.00082
 21
8.14757
 31
0.0
  0
LINE
  8
0
 62
     0
 10
7.00082
 20
8.14757
 30
0.0
 11
7.27772
 21
9.15278
 31
0.0
  0
LINE
  8
0
 62
     0
 10
7.27772
 20
9.15278
 30
0.0
 11
7.59804
 21
10.217
 31
0.0
  0
LINE
  8
0
 62
     0
 10
7.59804
 20
10.217
 30
0.0
 11
7.96175
 21
11.3403
 31
0.0
  0
LINE
  8
0
 62
     0
 10
7.96175
 20
11.3403
 30
0.0
 11
8.36888
 21
12.5226
 31
0.0
  0
LINE
  8
0
 62
     0
 10
8.36888
 20
12.5226
 30
0.0
 11
8.81944
 21
13.7639
 31
0.0
  0
LINE
  8
0
 62
     0
 10
8.81944
 20
13.7639
 30
0.0
 11
8.98047
 21
14.2132
 31
0.0
  0
LINE
  8
0
 62
     0
 10
8.98047
 20
14.2132
 30
0.0
 11
9.12326
 21
14.6372
 31
0.0
  0
LINE
  8
0
 62
     0
 10
9.12326
 20
14.6372
 30
0.0
 11
9.24783
 21
15.0361
 31
0.0
  0
LINE
  8
0
 62
     0
 10
9.24783
 20
15.0361
 30
0.0
 11
9.35417
 21
15.4097
 31
0.0
  0
LINE
  8
0
 62
     0
 10
9.35417
 20
15.4097
 30
0.0
 11
9.44228
 21
15.7583
 31
0.0
  0
LINE
  8
0
 62
     0
 10
9.44228
 20
15.7583
 30
0.0
 11
9.51215
 21
16.0817
 31
0.0
  0
LINE
  8
0
 62
     0
 10
9.51215
 20
16.0817
 30
0.0
 11
9.56381
 21
16.3799
 31
0.0
  0
LINE
  8
0
 62
     0
 10
9.56381
 20
16.3799
 30
0.0
 11
9.59722
 21
16.6528
 31
0.0
  0
LINE
  8
0
 62
     0
 10
9.59722
 20
16.6528
 30
0.0
 11
9.62082
 21
17.0942
 31
0.0
  0
LINE
  8
0
 62
     0
 10
9.62082
 20
17.0942
 30
0.0
 11
9.60151
 21
17.5018
 31
0.0
  0
LINE
  8
0
 62
     0
 10
9.60151
 20
17.5018
 30
0.0
 11
9.53922
 21
17.8754
 31
0.0
  0
LINE
  8
0
 62
     0
 10
9.53922
 20
17.8754
 30
0.0
 11
9.43397
 21
18.2153
 31
0.0
  0
LINE
  8
0
 62
     0
 10
9.43397
 20
18.2153
 30
0.0
 11
9.28575
 21
18.5213
 31
0.0
  0
LINE
  8
0
 62
     0
 10
9.28575
 20
18.5213
 30
0.0
 11
9.09457
 21
18.7935
 31
0.0
  0
LINE
  8
0
 62
     0
 10
9.09457
 20
18.7935
 30
0.0
 11
8.8604
 21
19.0317
 31
0.0
  0
LINE
  8
0
 62
     0
 10
8.8604
 20
19.0317
 30
0.0
 11
8.58333
 21
19.2361
 31
0.0
  0
LINE
  8
0
 62
     0
 10
8.58333
 20
19.2361
 30
0.0
 11
8.31304
 21
19.3949
 31
0.0
  0
LINE
  8
0
 62
     0
 10
8.31304
 20
19.3949
 30
0.0
 11
8.03706
 21
19.5271
 31
0.0
  0
LINE
  8
0
 62
     0
 10
8.03706
 20
19.5271
 30
0.0
 11
7.75532
 21
19.6331
 31
0.0
  0
LINE
  8
0
 62
     0
 10
7.75532
 20
19.6331
 30
0.0
 11
7.46783
 21
19.7126
 31
0.0
  0
LINE
  8
0
 62
     0
 10
7.46783
 20
19.7126
 30
0.0
 11
7.17458
 21
19.7658
 31
0.0
  0
LINE
  8
0
 62
     0
 10
7.17458
 20
19.7658
 30
0.0
 11
6.8756
 21
19.7928
 31
0.0
  0
LINE
  8
0
 62
     0
 10
6.8756
 20
19.7928
 30
0.0
 11
6.57086
 21
19.7932
 31
0.0
  0
LINE
  8
0
 62
     0
 10
6.57086
 20
19.7932
 30
0.0
 11
6.26036
 21
19.7674
 31
0.0
  0
LINE
  8
0
 62
     0
 10
6.26036
 20
19.7674
 30
0.0
 11
5.94412
 21
19.7151
 31
0.0
  0
LINE
  8
0
 62
     0
 10
5.94412
 20
19.7151
 30
0.0
 11
5.62213
 21
19.6365
 31
0.0
  0
LINE
  8
0
 62
     0
 10
5.62213
 20
19.6365
 30
0.0
 11
5.29438
 21
19.5315
 31
0.0
  0
LINE
  8
0
 62
     0
 10
5.29438
 20
19.5315
 30
0.0
 11
4.96089
 21
19.4001
 31
0.0
  0
LINE
  8
0
 62
     0
 10
4.96089
 20
19.4001
 30
0.0
 11
4.62164
 21
19.2425
 31
0.0
  0
LINE
  8
0
 62
     0
 10
4.62164
 20
19.2425
 30
0.0
 11
4.27664
 21
19.0583
 31
0.0
  0
LINE
  8
0
 62
     0
 10
4.27664
 20
19.0583
 30
0.0
 11
3.92589
 21
18.8479
 31
0.0
  0
LINE
  8
0
 62
     0
 10
3.92589
 20
18.8479
 30
0.0
 11
3.56944
 21
18.6111
 31
0.0
  0
LINE
  8
0
 62
     0
 10
3.56944
 20
18.6111
 30
0.0
 11
2.97325
 21
18.1729
 31
0.0
  0
LINE
  8
0
 62
     0
 10
2.97325
 20
18.1729
 30
0.0
 11
2.42096
 21
17.7126
 31
0.0
  0
LINE
  8
0
 62
     0
 10
2.42096
 20
17.7126
 30
0.0
 11
1.91249
 21
17.2303
 31
0.0
  0
LINE
  8
0
 62
     0
 10
1.91249
 20
17.2303
 30
0.0
 11
1.44786
 21
16.7257
 31
0.0
  0
LINE
  8
0
 62
     0
 10
1.44786
 20
16.7257
 30
0.0
 11
1.02707
 21
16.199
 31
0.0
  0
LINE
  8
0
 62
     0
 10
1.02707
 20
16.199
 30
0.0
 11
0.650119
 21
15.6501
 31
0.0
  0
LINE
  8
0
 62
     0
 10
0.650119
 20
15.6501
 30
0.0
 11
0.317003
 21
15.0792
 31
0.0
  0
LINE
  8
0
 62
     0
 10
0.317003
 20
15.0792
 30
0.0
 11
0.0277778
 21
14.4861
 31
0.0
  0
LINE
  8
0
 62
     0
 10
0.0277778
 20
14.4861
 30
0.0
 11
-0.00347222
 21
14.3456
 31
0.0
  0
LINE
  8
0
 62
     0
 10
-0.00347222
 20
14.3456
 30
0.0
 11
0.0277778
 21
14.2292
 31
0.0
  0
LINE
  8
0
 62
     0
 10
0.0277778
 20
14.2292
 30
0.0
 11
0.121528
 21
14.1372
 31
0.0
  0
LINE
  8
0
 62
     0
 10
0.121528
 20
14.1372
 30
0.0
 11
0.277778
 21
14.0694
 31
0.0
  0
LINE
  8
0
 62
     0
 10
0.277778
 20
14.0694
 30
0.0
 11
0.460069
 21
14.02
 31
0.0
  0
LINE
  8
0
 62
     0
 10
0.460069
 20
14.02
 30
0.0
 11
0.673611
 21
13.9965
 31
0.0
  0
LINE
  8
0
 62
     0
 10
0.673611
 20
13.9965
 30
0.0
 11
0.918403
 21
13.9992
 31
0.0
  0
LINE
  8
0
 62
     0
 10
0.918403
 20
13.9992
 30
0.0
 11
1.19444
 21
14.0278
 31
0.0
  0
LINE
  8
0
 62
     0
 10
1.19444
 20
14.0278
 30
0.0
 11
1.53749
 21
14.0806
 31
0.0
  0
LINE
  8
0
 62
     0
 10
1.53749
 20
14.0806
 30
0.0
 11
1.84457
 21
14.1485
 31
0.0
  0
LINE
  8
0
 62
     0
 10
1.84457
 20
14.1485
 30
0.0
 11
2.11561
 21
14.2317
 31
0.0
  0
LINE
  8
0
 62
     0
 10
2.11561
 20
14.2317
 30
0.0
 11
2.35064
 21
14.3299
 31
0.0
  0
LINE
  8
0
 62
     0
 10
2.35064
 20
14.3299
 30
0.0
 11
2.54964
 21
14.4435
 31
0.0
  0
LINE
  8
0
 62
     0
 10
2.54964
 20
14.4435
 30
0.0
 11
2.71263
 21
14.5721
 31
0.0
  0
LINE
  8
0
 62
     0
 10
2.71263
 20
14.5721
 30
0.0
 11
2.83957
 21
14.716
 31
0.0
  0
LINE
  8
0
 62
     0
 10
2.83957
 20
14.716
 30
0.0
 11
2.93056
 21
14.875
 31
0.0
  0
LINE
  8
0
 62
     0
 10
2.93056
 20
14.875
 30
0.0
 11
3.14165
 21
15.3114
 31
0.0
  0
LINE
  8
0
 62
     0
 10
3.14165
 20
15.3114
 30
0.0
 11
3.38624
 21
15.7318
 31
0.0
  0
LINE
  8
0
 62
     0
 10
3.38624
 20
15.7318
 30
0.0
 11
3.66422
 21
16.1361
 31
0.0
  0
LINE
  8
0
 62
     0
 10
3.66422
 20
16.1361
 30
0.0
 11
3.97564
 21
16.5243
 31
0.0
  0
LINE
  8
0
 62
     0
 10
3.97564
 20
16.5243
 30
0.0
 11
4.32047
 21
16.8965
 31
0.0
  0
LINE
  8
0
 62
     0
 10
4.32047
 20
16.8965
 30
0.0
 11
4.69874
 21
17.2526
 31
0.0
  0
LINE
  8
0
 62
     0
 10
4.69874
 20
17.2526
 30
0.0
 11
5.1104
 21
17.5926
 31
0.0
  0
LINE
  8
0
 62
     0
 10
5.1104
 20
17.5926
 30
0.0
 11
5.55556
 21
17.9167
 31
0.0
  0
LINE
  8
0
 62
     0
 10
5.86111
 20
1.41667
 30
0.0
 11
5.90625
 21
1.67367
 31
0.0
  0
LINE
  8
0
 62
     0
 10
5.90625
 20
1.67367
 30
0.0
 11
5.93056
 21
1.86111
 31
0.0
  0
LINE
  8
0
 62
     0
 10
5.93056
 20
1.86111
 30
0.0
 11
5.91314
 21
2.0504
 31
0.0
  0
LINE
  8
0
 62
     0
 10
5.91314
 20
2.0504
 30
0.0
 11
5.83328
 21
2.20144
 31
0.0
  0
LINE
  8
0
 62
     0
 10
5.83328
 20
2.20144
 30
0.0
 11
5.69092
 21
2.31429
 31
0.0
  0
LINE
  8
0
 62
     0
 10
5.69092
 20
2.31429
 30
0.0
 11
5.48611
 21
2.38889
 31
0.0
  0
LINE
  8
0
 62
     0
 10
5.48611
 20
2.38889
 30
0.0
 11
5.31685
 21
2.42714
 31
0.0
  0
LINE
  8
0
 62
     0
 10
5.31685
 20
2.42714
 30
0.0
 11
5.12847
 21
2.4445
 31
0.0
  0
LINE
  8
0
 62
     0
 10
5.12847
 20
2.4445
 30
0.0
 11
4.92101
 21
2.44103
 31
0.0
  0
LINE
  8
0
 62
     0
 10
4.92101
 20
2.44103
 30
0.0
 11
4.69444
 21
2.41667
 31
0.0
  0
LINE
  8
0
 62
     0
 10
4.69444
 20
2.41667
 30
0.0
 11
4.39671
 21
2.36285
 31
0.0
  0
LINE
  8
0
 62
     0
 10
4.39671
 20
2.36285
 30
0.0
 11
4.11458
 21
2.28472
 31
0.0
  0
LINE
  8
0
 62
     0
 10
4.11458
 20
2.28472
 30
0.0
 11
3.84804
 21
2.18229
 31
0.0
  0
LINE
  8
0
 62
     0
 10
3.84804
 20
2.18229
 30
0.0
 11
3.59722
 21
2.05556
 31
0.0
  0
LINE
  8
0
 62
     0
 10
3.59722
 20
2.05556
 30
0.0
 11
3.35938
 21
1.89936
 31
0.0
  0
LINE
  8
0
 62
     0
 10
3.35938
 20
1.89936
 30
0.0
 11
3.1875
 21
1.75006
 31
0.0
  0
LINE
  8
0
 62
     0
 10
3.1875
 20
1.75006
 30
0.0
 11
3.0816
 21
1.60769
 31
0.0
  0
LINE
  8
0
 62
     0
 10
3.0816
 20
1.60769
 30
0.0
 11
3.04167
 21
1.47222
 31
0.0
  0
LINE
  8
0
 62
     0
 10
3.04167
 20
1.47222
 30
0.0
 11
3.01736
 21
1.28478
 31
0.0
  0
LINE
  8
0
 62
     0
 10
3.01736
 20
1.28478
 30
0.0
 11
2.97222
 21
1.02778
 31
0.0
  0
LINE
  8
0
 62
     0
 10
2.97222
 20
1.02778
 30
0.0
 11
2.9305
 21
0.78125
 31
0.0
  0
LINE
  8
0
 62
     0
 10
2.9305
 20
0.78125
 30
0.0
 11
2.91667
 21
0.597222
 31
0.0
  0
LINE
  8
0
 62
     0
 10
2.91667
 20
0.597222
 30
0.0
 11
2.9299
 21
0.427354
 31
0.0
  0
LINE
  8
0
 62
     0
 10
2.9299
 20
0.427354
 30
0.0
 11
2.98351
 21
0.285644
 31
0.0
  0
LINE
  8
0
 62
     0
 10
2.98351
 20
0.285644
 30
0.0
 11
3.07747
 21
0.172146
 31
0.0
  0
LINE
  8
0
 62
     0
 10
3.07747
 20
0.172146
 30
0.0
 11
3.21181
 21
0.0868599
 31
0.0
  0
LINE
  8
0
 62
     0
 10
3.21181
 20
0.0868599
 30
0.0
 11
3.38644
 21
0.0297851
 31
0.0
  0
LINE
  8
0
 62
     0
 10
3.38644
 20
0.0297851
 30
0.0
 11
3.60151
 21
0.00092231
 31
0.0
  0
LINE
  8
0
 62
     0
 10
3.60151
 20
0.00092231
 30
0.0
 11
3.85693
 21
0.000271268
 31
0.0
  0
LINE
  8
0
 62
     0
 10
3.85693
 20
0.000271268
 30
0.0
 11
4.15278
 21
0.0277778
 31
0.0
  0
LINE
  8
0
 62
     0
 10
4.15278
 20
0.0277778
 30
0.0
 11
4.45053
 21
0.0824653
 31
0.0
  0
LINE
  8
0
 62
     0
 10
4.45053
 20
0.0824653
 30
0.0
 11
4.73264
 21
0.163194
 31
0.0
  0
LINE
  8
0
 62
     0
 10
4.73264
 20
0.163194
 30
0.0
 11
4.99914
 21
0.269965
 31
0.0
  0
LINE
  8
0
 62
     0
 10
4.99914
 20
0.269965
 30
0.0
 11
5.25
 21
0.402778
 31
0.0
  0
LINE
  8
0
 62
     0
 10
5.25
 20
0.402778
 30
0.0
 11
5.48779
 21
0.559028
 31
0.0
  0
LINE
  8
0
 62
     0
 10
5.48779
 20
0.559028
 30
0.0
 11
5.65967
 21
0.708333
 31
0.0
  0
LINE
  8
0
 62
     0
 10
5.65967
 20
0.708333
 30
0.0
 11
5.76557
 21
0.850694
 31
0.0
  0
LINE
  8
0
 62
     0
 10
5.76557
 20
0.850694
 30
0.0
 11
5.80556
 21
0.986111
 31
0.0
  0
LINE
  8
0
 62
     0
 10
5.80556
 20
0.986111
 30
0.0
 11
5.82639
 21
1.17014
 31
0.0
  0
LINE
  8
0
 62
     0
 10
5.82639
 20
1.17014
 30
0.0
 11
5.86111
 21
1.41667
 31
0.0
  0
ENDSEC
  0
EOF
