  0
SECTION
  2
HEADER
  9
$ACADVER
  1
AC1009
  9
$EXTMIN
 10
0.0
 20
0.0
 30
0.0
  9
$EXTMAX
 10
1000.0
 20
1000.0
 30
0.0
  9
$FILLMODE
 70
 0
  9
$SPLFRAME
 70
 1
  0
ENDSEC
  0
SECTION
  2
TABLES
  0
TABLE
  2
LAYER
 70
1
  0
LAYER
  2
0
 70
     0
 62
     7
  6
CONTINUOUS
  0
ENDTAB
  0
ENDSEC
  0
SECTION
  2
ENTITIES
  0
LINE
  8
0
 62
     0
 10
1.52778
 20
17.5
 30
0.0
 11
1.5434
 21
17.3783
 31
0.0
  0
LINE
  8
0
 62
     0
 10
1.5434
 20
17.3783
 30
0.0
 11
1.59028
 21
17.2775
 31
0.0
  0
LINE
  8
0
 62
     0
 10
1.59028
 20
17.2775
 30
0.0
 11
1.6684
 21
17.1978
 31
0.0
  0
LINE
  8
0
 62
     0
 10
1.6684
 20
17.1978
 30
0.0
 11
1.77778
 21
17.1389
 31
0.0
  0
LINE
  8
0
 62
     0
 10
1.77778
 20
17.1389
 30
0.0
 11
1.89583
 21
17.105
 31
0.0
  0
LINE
  8
0
 62
     0
 10
1.89583
 20
17.105
 30
0.0
 11
2.02778
 21
17.0868
 31
0.0
  0
LINE
  8
0
 62
     0
 10
2.02778
 20
17.0868
 30
0.0
 11
2.17361
 21
17.0842
 31
0.0
  0
LINE
  8
0
 62
     0
 10
2.17361
 20
17.0842
 30
0.0
 11
2.33333
 21
17.0972
 31
0.0
  0
LINE
  8
0
 62
     0
 10
2.33333
 20
17.0972
 30
0.0
 11
2.62842
 21
17.1771
 31
0.0
  0
LINE
  8
0
 62
     0
 10
2.62842
 20
17.1771
 30
0.0
 11
2.875
 21
17.3056
 31
0.0
  0
LINE
  8
0
 62
     0
 10
2.875
 20
17.3056
 30
0.0
 11
2.98438
 21
17.3907
 31
0.0
  0
LINE
  8
0
 62
     0
 10
2.98438
 20
17.3907
 30
0.0
 11
3.0625
 21
17.4792
 31
0.0
  0
LINE
  8
0
 62
     0
 10
3.0625
 20
17.4792
 30
0.0
 11
3.10938
 21
17.5713
 31
0.0
  0
LINE
  8
0
 62
     0
 10
3.10938
 20
17.5713
 30
0.0
 11
3.125
 21
17.6667
 31
0.0
  0
LINE
  8
0
 62
     0
 10
3.125
 20
17.6667
 30
0.0
 11
3.125
 21
21.8611
 31
0.0
  0
LINE
  8
0
 62
     0
 10
3.125
 20
21.8611
 30
0.0
 11
3.10938
 21
21.9765
 31
0.0
  0
LINE
  8
0
 62
     0
 10
3.10938
 20
21.9765
 30
0.0
 11
3.0625
 21
22.0729
 31
0.0
  0
LINE
  8
0
 62
     0
 10
3.0625
 20
22.0729
 30
0.0
 11
2.98438
 21
22.1501
 31
0.0
  0
LINE
  8
0
 62
     0
 10
2.98438
 20
22.1501
 30
0.0
 11
2.875
 21
22.2083
 31
0.0
  0
LINE
  8
0
 62
     0
 10
2.875
 20
22.2083
 30
0.0
 11
2.75776
 21
22.2475
 31
0.0
  0
LINE
  8
0
 62
     0
 10
2.75776
 20
22.2475
 30
0.0
 11
2.62842
 21
22.2674
 31
0.0
  0
LINE
  8
0
 62
     0
 10
2.62842
 20
22.2674
 30
0.0
 11
2.48693
 21
22.2683
 31
0.0
  0
LINE
  8
0
 62
     0
 10
2.48693
 20
22.2683
 30
0.0
 11
2.33333
 21
22.25
 31
0.0
  0
LINE
  8
0
 62
     0
 10
2.33333
 20
22.25
 30
0.0
 11
2.02778
 21
22.1701
 31
0.0
  0
LINE
  8
0
 62
     0
 10
2.02778
 20
22.1701
 30
0.0
 11
1.77778
 21
22.0417
 31
0.0
  0
LINE
  8
0
 62
     0
 10
1.77778
 20
22.0417
 30
0.0
 11
1.6684
 21
21.9618
 31
0.0
  0
LINE
  8
0
 62
     0
 10
1.6684
 20
21.9618
 30
0.0
 11
1.59028
 21
21.875
 31
0.0
  0
LINE
  8
0
 62
     0
 10
1.59028
 20
21.875
 30
0.0
 11
1.5434
 21
21.7813
 31
0.0
  0
LINE
  8
0
 62
     0
 10
1.5434
 20
21.7813
 30
0.0
 11
1.52778
 21
21.6806
 31
0.0
  0
LINE
  8
0
 62
     0
 10
1.52778
 20
21.6806
 30
0.0
 11
1.52778
 21
17.5
 31
0.0
  0
ENDSEC
  0
EOF
