  0
SECTION
  2
HEADER
  9
$ACADVER
  1
AC1009
  9
$EXTMIN
 10
0.0
 20
0.0
 30
0.0
  9
$EXTMAX
 10
1000.0
 20
1000.0
 30
0.0
  9
$FILLMODE
 70
 0
  9
$SPLFRAME
 70
 1
  0
ENDSEC
  0
SECTION
  2
TABLES
  0
TABLE
  2
LAYER
 70
1
  0
LAYER
  2
0
 70
     0
 62
     7
  6
CONTINUOUS
  0
ENDTAB
  0
ENDSEC
  0
SECTION
  2
ENTITIES
  0
LINE
  8
0
 62
     0
 10
2.68056
 20
15.6806
 30
0.0
 11
2.69792
 21
15.605
 31
0.0
  0
LINE
  8
0
 62
     0
 10
2.69792
 20
15.605
 30
0.0
 11
2.75
 21
15.5451
 31
0.0
  0
LINE
  8
0
 62
     0
 10
2.75
 20
15.5451
 30
0.0
 11
2.83681
 21
15.5008
 31
0.0
  0
LINE
  8
0
 62
     0
 10
2.83681
 20
15.5008
 30
0.0
 11
2.95833
 21
15.4722
 31
0.0
  0
LINE
  8
0
 62
     0
 10
2.95833
 20
15.4722
 30
0.0
 11
3.08936
 21
15.4592
 31
0.0
  0
LINE
  8
0
 62
     0
 10
3.08936
 20
15.4592
 30
0.0
 11
3.23258
 21
15.4618
 31
0.0
  0
LINE
  8
0
 62
     0
 10
3.23258
 20
15.4618
 30
0.0
 11
3.38797
 21
15.48
 31
0.0
  0
LINE
  8
0
 62
     0
 10
3.38797
 20
15.48
 30
0.0
 11
3.55556
 21
15.5139
 31
0.0
  0
LINE
  8
0
 62
     0
 10
3.55556
 20
15.5139
 30
0.0
 11
3.89583
 21
15.6146
 31
0.0
  0
LINE
  8
0
 62
     0
 10
3.89583
 20
15.6146
 30
0.0
 11
4.16667
 21
15.75
 31
0.0
  0
LINE
  8
0
 62
     0
 10
4.16667
 20
15.75
 30
0.0
 11
4.28814
 21
15.8429
 31
0.0
  0
LINE
  8
0
 62
     0
 10
4.28814
 20
15.8429
 30
0.0
 11
4.37494
 21
15.941
 31
0.0
  0
LINE
  8
0
 62
     0
 10
4.37494
 20
15.941
 30
0.0
 11
4.42703
 21
16.0443
 31
0.0
  0
LINE
  8
0
 62
     0
 10
4.42703
 20
16.0443
 30
0.0
 11
4.44444
 21
16.1528
 31
0.0
  0
LINE
  8
0
 62
     0
 10
4.44444
 20
16.1528
 30
0.0
 11
4.44444
 21
21.8472
 31
0.0
  0
LINE
  8
0
 62
     0
 10
4.44444
 20
21.8472
 30
0.0
 11
4.42703
 21
21.9228
 31
0.0
  0
LINE
  8
0
 62
     0
 10
4.42703
 20
21.9228
 30
0.0
 11
4.37494
 21
21.9826
 31
0.0
  0
LINE
  8
0
 62
     0
 10
4.37494
 20
21.9826
 30
0.0
 11
4.28814
 21
22.0269
 31
0.0
  0
LINE
  8
0
 62
     0
 10
4.28814
 20
22.0269
 30
0.0
 11
4.16667
 21
22.0556
 31
0.0
  0
LINE
  8
0
 62
     0
 10
4.16667
 20
22.0556
 30
0.0
 11
4.03467
 21
22.0686
 31
0.0
  0
LINE
  8
0
 62
     0
 10
4.03467
 20
22.0686
 30
0.0
 11
3.88883
 21
22.066
 31
0.0
  0
LINE
  8
0
 62
     0
 10
3.88883
 20
22.066
 30
0.0
 11
3.72911
 21
22.0478
 31
0.0
  0
LINE
  8
0
 62
     0
 10
3.72911
 20
22.0478
 30
0.0
 11
3.55556
 21
22.0139
 31
0.0
  0
LINE
  8
0
 62
     0
 10
3.55556
 20
22.0139
 30
0.0
 11
3.22564
 21
21.9132
 31
0.0
  0
LINE
  8
0
 62
     0
 10
3.22564
 20
21.9132
 30
0.0
 11
2.95833
 21
21.7778
 31
0.0
  0
LINE
  8
0
 62
     0
 10
2.95833
 20
21.7778
 30
0.0
 11
2.83681
 21
21.6847
 31
0.0
  0
LINE
  8
0
 62
     0
 10
2.83681
 20
21.6847
 30
0.0
 11
2.75
 21
21.5865
 31
0.0
  0
LINE
  8
0
 62
     0
 10
2.75
 20
21.5865
 30
0.0
 11
2.69792
 21
21.4833
 31
0.0
  0
LINE
  8
0
 62
     0
 10
2.69792
 20
21.4833
 30
0.0
 11
2.68056
 21
21.375
 31
0.0
  0
LINE
  8
0
 62
     0
 10
2.68056
 20
21.375
 30
0.0
 11
2.68056
 21
15.6806
 31
0.0
  0
LINE
  8
0
 62
     0
 10
5.19444
 20
16.25
 30
0.0
 11
5.19879
 21
16.1415
 31
0.0
  0
LINE
  8
0
 62
     0
 10
5.19879
 20
16.1415
 30
0.0
 11
5.23958
 21
16.0521
 31
0.0
  0
LINE
  8
0
 62
     0
 10
5.23958
 20
16.0521
 30
0.0
 11
5.31679
 21
15.9818
 31
0.0
  0
LINE
  8
0
 62
     0
 10
5.31679
 20
15.9818
 30
0.0
 11
5.43056
 21
15.9306
 31
0.0
  0
LINE
  8
0
 62
     0
 10
5.43056
 20
15.9306
 30
0.0
 11
5.55643
 21
15.9037
 31
0.0
  0
LINE
  8
0
 62
     0
 10
5.55643
 20
15.9037
 30
0.0
 11
5.69792
 21
15.8924
 31
0.0
  0
LINE
  8
0
 62
     0
 10
5.69792
 20
15.8924
 30
0.0
 11
5.85504
 21
15.8967
 31
0.0
  0
LINE
  8
0
 62
     0
 10
5.85504
 20
15.8967
 30
0.0
 11
6.02778
 21
15.9167
 31
0.0
  0
LINE
  8
0
 62
     0
 10
6.02778
 20
15.9167
 30
0.0
 11
6.35417
 21
16.0035
 31
0.0
  0
LINE
  8
0
 62
     0
 10
6.35417
 20
16.0035
 30
0.0
 11
6.63889
 21
16.125
 31
0.0
  0
LINE
  8
0
 62
     0
 10
6.63889
 20
16.125
 30
0.0
 11
6.76731
 21
16.2101
 31
0.0
  0
LINE
  8
0
 62
     0
 10
6.76731
 20
16.2101
 30
0.0
 11
6.86106
 21
16.2986
 31
0.0
  0
LINE
  8
0
 62
     0
 10
6.86106
 20
16.2986
 30
0.0
 11
6.92008
 21
16.3907
 31
0.0
  0
LINE
  8
0
 62
     0
 10
6.92008
 20
16.3907
 30
0.0
 11
6.94444
 21
16.4861
 31
0.0
  0
LINE
  8
0
 62
     0
 10
6.94444
 20
16.4861
 30
0.0
 11
6.99972
 21
17.0111
 31
0.0
  0
LINE
  8
0
 62
     0
 10
6.99972
 20
17.0111
 30
0.0
 11
7.04769
 21
17.586
 31
0.0
  0
LINE
  8
0
 62
     0
 10
7.04769
 20
17.586
 30
0.0
 11
7.08826
 21
18.2107
 31
0.0
  0
LINE
  8
0
 62
     0
 10
7.08826
 20
18.2107
 30
0.0
 11
7.12147
 21
18.8854
 31
0.0
  0
LINE
  8
0
 62
     0
 10
7.12147
 20
18.8854
 30
0.0
 11
7.14729
 21
19.61
 31
0.0
  0
LINE
  8
0
 62
     0
 10
7.14729
 20
19.61
 30
0.0
 11
7.16575
 21
20.3846
 31
0.0
  0
LINE
  8
0
 62
     0
 10
7.16575
 20
20.3846
 30
0.0
 11
7.17681
 21
21.209
 31
0.0
  0
LINE
  8
0
 62
     0
 10
7.17681
 20
21.209
 30
0.0
 11
7.18056
 21
22.0833
 31
0.0
  0
LINE
  8
0
 62
     0
 10
7.18056
 20
22.0833
 30
0.0
 11
7.16314
 21
22.1597
 31
0.0
  0
LINE
  8
0
 62
     0
 10
7.16314
 20
22.1597
 30
0.0
 11
7.11106
 21
22.2222
 31
0.0
  0
LINE
  8
0
 62
     0
 10
7.11106
 20
22.2222
 30
0.0
 11
7.02425
 21
22.2708
 31
0.0
  0
LINE
  8
0
 62
     0
 10
7.02425
 20
22.2708
 30
0.0
 11
6.90278
 21
22.3056
 31
0.0
  0
LINE
  8
0
 62
     0
 10
6.90278
 20
22.3056
 30
0.0
 11
6.77171
 21
22.3186
 31
0.0
  0
LINE
  8
0
 62
     0
 10
6.77171
 20
22.3186
 30
0.0
 11
6.62847
 21
22.316
 31
0.0
  0
LINE
  8
0
 62
     0
 10
6.62847
 20
22.316
 30
0.0
 11
6.4731
 21
22.2978
 31
0.0
  0
LINE
  8
0
 62
     0
 10
6.4731
 20
22.2978
 30
0.0
 11
6.30556
 21
22.2639
 31
0.0
  0
LINE
  8
0
 62
     0
 10
6.30556
 20
22.2639
 30
0.0
 11
6.12668
 21
22.2171
 31
0.0
  0
LINE
  8
0
 62
     0
 10
6.12668
 20
22.2171
 30
0.0
 11
5.96522
 21
22.1597
 31
0.0
  0
LINE
  8
0
 62
     0
 10
5.96522
 20
22.1597
 30
0.0
 11
5.82113
 21
22.0921
 31
0.0
  0
LINE
  8
0
 62
     0
 10
5.82113
 20
22.0921
 30
0.0
 11
5.69444
 21
22.0139
 31
0.0
  0
LINE
  8
0
 62
     0
 10
5.69444
 20
22.0139
 30
0.0
 11
5.57292
 21
21.9208
 31
0.0
  0
LINE
  8
0
 62
     0
 10
5.57292
 20
21.9208
 30
0.0
 11
5.48611
 21
21.8226
 31
0.0
  0
LINE
  8
0
 62
     0
 10
5.48611
 20
21.8226
 30
0.0
 11
5.43403
 21
21.7194
 31
0.0
  0
LINE
  8
0
 62
     0
 10
5.43403
 20
21.7194
 30
0.0
 11
5.41667
 21
21.6111
 31
0.0
  0
LINE
  8
0
 62
     0
 10
5.41667
 20
21.6111
 30
0.0
 11
5.41319
 21
20.7769
 31
0.0
  0
LINE
  8
0
 62
     0
 10
5.41319
 20
20.7769
 30
0.0
 11
5.40278
 21
19.9896
 31
0.0
  0
LINE
  8
0
 62
     0
 10
5.40278
 20
19.9896
 30
0.0
 11
5.38542
 21
19.2492
 31
0.0
  0
LINE
  8
0
 62
     0
 10
5.38542
 20
19.2492
 30
0.0
 11
5.36111
 21
18.5556
 31
0.0
  0
LINE
  8
0
 62
     0
 10
5.36111
 20
18.5556
 30
0.0
 11
5.32986
 21
17.9089
 31
0.0
  0
LINE
  8
0
 62
     0
 10
5.32986
 20
17.9089
 30
0.0
 11
5.29167
 21
17.309
 31
0.0
  0
LINE
  8
0
 62
     0
 10
5.29167
 20
17.309
 30
0.0
 11
5.24653
 21
16.7561
 31
0.0
  0
LINE
  8
0
 62
     0
 10
5.24653
 20
16.7561
 30
0.0
 11
5.19444
 21
16.25
 31
0.0
  0
ENDSEC
  0
EOF
