  0
SECTION
  2
HEADER
  9
$ACADVER
  1
AC1009
  9
$EXTMIN
 10
0.0
 20
0.0
 30
0.0
  9
$EXTMAX
 10
1000.0
 20
1000.0
 30
0.0
  9
$FILLMODE
 70
 0
  9
$SPLFRAME
 70
 1
  0
ENDSEC
  0
SECTION
  2
TABLES
  0
TABLE
  2
LAYER
 70
1
  0
LAYER
  2
0
 70
     0
 62
     7
  6
CONTINUOUS
  0
ENDTAB
  0
ENDSEC
  0
SECTION
  2
ENTITIES
  0
LINE
  8
0
 62
     0
 10
2.56944
 20
17.2778
 30
0.0
 11
2.58507
 21
17.1624
 31
0.0
  0
LINE
  8
0
 62
     0
 10
2.58507
 20
17.1624
 30
0.0
 11
2.63194
 21
17.066
 31
0.0
  0
LINE
  8
0
 62
     0
 10
2.63194
 20
17.066
 30
0.0
 11
2.71007
 21
16.9887
 31
0.0
  0
LINE
  8
0
 62
     0
 10
2.71007
 20
16.9887
 30
0.0
 11
2.81944
 21
16.9306
 31
0.0
  0
LINE
  8
0
 62
     0
 10
2.81944
 20
16.9306
 30
0.0
 11
2.93838
 21
16.8915
 31
0.0
  0
LINE
  8
0
 62
     0
 10
2.93838
 20
16.8915
 30
0.0
 11
3.07292
 21
16.8715
 31
0.0
  0
LINE
  8
0
 62
     0
 10
3.07292
 20
16.8715
 30
0.0
 11
3.2231
 21
16.8707
 31
0.0
  0
LINE
  8
0
 62
     0
 10
3.2231
 20
16.8707
 30
0.0
 11
3.38889
 21
16.8889
 31
0.0
  0
LINE
  8
0
 62
     0
 10
3.38889
 20
16.8889
 30
0.0
 11
3.6875
 21
16.9688
 31
0.0
  0
LINE
  8
0
 62
     0
 10
3.6875
 20
16.9688
 30
0.0
 11
3.94444
 21
17.0972
 31
0.0
  0
LINE
  8
0
 62
     0
 10
3.94444
 20
17.0972
 30
0.0
 11
4.05382
 21
17.1832
 31
0.0
  0
LINE
  8
0
 62
     0
 10
4.05382
 20
17.1832
 30
0.0
 11
4.13194
 21
17.2743
 31
0.0
  0
LINE
  8
0
 62
     0
 10
4.13194
 20
17.2743
 30
0.0
 11
4.17882
 21
17.3707
 31
0.0
  0
LINE
  8
0
 62
     0
 10
4.17882
 20
17.3707
 30
0.0
 11
4.19444
 21
17.4722
 31
0.0
  0
LINE
  8
0
 62
     0
 10
4.19444
 20
17.4722
 30
0.0
 11
4.19444
 21
21.7222
 31
0.0
  0
LINE
  8
0
 62
     0
 10
4.19444
 20
21.7222
 30
0.0
 11
4.17882
 21
21.8438
 31
0.0
  0
LINE
  8
0
 62
     0
 10
4.17882
 20
21.8438
 30
0.0
 11
4.13194
 21
21.9444
 31
0.0
  0
LINE
  8
0
 62
     0
 10
4.13194
 20
21.9444
 30
0.0
 11
4.05382
 21
22.0243
 31
0.0
  0
LINE
  8
0
 62
     0
 10
4.05382
 20
22.0243
 30
0.0
 11
3.94444
 21
22.0833
 31
0.0
  0
LINE
  8
0
 62
     0
 10
3.94444
 20
22.0833
 30
0.0
 11
3.82633
 21
22.1225
 31
0.0
  0
LINE
  8
0
 62
     0
 10
3.82633
 20
22.1225
 30
0.0
 11
3.69439
 21
22.1424
 31
0.0
  0
LINE
  8
0
 62
     0
 10
3.69439
 20
22.1424
 30
0.0
 11
3.54856
 21
22.1433
 31
0.0
  0
LINE
  8
0
 62
     0
 10
3.54856
 20
22.1433
 30
0.0
 11
3.38889
 21
22.125
 31
0.0
  0
LINE
  8
0
 62
     0
 10
3.38889
 20
22.125
 30
0.0
 11
3.07981
 21
22.0451
 31
0.0
  0
LINE
  8
0
 62
     0
 10
3.07981
 20
22.0451
 30
0.0
 11
2.81944
 21
21.9167
 31
0.0
  0
LINE
  8
0
 62
     0
 10
2.81944
 20
21.9167
 30
0.0
 11
2.71007
 21
21.8307
 31
0.0
  0
LINE
  8
0
 62
     0
 10
2.71007
 20
21.8307
 30
0.0
 11
2.63194
 21
21.7396
 31
0.0
  0
LINE
  8
0
 62
     0
 10
2.63194
 20
21.7396
 30
0.0
 11
2.58507
 21
21.6432
 31
0.0
  0
LINE
  8
0
 62
     0
 10
2.58507
 20
21.6432
 30
0.0
 11
2.56944
 21
21.5417
 31
0.0
  0
LINE
  8
0
 62
     0
 10
2.56944
 20
21.5417
 30
0.0
 11
2.56944
 21
17.2778
 31
0.0
  0
ENDSEC
  0
EOF
