  0
SECTION
  2
HEADER
  9
$ACADVER
  1
AC1009
  9
$EXTMIN
 10
0.0
 20
0.0
 30
0.0
  9
$EXTMAX
 10
1000.0
 20
1000.0
 30
0.0
  9
$FILLMODE
 70
 0
  9
$SPLFRAME
 70
 1
  0
ENDSEC
  0
SECTION
  2
TABLES
  0
TABLE
  2
LAYER
 70
1
  0
LAYER
  2
0
 70
     0
 62
     7
  6
CONTINUOUS
  0
ENDTAB
  0
ENDSEC
  0
SECTION
  2
ENTITIES
  0
LINE
  8
0
 62
     0
 10
1.94444
 20
15.1667
 30
0.0
 11
1.96442
 21
15.0842
 31
0.0
  0
LINE
  8
0
 62
     0
 10
1.96442
 20
15.0842
 30
0.0
 11
2.02431
 21
15.0174
 31
0.0
  0
LINE
  8
0
 62
     0
 10
2.02431
 20
15.0174
 30
0.0
 11
2.12414
 21
14.9661
 31
0.0
  0
LINE
  8
0
 62
     0
 10
2.12414
 20
14.9661
 30
0.0
 11
2.26389
 21
14.9306
 31
0.0
  0
LINE
  8
0
 62
     0
 10
2.26389
 20
14.9306
 30
0.0
 11
2.42361
 21
14.9185
 31
0.0
  0
LINE
  8
0
 62
     0
 10
2.42361
 20
14.9185
 30
0.0
 11
2.59722
 21
14.9236
 31
0.0
  0
LINE
  8
0
 62
     0
 10
2.59722
 20
14.9236
 30
0.0
 11
2.78472
 21
14.9463
 31
0.0
  0
LINE
  8
0
 62
     0
 10
2.78472
 20
14.9463
 30
0.0
 11
2.98611
 21
14.9861
 31
0.0
  0
LINE
  8
0
 62
     0
 10
2.98611
 20
14.9861
 30
0.0
 11
3.18664
 21
15.0347
 31
0.0
  0
LINE
  8
0
 62
     0
 10
3.18664
 20
15.0347
 30
0.0
 11
3.37153
 21
15.0972
 31
0.0
  0
LINE
  8
0
 62
     0
 10
3.37153
 20
15.0972
 30
0.0
 11
3.54081
 21
15.1736
 31
0.0
  0
LINE
  8
0
 62
     0
 10
3.54081
 20
15.1736
 30
0.0
 11
3.69444
 21
15.2639
 31
0.0
  0
LINE
  8
0
 62
     0
 10
3.69444
 20
15.2639
 30
0.0
 11
3.83415
 21
15.3707
 31
0.0
  0
LINE
  8
0
 62
     0
 10
3.83415
 20
15.3707
 30
0.0
 11
3.93397
 21
15.4826
 31
0.0
  0
LINE
  8
0
 62
     0
 10
3.93397
 20
15.4826
 30
0.0
 11
3.99387
 21
15.5999
 31
0.0
  0
LINE
  8
0
 62
     0
 10
3.99387
 20
15.5999
 30
0.0
 11
4.01389
 21
15.7222
 31
0.0
  0
LINE
  8
0
 62
     0
 10
4.01389
 20
15.7222
 30
0.0
 11
4.01389
 21
22.4306
 31
0.0
  0
LINE
  8
0
 62
     0
 10
4.01389
 20
22.4306
 30
0.0
 11
3.99387
 21
22.5192
 31
0.0
  0
LINE
  8
0
 62
     0
 10
3.99387
 20
22.5192
 30
0.0
 11
3.93397
 21
22.5903
 31
0.0
  0
LINE
  8
0
 62
     0
 10
3.93397
 20
22.5903
 30
0.0
 11
3.83415
 21
22.6442
 31
0.0
  0
LINE
  8
0
 62
     0
 10
3.83415
 20
22.6442
 30
0.0
 11
3.69444
 21
22.6806
 31
0.0
  0
LINE
  8
0
 62
     0
 10
3.69444
 20
22.6806
 30
0.0
 11
3.53554
 21
22.6928
 31
0.0
  0
LINE
  8
0
 62
     0
 10
3.53554
 20
22.6928
 30
0.0
 11
3.36453
 21
22.6875
 31
0.0
  0
LINE
  8
0
 62
     0
 10
3.36453
 20
22.6875
 30
0.0
 11
3.18138
 21
22.665
 31
0.0
  0
LINE
  8
0
 62
     0
 10
3.18138
 20
22.665
 30
0.0
 11
2.98611
 21
22.625
 31
0.0
  0
LINE
  8
0
 62
     0
 10
2.98611
 20
22.625
 30
0.0
 11
2.59022
 21
22.5067
 31
0.0
  0
LINE
  8
0
 62
     0
 10
2.59022
 20
22.5067
 30
0.0
 11
2.26389
 21
22.3472
 31
0.0
  0
LINE
  8
0
 62
     0
 10
2.26389
 20
22.3472
 30
0.0
 11
2.12414
 21
22.2396
 31
0.0
  0
LINE
  8
0
 62
     0
 10
2.12414
 20
22.2396
 30
0.0
 11
2.02431
 21
22.125
 31
0.0
  0
LINE
  8
0
 62
     0
 10
2.02431
 20
22.125
 30
0.0
 11
1.96442
 21
22.0035
 31
0.0
  0
LINE
  8
0
 62
     0
 10
1.96442
 20
22.0035
 30
0.0
 11
1.94444
 21
21.875
 31
0.0
  0
LINE
  8
0
 62
     0
 10
1.94444
 20
21.875
 30
0.0
 11
1.94444
 21
15.1667
 31
0.0
  0
LINE
  8
0
 62
     0
 10
4.90278
 20
15.8472
 30
0.0
 11
4.90972
 21
15.7256
 31
0.0
  0
LINE
  8
0
 62
     0
 10
4.90972
 20
15.7256
 30
0.0
 11
4.95833
 21
15.6249
 31
0.0
  0
LINE
  8
0
 62
     0
 10
4.95833
 20
15.6249
 30
0.0
 11
5.04856
 21
15.545
 31
0.0
  0
LINE
  8
0
 62
     0
 10
5.04856
 20
15.545
 30
0.0
 11
5.18056
 21
15.4861
 31
0.0
  0
LINE
  8
0
 62
     0
 10
5.18056
 20
15.4861
 30
0.0
 11
5.32292
 21
15.4476
 31
0.0
  0
LINE
  8
0
 62
     0
 10
5.32292
 20
15.4476
 30
0.0
 11
5.48611
 21
15.4303
 31
0.0
  0
LINE
  8
0
 62
     0
 10
5.48611
 20
15.4303
 30
0.0
 11
5.67008
 21
15.4337
 31
0.0
  0
LINE
  8
0
 62
     0
 10
5.67008
 20
15.4337
 30
0.0
 11
5.875
 21
15.4583
 31
0.0
  0
LINE
  8
0
 62
     0
 10
5.875
 20
15.4583
 30
0.0
 11
6.07633
 21
15.5
 31
0.0
  0
LINE
  8
0
 62
     0
 10
6.07633
 20
15.5
 30
0.0
 11
6.26383
 21
15.5556
 31
0.0
  0
LINE
  8
0
 62
     0
 10
6.26383
 20
15.5556
 30
0.0
 11
6.43744
 21
15.625
 31
0.0
  0
LINE
  8
0
 62
     0
 10
6.43744
 20
15.625
 30
0.0
 11
6.59722
 21
15.7083
 31
0.0
  0
LINE
  8
0
 62
     0
 10
6.59722
 20
15.7083
 30
0.0
 11
6.75087
 21
15.8074
 31
0.0
  0
LINE
  8
0
 62
     0
 10
6.75087
 20
15.8074
 30
0.0
 11
6.86458
 21
15.9097
 31
0.0
  0
LINE
  8
0
 62
     0
 10
6.86458
 20
15.9097
 30
0.0
 11
6.93837
 21
16.0157
 31
0.0
  0
LINE
  8
0
 62
     0
 10
6.93837
 20
16.0157
 30
0.0
 11
6.97222
 21
16.125
 31
0.0
  0
LINE
  8
0
 62
     0
 10
6.97222
 20
16.125
 30
0.0
 11
7.03407
 21
16.7414
 31
0.0
  0
LINE
  8
0
 62
     0
 10
7.03407
 20
16.7414
 30
0.0
 11
7.08768
 21
17.4167
 31
0.0
  0
LINE
  8
0
 62
     0
 10
7.08768
 20
17.4167
 30
0.0
 11
7.13303
 21
18.1511
 31
0.0
  0
LINE
  8
0
 62
     0
 10
7.13303
 20
18.1511
 30
0.0
 11
7.17014
 21
18.9444
 31
0.0
  0
LINE
  8
0
 62
     0
 10
7.17014
 20
18.9444
 30
0.0
 11
7.199
 21
19.7969
 31
0.0
  0
LINE
  8
0
 62
     0
 10
7.199
 20
19.7969
 30
0.0
 11
7.21962
 21
20.7083
 31
0.0
  0
LINE
  8
0
 62
     0
 10
7.21962
 20
20.7083
 30
0.0
 11
7.23199
 21
21.6789
 31
0.0
  0
LINE
  8
0
 62
     0
 10
7.23199
 20
21.6789
 30
0.0
 11
7.23611
 21
22.7083
 31
0.0
  0
LINE
  8
0
 62
     0
 10
7.23611
 20
22.7083
 30
0.0
 11
7.2161
 21
22.7969
 31
0.0
  0
LINE
  8
0
 62
     0
 10
7.2161
 20
22.7969
 30
0.0
 11
7.15619
 21
22.8681
 31
0.0
  0
LINE
  8
0
 62
     0
 10
7.15619
 20
22.8681
 30
0.0
 11
7.05637
 21
22.9219
 31
0.0
  0
LINE
  8
0
 62
     0
 10
7.05637
 20
22.9219
 30
0.0
 11
6.91667
 21
22.9583
 31
0.0
  0
LINE
  8
0
 62
     0
 10
6.91667
 20
22.9583
 30
0.0
 11
6.75689
 21
22.9767
 31
0.0
  0
LINE
  8
0
 62
     0
 10
6.75689
 20
22.9767
 30
0.0
 11
6.58328
 21
22.9757
 31
0.0
  0
LINE
  8
0
 62
     0
 10
6.58328
 20
22.9757
 30
0.0
 11
6.39578
 21
22.9558
 31
0.0
  0
LINE
  8
0
 62
     0
 10
6.39578
 20
22.9558
 30
0.0
 11
6.19444
 21
22.9167
 31
0.0
  0
LINE
  8
0
 62
     0
 10
6.19444
 20
22.9167
 30
0.0
 11
5.80903
 21
22.7981
 31
0.0
  0
LINE
  8
0
 62
     0
 10
5.80903
 20
22.7981
 30
0.0
 11
5.48611
 21
22.6389
 31
0.0
  0
LINE
  8
0
 62
     0
 10
5.48611
 20
22.6389
 30
0.0
 11
5.34636
 21
22.525
 31
0.0
  0
LINE
  8
0
 62
     0
 10
5.34636
 20
22.525
 30
0.0
 11
5.24653
 21
22.406
 31
0.0
  0
LINE
  8
0
 62
     0
 10
5.24653
 20
22.406
 30
0.0
 11
5.18664
 21
22.2819
 31
0.0
  0
LINE
  8
0
 62
     0
 10
5.18664
 20
22.2819
 30
0.0
 11
5.16667
 21
22.1528
 31
0.0
  0
LINE
  8
0
 62
     0
 10
5.16667
 20
22.1528
 30
0.0
 11
5.16254
 21
21.1732
 31
0.0
  0
LINE
  8
0
 62
     0
 10
5.16254
 20
21.1732
 30
0.0
 11
5.15018
 21
20.2483
 31
0.0
  0
LINE
  8
0
 62
     0
 10
5.15018
 20
20.2483
 30
0.0
 11
5.12956
 21
19.3781
 31
0.0
  0
LINE
  8
0
 62
     0
 10
5.12956
 20
19.3781
 30
0.0
 11
5.10069
 21
18.5625
 31
0.0
  0
LINE
  8
0
 62
     0
 10
5.10069
 20
18.5625
 30
0.0
 11
5.06358
 21
17.8017
 31
0.0
  0
LINE
  8
0
 62
     0
 10
5.06358
 20
17.8017
 30
0.0
 11
5.01824
 21
17.0956
 31
0.0
  0
LINE
  8
0
 62
     0
 10
5.01824
 20
17.0956
 30
0.0
 11
4.96463
 21
16.444
 31
0.0
  0
LINE
  8
0
 62
     0
 10
4.96463
 20
16.444
 30
0.0
 11
4.90278
 21
15.8472
 31
0.0
  0
ENDSEC
  0
EOF
