  0
SECTION
  2
HEADER
  9
$ACADVER
  1
AC1009
  9
$EXTMIN
 10
0.0
 20
0.0
 30
0.0
  9
$EXTMAX
 10
1000.0
 20
1000.0
 30
0.0
  9
$FILLMODE
 70
 0
  9
$SPLFRAME
 70
 1
  0
ENDSEC
  0
SECTION
  2
TABLES
  0
TABLE
  2
LAYER
 70
1
  0
LAYER
  2
0
 70
     0
 62
     7
  6
CONTINUOUS
  0
ENDTAB
  0
ENDSEC
  0
SECTION
  2
ENTITIES
  0
LINE
  8
0
 62
     0
 10
2.68056
 20
-4.68056
 30
0.0
 11
2.69792
 21
-4.75608
 31
0.0
  0
LINE
  8
0
 62
     0
 10
2.69792
 20
-4.75608
 30
0.0
 11
2.75
 21
-4.81597
 31
0.0
  0
LINE
  8
0
 62
     0
 10
2.75
 20
-4.81597
 30
0.0
 11
2.83681
 21
-4.86025
 31
0.0
  0
LINE
  8
0
 62
     0
 10
2.83681
 20
-4.86025
 30
0.0
 11
2.95833
 21
-4.88889
 31
0.0
  0
LINE
  8
0
 62
     0
 10
2.95833
 20
-4.88889
 30
0.0
 11
3.08936
 21
-4.90192
 31
0.0
  0
LINE
  8
0
 62
     0
 10
3.08936
 20
-4.90192
 30
0.0
 11
3.23258
 21
-4.89931
 31
0.0
  0
LINE
  8
0
 62
     0
 10
3.23258
 20
-4.89931
 30
0.0
 11
3.38797
 21
-4.88108
 31
0.0
  0
LINE
  8
0
 62
     0
 10
3.38797
 20
-4.88108
 30
0.0
 11
3.55556
 21
-4.84722
 31
0.0
  0
LINE
  8
0
 62
     0
 10
3.55556
 20
-4.84722
 30
0.0
 11
3.89583
 21
-4.74647
 31
0.0
  0
LINE
  8
0
 62
     0
 10
3.89583
 20
-4.74647
 30
0.0
 11
4.16667
 21
-4.61111
 31
0.0
  0
LINE
  8
0
 62
     0
 10
4.16667
 20
-4.61111
 30
0.0
 11
4.28814
 21
-4.51818
 31
0.0
  0
LINE
  8
0
 62
     0
 10
4.28814
 20
-4.51818
 30
0.0
 11
4.37494
 21
-4.42014
 31
0.0
  0
LINE
  8
0
 62
     0
 10
4.37494
 20
-4.42014
 30
0.0
 11
4.42703
 21
-4.31685
 31
0.0
  0
LINE
  8
0
 62
     0
 10
4.42703
 20
-4.31685
 30
0.0
 11
4.44444
 21
-4.20833
 31
0.0
  0
LINE
  8
0
 62
     0
 10
4.44444
 20
-4.20833
 30
0.0
 11
4.44444
 21
1.48611
 31
0.0
  0
LINE
  8
0
 62
     0
 10
4.44444
 20
1.48611
 30
0.0
 11
4.42703
 21
1.56164
 31
0.0
  0
LINE
  8
0
 62
     0
 10
4.42703
 20
1.56164
 30
0.0
 11
4.37494
 21
1.62153
 31
0.0
  0
LINE
  8
0
 62
     0
 10
4.37494
 20
1.62153
 30
0.0
 11
4.28814
 21
1.66581
 31
0.0
  0
LINE
  8
0
 62
     0
 10
4.28814
 20
1.66581
 30
0.0
 11
4.16667
 21
1.69444
 31
0.0
  0
LINE
  8
0
 62
     0
 10
4.16667
 20
1.69444
 30
0.0
 11
4.03467
 21
1.70747
 31
0.0
  0
LINE
  8
0
 62
     0
 10
4.03467
 20
1.70747
 30
0.0
 11
3.88883
 21
1.70486
 31
0.0
  0
LINE
  8
0
 62
     0
 10
3.88883
 20
1.70486
 30
0.0
 11
3.72911
 21
1.68664
 31
0.0
  0
LINE
  8
0
 62
     0
 10
3.72911
 20
1.68664
 30
0.0
 11
3.55556
 21
1.65278
 31
0.0
  0
LINE
  8
0
 62
     0
 10
3.55556
 20
1.65278
 30
0.0
 11
3.22564
 21
1.55208
 31
0.0
  0
LINE
  8
0
 62
     0
 10
3.22564
 20
1.55208
 30
0.0
 11
2.95833
 21
1.41667
 31
0.0
  0
LINE
  8
0
 62
     0
 10
2.95833
 20
1.41667
 30
0.0
 11
2.83681
 21
1.32378
 31
0.0
  0
LINE
  8
0
 62
     0
 10
2.83681
 20
1.32378
 30
0.0
 11
2.75
 21
1.22569
 31
0.0
  0
LINE
  8
0
 62
     0
 10
2.75
 20
1.22569
 30
0.0
 11
2.69792
 21
1.12245
 31
0.0
  0
LINE
  8
0
 62
     0
 10
2.69792
 20
1.12245
 30
0.0
 11
2.68056
 21
1.01389
 31
0.0
  0
LINE
  8
0
 62
     0
 10
2.68056
 20
1.01389
 30
0.0
 11
2.68056
 21
-4.68056
 31
0.0
  0
LINE
  8
0
 62
     0
 10
5.19444
 20
-4.11111
 30
0.0
 11
5.19879
 21
-4.21957
 31
0.0
  0
LINE
  8
0
 62
     0
 10
5.19879
 20
-4.21957
 30
0.0
 11
5.23958
 21
-4.30897
 31
0.0
  0
LINE
  8
0
 62
     0
 10
5.23958
 20
-4.30897
 30
0.0
 11
5.31679
 21
-4.37929
 31
0.0
  0
LINE
  8
0
 62
     0
 10
5.31679
 20
-4.37929
 30
0.0
 11
5.43056
 21
-4.43056
 31
0.0
  0
LINE
  8
0
 62
     0
 10
5.43056
 20
-4.43056
 30
0.0
 11
5.55643
 21
-4.45742
 31
0.0
  0
LINE
  8
0
 62
     0
 10
5.55643
 20
-4.45742
 30
0.0
 11
5.69792
 21
-4.46875
 31
0.0
  0
LINE
  8
0
 62
     0
 10
5.69792
 20
-4.46875
 30
0.0
 11
5.85504
 21
-4.46442
 31
0.0
  0
LINE
  8
0
 62
     0
 10
5.85504
 20
-4.46442
 30
0.0
 11
6.02778
 21
-4.44444
 31
0.0
  0
LINE
  8
0
 62
     0
 10
6.02778
 20
-4.44444
 30
0.0
 11
6.35417
 21
-4.35764
 31
0.0
  0
LINE
  8
0
 62
     0
 10
6.35417
 20
-4.35764
 30
0.0
 11
6.63889
 21
-4.23611
 31
0.0
  0
LINE
  8
0
 62
     0
 10
6.63889
 20
-4.23611
 30
0.0
 11
6.76731
 21
-4.15099
 31
0.0
  0
LINE
  8
0
 62
     0
 10
6.76731
 20
-4.15099
 30
0.0
 11
6.86106
 21
-4.06244
 31
0.0
  0
LINE
  8
0
 62
     0
 10
6.86106
 20
-4.06244
 30
0.0
 11
6.92008
 21
-3.97043
 31
0.0
  0
LINE
  8
0
 62
     0
 10
6.92008
 20
-3.97043
 30
0.0
 11
6.94444
 21
-3.875
 31
0.0
  0
LINE
  8
0
 62
     0
 10
6.94444
 20
-3.875
 30
0.0
 11
6.99972
 21
-3.35004
 31
0.0
  0
LINE
  8
0
 62
     0
 10
6.99972
 20
-3.35004
 30
0.0
 11
7.04769
 21
-2.77518
 31
0.0
  0
LINE
  8
0
 62
     0
 10
7.04769
 20
-2.77518
 30
0.0
 11
7.08826
 21
-2.15039
 31
0.0
  0
LINE
  8
0
 62
     0
 10
7.08826
 20
-2.15039
 30
0.0
 11
7.12147
 21
-1.47569
 31
0.0
  0
LINE
  8
0
 62
     0
 10
7.12147
 20
-1.47569
 30
0.0
 11
7.14729
 21
-0.751085
 31
0.0
  0
LINE
  8
0
 62
     0
 10
7.14729
 20
-0.751085
 30
0.0
 11
7.16575
 21
0.0234375
 31
0.0
  0
LINE
  8
0
 62
     0
 10
7.16575
 20
0.0234375
 30
0.0
 11
7.17681
 21
0.847874
 31
0.0
  0
LINE
  8
0
 62
     0
 10
7.17681
 20
0.847874
 30
0.0
 11
7.18056
 21
1.72222
 31
0.0
  0
LINE
  8
0
 62
     0
 10
7.18056
 20
1.72222
 30
0.0
 11
7.16314
 21
1.79861
 31
0.0
  0
LINE
  8
0
 62
     0
 10
7.16314
 20
1.79861
 30
0.0
 11
7.11106
 21
1.86111
 31
0.0
  0
LINE
  8
0
 62
     0
 10
7.11106
 20
1.86111
 30
0.0
 11
7.02425
 21
1.90972
 31
0.0
  0
LINE
  8
0
 62
     0
 10
7.02425
 20
1.90972
 30
0.0
 11
6.90278
 21
1.94444
 31
0.0
  0
LINE
  8
0
 62
     0
 10
6.90278
 20
1.94444
 30
0.0
 11
6.77171
 21
1.95747
 31
0.0
  0
LINE
  8
0
 62
     0
 10
6.77171
 20
1.95747
 30
0.0
 11
6.62847
 21
1.95486
 31
0.0
  0
LINE
  8
0
 62
     0
 10
6.62847
 20
1.95486
 30
0.0
 11
6.4731
 21
1.93664
 31
0.0
  0
LINE
  8
0
 62
     0
 10
6.4731
 20
1.93664
 30
0.0
 11
6.30556
 21
1.90278
 31
0.0
  0
LINE
  8
0
 62
     0
 10
6.30556
 20
1.90278
 30
0.0
 11
6.12668
 21
1.8559
 31
0.0
  0
LINE
  8
0
 62
     0
 10
6.12668
 20
1.8559
 30
0.0
 11
5.96522
 21
1.79861
 31
0.0
  0
LINE
  8
0
 62
     0
 10
5.96522
 20
1.79861
 30
0.0
 11
5.82113
 21
1.7309
 31
0.0
  0
LINE
  8
0
 62
     0
 10
5.82113
 20
1.7309
 30
0.0
 11
5.69444
 21
1.65278
 31
0.0
  0
LINE
  8
0
 62
     0
 10
5.69444
 20
1.65278
 30
0.0
 11
5.57292
 21
1.5599
 31
0.0
  0
LINE
  8
0
 62
     0
 10
5.57292
 20
1.5599
 30
0.0
 11
5.48611
 21
1.46181
 31
0.0
  0
LINE
  8
0
 62
     0
 10
5.48611
 20
1.46181
 30
0.0
 11
5.43403
 21
1.35856
 31
0.0
  0
LINE
  8
0
 62
     0
 10
5.43403
 20
1.35856
 30
0.0
 11
5.41667
 21
1.25
 31
0.0
  0
LINE
  8
0
 62
     0
 10
5.41667
 20
1.25
 30
0.0
 11
5.41319
 21
0.415799
 31
0.0
  0
LINE
  8
0
 62
     0
 10
5.41319
 20
0.415799
 30
0.0
 11
5.40278
 21
-0.371528
 31
0.0
  0
LINE
  8
0
 62
     0
 10
5.40278
 20
-0.371528
 30
0.0
 11
5.38542
 21
-1.11198
 31
0.0
  0
LINE
  8
0
 62
     0
 10
5.38542
 20
-1.11198
 30
0.0
 11
5.36111
 21
-1.80556
 31
0.0
  0
LINE
  8
0
 62
     0
 10
5.36111
 20
-1.80556
 30
0.0
 11
5.32986
 21
-2.45221
 31
0.0
  0
LINE
  8
0
 62
     0
 10
5.32986
 20
-2.45221
 30
0.0
 11
5.29167
 21
-3.05203
 31
0.0
  0
LINE
  8
0
 62
     0
 10
5.29167
 20
-3.05203
 30
0.0
 11
5.24653
 21
-3.60499
 31
0.0
  0
LINE
  8
0
 62
     0
 10
5.24653
 20
-3.60499
 30
0.0
 11
5.19444
 21
-4.11111
 31
0.0
  0
ENDSEC
  0
EOF
