  0
SECTION
  2
HEADER
  9
$ACADVER
  1
AC1009
  9
$EXTMIN
 10
0.0
 20
0.0
 30
0.0
  9
$EXTMAX
 10
1000.0
 20
1000.0
 30
0.0
  9
$FILLMODE
 70
 0
  9
$SPLFRAME
 70
 1
  0
ENDSEC
  0
SECTION
  2
TABLES
  0
TABLE
  2
LAYER
 70
1
  0
LAYER
  2
0
 70
     0
 62
     7
  6
CONTINUOUS
  0
ENDTAB
  0
ENDSEC
  0
SECTION
  2
ENTITIES
  0
LINE
  8
0
 62
     0
 10
10.6944
 20
14.1528
 30
0.0
 11
10.3455
 21
13.5157
 31
0.0
  0
LINE
  8
0
 62
     0
 10
10.3455
 20
13.5157
 30
0.0
 11
9.90972
 21
12.882
 31
0.0
  0
LINE
  8
0
 62
     0
 10
9.90972
 20
12.882
 30
0.0
 11
9.38715
 21
12.2518
 31
0.0
  0
LINE
  8
0
 62
     0
 10
9.38715
 20
12.2518
 30
0.0
 11
8.77778
 21
11.625
 31
0.0
  0
LINE
  8
0
 62
     0
 10
8.77778
 20
11.625
 30
0.0
 11
8.12494
 21
11.0469
 31
0.0
  0
LINE
  8
0
 62
     0
 10
8.12494
 20
11.0469
 30
0.0
 11
7.45828
 21
10.5347
 31
0.0
  0
LINE
  8
0
 62
     0
 10
7.45828
 20
10.5347
 30
0.0
 11
6.77772
 21
10.0885
 31
0.0
  0
LINE
  8
0
 62
     0
 10
6.77772
 20
10.0885
 30
0.0
 11
6.08333
 21
9.70833
 31
0.0
  0
LINE
  8
0
 62
     0
 10
6.08333
 20
9.70833
 30
0.0
 11
5.71153
 21
9.53825
 31
0.0
  0
LINE
  8
0
 62
     0
 10
5.71153
 20
9.53825
 30
0.0
 11
5.35325
 21
9.39589
 31
0.0
  0
LINE
  8
0
 62
     0
 10
5.35325
 20
9.39589
 30
0.0
 11
5.0084
 21
9.28131
 31
0.0
  0
LINE
  8
0
 62
     0
 10
5.0084
 20
9.28131
 30
0.0
 11
4.67703
 21
9.1945
 31
0.0
  0
LINE
  8
0
 62
     0
 10
4.67703
 20
9.1945
 30
0.0
 11
4.3591
 21
9.13547
 31
0.0
  0
LINE
  8
0
 62
     0
 10
4.3591
 20
9.13547
 30
0.0
 11
4.05464
 21
9.10422
 31
0.0
  0
LINE
  8
0
 62
     0
 10
4.05464
 20
9.10422
 30
0.0
 11
3.76361
 21
9.10075
 31
0.0
  0
LINE
  8
0
 62
     0
 10
3.76361
 20
9.10075
 30
0.0
 11
3.48611
 21
9.125
 31
0.0
  0
LINE
  8
0
 62
     0
 10
3.48611
 20
9.125
 30
0.0
 11
2.92361
 21
9.375
 31
0.0
  0
LINE
  8
0
 62
     0
 10
2.92361
 20
9.375
 30
0.0
 11
2.375
 21
9.56944
 31
0.0
  0
LINE
  8
0
 62
     0
 10
2.375
 20
9.56944
 30
0.0
 11
2.368
 21
9.57292
 31
0.0
  0
LINE
  8
0
 62
     0
 10
2.368
 20
9.57292
 30
0.0
 11
2.31944
 21
9.58333
 31
0.0
  0
LINE
  8
0
 62
     0
 10
2.31944
 20
9.58333
 30
0.0
 11
2.32937
 21
10.2575
 31
0.0
  0
LINE
  8
0
 62
     0
 10
2.32937
 20
10.2575
 30
0.0
 11
2.33849
 21
10.9015
 31
0.0
  0
LINE
  8
0
 62
     0
 10
2.33849
 20
10.9015
 30
0.0
 11
2.34674
 21
11.5153
 31
0.0
  0
LINE
  8
0
 62
     0
 10
2.34674
 20
11.5153
 30
0.0
 11
2.35411
 21
12.099
 31
0.0
  0
LINE
  8
0
 62
     0
 10
2.35411
 20
12.099
 30
0.0
 11
2.36062
 21
12.6525
 31
0.0
  0
LINE
  8
0
 62
     0
 10
2.36062
 20
12.6525
 30
0.0
 11
2.36626
 21
13.1758
 31
0.0
  0
LINE
  8
0
 62
     0
 10
2.36626
 20
13.1758
 30
0.0
 11
2.37104
 21
13.669
 31
0.0
  0
LINE
  8
0
 62
     0
 10
2.37104
 20
13.669
 30
0.0
 11
2.37494
 21
14.1319
 31
0.0
  0
LINE
  8
0
 62
     0
 10
2.37494
 20
14.1319
 30
0.0
 11
2.37799
 21
14.5649
 31
0.0
  0
LINE
  8
0
 62
     0
 10
2.37799
 20
14.5649
 30
0.0
 11
2.38015
 21
14.9675
 31
0.0
  0
LINE
  8
0
 62
     0
 10
2.38015
 20
14.9675
 30
0.0
 11
2.38146
 21
15.34
 31
0.0
  0
LINE
  8
0
 62
     0
 10
2.38146
 20
15.34
 30
0.0
 11
2.38189
 21
15.6824
 31
0.0
  0
LINE
  8
0
 62
     0
 10
2.38189
 20
15.6824
 30
0.0
 11
2.38146
 21
15.9946
 31
0.0
  0
LINE
  8
0
 62
     0
 10
2.38146
 20
15.9946
 30
0.0
 11
2.38015
 21
16.2765
 31
0.0
  0
LINE
  8
0
 62
     0
 10
2.38015
 20
16.2765
 30
0.0
 11
2.37799
 21
16.5283
 31
0.0
  0
LINE
  8
0
 62
     0
 10
2.37799
 20
16.5283
 30
0.0
 11
2.375
 21
16.75
 31
0.0
  0
LINE
  8
0
 62
     0
 10
2.375
 20
16.75
 30
0.0
 11
2.48958
 21
16.8199
 31
0.0
  0
LINE
  8
0
 62
     0
 10
2.48958
 20
16.8199
 30
0.0
 11
2.58333
 21
16.8889
 31
0.0
  0
LINE
  8
0
 62
     0
 10
2.58333
 20
16.8889
 30
0.0
 11
3.00515
 21
17.2329
 31
0.0
  0
LINE
  8
0
 62
     0
 10
3.00515
 20
17.2329
 30
0.0
 11
3.46522
 21
17.5356
 31
0.0
  0
LINE
  8
0
 62
     0
 10
3.46522
 20
17.5356
 30
0.0
 11
3.96349
 21
17.7971
 31
0.0
  0
LINE
  8
0
 62
     0
 10
3.96349
 20
17.7971
 30
0.0
 11
4.49994
 21
18.0174
 31
0.0
  0
LINE
  8
0
 62
     0
 10
4.49994
 20
18.0174
 30
0.0
 11
5.0746
 21
18.1964
 31
0.0
  0
LINE
  8
0
 62
     0
 10
5.0746
 20
18.1964
 30
0.0
 11
5.68744
 21
18.3342
 31
0.0
  0
LINE
  8
0
 62
     0
 10
5.68744
 20
18.3342
 30
0.0
 11
6.33849
 21
18.4308
 31
0.0
  0
LINE
  8
0
 62
     0
 10
6.33849
 20
18.4308
 30
0.0
 11
7.02778
 21
18.4861
 31
0.0
  0
LINE
  8
0
 62
     0
 10
7.02778
 20
18.4861
 30
0.0
 11
7.37213
 21
18.499
 31
0.0
  0
LINE
  8
0
 62
     0
 10
7.37213
 20
18.499
 30
0.0
 11
7.70394
 21
18.4957
 31
0.0
  0
LINE
  8
0
 62
     0
 10
7.70394
 20
18.4957
 30
0.0
 11
8.02317
 21
18.4764
 31
0.0
  0
LINE
  8
0
 62
     0
 10
8.02317
 20
18.4764
 30
0.0
 11
8.32981
 21
18.441
 31
0.0
  0
LINE
  8
0
 62
     0
 10
8.32981
 20
18.441
 30
0.0
 11
8.62386
 21
18.3896
 31
0.0
  0
LINE
  8
0
 62
     0
 10
8.62386
 20
18.3896
 30
0.0
 11
8.90533
 21
18.3221
 31
0.0
  0
LINE
  8
0
 62
     0
 10
8.90533
 20
18.3221
 30
0.0
 11
9.17421
 21
18.2386
 31
0.0
  0
LINE
  8
0
 62
     0
 10
9.17421
 20
18.2386
 30
0.0
 11
9.43056
 21
18.1389
 31
0.0
  0
LINE
  8
0
 62
     0
 10
9.43056
 20
18.1389
 30
0.0
 11
9.70074
 21
18.0083
 31
0.0
  0
LINE
  8
0
 62
     0
 10
9.70074
 20
18.0083
 30
0.0
 11
9.94879
 21
17.8594
 31
0.0
  0
LINE
  8
0
 62
     0
 10
9.94879
 20
17.8594
 30
0.0
 11
10.1747
 21
17.6924
 31
0.0
  0
LINE
  8
0
 62
     0
 10
10.1747
 20
17.6924
 30
0.0
 11
10.3785
 21
17.5069
 31
0.0
  0
LINE
  8
0
 62
     0
 10
10.3785
 20
17.5069
 30
0.0
 11
10.5601
 21
17.3033
 31
0.0
  0
LINE
  8
0
 62
     0
 10
10.5601
 20
17.3033
 30
0.0
 11
10.7196
 21
17.0817
 31
0.0
  0
LINE
  8
0
 62
     0
 10
10.7196
 20
17.0817
 30
0.0
 11
10.857
 21
16.8415
 31
0.0
  0
LINE
  8
0
 62
     0
 10
10.857
 20
16.8415
 30
0.0
 11
10.9722
 21
16.5833
 31
0.0
  0
LINE
  8
0
 62
     0
 10
10.9722
 20
16.5833
 30
0.0
 11
11.0559
 21
16.3236
 31
0.0
  0
LINE
  8
0
 62
     0
 10
11.0559
 20
16.3236
 30
0.0
 11
11.1058
 21
16.0512
 31
0.0
  0
LINE
  8
0
 62
     0
 10
11.1058
 20
16.0512
 30
0.0
 11
11.1219
 21
15.7663
 31
0.0
  0
LINE
  8
0
 62
     0
 10
11.1219
 20
15.7663
 30
0.0
 11
11.1042
 21
15.4688
 31
0.0
  0
LINE
  8
0
 62
     0
 10
11.1042
 20
15.4688
 30
0.0
 11
11.0525
 21
15.1586
 31
0.0
  0
LINE
  8
0
 62
     0
 10
11.0525
 20
15.1586
 30
0.0
 11
10.967
 21
14.836
 31
0.0
  0
LINE
  8
0
 62
     0
 10
10.967
 20
14.836
 30
0.0
 11
10.8477
 21
14.5007
 31
0.0
  0
LINE
  8
0
 62
     0
 10
10.8477
 20
14.5007
 30
0.0
 11
10.6944
 21
14.1528
 31
0.0
  0
LINE
  8
0
 62
     0
 10
0.763889
 20
-0.680556
 30
0.0
 11
0.945313
 21
-0.691786
 31
0.0
  0
LINE
  8
0
 62
     0
 10
0.945313
 20
-0.691786
 30
0.0
 11
1.14236
 21
-0.683974
 31
0.0
  0
LINE
  8
0
 62
     0
 10
1.14236
 20
-0.683974
 30
0.0
 11
1.35498
 21
-0.657064
 31
0.0
  0
LINE
  8
0
 62
     0
 10
1.35498
 20
-0.657064
 30
0.0
 11
1.58333
 21
-0.611111
 31
0.0
  0
LINE
  8
0
 62
     0
 10
1.58333
 20
-0.611111
 30
0.0
 11
1.85238
 21
-0.538194
 31
0.0
  0
LINE
  8
0
 62
     0
 10
1.85238
 20
-0.538194
 30
0.0
 11
2.08328
 21
-0.458333
 31
0.0
  0
LINE
  8
0
 62
     0
 10
2.08328
 20
-0.458333
 30
0.0
 11
2.27599
 21
-0.371528
 31
0.0
  0
LINE
  8
0
 62
     0
 10
2.27599
 20
-0.371528
 30
0.0
 11
2.4305
 21
-0.277778
 31
0.0
  0
LINE
  8
0
 62
     0
 10
2.4305
 20
-0.277778
 30
0.0
 11
2.54682
 21
-0.177083
 31
0.0
  0
LINE
  8
0
 62
     0
 10
2.54682
 20
-0.177083
 30
0.0
 11
2.62494
 21
-0.0694444
 31
0.0
  0
LINE
  8
0
 62
     0
 10
2.62494
 20
-0.0694444
 30
0.0
 11
2.66488
 21
0.0451389
 31
0.0
  0
LINE
  8
0
 62
     0
 10
2.66488
 20
0.0451389
 30
0.0
 11
2.66667
 21
0.166667
 31
0.0
  0
LINE
  8
0
 62
     0
 10
2.66667
 20
0.166667
 30
0.0
 11
2.57894
 21
0.93316
 31
0.0
  0
LINE
  8
0
 62
     0
 10
2.57894
 20
0.93316
 30
0.0
 11
2.50342
 21
1.73958
 31
0.0
  0
LINE
  8
0
 62
     0
 10
2.50342
 20
1.73958
 30
0.0
 11
2.44006
 21
2.58594
 31
0.0
  0
LINE
  8
0
 62
     0
 10
2.44006
 20
2.58594
 30
0.0
 11
2.38883
 21
3.47222
 31
0.0
  0
LINE
  8
0
 62
     0
 10
2.38883
 20
3.47222
 30
0.0
 11
2.34978
 21
4.39844
 31
0.0
  0
LINE
  8
0
 62
     0
 10
2.34978
 20
4.39844
 30
0.0
 11
2.32286
 21
5.36458
 31
0.0
  0
LINE
  8
0
 62
     0
 10
2.32286
 20
5.36458
 30
0.0
 11
2.30811
 21
6.37067
 31
0.0
  0
LINE
  8
0
 62
     0
 10
2.30811
 20
6.37067
 30
0.0
 11
2.30556
 21
7.41667
 31
0.0
  0
LINE
  8
0
 62
     0
 10
2.30556
 20
7.41667
 30
0.0
 11
2.30638
 21
7.42106
 31
0.0
  0
LINE
  8
0
 62
     0
 10
2.30638
 20
7.42106
 30
0.0
 11
2.32292
 21
7.42014
 31
0.0
  0
LINE
  8
0
 62
     0
 10
2.32292
 20
7.42014
 30
0.0
 11
2.35504
 21
7.41407
 31
0.0
  0
LINE
  8
0
 62
     0
 10
2.35504
 20
7.41407
 30
0.0
 11
2.40278
 21
7.40278
 31
0.0
  0
LINE
  8
0
 62
     0
 10
2.40278
 20
7.40278
 30
0.0
 11
2.77946
 21
7.16803
 31
0.0
  0
LINE
  8
0
 62
     0
 10
2.77946
 20
7.16803
 30
0.0
 11
3.16661
 21
6.89415
 31
0.0
  0
LINE
  8
0
 62
     0
 10
3.16661
 20
6.89415
 30
0.0
 11
3.56418
 21
6.58122
 31
0.0
  0
LINE
  8
0
 62
     0
 10
3.56418
 20
6.58122
 30
0.0
 11
3.97222
 21
6.22917
 31
0.0
  0
LINE
  8
0
 62
     0
 10
3.97222
 20
6.22917
 30
0.0
 11
4.39063
 21
5.83811
 31
0.0
  0
LINE
  8
0
 62
     0
 10
4.39063
 20
5.83811
 30
0.0
 11
4.81944
 21
5.40799
 31
0.0
  0
LINE
  8
0
 62
     0
 10
4.81944
 20
5.40799
 30
0.0
 11
5.25868
 21
4.93881
 31
0.0
  0
LINE
  8
0
 62
     0
 10
5.25868
 20
4.93881
 30
0.0
 11
5.70833
 21
4.43056
 31
0.0
  0
LINE
  8
0
 62
     0
 10
5.70833
 20
4.43056
 30
0.0
 11
6.00965
 21
4.07889
 31
0.0
  0
LINE
  8
0
 62
     0
 10
6.00965
 20
4.07889
 30
0.0
 11
6.29557
 21
3.7461
 31
0.0
  0
LINE
  8
0
 62
     0
 10
6.29557
 20
3.7461
 30
0.0
 11
6.56608
 21
3.43218
 31
0.0
  0
LINE
  8
0
 62
     0
 10
6.56608
 20
3.43218
 30
0.0
 11
6.82118
 21
3.13715
 31
0.0
  0
LINE
  8
0
 62
     0
 10
6.82118
 20
3.13715
 30
0.0
 11
7.06087
 21
2.861
 31
0.0
  0
LINE
  8
0
 62
     0
 10
7.06087
 20
2.861
 30
0.0
 11
7.28515
 21
2.60374
 31
0.0
  0
LINE
  8
0
 62
     0
 10
7.28515
 20
2.60374
 30
0.0
 11
7.49403
 21
2.36535
 31
0.0
  0
LINE
  8
0
 62
     0
 10
7.49403
 20
2.36535
 30
0.0
 11
7.6875
 21
2.14583
 31
0.0
  0
LINE
  8
0
 62
     0
 10
7.6875
 20
2.14583
 30
0.0
 11
7.86556
 21
1.94526
 31
0.0
  0
LINE
  8
0
 62
     0
 10
7.86556
 20
1.94526
 30
0.0
 11
8.02821
 21
1.76351
 31
0.0
  0
LINE
  8
0
 62
     0
 10
8.02821
 20
1.76351
 30
0.0
 11
8.17546
 21
1.60064
 31
0.0
  0
LINE
  8
0
 62
     0
 10
8.17546
 20
1.60064
 30
0.0
 11
8.30729
 21
1.45665
 31
0.0
  0
LINE
  8
0
 62
     0
 10
8.30729
 20
1.45665
 30
0.0
 11
8.42372
 21
1.33154
 31
0.0
  0
LINE
  8
0
 62
     0
 10
8.42372
 20
1.33154
 30
0.0
 11
8.52474
 21
1.22532
 31
0.0
  0
LINE
  8
0
 62
     0
 10
8.52474
 20
1.22532
 30
0.0
 11
8.61035
 21
1.13797
 31
0.0
  0
LINE
  8
0
 62
     0
 10
8.61035
 20
1.13797
 30
0.0
 11
8.68056
 21
1.06944
 31
0.0
  0
LINE
  8
0
 62
     0
 10
8.68056
 20
1.06944
 30
0.0
 11
8.82553
 21
0.96186
 31
0.0
  0
LINE
  8
0
 62
     0
 10
8.82553
 20
0.96186
 30
0.0
 11
8.99653
 21
0.888943
 31
0.0
  0
LINE
  8
0
 62
     0
 10
8.99653
 20
0.888943
 30
0.0
 11
9.19358
 21
0.850749
 31
0.0
  0
LINE
  8
0
 62
     0
 10
9.19358
 20
0.850749
 30
0.0
 11
9.41667
 21
0.847222
 31
0.0
  0
LINE
  8
0
 62
     0
 10
9.41667
 20
0.847222
 30
0.0
 11
9.6224
 21
0.880262
 31
0.0
  0
LINE
  8
0
 62
     0
 10
9.6224
 20
0.880262
 30
0.0
 11
9.82292
 21
0.937554
 31
0.0
  0
LINE
  8
0
 62
     0
 10
9.82292
 20
0.937554
 30
0.0
 11
10.0182
 21
1.01915
 31
0.0
  0
LINE
  8
0
 62
     0
 10
10.0182
 20
1.01915
 30
0.0
 11
10.2083
 21
1.125
 31
0.0
  0
LINE
  8
0
 62
     0
 10
10.2083
 20
1.125
 30
0.0
 11
10.3846
 21
1.26047
 31
0.0
  0
LINE
  8
0
 62
     0
 10
10.3846
 20
1.26047
 30
0.0
 11
10.5243
 21
1.40283
 31
0.0
  0
LINE
  8
0
 62
     0
 10
10.5243
 20
1.40283
 30
0.0
 11
10.6276
 21
1.55214
 31
0.0
  0
LINE
  8
0
 62
     0
 10
10.6276
 20
1.55214
 30
0.0
 11
10.6944
 21
1.70833
 31
0.0
  0
LINE
  8
0
 62
     0
 10
10.6944
 20
1.70833
 30
0.0
 11
10.7153
 21
1.89324
 31
0.0
  0
LINE
  8
0
 62
     0
 10
10.7153
 20
1.89324
 30
0.0
 11
10.6806
 21
2.07292
 31
0.0
  0
LINE
  8
0
 62
     0
 10
10.6806
 20
2.07292
 30
0.0
 11
10.5903
 21
2.2474
 31
0.0
  0
LINE
  8
0
 62
     0
 10
10.5903
 20
2.2474
 30
0.0
 11
10.4444
 21
2.41667
 31
0.0
  0
LINE
  8
0
 62
     0
 10
10.4444
 20
2.41667
 30
0.0
 11
10.2279
 21
2.62463
 31
0.0
  0
LINE
  8
0
 62
     0
 10
10.2279
 20
2.62463
 30
0.0
 11
9.98785
 21
2.86637
 31
0.0
  0
LINE
  8
0
 62
     0
 10
9.98785
 20
2.86637
 30
0.0
 11
9.72439
 21
3.14199
 31
0.0
  0
LINE
  8
0
 62
     0
 10
9.72439
 20
3.14199
 30
0.0
 11
9.4375
 21
3.45139
 31
0.0
  0
LINE
  8
0
 62
     0
 10
9.4375
 20
3.45139
 30
0.0
 11
9.12711
 21
3.79471
 31
0.0
  0
LINE
  8
0
 62
     0
 10
9.12711
 20
3.79471
 30
0.0
 11
8.79335
 21
4.17188
 31
0.0
  0
LINE
  8
0
 62
     0
 10
8.79335
 20
4.17188
 30
0.0
 11
8.43614
 21
4.5829
 31
0.0
  0
LINE
  8
0
 62
     0
 10
8.43614
 20
4.5829
 30
0.0
 11
8.05556
 21
5.02778
 31
0.0
  0
LINE
  8
0
 62
     0
 10
8.05556
 20
5.02778
 30
0.0
 11
7.69011
 21
5.45703
 31
0.0
  0
LINE
  8
0
 62
     0
 10
7.69011
 20
5.45703
 30
0.0
 11
7.34375
 21
5.8559
 31
0.0
  0
LINE
  8
0
 62
     0
 10
7.34375
 20
5.8559
 30
0.0
 11
7.0165
 21
6.22439
 31
0.0
  0
LINE
  8
0
 62
     0
 10
7.0165
 20
6.22439
 30
0.0
 11
6.70833
 21
6.5625
 31
0.0
  0
LINE
  8
0
 62
     0
 10
6.70833
 20
6.5625
 30
0.0
 11
6.41928
 21
6.87022
 31
0.0
  0
LINE
  8
0
 62
     0
 10
6.41928
 20
6.87022
 30
0.0
 11
6.14931
 21
7.14757
 31
0.0
  0
LINE
  8
0
 62
     0
 10
6.14931
 20
7.14757
 30
0.0
 11
5.89844
 21
7.39453
 31
0.0
  0
LINE
  8
0
 62
     0
 10
5.89844
 20
7.39453
 30
0.0
 11
5.66667
 21
7.61111
 31
0.0
  0
LINE
  8
0
 62
     0
 10
5.66667
 20
7.61111
 30
0.0
 11
6.40381
 21
7.875
 31
0.0
  0
LINE
  8
0
 62
     0
 10
6.40381
 20
7.875
 30
0.0
 11
7.12235
 21
8.19444
 31
0.0
  0
LINE
  8
0
 62
     0
 10
7.12235
 20
8.19444
 30
0.0
 11
7.82221
 21
8.56944
 31
0.0
  0
LINE
  8
0
 62
     0
 10
7.82221
 20
8.56944
 30
0.0
 11
8.50342
 21
9
 31
0.0
  0
LINE
  8
0
 62
     0
 10
8.50342
 20
9
 30
0.0
 11
9.16596
 21
9.48611
 31
0.0
  0
LINE
  8
0
 62
     0
 10
9.16596
 20
9.48611
 30
0.0
 11
9.80985
 21
10.0278
 31
0.0
  0
LINE
  8
0
 62
     0
 10
9.80985
 20
10.0278
 30
0.0
 11
10.4351
 21
10.625
 31
0.0
  0
LINE
  8
0
 62
     0
 10
10.4351
 20
10.625
 30
0.0
 11
11.0417
 21
11.2778
 31
0.0
  0
LINE
  8
0
 62
     0
 10
11.0417
 20
11.2778
 30
0.0
 11
11.6128
 21
11.971
 31
0.0
  0
LINE
  8
0
 62
     0
 10
11.6128
 20
11.971
 30
0.0
 11
12.1041
 21
12.6546
 31
0.0
  0
LINE
  8
0
 62
     0
 10
12.1041
 20
12.6546
 30
0.0
 11
12.5156
 21
13.3286
 31
0.0
  0
LINE
  8
0
 62
     0
 10
12.5156
 20
13.3286
 30
0.0
 11
12.8472
 21
13.9931
 31
0.0
  0
LINE
  8
0
 62
     0
 10
12.8472
 20
13.9931
 30
0.0
 11
13.0989
 21
14.6481
 31
0.0
  0
LINE
  8
0
 62
     0
 10
13.0989
 20
14.6481
 30
0.0
 11
13.2708
 21
15.2935
 31
0.0
  0
LINE
  8
0
 62
     0
 10
13.2708
 20
15.2935
 30
0.0
 11
13.3628
 21
15.9293
 31
0.0
  0
LINE
  8
0
 62
     0
 10
13.3628
 20
15.9293
 30
0.0
 11
13.375
 21
16.5556
 31
0.0
  0
LINE
  8
0
 62
     0
 10
13.375
 20
16.5556
 30
0.0
 11
13.334
 21
17.0192
 31
0.0
  0
LINE
  8
0
 62
     0
 10
13.334
 20
17.0192
 30
0.0
 11
13.2457
 21
17.4514
 31
0.0
  0
LINE
  8
0
 62
     0
 10
13.2457
 20
17.4514
 30
0.0
 11
13.11
 21
17.8525
 31
0.0
  0
LINE
  8
0
 62
     0
 10
13.11
 20
17.8525
 30
0.0
 11
12.9271
 21
18.2222
 31
0.0
  0
LINE
  8
0
 62
     0
 10
12.9271
 20
18.2222
 30
0.0
 11
12.6968
 21
18.5608
 31
0.0
  0
LINE
  8
0
 62
     0
 10
12.6968
 20
18.5608
 30
0.0
 11
12.4193
 21
18.8681
 31
0.0
  0
LINE
  8
0
 62
     0
 10
12.4193
 20
18.8681
 30
0.0
 11
12.0944
 21
19.1442
 31
0.0
  0
LINE
  8
0
 62
     0
 10
12.0944
 20
19.1442
 30
0.0
 11
11.7222
 21
19.3889
 31
0.0
  0
LINE
  8
0
 62
     0
 10
11.7222
 20
19.3889
 30
0.0
 11
11.3646
 21
19.5771
 31
0.0
  0
LINE
  8
0
 62
     0
 10
11.3646
 20
19.5771
 30
0.0
 11
10.9792
 21
19.7387
 31
0.0
  0
LINE
  8
0
 62
     0
 10
10.9792
 20
19.7387
 30
0.0
 11
10.566
 21
19.874
 31
0.0
  0
LINE
  8
0
 62
     0
 10
10.566
 20
19.874
 30
0.0
 11
10.125
 21
19.9826
 31
0.0
  0
LINE
  8
0
 62
     0
 10
10.125
 20
19.9826
 30
0.0
 11
9.65625
 21
20.065
 31
0.0
  0
LINE
  8
0
 62
     0
 10
9.65625
 20
20.065
 30
0.0
 11
9.15972
 21
20.1207
 31
0.0
  0
LINE
  8
0
 62
     0
 10
9.15972
 20
20.1207
 30
0.0
 11
8.63542
 21
20.15
 31
0.0
  0
LINE
  8
0
 62
     0
 10
8.63542
 20
20.15
 30
0.0
 11
8.08333
 21
20.1528
 31
0.0
  0
LINE
  8
0
 62
     0
 10
8.08333
 20
20.1528
 30
0.0
 11
7.07374
 21
20.0999
 31
0.0
  0
LINE
  8
0
 62
     0
 10
7.07374
 20
20.0999
 30
0.0
 11
6.05903
 21
19.9688
 31
0.0
  0
LINE
  8
0
 62
     0
 10
6.05903
 20
19.9688
 30
0.0
 11
5.03907
 21
19.7596
 31
0.0
  0
LINE
  8
0
 62
     0
 10
5.03907
 20
19.7596
 30
0.0
 11
4.01389
 21
19.4722
 31
0.0
  0
LINE
  8
0
 62
     0
 10
4.01389
 20
19.4722
 30
0.0
 11
3.53321
 21
19.309
 31
0.0
  0
LINE
  8
0
 62
     0
 10
3.53321
 20
19.309
 30
0.0
 11
3.08421
 21
19.1389
 31
0.0
  0
LINE
  8
0
 62
     0
 10
3.08421
 20
19.1389
 30
0.0
 11
2.66689
 21
18.9618
 31
0.0
  0
LINE
  8
0
 62
     0
 10
2.66689
 20
18.9618
 30
0.0
 11
2.28125
 21
18.7778
 31
0.0
  0
LINE
  8
0
 62
     0
 10
2.28125
 20
18.7778
 30
0.0
 11
1.92731
 21
18.5868
 31
0.0
  0
LINE
  8
0
 62
     0
 10
1.92731
 20
18.5868
 30
0.0
 11
1.60504
 21
18.3889
 31
0.0
  0
LINE
  8
0
 62
     0
 10
1.60504
 20
18.3889
 30
0.0
 11
1.31445
 21
18.184
 31
0.0
  0
LINE
  8
0
 62
     0
 10
1.31445
 20
18.184
 30
0.0
 11
1.05556
 21
17.9722
 31
0.0
  0
LINE
  8
0
 62
     0
 10
1.05556
 20
17.9722
 30
0.0
 11
0.870606
 21
17.7796
 31
0.0
  0
LINE
  8
0
 62
     0
 10
0.870606
 20
17.7796
 30
0.0
 11
0.746474
 21
17.5903
 31
0.0
  0
LINE
  8
0
 62
     0
 10
0.746474
 20
17.5903
 30
0.0
 11
0.683106
 21
17.4046
 31
0.0
  0
LINE
  8
0
 62
     0
 10
0.683106
 20
17.4046
 30
0.0
 11
0.680556
 21
17.2222
 31
0.0
  0
LINE
  8
0
 62
     0
 10
0.680556
 20
17.2222
 30
0.0
 11
0.407932
 21
17.0912
 31
0.0
  0
LINE
  8
0
 62
     0
 10
0.407932
 20
17.0912
 30
0.0
 11
0.215224
 21
16.9479
 31
0.0
  0
LINE
  8
0
 62
     0
 10
0.215224
 20
16.9479
 30
0.0
 11
0.102376
 21
16.7926
 31
0.0
  0
LINE
  8
0
 62
     0
 10
0.102376
 20
16.7926
 30
0.0
 11
0.0694444
 21
16.625
 31
0.0
  0
LINE
  8
0
 62
     0
 10
0.0694444
 20
16.625
 30
0.0
 11
0.0723742
 21
16.4776
 31
0.0
  0
LINE
  8
0
 62
     0
 10
0.0723742
 20
16.4776
 30
0.0
 11
0.0743815
 21
16.2789
 31
0.0
  0
LINE
  8
0
 62
     0
 10
0.0743815
 20
16.2789
 30
0.0
 11
0.0754124
 21
16.0285
 31
0.0
  0
LINE
  8
0
 62
     0
 10
0.0754124
 20
16.0285
 30
0.0
 11
0.0754665
 21
15.7265
 31
0.0
  0
LINE
  8
0
 62
     0
 10
0.0754665
 20
15.7265
 30
0.0
 11
0.0745443
 21
15.3731
 31
0.0
  0
LINE
  8
0
 62
     0
 10
0.0745443
 20
15.3731
 30
0.0
 11
0.0726454
 21
14.9681
 31
0.0
  0
LINE
  8
0
 62
     0
 10
0.0726454
 20
14.9681
 30
0.0
 11
0.06977
 21
14.5115
 31
0.0
  0
LINE
  8
0
 62
     0
 10
0.06977
 20
14.5115
 30
0.0
 11
0.0659722
 21
14.0035
 31
0.0
  0
LINE
  8
0
 62
     0
 10
0.0659722
 20
14.0035
 30
0.0
 11
0.0611436
 21
13.4438
 31
0.0
  0
LINE
  8
0
 62
     0
 10
0.0611436
 20
13.4438
 30
0.0
 11
0.0553386
 21
12.8327
 31
0.0
  0
LINE
  8
0
 62
     0
 10
0.0553386
 20
12.8327
 30
0.0
 11
0.0485568
 21
12.17
 31
0.0
  0
LINE
  8
0
 62
     0
 10
0.0485568
 20
12.17
 30
0.0
 11
0.0407986
 21
11.4557
 31
0.0
  0
LINE
  8
0
 62
     0
 10
0.0407986
 20
11.4557
 30
0.0
 11
0.0320637
 21
10.6899
 31
0.0
  0
LINE
  8
0
 62
     0
 10
0.0320637
 20
10.6899
 30
0.0
 11
0.0223525
 21
9.87261
 31
0.0
  0
LINE
  8
0
 62
     0
 10
0.0223525
 20
9.87261
 30
0.0
 11
0.0116645
 21
9.00375
 31
0.0
  0
LINE
  8
0
 62
     0
 10
0.0116645
 20
9.00375
 30
0.0
 11
0
 21
8.08333
 31
0.0
  0
LINE
  8
0
 62
     0
 10
0
 20
8.08333
 30
0.0
 11
-0.00656467
 21
6.81663
 31
0.0
  0
LINE
  8
0
 62
     0
 10
-0.00656467
 20
6.81663
 30
0.0
 11
0.00168186
 21
5.60678
 31
0.0
  0
LINE
  8
0
 62
     0
 10
0.00168186
 20
5.60678
 30
0.0
 11
0.0246853
 21
4.45378
 31
0.0
  0
LINE
  8
0
 62
     0
 10
0.0246853
 20
4.45378
 30
0.0
 11
0.0624457
 21
3.35764
 31
0.0
  0
LINE
  8
0
 62
     0
 10
0.0624457
 20
3.35764
 30
0.0
 11
0.114963
 21
2.31836
 31
0.0
  0
LINE
  8
0
 62
     0
 10
0.114963
 20
2.31836
 30
0.0
 11
0.182238
 21
1.33594
 31
0.0
  0
LINE
  8
0
 62
     0
 10
0.182238
 20
1.33594
 30
0.0
 11
0.264268
 21
0.410374
 31
0.0
  0
LINE
  8
0
 62
     0
 10
0.264268
 20
0.410374
 30
0.0
 11
0.361111
 21
-0.458333
 31
0.0
  0
LINE
  8
0
 62
     0
 10
0.361111
 20
-0.458333
 30
0.0
 11
0.396647
 21
-0.545085
 31
0.0
  0
LINE
  8
0
 62
     0
 10
0.396647
 20
-0.545085
 30
0.0
 11
0.47564
 21
-0.611111
 31
0.0
  0
LINE
  8
0
 62
     0
 10
0.47564
 20
-0.611111
 30
0.0
 11
0.598036
 21
-0.65625
 31
0.0
  0
LINE
  8
0
 62
     0
 10
0.598036
 20
-0.65625
 30
0.0
 11
0.763889
 21
-0.680556
 31
0.0
  0
ENDSEC
  0
EOF
