  0
SECTION
  2
HEADER
  9
$ACADVER
  1
AC1009
  9
$EXTMIN
 10
0.0
 20
0.0
 30
0.0
  9
$EXTMAX
 10
1000.0
 20
1000.0
 30
0.0
  9
$FILLMODE
 70
 0
  9
$SPLFRAME
 70
 1
  0
ENDSEC
  0
SECTION
  2
TABLES
  0
TABLE
  2
LAYER
 70
1
  0
LAYER
  2
0
 70
     0
 62
     7
  6
CONTINUOUS
  0
ENDTAB
  0
ENDSEC
  0
SECTION
  2
ENTITIES
  0
LINE
  8
0
 62
     0
 10
8.95833
 20
10.2917
 30
0.0
 11
8.53814
 21
10.4653
 31
0.0
  0
LINE
  8
0
 62
     0
 10
8.53814
 20
10.4653
 30
0.0
 11
8.16661
 21
10.625
 31
0.0
  0
LINE
  8
0
 62
     0
 10
8.16661
 20
10.625
 30
0.0
 11
7.84369
 21
10.7708
 31
0.0
  0
LINE
  8
0
 62
     0
 10
7.84369
 20
10.7708
 30
0.0
 11
7.56944
 21
10.9028
 31
0.0
  0
LINE
  8
0
 62
     0
 10
7.56944
 20
10.9028
 30
0.0
 11
7.19769
 21
11.1035
 31
0.0
  0
LINE
  8
0
 62
     0
 10
7.19769
 20
11.1035
 30
0.0
 11
6.85331
 21
11.3168
 31
0.0
  0
LINE
  8
0
 62
     0
 10
6.85331
 20
11.3168
 30
0.0
 11
6.53624
 21
11.5428
 31
0.0
  0
LINE
  8
0
 62
     0
 10
6.53624
 20
11.5428
 30
0.0
 11
6.24653
 21
11.7813
 31
0.0
  0
LINE
  8
0
 62
     0
 10
6.24653
 20
11.7813
 30
0.0
 11
5.98415
 21
12.0323
 31
0.0
  0
LINE
  8
0
 62
     0
 10
5.98415
 20
12.0323
 30
0.0
 11
5.74914
 21
12.296
 31
0.0
  0
LINE
  8
0
 62
     0
 10
5.74914
 20
12.296
 30
0.0
 11
5.54144
 21
12.5723
 31
0.0
  0
LINE
  8
0
 62
     0
 10
5.54144
 20
12.5723
 30
0.0
 11
5.36111
 21
12.8611
 31
0.0
  0
LINE
  8
0
 62
     0
 10
5.36111
 20
12.8611
 30
0.0
 11
5.20617
 21
13.219
 31
0.0
  0
LINE
  8
0
 62
     0
 10
5.20617
 20
13.219
 30
0.0
 11
5.13021
 21
13.5981
 31
0.0
  0
LINE
  8
0
 62
     0
 10
5.13021
 20
13.5981
 30
0.0
 11
5.13325
 21
13.9985
 31
0.0
  0
LINE
  8
0
 62
     0
 10
5.13325
 20
13.9985
 30
0.0
 11
5.21528
 21
14.4201
 31
0.0
  0
LINE
  8
0
 62
     0
 10
5.21528
 20
14.4201
 30
0.0
 11
5.37631
 21
14.8631
 31
0.0
  0
LINE
  8
0
 62
     0
 10
5.37631
 20
14.8631
 30
0.0
 11
5.61632
 21
15.3274
 31
0.0
  0
LINE
  8
0
 62
     0
 10
5.61632
 20
15.3274
 30
0.0
 11
5.93533
 21
15.8128
 31
0.0
  0
LINE
  8
0
 62
     0
 10
5.93533
 20
15.8128
 30
0.0
 11
6.33333
 21
16.3194
 31
0.0
  0
LINE
  8
0
 62
     0
 10
6.33333
 20
16.3194
 30
0.0
 11
6.74886
 21
16.781
 31
0.0
  0
LINE
  8
0
 62
     0
 10
6.74886
 20
16.781
 30
0.0
 11
7.16228
 21
17.1867
 31
0.0
  0
LINE
  8
0
 62
     0
 10
7.16228
 20
17.1867
 30
0.0
 11
7.57351
 21
17.5362
 31
0.0
  0
LINE
  8
0
 62
     0
 10
7.57351
 20
17.5362
 30
0.0
 11
7.98258
 21
17.8299
 31
0.0
  0
LINE
  8
0
 62
     0
 10
7.98258
 20
17.8299
 30
0.0
 11
8.38949
 21
18.0675
 31
0.0
  0
LINE
  8
0
 62
     0
 10
8.38949
 20
18.0675
 30
0.0
 11
8.79422
 21
18.2492
 31
0.0
  0
LINE
  8
0
 62
     0
 10
8.79422
 20
18.2492
 30
0.0
 11
9.19678
 21
18.3747
 31
0.0
  0
LINE
  8
0
 62
     0
 10
9.19678
 20
18.3747
 30
0.0
 11
9.59722
 21
18.4444
 31
0.0
  0
LINE
  8
0
 62
     0
 10
9.59722
 20
18.4444
 30
0.0
 11
9.76124
 21
18.2804
 31
0.0
  0
LINE
  8
0
 62
     0
 10
9.76124
 20
18.2804
 30
0.0
 11
9.97564
 21
18.1632
 31
0.0
  0
LINE
  8
0
 62
     0
 10
9.97564
 20
18.1632
 30
0.0
 11
10.2404
 21
18.0929
 31
0.0
  0
LINE
  8
0
 62
     0
 10
10.2404
 20
18.0929
 30
0.0
 11
10.5556
 21
18.0694
 31
0.0
  0
LINE
  8
0
 62
     0
 10
10.5556
 20
18.0694
 30
0.0
 11
10.8602
 21
18.0964
 31
0.0
  0
LINE
  8
0
 62
     0
 10
10.8602
 20
18.0964
 30
0.0
 11
11.1354
 21
18.1771
 31
0.0
  0
LINE
  8
0
 62
     0
 10
11.1354
 20
18.1771
 30
0.0
 11
11.3811
 21
18.3117
 31
0.0
  0
LINE
  8
0
 62
     0
 10
11.3811
 20
18.3117
 30
0.0
 11
11.5972
 21
18.5
 31
0.0
  0
LINE
  8
0
 62
     0
 10
11.5972
 20
18.5
 30
0.0
 11
11.7482
 21
18.7092
 31
0.0
  0
LINE
  8
0
 62
     0
 10
11.7482
 20
18.7092
 30
0.0
 11
11.8402
 21
18.9201
 31
0.0
  0
LINE
  8
0
 62
     0
 10
11.8402
 20
18.9201
 30
0.0
 11
11.8732
 21
19.1328
 31
0.0
  0
LINE
  8
0
 62
     0
 10
11.8732
 20
19.1328
 30
0.0
 11
11.8472
 21
19.3472
 31
0.0
  0
LINE
  8
0
 62
     0
 10
11.8472
 20
19.3472
 30
0.0
 11
11.8637
 21
19.3993
 31
0.0
  0
LINE
  8
0
 62
     0
 10
11.8637
 20
19.3993
 30
0.0
 11
11.8576
 21
19.4444
 31
0.0
  0
LINE
  8
0
 62
     0
 10
11.8576
 20
19.4444
 30
0.0
 11
11.829
 21
19.4826
 31
0.0
  0
LINE
  8
0
 62
     0
 10
11.829
 20
19.4826
 30
0.0
 11
11.7778
 21
19.5139
 31
0.0
  0
LINE
  8
0
 62
     0
 10
11.7778
 20
19.5139
 30
0.0
 11
11.7105
 21
19.6181
 31
0.0
  0
LINE
  8
0
 62
     0
 10
11.7105
 20
19.6181
 30
0.0
 11
11.6267
 21
19.7083
 31
0.0
  0
LINE
  8
0
 62
     0
 10
11.6267
 20
19.7083
 30
0.0
 11
11.5265
 21
19.7847
 31
0.0
  0
LINE
  8
0
 62
     0
 10
11.5265
 20
19.7847
 30
0.0
 11
11.4097
 21
19.8472
 31
0.0
  0
LINE
  8
0
 62
     0
 10
11.4097
 20
19.8472
 30
0.0
 11
11.2765
 21
19.8958
 31
0.0
  0
LINE
  8
0
 62
     0
 10
11.2765
 20
19.8958
 30
0.0
 11
11.1267
 21
19.9306
 31
0.0
  0
LINE
  8
0
 62
     0
 10
11.1267
 20
19.9306
 30
0.0
 11
10.9605
 21
19.9514
 31
0.0
  0
LINE
  8
0
 62
     0
 10
10.9605
 20
19.9514
 30
0.0
 11
10.7778
 21
19.9583
 31
0.0
  0
LINE
  8
0
 62
     0
 10
10.7778
 20
19.9583
 30
0.0
 11
10.5896
 21
19.9494
 31
0.0
  0
LINE
  8
0
 62
     0
 10
10.5896
 20
19.9494
 30
0.0
 11
10.4141
 21
19.9228
 31
0.0
  0
LINE
  8
0
 62
     0
 10
10.4141
 20
19.9228
 30
0.0
 11
10.2511
 21
19.8782
 31
0.0
  0
LINE
  8
0
 62
     0
 10
10.2511
 20
19.8782
 30
0.0
 11
10.1007
 21
19.816
 31
0.0
  0
LINE
  8
0
 62
     0
 10
10.1007
 20
19.816
 30
0.0
 11
9.96289
 21
19.7358
 31
0.0
  0
LINE
  8
0
 62
     0
 10
9.96289
 20
19.7358
 30
0.0
 11
9.83768
 21
19.6381
 31
0.0
  0
LINE
  8
0
 62
     0
 10
9.83768
 20
19.6381
 30
0.0
 11
9.72504
 21
19.5224
 31
0.0
  0
LINE
  8
0
 62
     0
 10
9.72504
 20
19.5224
 30
0.0
 11
9.625
 21
19.3889
 31
0.0
  0
LINE
  8
0
 62
     0
 10
9.625
 20
19.3889
 30
0.0
 11
8.83936
 21
19.1831
 31
0.0
  0
LINE
  8
0
 62
     0
 10
8.83936
 20
19.1831
 30
0.0
 11
8.08675
 21
18.9332
 31
0.0
  0
LINE
  8
0
 62
     0
 10
8.08675
 20
18.9332
 30
0.0
 11
7.36714
 21
18.6396
 31
0.0
  0
LINE
  8
0
 62
     0
 10
7.36714
 20
18.6396
 30
0.0
 11
6.6805
 21
18.3021
 31
0.0
  0
LINE
  8
0
 62
     0
 10
6.6805
 20
18.3021
 30
0.0
 11
6.02686
 21
17.9208
 31
0.0
  0
LINE
  8
0
 62
     0
 10
6.02686
 20
17.9208
 30
0.0
 11
5.40619
 21
17.4957
 31
0.0
  0
LINE
  8
0
 62
     0
 10
5.40619
 20
17.4957
 30
0.0
 11
4.81853
 21
17.0268
 31
0.0
  0
LINE
  8
0
 62
     0
 10
4.81853
 20
17.0268
 30
0.0
 11
4.26389
 21
16.5139
 31
0.0
  0
LINE
  8
0
 62
     0
 10
4.26389
 20
16.5139
 30
0.0
 11
3.96821
 21
16.2049
 31
0.0
  0
LINE
  8
0
 62
     0
 10
3.96821
 20
16.2049
 30
0.0
 11
3.70269
 21
15.8958
 31
0.0
  0
LINE
  8
0
 62
     0
 10
3.70269
 20
15.8958
 30
0.0
 11
3.46733
 21
15.5868
 31
0.0
  0
LINE
  8
0
 62
     0
 10
3.46733
 20
15.5868
 30
0.0
 11
3.26215
 21
15.2778
 31
0.0
  0
LINE
  8
0
 62
     0
 10
3.26215
 20
15.2778
 30
0.0
 11
3.08712
 21
14.9688
 31
0.0
  0
LINE
  8
0
 62
     0
 10
3.08712
 20
14.9688
 30
0.0
 11
2.94228
 21
14.6597
 31
0.0
  0
LINE
  8
0
 62
     0
 10
2.94228
 20
14.6597
 30
0.0
 11
2.82758
 21
14.3507
 31
0.0
  0
LINE
  8
0
 62
     0
 10
2.82758
 20
14.3507
 30
0.0
 11
2.74306
 21
14.0417
 31
0.0
  0
LINE
  8
0
 62
     0
 10
2.74306
 20
14.0417
 30
0.0
 11
2.68869
 21
13.7326
 31
0.0
  0
LINE
  8
0
 62
     0
 10
2.68869
 20
13.7326
 30
0.0
 11
2.6645
 21
13.4236
 31
0.0
  0
LINE
  8
0
 62
     0
 10
2.6645
 20
13.4236
 30
0.0
 11
2.67046
 21
13.1146
 31
0.0
  0
LINE
  8
0
 62
     0
 10
2.67046
 20
13.1146
 30
0.0
 11
2.7066
 21
12.8056
 31
0.0
  0
LINE
  8
0
 62
     0
 10
2.7066
 20
12.8056
 30
0.0
 11
2.77289
 21
12.4966
 31
0.0
  0
LINE
  8
0
 62
     0
 10
2.77289
 20
12.4966
 30
0.0
 11
2.86936
 21
12.1876
 31
0.0
  0
LINE
  8
0
 62
     0
 10
2.86936
 20
12.1876
 30
0.0
 11
2.99599
 21
11.8785
 31
0.0
  0
LINE
  8
0
 62
     0
 10
2.99599
 20
11.8785
 30
0.0
 11
3.15278
 21
11.5694
 31
0.0
  0
LINE
  8
0
 62
     0
 10
3.15278
 20
11.5694
 30
0.0
 11
3.43838
 21
11.1355
 31
0.0
  0
LINE
  8
0
 62
     0
 10
3.43838
 20
11.1355
 30
0.0
 11
3.79514
 21
10.7362
 31
0.0
  0
LINE
  8
0
 62
     0
 10
3.79514
 20
10.7362
 30
0.0
 11
4.2231
 21
10.3716
 31
0.0
  0
LINE
  8
0
 62
     0
 10
4.2231
 20
10.3716
 30
0.0
 11
4.72222
 21
10.0417
 31
0.0
  0
LINE
  8
0
 62
     0
 10
4.72222
 20
10.0417
 30
0.0
 11
4.89794
 21
9.94185
 31
0.0
  0
LINE
  8
0
 62
     0
 10
4.89794
 20
9.94185
 30
0.0
 11
5.0989
 21
9.83681
 31
0.0
  0
LINE
  8
0
 62
     0
 10
5.0989
 20
9.83681
 30
0.0
 11
5.32503
 21
9.72657
 31
0.0
  0
LINE
  8
0
 62
     0
 10
5.32503
 20
9.72657
 30
0.0
 11
5.57633
 21
9.61111
 31
0.0
  0
LINE
  8
0
 62
     0
 10
5.57633
 20
9.61111
 30
0.0
 11
5.85281
 21
9.4905
 31
0.0
  0
LINE
  8
0
 62
     0
 10
5.85281
 20
9.4905
 30
0.0
 11
6.15446
 21
9.36464
 31
0.0
  0
LINE
  8
0
 62
     0
 10
6.15446
 20
9.36464
 30
0.0
 11
6.48128
 21
9.23356
 31
0.0
  0
LINE
  8
0
 62
     0
 10
6.48128
 20
9.23356
 30
0.0
 11
6.83333
 21
9.09722
 31
0.0
  0
LINE
  8
0
 62
     0
 10
6.83333
 20
9.09722
 30
0.0
 11
7.5466
 21
8.80925
 31
0.0
  0
LINE
  8
0
 62
     0
 10
7.5466
 20
8.80925
 30
0.0
 11
8.19353
 21
8.51476
 31
0.0
  0
LINE
  8
0
 62
     0
 10
8.19353
 20
8.51476
 30
0.0
 11
8.77403
 21
8.21376
 31
0.0
  0
LINE
  8
0
 62
     0
 10
8.77403
 20
8.21376
 30
0.0
 11
9.28819
 21
7.90625
 31
0.0
  0
LINE
  8
0
 62
     0
 10
9.28819
 20
7.90625
 30
0.0
 11
9.73589
 21
7.59229
 31
0.0
  0
LINE
  8
0
 62
     0
 10
9.73589
 20
7.59229
 30
0.0
 11
10.1172
 21
7.27175
 31
0.0
  0
LINE
  8
0
 62
     0
 10
10.1172
 20
7.27175
 30
0.0
 11
10.4321
 21
6.94472
 31
0.0
  0
LINE
  8
0
 62
     0
 10
10.4321
 20
6.94472
 30
0.0
 11
10.6806
 21
6.61111
 31
0.0
  0
LINE
  8
0
 62
     0
 10
10.6806
 20
6.61111
 30
0.0
 11
10.9197
 21
6.16385
 31
0.0
  0
LINE
  8
0
 62
     0
 10
10.9197
 20
6.16385
 30
0.0
 11
11.0677
 21
5.71789
 31
0.0
  0
LINE
  8
0
 62
     0
 10
11.0677
 20
5.71789
 30
0.0
 11
11.1245
 21
5.27322
 31
0.0
  0
LINE
  8
0
 62
     0
 10
11.1245
 20
5.27322
 30
0.0
 11
11.0902
 21
4.82986
 31
0.0
  0
LINE
  8
0
 62
     0
 10
11.0902
 20
4.82986
 30
0.0
 11
10.9648
 21
4.38781
 31
0.0
  0
LINE
  8
0
 62
     0
 10
10.9648
 20
4.38781
 30
0.0
 11
10.7482
 21
3.94706
 31
0.0
  0
LINE
  8
0
 62
     0
 10
10.7482
 20
3.94706
 30
0.0
 11
10.4405
 21
3.5076
 31
0.0
  0
LINE
  8
0
 62
     0
 10
10.4405
 20
3.5076
 30
0.0
 11
10.0417
 21
3.06944
 31
0.0
  0
LINE
  8
0
 62
     0
 10
10.0417
 20
3.06944
 30
0.0
 11
9.66276
 21
2.72532
 31
0.0
  0
LINE
  8
0
 62
     0
 10
9.66276
 20
2.72532
 30
0.0
 11
9.2691
 21
2.41499
 31
0.0
  0
LINE
  8
0
 62
     0
 10
9.2691
 20
2.41499
 30
0.0
 11
8.86068
 21
2.13851
 31
0.0
  0
LINE
  8
0
 62
     0
 10
8.86068
 20
2.13851
 30
0.0
 11
8.4375
 21
1.89583
 31
0.0
  0
LINE
  8
0
 62
     0
 10
8.4375
 20
1.89583
 30
0.0
 11
7.99957
 21
1.68707
 31
0.0
  0
LINE
  8
0
 62
     0
 10
7.99957
 20
1.68707
 30
0.0
 11
7.54688
 21
1.51215
 31
0.0
  0
LINE
  8
0
 62
     0
 10
7.54688
 20
1.51215
 30
0.0
 11
7.07943
 21
1.37109
 31
0.0
  0
LINE
  8
0
 62
     0
 10
7.07943
 20
1.37109
 30
0.0
 11
6.59722
 21
1.26389
 31
0.0
  0
LINE
  8
0
 62
     0
 10
6.59722
 20
1.26389
 30
0.0
 11
6.31467
 21
1.22309
 31
0.0
  0
LINE
  8
0
 62
     0
 10
6.31467
 20
1.22309
 30
0.0
 11
5.93924
 21
1.18403
 31
0.0
  0
LINE
  8
0
 62
     0
 10
5.93924
 20
1.18403
 30
0.0
 11
5.47092
 21
1.1467
 31
0.0
  0
LINE
  8
0
 62
     0
 10
5.47092
 20
1.1467
 30
0.0
 11
4.90972
 21
1.11111
 31
0.0
  0
LINE
  8
0
 62
     0
 10
4.90972
 20
1.11111
 30
0.0
 11
4.25564
 21
1.07726
 31
0.0
  0
LINE
  8
0
 62
     0
 10
4.25564
 20
1.07726
 30
0.0
 11
3.50868
 21
1.04514
 31
0.0
  0
LINE
  8
0
 62
     0
 10
3.50868
 20
1.04514
 30
0.0
 11
2.66883
 21
1.01476
 31
0.0
  0
LINE
  8
0
 62
     0
 10
2.66883
 20
1.01476
 30
0.0
 11
1.73611
 21
0.986111
 31
0.0
  0
LINE
  8
0
 62
     0
 10
1.73611
 20
0.986111
 30
0.0
 11
1.39578
 21
0.944444
 31
0.0
  0
LINE
  8
0
 62
     0
 10
1.39578
 20
0.944444
 30
0.0
 11
1.04161
 21
0.833333
 31
0.0
  0
LINE
  8
0
 62
     0
 10
1.04161
 20
0.833333
 30
0.0
 11
0.673557
 21
0.652778
 31
0.0
  0
LINE
  8
0
 62
     0
 10
0.673557
 20
0.652778
 30
0.0
 11
0.291667
 21
0.402778
 31
0.0
  0
LINE
  8
0
 62
     0
 10
0.291667
 20
0.402778
 30
0.0
 11
0.149251
 21
0.289985
 31
0.0
  0
LINE
  8
0
 62
     0
 10
0.149251
 20
0.289985
 30
0.0
 11
0.0555012
 21
0.1875
 31
0.0
  0
LINE
  8
0
 62
     0
 10
0.0555012
 20
0.1875
 30
0.0
 11
0.0103624
 21
0.0954861
 31
0.0
  0
LINE
  8
0
 62
     0
 10
0.0103624
 20
0.0954861
 30
0.0
 11
0.0138889
 21
0.0138889
 31
0.0
  0
LINE
  8
0
 62
     0
 10
0.0138889
 20
0.0138889
 30
0.0
 11
0.0755208
 21
-0.0581597
 31
0.0
  0
LINE
  8
0
 62
     0
 10
0.0755208
 20
-0.0581597
 30
0.0
 11
0.204861
 21
-0.107639
 31
0.0
  0
LINE
  8
0
 62
     0
 10
0.204861
 20
-0.107639
 30
0.0
 11
0.401856
 21
-0.134549
 31
0.0
  0
LINE
  8
0
 62
     0
 10
0.401856
 20
-0.134549
 30
0.0
 11
0.666667
 21
-0.138889
 31
0.0
  0
LINE
  8
0
 62
     0
 10
0.666667
 20
-0.138889
 30
0.0
 11
1.85394
 21
-0.0986871
 31
0.0
  0
LINE
  8
0
 62
     0
 10
1.85394
 20
-0.0986871
 30
0.0
 11
2.95053
 21
-0.0476887
 31
0.0
  0
LINE
  8
0
 62
     0
 10
2.95053
 20
-0.0476887
 30
0.0
 11
3.95638
 21
0.0141601
 31
0.0
  0
LINE
  8
0
 62
     0
 10
3.95638
 20
0.0141601
 30
0.0
 11
4.87153
 21
0.0868599
 31
0.0
  0
LINE
  8
0
 62
     0
 10
4.87153
 20
0.0868599
 30
0.0
 11
5.69596
 21
0.17041
 31
0.0
  0
LINE
  8
0
 62
     0
 10
5.69596
 20
0.17041
 30
0.0
 11
6.42969
 21
0.264811
 31
0.0
  0
LINE
  8
0
 62
     0
 10
6.42969
 20
0.264811
 30
0.0
 11
7.07269
 21
0.370063
 31
0.0
  0
LINE
  8
0
 62
     0
 10
7.07269
 20
0.370063
 30
0.0
 11
7.625
 21
0.486111
 31
0.0
  0
LINE
  8
0
 62
     0
 10
7.625
 20
0.486111
 30
0.0
 11
8.11203
 21
0.609972
 31
0.0
  0
LINE
  8
0
 62
     0
 10
8.11203
 20
0.609972
 30
0.0
 11
8.58008
 21
0.748753
 31
0.0
  0
LINE
  8
0
 62
     0
 10
8.58008
 20
0.748753
 30
0.0
 11
9.02914
 21
0.902507
 31
0.0
  0
LINE
  8
0
 62
     0
 10
9.02914
 20
0.902507
 30
0.0
 11
9.45921
 21
1.07123
 31
0.0
  0
LINE
  8
0
 62
     0
 10
9.45921
 20
1.07123
 30
0.0
 11
9.87028
 21
1.25494
 31
0.0
  0
LINE
  8
0
 62
     0
 10
9.87028
 20
1.25494
 30
0.0
 11
10.2624
 21
1.45361
 31
0.0
  0
LINE
  8
0
 62
     0
 10
10.2624
 20
1.45361
 30
0.0
 11
10.6355
 21
1.66726
 31
0.0
  0
LINE
  8
0
 62
     0
 10
10.6355
 20
1.66726
 30
0.0
 11
10.9896
 21
1.89583
 31
0.0
  0
LINE
  8
0
 62
     0
 10
10.9896
 20
1.89583
 30
0.0
 11
11.3247
 21
2.13943
 31
0.0
  0
LINE
  8
0
 62
     0
 10
11.3247
 20
2.13943
 30
0.0
 11
11.6408
 21
2.398
 31
0.0
  0
LINE
  8
0
 62
     0
 10
11.6408
 20
2.398
 30
0.0
 11
11.938
 21
2.67156
 31
0.0
  0
LINE
  8
0
 62
     0
 10
11.938
 20
2.67156
 30
0.0
 11
12.2162
 21
2.96007
 31
0.0
  0
LINE
  8
0
 62
     0
 10
12.2162
 20
2.96007
 30
0.0
 11
12.4753
 21
3.26357
 31
0.0
  0
LINE
  8
0
 62
     0
 10
12.4753
 20
3.26357
 30
0.0
 11
12.7155
 21
3.58203
 31
0.0
  0
LINE
  8
0
 62
     0
 10
12.7155
 20
3.58203
 30
0.0
 11
12.9367
 21
3.91547
 31
0.0
  0
LINE
  8
0
 62
     0
 10
12.9367
 20
3.91547
 30
0.0
 11
13.1389
 21
4.26389
 31
0.0
  0
LINE
  8
0
 62
     0
 10
13.1389
 20
4.26389
 30
0.0
 11
13.3344
 21
4.68278
 31
0.0
  0
LINE
  8
0
 62
     0
 10
13.3344
 20
4.68278
 30
0.0
 11
13.4696
 21
5.09901
 31
0.0
  0
LINE
  8
0
 62
     0
 10
13.4696
 20
5.09901
 30
0.0
 11
13.5444
 21
5.51264
 31
0.0
  0
LINE
  8
0
 62
     0
 10
13.5444
 20
5.51264
 30
0.0
 11
13.559
 21
5.92361
 31
0.0
  0
LINE
  8
0
 62
     0
 10
13.559
 20
5.92361
 30
0.0
 11
13.5132
 21
6.33203
 31
0.0
  0
LINE
  8
0
 62
     0
 10
13.5132
 20
6.33203
 30
0.0
 11
13.4071
 21
6.73785
 31
0.0
  0
LINE
  8
0
 62
     0
 10
13.4071
 20
6.73785
 30
0.0
 11
13.2406
 21
7.14106
 31
0.0
  0
LINE
  8
0
 62
     0
 10
13.2406
 20
7.14106
 30
0.0
 11
13.0139
 21
7.54167
 31
0.0
  0
LINE
  8
0
 62
     0
 10
13.0139
 20
7.54167
 30
0.0
 11
12.7871
 21
7.86415
 31
0.0
  0
LINE
  8
0
 62
     0
 10
12.7871
 20
7.86415
 30
0.0
 11
12.5303
 21
8.17188
 31
0.0
  0
LINE
  8
0
 62
     0
 10
12.5303
 20
8.17188
 30
0.0
 11
12.2437
 21
8.46485
 31
0.0
  0
LINE
  8
0
 62
     0
 10
12.2437
 20
8.46485
 30
0.0
 11
11.9271
 21
8.74306
 31
0.0
  0
LINE
  8
0
 62
     0
 10
11.9271
 20
8.74306
 30
0.0
 11
11.5805
 21
9.00651
 31
0.0
  0
LINE
  8
0
 62
     0
 10
11.5805
 20
9.00651
 30
0.0
 11
11.204
 21
9.25521
 31
0.0
  0
LINE
  8
0
 62
     0
 10
11.204
 20
9.25521
 30
0.0
 11
10.7975
 21
9.48915
 31
0.0
  0
LINE
  8
0
 62
     0
 10
10.7975
 20
9.48915
 30
0.0
 11
10.3611
 21
9.70833
 31
0.0
  0
LINE
  8
0
 62
     0
 10
10.3611
 20
9.70833
 30
0.0
 11
10.1276
 21
9.81256
 31
0.0
  0
LINE
  8
0
 62
     0
 10
10.1276
 20
9.81256
 30
0.0
 11
9.81597
 21
9.9445
 31
0.0
  0
LINE
  8
0
 62
     0
 10
9.81597
 20
9.9445
 30
0.0
 11
9.42622
 21
10.1042
 31
0.0
  0
LINE
  8
0
 62
     0
 10
9.42622
 20
10.1042
 30
0.0
 11
8.95833
 21
10.2917
 31
0.0
  0
ENDSEC
  0
EOF
