  0
SECTION
  2
HEADER
  9
$ACADVER
  1
AC1009
  9
$EXTMIN
 10
0.0
 20
0.0
 30
0.0
  9
$EXTMAX
 10
1000.0
 20
1000.0
 30
0.0
  9
$FILLMODE
 70
 0
  9
$SPLFRAME
 70
 1
  0
ENDSEC
  0
SECTION
  2
TABLES
  0
TABLE
  2
LAYER
 70
1
  0
LAYER
  2
0
 70
     0
 62
     7
  6
CONTINUOUS
  0
ENDTAB
  0
ENDSEC
  0
SECTION
  2
ENTITIES
  0
LINE
  8
0
 62
     0
 10
3.80556
 20
13.9583
 30
0.0
 11
3.78554
 21
14.0278
 31
0.0
  0
LINE
  8
0
 62
     0
 10
3.78554
 20
14.0278
 30
0.0
 11
3.72564
 21
14.0833
 31
0.0
  0
LINE
  8
0
 62
     0
 10
3.72564
 20
14.0833
 30
0.0
 11
3.62582
 21
14.125
 31
0.0
  0
LINE
  8
0
 62
     0
 10
3.62582
 20
14.125
 30
0.0
 11
3.48611
 21
14.1528
 31
0.0
  0
LINE
  8
0
 62
     0
 10
3.48611
 20
14.1528
 30
0.0
 11
3.16661
 21
14.1563
 31
0.0
  0
LINE
  8
0
 62
     0
 10
3.16661
 20
14.1563
 30
0.0
 11
2.79167
 21
14.1111
 31
0.0
  0
LINE
  8
0
 62
     0
 10
2.79167
 20
14.1111
 30
0.0
 11
2.55729
 21
14.059
 31
0.0
  0
LINE
  8
0
 62
     0
 10
2.55729
 20
14.059
 30
0.0
 11
2.35417
 21
14
 31
0.0
  0
LINE
  8
0
 62
     0
 10
2.35417
 20
14
 30
0.0
 11
2.18229
 21
13.934
 31
0.0
  0
LINE
  8
0
 62
     0
 10
2.18229
 20
13.934
 30
0.0
 11
2.04167
 21
13.8612
 31
0.0
  0
LINE
  8
0
 62
     0
 10
2.04167
 20
13.8612
 30
0.0
 11
1.93229
 21
13.7813
 31
0.0
  0
LINE
  8
0
 62
     0
 10
1.93229
 20
13.7813
 30
0.0
 11
1.85417
 21
13.6945
 31
0.0
  0
LINE
  8
0
 62
     0
 10
1.85417
 20
13.6945
 30
0.0
 11
1.80729
 21
13.6008
 31
0.0
  0
LINE
  8
0
 62
     0
 10
1.80729
 20
13.6008
 30
0.0
 11
1.79167
 21
13.5
 31
0.0
  0
LINE
  8
0
 62
     0
 10
1.79167
 20
13.5
 30
0.0
 11
1.79167
 21
11.0278
 31
0.0
  0
LINE
  8
0
 62
     0
 10
1.79167
 20
11.0278
 30
0.0
 11
1.81071
 21
10.9644
 31
0.0
  0
LINE
  8
0
 62
     0
 10
1.81071
 20
10.9644
 30
0.0
 11
1.868
 21
10.9132
 31
0.0
  0
LINE
  8
0
 62
     0
 10
1.868
 20
10.9132
 30
0.0
 11
1.96349
 21
10.8741
 31
0.0
  0
LINE
  8
0
 62
     0
 10
1.96349
 20
10.8741
 30
0.0
 11
2.09722
 21
10.8472
 31
0.0
  0
LINE
  8
0
 62
     0
 10
2.09722
 20
10.8472
 30
0.0
 11
2.42361
 21
10.8438
 31
0.0
  0
LINE
  8
0
 62
     0
 10
2.42361
 20
10.8438
 30
0.0
 11
2.79167
 21
10.8889
 31
0.0
  0
LINE
  8
0
 62
     0
 10
2.79167
 20
10.8889
 30
0.0
 11
3.02929
 21
10.941
 31
0.0
  0
LINE
  8
0
 62
     0
 10
3.02929
 20
10.941
 30
0.0
 11
3.23525
 21
11
 31
0.0
  0
LINE
  8
0
 62
     0
 10
3.23525
 20
11
 30
0.0
 11
3.4095
 21
11.066
 31
0.0
  0
LINE
  8
0
 62
     0
 10
3.4095
 20
11.066
 30
0.0
 11
3.55208
 21
11.1389
 31
0.0
  0
LINE
  8
0
 62
     0
 10
3.55208
 20
11.1389
 30
0.0
 11
3.66297
 21
11.2188
 31
0.0
  0
LINE
  8
0
 62
     0
 10
3.66297
 20
11.2188
 30
0.0
 11
3.74219
 21
11.3056
 31
0.0
  0
LINE
  8
0
 62
     0
 10
3.74219
 20
11.3056
 30
0.0
 11
3.78971
 21
11.3993
 31
0.0
  0
LINE
  8
0
 62
     0
 10
3.78971
 20
11.3993
 30
0.0
 11
3.80556
 21
11.5
 31
0.0
  0
LINE
  8
0
 62
     0
 10
3.80556
 20
11.5
 30
0.0
 11
3.80556
 21
13.9583
 31
0.0
  0
LINE
  8
0
 62
     0
 10
3.94444
 20
2.31944
 30
0.0
 11
3.92356
 21
2.48958
 31
0.0
  0
LINE
  8
0
 62
     0
 10
3.92356
 20
2.48958
 30
0.0
 11
3.91661
 21
2.63889
 31
0.0
  0
LINE
  8
0
 62
     0
 10
3.91661
 20
2.63889
 30
0.0
 11
3.92356
 21
2.76742
 31
0.0
  0
LINE
  8
0
 62
     0
 10
3.92356
 20
2.76742
 30
0.0
 11
3.94444
 21
2.875
 31
0.0
  0
LINE
  8
0
 62
     0
 10
3.94444
 20
2.875
 30
0.0
 11
3.95828
 21
3.01654
 31
0.0
  0
LINE
  8
0
 62
     0
 10
3.95828
 20
3.01654
 30
0.0
 11
3.9305
 21
3.13547
 31
0.0
  0
LINE
  8
0
 62
     0
 10
3.9305
 20
3.13547
 30
0.0
 11
3.86106
 21
3.23182
 31
0.0
  0
LINE
  8
0
 62
     0
 10
3.86106
 20
3.23182
 30
0.0
 11
3.75
 21
3.30556
 31
0.0
  0
LINE
  8
0
 62
     0
 10
3.75
 20
3.30556
 30
0.0
 11
3.62067
 21
3.35157
 31
0.0
  0
LINE
  8
0
 62
     0
 10
3.62067
 20
3.35157
 30
0.0
 11
3.46875
 21
3.37847
 31
0.0
  0
LINE
  8
0
 62
     0
 10
3.46875
 20
3.37847
 30
0.0
 11
3.29428
 21
3.38629
 31
0.0
  0
LINE
  8
0
 62
     0
 10
3.29428
 20
3.38629
 30
0.0
 11
3.09722
 21
3.375
 31
0.0
  0
LINE
  8
0
 62
     0
 10
3.09722
 20
3.375
 30
0.0
 11
2.85672
 21
3.34071
 31
0.0
  0
LINE
  8
0
 62
     0
 10
2.85672
 20
3.34071
 30
0.0
 11
2.64231
 21
3.2934
 31
0.0
  0
LINE
  8
0
 62
     0
 10
2.64231
 20
3.2934
 30
0.0
 11
2.45394
 21
3.23307
 31
0.0
  0
LINE
  8
0
 62
     0
 10
2.45394
 20
3.23307
 30
0.0
 11
2.29167
 21
3.15972
 31
0.0
  0
LINE
  8
0
 62
     0
 10
2.29167
 20
3.15972
 30
0.0
 11
2.15539
 21
3.07335
 31
0.0
  0
LINE
  8
0
 62
     0
 10
2.15539
 20
3.07335
 30
0.0
 11
2.04514
 21
2.97396
 31
0.0
  0
LINE
  8
0
 62
     0
 10
2.04514
 20
2.97396
 30
0.0
 11
1.96094
 21
2.86154
 31
0.0
  0
LINE
  8
0
 62
     0
 10
1.96094
 20
2.86154
 30
0.0
 11
1.90278
 21
2.73611
 31
0.0
  0
LINE
  8
0
 62
     0
 10
1.90278
 20
2.73611
 30
0.0
 11
1.88536
 21
2.70492
 31
0.0
  0
LINE
  8
0
 62
     0
 10
1.88536
 20
2.70492
 30
0.0
 11
1.86111
 21
2.66667
 31
0.0
  0
LINE
  8
0
 62
     0
 10
1.86111
 20
2.66667
 30
0.0
 11
1.83333
 21
2.59722
 31
0.0
  0
LINE
  8
0
 62
     0
 10
1.83333
 20
2.59722
 30
0.0
 11
1.7934
 21
2.47136
 31
0.0
  0
LINE
  8
0
 62
     0
 10
1.7934
 20
2.47136
 30
0.0
 11
1.78472
 21
2.35764
 31
0.0
  0
LINE
  8
0
 62
     0
 10
1.78472
 20
2.35764
 30
0.0
 11
1.80724
 21
2.25608
 31
0.0
  0
LINE
  8
0
 62
     0
 10
1.80724
 20
2.25608
 30
0.0
 11
1.86111
 21
2.16667
 31
0.0
  0
LINE
  8
0
 62
     0
 10
1.86111
 20
2.16667
 30
0.0
 11
1.86632
 21
2.09554
 31
0.0
  0
LINE
  8
0
 62
     0
 10
1.86632
 20
2.09554
 30
0.0
 11
1.88194
 21
1.96533
 31
0.0
  0
LINE
  8
0
 62
     0
 10
1.88194
 20
1.96533
 30
0.0
 11
1.90799
 21
1.7761
 31
0.0
  0
LINE
  8
0
 62
     0
 10
1.90799
 20
1.7761
 30
0.0
 11
1.94444
 21
1.52778
 31
0.0
  0
LINE
  8
0
 62
     0
 10
1.94444
 20
1.52778
 30
0.0
 11
1.96701
 21
1.34288
 31
0.0
  0
LINE
  8
0
 62
     0
 10
1.96701
 20
1.34288
 30
0.0
 11
1.97917
 21
1.17708
 31
0.0
  0
LINE
  8
0
 62
     0
 10
1.97917
 20
1.17708
 30
0.0
 11
1.9809
 21
1.03038
 31
0.0
  0
LINE
  8
0
 62
     0
 10
1.9809
 20
1.03038
 30
0.0
 11
1.97222
 21
0.902778
 31
0.0
  0
LINE
  8
0
 62
     0
 10
1.97222
 20
0.902778
 30
0.0
 11
1.93099
 21
0.564236
 31
0.0
  0
LINE
  8
0
 62
     0
 10
1.93099
 20
0.564236
 30
0.0
 11
1.86979
 21
0.256944
 31
0.0
  0
LINE
  8
0
 62
     0
 10
1.86979
 20
0.256944
 30
0.0
 11
1.78863
 21
-0.0190972
 31
0.0
  0
LINE
  8
0
 62
     0
 10
1.78863
 20
-0.0190972
 30
0.0
 11
1.6875
 21
-0.263889
 31
0.0
  0
LINE
  8
0
 62
     0
 10
1.6875
 20
-0.263889
 30
0.0
 11
1.5664
 21
-0.477431
 31
0.0
  0
LINE
  8
0
 62
     0
 10
1.5664
 20
-0.477431
 30
0.0
 11
1.42535
 21
-0.659722
 31
0.0
  0
LINE
  8
0
 62
     0
 10
1.42535
 20
-0.659722
 30
0.0
 11
1.26432
 21
-0.810764
 31
0.0
  0
LINE
  8
0
 62
     0
 10
1.26432
 20
-0.810764
 30
0.0
 11
1.08333
 21
-0.930556
 31
0.0
  0
LINE
  8
0
 62
     0
 10
1.08333
 20
-0.930556
 30
0.0
 11
0.958333
 21
-1.01383
 31
0.0
  0
LINE
  8
0
 62
     0
 10
0.958333
 20
-1.01383
 30
0.0
 11
0.861111
 21
-1.11106
 31
0.0
  0
LINE
  8
0
 62
     0
 10
0.861111
 20
-1.11106
 30
0.0
 11
0.791667
 21
-1.22217
 31
0.0
  0
LINE
  8
0
 62
     0
 10
0.791667
 20
-1.22217
 30
0.0
 11
0.75
 21
-1.34722
 31
0.0
  0
LINE
  8
0
 62
     0
 10
0.75
 20
-1.34722
 30
0.0
 11
0.737847
 21
-1.47911
 31
0.0
  0
LINE
  8
0
 62
     0
 10
0.737847
 20
-1.47911
 30
0.0
 11
0.770833
 21
-1.59717
 31
0.0
  0
LINE
  8
0
 62
     0
 10
0.770833
 20
-1.59717
 30
0.0
 11
0.848958
 21
-1.70133
 31
0.0
  0
LINE
  8
0
 62
     0
 10
0.848958
 20
-1.70133
 30
0.0
 11
0.972222
 21
-1.79167
 31
0.0
  0
LINE
  8
0
 62
     0
 10
0.972222
 20
-1.79167
 30
0.0
 11
1.12842
 21
-1.86262
 31
0.0
  0
LINE
  8
0
 62
     0
 10
1.12842
 20
-1.86262
 30
0.0
 11
1.29161
 21
-1.90886
 31
0.0
  0
LINE
  8
0
 62
     0
 10
1.29161
 20
-1.90886
 30
0.0
 11
1.46175
 21
-1.93033
 31
0.0
  0
LINE
  8
0
 62
     0
 10
1.46175
 20
-1.93033
 30
0.0
 11
1.63883
 21
-1.92708
 31
0.0
  0
LINE
  8
0
 62
     0
 10
1.63883
 20
-1.92708
 30
0.0
 11
1.82286
 21
-1.89908
 31
0.0
  0
LINE
  8
0
 62
     0
 10
1.82286
 20
-1.89908
 30
0.0
 11
2.01383
 21
-1.84636
 31
0.0
  0
LINE
  8
0
 62
     0
 10
2.01383
 20
-1.84636
 30
0.0
 11
2.21175
 21
-1.76888
 31
0.0
  0
LINE
  8
0
 62
     0
 10
2.21175
 20
-1.76888
 30
0.0
 11
2.41667
 21
-1.66667
 31
0.0
  0
LINE
  8
0
 62
     0
 10
2.41667
 20
-1.66667
 30
0.0
 11
2.68311
 21
-1.49935
 31
0.0
  0
LINE
  8
0
 62
     0
 10
2.68311
 20
-1.49935
 30
0.0
 11
2.92703
 21
-1.30295
 31
0.0
  0
LINE
  8
0
 62
     0
 10
2.92703
 20
-1.30295
 30
0.0
 11
3.14839
 21
-1.07747
 31
0.0
  0
LINE
  8
0
 62
     0
 10
3.14839
 20
-1.07747
 30
0.0
 11
3.34717
 21
-0.822917
 31
0.0
  0
LINE
  8
0
 62
     0
 10
3.34717
 20
-0.822917
 30
0.0
 11
3.52339
 21
-0.539279
 31
0.0
  0
LINE
  8
0
 62
     0
 10
3.52339
 20
-0.539279
 30
0.0
 11
3.67703
 21
-0.226563
 31
0.0
  0
LINE
  8
0
 62
     0
 10
3.67703
 20
-0.226563
 30
0.0
 11
3.80811
 21
0.115234
 31
0.0
  0
LINE
  8
0
 62
     0
 10
3.80811
 20
0.115234
 30
0.0
 11
3.91667
 21
0.486111
 31
0.0
  0
LINE
  8
0
 62
     0
 10
3.91667
 20
0.486111
 30
0.0
 11
3.97657
 21
0.769151
 31
0.0
  0
LINE
  8
0
 62
     0
 10
3.97657
 20
0.769151
 30
0.0
 11
4.01736
 21
1.07644
 31
0.0
  0
LINE
  8
0
 62
     0
 10
4.01736
 20
1.07644
 30
0.0
 11
4.03907
 21
1.40804
 31
0.0
  0
LINE
  8
0
 62
     0
 10
4.03907
 20
1.40804
 30
0.0
 11
4.04167
 21
1.76389
 31
0.0
  0
LINE
  8
0
 62
     0
 10
4.04167
 20
1.76389
 30
0.0
 11
4.03033
 21
1.82986
 31
0.0
  0
LINE
  8
0
 62
     0
 10
4.03033
 20
1.82986
 30
0.0
 11
4.01036
 21
1.94444
 31
0.0
  0
LINE
  8
0
 62
     0
 10
4.01036
 20
1.94444
 30
0.0
 11
3.98172
 21
2.10764
 31
0.0
  0
LINE
  8
0
 62
     0
 10
3.98172
 20
2.10764
 30
0.0
 11
3.94444
 21
2.31944
 31
0.0
  0
ENDSEC
  0
EOF
