  0
SECTION
  2
HEADER
  9
$ACADVER
  1
AC1009
  9
$EXTMIN
 10
0.0
 20
0.0
 30
0.0
  9
$EXTMAX
 10
1000.0
 20
1000.0
 30
0.0
  9
$FILLMODE
 70
 0
  9
$SPLFRAME
 70
 1
  0
ENDSEC
  0
SECTION
  2
TABLES
  0
TABLE
  2
LAYER
 70
1
  0
LAYER
  2
0
 70
     0
 62
     7
  6
CONTINUOUS
  0
ENDTAB
  0
ENDSEC
  0
SECTION
  2
ENTITIES
  0
LINE
  8
0
 62
     0
 10
1.70833
 20
19.25
 30
0.0
 11
1.3915
 21
19.1867
 31
0.0
  0
LINE
  8
0
 62
     0
 10
1.3915
 20
19.1867
 30
0.0
 11
1.05208
 21
19.066
 31
0.0
  0
LINE
  8
0
 62
     0
 10
1.05208
 20
19.066
 30
0.0
 11
0.690104
 21
18.8881
 31
0.0
  0
LINE
  8
0
 62
     0
 10
0.690104
 20
18.8881
 30
0.0
 11
0.305556
 21
18.6528
 31
0.0
  0
LINE
  8
0
 62
     0
 10
0.305556
 20
18.6528
 30
0.0
 11
0.162326
 21
18.5486
 31
0.0
  0
LINE
  8
0
 62
     0
 10
0.162326
 20
18.5486
 30
0.0
 11
0.0659722
 21
18.4583
 31
0.0
  0
LINE
  8
0
 62
     0
 10
0.0659722
 20
18.4583
 30
0.0
 11
0.0164931
 21
18.3819
 31
0.0
  0
LINE
  8
0
 62
     0
 10
0.0164931
 20
18.3819
 30
0.0
 11
0.0138889
 21
18.3194
 31
0.0
  0
LINE
  8
0
 62
     0
 10
0.0138889
 20
18.3194
 30
0.0
 11
0.0677083
 21
18.2622
 31
0.0
  0
LINE
  8
0
 62
     0
 10
0.0677083
 20
18.2622
 30
0.0
 11
0.1875
 21
18.2292
 31
0.0
  0
LINE
  8
0
 62
     0
 10
0.1875
 20
18.2292
 30
0.0
 11
0.373264
 21
18.2206
 31
0.0
  0
LINE
  8
0
 62
     0
 10
0.373264
 20
18.2206
 30
0.0
 11
0.625
 21
18.2361
 31
0.0
  0
LINE
  8
0
 62
     0
 10
0.625
 20
18.2361
 30
0.0
 11
1.19564
 21
18.2967
 31
0.0
  0
LINE
  8
0
 62
     0
 10
1.19564
 20
18.2967
 30
0.0
 11
1.73063
 21
18.3535
 31
0.0
  0
LINE
  8
0
 62
     0
 10
1.73063
 20
18.3535
 30
0.0
 11
2.22993
 21
18.4065
 31
0.0
  0
LINE
  8
0
 62
     0
 10
2.22993
 20
18.4065
 30
0.0
 11
2.69353
 21
18.4557
 31
0.0
  0
LINE
  8
0
 62
     0
 10
2.69353
 20
18.4557
 30
0.0
 11
3.12142
 21
18.5011
 31
0.0
  0
LINE
  8
0
 62
     0
 10
3.12142
 20
18.5011
 30
0.0
 11
3.51361
 21
18.5428
 31
0.0
  0
LINE
  8
0
 62
     0
 10
3.51361
 20
18.5428
 30
0.0
 11
3.87011
 21
18.5806
 31
0.0
  0
LINE
  8
0
 62
     0
 10
3.87011
 20
18.5806
 30
0.0
 11
4.19092
 21
18.6146
 31
0.0
  0
LINE
  8
0
 62
     0
 10
4.19092
 20
18.6146
 30
0.0
 11
4.47601
 21
18.6449
 31
0.0
  0
LINE
  8
0
 62
     0
 10
4.47601
 20
18.6449
 30
0.0
 11
4.72542
 21
18.6712
 31
0.0
  0
LINE
  8
0
 62
     0
 10
4.72542
 20
18.6712
 30
0.0
 11
4.93913
 21
18.6939
 31
0.0
  0
LINE
  8
0
 62
     0
 10
4.93913
 20
18.6939
 30
0.0
 11
5.11714
 21
18.7126
 31
0.0
  0
LINE
  8
0
 62
     0
 10
5.11714
 20
18.7126
 30
0.0
 11
5.25944
 21
18.7276
 31
0.0
  0
LINE
  8
0
 62
     0
 10
5.25944
 20
18.7276
 30
0.0
 11
5.36604
 21
18.7389
 31
0.0
  0
LINE
  8
0
 62
     0
 10
5.36604
 20
18.7389
 30
0.0
 11
5.43696
 21
18.7464
 31
0.0
  0
LINE
  8
0
 62
     0
 10
5.43696
 20
18.7464
 30
0.0
 11
5.47222
 21
18.75
 31
0.0
  0
LINE
  8
0
 62
     0
 10
5.47222
 20
18.75
 30
0.0
 11
5.50738
 21
18.7526
 31
0.0
  0
LINE
  8
0
 62
     0
 10
5.50738
 20
18.7526
 30
0.0
 11
5.57118
 21
18.7604
 31
0.0
  0
LINE
  8
0
 62
     0
 10
5.57118
 20
18.7604
 30
0.0
 11
5.66363
 21
18.7735
 31
0.0
  0
LINE
  8
0
 62
     0
 10
5.66363
 20
18.7735
 30
0.0
 11
5.78472
 21
18.7917
 31
0.0
  0
LINE
  8
0
 62
     0
 10
5.78472
 20
18.7917
 30
0.0
 11
5.93446
 21
18.8151
 31
0.0
  0
LINE
  8
0
 62
     0
 10
5.93446
 20
18.8151
 30
0.0
 11
6.11285
 21
18.8438
 31
0.0
  0
LINE
  8
0
 62
     0
 10
6.11285
 20
18.8438
 30
0.0
 11
6.31988
 21
18.8776
 31
0.0
  0
LINE
  8
0
 62
     0
 10
6.31988
 20
18.8776
 30
0.0
 11
6.55556
 21
18.9167
 31
0.0
  0
LINE
  8
0
 62
     0
 10
6.55556
 20
18.9167
 30
0.0
 11
6.95747
 21
18.9722
 31
0.0
  0
LINE
  8
0
 62
     0
 10
6.95747
 20
18.9722
 30
0.0
 11
7.31597
 21
19.0139
 31
0.0
  0
LINE
  8
0
 62
     0
 10
7.31597
 20
19.0139
 30
0.0
 11
7.63108
 21
19.0417
 31
0.0
  0
LINE
  8
0
 62
     0
 10
7.63108
 20
19.0417
 30
0.0
 11
7.90278
 21
19.0556
 31
0.0
  0
LINE
  8
0
 62
     0
 10
7.90278
 20
19.0556
 30
0.0
 11
8.26888
 21
19.0526
 31
0.0
  0
LINE
  8
0
 62
     0
 10
8.26888
 20
19.0526
 30
0.0
 11
8.56858
 21
19.0157
 31
0.0
  0
LINE
  8
0
 62
     0
 10
8.56858
 20
19.0157
 30
0.0
 11
8.80186
 21
18.945
 31
0.0
  0
LINE
  8
0
 62
     0
 10
8.80186
 20
18.945
 30
0.0
 11
8.96875
 21
18.8403
 31
0.0
  0
LINE
  8
0
 62
     0
 10
8.96875
 20
18.8403
 30
0.0
 11
9.06922
 21
18.7018
 31
0.0
  0
LINE
  8
0
 62
     0
 10
9.06922
 20
18.7018
 30
0.0
 11
9.10331
 21
18.5296
 31
0.0
  0
LINE
  8
0
 62
     0
 10
9.10331
 20
18.5296
 30
0.0
 11
9.07096
 21
18.3233
 31
0.0
  0
LINE
  8
0
 62
     0
 10
9.07096
 20
18.3233
 30
0.0
 11
8.97222
 21
18.0833
 31
0.0
  0
LINE
  8
0
 62
     0
 10
8.97222
 20
18.0833
 30
0.0
 11
8.83328
 21
17.8163
 31
0.0
  0
LINE
  8
0
 62
     0
 10
8.83328
 20
17.8163
 30
0.0
 11
8.67356
 21
17.5149
 31
0.0
  0
LINE
  8
0
 62
     0
 10
8.67356
 20
17.5149
 30
0.0
 11
8.493
 21
17.179
 31
0.0
  0
LINE
  8
0
 62
     0
 10
8.493
 20
17.179
 30
0.0
 11
8.29167
 21
16.809
 31
0.0
  0
LINE
  8
0
 62
     0
 10
8.29167
 20
16.809
 30
0.0
 11
8.06944
 21
16.4047
 31
0.0
  0
LINE
  8
0
 62
     0
 10
8.06944
 20
16.4047
 30
0.0
 11
7.82639
 21
15.9662
 31
0.0
  0
LINE
  8
0
 62
     0
 10
7.82639
 20
15.9662
 30
0.0
 11
7.5625
 21
15.4933
 31
0.0
  0
LINE
  8
0
 62
     0
 10
7.5625
 20
15.4933
 30
0.0
 11
7.27778
 21
14.9861
 31
0.0
  0
LINE
  8
0
 62
     0
 10
7.27778
 20
14.9861
 30
0.0
 11
7.00211
 21
14.494
 31
0.0
  0
LINE
  8
0
 62
     0
 10
7.00211
 20
14.494
 30
0.0
 11
6.74474
 21
14.0313
 31
0.0
  0
LINE
  8
0
 62
     0
 10
6.74474
 20
14.0313
 30
0.0
 11
6.50558
 21
13.5981
 31
0.0
  0
LINE
  8
0
 62
     0
 10
6.50558
 20
13.5981
 30
0.0
 11
6.28472
 21
13.1945
 31
0.0
  0
LINE
  8
0
 62
     0
 10
6.28472
 20
13.1945
 30
0.0
 11
6.08203
 21
12.8204
 31
0.0
  0
LINE
  8
0
 62
     0
 10
6.08203
 20
12.8204
 30
0.0
 11
5.89757
 21
12.4758
 31
0.0
  0
LINE
  8
0
 62
     0
 10
5.89757
 20
12.4758
 30
0.0
 11
5.73133
 21
12.1606
 31
0.0
  0
LINE
  8
0
 62
     0
 10
5.73133
 20
12.1606
 30
0.0
 11
5.58333
 21
11.875
 31
0.0
  0
LINE
  8
0
 62
     0
 10
5.58333
 20
11.875
 30
0.0
 11
5.45833
 21
11.6215
 31
0.0
  0
LINE
  8
0
 62
     0
 10
5.45833
 20
11.6215
 30
0.0
 11
5.30556
 21
11.3056
 31
0.0
  0
LINE
  8
0
 62
     0
 10
5.30556
 20
11.3056
 30
0.0
 11
4.97564
 21
11.2084
 31
0.0
  0
LINE
  8
0
 62
     0
 10
4.97564
 20
11.2084
 30
0.0
 11
4.68056
 21
11.0833
 31
0.0
  0
LINE
  8
0
 62
     0
 10
4.68056
 20
11.0833
 30
0.0
 11
4.44439
 21
10.9513
 31
0.0
  0
LINE
  8
0
 62
     0
 10
4.44439
 20
10.9513
 30
0.0
 11
4.23611
 21
10.7778
 31
0.0
  0
LINE
  8
0
 62
     0
 10
4.23611
 20
10.7778
 30
0.0
 11
4.15018
 21
10.665
 31
0.0
  0
LINE
  8
0
 62
     0
 10
4.15018
 20
10.665
 30
0.0
 11
4.14236
 21
10.5764
 31
0.0
  0
LINE
  8
0
 62
     0
 10
4.14236
 20
10.5764
 30
0.0
 11
4.21268
 21
10.5122
 31
0.0
  0
LINE
  8
0
 62
     0
 10
4.21268
 20
10.5122
 30
0.0
 11
4.36111
 21
10.4722
 31
0.0
  0
LINE
  8
0
 62
     0
 10
4.36111
 20
10.4722
 30
0.0
 11
4.42969
 21
10.4635
 31
0.0
  0
LINE
  8
0
 62
     0
 10
4.42969
 20
10.4635
 30
0.0
 11
4.53819
 21
10.4514
 31
0.0
  0
LINE
  8
0
 62
     0
 10
4.53819
 20
10.4514
 30
0.0
 11
4.68664
 21
10.4358
 31
0.0
  0
LINE
  8
0
 62
     0
 10
4.68664
 20
10.4358
 30
0.0
 11
4.875
 21
10.4167
 31
0.0
  0
LINE
  8
0
 62
     0
 10
4.875
 20
10.4167
 30
0.0
 11
4.52181
 21
9.61019
 31
0.0
  0
LINE
  8
0
 62
     0
 10
4.52181
 20
9.61019
 30
0.0
 11
4.21224
 21
8.82617
 31
0.0
  0
LINE
  8
0
 62
     0
 10
4.21224
 20
8.82617
 30
0.0
 11
3.94629
 21
8.06461
 31
0.0
  0
LINE
  8
0
 62
     0
 10
3.94629
 20
8.06461
 30
0.0
 11
3.72396
 21
7.32553
 31
0.0
  0
LINE
  8
0
 62
     0
 10
3.72396
 20
7.32553
 30
0.0
 11
3.54525
 21
6.60889
 31
0.0
  0
LINE
  8
0
 62
     0
 10
3.54525
 20
6.60889
 30
0.0
 11
3.41015
 21
5.91471
 31
0.0
  0
LINE
  8
0
 62
     0
 10
3.41015
 20
5.91471
 30
0.0
 11
3.31868
 21
5.243
 31
0.0
  0
LINE
  8
0
 62
     0
 10
3.31868
 20
5.243
 30
0.0
 11
3.27083
 21
4.59375
 31
0.0
  0
LINE
  8
0
 62
     0
 10
3.27083
 20
4.59375
 30
0.0
 11
3.2666
 21
3.96696
 31
0.0
  0
LINE
  8
0
 62
     0
 10
3.2666
 20
3.96696
 30
0.0
 11
3.30599
 21
3.36262
 31
0.0
  0
LINE
  8
0
 62
     0
 10
3.30599
 20
3.36262
 30
0.0
 11
3.389
 21
2.78076
 31
0.0
  0
LINE
  8
0
 62
     0
 10
3.389
 20
2.78076
 30
0.0
 11
3.51563
 21
2.22136
 31
0.0
  0
LINE
  8
0
 62
     0
 10
3.51563
 20
2.22136
 30
0.0
 11
3.68587
 21
1.6844
 31
0.0
  0
LINE
  8
0
 62
     0
 10
3.68587
 20
1.6844
 30
0.0
 11
3.89974
 21
1.16992
 31
0.0
  0
LINE
  8
0
 62
     0
 10
3.89974
 20
1.16992
 30
0.0
 11
4.15722
 21
0.677897
 31
0.0
  0
LINE
  8
0
 62
     0
 10
4.15722
 20
0.677897
 30
0.0
 11
4.45833
 21
0.208333
 31
0.0
  0
LINE
  8
0
 62
     0
 10
4.45833
 20
0.208333
 30
0.0
 11
4.54861
 21
0.117188
 31
0.0
  0
LINE
  8
0
 62
     0
 10
4.54861
 20
0.117188
 30
0.0
 11
4.66667
 21
0.0520833
 31
0.0
  0
LINE
  8
0
 62
     0
 10
4.66667
 20
0.0520833
 30
0.0
 11
4.8125
 21
0.0130208
 31
0.0
  0
LINE
  8
0
 62
     0
 10
4.8125
 20
0.0130208
 30
0.0
 11
4.98611
 21
-0
 31
0.0
  0
LINE
  8
0
 62
     0
 10
4.98611
 20
-0
 30
0.0
 11
5.1875
 21
0.0130208
 31
0.0
  0
LINE
  8
0
 62
     0
 10
5.1875
 20
0.0130208
 30
0.0
 11
5.41667
 21
0.0520833
 31
0.0
  0
LINE
  8
0
 62
     0
 10
5.41667
 20
0.0520833
 30
0.0
 11
5.67361
 21
0.117188
 31
0.0
  0
LINE
  8
0
 62
     0
 10
5.67361
 20
0.117188
 30
0.0
 11
5.95833
 21
0.208333
 31
0.0
  0
LINE
  8
0
 62
     0
 10
5.95833
 20
0.208333
 30
0.0
 11
6.37842
 21
0.381999
 31
0.0
  0
LINE
  8
0
 62
     0
 10
6.37842
 20
0.381999
 30
0.0
 11
6.72222
 21
0.569444
 31
0.0
  0
LINE
  8
0
 62
     0
 10
6.72222
 20
0.569444
 30
0.0
 11
6.85758
 21
0.667589
 31
0.0
  0
LINE
  8
0
 62
     0
 10
6.85758
 20
0.667589
 30
0.0
 11
6.94439
 21
0.753526
 31
0.0
  0
LINE
  8
0
 62
     0
 10
6.94439
 20
0.753526
 30
0.0
 11
6.98258
 21
0.827311
 31
0.0
  0
LINE
  8
0
 62
     0
 10
6.98258
 20
0.827311
 30
0.0
 11
6.97222
 21
0.888889
 31
0.0
  0
LINE
  8
0
 62
     0
 10
6.97222
 20
0.888889
 30
0.0
 11
6.67904
 21
1.34212
 31
0.0
  0
LINE
  8
0
 62
     0
 10
6.67904
 20
1.34212
 30
0.0
 11
6.42449
 21
1.81278
 31
0.0
  0
LINE
  8
0
 62
     0
 10
6.42449
 20
1.81278
 30
0.0
 11
6.20856
 21
2.30089
 31
0.0
  0
LINE
  8
0
 62
     0
 10
6.20856
 20
2.30089
 30
0.0
 11
6.03125
 21
2.80647
 31
0.0
  0
LINE
  8
0
 62
     0
 10
6.03125
 20
2.80647
 30
0.0
 11
5.89258
 21
3.32954
 31
0.0
  0
LINE
  8
0
 62
     0
 10
5.89258
 20
3.32954
 30
0.0
 11
5.79254
 21
3.87007
 31
0.0
  0
LINE
  8
0
 62
     0
 10
5.79254
 20
3.87007
 30
0.0
 11
5.73112
 21
4.42806
 31
0.0
  0
LINE
  8
0
 62
     0
 10
5.73112
 20
4.42806
 30
0.0
 11
5.70833
 21
5.00353
 31
0.0
  0
LINE
  8
0
 62
     0
 10
5.70833
 20
5.00353
 30
0.0
 11
5.72418
 21
5.59646
 31
0.0
  0
LINE
  8
0
 62
     0
 10
5.72418
 20
5.59646
 30
0.0
 11
5.77865
 21
6.20687
 31
0.0
  0
LINE
  8
0
 62
     0
 10
5.77865
 20
6.20687
 30
0.0
 11
5.87175
 21
6.83475
 31
0.0
  0
LINE
  8
0
 62
     0
 10
5.87175
 20
6.83475
 30
0.0
 11
6.00347
 21
7.48008
 31
0.0
  0
LINE
  8
0
 62
     0
 10
6.00347
 20
7.48008
 30
0.0
 11
6.17383
 21
8.1429
 31
0.0
  0
LINE
  8
0
 62
     0
 10
6.17383
 20
8.1429
 30
0.0
 11
6.38282
 21
8.82319
 31
0.0
  0
LINE
  8
0
 62
     0
 10
6.38282
 20
8.82319
 30
0.0
 11
6.63043
 21
9.52094
 31
0.0
  0
LINE
  8
0
 62
     0
 10
6.63043
 20
9.52094
 30
0.0
 11
6.91667
 21
10.2361
 31
0.0
  0
LINE
  8
0
 62
     0
 10
6.91667
 20
10.2361
 30
0.0
 11
7.12668
 21
10.2101
 31
0.0
  0
LINE
  8
0
 62
     0
 10
7.12668
 20
10.2101
 30
0.0
 11
7.31244
 21
10.1875
 31
0.0
  0
LINE
  8
0
 62
     0
 10
7.31244
 20
10.1875
 30
0.0
 11
7.4739
 21
10.1684
 31
0.0
  0
LINE
  8
0
 62
     0
 10
7.4739
 20
10.1684
 30
0.0
 11
7.61111
 21
10.1528
 31
0.0
  0
LINE
  8
0
 62
     0
 10
7.61111
 20
10.1528
 30
0.0
 11
8.00694
 21
10.1259
 31
0.0
  0
LINE
  8
0
 62
     0
 10
8.00694
 20
10.1259
 30
0.0
 11
8.43056
 21
10.1702
 31
0.0
  0
LINE
  8
0
 62
     0
 10
8.43056
 20
10.1702
 30
0.0
 11
8.88194
 21
10.2856
 31
0.0
  0
LINE
  8
0
 62
     0
 10
8.88194
 20
10.2856
 30
0.0
 11
9.36111
 21
10.4722
 31
0.0
  0
LINE
  8
0
 62
     0
 10
9.36111
 20
10.4722
 30
0.0
 11
9.59369
 21
10.6111
 31
0.0
  0
LINE
  8
0
 62
     0
 10
9.59369
 20
10.6111
 30
0.0
 11
9.79167
 21
10.7778
 31
0.0
  0
LINE
  8
0
 62
     0
 10
9.79167
 20
10.7778
 30
0.0
 11
9.87842
 21
10.8967
 31
0.0
  0
LINE
  8
0
 62
     0
 10
9.87842
 20
10.8967
 30
0.0
 11
9.88883
 21
10.9897
 31
0.0
  0
LINE
  8
0
 62
     0
 10
9.88883
 20
10.9897
 30
0.0
 11
9.82286
 21
11.0565
 31
0.0
  0
LINE
  8
0
 62
     0
 10
9.82286
 20
11.0565
 30
0.0
 11
9.68056
 21
11.0972
 31
0.0
  0
LINE
  8
0
 62
     0
 10
9.68056
 20
11.0972
 30
0.0
 11
9.53885
 21
11.1159
 31
0.0
  0
LINE
  8
0
 62
     0
 10
9.53885
 20
11.1159
 30
0.0
 11
9.35678
 21
11.1372
 31
0.0
  0
LINE
  8
0
 62
     0
 10
9.35678
 20
11.1372
 30
0.0
 11
9.13433
 21
11.161
 31
0.0
  0
LINE
  8
0
 62
     0
 10
9.13433
 20
11.161
 30
0.0
 11
8.87153
 21
11.1875
 31
0.0
  0
LINE
  8
0
 62
     0
 10
8.87153
 20
11.1875
 30
0.0
 11
8.56831
 21
11.2166
 31
0.0
  0
LINE
  8
0
 62
     0
 10
8.56831
 20
11.2166
 30
0.0
 11
8.22478
 21
11.2483
 31
0.0
  0
LINE
  8
0
 62
     0
 10
8.22478
 20
11.2483
 30
0.0
 11
7.84088
 21
11.2826
 31
0.0
  0
LINE
  8
0
 62
     0
 10
7.84088
 20
11.2826
 30
0.0
 11
7.41667
 21
11.3194
 31
0.0
  0
LINE
  8
0
 62
     0
 10
7.41667
 20
11.3194
 30
0.0
 11
7.62131
 21
11.7407
 31
0.0
  0
LINE
  8
0
 62
     0
 10
7.62131
 20
11.7407
 30
0.0
 11
7.85331
 21
12.1988
 31
0.0
  0
LINE
  8
0
 62
     0
 10
7.85331
 20
12.1988
 30
0.0
 11
8.11263
 21
12.6938
 31
0.0
  0
LINE
  8
0
 62
     0
 10
8.11263
 20
12.6938
 30
0.0
 11
8.39931
 21
13.2257
 31
0.0
  0
LINE
  8
0
 62
     0
 10
8.39931
 20
13.2257
 30
0.0
 11
8.71332
 21
13.7945
 31
0.0
  0
LINE
  8
0
 62
     0
 10
8.71332
 20
13.7945
 30
0.0
 11
9.05469
 21
14.4001
 31
0.0
  0
LINE
  8
0
 62
     0
 10
9.05469
 20
14.4001
 30
0.0
 11
9.42339
 21
15.0428
 31
0.0
  0
LINE
  8
0
 62
     0
 10
9.42339
 20
15.0428
 30
0.0
 11
9.81944
 21
15.7222
 31
0.0
  0
LINE
  8
0
 62
     0
 10
9.81944
 20
15.7222
 30
0.0
 11
10.2148
 21
16.4028
 31
0.0
  0
LINE
  8
0
 62
     0
 10
10.2148
 20
16.4028
 30
0.0
 11
10.5746
 21
17.0278
 31
0.0
  0
LINE
  8
0
 62
     0
 10
10.5746
 20
17.0278
 30
0.0
 11
10.8988
 21
17.5972
 31
0.0
  0
LINE
  8
0
 62
     0
 10
10.8988
 20
17.5972
 30
0.0
 11
11.1874
 21
18.1111
 31
0.0
  0
LINE
  8
0
 62
     0
 10
11.1874
 20
18.1111
 30
0.0
 11
11.4405
 21
18.5694
 31
0.0
  0
LINE
  8
0
 62
     0
 10
11.4405
 20
18.5694
 30
0.0
 11
11.6579
 21
18.9722
 31
0.0
  0
LINE
  8
0
 62
     0
 10
11.6579
 20
18.9722
 30
0.0
 11
11.8398
 21
19.3194
 31
0.0
  0
LINE
  8
0
 62
     0
 10
11.8398
 20
19.3194
 30
0.0
 11
11.9861
 21
19.6111
 31
0.0
  0
LINE
  8
0
 62
     0
 10
11.9861
 20
19.6111
 30
0.0
 11
12.01
 21
19.6764
 31
0.0
  0
LINE
  8
0
 62
     0
 10
12.01
 20
19.6764
 30
0.0
 11
12.0122
 21
19.7335
 31
0.0
  0
LINE
  8
0
 62
     0
 10
12.0122
 20
19.7335
 30
0.0
 11
11.9926
 21
19.7824
 31
0.0
  0
LINE
  8
0
 62
     0
 10
11.9926
 20
19.7824
 30
0.0
 11
11.9514
 21
19.8229
 31
0.0
  0
LINE
  8
0
 62
     0
 10
11.9514
 20
19.8229
 30
0.0
 11
11.8885
 21
19.8553
 31
0.0
  0
LINE
  8
0
 62
     0
 10
11.8885
 20
19.8553
 30
0.0
 11
11.8038
 21
19.8793
 31
0.0
  0
LINE
  8
0
 62
     0
 10
11.8038
 20
19.8793
 30
0.0
 11
11.6975
 21
19.8951
 31
0.0
  0
LINE
  8
0
 62
     0
 10
11.6975
 20
19.8951
 30
0.0
 11
11.5694
 21
19.9028
 31
0.0
  0
LINE
  8
0
 62
     0
 10
11.5694
 20
19.9028
 30
0.0
 11
11.1956
 21
19.91
 31
0.0
  0
LINE
  8
0
 62
     0
 10
11.1956
 20
19.91
 30
0.0
 11
10.7895
 21
19.9108
 31
0.0
  0
LINE
  8
0
 62
     0
 10
10.7895
 20
19.9108
 30
0.0
 11
10.351
 21
19.9053
 31
0.0
  0
LINE
  8
0
 62
     0
 10
10.351
 20
19.9053
 30
0.0
 11
9.88021
 21
19.8932
 31
0.0
  0
LINE
  8
0
 62
     0
 10
9.88021
 20
19.8932
 30
0.0
 11
9.37706
 21
19.8749
 31
0.0
  0
LINE
  8
0
 62
     0
 10
9.37706
 20
19.8749
 30
0.0
 11
8.84158
 21
19.85
 31
0.0
  0
LINE
  8
0
 62
     0
 10
8.84158
 20
19.85
 30
0.0
 11
8.27376
 21
19.8189
 31
0.0
  0
LINE
  8
0
 62
     0
 10
8.27376
 20
19.8189
 30
0.0
 11
7.67361
 21
19.7813
 31
0.0
  0
LINE
  8
0
 62
     0
 10
7.67361
 20
19.7813
 30
0.0
 11
7.04113
 21
19.7372
 31
0.0
  0
LINE
  8
0
 62
     0
 10
7.04113
 20
19.7372
 30
0.0
 11
6.37631
 21
19.6868
 31
0.0
  0
LINE
  8
0
 62
     0
 10
6.37631
 20
19.6868
 30
0.0
 11
5.67914
 21
19.63
 31
0.0
  0
LINE
  8
0
 62
     0
 10
5.67914
 20
19.63
 30
0.0
 11
4.94965
 21
19.5668
 31
0.0
  0
LINE
  8
0
 62
     0
 10
4.94965
 20
19.5668
 30
0.0
 11
4.18782
 21
19.4972
 31
0.0
  0
LINE
  8
0
 62
     0
 10
4.18782
 20
19.4972
 30
0.0
 11
3.39367
 21
19.4212
 31
0.0
  0
LINE
  8
0
 62
     0
 10
3.39367
 20
19.4212
 30
0.0
 11
2.56717
 21
19.3388
 31
0.0
  0
LINE
  8
0
 62
     0
 10
2.56717
 20
19.3388
 30
0.0
 11
1.70833
 21
19.25
 31
0.0
  0
ENDSEC
  0
EOF
