  0
SECTION
  2
HEADER
  9
$ACADVER
  1
AC1009
  9
$EXTMIN
 10
0.0
 20
0.0
 30
0.0
  9
$EXTMAX
 10
1000.0
 20
1000.0
 30
0.0
  9
$FILLMODE
 70
 0
  9
$SPLFRAME
 70
 1
  0
ENDSEC
  0
SECTION
  2
TABLES
  0
TABLE
  2
LAYER
 70
1
  0
LAYER
  2
0
 70
     0
 62
     7
  6
CONTINUOUS
  0
ENDTAB
  0
ENDSEC
  0
SECTION
  2
ENTITIES
  0
LINE
  8
0
 62
     0
 10
6.15278
 20
8.93056
 30
0.0
 11
5.74561
 21
8.63807
 31
0.0
  0
LINE
  8
0
 62
     0
 10
5.74561
 20
8.63807
 30
0.0
 11
5.38536
 21
8.32297
 31
0.0
  0
LINE
  8
0
 62
     0
 10
5.38536
 20
8.32297
 30
0.0
 11
5.072
 21
7.98529
 31
0.0
  0
LINE
  8
0
 62
     0
 10
5.072
 20
7.98529
 30
0.0
 11
4.8055
 21
7.62506
 31
0.0
  0
LINE
  8
0
 62
     0
 10
4.8055
 20
7.62506
 30
0.0
 11
4.58589
 21
7.24224
 31
0.0
  0
LINE
  8
0
 62
     0
 10
4.58589
 20
7.24224
 30
0.0
 11
4.41314
 21
6.83686
 31
0.0
  0
LINE
  8
0
 62
     0
 10
4.41314
 20
6.83686
 30
0.0
 11
4.28728
 21
6.4089
 31
0.0
  0
LINE
  8
0
 62
     0
 10
4.28728
 20
6.4089
 30
0.0
 11
4.20833
 21
5.95833
 31
0.0
  0
LINE
  8
0
 62
     0
 10
4.20833
 20
5.95833
 30
0.0
 11
4.21354
 21
5.78472
 31
0.0
  0
LINE
  8
0
 62
     0
 10
4.21354
 20
5.78472
 30
0.0
 11
4.27083
 21
5.63889
 31
0.0
  0
LINE
  8
0
 62
     0
 10
4.27083
 20
5.63889
 30
0.0
 11
4.38021
 21
5.52083
 31
0.0
  0
LINE
  8
0
 62
     0
 10
4.38021
 20
5.52083
 30
0.0
 11
4.54167
 21
5.43056
 31
0.0
  0
LINE
  8
0
 62
     0
 10
4.54167
 20
5.43056
 30
0.0
 11
4.72049
 21
5.375
 31
0.0
  0
LINE
  8
0
 62
     0
 10
4.72049
 20
5.375
 30
0.0
 11
4.92361
 21
5.34722
 31
0.0
  0
LINE
  8
0
 62
     0
 10
4.92361
 20
5.34722
 30
0.0
 11
5.15104
 21
5.34722
 31
0.0
  0
LINE
  8
0
 62
     0
 10
5.15104
 20
5.34722
 30
0.0
 11
5.40278
 21
5.375
 31
0.0
  0
LINE
  8
0
 62
     0
 10
5.40278
 20
5.375
 30
0.0
 11
5.65192
 21
5.42019
 31
0.0
  0
LINE
  8
0
 62
     0
 10
5.65192
 20
5.42019
 30
0.0
 11
5.88542
 21
5.48617
 31
0.0
  0
LINE
  8
0
 62
     0
 10
5.88542
 20
5.48617
 30
0.0
 11
6.10325
 21
5.57297
 31
0.0
  0
LINE
  8
0
 62
     0
 10
6.10325
 20
5.57297
 30
0.0
 11
6.30556
 21
5.68056
 31
0.0
  0
LINE
  8
0
 62
     0
 10
6.30556
 20
5.68056
 30
0.0
 11
6.49653
 21
5.81603
 31
0.0
  0
LINE
  8
0
 62
     0
 10
6.49653
 20
5.81603
 30
0.0
 11
6.63889
 21
5.95839
 31
0.0
  0
LINE
  8
0
 62
     0
 10
6.63889
 20
5.95839
 30
0.0
 11
6.73264
 21
6.10769
 31
0.0
  0
LINE
  8
0
 62
     0
 10
6.73264
 20
6.10769
 30
0.0
 11
6.77778
 21
6.26389
 31
0.0
  0
LINE
  8
0
 62
     0
 10
6.77778
 20
6.26389
 30
0.0
 11
6.84289
 21
6.67014
 31
0.0
  0
LINE
  8
0
 62
     0
 10
6.84289
 20
6.67014
 30
0.0
 11
6.94097
 21
7.01389
 31
0.0
  0
LINE
  8
0
 62
     0
 10
6.94097
 20
7.01389
 30
0.0
 11
7.07206
 21
7.29514
 31
0.0
  0
LINE
  8
0
 62
     0
 10
7.07206
 20
7.29514
 30
0.0
 11
7.23611
 21
7.51389
 31
0.0
  0
LINE
  8
0
 62
     0
 10
7.23611
 20
7.51389
 30
0.0
 11
7.39839
 21
7.64931
 31
0.0
  0
LINE
  8
0
 62
     0
 10
7.39839
 20
7.64931
 30
0.0
 11
7.56597
 21
7.72222
 31
0.0
  0
LINE
  8
0
 62
     0
 10
7.56597
 20
7.72222
 30
0.0
 11
7.73872
 21
7.73264
 31
0.0
  0
LINE
  8
0
 62
     0
 10
7.73872
 20
7.73264
 30
0.0
 11
7.91667
 21
7.68056
 31
0.0
  0
LINE
  8
0
 62
     0
 10
7.91667
 20
7.68056
 30
0.0
 11
8.09115
 21
7.56771
 31
0.0
  0
LINE
  8
0
 62
     0
 10
8.09115
 20
7.56771
 30
0.0
 11
8.23958
 21
7.40972
 31
0.0
  0
LINE
  8
0
 62
     0
 10
8.23958
 20
7.40972
 30
0.0
 11
8.36199
 21
7.2066
 31
0.0
  0
LINE
  8
0
 62
     0
 10
8.36199
 20
7.2066
 30
0.0
 11
8.45833
 21
6.95833
 31
0.0
  0
LINE
  8
0
 62
     0
 10
8.45833
 20
6.95833
 30
0.0
 11
8.52692
 21
6.64154
 31
0.0
  0
LINE
  8
0
 62
     0
 10
8.52692
 20
6.64154
 30
0.0
 11
8.55208
 21
6.30214
 31
0.0
  0
LINE
  8
0
 62
     0
 10
8.55208
 20
6.30214
 30
0.0
 11
8.53386
 21
5.94015
 31
0.0
  0
LINE
  8
0
 62
     0
 10
8.53386
 20
5.94015
 30
0.0
 11
8.47222
 21
5.55556
 31
0.0
  0
LINE
  8
0
 62
     0
 10
8.47222
 20
5.55556
 30
0.0
 11
8.35303
 21
5.12457
 31
0.0
  0
LINE
  8
0
 62
     0
 10
8.35303
 20
5.12457
 30
0.0
 11
8.19006
 21
4.69271
 31
0.0
  0
LINE
  8
0
 62
     0
 10
8.19006
 20
4.69271
 30
0.0
 11
7.98324
 21
4.25999
 31
0.0
  0
LINE
  8
0
 62
     0
 10
7.98324
 20
4.25999
 30
0.0
 11
7.73258
 21
3.82639
 31
0.0
  0
LINE
  8
0
 62
     0
 10
7.73258
 20
3.82639
 30
0.0
 11
7.4381
 21
3.39193
 31
0.0
  0
LINE
  8
0
 62
     0
 10
7.4381
 20
3.39193
 30
0.0
 11
7.09978
 21
2.9566
 31
0.0
  0
LINE
  8
0
 62
     0
 10
7.09978
 20
2.9566
 30
0.0
 11
6.71761
 21
2.5204
 31
0.0
  0
LINE
  8
0
 62
     0
 10
6.71761
 20
2.5204
 30
0.0
 11
6.29167
 21
2.08333
 31
0.0
  0
LINE
  8
0
 62
     0
 10
6.29167
 20
2.08333
 30
0.0
 11
5.99588
 21
1.82796
 31
0.0
  0
LINE
  8
0
 62
     0
 10
5.99588
 20
1.82796
 30
0.0
 11
5.70574
 21
1.64501
 31
0.0
  0
LINE
  8
0
 62
     0
 10
5.70574
 20
1.64501
 30
0.0
 11
5.42122
 21
1.53456
 31
0.0
  0
LINE
  8
0
 62
     0
 10
5.42122
 20
1.53456
 30
0.0
 11
5.14236
 21
1.49658
 31
0.0
  0
LINE
  8
0
 62
     0
 10
5.14236
 20
1.49658
 30
0.0
 11
4.86914
 21
1.53108
 31
0.0
  0
LINE
  8
0
 62
     0
 10
4.86914
 20
1.53108
 30
0.0
 11
4.60157
 21
1.63807
 31
0.0
  0
LINE
  8
0
 62
     0
 10
4.60157
 20
1.63807
 30
0.0
 11
4.33963
 21
1.81754
 31
0.0
  0
LINE
  8
0
 62
     0
 10
4.33963
 20
1.81754
 30
0.0
 11
4.08333
 21
2.06944
 31
0.0
  0
LINE
  8
0
 62
     0
 10
4.08333
 20
2.06944
 30
0.0
 11
3.92904
 21
2.25911
 31
0.0
  0
LINE
  8
0
 62
     0
 10
3.92904
 20
2.25911
 30
0.0
 11
3.77865
 21
2.47396
 31
0.0
  0
LINE
  8
0
 62
     0
 10
3.77865
 20
2.47396
 30
0.0
 11
3.63217
 21
2.71397
 31
0.0
  0
LINE
  8
0
 62
     0
 10
3.63217
 20
2.71397
 30
0.0
 11
3.48958
 21
2.97917
 31
0.0
  0
LINE
  8
0
 62
     0
 10
3.48958
 20
2.97917
 30
0.0
 11
3.35092
 21
3.26953
 31
0.0
  0
LINE
  8
0
 62
     0
 10
3.35092
 20
3.26953
 30
0.0
 11
3.21615
 21
3.58507
 31
0.0
  0
LINE
  8
0
 62
     0
 10
3.21615
 20
3.58507
 30
0.0
 11
3.08529
 21
3.92578
 31
0.0
  0
LINE
  8
0
 62
     0
 10
3.08529
 20
3.92578
 30
0.0
 11
2.95833
 21
4.29167
 31
0.0
  0
LINE
  8
0
 62
     0
 10
2.95833
 20
4.29167
 30
0.0
 11
2.83111
 21
4.71761
 31
0.0
  0
LINE
  8
0
 62
     0
 10
2.83111
 20
4.71761
 30
0.0
 11
2.7239
 21
5.15153
 31
0.0
  0
LINE
  8
0
 62
     0
 10
2.7239
 20
5.15153
 30
0.0
 11
2.63667
 21
5.59347
 31
0.0
  0
LINE
  8
0
 62
     0
 10
2.63667
 20
5.59347
 30
0.0
 11
2.56939
 21
6.04346
 31
0.0
  0
LINE
  8
0
 62
     0
 10
2.56939
 20
6.04346
 30
0.0
 11
2.52208
 21
6.50146
 31
0.0
  0
LINE
  8
0
 62
     0
 10
2.52208
 20
6.50146
 30
0.0
 11
2.49474
 21
6.9675
 31
0.0
  0
LINE
  8
0
 62
     0
 10
2.49474
 20
6.9675
 30
0.0
 11
2.48736
 21
7.44157
 31
0.0
  0
LINE
  8
0
 62
     0
 10
2.48736
 20
7.44157
 30
0.0
 11
2.49994
 21
7.92367
 31
0.0
  0
LINE
  8
0
 62
     0
 10
2.49994
 20
7.92367
 30
0.0
 11
2.5325
 21
8.41379
 31
0.0
  0
LINE
  8
0
 62
     0
 10
2.5325
 20
8.41379
 30
0.0
 11
2.58501
 21
8.91194
 31
0.0
  0
LINE
  8
0
 62
     0
 10
2.58501
 20
8.91194
 30
0.0
 11
2.6575
 21
9.41812
 31
0.0
  0
LINE
  8
0
 62
     0
 10
2.6575
 20
9.41812
 30
0.0
 11
2.74994
 21
9.93235
 31
0.0
  0
LINE
  8
0
 62
     0
 10
2.74994
 20
9.93235
 30
0.0
 11
2.86236
 21
10.4546
 31
0.0
  0
LINE
  8
0
 62
     0
 10
2.86236
 20
10.4546
 30
0.0
 11
2.99474
 21
10.9849
 31
0.0
  0
LINE
  8
0
 62
     0
 10
2.99474
 20
10.9849
 30
0.0
 11
3.14708
 21
11.5232
 31
0.0
  0
LINE
  8
0
 62
     0
 10
3.14708
 20
11.5232
 30
0.0
 11
3.31944
 21
12.0694
 31
0.0
  0
LINE
  8
0
 62
     0
 10
3.31944
 20
12.0694
 30
0.0
 11
3.60265
 21
12.8581
 31
0.0
  0
LINE
  8
0
 62
     0
 10
3.60265
 20
12.8581
 30
0.0
 11
3.93143
 21
13.6754
 31
0.0
  0
LINE
  8
0
 62
     0
 10
3.93143
 20
13.6754
 30
0.0
 11
4.30578
 21
14.5214
 31
0.0
  0
LINE
  8
0
 62
     0
 10
4.30578
 20
14.5214
 30
0.0
 11
4.72569
 21
15.3958
 31
0.0
  0
LINE
  8
0
 62
     0
 10
4.72569
 20
15.3958
 30
0.0
 11
5.19119
 21
16.299
 31
0.0
  0
LINE
  8
0
 62
     0
 10
5.19119
 20
16.299
 30
0.0
 11
5.70226
 21
17.231
 31
0.0
  0
LINE
  8
0
 62
     0
 10
5.70226
 20
17.231
 30
0.0
 11
6.2589
 21
18.1914
 31
0.0
  0
LINE
  8
0
 62
     0
 10
6.2589
 20
18.1914
 30
0.0
 11
6.86111
 21
19.1806
 31
0.0
  0
LINE
  8
0
 62
     0
 10
6.86111
 20
19.1806
 30
0.0
 11
6.94185
 21
19.3508
 31
0.0
  0
LINE
  8
0
 62
     0
 10
6.94185
 20
19.3508
 30
0.0
 11
6.96181
 21
19.5003
 31
0.0
  0
LINE
  8
0
 62
     0
 10
6.96181
 20
19.5003
 30
0.0
 11
6.92101
 21
19.6288
 31
0.0
  0
LINE
  8
0
 62
     0
 10
6.92101
 20
19.6288
 30
0.0
 11
6.81944
 21
19.7361
 31
0.0
  0
LINE
  8
0
 62
     0
 10
6.81944
 20
19.7361
 30
0.0
 11
6.68403
 21
19.8082
 31
0.0
  0
LINE
  8
0
 62
     0
 10
6.68403
 20
19.8082
 30
0.0
 11
6.51389
 21
19.8576
 31
0.0
  0
LINE
  8
0
 62
     0
 10
6.51389
 20
19.8576
 30
0.0
 11
6.30903
 21
19.8846
 31
0.0
  0
LINE
  8
0
 62
     0
 10
6.30903
 20
19.8846
 30
0.0
 11
6.06944
 21
19.8889
 31
0.0
  0
LINE
  8
0
 62
     0
 10
6.06944
 20
19.8889
 30
0.0
 11
5.77387
 21
19.8699
 31
0.0
  0
LINE
  8
0
 62
     0
 10
5.77387
 20
19.8699
 30
0.0
 11
5.50521
 21
19.8333
 31
0.0
  0
LINE
  8
0
 62
     0
 10
5.50521
 20
19.8333
 30
0.0
 11
5.26346
 21
19.7796
 31
0.0
  0
LINE
  8
0
 62
     0
 10
5.26346
 20
19.7796
 30
0.0
 11
5.04861
 21
19.7083
 31
0.0
  0
LINE
  8
0
 62
     0
 10
5.04861
 20
19.7083
 30
0.0
 11
4.86068
 21
19.6199
 31
0.0
  0
LINE
  8
0
 62
     0
 10
4.86068
 20
19.6199
 30
0.0
 11
4.69965
 21
19.5139
 31
0.0
  0
LINE
  8
0
 62
     0
 10
4.69965
 20
19.5139
 30
0.0
 11
4.56554
 21
19.3907
 31
0.0
  0
LINE
  8
0
 62
     0
 10
4.56554
 20
19.3907
 30
0.0
 11
4.45833
 21
19.25
 31
0.0
  0
LINE
  8
0
 62
     0
 10
4.45833
 20
19.25
 30
0.0
 11
3.77669
 21
18.1228
 31
0.0
  0
LINE
  8
0
 62
     0
 10
3.77669
 20
18.1228
 30
0.0
 11
3.15207
 21
17.0157
 31
0.0
  0
LINE
  8
0
 62
     0
 10
3.15207
 20
17.0157
 30
0.0
 11
2.58442
 21
15.9283
 31
0.0
  0
LINE
  8
0
 62
     0
 10
2.58442
 20
15.9283
 30
0.0
 11
2.07374
 21
14.8611
 31
0.0
  0
LINE
  8
0
 62
     0
 10
2.07374
 20
14.8611
 30
0.0
 11
1.62001
 21
13.8138
 31
0.0
  0
LINE
  8
0
 62
     0
 10
1.62001
 20
13.8138
 30
0.0
 11
1.22325
 21
12.7865
 31
0.0
  0
LINE
  8
0
 62
     0
 10
1.22325
 20
12.7865
 30
0.0
 11
0.883464
 21
11.7791
 31
0.0
  0
LINE
  8
0
 62
     0
 10
0.883464
 20
11.7791
 30
0.0
 11
0.600694
 21
10.7917
 31
0.0
  0
LINE
  8
0
 62
     0
 10
0.600694
 20
10.7917
 30
0.0
 11
0.374838
 21
9.82422
 31
0.0
  0
LINE
  8
0
 62
     0
 10
0.374838
 20
9.82422
 30
0.0
 11
0.205946
 21
8.87674
 31
0.0
  0
LINE
  8
0
 62
     0
 10
0.205946
 20
8.87674
 30
0.0
 11
0.0940212
 21
7.94922
 31
0.0
  0
LINE
  8
0
 62
     0
 10
0.0940212
 20
7.94922
 30
0.0
 11
0.0390625
 21
7.04167
 31
0.0
  0
LINE
  8
0
 62
     0
 10
0.0390625
 20
7.04167
 30
0.0
 11
0.0410699
 21
6.15408
 31
0.0
  0
LINE
  8
0
 62
     0
 10
0.0410699
 20
6.15408
 30
0.0
 11
0.100043
 21
5.28646
 31
0.0
  0
LINE
  8
0
 62
     0
 10
0.100043
 20
5.28646
 30
0.0
 11
0.215983
 21
4.43881
 31
0.0
  0
LINE
  8
0
 62
     0
 10
0.215983
 20
4.43881
 30
0.0
 11
0.388889
 21
3.61111
 31
0.0
  0
LINE
  8
0
 62
     0
 10
0.388889
 20
3.61111
 30
0.0
 11
0.478569
 21
3.28213
 31
0.0
  0
LINE
  8
0
 62
     0
 10
0.478569
 20
3.28213
 30
0.0
 11
0.581108
 21
2.96858
 31
0.0
  0
LINE
  8
0
 62
     0
 10
0.581108
 20
2.96858
 30
0.0
 11
0.696451
 21
2.67057
 31
0.0
  0
LINE
  8
0
 62
     0
 10
0.696451
 20
2.67057
 30
0.0
 11
0.824599
 21
2.38807
 31
0.0
  0
LINE
  8
0
 62
     0
 10
0.824599
 20
2.38807
 30
0.0
 11
0.965549
 21
2.1211
 31
0.0
  0
LINE
  8
0
 62
     0
 10
0.965549
 20
2.1211
 30
0.0
 11
1.1193
 21
1.86963
 31
0.0
  0
LINE
  8
0
 62
     0
 10
1.1193
 20
1.86963
 30
0.0
 11
1.28586
 21
1.63368
 31
0.0
  0
LINE
  8
0
 62
     0
 10
1.28586
 20
1.63368
 30
0.0
 11
1.46522
 21
1.41325
 31
0.0
  0
LINE
  8
0
 62
     0
 10
1.46522
 20
1.41325
 30
0.0
 11
1.65739
 21
1.20833
 31
0.0
  0
LINE
  8
0
 62
     0
 10
1.65739
 20
1.20833
 30
0.0
 11
1.86236
 21
1.01893
 31
0.0
  0
LINE
  8
0
 62
     0
 10
1.86236
 20
1.01893
 30
0.0
 11
2.08014
 21
0.845053
 31
0.0
  0
LINE
  8
0
 62
     0
 10
2.08014
 20
0.845053
 30
0.0
 11
2.31071
 21
0.686686
 31
0.0
  0
LINE
  8
0
 62
     0
 10
2.31071
 20
0.686686
 30
0.0
 11
2.5541
 21
0.543837
 31
0.0
  0
LINE
  8
0
 62
     0
 10
2.5541
 20
0.543837
 30
0.0
 11
2.81028
 21
0.416504
 31
0.0
  0
LINE
  8
0
 62
     0
 10
2.81028
 20
0.416504
 30
0.0
 11
3.07926
 21
0.304688
 31
0.0
  0
LINE
  8
0
 62
     0
 10
3.07926
 20
0.304688
 30
0.0
 11
3.36111
 21
0.208333
 31
0.0
  0
LINE
  8
0
 62
     0
 10
3.36111
 20
0.208333
 30
0.0
 11
3.93224
 21
0.0690104
 31
0.0
  0
LINE
  8
0
 62
     0
 10
3.93224
 20
0.0690104
 30
0.0
 11
4.49994
 21
0.00520833
 31
0.0
  0
LINE
  8
0
 62
     0
 10
4.49994
 20
0.00520833
 30
0.0
 11
5.06418
 21
0.0169271
 31
0.0
  0
LINE
  8
0
 62
     0
 10
5.06418
 20
0.0169271
 30
0.0
 11
5.62494
 21
0.104167
 31
0.0
  0
LINE
  8
0
 62
     0
 10
5.62494
 20
0.104167
 30
0.0
 11
6.18224
 21
0.266928
 31
0.0
  0
LINE
  8
0
 62
     0
 10
6.18224
 20
0.266928
 30
0.0
 11
6.73606
 21
0.505208
 31
0.0
  0
LINE
  8
0
 62
     0
 10
6.73606
 20
0.505208
 30
0.0
 11
7.2864
 21
0.819011
 31
0.0
  0
LINE
  8
0
 62
     0
 10
7.2864
 20
0.819011
 30
0.0
 11
7.83333
 21
1.20833
 31
0.0
  0
LINE
  8
0
 62
     0
 10
7.83333
 20
1.20833
 30
0.0
 11
8.3086
 21
1.60856
 31
0.0
  0
LINE
  8
0
 62
     0
 10
8.3086
 20
1.60856
 30
0.0
 11
8.75521
 21
2.03825
 31
0.0
  0
LINE
  8
0
 62
     0
 10
8.75521
 20
2.03825
 30
0.0
 11
9.17318
 21
2.49744
 31
0.0
  0
LINE
  8
0
 62
     0
 10
9.17318
 20
2.49744
 30
0.0
 11
9.5625
 21
2.98617
 31
0.0
  0
LINE
  8
0
 62
     0
 10
9.5625
 20
2.98617
 30
0.0
 11
9.92318
 21
3.50439
 31
0.0
  0
LINE
  8
0
 62
     0
 10
9.92318
 20
3.50439
 30
0.0
 11
10.2552
 21
4.05214
 31
0.0
  0
LINE
  8
0
 62
     0
 10
10.2552
 20
4.05214
 30
0.0
 11
10.5586
 21
4.62939
 31
0.0
  0
LINE
  8
0
 62
     0
 10
10.5586
 20
4.62939
 30
0.0
 11
10.8333
 21
5.23611
 31
0.0
  0
LINE
  8
0
 62
     0
 10
10.8333
 20
5.23611
 30
0.0
 11
10.9637
 21
5.574
 31
0.0
  0
LINE
  8
0
 62
     0
 10
10.9637
 20
5.574
 30
0.0
 11
11.0703
 21
5.90018
 31
0.0
  0
LINE
  8
0
 62
     0
 10
11.0703
 20
5.90018
 30
0.0
 11
11.1529
 21
6.21463
 31
0.0
  0
LINE
  8
0
 62
     0
 10
11.1529
 20
6.21463
 30
0.0
 11
11.2117
 21
6.51736
 31
0.0
  0
LINE
  8
0
 62
     0
 10
11.2117
 20
6.51736
 30
0.0
 11
11.2467
 21
6.80838
 31
0.0
  0
LINE
  8
0
 62
     0
 10
11.2467
 20
6.80838
 30
0.0
 11
11.2578
 21
7.08768
 31
0.0
  0
LINE
  8
0
 62
     0
 10
11.2578
 20
7.08768
 30
0.0
 11
11.245
 21
7.35525
 31
0.0
  0
LINE
  8
0
 62
     0
 10
11.245
 20
7.35525
 30
0.0
 11
11.2083
 21
7.61111
 31
0.0
  0
LINE
  8
0
 62
     0
 10
11.2083
 20
7.61111
 30
0.0
 11
11.133
 21
7.89632
 31
0.0
  0
LINE
  8
0
 62
     0
 10
11.133
 20
7.89632
 30
0.0
 11
11.0251
 21
8.16151
 31
0.0
  0
LINE
  8
0
 62
     0
 10
11.0251
 20
8.16151
 30
0.0
 11
10.8847
 21
8.40674
 31
0.0
  0
LINE
  8
0
 62
     0
 10
10.8847
 20
8.40674
 30
0.0
 11
10.7117
 21
8.632
 31
0.0
  0
LINE
  8
0
 62
     0
 10
10.7117
 20
8.632
 30
0.0
 11
10.5062
 21
8.83729
 31
0.0
  0
LINE
  8
0
 62
     0
 10
10.5062
 20
8.83729
 30
0.0
 11
10.2682
 21
9.02263
 31
0.0
  0
LINE
  8
0
 62
     0
 10
10.2682
 20
9.02263
 30
0.0
 11
9.99756
 21
9.18799
 31
0.0
  0
LINE
  8
0
 62
     0
 10
9.99756
 20
9.18799
 30
0.0
 11
9.69444
 21
9.33333
 31
0.0
  0
LINE
  8
0
 62
     0
 10
9.69444
 20
9.33333
 30
0.0
 11
9.25319
 21
9.4911
 31
0.0
  0
LINE
  8
0
 62
     0
 10
9.25319
 20
9.4911
 30
0.0
 11
8.81158
 21
9.58942
 31
0.0
  0
LINE
  8
0
 62
     0
 10
8.81158
 20
9.58942
 30
0.0
 11
8.36951
 21
9.62825
 31
0.0
  0
LINE
  8
0
 62
     0
 10
8.36951
 20
9.62825
 30
0.0
 11
7.92703
 21
9.60764
 31
0.0
  0
LINE
  8
0
 62
     0
 10
7.92703
 20
9.60764
 30
0.0
 11
7.4841
 21
9.52756
 31
0.0
  0
LINE
  8
0
 62
     0
 10
7.4841
 20
9.52756
 30
0.0
 11
7.04075
 21
9.38803
 31
0.0
  0
LINE
  8
0
 62
     0
 10
7.04075
 20
9.38803
 30
0.0
 11
6.59694
 21
9.18901
 31
0.0
  0
LINE
  8
0
 62
     0
 10
6.59694
 20
9.18901
 30
0.0
 11
6.15278
 21
8.93056
 31
0.0
  0
ENDSEC
  0
EOF
