  0
SECTION
  2
HEADER
  9
$ACADVER
  1
AC1009
  9
$EXTMIN
 10
0.0
 20
0.0
 30
0.0
  9
$EXTMAX
 10
1000.0
 20
1000.0
 30
0.0
  9
$FILLMODE
 70
 0
  9
$SPLFRAME
 70
 1
  0
ENDSEC
  0
SECTION
  2
TABLES
  0
TABLE
  2
LAYER
 70
1
  0
LAYER
  2
0
 70
     0
 62
     7
  6
CONTINUOUS
  0
ENDTAB
  0
ENDSEC
  0
SECTION
  2
ENTITIES
  0
LINE
  8
0
 62
     0
 10
0.0138889
 20
-1.09722
 30
0.0
 11
0.0120985
 21
-1.20654
 31
0.0
  0
LINE
  8
0
 62
     0
 10
0.0120985
 20
-1.20654
 30
0.0
 11
0.0485568
 21
-1.29856
 31
0.0
  0
LINE
  8
0
 62
     0
 10
0.0485568
 20
-1.29856
 30
0.0
 11
0.12321
 21
-1.37321
 31
0.0
  0
LINE
  8
0
 62
     0
 10
0.12321
 20
-1.37321
 30
0.0
 11
0.236111
 21
-1.43056
 31
0.0
  0
LINE
  8
0
 62
     0
 10
0.236111
 20
-1.43056
 30
0.0
 11
0.355903
 21
-1.46354
 31
0.0
  0
LINE
  8
0
 62
     0
 10
0.355903
 20
-1.46354
 30
0.0
 11
0.493056
 21
-1.47917
 31
0.0
  0
LINE
  8
0
 62
     0
 10
0.493056
 20
-1.47917
 30
0.0
 11
0.647569
 21
-1.47743
 31
0.0
  0
LINE
  8
0
 62
     0
 10
0.647569
 20
-1.47743
 30
0.0
 11
0.819444
 21
-1.45833
 31
0.0
  0
LINE
  8
0
 62
     0
 10
0.819444
 20
-1.45833
 30
0.0
 11
1.02886
 21
-1.42188
 31
0.0
  0
LINE
  8
0
 62
     0
 10
1.02886
 20
-1.42188
 30
0.0
 11
1.21267
 21
-1.375
 31
0.0
  0
LINE
  8
0
 62
     0
 10
1.21267
 20
-1.375
 30
0.0
 11
1.37088
 21
-1.31771
 31
0.0
  0
LINE
  8
0
 62
     0
 10
1.37088
 20
-1.31771
 30
0.0
 11
1.50347
 21
-1.25
 31
0.0
  0
LINE
  8
0
 62
     0
 10
1.50347
 20
-1.25
 30
0.0
 11
1.61046
 21
-1.17188
 31
0.0
  0
LINE
  8
0
 62
     0
 10
1.61046
 20
-1.17188
 30
0.0
 11
1.69185
 21
-1.08333
 31
0.0
  0
LINE
  8
0
 62
     0
 10
1.69185
 20
-1.08333
 30
0.0
 11
1.74761
 21
-0.984375
 31
0.0
  0
LINE
  8
0
 62
     0
 10
1.74761
 20
-0.984375
 30
0.0
 11
1.77778
 21
-0.875
 31
0.0
  0
LINE
  8
0
 62
     0
 10
1.77778
 20
-0.875
 30
0.0
 11
1.99311
 21
0.459526
 31
0.0
  0
LINE
  8
0
 62
     0
 10
1.99311
 20
0.459526
 30
0.0
 11
2.23286
 21
1.78603
 31
0.0
  0
LINE
  8
0
 62
     0
 10
2.23286
 20
1.78603
 30
0.0
 11
2.49701
 21
3.10449
 31
0.0
  0
LINE
  8
0
 62
     0
 10
2.49701
 20
3.10449
 30
0.0
 11
2.7856
 21
4.41493
 31
0.0
  0
LINE
  8
0
 62
     0
 10
2.7856
 20
4.41493
 30
0.0
 11
3.09858
 21
5.71733
 31
0.0
  0
LINE
  8
0
 62
     0
 10
3.09858
 20
5.71733
 30
0.0
 11
3.43599
 21
7.01172
 31
0.0
  0
LINE
  8
0
 62
     0
 10
3.43599
 20
7.01172
 30
0.0
 11
3.79779
 21
8.29807
 31
0.0
  0
LINE
  8
0
 62
     0
 10
3.79779
 20
8.29807
 30
0.0
 11
4.18403
 21
9.57639
 31
0.0
  0
LINE
  8
0
 62
     0
 10
4.18403
 20
9.57639
 30
0.0
 11
4.59467
 21
10.8467
 31
0.0
  0
LINE
  8
0
 62
     0
 10
4.59467
 20
10.8467
 30
0.0
 11
5.02974
 21
12.1089
 31
0.0
  0
LINE
  8
0
 62
     0
 10
5.02974
 20
12.1089
 30
0.0
 11
5.48921
 21
13.3632
 31
0.0
  0
LINE
  8
0
 62
     0
 10
5.48921
 20
13.3632
 30
0.0
 11
5.9731
 21
14.6094
 31
0.0
  0
LINE
  8
0
 62
     0
 10
5.9731
 20
14.6094
 30
0.0
 11
6.48139
 21
15.8475
 31
0.0
  0
LINE
  8
0
 62
     0
 10
6.48139
 20
15.8475
 30
0.0
 11
7.01411
 21
17.0776
 31
0.0
  0
LINE
  8
0
 62
     0
 10
7.01411
 20
17.0776
 30
0.0
 11
7.57124
 21
18.2999
 31
0.0
  0
LINE
  8
0
 62
     0
 10
7.57124
 20
18.2999
 30
0.0
 11
8.15278
 21
19.5139
 31
0.0
  0
LINE
  8
0
 62
     0
 10
8.15278
 20
19.5139
 30
0.0
 11
8.19526
 21
19.6372
 31
0.0
  0
LINE
  8
0
 62
     0
 10
8.19526
 20
19.6372
 30
0.0
 11
8.19786
 21
19.7431
 31
0.0
  0
LINE
  8
0
 62
     0
 10
8.19786
 20
19.7431
 30
0.0
 11
8.16054
 21
19.8317
 31
0.0
  0
LINE
  8
0
 62
     0
 10
8.16054
 20
19.8317
 30
0.0
 11
8.08333
 21
19.9028
 31
0.0
  0
LINE
  8
0
 62
     0
 10
8.08333
 20
19.9028
 30
0.0
 11
7.98779
 21
19.9506
 31
0.0
  0
LINE
  8
0
 62
     0
 10
7.98779
 20
19.9506
 30
0.0
 11
7.868
 21
19.9828
 31
0.0
  0
LINE
  8
0
 62
     0
 10
7.868
 20
19.9828
 30
0.0
 11
7.7239
 21
19.9992
 31
0.0
  0
LINE
  8
0
 62
     0
 10
7.7239
 20
19.9992
 30
0.0
 11
7.55556
 21
20
 31
0.0
  0
LINE
  8
0
 62
     0
 10
7.55556
 20
20
 30
0.0
 11
7.35069
 21
19.9837
 31
0.0
  0
LINE
  8
0
 62
     0
 10
7.35069
 20
19.9837
 30
0.0
 11
7.16667
 21
19.9557
 31
0.0
  0
LINE
  8
0
 62
     0
 10
7.16667
 20
19.9557
 30
0.0
 11
7.00347
 21
19.916
 31
0.0
  0
LINE
  8
0
 62
     0
 10
7.00347
 20
19.916
 30
0.0
 11
6.86111
 21
19.8646
 31
0.0
  0
LINE
  8
0
 62
     0
 10
6.86111
 20
19.8646
 30
0.0
 11
6.73953
 21
19.8014
 31
0.0
  0
LINE
  8
0
 62
     0
 10
6.73953
 20
19.8014
 30
0.0
 11
6.63883
 21
19.7265
 31
0.0
  0
LINE
  8
0
 62
     0
 10
6.63883
 20
19.7265
 30
0.0
 11
6.55897
 21
19.64
 31
0.0
  0
LINE
  8
0
 62
     0
 10
6.55897
 20
19.64
 30
0.0
 11
6.5
 21
19.5417
 31
0.0
  0
LINE
  8
0
 62
     0
 10
6.5
 20
19.5417
 30
0.0
 11
5.90332
 21
18.2974
 31
0.0
  0
LINE
  8
0
 62
     0
 10
5.90332
 20
18.2974
 30
0.0
 11
5.33219
 21
17.0469
 31
0.0
  0
LINE
  8
0
 62
     0
 10
5.33219
 20
17.0469
 30
0.0
 11
4.78657
 21
15.7904
 31
0.0
  0
LINE
  8
0
 62
     0
 10
4.78657
 20
15.7904
 30
0.0
 11
4.26644
 21
14.5278
 31
0.0
  0
LINE
  8
0
 62
     0
 10
4.26644
 20
14.5278
 30
0.0
 11
3.77181
 21
13.2591
 31
0.0
  0
LINE
  8
0
 62
     0
 10
3.77181
 20
13.2591
 30
0.0
 11
3.30268
 21
11.9844
 31
0.0
  0
LINE
  8
0
 62
     0
 10
3.30268
 20
11.9844
 30
0.0
 11
2.85906
 21
10.7036
 31
0.0
  0
LINE
  8
0
 62
     0
 10
2.85906
 20
10.7036
 30
0.0
 11
2.44092
 21
9.41667
 31
0.0
  0
LINE
  8
0
 62
     0
 10
2.44092
 20
9.41667
 30
0.0
 11
2.04829
 21
8.12369
 31
0.0
  0
LINE
  8
0
 62
     0
 10
2.04829
 20
8.12369
 30
0.0
 11
1.68115
 21
6.82465
 31
0.0
  0
LINE
  8
0
 62
     0
 10
1.68115
 20
6.82465
 30
0.0
 11
1.33952
 21
5.51953
 31
0.0
  0
LINE
  8
0
 62
     0
 10
1.33952
 20
5.51953
 30
0.0
 11
1.02338
 21
4.20833
 31
0.0
  0
LINE
  8
0
 62
     0
 10
1.02338
 20
4.20833
 30
0.0
 11
0.732747
 21
2.89106
 31
0.0
  0
LINE
  8
0
 62
     0
 10
0.732747
 20
2.89106
 30
0.0
 11
0.467611
 21
1.56771
 31
0.0
  0
LINE
  8
0
 62
     0
 10
0.467611
 20
1.56771
 30
0.0
 11
0.227974
 21
0.238282
 31
0.0
  0
LINE
  8
0
 62
     0
 10
0.227974
 20
0.238282
 30
0.0
 11
0.0138889
 21
-1.09722
 31
0.0
  0
ENDSEC
  0
EOF
