  0
SECTION
  2
HEADER
  9
$ACADVER
  1
AC1009
  9
$EXTMIN
 10
0.0
 20
0.0
 30
0.0
  9
$EXTMAX
 10
1000.0
 20
1000.0
 30
0.0
  9
$FILLMODE
 70
 0
  9
$SPLFRAME
 70
 1
  0
ENDSEC
  0
SECTION
  2
TABLES
  0
TABLE
  2
LAYER
 70
1
  0
LAYER
  2
0
 70
     0
 62
     7
  6
CONTINUOUS
  0
ENDTAB
  0
ENDSEC
  0
SECTION
  2
ENTITIES
  0
LINE
  8
0
 62
     0
 10
13.6111
 20
19.0694
 30
0.0
 11
13.2068
 21
19.2396
 31
0.0
  0
LINE
  8
0
 62
     0
 10
13.2068
 20
19.2396
 30
0.0
 11
12.8342
 21
19.3889
 31
0.0
  0
LINE
  8
0
 62
     0
 10
12.8342
 20
19.3889
 30
0.0
 11
12.4932
 21
19.5174
 31
0.0
  0
LINE
  8
0
 62
     0
 10
12.4932
 20
19.5174
 30
0.0
 11
12.184
 21
19.625
 31
0.0
  0
LINE
  8
0
 62
     0
 10
12.184
 20
19.625
 30
0.0
 11
11.9064
 21
19.7118
 31
0.0
  0
LINE
  8
0
 62
     0
 10
11.9064
 20
19.7118
 30
0.0
 11
11.6605
 21
19.7778
 31
0.0
  0
LINE
  8
0
 62
     0
 10
11.6605
 20
19.7778
 30
0.0
 11
11.4463
 21
19.8229
 31
0.0
  0
LINE
  8
0
 62
     0
 10
11.4463
 20
19.8229
 30
0.0
 11
11.2639
 21
19.8472
 31
0.0
  0
LINE
  8
0
 62
     0
 10
11.2639
 20
19.8472
 30
0.0
 11
10.957
 21
19.8693
 31
0.0
  0
LINE
  8
0
 62
     0
 10
10.957
 20
19.8693
 30
0.0
 11
10.6337
 21
19.8733
 31
0.0
  0
LINE
  8
0
 62
     0
 10
10.6337
 20
19.8733
 30
0.0
 11
10.2938
 21
19.8589
 31
0.0
  0
LINE
  8
0
 62
     0
 10
10.2938
 20
19.8589
 30
0.0
 11
9.9375
 21
19.8264
 31
0.0
  0
LINE
  8
0
 62
     0
 10
9.9375
 20
19.8264
 30
0.0
 11
9.56467
 21
19.7756
 31
0.0
  0
LINE
  8
0
 62
     0
 10
9.56467
 20
19.7756
 30
0.0
 11
9.17535
 21
19.7067
 31
0.0
  0
LINE
  8
0
 62
     0
 10
9.17535
 20
19.7067
 30
0.0
 11
8.76953
 21
19.6193
 31
0.0
  0
LINE
  8
0
 62
     0
 10
8.76953
 20
19.6193
 30
0.0
 11
8.34722
 21
19.5139
 31
0.0
  0
LINE
  8
0
 62
     0
 10
8.34722
 20
19.5139
 30
0.0
 11
7.88775
 21
19.3761
 31
0.0
  0
LINE
  8
0
 62
     0
 10
7.88775
 20
19.3761
 30
0.0
 11
7.45047
 21
19.2161
 31
0.0
  0
LINE
  8
0
 62
     0
 10
7.45047
 20
19.2161
 30
0.0
 11
7.03532
 21
19.034
 31
0.0
  0
LINE
  8
0
 62
     0
 10
7.03532
 20
19.034
 30
0.0
 11
6.64231
 21
18.8299
 31
0.0
  0
LINE
  8
0
 62
     0
 10
6.64231
 20
18.8299
 30
0.0
 11
6.27143
 21
18.6035
 31
0.0
  0
LINE
  8
0
 62
     0
 10
6.27143
 20
18.6035
 30
0.0
 11
5.92269
 21
18.355
 31
0.0
  0
LINE
  8
0
 62
     0
 10
5.92269
 20
18.355
 30
0.0
 11
5.59608
 21
18.0844
 31
0.0
  0
LINE
  8
0
 62
     0
 10
5.59608
 20
18.0844
 30
0.0
 11
5.29167
 21
17.7917
 31
0.0
  0
LINE
  8
0
 62
     0
 10
5.29167
 20
17.7917
 30
0.0
 11
5.00933
 21
17.4768
 31
0.0
  0
LINE
  8
0
 62
     0
 10
5.00933
 20
17.4768
 30
0.0
 11
4.74914
 21
17.1399
 31
0.0
  0
LINE
  8
0
 62
     0
 10
4.74914
 20
17.1399
 30
0.0
 11
4.51107
 21
16.7807
 31
0.0
  0
LINE
  8
0
 62
     0
 10
4.51107
 20
16.7807
 30
0.0
 11
4.29514
 21
16.3993
 31
0.0
  0
LINE
  8
0
 62
     0
 10
4.29514
 20
16.3993
 30
0.0
 11
4.10135
 21
15.996
 31
0.0
  0
LINE
  8
0
 62
     0
 10
4.10135
 20
15.996
 30
0.0
 11
3.92969
 21
15.5704
 31
0.0
  0
LINE
  8
0
 62
     0
 10
3.92969
 20
15.5704
 30
0.0
 11
3.78017
 21
15.1226
 31
0.0
  0
LINE
  8
0
 62
     0
 10
3.78017
 20
15.1226
 30
0.0
 11
3.65278
 21
14.6528
 31
0.0
  0
LINE
  8
0
 62
     0
 10
3.65278
 20
14.6528
 30
0.0
 11
3.64106
 21
14.5663
 31
0.0
  0
LINE
  8
0
 62
     0
 10
3.64106
 20
14.5663
 30
0.0
 11
3.63732
 21
14.4385
 31
0.0
  0
LINE
  8
0
 62
     0
 10
3.63732
 20
14.4385
 30
0.0
 11
3.6415
 21
14.2693
 31
0.0
  0
LINE
  8
0
 62
     0
 10
3.6415
 20
14.2693
 30
0.0
 11
3.6536
 21
14.059
 31
0.0
  0
LINE
  8
0
 62
     0
 10
3.6536
 20
14.059
 30
0.0
 11
3.67361
 21
13.8076
 31
0.0
  0
LINE
  8
0
 62
     0
 10
3.67361
 20
13.8076
 30
0.0
 11
3.70156
 21
13.5148
 31
0.0
  0
LINE
  8
0
 62
     0
 10
3.70156
 20
13.5148
 30
0.0
 11
3.73742
 21
13.1808
 31
0.0
  0
LINE
  8
0
 62
     0
 10
3.73742
 20
13.1808
 30
0.0
 11
3.78119
 21
12.8056
 31
0.0
  0
LINE
  8
0
 62
     0
 10
3.78119
 20
12.8056
 30
0.0
 11
3.8329
 21
12.3892
 31
0.0
  0
LINE
  8
0
 62
     0
 10
3.8329
 20
12.3892
 30
0.0
 11
3.89253
 21
11.9315
 31
0.0
  0
LINE
  8
0
 62
     0
 10
3.89253
 20
11.9315
 30
0.0
 11
3.96007
 21
11.4326
 31
0.0
  0
LINE
  8
0
 62
     0
 10
3.96007
 20
11.4326
 30
0.0
 11
4.03554
 21
10.8924
 31
0.0
  0
LINE
  8
0
 62
     0
 10
4.03554
 20
10.8924
 30
0.0
 11
4.11893
 21
10.311
 31
0.0
  0
LINE
  8
0
 62
     0
 10
4.11893
 20
10.311
 30
0.0
 11
4.21024
 21
9.68842
 31
0.0
  0
LINE
  8
0
 62
     0
 10
4.21024
 20
9.68842
 30
0.0
 11
4.30946
 21
9.02458
 31
0.0
  0
LINE
  8
0
 62
     0
 10
4.30946
 20
9.02458
 30
0.0
 11
4.41667
 21
8.31944
 31
0.0
  0
LINE
  8
0
 62
     0
 10
4.41667
 20
8.31944
 30
0.0
 11
4.15278
 21
8.31862
 31
0.0
  0
LINE
  8
0
 62
     0
 10
4.15278
 20
8.31862
 30
0.0
 11
3.84722
 21
8.31603
 31
0.0
  0
LINE
  8
0
 62
     0
 10
3.84722
 20
8.31603
 30
0.0
 11
3.49994
 21
8.31168
 31
0.0
  0
LINE
  8
0
 62
     0
 10
3.49994
 20
8.31168
 30
0.0
 11
3.11111
 21
8.30556
 31
0.0
  0
LINE
  8
0
 62
     0
 10
3.11111
 20
8.30556
 30
0.0
 11
2.65451
 21
8.29949
 31
0.0
  0
LINE
  8
0
 62
     0
 10
2.65451
 20
8.29949
 30
0.0
 11
2.28472
 21
8.29514
 31
0.0
  0
LINE
  8
0
 62
     0
 10
2.28472
 20
8.29514
 30
0.0
 11
2.00174
 21
8.29254
 31
0.0
  0
LINE
  8
0
 62
     0
 10
2.00174
 20
8.29254
 30
0.0
 11
1.80556
 21
8.29167
 31
0.0
  0
LINE
  8
0
 62
     0
 10
1.80556
 20
8.29167
 30
0.0
 11
1.39492
 21
8.24479
 31
0.0
  0
LINE
  8
0
 62
     0
 10
1.39492
 20
8.24479
 30
0.0
 11
0.996474
 21
8.10417
 31
0.0
  0
LINE
  8
0
 62
     0
 10
0.996474
 20
8.10417
 30
0.0
 11
0.610189
 21
7.86979
 31
0.0
  0
LINE
  8
0
 62
     0
 10
0.610189
 20
7.86979
 30
0.0
 11
0.236111
 21
7.54167
 31
0.0
  0
LINE
  8
0
 62
     0
 10
0.236111
 20
7.54167
 30
0.0
 11
0.108453
 21
7.39497
 31
0.0
  0
LINE
  8
0
 62
     0
 10
0.108453
 20
7.39497
 30
0.0
 11
0.0311957
 21
7.26042
 31
0.0
  0
LINE
  8
0
 62
     0
 10
0.0311957
 20
7.26042
 30
0.0
 11
0.00428603
 21
7.13803
 31
0.0
  0
LINE
  8
0
 62
     0
 10
0.00428603
 20
7.13803
 30
0.0
 11
0.0277778
 21
7.02778
 31
0.0
  0
LINE
  8
0
 62
     0
 10
0.0277778
 20
7.02778
 30
0.0
 11
0.110243
 21
6.93056
 31
0.0
  0
LINE
  8
0
 62
     0
 10
0.110243
 20
6.93056
 30
0.0
 11
0.260417
 21
6.86111
 31
0.0
  0
LINE
  8
0
 62
     0
 10
0.260417
 20
6.86111
 30
0.0
 11
0.478244
 21
6.81944
 31
0.0
  0
LINE
  8
0
 62
     0
 10
0.478244
 20
6.81944
 30
0.0
 11
0.763889
 21
6.80556
 31
0.0
  0
LINE
  8
0
 62
     0
 10
0.763889
 20
6.80556
 30
0.0
 11
0.845649
 21
6.80604
 31
0.0
  0
LINE
  8
0
 62
     0
 10
0.845649
 20
6.80604
 30
0.0
 11
0.973036
 21
6.80735
 31
0.0
  0
LINE
  8
0
 62
     0
 10
0.973036
 20
6.80735
 30
0.0
 11
1.146
 21
6.80951
 31
0.0
  0
LINE
  8
0
 62
     0
 10
1.146
 20
6.80951
 30
0.0
 11
1.36458
 21
6.81256
 31
0.0
  0
LINE
  8
0
 62
     0
 10
1.36458
 20
6.81256
 30
0.0
 11
1.62869
 21
6.81646
 31
0.0
  0
LINE
  8
0
 62
     0
 10
1.62869
 20
6.81646
 30
0.0
 11
1.93838
 21
6.82124
 31
0.0
  0
LINE
  8
0
 62
     0
 10
1.93838
 20
6.82124
 30
0.0
 11
2.29363
 21
6.82688
 31
0.0
  0
LINE
  8
0
 62
     0
 10
2.29363
 20
6.82688
 30
0.0
 11
2.69444
 21
6.83333
 31
0.0
  0
LINE
  8
0
 62
     0
 10
2.69444
 20
6.83333
 30
0.0
 11
3.25256
 21
6.8386
 31
0.0
  0
LINE
  8
0
 62
     0
 10
3.25256
 20
6.8386
 30
0.0
 11
3.76036
 21
6.84033
 31
0.0
  0
LINE
  8
0
 62
     0
 10
3.76036
 20
6.84033
 30
0.0
 11
4.21783
 21
6.8386
 31
0.0
  0
LINE
  8
0
 62
     0
 10
4.21783
 20
6.8386
 30
0.0
 11
4.625
 21
6.83333
 31
0.0
  0
LINE
  8
0
 62
     0
 10
4.625
 20
6.83333
 30
0.0
 11
4.69482
 21
6.18018
 31
0.0
  0
LINE
  8
0
 62
     0
 10
4.69482
 20
6.18018
 30
0.0
 11
4.74474
 21
5.56776
 31
0.0
  0
LINE
  8
0
 62
     0
 10
4.74474
 20
5.56776
 30
0.0
 11
4.77468
 21
4.99615
 31
0.0
  0
LINE
  8
0
 62
     0
 10
4.77468
 20
4.99615
 30
0.0
 11
4.78467
 21
4.46533
 31
0.0
  0
LINE
  8
0
 62
     0
 10
4.78467
 20
4.46533
 30
0.0
 11
4.77468
 21
3.97532
 31
0.0
  0
LINE
  8
0
 62
     0
 10
4.77468
 20
3.97532
 30
0.0
 11
4.74474
 21
3.5261
 31
0.0
  0
LINE
  8
0
 62
     0
 10
4.74474
 20
3.5261
 30
0.0
 11
4.69482
 21
3.11768
 31
0.0
  0
LINE
  8
0
 62
     0
 10
4.69482
 20
3.11768
 30
0.0
 11
4.625
 21
2.75
 31
0.0
  0
LINE
  8
0
 62
     0
 10
4.625
 20
2.75
 30
0.0
 11
4.50803
 21
2.3405
 31
0.0
  0
LINE
  8
0
 62
     0
 10
4.50803
 20
2.3405
 30
0.0
 11
4.35851
 21
1.98699
 31
0.0
  0
LINE
  8
0
 62
     0
 10
4.35851
 20
1.98699
 30
0.0
 11
4.17643
 21
1.68946
 31
0.0
  0
LINE
  8
0
 62
     0
 10
4.17643
 20
1.68946
 30
0.0
 11
3.96181
 21
1.44792
 31
0.0
  0
LINE
  8
0
 62
     0
 10
3.96181
 20
1.44792
 30
0.0
 11
3.71457
 21
1.26237
 31
0.0
  0
LINE
  8
0
 62
     0
 10
3.71457
 20
1.26237
 30
0.0
 11
3.43485
 21
1.13281
 31
0.0
  0
LINE
  8
0
 62
     0
 10
3.43485
 20
1.13281
 30
0.0
 11
3.12256
 21
1.05924
 31
0.0
  0
LINE
  8
0
 62
     0
 10
3.12256
 20
1.05924
 30
0.0
 11
2.77778
 21
1.04167
 31
0.0
  0
LINE
  8
0
 62
     0
 10
2.77778
 20
1.04167
 30
0.0
 11
2.64714
 21
1.03082
 31
0.0
  0
LINE
  8
0
 62
     0
 10
2.64714
 20
1.03082
 30
0.0
 11
2.49826
 21
1.00521
 31
0.0
  0
LINE
  8
0
 62
     0
 10
2.49826
 20
1.00521
 30
0.0
 11
2.33117
 21
0.964844
 31
0.0
  0
LINE
  8
0
 62
     0
 10
2.33117
 20
0.964844
 30
0.0
 11
2.14583
 21
0.909722
 31
0.0
  0
LINE
  8
0
 62
     0
 10
2.14583
 20
0.909722
 30
0.0
 11
1.94222
 21
0.839844
 31
0.0
  0
LINE
  8
0
 62
     0
 10
1.94222
 20
0.839844
 30
0.0
 11
1.72043
 21
0.755208
 31
0.0
  0
LINE
  8
0
 62
     0
 10
1.72043
 20
0.755208
 30
0.0
 11
1.48042
 21
0.655817
 31
0.0
  0
LINE
  8
0
 62
     0
 10
1.48042
 20
0.655817
 30
0.0
 11
1.22222
 21
0.541667
 31
0.0
  0
LINE
  8
0
 62
     0
 10
1.22222
 20
0.541667
 30
0.0
 11
1.01649
 21
0.435764
 31
0.0
  0
LINE
  8
0
 62
     0
 10
1.01649
 20
0.435764
 30
0.0
 11
0.857639
 21
0.340278
 31
0.0
  0
LINE
  8
0
 62
     0
 10
0.857639
 20
0.340278
 30
0.0
 11
0.74566
 21
0.255263
 31
0.0
  0
LINE
  8
0
 62
     0
 10
0.74566
 20
0.255263
 30
0.0
 11
0.680556
 21
0.180556
 31
0.0
  0
LINE
  8
0
 62
     0
 10
0.680556
 20
0.180556
 30
0.0
 11
0.66059
 21
0.112033
 31
0.0
  0
LINE
  8
0
 62
     0
 10
0.66059
 20
0.112033
 30
0.0
 11
0.711806
 21
0.0590278
 31
0.0
  0
LINE
  8
0
 62
     0
 10
0.711806
 20
0.0590278
 30
0.0
 11
0.834201
 21
0.0217014
 31
0.0
  0
LINE
  8
0
 62
     0
 10
0.834201
 20
0.0217014
 30
0.0
 11
1.02778
 21
-0
 31
0.0
  0
LINE
  8
0
 62
     0
 10
1.02778
 20
-0
 30
0.0
 11
1.54861
 21
-0
 31
0.0
  0
LINE
  8
0
 62
     0
 10
1.54861
 20
-0
 30
0.0
 11
2.11111
 21
0.0277778
 31
0.0
  0
LINE
  8
0
 62
     0
 10
2.11111
 20
0.0277778
 30
0.0
 11
2.20611
 21
0.0294596
 31
0.0
  0
LINE
  8
0
 62
     0
 10
2.20611
 20
0.0294596
 30
0.0
 11
2.33849
 21
0.0308703
 31
0.0
  0
LINE
  8
0
 62
     0
 10
2.33849
 20
0.0308703
 30
0.0
 11
2.50819
 21
0.0320637
 31
0.0
  0
LINE
  8
0
 62
     0
 10
2.50819
 20
0.0320637
 30
0.0
 11
2.71522
 21
0.0330404
 31
0.0
  0
LINE
  8
0
 62
     0
 10
2.71522
 20
0.0330404
 30
0.0
 11
2.95958
 21
0.0337999
 31
0.0
  0
LINE
  8
0
 62
     0
 10
2.95958
 20
0.0337999
 30
0.0
 11
3.24126
 21
0.0343425
 31
0.0
  0
LINE
  8
0
 62
     0
 10
3.24126
 20
0.0343425
 30
0.0
 11
3.56028
 21
0.0346679
 31
0.0
  0
LINE
  8
0
 62
     0
 10
3.56028
 20
0.0346679
 30
0.0
 11
3.91661
 21
0.0347765
 31
0.0
  0
LINE
  8
0
 62
     0
 10
3.91661
 20
0.0347765
 30
0.0
 11
4.31028
 21
0.0346679
 31
0.0
  0
LINE
  8
0
 62
     0
 10
4.31028
 20
0.0346679
 30
0.0
 11
4.74126
 21
0.0343425
 31
0.0
  0
LINE
  8
0
 62
     0
 10
4.74126
 20
0.0343425
 30
0.0
 11
5.20958
 21
0.0337999
 31
0.0
  0
LINE
  8
0
 62
     0
 10
5.20958
 20
0.0337999
 30
0.0
 11
5.71522
 21
0.0330404
 31
0.0
  0
LINE
  8
0
 62
     0
 10
5.71522
 20
0.0330404
 30
0.0
 11
6.25819
 21
0.0320637
 31
0.0
  0
LINE
  8
0
 62
     0
 10
6.25819
 20
0.0320637
 30
0.0
 11
6.83849
 21
0.0308703
 31
0.0
  0
LINE
  8
0
 62
     0
 10
6.83849
 20
0.0308703
 30
0.0
 11
7.45611
 21
0.0294596
 31
0.0
  0
LINE
  8
0
 62
     0
 10
7.45611
 20
0.0294596
 30
0.0
 11
8.11111
 21
0.0277778
 31
0.0
  0
LINE
  8
0
 62
     0
 10
8.11111
 20
0.0277778
 30
0.0
 11
9.00087
 21
0.0302192
 31
0.0
  0
LINE
  8
0
 62
     0
 10
9.00087
 20
0.0302192
 30
0.0
 11
9.85069
 21
0.0373807
 31
0.0
  0
LINE
  8
0
 62
     0
 10
9.85069
 20
0.0373807
 30
0.0
 11
10.6606
 21
0.0493164
 31
0.0
  0
LINE
  8
0
 62
     0
 10
10.6606
 20
0.0493164
 30
0.0
 11
11.4306
 21
0.0660265
 31
0.0
  0
LINE
  8
0
 62
     0
 10
11.4306
 20
0.0660265
 30
0.0
 11
12.1606
 21
0.0875108
 31
0.0
  0
LINE
  8
0
 62
     0
 10
12.1606
 20
0.0875108
 30
0.0
 11
12.8507
 21
0.11377
 31
0.0
  0
LINE
  8
0
 62
     0
 10
12.8507
 20
0.11377
 30
0.0
 11
13.5009
 21
0.144803
 31
0.0
  0
LINE
  8
0
 62
     0
 10
13.5009
 20
0.144803
 30
0.0
 11
14.1111
 21
0.180556
 31
0.0
  0
LINE
  8
0
 62
     0
 10
14.1111
 20
0.180556
 30
0.0
 11
14.4444
 21
0.225694
 31
0.0
  0
LINE
  8
0
 62
     0
 10
14.4444
 20
0.225694
 30
0.0
 11
14.8056
 21
0.333333
 31
0.0
  0
LINE
  8
0
 62
     0
 10
14.8056
 20
0.333333
 30
0.0
 11
15.1944
 21
0.503526
 31
0.0
  0
LINE
  8
0
 62
     0
 10
15.1944
 20
0.503526
 30
0.0
 11
15.6111
 21
0.736111
 31
0.0
  0
LINE
  8
0
 62
     0
 10
15.6111
 20
0.736111
 30
0.0
 11
15.7726
 21
0.8412
 31
0.0
  0
LINE
  8
0
 62
     0
 10
15.7726
 20
0.8412
 30
0.0
 11
15.8819
 21
0.934082
 31
0.0
  0
LINE
  8
0
 62
     0
 10
15.8819
 20
0.934082
 30
0.0
 11
15.9393
 21
1.01481
 31
0.0
  0
LINE
  8
0
 62
     0
 10
15.9393
 20
1.01481
 30
0.0
 11
15.9444
 21
1.08333
 31
0.0
  0
LINE
  8
0
 62
     0
 10
15.9444
 20
1.08333
 30
0.0
 11
15.8879
 21
1.14155
 31
0.0
  0
LINE
  8
0
 62
     0
 10
15.8879
 20
1.14155
 30
0.0
 11
15.7604
 21
1.17714
 31
0.0
  0
LINE
  8
0
 62
     0
 10
15.7604
 20
1.17714
 30
0.0
 11
15.5615
 21
1.19016
 31
0.0
  0
LINE
  8
0
 62
     0
 10
15.5615
 20
1.19016
 30
0.0
 11
15.2917
 21
1.18056
 31
0.0
  0
LINE
  8
0
 62
     0
 10
15.2917
 20
1.18056
 30
0.0
 11
15.0692
 21
1.17046
 31
0.0
  0
LINE
  8
0
 62
     0
 10
15.0692
 20
1.17046
 30
0.0
 11
14.7943
 21
1.16086
 31
0.0
  0
LINE
  8
0
 62
     0
 10
14.7943
 20
1.16086
 30
0.0
 11
14.4668
 21
1.1518
 31
0.0
  0
LINE
  8
0
 62
     0
 10
14.4668
 20
1.1518
 30
0.0
 11
14.0868
 21
1.14328
 31
0.0
  0
LINE
  8
0
 62
     0
 10
14.0868
 20
1.14328
 30
0.0
 11
13.6543
 21
1.13531
 31
0.0
  0
LINE
  8
0
 62
     0
 10
13.6543
 20
1.13531
 30
0.0
 11
13.1693
 21
1.12788
 31
0.0
  0
LINE
  8
0
 62
     0
 10
13.1693
 20
1.12788
 30
0.0
 11
12.6317
 21
1.12098
 31
0.0
  0
LINE
  8
0
 62
     0
 10
12.6317
 20
1.12098
 30
0.0
 11
12.0417
 21
1.11464
 31
0.0
  0
LINE
  8
0
 62
     0
 10
12.0417
 20
1.11464
 30
0.0
 11
11.3991
 21
1.10883
 31
0.0
  0
LINE
  8
0
 62
     0
 10
11.3991
 20
1.10883
 30
0.0
 11
10.704
 21
1.10357
 31
0.0
  0
LINE
  8
0
 62
     0
 10
10.704
 20
1.10357
 30
0.0
 11
9.95638
 21
1.09885
 31
0.0
  0
LINE
  8
0
 62
     0
 10
9.95638
 20
1.09885
 30
0.0
 11
9.15625
 21
1.09467
 31
0.0
  0
LINE
  8
0
 62
     0
 10
9.15625
 20
1.09467
 30
0.0
 11
8.3036
 21
1.09104
 31
0.0
  0
LINE
  8
0
 62
     0
 10
8.3036
 20
1.09104
 30
0.0
 11
7.39844
 21
1.08794
 31
0.0
  0
LINE
  8
0
 62
     0
 10
7.39844
 20
1.08794
 30
0.0
 11
6.44075
 21
1.08539
 31
0.0
  0
LINE
  8
0
 62
     0
 10
6.44075
 20
1.08539
 30
0.0
 11
5.43056
 21
1.08333
 31
0.0
  0
LINE
  8
0
 62
     0
 10
5.43056
 20
1.08333
 30
0.0
 11
5.70182
 21
1.29546
 31
0.0
  0
LINE
  8
0
 62
     0
 10
5.70182
 20
1.29546
 30
0.0
 11
5.95313
 21
1.52561
 31
0.0
  0
LINE
  8
0
 62
     0
 10
5.95313
 20
1.52561
 30
0.0
 11
6.18446
 21
1.77376
 31
0.0
  0
LINE
  8
0
 62
     0
 10
6.18446
 20
1.77376
 30
0.0
 11
6.39583
 21
2.03993
 31
0.0
  0
LINE
  8
0
 62
     0
 10
6.39583
 20
2.03993
 30
0.0
 11
6.58724
 21
2.32411
 31
0.0
  0
LINE
  8
0
 62
     0
 10
6.58724
 20
2.32411
 30
0.0
 11
6.75868
 21
2.62631
 31
0.0
  0
LINE
  8
0
 62
     0
 10
6.75868
 20
2.62631
 30
0.0
 11
6.91015
 21
2.9465
 31
0.0
  0
LINE
  8
0
 62
     0
 10
6.91015
 20
2.9465
 30
0.0
 11
7.04167
 21
3.28472
 31
0.0
  0
LINE
  8
0
 62
     0
 10
7.04167
 20
3.28472
 30
0.0
 11
7.15321
 21
3.64094
 31
0.0
  0
LINE
  8
0
 62
     0
 10
7.15321
 20
3.64094
 30
0.0
 11
7.24479
 21
4.01519
 31
0.0
  0
LINE
  8
0
 62
     0
 10
7.24479
 20
4.01519
 30
0.0
 11
7.3164
 21
4.40744
 31
0.0
  0
LINE
  8
0
 62
     0
 10
7.3164
 20
4.40744
 30
0.0
 11
7.36806
 21
4.81771
 31
0.0
  0
LINE
  8
0
 62
     0
 10
7.36806
 20
4.81771
 30
0.0
 11
7.39974
 21
5.24599
 31
0.0
  0
LINE
  8
0
 62
     0
 10
7.39974
 20
5.24599
 30
0.0
 11
7.41146
 21
5.69228
 31
0.0
  0
LINE
  8
0
 62
     0
 10
7.41146
 20
5.69228
 30
0.0
 11
7.40321
 21
6.15657
 31
0.0
  0
LINE
  8
0
 62
     0
 10
7.40321
 20
6.15657
 30
0.0
 11
7.375
 21
6.63889
 31
0.0
  0
LINE
  8
0
 62
     0
 10
7.375
 20
6.63889
 30
0.0
 11
8.14583
 21
6.5191
 31
0.0
  0
LINE
  8
0
 62
     0
 10
8.14583
 20
6.5191
 30
0.0
 11
8.875
 21
6.36806
 31
0.0
  0
LINE
  8
0
 62
     0
 10
8.875
 20
6.36806
 30
0.0
 11
9.5625
 21
6.18576
 31
0.0
  0
LINE
  8
0
 62
     0
 10
9.5625
 20
6.18576
 30
0.0
 11
10.2083
 21
5.97222
 31
0.0
  0
LINE
  8
0
 62
     0
 10
10.2083
 20
5.97222
 30
0.0
 11
10.3728
 21
5.92974
 31
0.0
  0
LINE
  8
0
 62
     0
 10
10.3728
 20
5.92974
 30
0.0
 11
10.5538
 21
5.91325
 31
0.0
  0
LINE
  8
0
 62
     0
 10
10.5538
 20
5.91325
 30
0.0
 11
10.7513
 21
5.92279
 31
0.0
  0
LINE
  8
0
 62
     0
 10
10.7513
 20
5.92279
 30
0.0
 11
10.9653
 21
5.95839
 31
0.0
  0
LINE
  8
0
 62
     0
 10
10.9653
 20
5.95839
 30
0.0
 11
11.1958
 21
6.02001
 31
0.0
  0
LINE
  8
0
 62
     0
 10
11.1958
 20
6.02001
 30
0.0
 11
11.4427
 21
6.10769
 31
0.0
  0
LINE
  8
0
 62
     0
 10
11.4427
 20
6.10769
 30
0.0
 11
11.7062
 21
6.2214
 31
0.0
  0
LINE
  8
0
 62
     0
 10
11.7062
 20
6.2214
 30
0.0
 11
11.9861
 21
6.36111
 31
0.0
  0
LINE
  8
0
 62
     0
 10
11.9861
 20
6.36111
 30
0.0
 11
12.1953
 21
6.48529
 31
0.0
  0
LINE
  8
0
 62
     0
 10
12.1953
 20
6.48529
 30
0.0
 11
12.3645
 21
6.60769
 31
0.0
  0
LINE
  8
0
 62
     0
 10
12.3645
 20
6.60769
 30
0.0
 11
12.4939
 21
6.72835
 31
0.0
  0
LINE
  8
0
 62
     0
 10
12.4939
 20
6.72835
 30
0.0
 11
12.5833
 21
6.84722
 31
0.0
  0
LINE
  8
0
 62
     0
 10
12.5833
 20
6.84722
 30
0.0
 11
12.6198
 21
6.9714
 31
0.0
  0
LINE
  8
0
 62
     0
 10
12.6198
 20
6.9714
 30
0.0
 11
12.5903
 21
7.07986
 31
0.0
  0
LINE
  8
0
 62
     0
 10
12.5903
 20
7.07986
 30
0.0
 11
12.4948
 21
7.17275
 31
0.0
  0
LINE
  8
0
 62
     0
 10
12.4948
 20
7.17275
 30
0.0
 11
12.3333
 21
7.25
 31
0.0
  0
LINE
  8
0
 62
     0
 10
12.3333
 20
7.25
 30
0.0
 11
11.7664
 21
7.44168
 31
0.0
  0
LINE
  8
0
 62
     0
 10
11.7664
 20
7.44168
 30
0.0
 11
11.177
 21
7.61376
 31
0.0
  0
LINE
  8
0
 62
     0
 10
11.177
 20
7.61376
 30
0.0
 11
10.5651
 21
7.76633
 31
0.0
  0
LINE
  8
0
 62
     0
 10
10.5651
 20
7.76633
 30
0.0
 11
9.9305
 21
7.89931
 31
0.0
  0
LINE
  8
0
 62
     0
 10
9.9305
 20
7.89931
 30
0.0
 11
9.27339
 21
8.01281
 31
0.0
  0
LINE
  8
0
 62
     0
 10
9.27339
 20
8.01281
 30
0.0
 11
8.59369
 21
8.10678
 31
0.0
  0
LINE
  8
0
 62
     0
 10
8.59369
 20
8.10678
 30
0.0
 11
7.89144
 21
8.18121
 31
0.0
  0
LINE
  8
0
 62
     0
 10
7.89144
 20
8.18121
 30
0.0
 11
7.16667
 21
8.23611
 31
0.0
  0
LINE
  8
0
 62
     0
 10
7.16667
 20
8.23611
 30
0.0
 11
7.14908
 21
8.33203
 31
0.0
  0
LINE
  8
0
 62
     0
 10
7.14908
 20
8.33203
 30
0.0
 11
7.11719
 21
8.50174
 31
0.0
  0
LINE
  8
0
 62
     0
 10
7.11719
 20
8.50174
 30
0.0
 11
7.07096
 21
8.74522
 31
0.0
  0
LINE
  8
0
 62
     0
 10
7.07096
 20
8.74522
 30
0.0
 11
7.01042
 21
9.0625
 31
0.0
  0
LINE
  8
0
 62
     0
 10
7.01042
 20
9.0625
 30
0.0
 11
6.93554
 21
9.45356
 31
0.0
  0
LINE
  8
0
 62
     0
 10
6.93554
 20
9.45356
 30
0.0
 11
6.84636
 21
9.9184
 31
0.0
  0
LINE
  8
0
 62
     0
 10
6.84636
 20
9.9184
 30
0.0
 11
6.74283
 21
10.457
 31
0.0
  0
LINE
  8
0
 62
     0
 10
6.74283
 20
10.457
 30
0.0
 11
6.625
 21
11.0694
 31
0.0
  0
LINE
  8
0
 62
     0
 10
6.625
 20
11.0694
 30
0.0
 11
6.47396
 21
11.888
 31
0.0
  0
LINE
  8
0
 62
     0
 10
6.47396
 20
11.888
 30
0.0
 11
6.35417
 21
12.6354
 31
0.0
  0
LINE
  8
0
 62
     0
 10
6.35417
 20
12.6354
 30
0.0
 11
6.26563
 21
13.3116
 31
0.0
  0
LINE
  8
0
 62
     0
 10
6.26563
 20
13.3116
 30
0.0
 11
6.20833
 21
13.9167
 31
0.0
  0
LINE
  8
0
 62
     0
 10
6.20833
 20
13.9167
 30
0.0
 11
6.19314
 21
14.4954
 31
0.0
  0
LINE
  8
0
 62
     0
 10
6.19314
 20
14.4954
 30
0.0
 11
6.2309
 21
15.0443
 31
0.0
  0
LINE
  8
0
 62
     0
 10
6.2309
 20
15.0443
 30
0.0
 11
6.32161
 21
15.5632
 31
0.0
  0
LINE
  8
0
 62
     0
 10
6.32161
 20
15.5632
 30
0.0
 11
6.46528
 21
16.0521
 31
0.0
  0
LINE
  8
0
 62
     0
 10
6.46528
 20
16.0521
 30
0.0
 11
6.66189
 21
16.5111
 31
0.0
  0
LINE
  8
0
 62
     0
 10
6.66189
 20
16.5111
 30
0.0
 11
6.91146
 21
16.9401
 31
0.0
  0
LINE
  8
0
 62
     0
 10
6.91146
 20
16.9401
 30
0.0
 11
7.21397
 21
17.3392
 31
0.0
  0
LINE
  8
0
 62
     0
 10
7.21397
 20
17.3392
 30
0.0
 11
7.56944
 21
17.7083
 31
0.0
  0
LINE
  8
0
 62
     0
 10
7.56944
 20
17.7083
 30
0.0
 11
7.99001
 21
18.0517
 31
0.0
  0
LINE
  8
0
 62
     0
 10
7.99001
 20
18.0517
 30
0.0
 11
8.43229
 21
18.3108
 31
0.0
  0
LINE
  8
0
 62
     0
 10
8.43229
 20
18.3108
 30
0.0
 11
8.89626
 21
18.4857
 31
0.0
  0
LINE
  8
0
 62
     0
 10
8.89626
 20
18.4857
 30
0.0
 11
9.38194
 21
18.5764
 31
0.0
  0
LINE
  8
0
 62
     0
 10
9.38194
 20
18.5764
 30
0.0
 11
9.88932
 21
18.5829
 31
0.0
  0
LINE
  8
0
 62
     0
 10
9.88932
 20
18.5829
 30
0.0
 11
10.4184
 21
18.5053
 31
0.0
  0
LINE
  8
0
 62
     0
 10
10.4184
 20
18.5053
 30
0.0
 11
10.9692
 21
18.3433
 31
0.0
  0
LINE
  8
0
 62
     0
 10
10.9692
 20
18.3433
 30
0.0
 11
11.5417
 21
18.0972
 31
0.0
  0
LINE
  8
0
 62
     0
 10
11.5417
 20
18.0972
 30
0.0
 11
11.9288
 21
17.9239
 31
0.0
  0
LINE
  8
0
 62
     0
 10
11.9288
 20
17.9239
 30
0.0
 11
12.3194
 21
17.7787
 31
0.0
  0
LINE
  8
0
 62
     0
 10
12.3194
 20
17.7787
 30
0.0
 11
12.7135
 21
17.6617
 31
0.0
  0
LINE
  8
0
 62
     0
 10
12.7135
 20
17.6617
 30
0.0
 11
13.1111
 21
17.5729
 31
0.0
  0
LINE
  8
0
 62
     0
 10
13.1111
 20
17.5729
 30
0.0
 11
13.5122
 21
17.5124
 31
0.0
  0
LINE
  8
0
 62
     0
 10
13.5122
 20
17.5124
 30
0.0
 11
13.9167
 21
17.4801
 31
0.0
  0
LINE
  8
0
 62
     0
 10
13.9167
 20
17.4801
 30
0.0
 11
14.3247
 21
17.476
 31
0.0
  0
LINE
  8
0
 62
     0
 10
14.3247
 20
17.476
 30
0.0
 11
14.7361
 21
17.5
 31
0.0
  0
LINE
  8
0
 62
     0
 10
14.7361
 20
17.5
 30
0.0
 11
15.0694
 21
17.5582
 31
0.0
  0
LINE
  8
0
 62
     0
 10
15.0694
 20
17.5582
 30
0.0
 11
15.4306
 21
17.6771
 31
0.0
  0
LINE
  8
0
 62
     0
 10
15.4306
 20
17.6771
 30
0.0
 11
15.8194
 21
17.8568
 31
0.0
  0
LINE
  8
0
 62
     0
 10
15.8194
 20
17.8568
 30
0.0
 11
16.2361
 21
18.0972
 31
0.0
  0
LINE
  8
0
 62
     0
 10
16.2361
 20
18.0972
 30
0.0
 11
16.3924
 21
18.2014
 31
0.0
  0
LINE
  8
0
 62
     0
 10
16.3924
 20
18.2014
 30
0.0
 11
16.5
 21
18.2917
 31
0.0
  0
LINE
  8
0
 62
     0
 10
16.5
 20
18.2917
 30
0.0
 11
16.559
 21
18.3681
 31
0.0
  0
LINE
  8
0
 62
     0
 10
16.559
 20
18.3681
 30
0.0
 11
16.5694
 21
18.4306
 31
0.0
  0
LINE
  8
0
 62
     0
 10
16.5694
 20
18.4306
 30
0.0
 11
16.5129
 21
18.4879
 31
0.0
  0
LINE
  8
0
 62
     0
 10
16.5129
 20
18.4879
 30
0.0
 11
16.3854
 21
18.5208
 31
0.0
  0
LINE
  8
0
 62
     0
 10
16.3854
 20
18.5208
 30
0.0
 11
16.1865
 21
18.5296
 31
0.0
  0
LINE
  8
0
 62
     0
 10
16.1865
 20
18.5296
 30
0.0
 11
15.9167
 21
18.5139
 31
0.0
  0
LINE
  8
0
 62
     0
 10
15.9167
 20
18.5139
 30
0.0
 11
15.7075
 21
18.5043
 31
0.0
  0
LINE
  8
0
 62
     0
 10
15.7075
 20
18.5043
 30
0.0
 11
15.4757
 21
18.5174
 31
0.0
  0
LINE
  8
0
 62
     0
 10
15.4757
 20
18.5174
 30
0.0
 11
15.2214
 21
18.5529
 31
0.0
  0
LINE
  8
0
 62
     0
 10
15.2214
 20
18.5529
 30
0.0
 11
14.9444
 21
18.6111
 31
0.0
  0
LINE
  8
0
 62
     0
 10
14.9444
 20
18.6111
 30
0.0
 11
14.645
 21
18.6918
 31
0.0
  0
LINE
  8
0
 62
     0
 10
14.645
 20
18.6918
 30
0.0
 11
14.3229
 21
18.7951
 31
0.0
  0
LINE
  8
0
 62
     0
 10
14.3229
 20
18.7951
 30
0.0
 11
13.9783
 21
18.921
 31
0.0
  0
LINE
  8
0
 62
     0
 10
13.9783
 20
18.921
 30
0.0
 11
13.6111
 21
19.0694
 31
0.0
  0
ENDSEC
  0
EOF
