  0
SECTION
  2
HEADER
  9
$ACADVER
  1
AC1009
  9
$EXTMIN
 10
0.0
 20
0.0
 30
0.0
  9
$EXTMAX
 10
1000.0
 20
1000.0
 30
0.0
  9
$FILLMODE
 70
 0
  9
$SPLFRAME
 70
 1
  0
ENDSEC
  0
SECTION
  2
TABLES
  0
TABLE
  2
LAYER
 70
1
  0
LAYER
  2
0
 70
     0
 62
     7
  6
CONTINUOUS
  0
ENDTAB
  0
ENDSEC
  0
SECTION
  2
ENTITIES
  0
LINE
  8
0
 62
     0
 10
17.4028
 20
17.7778
 30
0.0
 11
17.6389
 21
17.9176
 31
0.0
  0
LINE
  8
0
 62
     0
 10
17.6389
 20
17.9176
 30
0.0
 11
17.8472
 21
18.0729
 31
0.0
  0
LINE
  8
0
 62
     0
 10
17.8472
 20
18.0729
 30
0.0
 11
18.0278
 21
18.2439
 31
0.0
  0
LINE
  8
0
 62
     0
 10
18.0278
 20
18.2439
 30
0.0
 11
18.1806
 21
18.4306
 31
0.0
  0
LINE
  8
0
 62
     0
 10
18.1806
 20
18.4306
 30
0.0
 11
18.2994
 21
18.625
 31
0.0
  0
LINE
  8
0
 62
     0
 10
18.2994
 20
18.625
 30
0.0
 11
18.3646
 21
18.8056
 31
0.0
  0
LINE
  8
0
 62
     0
 10
18.3646
 20
18.8056
 30
0.0
 11
18.3758
 21
18.9722
 31
0.0
  0
LINE
  8
0
 62
     0
 10
18.3758
 20
18.9722
 30
0.0
 11
18.3333
 21
19.125
 31
0.0
  0
LINE
  8
0
 62
     0
 10
18.3333
 20
19.125
 30
0.0
 11
18.2169
 21
19.2674
 31
0.0
  0
LINE
  8
0
 62
     0
 10
18.2169
 20
19.2674
 30
0.0
 11
18.0347
 21
19.375
 31
0.0
  0
LINE
  8
0
 62
     0
 10
18.0347
 20
19.375
 30
0.0
 11
17.7864
 21
19.4479
 31
0.0
  0
LINE
  8
0
 62
     0
 10
17.7864
 20
19.4479
 30
0.0
 11
17.4722
 21
19.4861
 31
0.0
  0
LINE
  8
0
 62
     0
 10
17.4722
 20
19.4861
 30
0.0
 11
17.1211
 21
19.5062
 31
0.0
  0
LINE
  8
0
 62
     0
 10
17.1211
 20
19.5062
 30
0.0
 11
16.7067
 21
19.5321
 31
0.0
  0
LINE
  8
0
 62
     0
 10
16.7067
 20
19.5321
 30
0.0
 11
16.2287
 21
19.5636
 31
0.0
  0
LINE
  8
0
 62
     0
 10
16.2287
 20
19.5636
 30
0.0
 11
15.6875
 21
19.6007
 31
0.0
  0
LINE
  8
0
 62
     0
 10
15.6875
 20
19.6007
 30
0.0
 11
15.0829
 21
19.6435
 31
0.0
  0
LINE
  8
0
 62
     0
 10
15.0829
 20
19.6435
 30
0.0
 11
14.415
 21
19.6918
 31
0.0
  0
LINE
  8
0
 62
     0
 10
14.415
 20
19.6918
 30
0.0
 11
13.6836
 21
19.7458
 31
0.0
  0
LINE
  8
0
 62
     0
 10
13.6836
 20
19.7458
 30
0.0
 11
12.8889
 21
19.8056
 31
0.0
  0
LINE
  8
0
 62
     0
 10
12.8889
 20
19.8056
 30
0.0
 11
12.1857
 21
19.8556
 31
0.0
  0
LINE
  8
0
 62
     0
 10
12.1857
 20
19.8556
 30
0.0
 11
11.5208
 21
19.9011
 31
0.0
  0
LINE
  8
0
 62
     0
 10
11.5208
 20
19.9011
 30
0.0
 11
10.894
 21
19.9424
 31
0.0
  0
LINE
  8
0
 62
     0
 10
10.894
 20
19.9424
 30
0.0
 11
10.3055
 21
19.9792
 31
0.0
  0
LINE
  8
0
 62
     0
 10
10.3055
 20
19.9792
 30
0.0
 11
9.75515
 21
20.0118
 31
0.0
  0
LINE
  8
0
 62
     0
 10
9.75515
 20
20.0118
 30
0.0
 11
9.243
 21
20.04
 31
0.0
  0
LINE
  8
0
 62
     0
 10
9.243
 20
20.04
 30
0.0
 11
8.76904
 21
20.0639
 31
0.0
  0
LINE
  8
0
 62
     0
 10
8.76904
 20
20.0639
 30
0.0
 11
8.33333
 21
20.0833
 31
0.0
  0
LINE
  8
0
 62
     0
 10
8.33333
 20
20.0833
 30
0.0
 11
7.03944
 21
20.1204
 31
0.0
  0
LINE
  8
0
 62
     0
 10
7.03944
 20
20.1204
 30
0.0
 11
5.78988
 21
20.1276
 31
0.0
  0
LINE
  8
0
 62
     0
 10
5.78988
 20
20.1276
 30
0.0
 11
4.58458
 21
20.1049
 31
0.0
  0
LINE
  8
0
 62
     0
 10
4.58458
 20
20.1049
 30
0.0
 11
3.42361
 21
20.0521
 31
0.0
  0
LINE
  8
0
 62
     0
 10
3.42361
 20
20.0521
 30
0.0
 11
2.30686
 21
19.9694
 31
0.0
  0
LINE
  8
0
 62
     0
 10
2.30686
 20
19.9694
 30
0.0
 11
1.23438
 21
19.8568
 31
0.0
  0
LINE
  8
0
 62
     0
 10
1.23438
 20
19.8568
 30
0.0
 11
0.206164
 21
19.7142
 31
0.0
  0
LINE
  8
0
 62
     0
 10
0.206164
 20
19.7142
 30
0.0
 11
-0.777778
 21
19.5417
 31
0.0
  0
LINE
  8
0
 62
     0
 10
-0.777778
 20
19.5417
 30
0.0
 11
-1.08247
 21
19.4583
 31
0.0
  0
LINE
  8
0
 62
     0
 10
-1.08247
 20
19.4583
 30
0.0
 11
-1.34375
 21
19.3472
 31
0.0
  0
LINE
  8
0
 62
     0
 10
-1.34375
 20
19.3472
 30
0.0
 11
-1.56164
 21
19.2083
 31
0.0
  0
LINE
  8
0
 62
     0
 10
-1.56164
 20
19.2083
 30
0.0
 11
-1.73611
 21
19.0417
 31
0.0
  0
LINE
  8
0
 62
     0
 10
-1.73611
 20
19.0417
 30
0.0
 11
-1.85157
 21
18.8794
 31
0.0
  0
LINE
  8
0
 62
     0
 10
-1.85157
 20
18.8794
 30
0.0
 11
-1.92014
 21
18.7118
 31
0.0
  0
LINE
  8
0
 62
     0
 10
-1.92014
 20
18.7118
 30
0.0
 11
-1.94185
 21
18.539
 31
0.0
  0
LINE
  8
0
 62
     0
 10
-1.94185
 20
18.539
 30
0.0
 11
-1.91667
 21
18.3611
 31
0.0
  0
LINE
  8
0
 62
     0
 10
-1.91667
 20
18.3611
 30
0.0
 11
-1.84207
 21
18.1858
 31
0.0
  0
LINE
  8
0
 62
     0
 10
-1.84207
 20
18.1858
 30
0.0
 11
-1.72922
 21
18.0347
 31
0.0
  0
LINE
  8
0
 62
     0
 10
-1.72922
 20
18.0347
 30
0.0
 11
-1.57818
 21
17.9081
 31
0.0
  0
LINE
  8
0
 62
     0
 10
-1.57818
 20
17.9081
 30
0.0
 11
-1.38889
 21
17.8056
 31
0.0
  0
LINE
  8
0
 62
     0
 10
-1.38889
 20
17.8056
 30
0.0
 11
-1.14849
 21
17.7222
 31
0.0
  0
LINE
  8
0
 62
     0
 10
-1.14849
 20
17.7222
 30
0.0
 11
-0.885471
 21
17.6806
 31
0.0
  0
LINE
  8
0
 62
     0
 10
-0.885471
 20
17.6806
 30
0.0
 11
-0.599881
 21
17.6806
 31
0.0
  0
LINE
  8
0
 62
     0
 10
-0.599881
 20
17.6806
 30
0.0
 11
-0.291667
 21
17.7222
 31
0.0
  0
LINE
  8
0
 62
     0
 10
-0.291667
 20
17.7222
 30
0.0
 11
0.78125
 21
17.9029
 31
0.0
  0
LINE
  8
0
 62
     0
 10
0.78125
 20
17.9029
 30
0.0
 11
1.90278
 21
18.0419
 31
0.0
  0
LINE
  8
0
 62
     0
 10
1.90278
 20
18.0419
 30
0.0
 11
3.07292
 21
18.1392
 31
0.0
  0
LINE
  8
0
 62
     0
 10
3.07292
 20
18.1392
 30
0.0
 11
4.29167
 21
18.1944
 31
0.0
  0
LINE
  8
0
 62
     0
 10
4.29167
 20
18.1944
 30
0.0
 11
4.36344
 21
17.2704
 31
0.0
  0
LINE
  8
0
 62
     0
 10
4.36344
 20
17.2704
 30
0.0
 11
4.41922
 21
16.29
 31
0.0
  0
LINE
  8
0
 62
     0
 10
4.41922
 20
16.29
 30
0.0
 11
4.45893
 21
15.2531
 31
0.0
  0
LINE
  8
0
 62
     0
 10
4.45893
 20
15.2531
 30
0.0
 11
4.48258
 21
14.1597
 31
0.0
  0
LINE
  8
0
 62
     0
 10
4.48258
 20
14.1597
 30
0.0
 11
4.49018
 21
13.01
 31
0.0
  0
LINE
  8
0
 62
     0
 10
4.49018
 20
13.01
 30
0.0
 11
4.48172
 21
11.8038
 31
0.0
  0
LINE
  8
0
 62
     0
 10
4.48172
 20
11.8038
 30
0.0
 11
4.45719
 21
10.5412
 31
0.0
  0
LINE
  8
0
 62
     0
 10
4.45719
 20
10.5412
 30
0.0
 11
4.41667
 21
9.22222
 31
0.0
  0
LINE
  8
0
 62
     0
 10
4.41667
 20
9.22222
 30
0.0
 11
4.11111
 21
0.25
 31
0.0
  0
LINE
  8
0
 62
     0
 10
4.11111
 20
0.25
 30
0.0
 11
4.13363
 21
0.123318
 31
0.0
  0
LINE
  8
0
 62
     0
 10
4.13363
 20
0.123318
 30
0.0
 11
4.21522
 21
0.0208876
 31
0.0
  0
LINE
  8
0
 62
     0
 10
4.21522
 20
0.0208876
 30
0.0
 11
4.35585
 21
-0.0572374
 31
0.0
  0
LINE
  8
0
 62
     0
 10
4.35585
 20
-0.0572374
 30
0.0
 11
4.55556
 21
-0.111111
 31
0.0
  0
LINE
  8
0
 62
     0
 10
4.55556
 20
-0.111111
 30
0.0
 11
4.78039
 21
-0.133626
 31
0.0
  0
LINE
  8
0
 62
     0
 10
4.78039
 20
-0.133626
 30
0.0
 11
5.02431
 21
-0.13189
 31
0.0
  0
LINE
  8
0
 62
     0
 10
5.02431
 20
-0.13189
 30
0.0
 11
5.28733
 21
-0.105848
 31
0.0
  0
LINE
  8
0
 62
     0
 10
5.28733
 20
-0.105848
 30
0.0
 11
5.56944
 21
-0.0555556
 31
0.0
  0
LINE
  8
0
 62
     0
 10
5.56944
 20
-0.0555556
 30
0.0
 11
5.86279
 21
0.0217557
 31
0.0
  0
LINE
  8
0
 62
     0
 10
5.86279
 20
0.0217557
 30
0.0
 11
6.13189
 21
0.114583
 31
0.0
  0
LINE
  8
0
 62
     0
 10
6.13189
 20
0.114583
 30
0.0
 11
6.37668
 21
0.22309
 31
0.0
  0
LINE
  8
0
 62
     0
 10
6.37668
 20
0.22309
 30
0.0
 11
6.59722
 21
0.347222
 31
0.0
  0
LINE
  8
0
 62
     0
 10
6.59722
 20
0.347222
 30
0.0
 11
6.79775
 21
0.510417
 31
0.0
  0
LINE
  8
0
 62
     0
 10
6.79775
 20
0.510417
 30
0.0
 11
6.94097
 21
0.680556
 31
0.0
  0
LINE
  8
0
 62
     0
 10
6.94097
 20
0.680556
 30
0.0
 11
7.02692
 21
0.857639
 31
0.0
  0
LINE
  8
0
 62
     0
 10
7.02692
 20
0.857639
 30
0.0
 11
7.05556
 21
1.04167
 31
0.0
  0
LINE
  8
0
 62
     0
 10
7.05556
 20
1.04167
 30
0.0
 11
7.05838
 21
1.15495
 31
0.0
  0
LINE
  8
0
 62
     0
 10
7.05838
 20
1.15495
 30
0.0
 11
7.06337
 21
1.32449
 31
0.0
  0
LINE
  8
0
 62
     0
 10
7.06337
 20
1.32449
 30
0.0
 11
7.07053
 21
1.55035
 31
0.0
  0
LINE
  8
0
 62
     0
 10
7.07053
 20
1.55035
 30
0.0
 11
7.07986
 21
1.83251
 31
0.0
  0
LINE
  8
0
 62
     0
 10
7.07986
 20
1.83251
 30
0.0
 11
7.09136
 21
2.17101
 31
0.0
  0
LINE
  8
0
 62
     0
 10
7.09136
 20
2.17101
 30
0.0
 11
7.10504
 21
2.56581
 31
0.0
  0
LINE
  8
0
 62
     0
 10
7.10504
 20
2.56581
 30
0.0
 11
7.12088
 21
3.01693
 31
0.0
  0
LINE
  8
0
 62
     0
 10
7.12088
 20
3.01693
 30
0.0
 11
7.13889
 21
3.52431
 31
0.0
  0
LINE
  8
0
 62
     0
 10
7.13889
 20
3.52431
 30
0.0
 11
7.15907
 21
4.08806
 31
0.0
  0
LINE
  8
0
 62
     0
 10
7.15907
 20
4.08806
 30
0.0
 11
7.18143
 21
4.70811
 31
0.0
  0
LINE
  8
0
 62
     0
 10
7.18143
 20
4.70811
 30
0.0
 11
7.20594
 21
5.3845
 31
0.0
  0
LINE
  8
0
 62
     0
 10
7.20594
 20
5.3845
 30
0.0
 11
7.23264
 21
6.11719
 31
0.0
  0
LINE
  8
0
 62
     0
 10
7.23264
 20
6.11719
 30
0.0
 11
7.2615
 21
6.90619
 31
0.0
  0
LINE
  8
0
 62
     0
 10
7.2615
 20
6.90619
 30
0.0
 11
7.29254
 21
7.75151
 31
0.0
  0
LINE
  8
0
 62
     0
 10
7.29254
 20
7.75151
 30
0.0
 11
7.32574
 21
8.65315
 31
0.0
  0
LINE
  8
0
 62
     0
 10
7.32574
 20
8.65315
 30
0.0
 11
7.36111
 21
9.61111
 31
0.0
  0
LINE
  8
0
 62
     0
 10
7.36111
 20
9.61111
 30
0.0
 11
7.40272
 21
10.875
 31
0.0
  0
LINE
  8
0
 62
     0
 10
7.40272
 20
10.875
 30
0.0
 11
7.4305
 21
12.0833
 31
0.0
  0
LINE
  8
0
 62
     0
 10
7.4305
 20
12.0833
 30
0.0
 11
7.44439
 21
13.2361
 31
0.0
  0
LINE
  8
0
 62
     0
 10
7.44439
 20
13.2361
 30
0.0
 11
7.44439
 21
14.3333
 31
0.0
  0
LINE
  8
0
 62
     0
 10
7.44439
 20
14.3333
 30
0.0
 11
7.4305
 21
15.375
 31
0.0
  0
LINE
  8
0
 62
     0
 10
7.4305
 20
15.375
 30
0.0
 11
7.40272
 21
16.3611
 31
0.0
  0
LINE
  8
0
 62
     0
 10
7.40272
 20
16.3611
 30
0.0
 11
7.36106
 21
17.2917
 31
0.0
  0
LINE
  8
0
 62
     0
 10
7.36106
 20
17.2917
 30
0.0
 11
7.30556
 21
18.1667
 31
0.0
  0
LINE
  8
0
 62
     0
 10
7.30556
 20
18.1667
 30
0.0
 11
7.73525
 21
18.1468
 31
0.0
  0
LINE
  8
0
 62
     0
 10
7.73525
 20
18.1468
 30
0.0
 11
8.20486
 21
18.1215
 31
0.0
  0
LINE
  8
0
 62
     0
 10
8.20486
 20
18.1215
 30
0.0
 11
8.71442
 21
18.0912
 31
0.0
  0
LINE
  8
0
 62
     0
 10
8.71442
 20
18.0912
 30
0.0
 11
9.26389
 21
18.0556
 31
0.0
  0
LINE
  8
0
 62
     0
 10
9.26389
 20
18.0556
 30
0.0
 11
9.85331
 21
18.0147
 31
0.0
  0
LINE
  8
0
 62
     0
 10
9.85331
 20
18.0147
 30
0.0
 11
10.4826
 21
17.9688
 31
0.0
  0
LINE
  8
0
 62
     0
 10
10.4826
 20
17.9688
 30
0.0
 11
11.1519
 21
17.9175
 31
0.0
  0
LINE
  8
0
 62
     0
 10
11.1519
 20
17.9175
 30
0.0
 11
11.8611
 21
17.8611
 31
0.0
  0
LINE
  8
0
 62
     0
 10
11.8611
 20
17.8611
 30
0.0
 11
12.6306
 21
17.795
 31
0.0
  0
LINE
  8
0
 62
     0
 10
12.6306
 20
17.795
 30
0.0
 11
13.342
 21
17.7353
 31
0.0
  0
LINE
  8
0
 62
     0
 10
13.342
 20
17.7353
 30
0.0
 11
13.9951
 21
17.6821
 31
0.0
  0
LINE
  8
0
 62
     0
 10
13.9951
 20
17.6821
 30
0.0
 11
14.5903
 21
17.6354
 31
0.0
  0
LINE
  8
0
 62
     0
 10
14.5903
 20
17.6354
 30
0.0
 11
15.1271
 21
17.5953
 31
0.0
  0
LINE
  8
0
 62
     0
 10
15.1271
 20
17.5953
 30
0.0
 11
15.6058
 21
17.5617
 31
0.0
  0
LINE
  8
0
 62
     0
 10
15.6058
 20
17.5617
 30
0.0
 11
16.0264
 21
17.5344
 31
0.0
  0
LINE
  8
0
 62
     0
 10
16.0264
 20
17.5344
 30
0.0
 11
16.3889
 21
17.5139
 31
0.0
  0
LINE
  8
0
 62
     0
 10
16.3889
 20
17.5139
 30
0.0
 11
16.6344
 21
17.52
 31
0.0
  0
LINE
  8
0
 62
     0
 10
16.6344
 20
17.52
 30
0.0
 11
16.8854
 21
17.566
 31
0.0
  0
LINE
  8
0
 62
     0
 10
16.8854
 20
17.566
 30
0.0
 11
17.1415
 21
17.6519
 31
0.0
  0
LINE
  8
0
 62
     0
 10
17.1415
 20
17.6519
 30
0.0
 11
17.4028
 21
17.7778
 31
0.0
  0
ENDSEC
  0
EOF
