  0
SECTION
  2
HEADER
  9
$ACADVER
  1
AC1009
  9
$EXTMIN
 10
0.0
 20
0.0
 30
0.0
  9
$EXTMAX
 10
1000.0
 20
1000.0
 30
0.0
  9
$FILLMODE
 70
 0
  9
$SPLFRAME
 70
 1
  0
ENDSEC
  0
SECTION
  2
TABLES
  0
TABLE
  2
LAYER
 70
1
  0
LAYER
  2
0
 70
     0
 62
     7
  6
CONTINUOUS
  0
ENDTAB
  0
ENDSEC
  0
SECTION
  2
ENTITIES
  0
LINE
  8
0
 62
     0
 10
6.55556
 20
11.2361
 30
0.0
 11
6.8144
 21
11.5825
 31
0.0
  0
LINE
  8
0
 62
     0
 10
6.8144
 20
11.5825
 30
0.0
 11
7.05637
 21
11.9132
 31
0.0
  0
LINE
  8
0
 62
     0
 10
7.05637
 20
11.9132
 30
0.0
 11
7.28142
 21
12.2283
 31
0.0
  0
LINE
  8
0
 62
     0
 10
7.28142
 20
12.2283
 30
0.0
 11
7.48958
 21
12.5278
 31
0.0
  0
LINE
  8
0
 62
     0
 10
7.48958
 20
12.5278
 30
0.0
 11
7.68078
 21
12.8116
 31
0.0
  0
LINE
  8
0
 62
     0
 10
7.68078
 20
12.8116
 30
0.0
 11
7.85504
 21
13.0799
 31
0.0
  0
LINE
  8
0
 62
     0
 10
7.85504
 20
13.0799
 30
0.0
 11
8.01237
 21
13.3325
 31
0.0
  0
LINE
  8
0
 62
     0
 10
8.01237
 20
13.3325
 30
0.0
 11
8.15278
 21
13.5694
 31
0.0
  0
LINE
  8
0
 62
     0
 10
8.15278
 20
13.5694
 30
0.0
 11
8.34636
 21
13.9268
 31
0.0
  0
LINE
  8
0
 62
     0
 10
8.34636
 20
13.9268
 30
0.0
 11
8.51736
 21
14.2765
 31
0.0
  0
LINE
  8
0
 62
     0
 10
8.51736
 20
14.2765
 30
0.0
 11
8.66581
 21
14.6186
 31
0.0
  0
LINE
  8
0
 62
     0
 10
8.66581
 20
14.6186
 30
0.0
 11
8.79167
 21
14.9532
 31
0.0
  0
LINE
  8
0
 62
     0
 10
8.79167
 20
14.9532
 30
0.0
 11
8.89497
 21
15.2801
 31
0.0
  0
LINE
  8
0
 62
     0
 10
8.89497
 20
15.2801
 30
0.0
 11
8.97569
 21
15.5994
 31
0.0
  0
LINE
  8
0
 62
     0
 10
8.97569
 20
15.5994
 30
0.0
 11
9.03386
 21
15.9112
 31
0.0
  0
LINE
  8
0
 62
     0
 10
9.03386
 20
15.9112
 30
0.0
 11
9.06944
 21
16.2153
 31
0.0
  0
LINE
  8
0
 62
     0
 10
9.06944
 20
16.2153
 30
0.0
 11
9.08247
 21
16.5119
 31
0.0
  0
LINE
  8
0
 62
     0
 10
9.08247
 20
16.5119
 30
0.0
 11
9.07292
 21
16.8008
 31
0.0
  0
LINE
  8
0
 62
     0
 10
9.07292
 20
16.8008
 30
0.0
 11
9.04081
 21
17.0822
 31
0.0
  0
LINE
  8
0
 62
     0
 10
9.04081
 20
17.0822
 30
0.0
 11
8.98611
 21
17.356
 31
0.0
  0
LINE
  8
0
 62
     0
 10
8.98611
 20
17.356
 30
0.0
 11
8.90886
 21
17.6221
 31
0.0
  0
LINE
  8
0
 62
     0
 10
8.90886
 20
17.6221
 30
0.0
 11
8.80903
 21
17.8807
 31
0.0
  0
LINE
  8
0
 62
     0
 10
8.80903
 20
17.8807
 30
0.0
 11
8.68664
 21
18.1317
 31
0.0
  0
LINE
  8
0
 62
     0
 10
8.68664
 20
18.1317
 30
0.0
 11
8.54167
 21
18.375
 31
0.0
  0
LINE
  8
0
 62
     0
 10
8.54167
 20
18.375
 30
0.0
 11
8.25261
 21
18.7554
 31
0.0
  0
LINE
  8
0
 62
     0
 10
8.25261
 20
18.7554
 30
0.0
 11
7.92014
 21
19.0842
 31
0.0
  0
LINE
  8
0
 62
     0
 10
7.92014
 20
19.0842
 30
0.0
 11
7.54428
 21
19.3614
 31
0.0
  0
LINE
  8
0
 62
     0
 10
7.54428
 20
19.3614
 30
0.0
 11
7.125
 21
19.5868
 31
0.0
  0
LINE
  8
0
 62
     0
 10
7.125
 20
19.5868
 30
0.0
 11
6.66233
 21
19.7607
 31
0.0
  0
LINE
  8
0
 62
     0
 10
6.66233
 20
19.7607
 30
0.0
 11
6.15625
 21
19.8828
 31
0.0
  0
LINE
  8
0
 62
     0
 10
6.15625
 20
19.8828
 30
0.0
 11
5.60678
 21
19.9533
 31
0.0
  0
LINE
  8
0
 62
     0
 10
5.60678
 20
19.9533
 30
0.0
 11
5.01389
 21
19.9722
 31
0.0
  0
LINE
  8
0
 62
     0
 10
5.01389
 20
19.9722
 30
0.0
 11
4.6224
 21
19.9569
 31
0.0
  0
LINE
  8
0
 62
     0
 10
4.6224
 20
19.9569
 30
0.0
 11
4.19792
 21
19.9183
 31
0.0
  0
LINE
  8
0
 62
     0
 10
4.19792
 20
19.9183
 30
0.0
 11
3.74046
 21
19.8563
 31
0.0
  0
LINE
  8
0
 62
     0
 10
3.74046
 20
19.8563
 30
0.0
 11
3.25
 21
19.7708
 31
0.0
  0
LINE
  8
0
 62
     0
 10
3.25
 20
19.7708
 30
0.0
 11
2.72657
 21
19.6618
 31
0.0
  0
LINE
  8
0
 62
     0
 10
2.72657
 20
19.6618
 30
0.0
 11
2.17014
 21
19.5294
 31
0.0
  0
LINE
  8
0
 62
     0
 10
2.17014
 20
19.5294
 30
0.0
 11
1.58074
 21
19.3738
 31
0.0
  0
LINE
  8
0
 62
     0
 10
1.58074
 20
19.3738
 30
0.0
 11
0.958333
 21
19.1944
 31
0.0
  0
LINE
  8
0
 62
     0
 10
0.958333
 20
19.1944
 30
0.0
 11
0.711806
 21
19.1094
 31
0.0
  0
LINE
  8
0
 62
     0
 10
0.711806
 20
19.1094
 30
0.0
 11
0.5
 21
19.0069
 31
0.0
  0
LINE
  8
0
 62
     0
 10
0.5
 20
19.0069
 30
0.0
 11
0.322917
 21
18.8872
 31
0.0
  0
LINE
  8
0
 62
     0
 10
0.322917
 20
18.8872
 30
0.0
 11
0.180556
 21
18.75
 31
0.0
  0
LINE
  8
0
 62
     0
 10
0.180556
 20
18.75
 30
0.0
 11
0.0815972
 21
18.6242
 31
0.0
  0
LINE
  8
0
 62
     0
 10
0.0815972
 20
18.6242
 30
0.0
 11
0.0208333
 21
18.4965
 31
0.0
  0
LINE
  8
0
 62
     0
 10
0.0208333
 20
18.4965
 30
0.0
 11
-0.00173611
 21
18.3672
 31
0.0
  0
LINE
  8
0
 62
     0
 10
-0.00173611
 20
18.3672
 30
0.0
 11
0.0138889
 21
18.2361
 31
0.0
  0
LINE
  8
0
 62
     0
 10
0.0138889
 20
18.2361
 30
0.0
 11
0.0641818
 21
18.1207
 31
0.0
  0
LINE
  8
0
 62
     0
 10
0.0641818
 20
18.1207
 30
0.0
 11
0.145833
 21
18.0243
 31
0.0
  0
LINE
  8
0
 62
     0
 10
0.145833
 20
18.0243
 30
0.0
 11
0.258681
 21
17.9471
 31
0.0
  0
LINE
  8
0
 62
     0
 10
0.258681
 20
17.9471
 30
0.0
 11
0.402778
 21
17.8889
 31
0.0
  0
LINE
  8
0
 62
     0
 10
0.402778
 20
17.8889
 30
0.0
 11
0.593696
 21
17.8561
 31
0.0
  0
LINE
  8
0
 62
     0
 10
0.593696
 20
17.8561
 30
0.0
 11
0.805556
 21
17.8544
 31
0.0
  0
LINE
  8
0
 62
     0
 10
0.805556
 20
17.8544
 30
0.0
 11
1.03819
 21
17.8839
 31
0.0
  0
LINE
  8
0
 62
     0
 10
1.03819
 20
17.8839
 30
0.0
 11
1.29167
 21
17.9444
 31
0.0
  0
LINE
  8
0
 62
     0
 10
1.29167
 20
17.9444
 30
0.0
 11
1.91168
 21
18.1144
 31
0.0
  0
LINE
  8
0
 62
     0
 10
1.91168
 20
18.1144
 30
0.0
 11
2.49393
 21
18.2422
 31
0.0
  0
LINE
  8
0
 62
     0
 10
2.49393
 20
18.2422
 30
0.0
 11
3.03842
 21
18.3279
 31
0.0
  0
LINE
  8
0
 62
     0
 10
3.03842
 20
18.3279
 30
0.0
 11
3.54514
 21
18.3715
 31
0.0
  0
LINE
  8
0
 62
     0
 10
3.54514
 20
18.3715
 30
0.0
 11
4.01406
 21
18.3731
 31
0.0
  0
LINE
  8
0
 62
     0
 10
4.01406
 20
18.3731
 30
0.0
 11
4.44526
 21
18.3325
 31
0.0
  0
LINE
  8
0
 62
     0
 10
4.44526
 20
18.3325
 30
0.0
 11
4.83871
 21
18.2499
 31
0.0
  0
LINE
  8
0
 62
     0
 10
4.83871
 20
18.2499
 30
0.0
 11
5.19444
 21
18.125
 31
0.0
  0
LINE
  8
0
 62
     0
 10
5.19444
 20
18.125
 30
0.0
 11
5.39382
 21
18.0287
 31
0.0
  0
LINE
  8
0
 62
     0
 10
5.39382
 20
18.0287
 30
0.0
 11
5.57547
 21
17.9169
 31
0.0
  0
LINE
  8
0
 62
     0
 10
5.57547
 20
17.9169
 30
0.0
 11
5.73931
 21
17.7896
 31
0.0
  0
LINE
  8
0
 62
     0
 10
5.73931
 20
17.7896
 30
0.0
 11
5.88536
 21
17.6467
 31
0.0
  0
LINE
  8
0
 62
     0
 10
5.88536
 20
17.6467
 30
0.0
 11
6.01361
 21
17.4883
 31
0.0
  0
LINE
  8
0
 62
     0
 10
6.01361
 20
17.4883
 30
0.0
 11
6.12408
 21
17.3144
 31
0.0
  0
LINE
  8
0
 62
     0
 10
6.12408
 20
17.3144
 30
0.0
 11
6.21674
 21
17.125
 31
0.0
  0
LINE
  8
0
 62
     0
 10
6.21674
 20
17.125
 30
0.0
 11
6.29161
 21
16.9201
 31
0.0
  0
LINE
  8
0
 62
     0
 10
6.29161
 20
16.9201
 30
0.0
 11
6.34868
 21
16.6997
 31
0.0
  0
LINE
  8
0
 62
     0
 10
6.34868
 20
16.6997
 30
0.0
 11
6.38797
 21
16.4638
 31
0.0
  0
LINE
  8
0
 62
     0
 10
6.38797
 20
16.4638
 30
0.0
 11
6.40944
 21
16.2124
 31
0.0
  0
LINE
  8
0
 62
     0
 10
6.40944
 20
16.2124
 30
0.0
 11
6.41314
 21
15.9453
 31
0.0
  0
LINE
  8
0
 62
     0
 10
6.41314
 20
15.9453
 30
0.0
 11
6.39903
 21
15.6628
 31
0.0
  0
LINE
  8
0
 62
     0
 10
6.39903
 20
15.6628
 30
0.0
 11
6.36714
 21
15.3649
 31
0.0
  0
LINE
  8
0
 62
     0
 10
6.36714
 20
15.3649
 30
0.0
 11
6.31743
 21
15.0512
 31
0.0
  0
LINE
  8
0
 62
     0
 10
6.31743
 20
15.0512
 30
0.0
 11
6.25
 21
14.7222
 31
0.0
  0
LINE
  8
0
 62
     0
 10
6.25
 20
14.7222
 30
0.0
 11
6.15929
 21
14.3876
 31
0.0
  0
LINE
  8
0
 62
     0
 10
6.15929
 20
14.3876
 30
0.0
 11
6.03299
 21
14.0365
 31
0.0
  0
LINE
  8
0
 62
     0
 10
6.03299
 20
14.0365
 30
0.0
 11
5.8711
 21
13.6688
 31
0.0
  0
LINE
  8
0
 62
     0
 10
5.8711
 20
13.6688
 30
0.0
 11
5.67361
 21
13.2847
 31
0.0
  0
LINE
  8
0
 62
     0
 10
5.67361
 20
13.2847
 30
0.0
 11
5.44054
 21
12.8841
 31
0.0
  0
LINE
  8
0
 62
     0
 10
5.44054
 20
12.8841
 30
0.0
 11
5.17188
 21
12.467
 31
0.0
  0
LINE
  8
0
 62
     0
 10
5.17188
 20
12.467
 30
0.0
 11
4.86762
 21
12.0334
 31
0.0
  0
LINE
  8
0
 62
     0
 10
4.86762
 20
12.0334
 30
0.0
 11
4.52778
 21
11.5833
 31
0.0
  0
LINE
  8
0
 62
     0
 10
4.52778
 20
11.5833
 30
0.0
 11
4.09304
 21
11.0239
 31
0.0
  0
LINE
  8
0
 62
     0
 10
4.09304
 20
11.0239
 30
0.0
 11
3.70568
 21
10.5191
 31
0.0
  0
LINE
  8
0
 62
     0
 10
3.70568
 20
10.5191
 30
0.0
 11
3.36561
 21
10.069
 31
0.0
  0
LINE
  8
0
 62
     0
 10
3.36561
 20
10.069
 30
0.0
 11
3.07286
 21
9.67361
 31
0.0
  0
LINE
  8
0
 62
     0
 10
3.07286
 20
9.67361
 30
0.0
 11
2.82742
 21
9.33296
 31
0.0
  0
LINE
  8
0
 62
     0
 10
2.82742
 20
9.33296
 30
0.0
 11
2.62929
 21
9.04693
 31
0.0
  0
LINE
  8
0
 62
     0
 10
2.62929
 20
9.04693
 30
0.0
 11
2.47846
 21
8.8156
 31
0.0
  0
LINE
  8
0
 62
     0
 10
2.47846
 20
8.8156
 30
0.0
 11
2.375
 21
8.63889
 31
0.0
  0
LINE
  8
0
 62
     0
 10
2.375
 20
8.63889
 30
0.0
 11
2.32113
 21
8.51129
 31
0.0
  0
LINE
  8
0
 62
     0
 10
2.32113
 20
8.51129
 30
0.0
 11
2.29861
 21
8.39236
 31
0.0
  0
LINE
  8
0
 62
     0
 10
2.29861
 20
8.39236
 30
0.0
 11
2.30729
 21
8.28212
 31
0.0
  0
LINE
  8
0
 62
     0
 10
2.30729
 20
8.28212
 30
0.0
 11
2.34722
 21
8.18056
 31
0.0
  0
LINE
  8
0
 62
     0
 10
2.34722
 20
8.18056
 30
0.0
 11
2.42014
 21
8.09207
 31
0.0
  0
LINE
  8
0
 62
     0
 10
2.42014
 20
8.09207
 30
0.0
 11
2.51389
 21
8.02089
 31
0.0
  0
LINE
  8
0
 62
     0
 10
2.51389
 20
8.02089
 30
0.0
 11
2.62847
 21
7.96707
 31
0.0
  0
LINE
  8
0
 62
     0
 10
2.62847
 20
7.96707
 30
0.0
 11
2.76389
 21
7.93056
 31
0.0
  0
LINE
  8
0
 62
     0
 10
2.76389
 20
7.93056
 30
0.0
 11
2.98519
 21
7.89578
 31
0.0
  0
LINE
  8
0
 62
     0
 10
2.98519
 20
7.89578
 30
0.0
 11
3.24647
 21
7.86106
 31
0.0
  0
LINE
  8
0
 62
     0
 10
3.24647
 20
7.86106
 30
0.0
 11
3.54769
 21
7.82633
 31
0.0
  0
LINE
  8
0
 62
     0
 10
3.54769
 20
7.82633
 30
0.0
 11
3.88889
 21
7.79167
 31
0.0
  0
LINE
  8
0
 62
     0
 10
3.88889
 20
7.79167
 30
0.0
 11
4.28907
 21
7.75874
 31
0.0
  0
LINE
  8
0
 62
     0
 10
4.28907
 20
7.75874
 30
0.0
 11
4.61458
 21
7.72922
 31
0.0
  0
LINE
  8
0
 62
     0
 10
4.61458
 20
7.72922
 30
0.0
 11
4.86546
 21
7.70318
 31
0.0
  0
LINE
  8
0
 62
     0
 10
4.86546
 20
7.70318
 30
0.0
 11
5.04167
 21
7.68056
 31
0.0
  0
LINE
  8
0
 62
     0
 10
5.04167
 20
7.68056
 30
0.0
 11
5.375
 21
7.6289
 31
0.0
  0
LINE
  8
0
 62
     0
 10
5.375
 20
7.6289
 30
0.0
 11
5.6875
 21
7.56424
 31
0.0
  0
LINE
  8
0
 62
     0
 10
5.6875
 20
7.56424
 30
0.0
 11
5.97917
 21
7.48654
 31
0.0
  0
LINE
  8
0
 62
     0
 10
5.97917
 20
7.48654
 30
0.0
 11
6.25
 21
7.39583
 31
0.0
  0
LINE
  8
0
 62
     0
 10
6.25
 20
7.39583
 30
0.0
 11
6.5
 21
7.29215
 31
0.0
  0
LINE
  8
0
 62
     0
 10
6.5
 20
7.29215
 30
0.0
 11
6.72917
 21
7.1754
 31
0.0
  0
LINE
  8
0
 62
     0
 10
6.72917
 20
7.1754
 30
0.0
 11
6.9375
 21
7.04563
 31
0.0
  0
LINE
  8
0
 62
     0
 10
6.9375
 20
7.04563
 30
0.0
 11
7.125
 21
6.90278
 31
0.0
  0
LINE
  8
0
 62
     0
 10
7.125
 20
6.90278
 30
0.0
 11
7.33876
 21
6.70514
 31
0.0
  0
LINE
  8
0
 62
     0
 10
7.33876
 20
6.70514
 30
0.0
 11
7.51476
 21
6.50092
 31
0.0
  0
LINE
  8
0
 62
     0
 10
7.51476
 20
6.50092
 30
0.0
 11
7.653
 21
6.29021
 31
0.0
  0
LINE
  8
0
 62
     0
 10
7.653
 20
6.29021
 30
0.0
 11
7.75347
 21
6.07292
 31
0.0
  0
LINE
  8
0
 62
     0
 10
7.75347
 20
6.07292
 30
0.0
 11
7.81619
 21
5.84918
 31
0.0
  0
LINE
  8
0
 62
     0
 10
7.81619
 20
5.84918
 30
0.0
 11
7.84115
 21
5.61893
 31
0.0
  0
LINE
  8
0
 62
     0
 10
7.84115
 20
5.61893
 30
0.0
 11
7.82835
 21
5.38217
 31
0.0
  0
LINE
  8
0
 62
     0
 10
7.82835
 20
5.38217
 30
0.0
 11
7.77778
 21
5.13889
 31
0.0
  0
LINE
  8
0
 62
     0
 10
7.77778
 20
5.13889
 30
0.0
 11
7.60851
 21
4.72575
 31
0.0
  0
LINE
  8
0
 62
     0
 10
7.60851
 20
4.72575
 30
0.0
 11
7.33681
 21
4.30561
 31
0.0
  0
LINE
  8
0
 62
     0
 10
7.33681
 20
4.30561
 30
0.0
 11
6.96268
 21
3.87853
 31
0.0
  0
LINE
  8
0
 62
     0
 10
6.96268
 20
3.87853
 30
0.0
 11
6.48611
 21
3.44444
 31
0.0
  0
LINE
  8
0
 62
     0
 10
6.48611
 20
3.44444
 30
0.0
 11
5.99046
 21
3.05149
 31
0.0
  0
LINE
  8
0
 62
     0
 10
5.99046
 20
3.05149
 30
0.0
 11
5.49653
 21
2.69883
 31
0.0
  0
LINE
  8
0
 62
     0
 10
5.49653
 20
2.69883
 30
0.0
 11
5.00435
 21
2.38656
 31
0.0
  0
LINE
  8
0
 62
     0
 10
5.00435
 20
2.38656
 30
0.0
 11
4.51389
 21
2.11458
 31
0.0
  0
LINE
  8
0
 62
     0
 10
4.51389
 20
2.11458
 30
0.0
 11
4.02518
 21
1.88303
 31
0.0
  0
LINE
  8
0
 62
     0
 10
4.02518
 20
1.88303
 30
0.0
 11
3.53819
 21
1.69185
 31
0.0
  0
LINE
  8
0
 62
     0
 10
3.53819
 20
1.69185
 30
0.0
 11
3.05296
 21
1.54101
 31
0.0
  0
LINE
  8
0
 62
     0
 10
3.05296
 20
1.54101
 30
0.0
 11
2.56944
 21
1.43056
 31
0.0
  0
LINE
  8
0
 62
     0
 10
2.56944
 20
1.43056
 30
0.0
 11
2.34353
 21
1.37695
 31
0.0
  0
LINE
  8
0
 62
     0
 10
2.34353
 20
1.37695
 30
0.0
 11
2.13803
 21
1.30642
 31
0.0
  0
LINE
  8
0
 62
     0
 10
2.13803
 20
1.30642
 30
0.0
 11
1.9529
 21
1.21897
 31
0.0
  0
LINE
  8
0
 62
     0
 10
1.9529
 20
1.21897
 30
0.0
 11
1.78819
 21
1.11458
 31
0.0
  0
LINE
  8
0
 62
     0
 10
1.78819
 20
1.11458
 30
0.0
 11
1.64388
 21
0.993326
 31
0.0
  0
LINE
  8
0
 62
     0
 10
1.64388
 20
0.993326
 30
0.0
 11
1.51997
 21
0.855089
 31
0.0
  0
LINE
  8
0
 62
     0
 10
1.51997
 20
0.855089
 30
0.0
 11
1.41644
 21
0.699924
 31
0.0
  0
LINE
  8
0
 62
     0
 10
1.41644
 20
0.699924
 30
0.0
 11
1.33333
 21
0.527778
 31
0.0
  0
LINE
  8
0
 62
     0
 10
1.33333
 20
0.527778
 30
0.0
 11
1.28554
 21
0.391547
 31
0.0
  0
LINE
  8
0
 62
     0
 10
1.28554
 20
0.391547
 30
0.0
 11
1.2812
 21
0.27436
 31
0.0
  0
LINE
  8
0
 62
     0
 10
1.2812
 20
0.27436
 30
0.0
 11
1.32026
 21
0.176269
 31
0.0
  0
LINE
  8
0
 62
     0
 10
1.32026
 20
0.176269
 30
0.0
 11
1.40278
 21
0.0972222
 31
0.0
  0
LINE
  8
0
 62
     0
 10
1.40278
 20
0.0972222
 30
0.0
 11
1.54335
 21
0.0313043
 31
0.0
  0
LINE
  8
0
 62
     0
 10
1.54335
 20
0.0313043
 30
0.0
 11
1.72911
 21
5.42535e-05
 31
0.0
  0
LINE
  8
0
 62
     0
 10
1.72911
 20
5.42535e-05
 30
0.0
 11
1.96001
 21
0.00352647
 31
0.0
  0
LINE
  8
0
 62
     0
 10
1.96001
 20
0.00352647
 30
0.0
 11
2.23611
 21
0.0416667
 31
0.0
  0
LINE
  8
0
 62
     0
 10
2.23611
 20
0.0416667
 30
0.0
 11
2.82183
 21
0.164279
 31
0.0
  0
LINE
  8
0
 62
     0
 10
2.82183
 20
0.164279
 30
0.0
 11
3.3915
 21
0.302951
 31
0.0
  0
LINE
  8
0
 62
     0
 10
3.3915
 20
0.302951
 30
0.0
 11
3.9451
 21
0.457682
 31
0.0
  0
LINE
  8
0
 62
     0
 10
3.9451
 20
0.457682
 30
0.0
 11
4.48264
 21
0.628472
 31
0.0
  0
LINE
  8
0
 62
     0
 10
4.48264
 20
0.628472
 30
0.0
 11
5.00412
 21
0.815321
 31
0.0
  0
LINE
  8
0
 62
     0
 10
5.00412
 20
0.815321
 30
0.0
 11
5.50956
 21
1.01823
 31
0.0
  0
LINE
  8
0
 62
     0
 10
5.50956
 20
1.01823
 30
0.0
 11
5.99892
 21
1.2372
 31
0.0
  0
LINE
  8
0
 62
     0
 10
5.99892
 20
1.2372
 30
0.0
 11
6.47222
 21
1.47222
 31
0.0
  0
LINE
  8
0
 62
     0
 10
6.47222
 20
1.47222
 30
0.0
 11
7.04492
 21
1.7895
 31
0.0
  0
LINE
  8
0
 62
     0
 10
7.04492
 20
1.7895
 30
0.0
 11
7.56858
 21
2.12326
 31
0.0
  0
LINE
  8
0
 62
     0
 10
7.56858
 20
2.12326
 30
0.0
 11
8.04318
 21
2.47353
 31
0.0
  0
LINE
  8
0
 62
     0
 10
8.04318
 20
2.47353
 30
0.0
 11
8.46875
 21
2.84028
 31
0.0
  0
LINE
  8
0
 62
     0
 10
8.46875
 20
2.84028
 30
0.0
 11
8.84526
 21
3.22353
 31
0.0
  0
LINE
  8
0
 62
     0
 10
8.84526
 20
3.22353
 30
0.0
 11
9.17275
 21
3.62326
 31
0.0
  0
LINE
  8
0
 62
     0
 10
9.17275
 20
3.62326
 30
0.0
 11
9.45117
 21
4.0395
 31
0.0
  0
LINE
  8
0
 62
     0
 10
9.45117
 20
4.0395
 30
0.0
 11
9.68056
 21
4.47222
 31
0.0
  0
LINE
  8
0
 62
     0
 10
9.68056
 20
4.47222
 30
0.0
 11
9.81299
 21
4.77431
 31
0.0
  0
LINE
  8
0
 62
     0
 10
9.81299
 20
4.77431
 30
0.0
 11
9.92225
 21
5.06597
 31
0.0
  0
LINE
  8
0
 62
     0
 10
9.92225
 20
5.06597
 30
0.0
 11
10.0083
 21
5.34722
 31
0.0
  0
LINE
  8
0
 62
     0
 10
10.0083
 20
5.34722
 30
0.0
 11
10.0711
 21
5.61806
 31
0.0
  0
LINE
  8
0
 62
     0
 10
10.0711
 20
5.61806
 30
0.0
 11
10.1107
 21
5.87847
 31
0.0
  0
LINE
  8
0
 62
     0
 10
10.1107
 20
5.87847
 30
0.0
 11
10.1271
 21
6.12847
 31
0.0
  0
LINE
  8
0
 62
     0
 10
10.1271
 20
6.12847
 30
0.0
 11
10.1203
 21
6.36806
 31
0.0
  0
LINE
  8
0
 62
     0
 10
10.1203
 20
6.36806
 30
0.0
 11
10.0902
 21
6.59722
 31
0.0
  0
LINE
  8
0
 62
     0
 10
10.0902
 20
6.59722
 30
0.0
 11
10.0369
 21
6.81597
 31
0.0
  0
LINE
  8
0
 62
     0
 10
10.0369
 20
6.81597
 30
0.0
 11
9.96044
 21
7.02431
 31
0.0
  0
LINE
  8
0
 62
     0
 10
9.96044
 20
7.02431
 30
0.0
 11
9.86074
 21
7.22222
 31
0.0
  0
LINE
  8
0
 62
     0
 10
9.86074
 20
7.22222
 30
0.0
 11
9.73779
 21
7.40972
 31
0.0
  0
LINE
  8
0
 62
     0
 10
9.73779
 20
7.40972
 30
0.0
 11
9.59164
 21
7.58681
 31
0.0
  0
LINE
  8
0
 62
     0
 10
9.59164
 20
7.58681
 30
0.0
 11
9.42225
 21
7.75347
 31
0.0
  0
LINE
  8
0
 62
     0
 10
9.42225
 20
7.75347
 30
0.0
 11
9.22965
 21
7.90972
 31
0.0
  0
LINE
  8
0
 62
     0
 10
9.22965
 20
7.90972
 30
0.0
 11
9.01389
 21
8.05556
 31
0.0
  0
LINE
  8
0
 62
     0
 10
9.01389
 20
8.05556
 30
0.0
 11
8.73887
 21
8.20638
 31
0.0
  0
LINE
  8
0
 62
     0
 10
8.73887
 20
8.20638
 30
0.0
 11
8.40013
 21
8.35331
 31
0.0
  0
LINE
  8
0
 62
     0
 10
8.40013
 20
8.35331
 30
0.0
 11
7.99756
 21
8.49631
 31
0.0
  0
LINE
  8
0
 62
     0
 10
7.99756
 20
8.49631
 30
0.0
 11
7.53125
 21
8.63542
 31
0.0
  0
LINE
  8
0
 62
     0
 10
7.53125
 20
8.63542
 30
0.0
 11
7.00108
 21
8.77067
 31
0.0
  0
LINE
  8
0
 62
     0
 10
7.00108
 20
8.77067
 30
0.0
 11
6.40712
 21
8.90196
 31
0.0
  0
LINE
  8
0
 62
     0
 10
6.40712
 20
8.90196
 30
0.0
 11
5.74935
 21
9.02935
 31
0.0
  0
LINE
  8
0
 62
     0
 10
5.74935
 20
9.02935
 30
0.0
 11
5.02778
 21
9.15278
 31
0.0
  0
LINE
  8
0
 62
     0
 10
5.02778
 20
9.15278
 30
0.0
 11
5.11236
 21
9.27957
 31
0.0
  0
LINE
  8
0
 62
     0
 10
5.11236
 20
9.27957
 30
0.0
 11
5.22738
 21
9.4445
 31
0.0
  0
LINE
  8
0
 62
     0
 10
5.22738
 20
9.4445
 30
0.0
 11
5.37278
 21
9.64763
 31
0.0
  0
LINE
  8
0
 62
     0
 10
5.37278
 20
9.64763
 30
0.0
 11
5.54856
 21
9.88894
 31
0.0
  0
LINE
  8
0
 62
     0
 10
5.54856
 20
9.88894
 30
0.0
 11
5.75472
 21
10.1685
 31
0.0
  0
LINE
  8
0
 62
     0
 10
5.75472
 20
10.1685
 30
0.0
 11
5.99126
 21
10.4862
 31
0.0
  0
LINE
  8
0
 62
     0
 10
5.99126
 20
10.4862
 30
0.0
 11
6.25819
 21
10.8421
 31
0.0
  0
LINE
  8
0
 62
     0
 10
6.25819
 20
10.8421
 30
0.0
 11
6.55556
 21
11.2361
 31
0.0
  0
ENDSEC
  0
EOF
