  0
SECTION
  2
HEADER
  9
$ACADVER
  1
AC1009
  9
$EXTMIN
 10
0.0
 20
0.0
 30
0.0
  9
$EXTMAX
 10
1000.0
 20
1000.0
 30
0.0
  9
$FILLMODE
 70
 0
  9
$SPLFRAME
 70
 1
  0
ENDSEC
  0
SECTION
  2
TABLES
  0
TABLE
  2
LAYER
 70
1
  0
LAYER
  2
0
 70
     0
 62
     7
  6
CONTINUOUS
  0
ENDTAB
  0
ENDSEC
  0
SECTION
  2
ENTITIES
  0
LINE
  8
0
 62
     0
 10
3.45833
 20
1.04167
 30
0.0
 11
3.52251
 21
1.23698
 31
0.0
  0
LINE
  8
0
 62
     0
 10
3.52251
 20
1.23698
 30
0.0
 11
3.56244
 21
1.40625
 31
0.0
  0
LINE
  8
0
 62
     0
 10
3.56244
 20
1.40625
 30
0.0
 11
3.57807
 21
1.54949
 31
0.0
  0
LINE
  8
0
 62
     0
 10
3.57807
 20
1.54949
 30
0.0
 11
3.56944
 21
1.66667
 31
0.0
  0
LINE
  8
0
 62
     0
 10
3.56944
 20
1.66667
 30
0.0
 11
3.51297
 21
1.98096
 31
0.0
  0
LINE
  8
0
 62
     0
 10
3.51297
 20
1.98096
 30
0.0
 11
3.51036
 21
2.257
 31
0.0
  0
LINE
  8
0
 62
     0
 10
3.51036
 20
2.257
 30
0.0
 11
3.56158
 21
2.49485
 31
0.0
  0
LINE
  8
0
 62
     0
 10
3.56158
 20
2.49485
 30
0.0
 11
3.66667
 21
2.69444
 31
0.0
  0
LINE
  8
0
 62
     0
 10
3.66667
 20
2.69444
 30
0.0
 11
3.81944
 21
2.85417
 31
0.0
  0
LINE
  8
0
 62
     0
 10
3.81944
 20
2.85417
 30
0.0
 11
4.01389
 21
2.95833
 31
0.0
  0
LINE
  8
0
 62
     0
 10
4.01389
 20
2.95833
 30
0.0
 11
4.24994
 21
3.00694
 31
0.0
  0
LINE
  8
0
 62
     0
 10
4.24994
 20
3.00694
 30
0.0
 11
4.52778
 21
3
 31
0.0
  0
LINE
  8
0
 62
     0
 10
4.52778
 20
3
 30
0.0
 11
4.7595
 21
2.97396
 31
0.0
  0
LINE
  8
0
 62
     0
 10
4.7595
 20
2.97396
 30
0.0
 11
5.01036
 21
2.9375
 31
0.0
  0
LINE
  8
0
 62
     0
 10
5.01036
 20
2.9375
 30
0.0
 11
5.28033
 21
2.89063
 31
0.0
  0
LINE
  8
0
 62
     0
 10
5.28033
 20
2.89063
 30
0.0
 11
5.56944
 21
2.83333
 31
0.0
  0
LINE
  8
0
 62
     0
 10
5.56944
 20
2.83333
 30
0.0
 11
5.30203
 21
2.57297
 31
0.0
  0
LINE
  8
0
 62
     0
 10
5.30203
 20
2.57297
 30
0.0
 11
4.97217
 21
2.27783
 31
0.0
  0
LINE
  8
0
 62
     0
 10
4.97217
 20
2.27783
 30
0.0
 11
4.57981
 21
1.94797
 31
0.0
  0
LINE
  8
0
 62
     0
 10
4.57981
 20
1.94797
 30
0.0
 11
4.125
 21
1.58333
 31
0.0
  0
LINE
  8
0
 62
     0
 10
4.125
 20
1.58333
 30
0.0
 11
3.45833
 21
1.04167
 31
0.0
  0
LINE
  8
0
 62
     0
 10
12.3472
 20
10.3611
 30
0.0
 11
12.4673
 21
10.8654
 31
0.0
  0
LINE
  8
0
 62
     0
 10
12.4673
 20
10.8654
 30
0.0
 11
12.5636
 21
11.3642
 31
0.0
  0
LINE
  8
0
 62
     0
 10
12.5636
 20
11.3642
 30
0.0
 11
12.6361
 21
11.8576
 31
0.0
  0
LINE
  8
0
 62
     0
 10
12.6361
 20
11.8576
 30
0.0
 11
12.6849
 21
12.3455
 31
0.0
  0
LINE
  8
0
 62
     0
 10
12.6849
 20
12.3455
 30
0.0
 11
12.7099
 21
12.8281
 31
0.0
  0
LINE
  8
0
 62
     0
 10
12.7099
 20
12.8281
 30
0.0
 11
12.7112
 21
13.3052
 31
0.0
  0
LINE
  8
0
 62
     0
 10
12.7112
 20
13.3052
 30
0.0
 11
12.6886
 21
13.7769
 31
0.0
  0
LINE
  8
0
 62
     0
 10
12.6886
 20
13.7769
 30
0.0
 11
12.6424
 21
14.2431
 31
0.0
  0
LINE
  8
0
 62
     0
 10
12.6424
 20
14.2431
 30
0.0
 11
12.5723
 21
14.7039
 31
0.0
  0
LINE
  8
0
 62
     0
 10
12.5723
 20
14.7039
 30
0.0
 11
12.4785
 21
15.1593
 31
0.0
  0
LINE
  8
0
 62
     0
 10
12.4785
 20
15.1593
 30
0.0
 11
12.3609
 21
15.6093
 31
0.0
  0
LINE
  8
0
 62
     0
 10
12.3609
 20
15.6093
 30
0.0
 11
12.2196
 21
16.0539
 31
0.0
  0
LINE
  8
0
 62
     0
 10
12.2196
 20
16.0539
 30
0.0
 11
12.0545
 21
16.4931
 31
0.0
  0
LINE
  8
0
 62
     0
 10
12.0545
 20
16.4931
 30
0.0
 11
11.8656
 21
16.9267
 31
0.0
  0
LINE
  8
0
 62
     0
 10
11.8656
 20
16.9267
 30
0.0
 11
11.653
 21
17.355
 31
0.0
  0
LINE
  8
0
 62
     0
 10
11.653
 20
17.355
 30
0.0
 11
11.4167
 21
17.7778
 31
0.0
  0
LINE
  8
0
 62
     0
 10
11.4167
 20
17.7778
 30
0.0
 11
11.1924
 21
18.1249
 31
0.0
  0
LINE
  8
0
 62
     0
 10
11.1924
 20
18.1249
 30
0.0
 11
10.9505
 21
18.4404
 31
0.0
  0
LINE
  8
0
 62
     0
 10
10.9505
 20
18.4404
 30
0.0
 11
10.6907
 21
18.7243
 31
0.0
  0
LINE
  8
0
 62
     0
 10
10.6907
 20
18.7243
 30
0.0
 11
10.4131
 21
18.9767
 31
0.0
  0
LINE
  8
0
 62
     0
 10
10.4131
 20
18.9767
 30
0.0
 11
10.1178
 21
19.1974
 31
0.0
  0
LINE
  8
0
 62
     0
 10
10.1178
 20
19.1974
 30
0.0
 11
9.80464
 21
19.3867
 31
0.0
  0
LINE
  8
0
 62
     0
 10
9.80464
 20
19.3867
 30
0.0
 11
9.47368
 21
19.5442
 31
0.0
  0
LINE
  8
0
 62
     0
 10
9.47368
 20
19.5442
 30
0.0
 11
9.12494
 21
19.6703
 31
0.0
  0
LINE
  8
0
 62
     0
 10
9.12494
 20
19.6703
 30
0.0
 11
8.7584
 21
19.7647
 31
0.0
  0
LINE
  8
0
 62
     0
 10
8.7584
 20
19.7647
 30
0.0
 11
8.37408
 21
19.8276
 31
0.0
  0
LINE
  8
0
 62
     0
 10
8.37408
 20
19.8276
 30
0.0
 11
7.97194
 21
19.8589
 31
0.0
  0
LINE
  8
0
 62
     0
 10
7.97194
 20
19.8589
 30
0.0
 11
7.55203
 21
19.8586
 31
0.0
  0
LINE
  8
0
 62
     0
 10
7.55203
 20
19.8586
 30
0.0
 11
7.11431
 21
19.8267
 31
0.0
  0
LINE
  8
0
 62
     0
 10
7.11431
 20
19.8267
 30
0.0
 11
6.65881
 21
19.7633
 31
0.0
  0
LINE
  8
0
 62
     0
 10
6.65881
 20
19.7633
 30
0.0
 11
6.18549
 21
19.6683
 31
0.0
  0
LINE
  8
0
 62
     0
 10
6.18549
 20
19.6683
 30
0.0
 11
5.69444
 21
19.5417
 31
0.0
  0
LINE
  8
0
 62
     0
 10
5.69444
 20
19.5417
 30
0.0
 11
4.89561
 21
19.2856
 31
0.0
  0
LINE
  8
0
 62
     0
 10
4.89561
 20
19.2856
 30
0.0
 11
4.12414
 21
18.9826
 31
0.0
  0
LINE
  8
0
 62
     0
 10
4.12414
 20
18.9826
 30
0.0
 11
3.37999
 21
18.6328
 31
0.0
  0
LINE
  8
0
 62
     0
 10
3.37999
 20
18.6328
 30
0.0
 11
2.66319
 21
18.2361
 31
0.0
  0
LINE
  8
0
 62
     0
 10
2.66319
 20
18.2361
 30
0.0
 11
1.97374
 21
17.7925
 31
0.0
  0
LINE
  8
0
 62
     0
 10
1.97374
 20
17.7925
 30
0.0
 11
1.31163
 21
17.3021
 31
0.0
  0
LINE
  8
0
 62
     0
 10
1.31163
 20
17.3021
 30
0.0
 11
0.676867
 21
16.7647
 31
0.0
  0
LINE
  8
0
 62
     0
 10
0.676867
 20
16.7647
 30
0.0
 11
0.0694444
 21
16.1806
 31
0.0
  0
LINE
  8
0
 62
     0
 10
0.0694444
 20
16.1806
 30
0.0
 11
0.00775825
 21
16.0979
 31
0.0
  0
LINE
  8
0
 62
     0
 10
0.00775825
 20
16.0979
 30
0.0
 11
0.00347222
 21
16.031
 31
0.0
  0
LINE
  8
0
 62
     0
 10
0.00347222
 20
16.031
 30
0.0
 11
0.0564236
 21
15.9797
 31
0.0
  0
LINE
  8
0
 62
     0
 10
0.0564236
 20
15.9797
 30
0.0
 11
0.166667
 21
15.9444
 31
0.0
  0
LINE
  8
0
 62
     0
 10
0.166667
 20
15.9444
 30
0.0
 11
0.301161
 21
15.9236
 31
0.0
  0
LINE
  8
0
 62
     0
 10
0.301161
 20
15.9236
 30
0.0
 11
0.468696
 21
15.9167
 31
0.0
  0
LINE
  8
0
 62
     0
 10
0.468696
 20
15.9167
 30
0.0
 11
0.669217
 21
15.9236
 31
0.0
  0
LINE
  8
0
 62
     0
 10
0.669217
 20
15.9236
 30
0.0
 11
0.902778
 21
15.9444
 31
0.0
  0
LINE
  8
0
 62
     0
 10
0.902778
 20
15.9444
 30
0.0
 11
1.18788
 21
15.9853
 31
0.0
  0
LINE
  8
0
 62
     0
 10
1.18788
 20
15.9853
 30
0.0
 11
1.44613
 21
16.0314
 31
0.0
  0
LINE
  8
0
 62
     0
 10
1.44613
 20
16.0314
 30
0.0
 11
1.67746
 21
16.0826
 31
0.0
  0
LINE
  8
0
 62
     0
 10
1.67746
 20
16.0826
 30
0.0
 11
1.88189
 21
16.139
 31
0.0
  0
LINE
  8
0
 62
     0
 10
1.88189
 20
16.139
 30
0.0
 11
2.0594
 21
16.2007
 31
0.0
  0
LINE
  8
0
 62
     0
 10
2.0594
 20
16.2007
 30
0.0
 11
2.21001
 21
16.2675
 31
0.0
  0
LINE
  8
0
 62
     0
 10
2.21001
 20
16.2675
 30
0.0
 11
2.33371
 21
16.3396
 31
0.0
  0
LINE
  8
0
 62
     0
 10
2.33371
 20
16.3396
 30
0.0
 11
2.43056
 21
16.4167
 31
0.0
  0
LINE
  8
0
 62
     0
 10
2.43056
 20
16.4167
 30
0.0
 11
2.76064
 21
16.7494
 31
0.0
  0
LINE
  8
0
 62
     0
 10
2.76064
 20
16.7494
 30
0.0
 11
3.07726
 21
17.0531
 31
0.0
  0
LINE
  8
0
 62
     0
 10
3.07726
 20
17.0531
 30
0.0
 11
3.38043
 21
17.3275
 31
0.0
  0
LINE
  8
0
 62
     0
 10
3.38043
 20
17.3275
 30
0.0
 11
3.67014
 21
17.5729
 31
0.0
  0
LINE
  8
0
 62
     0
 10
3.67014
 20
17.5729
 30
0.0
 11
3.9464
 21
17.7893
 31
0.0
  0
LINE
  8
0
 62
     0
 10
3.9464
 20
17.7893
 30
0.0
 11
4.20921
 21
17.9767
 31
0.0
  0
LINE
  8
0
 62
     0
 10
4.20921
 20
17.9767
 30
0.0
 11
4.45856
 21
18.1349
 31
0.0
  0
LINE
  8
0
 62
     0
 10
4.45856
 20
18.1349
 30
0.0
 11
4.69444
 21
18.2639
 31
0.0
  0
LINE
  8
0
 62
     0
 10
4.69444
 20
18.2639
 30
0.0
 11
5.05817
 21
18.4251
 31
0.0
  0
LINE
  8
0
 62
     0
 10
5.05817
 20
18.4251
 30
0.0
 11
5.42014
 21
18.5408
 31
0.0
  0
LINE
  8
0
 62
     0
 10
5.42014
 20
18.5408
 30
0.0
 11
5.78039
 21
18.6108
 31
0.0
  0
LINE
  8
0
 62
     0
 10
5.78039
 20
18.6108
 30
0.0
 11
6.13889
 21
18.6354
 31
0.0
  0
LINE
  8
0
 62
     0
 10
6.13889
 20
18.6354
 30
0.0
 11
6.49567
 21
18.6144
 31
0.0
  0
LINE
  8
0
 62
     0
 10
6.49567
 20
18.6144
 30
0.0
 11
6.85069
 21
18.5478
 31
0.0
  0
LINE
  8
0
 62
     0
 10
6.85069
 20
18.5478
 30
0.0
 11
7.204
 21
18.4356
 31
0.0
  0
LINE
  8
0
 62
     0
 10
7.204
 20
18.4356
 30
0.0
 11
7.55556
 21
18.2778
 31
0.0
  0
LINE
  8
0
 62
     0
 10
7.55556
 20
18.2778
 30
0.0
 11
7.94206
 21
18.036
 31
0.0
  0
LINE
  8
0
 62
     0
 10
7.94206
 20
18.036
 30
0.0
 11
8.30296
 21
17.7136
 31
0.0
  0
LINE
  8
0
 62
     0
 10
8.30296
 20
17.7136
 30
0.0
 11
8.63824
 21
17.3103
 31
0.0
  0
LINE
  8
0
 62
     0
 10
8.63824
 20
17.3103
 30
0.0
 11
8.94792
 21
16.8264
 31
0.0
  0
LINE
  8
0
 62
     0
 10
8.94792
 20
16.8264
 30
0.0
 11
9.23199
 21
16.2618
 31
0.0
  0
LINE
  8
0
 62
     0
 10
9.23199
 20
16.2618
 30
0.0
 11
9.49046
 21
15.6164
 31
0.0
  0
LINE
  8
0
 62
     0
 10
9.49046
 20
15.6164
 30
0.0
 11
9.72331
 21
14.8903
 31
0.0
  0
LINE
  8
0
 62
     0
 10
9.72331
 20
14.8903
 30
0.0
 11
9.93056
 21
14.0833
 31
0.0
  0
LINE
  8
0
 62
     0
 10
9.93056
 20
14.0833
 30
0.0
 11
10.0413
 21
13.5136
 31
0.0
  0
LINE
  8
0
 62
     0
 10
10.0413
 20
13.5136
 30
0.0
 11
10.1096
 21
12.9362
 31
0.0
  0
LINE
  8
0
 62
     0
 10
10.1096
 20
12.9362
 30
0.0
 11
10.1355
 21
12.3513
 31
0.0
  0
LINE
  8
0
 62
     0
 10
10.1355
 20
12.3513
 30
0.0
 11
10.1189
 21
11.7587
 31
0.0
  0
LINE
  8
0
 62
     0
 10
10.1189
 20
11.7587
 30
0.0
 11
10.0599
 21
11.1586
 31
0.0
  0
LINE
  8
0
 62
     0
 10
10.0599
 20
11.1586
 30
0.0
 11
9.95856
 21
10.5508
 31
0.0
  0
LINE
  8
0
 62
     0
 10
9.95856
 20
10.5508
 30
0.0
 11
9.81472
 21
9.93549
 31
0.0
  0
LINE
  8
0
 62
     0
 10
9.81472
 20
9.93549
 30
0.0
 11
9.62847
 21
9.31256
 31
0.0
  0
LINE
  8
0
 62
     0
 10
9.62847
 20
9.31256
 30
0.0
 11
9.39979
 21
8.68201
 31
0.0
  0
LINE
  8
0
 62
     0
 10
9.39979
 20
8.68201
 30
0.0
 11
9.12869
 21
8.04389
 31
0.0
  0
LINE
  8
0
 62
     0
 10
9.12869
 20
8.04389
 30
0.0
 11
8.81515
 21
7.39817
 31
0.0
  0
LINE
  8
0
 62
     0
 10
8.81515
 20
7.39817
 30
0.0
 11
8.45921
 21
6.74485
 31
0.0
  0
LINE
  8
0
 62
     0
 10
8.45921
 20
6.74485
 30
0.0
 11
8.06082
 21
6.08393
 31
0.0
  0
LINE
  8
0
 62
     0
 10
8.06082
 20
6.08393
 30
0.0
 11
7.62001
 21
5.41542
 31
0.0
  0
LINE
  8
0
 62
     0
 10
7.62001
 20
5.41542
 30
0.0
 11
7.13678
 21
4.73931
 31
0.0
  0
LINE
  8
0
 62
     0
 10
7.13678
 20
4.73931
 30
0.0
 11
6.61111
 21
4.05556
 31
0.0
  0
LINE
  8
0
 62
     0
 10
6.61111
 20
4.05556
 30
0.0
 11
5.94635
 21
4.11919
 31
0.0
  0
LINE
  8
0
 62
     0
 10
5.94635
 20
4.11919
 30
0.0
 11
5.31332
 21
4.13633
 31
0.0
  0
LINE
  8
0
 62
     0
 10
5.31332
 20
4.13633
 30
0.0
 11
4.71197
 21
4.10704
 31
0.0
  0
LINE
  8
0
 62
     0
 10
4.71197
 20
4.10704
 30
0.0
 11
4.14231
 21
4.03131
 31
0.0
  0
LINE
  8
0
 62
     0
 10
4.14231
 20
4.03131
 30
0.0
 11
3.60433
 21
3.90913
 31
0.0
  0
LINE
  8
0
 62
     0
 10
3.60433
 20
3.90913
 30
0.0
 11
3.09804
 21
3.7405
 31
0.0
  0
LINE
  8
0
 62
     0
 10
3.09804
 20
3.7405
 30
0.0
 11
2.62343
 21
3.52544
 31
0.0
  0
LINE
  8
0
 62
     0
 10
2.62343
 20
3.52544
 30
0.0
 11
2.18056
 21
3.26389
 31
0.0
  0
LINE
  8
0
 62
     0
 10
2.18056
 20
3.26389
 30
0.0
 11
1.98264
 21
3.11893
 31
0.0
  0
LINE
  8
0
 62
     0
 10
1.98264
 20
3.11893
 30
0.0
 11
1.79861
 21
2.95486
 31
0.0
  0
LINE
  8
0
 62
     0
 10
1.79861
 20
2.95486
 30
0.0
 11
1.62847
 21
2.77171
 31
0.0
  0
LINE
  8
0
 62
     0
 10
1.62847
 20
2.77171
 30
0.0
 11
1.47222
 21
2.56944
 31
0.0
  0
LINE
  8
0
 62
     0
 10
1.47222
 20
2.56944
 30
0.0
 11
1.32986
 21
2.3481
 31
0.0
  0
LINE
  8
0
 62
     0
 10
1.32986
 20
2.3481
 30
0.0
 11
1.20139
 21
2.10764
 31
0.0
  0
LINE
  8
0
 62
     0
 10
1.20139
 20
2.10764
 30
0.0
 11
1.08681
 21
1.8481
 31
0.0
  0
LINE
  8
0
 62
     0
 10
1.08681
 20
1.8481
 30
0.0
 11
0.986111
 21
1.56944
 31
0.0
  0
LINE
  8
0
 62
     0
 10
0.986111
 20
1.56944
 30
0.0
 11
0.900608
 21
1.2602
 31
0.0
  0
LINE
  8
0
 62
     0
 10
0.900608
 20
1.2602
 30
0.0
 11
0.866319
 21
0.985243
 31
0.0
  0
LINE
  8
0
 62
     0
 10
0.866319
 20
0.985243
 30
0.0
 11
0.883247
 21
0.744575
 31
0.0
  0
LINE
  8
0
 62
     0
 10
0.883247
 20
0.744575
 30
0.0
 11
0.951389
 21
0.538194
 31
0.0
  0
LINE
  8
0
 62
     0
 10
0.951389
 20
0.538194
 30
0.0
 11
1.07075
 21
0.366103
 31
0.0
  0
LINE
  8
0
 62
     0
 10
1.07075
 20
0.366103
 30
0.0
 11
1.24132
 21
0.228299
 31
0.0
  0
LINE
  8
0
 62
     0
 10
1.24132
 20
0.228299
 30
0.0
 11
1.46311
 21
0.124783
 31
0.0
  0
LINE
  8
0
 62
     0
 10
1.46311
 20
0.124783
 30
0.0
 11
1.73611
 21
0.0555556
 31
0.0
  0
LINE
  8
0
 62
     0
 10
1.73611
 20
0.0555556
 30
0.0
 11
2.21957
 21
0.00499132
 31
0.0
  0
LINE
  8
0
 62
     0
 10
2.21957
 20
0.00499132
 30
0.0
 11
2.71869
 21
0.0199653
 31
0.0
  0
LINE
  8
0
 62
     0
 10
2.71869
 20
0.0199653
 30
0.0
 11
3.23346
 21
0.100477
 31
0.0
  0
LINE
  8
0
 62
     0
 10
3.23346
 20
0.100477
 30
0.0
 11
3.76389
 21
0.246528
 31
0.0
  0
LINE
  8
0
 62
     0
 10
3.76389
 20
0.246528
 30
0.0
 11
4.3099
 21
0.458117
 31
0.0
  0
LINE
  8
0
 62
     0
 10
4.3099
 20
0.458117
 30
0.0
 11
4.87153
 21
0.735243
 31
0.0
  0
LINE
  8
0
 62
     0
 10
4.87153
 20
0.735243
 30
0.0
 11
5.44879
 21
1.07791
 31
0.0
  0
LINE
  8
0
 62
     0
 10
5.44879
 20
1.07791
 30
0.0
 11
6.04167
 21
1.48611
 31
0.0
  0
LINE
  8
0
 62
     0
 10
6.04167
 20
1.48611
 30
0.0
 11
6.58328
 21
1.91319
 31
0.0
  0
LINE
  8
0
 62
     0
 10
6.58328
 20
1.91319
 30
0.0
 11
7.15278
 21
2.38889
 31
0.0
  0
LINE
  8
0
 62
     0
 10
7.15278
 20
2.38889
 30
0.0
 11
8.09722
 21
2.02257
 31
0.0
  0
LINE
  8
0
 62
     0
 10
8.09722
 20
2.02257
 30
0.0
 11
9
 21
1.60417
 31
0.0
  0
LINE
  8
0
 62
     0
 10
9
 20
1.60417
 30
0.0
 11
9.86106
 21
1.13373
 31
0.0
  0
LINE
  8
0
 62
     0
 10
9.86106
 20
1.13373
 30
0.0
 11
10.6806
 21
0.611111
 31
0.0
  0
LINE
  8
0
 62
     0
 10
10.6806
 20
0.611111
 30
0.0
 11
10.7931
 21
0.553657
 31
0.0
  0
LINE
  8
0
 62
     0
 10
10.7931
 20
0.553657
 30
0.0
 11
10.9296
 21
0.520019
 31
0.0
  0
LINE
  8
0
 62
     0
 10
10.9296
 20
0.520019
 30
0.0
 11
11.09
 21
0.510254
 31
0.0
  0
LINE
  8
0
 62
     0
 10
11.09
 20
0.510254
 30
0.0
 11
11.2742
 21
0.52436
 31
0.0
  0
LINE
  8
0
 62
     0
 10
11.2742
 20
0.52436
 30
0.0
 11
11.4824
 21
0.562338
 31
0.0
  0
LINE
  8
0
 62
     0
 10
11.4824
 20
0.562338
 30
0.0
 11
11.7144
 21
0.624186
 31
0.0
  0
LINE
  8
0
 62
     0
 10
11.7144
 20
0.624186
 30
0.0
 11
11.9702
 21
0.709907
 31
0.0
  0
LINE
  8
0
 62
     0
 10
11.9702
 20
0.709907
 30
0.0
 11
12.25
 21
0.819444
 31
0.0
  0
LINE
  8
0
 62
     0
 10
12.25
 20
0.819444
 30
0.0
 11
12.6528
 21
1.01389
 31
0.0
  0
LINE
  8
0
 62
     0
 10
12.6528
 20
1.01389
 30
0.0
 11
12.9722
 21
1.20833
 31
0.0
  0
LINE
  8
0
 62
     0
 10
12.9722
 20
1.20833
 30
0.0
 11
13.0928
 21
1.29861
 31
0.0
  0
LINE
  8
0
 62
     0
 10
13.0928
 20
1.29861
 30
0.0
 11
13.1631
 21
1.375
 31
0.0
  0
LINE
  8
0
 62
     0
 10
13.1631
 20
1.375
 30
0.0
 11
13.1831
 21
1.4375
 31
0.0
  0
LINE
  8
0
 62
     0
 10
13.1831
 20
1.4375
 30
0.0
 11
13.1528
 21
1.48611
 31
0.0
  0
LINE
  8
0
 62
     0
 10
13.1528
 20
1.48611
 30
0.0
 11
12.6181
 21
1.83615
 31
0.0
  0
LINE
  8
0
 62
     0
 10
12.6181
 20
1.83615
 30
0.0
 11
12.0694
 21
2.16407
 31
0.0
  0
LINE
  8
0
 62
     0
 10
12.0694
 20
2.16407
 30
0.0
 11
11.5069
 21
2.46983
 31
0.0
  0
LINE
  8
0
 62
     0
 10
11.5069
 20
2.46983
 30
0.0
 11
10.9306
 21
2.75347
 31
0.0
  0
LINE
  8
0
 62
     0
 10
10.9306
 20
2.75347
 30
0.0
 11
10.3403
 21
3.01503
 31
0.0
  0
LINE
  8
0
 62
     0
 10
10.3403
 20
3.01503
 30
0.0
 11
9.73611
 21
3.25439
 31
0.0
  0
LINE
  8
0
 62
     0
 10
9.73611
 20
3.25439
 30
0.0
 11
9.11806
 21
3.47163
 31
0.0
  0
LINE
  8
0
 62
     0
 10
9.11806
 20
3.47163
 30
0.0
 11
8.48611
 21
3.66667
 31
0.0
  0
LINE
  8
0
 62
     0
 10
8.48611
 20
3.66667
 30
0.0
 11
9.1875
 21
4.45492
 31
0.0
  0
LINE
  8
0
 62
     0
 10
9.1875
 20
4.45492
 30
0.0
 11
9.82639
 21
5.257
 31
0.0
  0
LINE
  8
0
 62
     0
 10
9.82639
 20
5.257
 30
0.0
 11
10.4028
 21
6.07297
 31
0.0
  0
LINE
  8
0
 62
     0
 10
10.4028
 20
6.07297
 30
0.0
 11
10.9167
 21
6.90283
 31
0.0
  0
LINE
  8
0
 62
     0
 10
10.9167
 20
6.90283
 30
0.0
 11
11.3681
 21
7.74658
 31
0.0
  0
LINE
  8
0
 62
     0
 10
11.3681
 20
7.74658
 30
0.0
 11
11.7569
 21
8.60422
 31
0.0
  0
LINE
  8
0
 62
     0
 10
11.7569
 20
8.60422
 30
0.0
 11
12.0833
 21
9.47575
 31
0.0
  0
LINE
  8
0
 62
     0
 10
12.0833
 20
9.47575
 30
0.0
 11
12.3472
 21
10.3611
 31
0.0
  0
ENDSEC
  0
EOF
