  0
SECTION
  2
HEADER
  9
$ACADVER
  1
AC1009
  9
$EXTMIN
 10
0.0
 20
0.0
 30
0.0
  9
$EXTMAX
 10
1000.0
 20
1000.0
 30
0.0
  9
$FILLMODE
 70
 0
  9
$SPLFRAME
 70
 1
  0
ENDSEC
  0
SECTION
  2
TABLES
  0
TABLE
  2
LAYER
 70
1
  0
LAYER
  2
0
 70
     0
 62
     7
  6
CONTINUOUS
  0
ENDTAB
  0
ENDSEC
  0
SECTION
  2
ENTITIES
  0
LINE
  8
0
 62
     0
 10
17.5417
 20
8.98611
 30
0.0
 11
17.3079
 21
8.12201
 31
0.0
  0
LINE
  8
0
 62
     0
 10
17.3079
 20
8.12201
 30
0.0
 11
17.0235
 21
7.3004
 31
0.0
  0
LINE
  8
0
 62
     0
 10
17.0235
 20
7.3004
 30
0.0
 11
16.6882
 21
6.52132
 31
0.0
  0
LINE
  8
0
 62
     0
 10
16.6882
 20
6.52132
 30
0.0
 11
16.3021
 21
5.78478
 31
0.0
  0
LINE
  8
0
 62
     0
 10
16.3021
 20
5.78478
 30
0.0
 11
15.8653
 21
5.09076
 31
0.0
  0
LINE
  8
0
 62
     0
 10
15.8653
 20
5.09076
 30
0.0
 11
15.3776
 21
4.43929
 31
0.0
  0
LINE
  8
0
 62
     0
 10
15.3776
 20
4.43929
 30
0.0
 11
14.8392
 21
3.83035
 31
0.0
  0
LINE
  8
0
 62
     0
 10
14.8392
 20
3.83035
 30
0.0
 11
14.25
 21
3.26389
 31
0.0
  0
LINE
  8
0
 62
     0
 10
14.25
 20
3.26389
 30
0.0
 11
13.8922
 21
2.96294
 31
0.0
  0
LINE
  8
0
 62
     0
 10
13.8922
 20
2.96294
 30
0.0
 11
13.531
 21
2.69189
 31
0.0
  0
LINE
  8
0
 62
     0
 10
13.531
 20
2.69189
 30
0.0
 11
13.1661
 21
2.45079
 31
0.0
  0
LINE
  8
0
 62
     0
 10
13.1661
 20
2.45079
 30
0.0
 11
12.7977
 21
2.23964
 31
0.0
  0
LINE
  8
0
 62
     0
 10
12.7977
 20
2.23964
 30
0.0
 11
12.4257
 21
2.05843
 31
0.0
  0
LINE
  8
0
 62
     0
 10
12.4257
 20
2.05843
 30
0.0
 11
12.0501
 21
1.90717
 31
0.0
  0
LINE
  8
0
 62
     0
 10
12.0501
 20
1.90717
 30
0.0
 11
11.6709
 21
1.78586
 31
0.0
  0
LINE
  8
0
 62
     0
 10
11.6709
 20
1.78586
 30
0.0
 11
11.2882
 21
1.69444
 31
0.0
  0
LINE
  8
0
 62
     0
 10
11.2882
 20
1.69444
 30
0.0
 11
10.9019
 21
1.63303
 31
0.0
  0
LINE
  8
0
 62
     0
 10
10.9019
 20
1.63303
 30
0.0
 11
10.5119
 21
1.60157
 31
0.0
  0
LINE
  8
0
 62
     0
 10
10.5119
 20
1.60157
 30
0.0
 11
10.1184
 21
1.60004
 31
0.0
  0
LINE
  8
0
 62
     0
 10
10.1184
 20
1.60004
 30
0.0
 11
9.72136
 21
1.62847
 31
0.0
  0
LINE
  8
0
 62
     0
 10
9.72136
 20
1.62847
 30
0.0
 11
9.32069
 21
1.68685
 31
0.0
  0
LINE
  8
0
 62
     0
 10
9.32069
 20
1.68685
 30
0.0
 11
8.91644
 21
1.77518
 31
0.0
  0
LINE
  8
0
 62
     0
 10
8.91644
 20
1.77518
 30
0.0
 11
8.50862
 21
1.89344
 31
0.0
  0
LINE
  8
0
 62
     0
 10
8.50862
 20
1.89344
 30
0.0
 11
8.09722
 21
2.04167
 31
0.0
  0
LINE
  8
0
 62
     0
 10
8.09722
 20
2.04167
 30
0.0
 11
7.655
 21
2.23964
 31
0.0
  0
LINE
  8
0
 62
     0
 10
7.655
 20
2.23964
 30
0.0
 11
7.2346
 21
2.47244
 31
0.0
  0
LINE
  8
0
 62
     0
 10
7.2346
 20
2.47244
 30
0.0
 11
6.83599
 21
2.74007
 31
0.0
  0
LINE
  8
0
 62
     0
 10
6.83599
 20
2.74007
 30
0.0
 11
6.45921
 21
3.04254
 31
0.0
  0
LINE
  8
0
 62
     0
 10
6.45921
 20
3.04254
 30
0.0
 11
6.10422
 21
3.37983
 31
0.0
  0
LINE
  8
0
 62
     0
 10
6.10422
 20
3.37983
 30
0.0
 11
5.77106
 21
3.75196
 31
0.0
  0
LINE
  8
0
 62
     0
 10
5.77106
 20
3.75196
 30
0.0
 11
5.45969
 21
4.1589
 31
0.0
  0
LINE
  8
0
 62
     0
 10
5.45969
 20
4.1589
 30
0.0
 11
5.17014
 21
4.60069
 31
0.0
  0
LINE
  8
0
 62
     0
 10
5.17014
 20
4.60069
 30
0.0
 11
4.9024
 21
5.07736
 31
0.0
  0
LINE
  8
0
 62
     0
 10
4.9024
 20
5.07736
 30
0.0
 11
4.65647
 21
5.58882
 31
0.0
  0
LINE
  8
0
 62
     0
 10
4.65647
 20
5.58882
 30
0.0
 11
4.43235
 21
6.1351
 31
0.0
  0
LINE
  8
0
 62
     0
 10
4.43235
 20
6.1351
 30
0.0
 11
4.23004
 21
6.71619
 31
0.0
  0
LINE
  8
0
 62
     0
 10
4.23004
 20
6.71619
 30
0.0
 11
4.04953
 21
7.33214
 31
0.0
  0
LINE
  8
0
 62
     0
 10
4.04953
 20
7.33214
 30
0.0
 11
3.89085
 21
7.98292
 31
0.0
  0
LINE
  8
0
 62
     0
 10
3.89085
 20
7.98292
 30
0.0
 11
3.75396
 21
8.66851
 31
0.0
  0
LINE
  8
0
 62
     0
 10
3.75396
 20
8.66851
 30
0.0
 11
3.63889
 21
9.38889
 31
0.0
  0
LINE
  8
0
 62
     0
 10
3.63889
 20
9.38889
 30
0.0
 11
3.50304
 21
10.5425
 31
0.0
  0
LINE
  8
0
 62
     0
 10
3.50304
 20
10.5425
 30
0.0
 11
3.42188
 21
11.691
 31
0.0
  0
LINE
  8
0
 62
     0
 10
3.42188
 20
11.691
 30
0.0
 11
3.3954
 21
12.8342
 31
0.0
  0
LINE
  8
0
 62
     0
 10
3.3954
 20
12.8342
 30
0.0
 11
3.42361
 21
13.9722
 31
0.0
  0
LINE
  8
0
 62
     0
 10
3.42361
 20
13.9722
 30
0.0
 11
3.50651
 21
15.105
 31
0.0
  0
LINE
  8
0
 62
     0
 10
3.50651
 20
15.105
 30
0.0
 11
3.6441
 21
16.2326
 31
0.0
  0
LINE
  8
0
 62
     0
 10
3.6441
 20
16.2326
 30
0.0
 11
3.83637
 21
17.355
 31
0.0
  0
LINE
  8
0
 62
     0
 10
3.83637
 20
17.355
 30
0.0
 11
4.08333
 21
18.4722
 31
0.0
  0
LINE
  8
0
 62
     0
 10
4.08333
 20
18.4722
 30
0.0
 11
4.10238
 21
18.6719
 31
0.0
  0
LINE
  8
0
 62
     0
 10
4.10238
 20
18.6719
 30
0.0
 11
4.04856
 21
18.8403
 31
0.0
  0
LINE
  8
0
 62
     0
 10
4.04856
 20
18.8403
 30
0.0
 11
3.92182
 21
18.9775
 31
0.0
  0
LINE
  8
0
 62
     0
 10
3.92182
 20
18.9775
 30
0.0
 11
3.72222
 21
19.0833
 31
0.0
  0
LINE
  8
0
 62
     0
 10
3.72222
 20
19.0833
 30
0.0
 11
3.50261
 21
19.1444
 31
0.0
  0
LINE
  8
0
 62
     0
 10
3.50261
 20
19.1444
 30
0.0
 11
3.24653
 21
19.1742
 31
0.0
  0
LINE
  8
0
 62
     0
 10
3.24653
 20
19.1742
 30
0.0
 11
2.95394
 21
19.1722
 31
0.0
  0
LINE
  8
0
 62
     0
 10
2.95394
 20
19.1722
 30
0.0
 11
2.625
 21
19.1389
 31
0.0
  0
LINE
  8
0
 62
     0
 10
2.625
 20
19.1389
 30
0.0
 11
2.29422
 21
19.079
 31
0.0
  0
LINE
  8
0
 62
     0
 10
2.29422
 20
19.079
 30
0.0
 11
1.98258
 21
18.9965
 31
0.0
  0
LINE
  8
0
 62
     0
 10
1.98258
 20
18.9965
 30
0.0
 11
1.69006
 21
18.8915
 31
0.0
  0
LINE
  8
0
 62
     0
 10
1.69006
 20
18.8915
 30
0.0
 11
1.41667
 21
18.7639
 31
0.0
  0
LINE
  8
0
 62
     0
 10
1.41667
 20
18.7639
 30
0.0
 11
1.14925
 21
18.599
 31
0.0
  0
LINE
  8
0
 62
     0
 10
1.14925
 20
18.599
 30
0.0
 11
0.944444
 21
18.4236
 31
0.0
  0
LINE
  8
0
 62
     0
 10
0.944444
 20
18.4236
 30
0.0
 11
0.802083
 21
18.2379
 31
0.0
  0
LINE
  8
0
 62
     0
 10
0.802083
 20
18.2379
 30
0.0
 11
0.722222
 21
18.0417
 31
0.0
  0
LINE
  8
0
 62
     0
 10
0.722222
 20
18.0417
 30
0.0
 11
0.546929
 21
17.2807
 31
0.0
  0
LINE
  8
0
 62
     0
 10
0.546929
 20
17.2807
 30
0.0
 11
0.39605
 21
16.5257
 31
0.0
  0
LINE
  8
0
 62
     0
 10
0.39605
 20
16.5257
 30
0.0
 11
0.269586
 21
15.7764
 31
0.0
  0
LINE
  8
0
 62
     0
 10
0.269586
 20
15.7764
 30
0.0
 11
0.167535
 21
15.0331
 31
0.0
  0
LINE
  8
0
 62
     0
 10
0.167535
 20
15.0331
 30
0.0
 11
0.0898981
 21
14.2956
 31
0.0
  0
LINE
  8
0
 62
     0
 10
0.0898981
 20
14.2956
 30
0.0
 11
0.0366754
 21
13.5639
 31
0.0
  0
LINE
  8
0
 62
     0
 10
0.0366754
 20
13.5639
 30
0.0
 11
0.00786675
 21
12.8381
 31
0.0
  0
LINE
  8
0
 62
     0
 10
0.00786675
 20
12.8381
 30
0.0
 11
0.00347222
 21
12.1181
 31
0.0
  0
LINE
  8
0
 62
     0
 10
0.00347222
 20
12.1181
 30
0.0
 11
0.0234918
 21
11.404
 31
0.0
  0
LINE
  8
0
 62
     0
 10
0.0234918
 20
11.404
 30
0.0
 11
0.0679254
 21
10.6958
 31
0.0
  0
LINE
  8
0
 62
     0
 10
0.0679254
 20
10.6958
 30
0.0
 11
0.136773
 21
9.99343
 31
0.0
  0
LINE
  8
0
 62
     0
 10
0.136773
 20
9.99343
 30
0.0
 11
0.230035
 21
9.29693
 31
0.0
  0
LINE
  8
0
 62
     0
 10
0.230035
 20
9.29693
 30
0.0
 11
0.347711
 21
8.60622
 31
0.0
  0
LINE
  8
0
 62
     0
 10
0.347711
 20
8.60622
 30
0.0
 11
0.4898
 21
7.92144
 31
0.0
  0
LINE
  8
0
 62
     0
 10
0.4898
 20
7.92144
 30
0.0
 11
0.656304
 21
7.24251
 31
0.0
  0
LINE
  8
0
 62
     0
 10
0.656304
 20
7.24251
 30
0.0
 11
0.847222
 21
6.56944
 31
0.0
  0
LINE
  8
0
 62
     0
 10
0.847222
 20
6.56944
 30
0.0
 11
1.08718
 21
5.83946
 31
0.0
  0
LINE
  8
0
 62
     0
 10
1.08718
 20
5.83946
 30
0.0
 11
1.35585
 21
5.14936
 31
0.0
  0
LINE
  8
0
 62
     0
 10
1.35585
 20
5.14936
 30
0.0
 11
1.65315
 21
4.49918
 31
0.0
  0
LINE
  8
0
 62
     0
 10
1.65315
 20
4.49918
 30
0.0
 11
1.97917
 21
3.88894
 31
0.0
  0
LINE
  8
0
 62
     0
 10
1.97917
 20
3.88894
 30
0.0
 11
2.33376
 21
3.31862
 31
0.0
  0
LINE
  8
0
 62
     0
 10
2.33376
 20
3.31862
 30
0.0
 11
2.71701
 21
2.78825
 31
0.0
  0
LINE
  8
0
 62
     0
 10
2.71701
 20
2.78825
 30
0.0
 11
3.1289
 21
2.29779
 31
0.0
  0
LINE
  8
0
 62
     0
 10
3.1289
 20
2.29779
 30
0.0
 11
3.56944
 21
1.84722
 31
0.0
  0
LINE
  8
0
 62
     0
 10
3.56944
 20
1.84722
 30
0.0
 11
4.10281
 21
1.38585
 31
0.0
  0
LINE
  8
0
 62
     0
 10
4.10281
 20
1.38585
 30
0.0
 11
4.66835
 21
0.980903
 31
0.0
  0
LINE
  8
0
 62
     0
 10
4.66835
 20
0.980903
 30
0.0
 11
5.266
 21
0.632379
 31
0.0
  0
LINE
  8
0
 62
     0
 10
5.266
 20
0.632379
 30
0.0
 11
5.89578
 21
0.340278
 31
0.0
  0
LINE
  8
0
 62
     0
 10
5.89578
 20
0.340278
 30
0.0
 11
6.55767
 21
0.104601
 31
0.0
  0
LINE
  8
0
 62
     0
 10
6.55767
 20
0.104601
 30
0.0
 11
7.25168
 21
-0.0746528
 31
0.0
  0
LINE
  8
0
 62
     0
 10
7.25168
 20
-0.0746528
 30
0.0
 11
7.97781
 21
-0.197483
 31
0.0
  0
LINE
  8
0
 62
     0
 10
7.97781
 20
-0.197483
 30
0.0
 11
8.73611
 21
-0.263889
 31
0.0
  0
LINE
  8
0
 62
     0
 10
8.73611
 20
-0.263889
 30
0.0
 11
9.65549
 21
-0.280328
 31
0.0
  0
LINE
  8
0
 62
     0
 10
9.65549
 20
-0.280328
 30
0.0
 11
10.5423
 21
-0.239529
 31
0.0
  0
LINE
  8
0
 62
     0
 10
10.5423
 20
-0.239529
 30
0.0
 11
11.3964
 21
-0.141439
 31
0.0
  0
LINE
  8
0
 62
     0
 10
11.3964
 20
-0.141439
 30
0.0
 11
12.2178
 21
0.0139432
 31
0.0
  0
LINE
  8
0
 62
     0
 10
12.2178
 20
0.0139432
 30
0.0
 11
13.0066
 21
0.226617
 31
0.0
  0
LINE
  8
0
 62
     0
 10
13.0066
 20
0.226617
 30
0.0
 11
13.7628
 21
0.496582
 31
0.0
  0
LINE
  8
0
 62
     0
 10
13.7628
 20
0.496582
 30
0.0
 11
14.4863
 21
0.823839
 31
0.0
  0
LINE
  8
0
 62
     0
 10
14.4863
 20
0.823839
 30
0.0
 11
15.1771
 21
1.20833
 31
0.0
  0
LINE
  8
0
 62
     0
 10
15.1771
 20
1.20833
 30
0.0
 11
15.8351
 21
1.65018
 31
0.0
  0
LINE
  8
0
 62
     0
 10
15.8351
 20
1.65018
 30
0.0
 11
16.4607
 21
2.14931
 31
0.0
  0
LINE
  8
0
 62
     0
 10
16.4607
 20
2.14931
 30
0.0
 11
17.0535
 21
2.70574
 31
0.0
  0
LINE
  8
0
 62
     0
 10
17.0535
 20
2.70574
 30
0.0
 11
17.6136
 21
3.31944
 31
0.0
  0
LINE
  8
0
 62
     0
 10
17.6136
 20
3.31944
 30
0.0
 11
18.1411
 21
3.99046
 31
0.0
  0
LINE
  8
0
 62
     0
 10
18.1411
 20
3.99046
 30
0.0
 11
18.636
 21
4.71875
 31
0.0
  0
LINE
  8
0
 62
     0
 10
18.636
 20
4.71875
 30
0.0
 11
19.0982
 21
5.50435
 31
0.0
  0
LINE
  8
0
 62
     0
 10
19.0982
 20
5.50435
 30
0.0
 11
19.5278
 21
6.34722
 31
0.0
  0
LINE
  8
0
 62
     0
 10
19.5278
 20
6.34722
 30
0.0
 11
19.8524
 21
7.06521
 31
0.0
  0
LINE
  8
0
 62
     0
 10
19.8524
 20
7.06521
 30
0.0
 11
20.1489
 21
7.79889
 31
0.0
  0
LINE
  8
0
 62
     0
 10
20.1489
 20
7.79889
 30
0.0
 11
20.4174
 21
8.54829
 31
0.0
  0
LINE
  8
0
 62
     0
 10
20.4174
 20
8.54829
 30
0.0
 11
20.6581
 21
9.31342
 31
0.0
  0
LINE
  8
0
 62
     0
 10
20.6581
 20
9.31342
 30
0.0
 11
20.8706
 21
10.0943
 31
0.0
  0
LINE
  8
0
 62
     0
 10
20.8706
 20
10.0943
 30
0.0
 11
21.0551
 21
10.8909
 31
0.0
  0
LINE
  8
0
 62
     0
 10
21.0551
 20
10.8909
 30
0.0
 11
21.2117
 21
11.7032
 31
0.0
  0
LINE
  8
0
 62
     0
 10
21.2117
 20
11.7032
 30
0.0
 11
21.3403
 21
12.5313
 31
0.0
  0
LINE
  8
0
 62
     0
 10
21.3403
 20
12.5313
 30
0.0
 11
21.4408
 21
13.3751
 31
0.0
  0
LINE
  8
0
 62
     0
 10
21.4408
 20
13.3751
 30
0.0
 11
21.5135
 21
14.2346
 31
0.0
  0
LINE
  8
0
 62
     0
 10
21.5135
 20
14.2346
 30
0.0
 11
21.5581
 21
15.1099
 31
0.0
  0
LINE
  8
0
 62
     0
 10
21.5581
 20
15.1099
 30
0.0
 11
21.5747
 21
16.001
 31
0.0
  0
LINE
  8
0
 62
     0
 10
21.5747
 20
16.001
 30
0.0
 11
21.5632
 21
16.9076
 31
0.0
  0
LINE
  8
0
 62
     0
 10
21.5632
 20
16.9076
 30
0.0
 11
21.5239
 21
17.8301
 31
0.0
  0
LINE
  8
0
 62
     0
 10
21.5239
 20
17.8301
 30
0.0
 11
21.4565
 21
18.7683
 31
0.0
  0
LINE
  8
0
 62
     0
 10
21.4565
 20
18.7683
 30
0.0
 11
21.3611
 21
19.7222
 31
0.0
  0
LINE
  8
0
 62
     0
 10
21.3611
 20
19.7222
 30
0.0
 11
21.3082
 21
19.9056
 31
0.0
  0
LINE
  8
0
 62
     0
 10
21.3082
 20
19.9056
 30
0.0
 11
21.191
 21
20.0524
 31
0.0
  0
LINE
  8
0
 62
     0
 10
21.191
 20
20.0524
 30
0.0
 11
21.0096
 21
20.1625
 31
0.0
  0
LINE
  8
0
 62
     0
 10
21.0096
 20
20.1625
 30
0.0
 11
20.7639
 21
20.2361
 31
0.0
  0
LINE
  8
0
 62
     0
 10
20.7639
 20
20.2361
 30
0.0
 11
20.5026
 21
20.2683
 31
0.0
  0
LINE
  8
0
 62
     0
 10
20.5026
 20
20.2683
 30
0.0
 11
20.2188
 21
20.2674
 31
0.0
  0
LINE
  8
0
 62
     0
 10
20.2188
 20
20.2674
 30
0.0
 11
19.9124
 21
20.2336
 31
0.0
  0
LINE
  8
0
 62
     0
 10
19.9124
 20
20.2336
 30
0.0
 11
19.5833
 21
20.1667
 31
0.0
  0
LINE
  8
0
 62
     0
 10
19.5833
 20
20.1667
 30
0.0
 11
19.2518
 21
20.0721
 31
0.0
  0
LINE
  8
0
 62
     0
 10
19.2518
 20
20.0721
 30
0.0
 11
18.9514
 21
19.9549
 31
0.0
  0
LINE
  8
0
 62
     0
 10
18.9514
 20
19.9549
 30
0.0
 11
18.6822
 21
19.8151
 31
0.0
  0
LINE
  8
0
 62
     0
 10
18.6822
 20
19.8151
 30
0.0
 11
18.4444
 21
19.6528
 31
0.0
  0
LINE
  8
0
 62
     0
 10
18.4444
 20
19.6528
 30
0.0
 11
18.2292
 21
19.4549
 31
0.0
  0
LINE
  8
0
 62
     0
 10
18.2292
 20
19.4549
 30
0.0
 11
18.0833
 21
19.25
 31
0.0
  0
LINE
  8
0
 62
     0
 10
18.0833
 20
19.25
 30
0.0
 11
18.0069
 21
19.0382
 31
0.0
  0
LINE
  8
0
 62
     0
 10
18.0069
 20
19.0382
 30
0.0
 11
18
 21
18.8194
 31
0.0
  0
LINE
  8
0
 62
     0
 10
18
 20
18.8194
 30
0.0
 11
18.1265
 21
17.4931
 31
0.0
  0
LINE
  8
0
 62
     0
 10
18.1265
 20
17.4931
 30
0.0
 11
18.2004
 21
16.1944
 31
0.0
  0
LINE
  8
0
 62
     0
 10
18.2004
 20
16.1944
 30
0.0
 11
18.2219
 21
14.9236
 31
0.0
  0
LINE
  8
0
 62
     0
 10
18.2219
 20
14.9236
 30
0.0
 11
18.191
 21
13.6806
 31
0.0
  0
LINE
  8
0
 62
     0
 10
18.191
 20
13.6806
 30
0.0
 11
18.1074
 21
12.4653
 31
0.0
  0
LINE
  8
0
 62
     0
 10
18.1074
 20
12.4653
 30
0.0
 11
17.9713
 21
11.2778
 31
0.0
  0
LINE
  8
0
 62
     0
 10
17.9713
 20
11.2778
 30
0.0
 11
17.7828
 21
10.1181
 31
0.0
  0
LINE
  8
0
 62
     0
 10
17.7828
 20
10.1181
 30
0.0
 11
17.5417
 21
8.98611
 31
0.0
  0
ENDSEC
  0
EOF
