  0
SECTION
  2
HEADER
  9
$ACADVER
  1
AC1009
  9
$EXTMIN
 10
0.0
 20
0.0
 30
0.0
  9
$EXTMAX
 10
1000.0
 20
1000.0
 30
0.0
  9
$FILLMODE
 70
 0
  9
$SPLFRAME
 70
 1
  0
ENDSEC
  0
SECTION
  2
TABLES
  0
TABLE
  2
LAYER
 70
1
  0
LAYER
  2
0
 70
     0
 62
     7
  6
CONTINUOUS
  0
ENDTAB
  0
ENDSEC
  0
SECTION
  2
ENTITIES
  0
LINE
  8
0
 62
     0
 10
10.2778
 20
0.0555556
 30
0.0
 11
9.62067
 21
0.057346
 31
0.0
  0
LINE
  8
0
 62
     0
 10
9.62067
 20
0.057346
 30
0.0
 11
8.89931
 21
0.0486111
 31
0.0
  0
LINE
  8
0
 62
     0
 10
8.89931
 20
0.0486111
 30
0.0
 11
8.11372
 21
0.0295139
 31
0.0
  0
LINE
  8
0
 62
     0
 10
8.11372
 20
0.0295139
 30
0.0
 11
7.26389
 21
-0
 31
0.0
  0
LINE
  8
0
 62
     0
 10
7.26389
 20
-0
 30
0.0
 11
6.98785
 21
-0.00954861
 31
0.0
  0
LINE
  8
0
 62
     0
 10
6.98785
 20
-0.00954861
 30
0.0
 11
6.64583
 21
-0.0243056
 31
0.0
  0
LINE
  8
0
 62
     0
 10
6.64583
 20
-0.0243056
 30
0.0
 11
6.23785
 21
-0.0442165
 31
0.0
  0
LINE
  8
0
 62
     0
 10
6.23785
 20
-0.0442165
 30
0.0
 11
5.76389
 21
-0.0694444
 31
0.0
  0
LINE
  8
0
 62
     0
 10
5.76389
 20
-0.0694444
 30
0.0
 11
5.29514
 21
-0.0894097
 31
0.0
  0
LINE
  8
0
 62
     0
 10
5.29514
 20
-0.0894097
 30
0.0
 11
4.88889
 21
-0.107639
 31
0.0
  0
LINE
  8
0
 62
     0
 10
4.88889
 20
-0.107639
 30
0.0
 11
4.54514
 21
-0.124132
 31
0.0
  0
LINE
  8
0
 62
     0
 10
4.54514
 20
-0.124132
 30
0.0
 11
4.26389
 21
-0.138889
 31
0.0
  0
LINE
  8
0
 62
     0
 10
4.26389
 20
-0.138889
 30
0.0
 11
3.41401
 21
-0.167481
 31
0.0
  0
LINE
  8
0
 62
     0
 10
3.41401
 20
-0.167481
 30
0.0
 11
2.62842
 21
-0.183974
 31
0.0
  0
LINE
  8
0
 62
     0
 10
2.62842
 20
-0.183974
 30
0.0
 11
1.90707
 21
-0.188314
 31
0.0
  0
LINE
  8
0
 62
     0
 10
1.90707
 20
-0.188314
 30
0.0
 11
1.25
 21
-0.180556
 31
0.0
  0
LINE
  8
0
 62
     0
 10
1.25
 20
-0.180556
 30
0.0
 11
0.944444
 21
-0.22564
 31
0.0
  0
LINE
  8
0
 62
     0
 10
0.944444
 20
-0.22564
 30
0.0
 11
0.638889
 21
-0.361111
 31
0.0
  0
LINE
  8
0
 62
     0
 10
0.638889
 20
-0.361111
 30
0.0
 11
0.392361
 21
-0.559028
 31
0.0
  0
LINE
  8
0
 62
     0
 10
0.392361
 20
-0.559028
 30
0.0
 11
0.208333
 21
-0.791667
 31
0.0
  0
LINE
  8
0
 62
     0
 10
0.208333
 20
-0.791667
 30
0.0
 11
0.147569
 21
-0.911458
 31
0.0
  0
LINE
  8
0
 62
     0
 10
0.147569
 20
-0.911458
 30
0.0
 11
0.118056
 21
-1.02083
 31
0.0
  0
LINE
  8
0
 62
     0
 10
0.118056
 20
-1.02083
 30
0.0
 11
0.119737
 21
-1.11979
 31
0.0
  0
LINE
  8
0
 62
     0
 10
0.119737
 20
-1.11979
 30
0.0
 11
0.152778
 21
-1.20833
 31
0.0
  0
LINE
  8
0
 62
     0
 10
0.152778
 20
-1.20833
 30
0.0
 11
0.220486
 21
-1.29948
 31
0.0
  0
LINE
  8
0
 62
     0
 10
0.220486
 20
-1.29948
 30
0.0
 11
0.326389
 21
-1.36458
 31
0.0
  0
LINE
  8
0
 62
     0
 10
0.326389
 20
-1.36458
 30
0.0
 11
0.470486
 21
-1.40365
 31
0.0
  0
LINE
  8
0
 62
     0
 10
0.470486
 20
-1.40365
 30
0.0
 11
0.652778
 21
-1.41667
 31
0.0
  0
LINE
  8
0
 62
     0
 10
0.652778
 20
-1.41667
 30
0.0
 11
1.3151
 21
-1.42443
 31
0.0
  0
LINE
  8
0
 62
     0
 10
1.3151
 20
-1.42443
 30
0.0
 11
2.03819
 21
-1.42008
 31
0.0
  0
LINE
  8
0
 62
     0
 10
2.03819
 20
-1.42008
 30
0.0
 11
2.82206
 21
-1.4036
 31
0.0
  0
LINE
  8
0
 62
     0
 10
2.82206
 20
-1.4036
 30
0.0
 11
3.66667
 21
-1.375
 31
0.0
  0
LINE
  8
0
 62
     0
 10
3.66667
 20
-1.375
 30
0.0
 11
3.954
 21
-1.3654
 31
0.0
  0
LINE
  8
0
 62
     0
 10
3.954
 20
-1.3654
 30
0.0
 11
4.30208
 21
-1.35069
 31
0.0
  0
LINE
  8
0
 62
     0
 10
4.30208
 20
-1.35069
 30
0.0
 11
4.71094
 21
-1.33073
 31
0.0
  0
LINE
  8
0
 62
     0
 10
4.71094
 20
-1.33073
 30
0.0
 11
5.18056
 21
-1.30556
 31
0.0
  0
LINE
  8
0
 62
     0
 10
5.18056
 20
-1.30556
 30
0.0
 11
5.65451
 21
-1.28554
 31
0.0
  0
LINE
  8
0
 62
     0
 10
5.65451
 20
-1.28554
 30
0.0
 11
6.0625
 21
-1.26731
 31
0.0
  0
LINE
  8
0
 62
     0
 10
6.0625
 20
-1.26731
 30
0.0
 11
6.40451
 21
-1.25081
 31
0.0
  0
LINE
  8
0
 62
     0
 10
6.40451
 20
-1.25081
 30
0.0
 11
6.68056
 21
-1.23611
 31
0.0
  0
LINE
  8
0
 62
     0
 10
6.68056
 20
-1.23611
 30
0.0
 11
7.57964
 21
-1.20551
 31
0.0
  0
LINE
  8
0
 62
     0
 10
7.57964
 20
-1.20551
 30
0.0
 11
8.43664
 21
-1.1901
 31
0.0
  0
LINE
  8
0
 62
     0
 10
8.43664
 20
-1.1901
 30
0.0
 11
9.25151
 21
-1.18989
 31
0.0
  0
LINE
  8
0
 62
     0
 10
9.25151
 20
-1.18989
 30
0.0
 11
10.0243
 21
-1.20486
 31
0.0
  0
LINE
  8
0
 62
     0
 10
10.0243
 20
-1.20486
 30
0.0
 11
10.755
 21
-1.23503
 31
0.0
  0
LINE
  8
0
 62
     0
 10
10.755
 20
-1.23503
 30
0.0
 11
11.4436
 21
-1.28038
 31
0.0
  0
LINE
  8
0
 62
     0
 10
11.4436
 20
-1.28038
 30
0.0
 11
12.0901
 21
-1.34093
 31
0.0
  0
LINE
  8
0
 62
     0
 10
12.0901
 20
-1.34093
 30
0.0
 11
12.6944
 21
-1.41667
 31
0.0
  0
LINE
  8
0
 62
     0
 10
12.6944
 20
-1.41667
 30
0.0
 11
12.842
 21
-1.42529
 31
0.0
  0
LINE
  8
0
 62
     0
 10
12.842
 20
-1.42529
 30
0.0
 11
12.9931
 21
-1.40967
 31
0.0
  0
LINE
  8
0
 62
     0
 10
12.9931
 20
-1.40967
 30
0.0
 11
13.1476
 21
-1.36974
 31
0.0
  0
LINE
  8
0
 62
     0
 10
13.1476
 20
-1.36974
 30
0.0
 11
13.3056
 21
-1.30556
 31
0.0
  0
LINE
  8
0
 62
     0
 10
13.3056
 20
-1.30556
 30
0.0
 11
13.4366
 21
-1.22309
 31
0.0
  0
LINE
  8
0
 62
     0
 10
13.4366
 20
-1.22309
 30
0.0
 11
13.5521
 21
-1.12847
 31
0.0
  0
LINE
  8
0
 62
     0
 10
13.5521
 20
-1.12847
 30
0.0
 11
13.6519
 21
-1.0217
 31
0.0
  0
LINE
  8
0
 62
     0
 10
13.6519
 20
-1.0217
 30
0.0
 11
13.7361
 21
-0.902778
 31
0.0
  0
LINE
  8
0
 62
     0
 10
13.7361
 20
-0.902778
 30
0.0
 11
13.7968
 21
-0.781196
 31
0.0
  0
LINE
  8
0
 62
     0
 10
13.7968
 20
-0.781196
 30
0.0
 11
13.8264
 21
-0.666613
 31
0.0
  0
LINE
  8
0
 62
     0
 10
13.8264
 20
-0.666613
 30
0.0
 11
13.8247
 21
-0.558974
 31
0.0
  0
LINE
  8
0
 62
     0
 10
13.8247
 20
-0.558974
 30
0.0
 11
13.7917
 21
-0.458333
 31
0.0
  0
LINE
  8
0
 62
     0
 10
13.7917
 20
-0.458333
 30
0.0
 11
13.7178
 21
-0.357585
 31
0.0
  0
LINE
  8
0
 62
     0
 10
13.7178
 20
-0.357585
 30
0.0
 11
13.6075
 21
-0.277778
 31
0.0
  0
LINE
  8
0
 62
     0
 10
13.6075
 20
-0.277778
 30
0.0
 11
13.4608
 21
-0.21875
 31
0.0
  0
LINE
  8
0
 62
     0
 10
13.4608
 20
-0.21875
 30
0.0
 11
13.2778
 21
-0.180556
 31
0.0
  0
LINE
  8
0
 62
     0
 10
13.2778
 20
-0.180556
 30
0.0
 11
12.5747
 21
-0.0928819
 31
0.0
  0
LINE
  8
0
 62
     0
 10
12.5747
 20
-0.0928819
 30
0.0
 11
11.8403
 21
-0.0243056
 31
0.0
  0
LINE
  8
0
 62
     0
 10
11.8403
 20
-0.0243056
 30
0.0
 11
11.0747
 21
0.0251736
 31
0.0
  0
LINE
  8
0
 62
     0
 10
11.0747
 20
0.0251736
 30
0.0
 11
10.2778
 21
0.0555556
 31
0.0
  0
ENDSEC
  0
EOF
