  0
SECTION
  2
HEADER
  9
$ACADVER
  1
AC1009
  9
$EXTMIN
 10
0.0
 20
0.0
 30
0.0
  9
$EXTMAX
 10
1000.0
 20
1000.0
 30
0.0
  9
$FILLMODE
 70
 0
  9
$SPLFRAME
 70
 1
  0
ENDSEC
  0
SECTION
  2
TABLES
  0
TABLE
  2
LAYER
 70
1
  0
LAYER
  2
0
 70
     0
 62
     7
  6
CONTINUOUS
  0
ENDTAB
  0
ENDSEC
  0
SECTION
  2
ENTITIES
  0
LINE
  8
0
 62
     0
 10
7.01389
 20
3.23611
 30
0.0
 11
6.87147
 21
3.38894
 31
0.0
  0
LINE
  8
0
 62
     0
 10
6.87147
 20
3.38894
 30
0.0
 11
6.72222
 21
3.59722
 31
0.0
  0
LINE
  8
0
 62
     0
 10
6.72222
 20
3.59722
 30
0.0
 11
7.85764
 21
3.67193
 31
0.0
  0
LINE
  8
0
 62
     0
 10
7.85764
 20
3.67193
 30
0.0
 11
8.91667
 21
3.72922
 31
0.0
  0
LINE
  8
0
 62
     0
 10
8.91667
 20
3.72922
 30
0.0
 11
9.89931
 21
3.76915
 31
0.0
  0
LINE
  8
0
 62
     0
 10
9.89931
 20
3.76915
 30
0.0
 11
10.8056
 21
3.79167
 31
0.0
  0
LINE
  8
0
 62
     0
 10
10.8056
 20
3.79167
 30
0.0
 11
11.2257
 21
3.84467
 31
0.0
  0
LINE
  8
0
 62
     0
 10
11.2257
 20
3.84467
 30
0.0
 11
11.6389
 21
3.98964
 31
0.0
  0
LINE
  8
0
 62
     0
 10
11.6389
 20
3.98964
 30
0.0
 11
12.0451
 21
4.22661
 31
0.0
  0
LINE
  8
0
 62
     0
 10
12.0451
 20
4.22661
 30
0.0
 11
12.4444
 21
4.55556
 31
0.0
  0
LINE
  8
0
 62
     0
 10
12.4444
 20
4.55556
 30
0.0
 11
12.5851
 21
4.70144
 31
0.0
  0
LINE
  8
0
 62
     0
 10
12.5851
 20
4.70144
 30
0.0
 11
12.6736
 21
4.83339
 31
0.0
  0
LINE
  8
0
 62
     0
 10
12.6736
 20
4.83339
 30
0.0
 11
12.7101
 21
4.95144
 31
0.0
  0
LINE
  8
0
 62
     0
 10
12.7101
 20
4.95144
 30
0.0
 11
12.6944
 21
5.05556
 31
0.0
  0
LINE
  8
0
 62
     0
 10
12.6944
 20
5.05556
 30
0.0
 11
12.6111
 21
5.15196
 31
0.0
  0
LINE
  8
0
 62
     0
 10
12.6111
 20
5.15196
 30
0.0
 11
12.4583
 21
5.21881
 31
0.0
  0
LINE
  8
0
 62
     0
 10
12.4583
 20
5.21881
 30
0.0
 11
12.2361
 21
5.25613
 31
0.0
  0
LINE
  8
0
 62
     0
 10
12.2361
 20
5.25613
 30
0.0
 11
11.9444
 21
5.26389
 31
0.0
  0
LINE
  8
0
 62
     0
 10
11.9444
 20
5.26389
 30
0.0
 11
11.3188
 21
5.25006
 31
0.0
  0
LINE
  8
0
 62
     0
 10
11.3188
 20
5.25006
 30
0.0
 11
10.671
 21
5.22922
 31
0.0
  0
LINE
  8
0
 62
     0
 10
10.671
 20
5.22922
 30
0.0
 11
10.0011
 21
5.20144
 31
0.0
  0
LINE
  8
0
 62
     0
 10
10.0011
 20
5.20144
 30
0.0
 11
9.30903
 21
5.16672
 31
0.0
  0
LINE
  8
0
 62
     0
 10
9.30903
 20
5.16672
 30
0.0
 11
8.59483
 21
5.12506
 31
0.0
  0
LINE
  8
0
 62
     0
 10
8.59483
 20
5.12506
 30
0.0
 11
7.85851
 21
5.07644
 31
0.0
  0
LINE
  8
0
 62
     0
 10
7.85851
 20
5.07644
 30
0.0
 11
7.10004
 21
5.02089
 31
0.0
  0
LINE
  8
0
 62
     0
 10
7.10004
 20
5.02089
 30
0.0
 11
6.31944
 21
4.95833
 31
0.0
  0
LINE
  8
0
 62
     0
 10
6.31944
 20
4.95833
 30
0.0
 11
6.31793
 21
5.22461
 31
0.0
  0
LINE
  8
0
 62
     0
 10
6.31793
 20
5.22461
 30
0.0
 11
6.33421
 21
5.50261
 31
0.0
  0
LINE
  8
0
 62
     0
 10
6.33421
 20
5.50261
 30
0.0
 11
6.36828
 21
5.79232
 31
0.0
  0
LINE
  8
0
 62
     0
 10
6.36828
 20
5.79232
 30
0.0
 11
6.42014
 21
6.09375
 31
0.0
  0
LINE
  8
0
 62
     0
 10
6.42014
 20
6.09375
 30
0.0
 11
6.48981
 21
6.4069
 31
0.0
  0
LINE
  8
0
 62
     0
 10
6.48981
 20
6.4069
 30
0.0
 11
6.57726
 21
6.73178
 31
0.0
  0
LINE
  8
0
 62
     0
 10
6.57726
 20
6.73178
 30
0.0
 11
6.68251
 21
7.06836
 31
0.0
  0
LINE
  8
0
 62
     0
 10
6.68251
 20
7.06836
 30
0.0
 11
6.80556
 21
7.41667
 31
0.0
  0
LINE
  8
0
 62
     0
 10
6.80556
 20
7.41667
 30
0.0
 11
7.39344
 21
7.43642
 31
0.0
  0
LINE
  8
0
 62
     0
 10
7.39344
 20
7.43642
 30
0.0
 11
7.94879
 21
7.454
 31
0.0
  0
LINE
  8
0
 62
     0
 10
7.94879
 20
7.454
 30
0.0
 11
8.47157
 21
7.4694
 31
0.0
  0
LINE
  8
0
 62
     0
 10
8.47157
 20
7.4694
 30
0.0
 11
8.96181
 21
7.48264
 31
0.0
  0
LINE
  8
0
 62
     0
 10
8.96181
 20
7.48264
 30
0.0
 11
9.41949
 21
7.49371
 31
0.0
  0
LINE
  8
0
 62
     0
 10
9.41949
 20
7.49371
 30
0.0
 11
9.84462
 21
7.50261
 31
0.0
  0
LINE
  8
0
 62
     0
 10
9.84462
 20
7.50261
 30
0.0
 11
10.2372
 21
7.50933
 31
0.0
  0
LINE
  8
0
 62
     0
 10
10.2372
 20
7.50933
 30
0.0
 11
10.5972
 21
7.51389
 31
0.0
  0
LINE
  8
0
 62
     0
 10
10.5972
 20
7.51389
 30
0.0
 11
11.0121
 21
7.56515
 31
0.0
  0
LINE
  8
0
 62
     0
 10
11.0121
 20
7.56515
 30
0.0
 11
11.4236
 21
7.70492
 31
0.0
  0
LINE
  8
0
 62
     0
 10
11.4236
 20
7.70492
 30
0.0
 11
11.8315
 21
7.93321
 31
0.0
  0
LINE
  8
0
 62
     0
 10
11.8315
 20
7.93321
 30
0.0
 11
12.2361
 21
8.25
 31
0.0
  0
LINE
  8
0
 62
     0
 10
12.2361
 20
8.25
 30
0.0
 11
12.3776
 21
8.38981
 31
0.0
  0
LINE
  8
0
 62
     0
 10
12.3776
 20
8.38981
 30
0.0
 11
12.4687
 21
8.51742
 31
0.0
  0
LINE
  8
0
 62
     0
 10
12.4687
 20
8.51742
 30
0.0
 11
12.5095
 21
8.63286
 31
0.0
  0
LINE
  8
0
 62
     0
 10
12.5095
 20
8.63286
 30
0.0
 11
12.5
 21
8.73611
 31
0.0
  0
LINE
  8
0
 62
     0
 10
12.5
 20
8.73611
 30
0.0
 11
12.4158
 21
8.83251
 31
0.0
  0
LINE
  8
0
 62
     0
 10
12.4158
 20
8.83251
 30
0.0
 11
12.2604
 21
8.89936
 31
0.0
  0
LINE
  8
0
 62
     0
 10
12.2604
 20
8.89936
 30
0.0
 11
12.0338
 21
8.93668
 31
0.0
  0
LINE
  8
0
 62
     0
 10
12.0338
 20
8.93668
 30
0.0
 11
11.7361
 21
8.94444
 31
0.0
  0
LINE
  8
0
 62
     0
 10
11.7361
 20
8.94444
 30
0.0
 11
11.3576
 21
8.93967
 31
0.0
  0
LINE
  8
0
 62
     0
 10
11.3576
 20
8.93967
 30
0.0
 11
10.9374
 21
8.93229
 31
0.0
  0
LINE
  8
0
 62
     0
 10
10.9374
 20
8.93229
 30
0.0
 11
10.4756
 21
8.92231
 31
0.0
  0
LINE
  8
0
 62
     0
 10
10.4756
 20
8.92231
 30
0.0
 11
9.97222
 21
8.90972
 31
0.0
  0
LINE
  8
0
 62
     0
 10
9.97222
 20
8.90972
 30
0.0
 11
9.42708
 21
8.89458
 31
0.0
  0
LINE
  8
0
 62
     0
 10
9.42708
 20
8.89458
 30
0.0
 11
8.84028
 21
8.87679
 31
0.0
  0
LINE
  8
0
 62
     0
 10
8.84028
 20
8.87679
 30
0.0
 11
8.21181
 21
8.85639
 31
0.0
  0
LINE
  8
0
 62
     0
 10
8.21181
 20
8.85639
 30
0.0
 11
7.54167
 21
8.83333
 31
0.0
  0
LINE
  8
0
 62
     0
 10
7.54167
 20
8.83333
 30
0.0
 11
7.78907
 21
9.17953
 31
0.0
  0
LINE
  8
0
 62
     0
 10
7.78907
 20
9.17953
 30
0.0
 11
8.05208
 21
9.5096
 31
0.0
  0
LINE
  8
0
 62
     0
 10
8.05208
 20
9.5096
 30
0.0
 11
8.33074
 21
9.82363
 31
0.0
  0
LINE
  8
0
 62
     0
 10
8.33074
 20
9.82363
 30
0.0
 11
8.625
 21
10.1216
 31
0.0
  0
LINE
  8
0
 62
     0
 10
8.625
 20
10.1216
 30
0.0
 11
8.9349
 21
10.4035
 31
0.0
  0
LINE
  8
0
 62
     0
 10
8.9349
 20
10.4035
 30
0.0
 11
9.26042
 21
10.6693
 31
0.0
  0
LINE
  8
0
 62
     0
 10
9.26042
 20
10.6693
 30
0.0
 11
9.60157
 21
10.9191
 31
0.0
  0
LINE
  8
0
 62
     0
 10
9.60157
 20
10.9191
 30
0.0
 11
9.95833
 21
11.1528
 31
0.0
  0
LINE
  8
0
 62
     0
 10
9.95833
 20
11.1528
 30
0.0
 11
10.3491
 21
11.38
 31
0.0
  0
LINE
  8
0
 62
     0
 10
10.3491
 20
11.38
 30
0.0
 11
10.7369
 21
11.5756
 31
0.0
  0
LINE
  8
0
 62
     0
 10
10.7369
 20
11.5756
 30
0.0
 11
11.1217
 21
11.7394
 31
0.0
  0
LINE
  8
0
 62
     0
 10
11.1217
 20
11.7394
 30
0.0
 11
11.5034
 21
11.8716
 31
0.0
  0
LINE
  8
0
 62
     0
 10
11.5034
 20
11.8716
 30
0.0
 11
11.8821
 21
11.9721
 31
0.0
  0
LINE
  8
0
 62
     0
 10
11.8821
 20
11.9721
 30
0.0
 11
12.2578
 21
12.0408
 31
0.0
  0
LINE
  8
0
 62
     0
 10
12.2578
 20
12.0408
 30
0.0
 11
12.6304
 21
12.078
 31
0.0
  0
LINE
  8
0
 62
     0
 10
12.6304
 20
12.078
 30
0.0
 11
13
 21
12.0833
 31
0.0
  0
LINE
  8
0
 62
     0
 10
13
 20
12.0833
 30
0.0
 11
13.25
 21
12.0972
 31
0.0
  0
LINE
  8
0
 62
     0
 10
13.25
 20
12.0972
 30
0.0
 11
13.5
 21
12.1528
 31
0.0
  0
LINE
  8
0
 62
     0
 10
13.5
 20
12.1528
 30
0.0
 11
13.75
 21
12.2501
 31
0.0
  0
LINE
  8
0
 62
     0
 10
13.75
 20
12.2501
 30
0.0
 11
14
 21
12.3889
 31
0.0
  0
LINE
  8
0
 62
     0
 10
14
 20
12.3889
 30
0.0
 11
14.2222
 21
12.5425
 31
0.0
  0
LINE
  8
0
 62
     0
 10
14.2222
 20
12.5425
 30
0.0
 11
14.4167
 21
12.7118
 31
0.0
  0
LINE
  8
0
 62
     0
 10
14.4167
 20
12.7118
 30
0.0
 11
14.5833
 21
12.8967
 31
0.0
  0
LINE
  8
0
 62
     0
 10
14.5833
 20
12.8967
 30
0.0
 11
14.7222
 21
13.0972
 31
0.0
  0
LINE
  8
0
 62
     0
 10
14.7222
 20
13.0972
 30
0.0
 11
14.8213
 21
13.3039
 31
0.0
  0
LINE
  8
0
 62
     0
 10
14.8213
 20
13.3039
 30
0.0
 11
14.8681
 21
13.4931
 31
0.0
  0
LINE
  8
0
 62
     0
 10
14.8681
 20
13.4931
 30
0.0
 11
14.8629
 21
13.665
 31
0.0
  0
LINE
  8
0
 62
     0
 10
14.8629
 20
13.665
 30
0.0
 11
14.8056
 21
13.8194
 31
0.0
  0
LINE
  8
0
 62
     0
 10
14.8056
 20
13.8194
 30
0.0
 11
14.6901
 21
13.9722
 31
0.0
  0
LINE
  8
0
 62
     0
 10
14.6901
 20
13.9722
 30
0.0
 11
14.5104
 21
14.0835
 31
0.0
  0
LINE
  8
0
 62
     0
 10
14.5104
 20
14.0835
 30
0.0
 11
14.2665
 21
14.1528
 31
0.0
  0
LINE
  8
0
 62
     0
 10
14.2665
 20
14.1528
 30
0.0
 11
13.9583
 21
14.1806
 31
0.0
  0
LINE
  8
0
 62
     0
 10
13.9583
 20
14.1806
 30
0.0
 11
13.3163
 21
14.1728
 31
0.0
  0
LINE
  8
0
 62
     0
 10
13.3163
 20
14.1728
 30
0.0
 11
12.6683
 21
14.1146
 31
0.0
  0
LINE
  8
0
 62
     0
 10
12.6683
 20
14.1146
 30
0.0
 11
12.0143
 21
14.0061
 31
0.0
  0
LINE
  8
0
 62
     0
 10
12.0143
 20
14.0061
 30
0.0
 11
11.3541
 21
13.8472
 31
0.0
  0
LINE
  8
0
 62
     0
 10
11.3541
 20
13.8472
 30
0.0
 11
10.6879
 21
13.638
 31
0.0
  0
LINE
  8
0
 62
     0
 10
10.6879
 20
13.638
 30
0.0
 11
10.0156
 21
13.3785
 31
0.0
  0
LINE
  8
0
 62
     0
 10
10.0156
 20
13.3785
 30
0.0
 11
9.33718
 21
13.0686
 31
0.0
  0
LINE
  8
0
 62
     0
 10
9.33718
 20
13.0686
 30
0.0
 11
8.65278
 21
12.7083
 31
0.0
  0
LINE
  8
0
 62
     0
 10
8.65278
 20
12.7083
 30
0.0
 11
7.97613
 21
12.303
 31
0.0
  0
LINE
  8
0
 62
     0
 10
7.97613
 20
12.303
 30
0.0
 11
7.34201
 21
11.8715
 31
0.0
  0
LINE
  8
0
 62
     0
 10
7.34201
 20
11.8715
 30
0.0
 11
6.75043
 21
11.4141
 31
0.0
  0
LINE
  8
0
 62
     0
 10
6.75043
 20
11.4141
 30
0.0
 11
6.20139
 21
10.9306
 31
0.0
  0
LINE
  8
0
 62
     0
 10
6.20139
 20
10.9306
 30
0.0
 11
5.69488
 21
10.421
 31
0.0
  0
LINE
  8
0
 62
     0
 10
5.69488
 20
10.421
 30
0.0
 11
5.2309
 21
9.88542
 31
0.0
  0
LINE
  8
0
 62
     0
 10
5.2309
 20
9.88542
 30
0.0
 11
4.80946
 21
9.32379
 31
0.0
  0
LINE
  8
0
 62
     0
 10
4.80946
 20
9.32379
 30
0.0
 11
4.43056
 21
8.73611
 31
0.0
  0
LINE
  8
0
 62
     0
 10
4.43056
 20
8.73611
 30
0.0
 11
3.78814
 21
8.72314
 31
0.0
  0
LINE
  8
0
 62
     0
 10
3.78814
 20
8.72314
 30
0.0
 11
3.19439
 21
8.71186
 31
0.0
  0
LINE
  8
0
 62
     0
 10
3.19439
 20
8.71186
 30
0.0
 11
2.64925
 21
8.70231
 31
0.0
  0
LINE
  8
0
 62
     0
 10
2.64925
 20
8.70231
 30
0.0
 11
2.15278
 21
8.69444
 31
0.0
  0
LINE
  8
0
 62
     0
 10
2.15278
 20
8.69444
 30
0.0
 11
1.73785
 21
8.64324
 31
0.0
  0
LINE
  8
0
 62
     0
 10
1.73785
 20
8.64324
 30
0.0
 11
1.32639
 21
8.50347
 31
0.0
  0
LINE
  8
0
 62
     0
 10
1.32639
 20
8.50347
 30
0.0
 11
0.918403
 21
8.27522
 31
0.0
  0
LINE
  8
0
 62
     0
 10
0.918403
 20
8.27522
 30
0.0
 11
0.513889
 21
7.95833
 31
0.0
  0
LINE
  8
0
 62
     0
 10
0.513889
 20
7.95833
 30
0.0
 11
0.373264
 21
7.81337
 31
0.0
  0
LINE
  8
0
 62
     0
 10
0.373264
 20
7.81337
 30
0.0
 11
0.284722
 21
7.68403
 31
0.0
  0
LINE
  8
0
 62
     0
 10
0.284722
 20
7.68403
 30
0.0
 11
0.248264
 21
7.57036
 31
0.0
  0
LINE
  8
0
 62
     0
 10
0.248264
 20
7.57036
 30
0.0
 11
0.263889
 21
7.47222
 31
0.0
  0
LINE
  8
0
 62
     0
 10
0.263889
 20
7.47222
 30
0.0
 11
0.342014
 21
7.375
 31
0.0
  0
LINE
  8
0
 62
     0
 10
0.342014
 20
7.375
 30
0.0
 11
0.493056
 21
7.30556
 31
0.0
  0
LINE
  8
0
 62
     0
 10
0.493056
 20
7.30556
 30
0.0
 11
0.717014
 21
7.26389
 31
0.0
  0
LINE
  8
0
 62
     0
 10
0.717014
 20
7.26389
 30
0.0
 11
1.01389
 21
7.25
 31
0.0
  0
LINE
  8
0
 62
     0
 10
1.01389
 20
7.25
 30
0.0
 11
1.60764
 21
7.25971
 31
0.0
  0
LINE
  8
0
 62
     0
 10
1.60764
 20
7.25971
 30
0.0
 11
2.26389
 21
7.27447
 31
0.0
  0
LINE
  8
0
 62
     0
 10
2.26389
 20
7.27447
 30
0.0
 11
2.98264
 21
7.29443
 31
0.0
  0
LINE
  8
0
 62
     0
 10
2.98264
 20
7.29443
 30
0.0
 11
3.76389
 21
7.31944
 31
0.0
  0
LINE
  8
0
 62
     0
 10
3.76389
 20
7.31944
 30
0.0
 11
3.57032
 21
6.65978
 31
0.0
  0
LINE
  8
0
 62
     0
 10
3.57032
 20
6.65978
 30
0.0
 11
3.44792
 21
6
 31
0.0
  0
LINE
  8
0
 62
     0
 10
3.44792
 20
6
 30
0.0
 11
3.39671
 21
5.34028
 31
0.0
  0
LINE
  8
0
 62
     0
 10
3.39671
 20
5.34028
 30
0.0
 11
3.41667
 21
4.68056
 31
0.0
  0
LINE
  8
0
 62
     0
 10
3.41667
 20
4.68056
 30
0.0
 11
3.06461
 21
4.64085
 31
0.0
  0
LINE
  8
0
 62
     0
 10
3.06461
 20
4.64085
 30
0.0
 11
2.74474
 21
4.60504
 31
0.0
  0
LINE
  8
0
 62
     0
 10
2.74474
 20
4.60504
 30
0.0
 11
2.45697
 21
4.57314
 31
0.0
  0
LINE
  8
0
 62
     0
 10
2.45697
 20
4.57314
 30
0.0
 11
2.20133
 21
4.54514
 31
0.0
  0
LINE
  8
0
 62
     0
 10
2.20133
 20
4.54514
 30
0.0
 11
1.97781
 21
4.52106
 31
0.0
  0
LINE
  8
0
 62
     0
 10
1.97781
 20
4.52106
 30
0.0
 11
1.7864
 21
4.50087
 31
0.0
  0
LINE
  8
0
 62
     0
 10
1.7864
 20
4.50087
 30
0.0
 11
1.62711
 21
4.4846
 31
0.0
  0
LINE
  8
0
 62
     0
 10
1.62711
 20
4.4846
 30
0.0
 11
1.5
 21
4.47222
 31
0.0
  0
LINE
  8
0
 62
     0
 10
1.5
 20
4.47222
 30
0.0
 11
1.26644
 21
4.43229
 31
0.0
  0
LINE
  8
0
 62
     0
 10
1.26644
 20
4.43229
 30
0.0
 11
1.03819
 21
4.36806
 31
0.0
  0
LINE
  8
0
 62
     0
 10
1.03819
 20
4.36806
 30
0.0
 11
0.815104
 21
4.27951
 31
0.0
  0
LINE
  8
0
 62
     0
 10
0.815104
 20
4.27951
 30
0.0
 11
0.597222
 21
4.16667
 31
0.0
  0
LINE
  8
0
 62
     0
 10
0.597222
 20
4.16667
 30
0.0
 11
0.417481
 21
4.03907
 31
0.0
  0
LINE
  8
0
 62
     0
 10
0.417481
 20
4.03907
 30
0.0
 11
0.267307
 21
3.90625
 31
0.0
  0
LINE
  8
0
 62
     0
 10
0.267307
 20
3.90625
 30
0.0
 11
0.146647
 21
3.76824
 31
0.0
  0
LINE
  8
0
 62
     0
 10
0.146647
 20
3.76824
 30
0.0
 11
0.0555556
 21
3.625
 31
0.0
  0
LINE
  8
0
 62
     0
 10
0.0555556
 20
3.625
 30
0.0
 11
0.00260417
 21
3.48699
 31
0.0
  0
LINE
  8
0
 62
     0
 10
0.00260417
 20
3.48699
 30
0.0
 11
-0.00347222
 21
3.36458
 31
0.0
  0
LINE
  8
0
 62
     0
 10
-0.00347222
 20
3.36458
 30
0.0
 11
0.0372721
 21
3.25782
 31
0.0
  0
LINE
  8
0
 62
     0
 10
0.0372721
 20
3.25782
 30
0.0
 11
0.125
 21
3.16667
 31
0.0
  0
LINE
  8
0
 62
     0
 10
0.125
 20
3.16667
 30
0.0
 11
0.282986
 21
3.09201
 31
0.0
  0
LINE
  8
0
 62
     0
 10
0.282986
 20
3.09201
 30
0.0
 11
0.493056
 21
3.04861
 31
0.0
  0
LINE
  8
0
 62
     0
 10
0.493056
 20
3.04861
 30
0.0
 11
0.755154
 21
3.03651
 31
0.0
  0
LINE
  8
0
 62
     0
 10
0.755154
 20
3.03651
 30
0.0
 11
1.06944
 21
3.05556
 31
0.0
  0
LINE
  8
0
 62
     0
 10
1.06944
 20
3.05556
 30
0.0
 11
1.77425
 21
3.13021
 31
0.0
  0
LINE
  8
0
 62
     0
 10
1.77425
 20
3.13021
 30
0.0
 11
2.44439
 21
3.20139
 31
0.0
  0
LINE
  8
0
 62
     0
 10
2.44439
 20
3.20139
 30
0.0
 11
3.07981
 21
3.2691
 31
0.0
  0
LINE
  8
0
 62
     0
 10
3.07981
 20
3.2691
 30
0.0
 11
3.68056
 21
3.33333
 31
0.0
  0
LINE
  8
0
 62
     0
 10
3.68056
 20
3.33333
 30
0.0
 11
3.69444
 21
3.29172
 31
0.0
  0
LINE
  8
0
 62
     0
 10
3.69444
 20
3.29172
 30
0.0
 11
3.70833
 21
3.22222
 31
0.0
  0
LINE
  8
0
 62
     0
 10
3.70833
 20
3.22222
 30
0.0
 11
3.73258
 21
3.15978
 31
0.0
  0
LINE
  8
0
 62
     0
 10
3.73258
 20
3.15978
 30
0.0
 11
3.75
 21
3.11111
 31
0.0
  0
LINE
  8
0
 62
     0
 10
3.75
 20
3.11111
 30
0.0
 11
3.88406
 21
2.77522
 31
0.0
  0
LINE
  8
0
 62
     0
 10
3.88406
 20
2.77522
 30
0.0
 11
4.04318
 21
2.45856
 31
0.0
  0
LINE
  8
0
 62
     0
 10
4.04318
 20
2.45856
 30
0.0
 11
4.22738
 21
2.16108
 31
0.0
  0
LINE
  8
0
 62
     0
 10
4.22738
 20
2.16108
 30
0.0
 11
4.43664
 21
1.88282
 31
0.0
  0
LINE
  8
0
 62
     0
 10
4.43664
 20
1.88282
 30
0.0
 11
4.67096
 21
1.62375
 31
0.0
  0
LINE
  8
0
 62
     0
 10
4.67096
 20
1.62375
 30
0.0
 11
4.93033
 21
1.3839
 31
0.0
  0
LINE
  8
0
 62
     0
 10
4.93033
 20
1.3839
 30
0.0
 11
5.21479
 21
1.16325
 31
0.0
  0
LINE
  8
0
 62
     0
 10
5.21479
 20
1.16325
 30
0.0
 11
5.52431
 21
0.961806
 31
0.0
  0
LINE
  8
0
 62
     0
 10
5.52431
 20
0.961806
 30
0.0
 11
5.85883
 21
0.779622
 31
0.0
  0
LINE
  8
0
 62
     0
 10
5.85883
 20
0.779622
 30
0.0
 11
6.21847
 21
0.61659
 31
0.0
  0
LINE
  8
0
 62
     0
 10
6.21847
 20
0.61659
 30
0.0
 11
6.60319
 21
0.472765
 31
0.0
  0
LINE
  8
0
 62
     0
 10
6.60319
 20
0.472765
 30
0.0
 11
7.01297
 21
0.348144
 31
0.0
  0
LINE
  8
0
 62
     0
 10
7.01297
 20
0.348144
 30
0.0
 11
7.44781
 21
0.242731
 31
0.0
  0
LINE
  8
0
 62
     0
 10
7.44781
 20
0.242731
 30
0.0
 11
7.90771
 21
0.156521
 31
0.0
  0
LINE
  8
0
 62
     0
 10
7.90771
 20
0.156521
 30
0.0
 11
8.39268
 21
0.0895182
 31
0.0
  0
LINE
  8
0
 62
     0
 10
8.39268
 20
0.0895182
 30
0.0
 11
8.90278
 21
0.0416667
 31
0.0
  0
LINE
  8
0
 62
     0
 10
8.90278
 20
0.0416667
 30
0.0
 11
9.61762
 21
0.00651042
 31
0.0
  0
LINE
  8
0
 62
     0
 10
9.61762
 20
0.00651042
 30
0.0
 11
10.3594
 21
0.00520833
 31
0.0
  0
LINE
  8
0
 62
     0
 10
10.3594
 20
0.00520833
 30
0.0
 11
11.128
 21
0.0377604
 31
0.0
  0
LINE
  8
0
 62
     0
 10
11.128
 20
0.0377604
 30
0.0
 11
11.9236
 21
0.104167
 31
0.0
  0
LINE
  8
0
 62
     0
 10
11.9236
 20
0.104167
 30
0.0
 11
12.7461
 21
0.204428
 31
0.0
  0
LINE
  8
0
 62
     0
 10
12.7461
 20
0.204428
 30
0.0
 11
13.5955
 21
0.338542
 31
0.0
  0
LINE
  8
0
 62
     0
 10
13.5955
 20
0.338542
 30
0.0
 11
14.4718
 21
0.506511
 31
0.0
  0
LINE
  8
0
 62
     0
 10
14.4718
 20
0.506511
 30
0.0
 11
15.375
 21
0.708333
 31
0.0
  0
LINE
  8
0
 62
     0
 10
15.375
 20
0.708333
 30
0.0
 11
15.6606
 21
0.800347
 31
0.0
  0
LINE
  8
0
 62
     0
 10
15.6606
 20
0.800347
 30
0.0
 11
15.9063
 21
0.923611
 31
0.0
  0
LINE
  8
0
 62
     0
 10
15.9063
 20
0.923611
 30
0.0
 11
16.1119
 21
1.07818
 31
0.0
  0
LINE
  8
0
 62
     0
 10
16.1119
 20
1.07818
 30
0.0
 11
16.2778
 21
1.26389
 31
0.0
  0
LINE
  8
0
 62
     0
 10
16.2778
 20
1.26389
 30
0.0
 11
16.3801
 21
1.44103
 31
0.0
  0
LINE
  8
0
 62
     0
 10
16.3801
 20
1.44103
 30
0.0
 11
16.4375
 21
1.62506
 31
0.0
  0
LINE
  8
0
 62
     0
 10
16.4375
 20
1.62506
 30
0.0
 11
16.4496
 21
1.81603
 31
0.0
  0
LINE
  8
0
 62
     0
 10
16.4496
 20
1.81603
 30
0.0
 11
16.4167
 21
2.01389
 31
0.0
  0
LINE
  8
0
 62
     0
 10
16.4167
 20
2.01389
 30
0.0
 11
16.3429
 21
2.20313
 31
0.0
  0
LINE
  8
0
 62
     0
 10
16.3429
 20
2.20313
 30
0.0
 11
16.2326
 21
2.36806
 31
0.0
  0
LINE
  8
0
 62
     0
 10
16.2326
 20
2.36806
 30
0.0
 11
16.0858
 21
2.50868
 31
0.0
  0
LINE
  8
0
 62
     0
 10
16.0858
 20
2.50868
 30
0.0
 11
15.9028
 21
2.625
 31
0.0
  0
LINE
  8
0
 62
     0
 10
15.9028
 20
2.625
 30
0.0
 11
15.6693
 21
2.71272
 31
0.0
  0
LINE
  8
0
 62
     0
 10
15.6693
 20
2.71272
 30
0.0
 11
15.4132
 21
2.75353
 31
0.0
  0
LINE
  8
0
 62
     0
 10
15.4132
 20
2.75353
 30
0.0
 11
15.1346
 21
2.74744
 31
0.0
  0
LINE
  8
0
 62
     0
 10
15.1346
 20
2.74744
 30
0.0
 11
14.8333
 21
2.69444
 31
0.0
  0
LINE
  8
0
 62
     0
 10
14.8333
 20
2.69444
 30
0.0
 11
14.1192
 21
2.53381
 31
0.0
  0
LINE
  8
0
 62
     0
 10
14.1192
 20
2.53381
 30
0.0
 11
13.4351
 21
2.39908
 31
0.0
  0
LINE
  8
0
 62
     0
 10
13.4351
 20
2.39908
 30
0.0
 11
12.781
 21
2.29031
 31
0.0
  0
LINE
  8
0
 62
     0
 10
12.781
 20
2.29031
 30
0.0
 11
12.1571
 21
2.20747
 31
0.0
  0
LINE
  8
0
 62
     0
 10
12.1571
 20
2.20747
 30
0.0
 11
11.5632
 21
2.15056
 31
0.0
  0
LINE
  8
0
 62
     0
 10
11.5632
 20
2.15056
 30
0.0
 11
10.9993
 21
2.11957
 31
0.0
  0
LINE
  8
0
 62
     0
 10
10.9993
 20
2.11957
 30
0.0
 11
10.4655
 21
2.11453
 31
0.0
  0
LINE
  8
0
 62
     0
 10
10.4655
 20
2.11453
 30
0.0
 11
9.96175
 21
2.13542
 31
0.0
  0
LINE
  8
0
 62
     0
 10
9.96175
 20
2.13542
 30
0.0
 11
9.48807
 21
2.18224
 31
0.0
  0
LINE
  8
0
 62
     0
 10
9.48807
 20
2.18224
 30
0.0
 11
9.04443
 21
2.25499
 31
0.0
  0
LINE
  8
0
 62
     0
 10
9.04443
 20
2.25499
 30
0.0
 11
8.63086
 21
2.35368
 31
0.0
  0
LINE
  8
0
 62
     0
 10
8.63086
 20
2.35368
 30
0.0
 11
8.24735
 21
2.47831
 31
0.0
  0
LINE
  8
0
 62
     0
 10
8.24735
 20
2.47831
 30
0.0
 11
7.89388
 21
2.62885
 31
0.0
  0
LINE
  8
0
 62
     0
 10
7.89388
 20
2.62885
 30
0.0
 11
7.57047
 21
2.80533
 31
0.0
  0
LINE
  8
0
 62
     0
 10
7.57047
 20
2.80533
 30
0.0
 11
7.27713
 21
3.00776
 31
0.0
  0
LINE
  8
0
 62
     0
 10
7.27713
 20
3.00776
 30
0.0
 11
7.01389
 21
3.23611
 31
0.0
  0
ENDSEC
  0
EOF
