  0
SECTION
  2
HEADER
  9
$ACADVER
  1
AC1009
  9
$EXTMIN
 10
0.0
 20
0.0
 30
0.0
  9
$EXTMAX
 10
1000.0
 20
1000.0
 30
0.0
  9
$FILLMODE
 70
 0
  9
$SPLFRAME
 70
 1
  0
ENDSEC
  0
SECTION
  2
TABLES
  0
TABLE
  2
LAYER
 70
1
  0
LAYER
  2
0
 70
     0
 62
     7
  6
CONTINUOUS
  0
ENDTAB
  0
ENDSEC
  0
SECTION
  2
ENTITIES
  0
LINE
  8
0
 62
     0
 10
11.4306
 20
9.26389
 30
0.0
 11
11.1714
 21
8.53049
 31
0.0
  0
LINE
  8
0
 62
     0
 10
11.1714
 20
8.53049
 30
0.0
 11
10.929
 21
7.84418
 31
0.0
  0
LINE
  8
0
 62
     0
 10
10.929
 20
7.84418
 30
0.0
 11
10.7031
 21
7.20497
 31
0.0
  0
LINE
  8
0
 62
     0
 10
10.7031
 20
7.20497
 30
0.0
 11
10.4939
 21
6.61285
 31
0.0
  0
LINE
  8
0
 62
     0
 10
10.4939
 20
6.61285
 30
0.0
 11
10.3012
 21
6.06782
 31
0.0
  0
LINE
  8
0
 62
     0
 10
10.3012
 20
6.06782
 30
0.0
 11
10.1252
 21
5.56988
 31
0.0
  0
LINE
  8
0
 62
     0
 10
10.1252
 20
5.56988
 30
0.0
 11
9.96571
 21
5.11903
 31
0.0
  0
LINE
  8
0
 62
     0
 10
9.96571
 20
5.11903
 30
0.0
 11
9.82292
 21
4.71528
 31
0.0
  0
LINE
  8
0
 62
     0
 10
9.82292
 20
4.71528
 30
0.0
 11
9.69667
 21
4.35861
 31
0.0
  0
LINE
  8
0
 62
     0
 10
9.69667
 20
4.35861
 30
0.0
 11
9.58703
 21
4.04904
 31
0.0
  0
LINE
  8
0
 62
     0
 10
9.58703
 20
4.04904
 30
0.0
 11
9.49397
 21
3.78657
 31
0.0
  0
LINE
  8
0
 62
     0
 10
9.49397
 20
3.78657
 30
0.0
 11
9.41754
 21
3.57118
 31
0.0
  0
LINE
  8
0
 62
     0
 10
9.41754
 20
3.57118
 30
0.0
 11
9.35769
 21
3.40289
 31
0.0
  0
LINE
  8
0
 62
     0
 10
9.35769
 20
3.40289
 30
0.0
 11
9.31446
 21
3.28168
 31
0.0
  0
LINE
  8
0
 62
     0
 10
9.31446
 20
3.28168
 30
0.0
 11
9.28782
 21
3.20757
 31
0.0
  0
LINE
  8
0
 62
     0
 10
9.28782
 20
3.20757
 30
0.0
 11
9.27778
 21
3.18056
 31
0.0
  0
LINE
  8
0
 62
     0
 10
9.27778
 20
3.18056
 30
0.0
 11
8.91531
 21
3.99197
 31
0.0
  0
LINE
  8
0
 62
     0
 10
8.91531
 20
3.99197
 30
0.0
 11
8.5364
 21
4.86372
 31
0.0
  0
LINE
  8
0
 62
     0
 10
8.5364
 20
4.86372
 30
0.0
 11
8.141
 21
5.79579
 31
0.0
  0
LINE
  8
0
 62
     0
 10
8.141
 20
5.79579
 30
0.0
 11
7.72911
 21
6.78819
 31
0.0
  0
LINE
  8
0
 62
     0
 10
7.72911
 20
6.78819
 30
0.0
 11
7.30072
 21
7.84093
 31
0.0
  0
LINE
  8
0
 62
     0
 10
7.30072
 20
7.84093
 30
0.0
 11
6.85585
 21
8.954
 31
0.0
  0
LINE
  8
0
 62
     0
 10
6.85585
 20
8.954
 30
0.0
 11
6.39447
 21
10.1274
 31
0.0
  0
LINE
  8
0
 62
     0
 10
6.39447
 20
10.1274
 30
0.0
 11
5.91667
 21
11.3611
 31
0.0
  0
LINE
  8
0
 62
     0
 10
5.91667
 20
11.3611
 30
0.0
 11
5.59483
 21
12.1958
 31
0.0
  0
LINE
  8
0
 62
     0
 10
5.59483
 20
12.1958
 30
0.0
 11
5.28922
 21
12.9877
 31
0.0
  0
LINE
  8
0
 62
     0
 10
5.28922
 20
12.9877
 30
0.0
 11
4.99978
 21
13.737
 31
0.0
  0
LINE
  8
0
 62
     0
 10
4.99978
 20
13.737
 30
0.0
 11
4.72651
 21
14.4436
 31
0.0
  0
LINE
  8
0
 62
     0
 10
4.72651
 20
14.4436
 30
0.0
 11
4.4694
 21
15.1076
 31
0.0
  0
LINE
  8
0
 62
     0
 10
4.4694
 20
15.1076
 30
0.0
 11
4.22846
 21
15.729
 31
0.0
  0
LINE
  8
0
 62
     0
 10
4.22846
 20
15.729
 30
0.0
 11
4.00369
 21
16.3078
 31
0.0
  0
LINE
  8
0
 62
     0
 10
4.00369
 20
16.3078
 30
0.0
 11
3.79508
 21
16.8438
 31
0.0
  0
LINE
  8
0
 62
     0
 10
3.79508
 20
16.8438
 30
0.0
 11
3.60265
 21
17.3372
 31
0.0
  0
LINE
  8
0
 62
     0
 10
3.60265
 20
17.3372
 30
0.0
 11
3.42638
 21
17.7879
 31
0.0
  0
LINE
  8
0
 62
     0
 10
3.42638
 20
17.7879
 30
0.0
 11
3.26628
 21
18.1961
 31
0.0
  0
LINE
  8
0
 62
     0
 10
3.26628
 20
18.1961
 30
0.0
 11
3.12235
 21
18.5617
 31
0.0
  0
LINE
  8
0
 62
     0
 10
3.12235
 20
18.5617
 30
0.0
 11
2.99457
 21
18.8844
 31
0.0
  0
LINE
  8
0
 62
     0
 10
2.99457
 20
18.8844
 30
0.0
 11
2.88297
 21
19.1647
 31
0.0
  0
LINE
  8
0
 62
     0
 10
2.88297
 20
19.1647
 30
0.0
 11
2.78754
 21
19.4022
 31
0.0
  0
LINE
  8
0
 62
     0
 10
2.78754
 20
19.4022
 30
0.0
 11
2.70833
 21
19.5972
 31
0.0
  0
LINE
  8
0
 62
     0
 10
2.70833
 20
19.5972
 30
0.0
 11
2.63867
 21
19.7083
 31
0.0
  0
LINE
  8
0
 62
     0
 10
2.63867
 20
19.7083
 30
0.0
 11
2.53386
 21
19.7917
 31
0.0
  0
LINE
  8
0
 62
     0
 10
2.53386
 20
19.7917
 30
0.0
 11
2.39387
 21
19.8472
 31
0.0
  0
LINE
  8
0
 62
     0
 10
2.39387
 20
19.8472
 30
0.0
 11
2.21875
 21
19.875
 31
0.0
  0
LINE
  8
0
 62
     0
 10
2.21875
 20
19.875
 30
0.0
 11
2.00846
 21
19.875
 31
0.0
  0
LINE
  8
0
 62
     0
 10
2.00846
 20
19.875
 30
0.0
 11
1.76303
 21
19.8472
 31
0.0
  0
LINE
  8
0
 62
     0
 10
1.76303
 20
19.8472
 30
0.0
 11
1.48242
 21
19.7917
 31
0.0
  0
LINE
  8
0
 62
     0
 10
1.48242
 20
19.7917
 30
0.0
 11
1.16667
 21
19.7083
 31
0.0
  0
LINE
  8
0
 62
     0
 10
1.16667
 20
19.7083
 30
0.0
 11
0.914063
 21
19.6215
 31
0.0
  0
LINE
  8
0
 62
     0
 10
0.914063
 20
19.6215
 30
0.0
 11
0.684028
 21
19.5278
 31
0.0
  0
LINE
  8
0
 62
     0
 10
0.684028
 20
19.5278
 30
0.0
 11
0.476563
 21
19.4271
 31
0.0
  0
LINE
  8
0
 62
     0
 10
0.476563
 20
19.4271
 30
0.0
 11
0.291667
 21
19.3194
 31
0.0
  0
LINE
  8
0
 62
     0
 10
0.291667
 20
19.3194
 30
0.0
 11
0.138889
 21
19.1979
 31
0.0
  0
LINE
  8
0
 62
     0
 10
0.138889
 20
19.1979
 30
0.0
 11
0.0416667
 21
19.0833
 31
0.0
  0
LINE
  8
0
 62
     0
 10
0.0416667
 20
19.0833
 30
0.0
 11
0
 21
18.9757
 31
0.0
  0
LINE
  8
0
 62
     0
 10
0
 20
18.9757
 30
0.0
 11
0.0138889
 21
18.875
 31
0.0
  0
LINE
  8
0
 62
     0
 10
0.0138889
 20
18.875
 30
0.0
 11
0.477974
 21
17.7392
 31
0.0
  0
LINE
  8
0
 62
     0
 10
0.477974
 20
17.7392
 30
0.0
 11
0.927626
 21
16.6389
 31
0.0
  0
LINE
  8
0
 62
     0
 10
0.927626
 20
16.6389
 30
0.0
 11
1.36274
 21
15.5742
 31
0.0
  0
LINE
  8
0
 62
     0
 10
1.36274
 20
15.5742
 30
0.0
 11
1.78342
 21
14.5449
 31
0.0
  0
LINE
  8
0
 62
     0
 10
1.78342
 20
14.5449
 30
0.0
 11
2.18956
 21
13.5513
 31
0.0
  0
LINE
  8
0
 62
     0
 10
2.18956
 20
13.5513
 30
0.0
 11
2.58128
 21
12.5933
 31
0.0
  0
LINE
  8
0
 62
     0
 10
2.58128
 20
12.5933
 30
0.0
 11
2.95844
 21
11.6708
 31
0.0
  0
LINE
  8
0
 62
     0
 10
2.95844
 20
11.6708
 30
0.0
 11
3.32118
 21
10.7839
 31
0.0
  0
LINE
  8
0
 62
     0
 10
3.32118
 20
10.7839
 30
0.0
 11
3.66938
 21
9.93251
 31
0.0
  0
LINE
  8
0
 62
     0
 10
3.66938
 20
9.93251
 30
0.0
 11
4.00315
 21
9.11669
 31
0.0
  0
LINE
  8
0
 62
     0
 10
4.00315
 20
9.11669
 30
0.0
 11
4.32238
 21
8.33649
 31
0.0
  0
LINE
  8
0
 62
     0
 10
4.32238
 20
8.33649
 30
0.0
 11
4.62717
 21
7.59179
 31
0.0
  0
LINE
  8
0
 62
     0
 10
4.62717
 20
7.59179
 30
0.0
 11
4.91743
 21
6.88271
 31
0.0
  0
LINE
  8
0
 62
     0
 10
4.91743
 20
6.88271
 30
0.0
 11
5.19325
 21
6.20915
 31
0.0
  0
LINE
  8
0
 62
     0
 10
5.19325
 20
6.20915
 30
0.0
 11
5.45454
 21
5.57118
 31
0.0
  0
LINE
  8
0
 62
     0
 10
5.45454
 20
5.57118
 30
0.0
 11
5.70139
 21
4.96875
 31
0.0
  0
LINE
  8
0
 62
     0
 10
5.70139
 20
4.96875
 30
0.0
 11
5.93371
 21
4.40192
 31
0.0
  0
LINE
  8
0
 62
     0
 10
5.93371
 20
4.40192
 30
0.0
 11
6.15158
 21
3.87061
 31
0.0
  0
LINE
  8
0
 62
     0
 10
6.15158
 20
3.87061
 30
0.0
 11
6.35493
 21
3.37489
 31
0.0
  0
LINE
  8
0
 62
     0
 10
6.35493
 20
3.37489
 30
0.0
 11
6.54383
 21
2.91471
 31
0.0
  0
LINE
  8
0
 62
     0
 10
6.54383
 20
2.91471
 30
0.0
 11
6.71821
 21
2.49013
 31
0.0
  0
LINE
  8
0
 62
     0
 10
6.71821
 20
2.49013
 30
0.0
 11
6.87815
 21
2.10107
 31
0.0
  0
LINE
  8
0
 62
     0
 10
6.87815
 20
2.10107
 30
0.0
 11
7.02354
 21
1.74761
 31
0.0
  0
LINE
  8
0
 62
     0
 10
7.02354
 20
1.74761
 30
0.0
 11
7.15451
 21
1.42969
 31
0.0
  0
LINE
  8
0
 62
     0
 10
7.15451
 20
1.42969
 30
0.0
 11
7.27094
 21
1.14735
 31
0.0
  0
LINE
  8
0
 62
     0
 10
7.27094
 20
1.14735
 30
0.0
 11
7.37294
 21
0.900553
 31
0.0
  0
LINE
  8
0
 62
     0
 10
7.37294
 20
0.900553
 30
0.0
 11
7.46039
 21
0.689344
 31
0.0
  0
LINE
  8
0
 62
     0
 10
7.46039
 20
0.689344
 30
0.0
 11
7.53342
 21
0.513672
 31
0.0
  0
LINE
  8
0
 62
     0
 10
7.53342
 20
0.513672
 30
0.0
 11
7.5919
 21
0.373589
 31
0.0
  0
LINE
  8
0
 62
     0
 10
7.5919
 20
0.373589
 30
0.0
 11
7.63596
 21
0.269043
 31
0.0
  0
LINE
  8
0
 62
     0
 10
7.63596
 20
0.269043
 30
0.0
 11
7.66547
 21
0.200087
 31
0.0
  0
LINE
  8
0
 62
     0
 10
7.66547
 20
0.200087
 30
0.0
 11
7.68056
 21
0.166667
 31
0.0
  0
LINE
  8
0
 62
     0
 10
7.68056
 20
0.166667
 30
0.0
 11
7.75651
 21
0.0516493
 31
0.0
  0
LINE
  8
0
 62
     0
 10
7.75651
 20
0.0516493
 30
0.0
 11
7.85938
 21
-0.0364583
 31
0.0
  0
LINE
  8
0
 62
     0
 10
7.85938
 20
-0.0364583
 30
0.0
 11
7.98915
 21
-0.0976563
 31
0.0
  0
LINE
  8
0
 62
     0
 10
7.98915
 20
-0.0976563
 30
0.0
 11
8.14583
 21
-0.131944
 31
0.0
  0
LINE
  8
0
 62
     0
 10
8.14583
 20
-0.131944
 30
0.0
 11
8.32943
 21
-0.139324
 31
0.0
  0
LINE
  8
0
 62
     0
 10
8.32943
 20
-0.139324
 30
0.0
 11
8.53993
 21
-0.119792
 31
0.0
  0
LINE
  8
0
 62
     0
 10
8.53993
 20
-0.119792
 30
0.0
 11
8.77735
 21
-0.0733507
 31
0.0
  0
LINE
  8
0
 62
     0
 10
8.77735
 20
-0.0733507
 30
0.0
 11
9.04167
 21
-0
 31
0.0
  0
LINE
  8
0
 62
     0
 10
9.04167
 20
-0
 30
0.0
 11
9.50435
 21
0.166667
 31
0.0
  0
LINE
  8
0
 62
     0
 10
9.50435
 20
0.166667
 30
0.0
 11
9.87847
 21
0.347222
 31
0.0
  0
LINE
  8
0
 62
     0
 10
9.87847
 20
0.347222
 30
0.0
 11
10.1641
 21
0.541667
 31
0.0
  0
LINE
  8
0
 62
     0
 10
10.1641
 20
0.541667
 30
0.0
 11
10.3611
 21
0.75
 31
0.0
  0
LINE
  8
0
 62
     0
 10
10.3611
 20
0.75
 30
0.0
 11
10.6158
 21
1.11871
 31
0.0
  0
LINE
  8
0
 62
     0
 10
10.6158
 20
1.11871
 30
0.0
 11
10.8663
 21
1.5165
 31
0.0
  0
LINE
  8
0
 62
     0
 10
10.8663
 20
1.5165
 30
0.0
 11
11.1124
 21
1.94336
 31
0.0
  0
LINE
  8
0
 62
     0
 10
11.1124
 20
1.94336
 30
0.0
 11
11.3541
 21
2.39931
 31
0.0
  0
LINE
  8
0
 62
     0
 10
11.3541
 20
2.39931
 30
0.0
 11
11.5915
 21
2.88433
 31
0.0
  0
LINE
  8
0
 62
     0
 10
11.5915
 20
2.88433
 30
0.0
 11
11.8246
 21
3.39844
 31
0.0
  0
LINE
  8
0
 62
     0
 10
11.8246
 20
3.39844
 30
0.0
 11
12.0533
 21
3.94162
 31
0.0
  0
LINE
  8
0
 62
     0
 10
12.0533
 20
3.94162
 30
0.0
 11
12.2778
 21
4.51389
 31
0.0
  0
LINE
  8
0
 62
     0
 10
12.2778
 20
4.51389
 30
0.0
 11
12.4262
 21
4.92193
 31
0.0
  0
LINE
  8
0
 62
     0
 10
12.4262
 20
4.92193
 30
0.0
 11
12.5937
 21
5.39589
 31
0.0
  0
LINE
  8
0
 62
     0
 10
12.5937
 20
5.39589
 30
0.0
 11
12.7803
 21
5.93582
 31
0.0
  0
LINE
  8
0
 62
     0
 10
12.7803
 20
5.93582
 30
0.0
 11
12.9861
 21
6.54167
 31
0.0
  0
LINE
  8
0
 62
     0
 10
12.9861
 20
6.54167
 30
0.0
 11
13.1061
 21
6.90088
 31
0.0
  0
LINE
  8
0
 62
     0
 10
13.1061
 20
6.90088
 30
0.0
 11
13.2161
 21
7.22835
 31
0.0
  0
LINE
  8
0
 62
     0
 10
13.2161
 20
7.22835
 30
0.0
 11
13.3161
 21
7.52414
 31
0.0
  0
LINE
  8
0
 62
     0
 10
13.3161
 20
7.52414
 30
0.0
 11
13.4062
 21
7.78825
 31
0.0
  0
LINE
  8
0
 62
     0
 10
13.4062
 20
7.78825
 30
0.0
 11
13.4863
 21
8.02067
 31
0.0
  0
LINE
  8
0
 62
     0
 10
13.4863
 20
8.02067
 30
0.0
 11
13.5564
 21
8.2214
 31
0.0
  0
LINE
  8
0
 62
     0
 10
13.5564
 20
8.2214
 30
0.0
 11
13.6165
 21
8.39046
 31
0.0
  0
LINE
  8
0
 62
     0
 10
13.6165
 20
8.39046
 30
0.0
 11
13.6667
 21
8.52778
 31
0.0
  0
LINE
  8
0
 62
     0
 10
13.6667
 20
8.52778
 30
0.0
 11
14.0099
 21
9.48107
 31
0.0
  0
LINE
  8
0
 62
     0
 10
14.0099
 20
9.48107
 30
0.0
 11
14.3419
 21
10.3965
 31
0.0
  0
LINE
  8
0
 62
     0
 10
14.3419
 20
10.3965
 30
0.0
 11
14.6626
 21
11.274
 31
0.0
  0
LINE
  8
0
 62
     0
 10
14.6626
 20
11.274
 30
0.0
 11
14.9722
 21
12.1137
 31
0.0
  0
LINE
  8
0
 62
     0
 10
14.9722
 20
12.1137
 30
0.0
 11
15.2703
 21
12.9155
 31
0.0
  0
LINE
  8
0
 62
     0
 10
15.2703
 20
12.9155
 30
0.0
 11
15.5572
 21
13.6795
 31
0.0
  0
LINE
  8
0
 62
     0
 10
15.5572
 20
13.6795
 30
0.0
 11
15.8328
 21
14.4056
 31
0.0
  0
LINE
  8
0
 62
     0
 10
15.8328
 20
14.4056
 30
0.0
 11
16.0972
 21
15.0938
 31
0.0
  0
LINE
  8
0
 62
     0
 10
16.0972
 20
15.0938
 30
0.0
 11
16.3501
 21
15.744
 31
0.0
  0
LINE
  8
0
 62
     0
 10
16.3501
 20
15.744
 30
0.0
 11
16.5919
 21
16.3565
 31
0.0
  0
LINE
  8
0
 62
     0
 10
16.5919
 20
16.3565
 30
0.0
 11
16.8224
 21
16.9311
 31
0.0
  0
LINE
  8
0
 62
     0
 10
16.8224
 20
16.9311
 30
0.0
 11
17.0417
 21
17.4679
 31
0.0
  0
LINE
  8
0
 62
     0
 10
17.0417
 20
17.4679
 30
0.0
 11
17.2494
 21
17.9668
 31
0.0
  0
LINE
  8
0
 62
     0
 10
17.2494
 20
17.9668
 30
0.0
 11
17.4461
 21
18.4278
 31
0.0
  0
LINE
  8
0
 62
     0
 10
17.4461
 20
18.4278
 30
0.0
 11
17.6314
 21
18.8508
 31
0.0
  0
LINE
  8
0
 62
     0
 10
17.6314
 20
18.8508
 30
0.0
 11
17.8056
 21
19.2361
 31
0.0
  0
LINE
  8
0
 62
     0
 10
17.8056
 20
19.2361
 30
0.0
 11
17.8139
 21
19.3135
 31
0.0
  0
LINE
  8
0
 62
     0
 10
17.8139
 20
19.3135
 30
0.0
 11
17.7704
 21
19.3785
 31
0.0
  0
LINE
  8
0
 62
     0
 10
17.7704
 20
19.3785
 30
0.0
 11
17.675
 21
19.4315
 31
0.0
  0
LINE
  8
0
 62
     0
 10
17.675
 20
19.4315
 30
0.0
 11
17.5278
 21
19.4722
 31
0.0
  0
LINE
  8
0
 62
     0
 10
17.5278
 20
19.4722
 30
0.0
 11
17.3499
 21
19.4922
 31
0.0
  0
LINE
  8
0
 62
     0
 10
17.3499
 20
19.4922
 30
0.0
 11
17.1493
 21
19.4965
 31
0.0
  0
LINE
  8
0
 62
     0
 10
17.1493
 20
19.4965
 30
0.0
 11
16.9262
 21
19.4853
 31
0.0
  0
LINE
  8
0
 62
     0
 10
16.9262
 20
19.4853
 30
0.0
 11
16.6806
 21
19.4583
 31
0.0
  0
LINE
  8
0
 62
     0
 10
16.6806
 20
19.4583
 30
0.0
 11
16.3708
 21
19.4082
 31
0.0
  0
LINE
  8
0
 62
     0
 10
16.3708
 20
19.4082
 30
0.0
 11
16.0946
 21
19.3481
 31
0.0
  0
LINE
  8
0
 62
     0
 10
16.0946
 20
19.3481
 30
0.0
 11
15.8517
 21
19.2781
 31
0.0
  0
LINE
  8
0
 62
     0
 10
15.8517
 20
19.2781
 30
0.0
 11
15.6424
 21
19.1979
 31
0.0
  0
LINE
  8
0
 62
     0
 10
15.6424
 20
19.1979
 30
0.0
 11
15.4662
 21
19.1079
 31
0.0
  0
LINE
  8
0
 62
     0
 10
15.4662
 20
19.1079
 30
0.0
 11
15.3238
 21
19.0078
 31
0.0
  0
LINE
  8
0
 62
     0
 10
15.3238
 20
19.0078
 30
0.0
 11
15.2146
 21
18.8978
 31
0.0
  0
LINE
  8
0
 62
     0
 10
15.2146
 20
18.8978
 30
0.0
 11
15.1389
 21
18.7778
 31
0.0
  0
LINE
  8
0
 62
     0
 10
15.1389
 20
18.7778
 30
0.0
 11
14.7406
 21
17.8878
 31
0.0
  0
LINE
  8
0
 62
     0
 10
14.7406
 20
17.8878
 30
0.0
 11
14.3238
 21
16.9124
 31
0.0
  0
LINE
  8
0
 62
     0
 10
14.3238
 20
16.9124
 30
0.0
 11
13.8882
 21
15.8514
 31
0.0
  0
LINE
  8
0
 62
     0
 10
13.8882
 20
15.8514
 30
0.0
 11
13.434
 21
14.7049
 31
0.0
  0
LINE
  8
0
 62
     0
 10
13.434
 20
14.7049
 30
0.0
 11
12.9611
 21
13.4729
 31
0.0
  0
LINE
  8
0
 62
     0
 10
12.9611
 20
13.4729
 30
0.0
 11
12.4696
 21
12.1554
 31
0.0
  0
LINE
  8
0
 62
     0
 10
12.4696
 20
12.1554
 30
0.0
 11
11.9594
 21
10.7524
 31
0.0
  0
LINE
  8
0
 62
     0
 10
11.9594
 20
10.7524
 30
0.0
 11
11.4306
 21
9.26389
 31
0.0
  0
ENDSEC
  0
EOF
