  0
SECTION
  2
HEADER
  9
$ACADVER
  1
AC1009
  9
$EXTMIN
 10
0.0
 20
0.0
 30
0.0
  9
$EXTMAX
 10
1000.0
 20
1000.0
 30
0.0
  9
$FILLMODE
 70
 0
  9
$SPLFRAME
 70
 1
  0
ENDSEC
  0
SECTION
  2
TABLES
  0
TABLE
  2
LAYER
 70
1
  0
LAYER
  2
0
 70
     0
 62
     7
  6
CONTINUOUS
  0
ENDTAB
  0
ENDSEC
  0
SECTION
  2
ENTITIES
  0
LINE
  8
0
 62
     0
 10
25.0556
 20
12.9583
 30
0.0
 11
24.8094
 21
12.5931
 31
0.0
  0
LINE
  8
0
 62
     0
 10
24.8094
 20
12.5931
 30
0.0
 11
24.5504
 21
12.1849
 31
0.0
  0
LINE
  8
0
 62
     0
 10
24.5504
 20
12.1849
 30
0.0
 11
24.2782
 21
11.7337
 31
0.0
  0
LINE
  8
0
 62
     0
 10
24.2782
 20
11.7337
 30
0.0
 11
23.9931
 21
11.2396
 31
0.0
  0
LINE
  8
0
 62
     0
 10
23.9931
 20
11.2396
 30
0.0
 11
23.6949
 21
10.7025
 31
0.0
  0
LINE
  8
0
 62
     0
 10
23.6949
 20
10.7025
 30
0.0
 11
23.3838
 21
10.1224
 31
0.0
  0
LINE
  8
0
 62
     0
 10
23.3838
 20
10.1224
 30
0.0
 11
23.0594
 21
9.49935
 31
0.0
  0
LINE
  8
0
 62
     0
 10
23.0594
 20
9.49935
 30
0.0
 11
22.7222
 21
8.83333
 31
0.0
  0
LINE
  8
0
 62
     0
 10
22.7222
 20
8.83333
 30
0.0
 11
22.6722
 21
8.73112
 31
0.0
  0
LINE
  8
0
 62
     0
 10
22.6722
 20
8.73112
 30
0.0
 11
22.6058
 21
8.57726
 31
0.0
  0
LINE
  8
0
 62
     0
 10
22.6058
 20
8.57726
 30
0.0
 11
22.5229
 21
8.37175
 31
0.0
  0
LINE
  8
0
 62
     0
 10
22.5229
 20
8.37175
 30
0.0
 11
22.4236
 21
8.11458
 31
0.0
  0
LINE
  8
0
 62
     0
 10
22.4236
 20
8.11458
 30
0.0
 11
22.3076
 21
7.80578
 31
0.0
  0
LINE
  8
0
 62
     0
 10
22.3076
 20
7.80578
 30
0.0
 11
22.1753
 21
7.44532
 31
0.0
  0
LINE
  8
0
 62
     0
 10
22.1753
 20
7.44532
 30
0.0
 11
22.0264
 21
7.03321
 31
0.0
  0
LINE
  8
0
 62
     0
 10
22.0264
 20
7.03321
 30
0.0
 11
21.8611
 21
6.56944
 31
0.0
  0
LINE
  8
0
 62
     0
 10
21.8611
 20
6.56944
 30
0.0
 11
21.4826
 21
7.08074
 31
0.0
  0
LINE
  8
0
 62
     0
 10
21.4826
 20
7.08074
 30
0.0
 11
21.0903
 21
7.62153
 31
0.0
  0
LINE
  8
0
 62
     0
 10
21.0903
 20
7.62153
 30
0.0
 11
20.684
 21
8.19185
 31
0.0
  0
LINE
  8
0
 62
     0
 10
20.684
 20
8.19185
 30
0.0
 11
20.2639
 21
8.79167
 31
0.0
  0
LINE
  8
0
 62
     0
 10
20.2639
 20
8.79167
 30
0.0
 11
19.8299
 21
9.42101
 31
0.0
  0
LINE
  8
0
 62
     0
 10
19.8299
 20
9.42101
 30
0.0
 11
19.3819
 21
10.0799
 31
0.0
  0
LINE
  8
0
 62
     0
 10
19.3819
 20
10.0799
 30
0.0
 11
18.9201
 21
10.7682
 31
0.0
  0
LINE
  8
0
 62
     0
 10
18.9201
 20
10.7682
 30
0.0
 11
18.4444
 21
11.4861
 31
0.0
  0
LINE
  8
0
 62
     0
 10
18.4444
 20
11.4861
 30
0.0
 11
18.6792
 21
11.9408
 31
0.0
  0
LINE
  8
0
 62
     0
 10
18.6792
 20
11.9408
 30
0.0
 11
18.9217
 21
12.374
 31
0.0
  0
LINE
  8
0
 62
     0
 10
18.9217
 20
12.374
 30
0.0
 11
19.1718
 21
12.7858
 31
0.0
  0
LINE
  8
0
 62
     0
 10
19.1718
 20
12.7858
 30
0.0
 11
19.4297
 21
13.1763
 31
0.0
  0
LINE
  8
0
 62
     0
 10
19.4297
 20
13.1763
 30
0.0
 11
19.6953
 21
13.5454
 31
0.0
  0
LINE
  8
0
 62
     0
 10
19.6953
 20
13.5454
 30
0.0
 11
19.9685
 21
13.8931
 31
0.0
  0
LINE
  8
0
 62
     0
 10
19.9685
 20
13.8931
 30
0.0
 11
20.2494
 21
14.2194
 31
0.0
  0
LINE
  8
0
 62
     0
 10
20.2494
 20
14.2194
 30
0.0
 11
20.5382
 21
14.5243
 31
0.0
  0
LINE
  8
0
 62
     0
 10
20.5382
 20
14.5243
 30
0.0
 11
20.8346
 21
14.8079
 31
0.0
  0
LINE
  8
0
 62
     0
 10
20.8346
 20
14.8079
 30
0.0
 11
21.1386
 21
15.0701
 31
0.0
  0
LINE
  8
0
 62
     0
 10
21.1386
 20
15.0701
 30
0.0
 11
21.4504
 21
15.311
 31
0.0
  0
LINE
  8
0
 62
     0
 10
21.4504
 20
15.311
 30
0.0
 11
21.77
 21
15.5304
 31
0.0
  0
LINE
  8
0
 62
     0
 10
21.77
 20
15.5304
 30
0.0
 11
22.0972
 21
15.7285
 31
0.0
  0
LINE
  8
0
 62
     0
 10
22.0972
 20
15.7285
 30
0.0
 11
22.4321
 21
15.9053
 31
0.0
  0
LINE
  8
0
 62
     0
 10
22.4321
 20
15.9053
 30
0.0
 11
22.7747
 21
16.0606
 31
0.0
  0
LINE
  8
0
 62
     0
 10
22.7747
 20
16.0606
 30
0.0
 11
23.125
 21
16.1944
 31
0.0
  0
LINE
  8
0
 62
     0
 10
23.125
 20
16.1944
 30
0.0
 11
23.4696
 21
16.3264
 31
0.0
  0
LINE
  8
0
 62
     0
 10
23.4696
 20
16.3264
 30
0.0
 11
23.7396
 21
16.4583
 31
0.0
  0
LINE
  8
0
 62
     0
 10
23.7396
 20
16.4583
 30
0.0
 11
23.9349
 21
16.5903
 31
0.0
  0
LINE
  8
0
 62
     0
 10
23.9349
 20
16.5903
 30
0.0
 11
24.0556
 21
16.7222
 31
0.0
  0
LINE
  8
0
 62
     0
 10
24.0556
 20
16.7222
 30
0.0
 11
24.0894
 21
16.836
 31
0.0
  0
LINE
  8
0
 62
     0
 10
24.0894
 20
16.836
 30
0.0
 11
24.066
 21
16.941
 31
0.0
  0
LINE
  8
0
 62
     0
 10
24.066
 20
16.941
 30
0.0
 11
23.9853
 21
17.0374
 31
0.0
  0
LINE
  8
0
 62
     0
 10
23.9853
 20
17.0374
 30
0.0
 11
23.8472
 21
17.125
 31
0.0
  0
LINE
  8
0
 62
     0
 10
23.8472
 20
17.125
 30
0.0
 11
23.6414
 21
17.2103
 31
0.0
  0
LINE
  8
0
 62
     0
 10
23.6414
 20
17.2103
 30
0.0
 11
23.4271
 21
17.2718
 31
0.0
  0
LINE
  8
0
 62
     0
 10
23.4271
 20
17.2718
 30
0.0
 11
23.2039
 21
17.3093
 31
0.0
  0
LINE
  8
0
 62
     0
 10
23.2039
 20
17.3093
 30
0.0
 11
22.9722
 21
17.3229
 31
0.0
  0
LINE
  8
0
 62
     0
 10
22.9722
 20
17.3229
 30
0.0
 11
22.7317
 21
17.3128
 31
0.0
  0
LINE
  8
0
 62
     0
 10
22.7317
 20
17.3128
 30
0.0
 11
22.4826
 21
17.2787
 31
0.0
  0
LINE
  8
0
 62
     0
 10
22.4826
 20
17.2787
 30
0.0
 11
22.2247
 21
17.2207
 31
0.0
  0
LINE
  8
0
 62
     0
 10
22.2247
 20
17.2207
 30
0.0
 11
21.9583
 21
17.1389
 31
0.0
  0
LINE
  8
0
 62
     0
 10
21.9583
 20
17.1389
 30
0.0
 11
21.2411
 21
16.8582
 31
0.0
  0
LINE
  8
0
 62
     0
 10
21.2411
 20
16.8582
 30
0.0
 11
20.5546
 21
16.5296
 31
0.0
  0
LINE
  8
0
 62
     0
 10
20.5546
 20
16.5296
 30
0.0
 11
19.899
 21
16.1533
 31
0.0
  0
LINE
  8
0
 62
     0
 10
19.899
 20
16.1533
 30
0.0
 11
19.2743
 21
15.7292
 31
0.0
  0
LINE
  8
0
 62
     0
 10
19.2743
 20
15.7292
 30
0.0
 11
18.6803
 21
15.2575
 31
0.0
  0
LINE
  8
0
 62
     0
 10
18.6803
 20
15.2575
 30
0.0
 11
18.1171
 21
14.7379
 31
0.0
  0
LINE
  8
0
 62
     0
 10
18.1171
 20
14.7379
 30
0.0
 11
17.5849
 21
14.1707
 31
0.0
  0
LINE
  8
0
 62
     0
 10
17.5849
 20
14.1707
 30
0.0
 11
17.0833
 21
13.5556
 31
0.0
  0
LINE
  8
0
 62
     0
 10
17.0833
 20
13.5556
 30
0.0
 11
16.7226
 21
14.1079
 31
0.0
  0
LINE
  8
0
 62
     0
 10
16.7226
 20
14.1079
 30
0.0
 11
16.3838
 21
14.6258
 31
0.0
  0
LINE
  8
0
 62
     0
 10
16.3838
 20
14.6258
 30
0.0
 11
16.0664
 21
15.1096
 31
0.0
  0
LINE
  8
0
 62
     0
 10
16.0664
 20
15.1096
 30
0.0
 11
15.7708
 21
15.559
 31
0.0
  0
LINE
  8
0
 62
     0
 10
15.7708
 20
15.559
 30
0.0
 11
15.4969
 21
15.9742
 31
0.0
  0
LINE
  8
0
 62
     0
 10
15.4969
 20
15.9742
 30
0.0
 11
15.2449
 21
16.355
 31
0.0
  0
LINE
  8
0
 62
     0
 10
15.2449
 20
16.355
 30
0.0
 11
15.0143
 21
16.7017
 31
0.0
  0
LINE
  8
0
 62
     0
 10
15.0143
 20
16.7017
 30
0.0
 11
14.8056
 21
17.0139
 31
0.0
  0
LINE
  8
0
 62
     0
 10
14.8056
 20
17.0139
 30
0.0
 11
14.6701
 21
17.1485
 31
0.0
  0
LINE
  8
0
 62
     0
 10
14.6701
 20
17.1485
 30
0.0
 11
14.4861
 21
17.2465
 31
0.0
  0
LINE
  8
0
 62
     0
 10
14.4861
 20
17.2465
 30
0.0
 11
14.2535
 21
17.3082
 31
0.0
  0
LINE
  8
0
 62
     0
 10
14.2535
 20
17.3082
 30
0.0
 11
13.9722
 21
17.3333
 31
0.0
  0
LINE
  8
0
 62
     0
 10
13.9722
 20
17.3333
 30
0.0
 11
13.6901
 21
17.3247
 31
0.0
  0
LINE
  8
0
 62
     0
 10
13.6901
 20
17.3247
 30
0.0
 11
13.3992
 21
17.2847
 31
0.0
  0
LINE
  8
0
 62
     0
 10
13.3992
 20
17.2847
 30
0.0
 11
13.0998
 21
17.2136
 31
0.0
  0
LINE
  8
0
 62
     0
 10
13.0998
 20
17.2136
 30
0.0
 11
12.7917
 21
17.1111
 31
0.0
  0
LINE
  8
0
 62
     0
 10
12.7917
 20
17.1111
 30
0.0
 11
12.4991
 21
16.9861
 31
0.0
  0
LINE
  8
0
 62
     0
 10
12.4991
 20
16.9861
 30
0.0
 11
12.2465
 21
16.8472
 31
0.0
  0
LINE
  8
0
 62
     0
 10
12.2465
 20
16.8472
 30
0.0
 11
12.0339
 21
16.6944
 31
0.0
  0
LINE
  8
0
 62
     0
 10
12.0339
 20
16.6944
 30
0.0
 11
11.8611
 21
16.5278
 31
0.0
  0
LINE
  8
0
 62
     0
 10
11.8611
 20
16.5278
 30
0.0
 11
11.7309
 21
16.3342
 31
0.0
  0
LINE
  8
0
 62
     0
 10
11.7309
 20
16.3342
 30
0.0
 11
11.6736
 21
16.1424
 31
0.0
  0
LINE
  8
0
 62
     0
 10
11.6736
 20
16.1424
 30
0.0
 11
11.6892
 21
15.9522
 31
0.0
  0
LINE
  8
0
 62
     0
 10
11.6892
 20
15.9522
 30
0.0
 11
11.7778
 21
15.7639
 31
0.0
  0
LINE
  8
0
 62
     0
 10
11.7778
 20
15.7639
 30
0.0
 11
11.8223
 21
15.696
 31
0.0
  0
LINE
  8
0
 62
     0
 10
11.8223
 20
15.696
 30
0.0
 11
11.89
 21
15.5929
 31
0.0
  0
LINE
  8
0
 62
     0
 10
11.89
 20
15.5929
 30
0.0
 11
11.9807
 21
15.4547
 31
0.0
  0
LINE
  8
0
 62
     0
 10
11.9807
 20
15.4547
 30
0.0
 11
12.0946
 21
15.2813
 31
0.0
  0
LINE
  8
0
 62
     0
 10
12.0946
 20
15.2813
 30
0.0
 11
12.2316
 21
15.0728
 31
0.0
  0
LINE
  8
0
 62
     0
 10
12.2316
 20
15.0728
 30
0.0
 11
12.3917
 21
14.829
 31
0.0
  0
LINE
  8
0
 62
     0
 10
12.3917
 20
14.829
 30
0.0
 11
12.5749
 21
14.5501
 31
0.0
  0
LINE
  8
0
 62
     0
 10
12.5749
 20
14.5501
 30
0.0
 11
12.7813
 21
14.2361
 31
0.0
  0
LINE
  8
0
 62
     0
 10
12.7813
 20
14.2361
 30
0.0
 11
13.0107
 21
13.887
 31
0.0
  0
LINE
  8
0
 62
     0
 10
13.0107
 20
13.887
 30
0.0
 11
13.2632
 21
13.5027
 31
0.0
  0
LINE
  8
0
 62
     0
 10
13.2632
 20
13.5027
 30
0.0
 11
13.5389
 21
13.0832
 31
0.0
  0
LINE
  8
0
 62
     0
 10
13.5389
 20
13.0832
 30
0.0
 11
13.8377
 21
12.6285
 31
0.0
  0
LINE
  8
0
 62
     0
 10
13.8377
 20
12.6285
 30
0.0
 11
14.1596
 21
12.1387
 31
0.0
  0
LINE
  8
0
 62
     0
 10
14.1596
 20
12.1387
 30
0.0
 11
14.5046
 21
11.6137
 31
0.0
  0
LINE
  8
0
 62
     0
 10
14.5046
 20
11.6137
 30
0.0
 11
14.8726
 21
11.0536
 31
0.0
  0
LINE
  8
0
 62
     0
 10
14.8726
 20
11.0536
 30
0.0
 11
15.2639
 21
10.4583
 31
0.0
  0
LINE
  8
0
 62
     0
 10
15.2639
 20
10.4583
 30
0.0
 11
15.1104
 21
10.1155
 31
0.0
  0
LINE
  8
0
 62
     0
 10
15.1104
 20
10.1155
 30
0.0
 11
14.9488
 21
9.73958
 31
0.0
  0
LINE
  8
0
 62
     0
 10
14.9488
 20
9.73958
 30
0.0
 11
14.7787
 21
9.33074
 31
0.0
  0
LINE
  8
0
 62
     0
 10
14.7787
 20
9.33074
 30
0.0
 11
14.6007
 21
8.88889
 31
0.0
  0
LINE
  8
0
 62
     0
 10
14.6007
 20
8.88889
 30
0.0
 11
14.4142
 21
8.41407
 31
0.0
  0
LINE
  8
0
 62
     0
 10
14.4142
 20
8.41407
 30
0.0
 11
14.2196
 21
7.90625
 31
0.0
  0
LINE
  8
0
 62
     0
 10
14.2196
 20
7.90625
 30
0.0
 11
14.0167
 21
7.36546
 31
0.0
  0
LINE
  8
0
 62
     0
 10
14.0167
 20
7.36546
 30
0.0
 11
13.8056
 21
6.79167
 31
0.0
  0
LINE
  8
0
 62
     0
 10
13.8056
 20
6.79167
 30
0.0
 11
13.5616
 21
6.12571
 31
0.0
  0
LINE
  8
0
 62
     0
 10
13.5616
 20
6.12571
 30
0.0
 11
13.3367
 21
5.51654
 31
0.0
  0
LINE
  8
0
 62
     0
 10
13.3367
 20
5.51654
 30
0.0
 11
13.131
 21
4.96425
 31
0.0
  0
LINE
  8
0
 62
     0
 10
13.131
 20
4.96425
 30
0.0
 11
12.9444
 21
4.46881
 31
0.0
  0
LINE
  8
0
 62
     0
 10
12.9444
 20
4.46881
 30
0.0
 11
12.7769
 21
4.03022
 31
0.0
  0
LINE
  8
0
 62
     0
 10
12.7769
 20
4.03022
 30
0.0
 11
12.6284
 21
3.64849
 31
0.0
  0
LINE
  8
0
 62
     0
 10
12.6284
 20
3.64849
 30
0.0
 11
12.4991
 21
3.32362
 31
0.0
  0
LINE
  8
0
 62
     0
 10
12.4991
 20
3.32362
 30
0.0
 11
12.3889
 21
3.05556
 31
0.0
  0
LINE
  8
0
 62
     0
 10
12.3889
 20
3.05556
 30
0.0
 11
11.7941
 21
3.7424
 31
0.0
  0
LINE
  8
0
 62
     0
 10
11.7941
 20
3.7424
 30
0.0
 11
11.1901
 21
4.4974
 31
0.0
  0
LINE
  8
0
 62
     0
 10
11.1901
 20
4.4974
 30
0.0
 11
10.577
 21
5.32053
 31
0.0
  0
LINE
  8
0
 62
     0
 10
10.577
 20
5.32053
 30
0.0
 11
9.95486
 21
6.21181
 31
0.0
  0
LINE
  8
0
 62
     0
 10
9.95486
 20
6.21181
 30
0.0
 11
9.32351
 21
7.17122
 31
0.0
  0
LINE
  8
0
 62
     0
 10
9.32351
 20
7.17122
 30
0.0
 11
8.68311
 21
8.19879
 31
0.0
  0
LINE
  8
0
 62
     0
 10
8.68311
 20
8.19879
 30
0.0
 11
8.03358
 21
9.29449
 31
0.0
  0
LINE
  8
0
 62
     0
 10
8.03358
 20
9.29449
 30
0.0
 11
7.375
 21
10.4583
 31
0.0
  0
LINE
  8
0
 62
     0
 10
7.375
 20
10.4583
 30
0.0
 11
7.18099
 21
10.8158
 31
0.0
  0
LINE
  8
0
 62
     0
 10
7.18099
 20
10.8158
 30
0.0
 11
6.96701
 21
11.2145
 31
0.0
  0
LINE
  8
0
 62
     0
 10
6.96701
 20
11.2145
 30
0.0
 11
6.73307
 21
11.6543
 31
0.0
  0
LINE
  8
0
 62
     0
 10
6.73307
 20
11.6543
 30
0.0
 11
6.47917
 21
12.1355
 31
0.0
  0
LINE
  8
0
 62
     0
 10
6.47917
 20
12.1355
 30
0.0
 11
6.20529
 21
12.6578
 31
0.0
  0
LINE
  8
0
 62
     0
 10
6.20529
 20
12.6578
 30
0.0
 11
5.91146
 21
13.2214
 31
0.0
  0
LINE
  8
0
 62
     0
 10
5.91146
 20
13.2214
 30
0.0
 11
5.59765
 21
13.8262
 31
0.0
  0
LINE
  8
0
 62
     0
 10
5.59765
 20
13.8262
 30
0.0
 11
5.26389
 21
14.4722
 31
0.0
  0
LINE
  8
0
 62
     0
 10
5.26389
 20
14.4722
 30
0.0
 11
4.9381
 21
15.096
 31
0.0
  0
LINE
  8
0
 62
     0
 10
4.9381
 20
15.096
 30
0.0
 11
4.6345
 21
15.6754
 31
0.0
  0
LINE
  8
0
 62
     0
 10
4.6345
 20
15.6754
 30
0.0
 11
4.35303
 21
16.2106
 31
0.0
  0
LINE
  8
0
 62
     0
 10
4.35303
 20
16.2106
 30
0.0
 11
4.09375
 21
16.7014
 31
0.0
  0
LINE
  8
0
 62
     0
 10
4.09375
 20
16.7014
 30
0.0
 11
3.85656
 21
17.1481
 31
0.0
  0
LINE
  8
0
 62
     0
 10
3.85656
 20
17.1481
 30
0.0
 11
3.6415
 21
17.5504
 31
0.0
  0
LINE
  8
0
 62
     0
 10
3.6415
 20
17.5504
 30
0.0
 11
3.44857
 21
17.9085
 31
0.0
  0
LINE
  8
0
 62
     0
 10
3.44857
 20
17.9085
 30
0.0
 11
3.27778
 21
18.2222
 31
0.0
  0
LINE
  8
0
 62
     0
 10
3.27778
 20
18.2222
 30
0.0
 11
3.16228
 21
18.3629
 31
0.0
  0
LINE
  8
0
 62
     0
 10
3.16228
 20
18.3629
 30
0.0
 11
2.99647
 21
18.4653
 31
0.0
  0
LINE
  8
0
 62
     0
 10
2.99647
 20
18.4653
 30
0.0
 11
2.78033
 21
18.5296
 31
0.0
  0
LINE
  8
0
 62
     0
 10
2.78033
 20
18.5296
 30
0.0
 11
2.51389
 21
18.5556
 31
0.0
  0
LINE
  8
0
 62
     0
 10
2.51389
 20
18.5556
 30
0.0
 11
2.24219
 21
18.5486
 31
0.0
  0
LINE
  8
0
 62
     0
 10
2.24219
 20
18.5486
 30
0.0
 11
1.95486
 21
18.5139
 31
0.0
  0
LINE
  8
0
 62
     0
 10
1.95486
 20
18.5139
 30
0.0
 11
1.65186
 21
18.4514
 31
0.0
  0
LINE
  8
0
 62
     0
 10
1.65186
 20
18.4514
 30
0.0
 11
1.33333
 21
18.3611
 31
0.0
  0
LINE
  8
0
 62
     0
 10
1.33333
 20
18.3611
 30
0.0
 11
1.03559
 21
18.2579
 31
0.0
  0
LINE
  8
0
 62
     0
 10
1.03559
 20
18.2579
 30
0.0
 11
0.767361
 21
18.1424
 31
0.0
  0
LINE
  8
0
 62
     0
 10
0.767361
 20
18.1424
 30
0.0
 11
0.528646
 21
18.0149
 31
0.0
  0
LINE
  8
0
 62
     0
 10
0.528646
 20
18.0149
 30
0.0
 11
0.319444
 21
17.875
 31
0.0
  0
LINE
  8
0
 62
     0
 10
0.319444
 20
17.875
 30
0.0
 11
0.144965
 21
17.7274
 31
0.0
  0
LINE
  8
0
 62
     0
 10
0.144965
 20
17.7274
 30
0.0
 11
0.0381944
 21
17.5903
 31
0.0
  0
LINE
  8
0
 62
     0
 10
0.0381944
 20
17.5903
 30
0.0
 11
-0.000868056
 21
17.4635
 31
0.0
  0
LINE
  8
0
 62
     0
 10
-0.000868056
 20
17.4635
 30
0.0
 11
0.0277778
 21
17.3472
 31
0.0
  0
LINE
  8
0
 62
     0
 10
0.0277778
 20
17.3472
 30
0.0
 11
1.40192
 21
14.9046
 31
0.0
  0
LINE
  8
0
 62
     0
 10
1.40192
 20
14.9046
 30
0.0
 11
2.77431
 21
12.5209
 31
0.0
  0
LINE
  8
0
 62
     0
 10
2.77431
 20
12.5209
 30
0.0
 11
4.14497
 21
10.1962
 31
0.0
  0
LINE
  8
0
 62
     0
 10
4.14497
 20
10.1962
 30
0.0
 11
5.51389
 21
7.93056
 31
0.0
  0
LINE
  8
0
 62
     0
 10
5.51389
 20
7.93056
 30
0.0
 11
5.99186
 21
7.15614
 31
0.0
  0
LINE
  8
0
 62
     0
 10
5.99186
 20
7.15614
 30
0.0
 11
6.45356
 21
6.41971
 31
0.0
  0
LINE
  8
0
 62
     0
 10
6.45356
 20
6.41971
 30
0.0
 11
6.89899
 21
5.72125
 31
0.0
  0
LINE
  8
0
 62
     0
 10
6.89899
 20
5.72125
 30
0.0
 11
7.32813
 21
5.06076
 31
0.0
  0
LINE
  8
0
 62
     0
 10
7.32813
 20
5.06076
 30
0.0
 11
7.741
 21
4.43826
 31
0.0
  0
LINE
  8
0
 62
     0
 10
7.741
 20
4.43826
 30
0.0
 11
8.13758
 21
3.85374
 31
0.0
  0
LINE
  8
0
 62
     0
 10
8.13758
 20
3.85374
 30
0.0
 11
8.5179
 21
3.30718
 31
0.0
  0
LINE
  8
0
 62
     0
 10
8.5179
 20
3.30718
 30
0.0
 11
8.88194
 21
2.79861
 31
0.0
  0
LINE
  8
0
 62
     0
 10
8.88194
 20
2.79861
 30
0.0
 11
9.22971
 21
2.32801
 31
0.0
  0
LINE
  8
0
 62
     0
 10
9.22971
 20
2.32801
 30
0.0
 11
9.56119
 21
1.8954
 31
0.0
  0
LINE
  8
0
 62
     0
 10
9.56119
 20
1.8954
 30
0.0
 11
9.87642
 21
1.50076
 31
0.0
  0
LINE
  8
0
 62
     0
 10
9.87642
 20
1.50076
 30
0.0
 11
10.1753
 21
1.1441
 31
0.0
  0
LINE
  8
0
 62
     0
 10
10.1753
 20
1.1441
 30
0.0
 11
10.458
 21
0.825412
 31
0.0
  0
LINE
  8
0
 62
     0
 10
10.458
 20
0.825412
 30
0.0
 11
10.7244
 21
0.544706
 31
0.0
  0
LINE
  8
0
 62
     0
 10
10.7244
 20
0.544706
 30
0.0
 11
10.9745
 21
0.301975
 31
0.0
  0
LINE
  8
0
 62
     0
 10
10.9745
 20
0.301975
 30
0.0
 11
11.2083
 21
0.0972222
 31
0.0
  0
LINE
  8
0
 62
     0
 10
11.2083
 20
0.0972222
 30
0.0
 11
11.35
 21
0.00173611
 31
0.0
  0
LINE
  8
0
 62
     0
 10
11.35
 20
0.00173611
 30
0.0
 11
11.5112
 21
-0.0694444
 31
0.0
  0
LINE
  8
0
 62
     0
 10
11.5112
 20
-0.0694444
 30
0.0
 11
11.692
 21
-0.116319
 31
0.0
  0
LINE
  8
0
 62
     0
 10
11.692
 20
-0.116319
 30
0.0
 11
11.8924
 21
-0.138889
 31
0.0
  0
LINE
  8
0
 62
     0
 10
11.8924
 20
-0.138889
 30
0.0
 11
12.1122
 21
-0.137153
 31
0.0
  0
LINE
  8
0
 62
     0
 10
12.1122
 20
-0.137153
 30
0.0
 11
12.3516
 21
-0.111111
 31
0.0
  0
LINE
  8
0
 62
     0
 10
12.3516
 20
-0.111111
 30
0.0
 11
12.6105
 21
-0.0607639
 31
0.0
  0
LINE
  8
0
 62
     0
 10
12.6105
 20
-0.0607639
 30
0.0
 11
12.8889
 21
0.0138889
 31
0.0
  0
LINE
  8
0
 62
     0
 10
12.8889
 20
0.0138889
 30
0.0
 11
13.1545
 21
0.101346
 31
0.0
  0
LINE
  8
0
 62
     0
 10
13.1545
 20
0.101346
 30
0.0
 11
13.3958
 21
0.197049
 31
0.0
  0
LINE
  8
0
 62
     0
 10
13.3958
 20
0.197049
 30
0.0
 11
13.6128
 21
0.300999
 31
0.0
  0
LINE
  8
0
 62
     0
 10
13.6128
 20
0.300999
 30
0.0
 11
13.8055
 21
0.413194
 31
0.0
  0
LINE
  8
0
 62
     0
 10
13.8055
 20
0.413194
 30
0.0
 11
13.9739
 21
0.533638
 31
0.0
  0
LINE
  8
0
 62
     0
 10
13.9739
 20
0.533638
 30
0.0
 11
14.1181
 21
0.662326
 31
0.0
  0
LINE
  8
0
 62
     0
 10
14.1181
 20
0.662326
 30
0.0
 11
14.2378
 21
0.799263
 31
0.0
  0
LINE
  8
0
 62
     0
 10
14.2378
 20
0.799263
 30
0.0
 11
14.3333
 21
0.944444
 31
0.0
  0
LINE
  8
0
 62
     0
 10
14.3333
 20
0.944444
 30
0.0
 11
14.4235
 21
1.10834
 31
0.0
  0
LINE
  8
0
 62
     0
 10
14.4235
 20
1.10834
 30
0.0
 11
14.5239
 21
1.30821
 31
0.0
  0
LINE
  8
0
 62
     0
 10
14.5239
 20
1.30821
 30
0.0
 11
14.6344
 21
1.54411
 31
0.0
  0
LINE
  8
0
 62
     0
 10
14.6344
 20
1.54411
 30
0.0
 11
14.7553
 21
1.81603
 31
0.0
  0
LINE
  8
0
 62
     0
 10
14.7553
 20
1.81603
 30
0.0
 11
14.8861
 21
2.12397
 31
0.0
  0
LINE
  8
0
 62
     0
 10
14.8861
 20
2.12397
 30
0.0
 11
15.0274
 21
2.46793
 31
0.0
  0
LINE
  8
0
 62
     0
 10
15.0274
 20
2.46793
 30
0.0
 11
15.1788
 21
2.84793
 31
0.0
  0
LINE
  8
0
 62
     0
 10
15.1788
 20
2.84793
 30
0.0
 11
15.3403
 21
3.26394
 31
0.0
  0
LINE
  8
0
 62
     0
 10
15.3403
 20
3.26394
 30
0.0
 11
15.5121
 21
3.71599
 31
0.0
  0
LINE
  8
0
 62
     0
 10
15.5121
 20
3.71599
 30
0.0
 11
15.694
 21
4.20404
 31
0.0
  0
LINE
  8
0
 62
     0
 10
15.694
 20
4.20404
 30
0.0
 11
15.8861
 21
4.72814
 31
0.0
  0
LINE
  8
0
 62
     0
 10
15.8861
 20
4.72814
 30
0.0
 11
16.0886
 21
5.28825
 31
0.0
  0
LINE
  8
0
 62
     0
 10
16.0886
 20
5.28825
 30
0.0
 11
16.3011
 21
5.88439
 31
0.0
  0
LINE
  8
0
 62
     0
 10
16.3011
 20
5.88439
 30
0.0
 11
16.5239
 21
6.51654
 31
0.0
  0
LINE
  8
0
 62
     0
 10
16.5239
 20
6.51654
 30
0.0
 11
16.7568
 21
7.18474
 31
0.0
  0
LINE
  8
0
 62
     0
 10
16.7568
 20
7.18474
 30
0.0
 11
17
 21
7.88889
 31
0.0
  0
LINE
  8
0
 62
     0
 10
17
 20
7.88889
 30
0.0
 11
17.8699
 21
6.64589
 31
0.0
  0
LINE
  8
0
 62
     0
 10
17.8699
 20
6.64589
 30
0.0
 11
18.7153
 21
5.48611
 31
0.0
  0
LINE
  8
0
 62
     0
 10
18.7153
 20
5.48611
 30
0.0
 11
19.5365
 21
4.40972
 31
0.0
  0
LINE
  8
0
 62
     0
 10
19.5365
 20
4.40972
 30
0.0
 11
20.3333
 21
3.41667
 31
0.0
  0
LINE
  8
0
 62
     0
 10
20.3333
 20
3.41667
 30
0.0
 11
20.4407
 21
3.30946
 31
0.0
  0
LINE
  8
0
 62
     0
 10
20.4407
 20
3.30946
 30
0.0
 11
20.5686
 21
3.22396
 31
0.0
  0
LINE
  8
0
 62
     0
 10
20.5686
 20
3.22396
 30
0.0
 11
20.7168
 21
3.16015
 31
0.0
  0
LINE
  8
0
 62
     0
 10
20.7168
 20
3.16015
 30
0.0
 11
20.8854
 21
3.11806
 31
0.0
  0
LINE
  8
0
 62
     0
 10
20.8854
 20
3.11806
 30
0.0
 11
21.0744
 21
3.09765
 31
0.0
  0
LINE
  8
0
 62
     0
 10
21.0744
 20
3.09765
 30
0.0
 11
21.2839
 21
3.09896
 31
0.0
  0
LINE
  8
0
 62
     0
 10
21.2839
 20
3.09896
 30
0.0
 11
21.5136
 21
3.12196
 31
0.0
  0
LINE
  8
0
 62
     0
 10
21.5136
 20
3.12196
 30
0.0
 11
21.7639
 21
3.16667
 31
0.0
  0
LINE
  8
0
 62
     0
 10
21.7639
 20
3.16667
 30
0.0
 11
22.1936
 21
3.27951
 31
0.0
  0
LINE
  8
0
 62
     0
 10
22.1936
 20
3.27951
 30
0.0
 11
22.566
 21
3.42361
 31
0.0
  0
LINE
  8
0
 62
     0
 10
22.566
 20
3.42361
 30
0.0
 11
22.8811
 21
3.59901
 31
0.0
  0
LINE
  8
0
 62
     0
 10
22.8811
 20
3.59901
 30
0.0
 11
23.1389
 21
3.80556
 31
0.0
  0
LINE
  8
0
 62
     0
 10
23.1389
 20
3.80556
 30
0.0
 11
23.3985
 21
4.06922
 31
0.0
  0
LINE
  8
0
 62
     0
 10
23.3985
 20
4.06922
 30
0.0
 11
23.6493
 21
4.36025
 31
0.0
  0
LINE
  8
0
 62
     0
 10
23.6493
 20
4.36025
 30
0.0
 11
23.8915
 21
4.6786
 31
0.0
  0
LINE
  8
0
 62
     0
 10
23.8915
 20
4.6786
 30
0.0
 11
24.125
 21
5.02431
 31
0.0
  0
LINE
  8
0
 62
     0
 10
24.125
 20
5.02431
 30
0.0
 11
24.3499
 21
5.39735
 31
0.0
  0
LINE
  8
0
 62
     0
 10
24.3499
 20
5.39735
 30
0.0
 11
24.566
 21
5.79775
 31
0.0
  0
LINE
  8
0
 62
     0
 10
24.566
 20
5.79775
 30
0.0
 11
24.7735
 21
6.22547
 31
0.0
  0
LINE
  8
0
 62
     0
 10
24.7735
 20
6.22547
 30
0.0
 11
24.9722
 21
6.68056
 31
0.0
  0
LINE
  8
0
 62
     0
 10
24.9722
 20
6.68056
 30
0.0
 11
24.9942
 21
6.73594
 31
0.0
  0
LINE
  8
0
 62
     0
 10
24.9942
 20
6.73594
 30
0.0
 11
25.0321
 21
6.83251
 31
0.0
  0
LINE
  8
0
 62
     0
 10
25.0321
 20
6.83251
 30
0.0
 11
25.0861
 21
6.97032
 31
0.0
  0
LINE
  8
0
 62
     0
 10
25.0861
 20
6.97032
 30
0.0
 11
25.1563
 21
7.14936
 31
0.0
  0
LINE
  8
0
 62
     0
 10
25.1563
 20
7.14936
 30
0.0
 11
25.2424
 21
7.36962
 31
0.0
  0
LINE
  8
0
 62
     0
 10
25.2424
 20
7.36962
 30
0.0
 11
25.3446
 21
7.63112
 31
0.0
  0
LINE
  8
0
 62
     0
 10
25.3446
 20
7.63112
 30
0.0
 11
25.4629
 21
7.93386
 31
0.0
  0
LINE
  8
0
 62
     0
 10
25.4629
 20
7.93386
 30
0.0
 11
25.5972
 21
8.27778
 31
0.0
  0
LINE
  8
0
 62
     0
 10
25.5972
 20
8.27778
 30
0.0
 11
25.7803
 21
8.74826
 31
0.0
  0
LINE
  8
0
 62
     0
 10
25.7803
 20
8.74826
 30
0.0
 11
25.9549
 21
9.17361
 31
0.0
  0
LINE
  8
0
 62
     0
 10
25.9549
 20
9.17361
 30
0.0
 11
26.1206
 21
9.55382
 31
0.0
  0
LINE
  8
0
 62
     0
 10
26.1206
 20
9.55382
 30
0.0
 11
26.2778
 21
9.88889
 31
0.0
  0
LINE
  8
0
 62
     0
 10
26.2778
 20
9.88889
 30
0.0
 11
26.9233
 21
11.0886
 31
0.0
  0
LINE
  8
0
 62
     0
 10
26.9233
 20
11.0886
 30
0.0
 11
27.6379
 21
12.2639
 31
0.0
  0
LINE
  8
0
 62
     0
 10
27.6379
 20
12.2639
 30
0.0
 11
28.4217
 21
13.415
 31
0.0
  0
LINE
  8
0
 62
     0
 10
28.4217
 20
13.415
 30
0.0
 11
29.2743
 21
14.5417
 31
0.0
  0
LINE
  8
0
 62
     0
 10
29.2743
 20
14.5417
 30
0.0
 11
30.196
 21
15.6442
 31
0.0
  0
LINE
  8
0
 62
     0
 10
30.196
 20
15.6442
 30
0.0
 11
31.1867
 21
16.7222
 31
0.0
  0
LINE
  8
0
 62
     0
 10
31.1867
 20
16.7222
 30
0.0
 11
32.2462
 21
17.7761
 31
0.0
  0
LINE
  8
0
 62
     0
 10
32.2462
 20
17.7761
 30
0.0
 11
33.375
 21
18.8056
 31
0.0
  0
LINE
  8
0
 62
     0
 10
33.375
 20
18.8056
 30
0.0
 11
33.5754
 21
19.0096
 31
0.0
  0
LINE
  8
0
 62
     0
 10
33.5754
 20
19.0096
 30
0.0
 11
33.691
 21
19.191
 31
0.0
  0
LINE
  8
0
 62
     0
 10
33.691
 20
19.191
 30
0.0
 11
33.7212
 21
19.3499
 31
0.0
  0
LINE
  8
0
 62
     0
 10
33.7212
 20
19.3499
 30
0.0
 11
33.6667
 21
19.4861
 31
0.0
  0
LINE
  8
0
 62
     0
 10
33.6667
 20
19.4861
 30
0.0
 11
33.5556
 21
19.5921
 31
0.0
  0
LINE
  8
0
 62
     0
 10
33.5556
 20
19.5921
 30
0.0
 11
33.3889
 21
19.6736
 31
0.0
  0
LINE
  8
0
 62
     0
 10
33.3889
 20
19.6736
 30
0.0
 11
33.1667
 21
19.731
 31
0.0
  0
LINE
  8
0
 62
     0
 10
33.1667
 20
19.731
 30
0.0
 11
32.8889
 21
19.7639
 31
0.0
  0
LINE
  8
0
 62
     0
 10
32.8889
 20
19.7639
 30
0.0
 11
32.5368
 21
19.7778
 31
0.0
  0
LINE
  8
0
 62
     0
 10
32.5368
 20
19.7778
 30
0.0
 11
32.21
 21
19.7708
 31
0.0
  0
LINE
  8
0
 62
     0
 10
32.21
 20
19.7708
 30
0.0
 11
31.9083
 21
19.7431
 31
0.0
  0
LINE
  8
0
 62
     0
 10
31.9083
 20
19.7431
 30
0.0
 11
31.6319
 21
19.6944
 31
0.0
  0
LINE
  8
0
 62
     0
 10
31.6319
 20
19.6944
 30
0.0
 11
31.3806
 21
19.625
 31
0.0
  0
LINE
  8
0
 62
     0
 10
31.3806
 20
19.625
 30
0.0
 11
31.1544
 21
19.5347
 31
0.0
  0
LINE
  8
0
 62
     0
 10
31.1544
 20
19.5347
 30
0.0
 11
30.9535
 21
19.4236
 31
0.0
  0
LINE
  8
0
 62
     0
 10
30.9535
 20
19.4236
 30
0.0
 11
30.7778
 21
19.2917
 31
0.0
  0
LINE
  8
0
 62
     0
 10
30.7778
 20
19.2917
 30
0.0
 11
29.9622
 21
18.5578
 31
0.0
  0
LINE
  8
0
 62
     0
 10
29.9622
 20
18.5578
 30
0.0
 11
29.1754
 21
17.8074
 31
0.0
  0
LINE
  8
0
 62
     0
 10
29.1754
 20
17.8074
 30
0.0
 11
28.4171
 21
17.0404
 31
0.0
  0
LINE
  8
0
 62
     0
 10
28.4171
 20
17.0404
 30
0.0
 11
27.6875
 21
16.2569
 31
0.0
  0
LINE
  8
0
 62
     0
 10
27.6875
 20
16.2569
 30
0.0
 11
26.9865
 21
15.4571
 31
0.0
  0
LINE
  8
0
 62
     0
 10
26.9865
 20
15.4571
 30
0.0
 11
26.3142
 21
14.6407
 31
0.0
  0
LINE
  8
0
 62
     0
 10
26.3142
 20
14.6407
 30
0.0
 11
25.6706
 21
13.8078
 31
0.0
  0
LINE
  8
0
 62
     0
 10
25.6706
 20
13.8078
 30
0.0
 11
25.0556
 21
12.9583
 31
0.0
  0
ENDSEC
  0
EOF
