  0
SECTION
  2
HEADER
  9
$ACADVER
  1
AC1009
  9
$EXTMIN
 10
0.0
 20
0.0
 30
0.0
  9
$EXTMAX
 10
1000.0
 20
1000.0
 30
0.0
  9
$FILLMODE
 70
 0
  9
$SPLFRAME
 70
 1
  0
ENDSEC
  0
SECTION
  2
TABLES
  0
TABLE
  2
LAYER
 70
1
  0
LAYER
  2
0
 70
     0
 62
     7
  6
CONTINUOUS
  0
ENDTAB
  0
ENDSEC
  0
SECTION
  2
ENTITIES
  0
LINE
  8
0
 62
     0
 10
9.73611
 20
9.15278
 30
0.0
 11
10.2742
 21
9.84358
 31
0.0
  0
LINE
  8
0
 62
     0
 10
10.2742
 20
9.84358
 30
0.0
 11
10.7912
 21
10.527
 31
0.0
  0
LINE
  8
0
 62
     0
 10
10.7912
 20
10.527
 30
0.0
 11
11.2872
 21
11.203
 31
0.0
  0
LINE
  8
0
 62
     0
 10
11.2872
 20
11.203
 30
0.0
 11
11.7622
 21
11.8716
 31
0.0
  0
LINE
  8
0
 62
     0
 10
11.7622
 20
11.8716
 30
0.0
 11
12.216
 21
12.5328
 31
0.0
  0
LINE
  8
0
 62
     0
 10
12.216
 20
12.5328
 30
0.0
 11
12.6489
 21
13.1867
 31
0.0
  0
LINE
  8
0
 62
     0
 10
12.6489
 20
13.1867
 30
0.0
 11
13.0607
 21
13.8332
 31
0.0
  0
LINE
  8
0
 62
     0
 10
13.0607
 20
13.8332
 30
0.0
 11
13.4514
 21
14.4722
 31
0.0
  0
LINE
  8
0
 62
     0
 10
13.4514
 20
14.4722
 30
0.0
 11
13.8211
 21
15.104
 31
0.0
  0
LINE
  8
0
 62
     0
 10
13.8211
 20
15.104
 30
0.0
 11
14.1697
 21
15.7283
 31
0.0
  0
LINE
  8
0
 62
     0
 10
14.1697
 20
15.7283
 30
0.0
 11
14.4972
 21
16.3453
 31
0.0
  0
LINE
  8
0
 62
     0
 10
14.4972
 20
16.3453
 30
0.0
 11
14.8039
 21
16.9549
 31
0.0
  0
LINE
  8
0
 62
     0
 10
14.8039
 20
16.9549
 30
0.0
 11
15.0893
 21
17.5571
 31
0.0
  0
LINE
  8
0
 62
     0
 10
15.0893
 20
17.5571
 30
0.0
 11
15.3537
 21
18.1519
 31
0.0
  0
LINE
  8
0
 62
     0
 10
15.3537
 20
18.1519
 30
0.0
 11
15.5971
 21
18.7394
 31
0.0
  0
LINE
  8
0
 62
     0
 10
15.5971
 20
18.7394
 30
0.0
 11
15.8194
 21
19.3194
 31
0.0
  0
LINE
  8
0
 62
     0
 10
15.8194
 20
19.3194
 30
0.0
 11
15.855
 21
19.5
 31
0.0
  0
LINE
  8
0
 62
     0
 10
15.855
 20
19.5
 30
0.0
 11
15.8229
 21
19.6528
 31
0.0
  0
LINE
  8
0
 62
     0
 10
15.8229
 20
19.6528
 30
0.0
 11
15.7231
 21
19.7778
 31
0.0
  0
LINE
  8
0
 62
     0
 10
15.7231
 20
19.7778
 30
0.0
 11
15.5556
 21
19.875
 31
0.0
  0
LINE
  8
0
 62
     0
 10
15.5556
 20
19.875
 30
0.0
 11
15.3576
 21
19.9315
 31
0.0
  0
LINE
  8
0
 62
     0
 10
15.3576
 20
19.9315
 30
0.0
 11
15.125
 21
19.9618
 31
0.0
  0
LINE
  8
0
 62
     0
 10
15.125
 20
19.9618
 30
0.0
 11
14.8576
 21
19.9661
 31
0.0
  0
LINE
  8
0
 62
     0
 10
14.8576
 20
19.9661
 30
0.0
 11
14.5556
 21
19.9444
 31
0.0
  0
LINE
  8
0
 62
     0
 10
14.5556
 20
19.9444
 30
0.0
 11
14.1894
 21
19.8864
 31
0.0
  0
LINE
  8
0
 62
     0
 10
14.1894
 20
19.8864
 30
0.0
 11
13.862
 21
19.809
 31
0.0
  0
LINE
  8
0
 62
     0
 10
13.862
 20
19.809
 30
0.0
 11
13.5731
 21
19.7128
 31
0.0
  0
LINE
  8
0
 62
     0
 10
13.5731
 20
19.7128
 30
0.0
 11
13.3229
 21
19.5972
 31
0.0
  0
LINE
  8
0
 62
     0
 10
13.3229
 20
19.5972
 30
0.0
 11
13.1113
 21
19.4628
 31
0.0
  0
LINE
  8
0
 62
     0
 10
13.1113
 20
19.4628
 30
0.0
 11
12.9384
 21
19.309
 31
0.0
  0
LINE
  8
0
 62
     0
 10
12.9384
 20
19.309
 30
0.0
 11
12.804
 21
19.1364
 31
0.0
  0
LINE
  8
0
 62
     0
 10
12.804
 20
19.1364
 30
0.0
 11
12.7083
 21
18.9444
 31
0.0
  0
LINE
  8
0
 62
     0
 10
12.7083
 20
18.9444
 30
0.0
 11
12.3331
 21
17.9826
 31
0.0
  0
LINE
  8
0
 62
     0
 10
12.3331
 20
17.9826
 30
0.0
 11
11.9019
 21
17.0069
 31
0.0
  0
LINE
  8
0
 62
     0
 10
11.9019
 20
17.0069
 30
0.0
 11
11.4147
 21
16.0174
 31
0.0
  0
LINE
  8
0
 62
     0
 10
11.4147
 20
16.0174
 30
0.0
 11
10.8715
 21
15.0139
 31
0.0
  0
LINE
  8
0
 62
     0
 10
10.8715
 20
15.0139
 30
0.0
 11
10.2723
 21
13.9965
 31
0.0
  0
LINE
  8
0
 62
     0
 10
10.2723
 20
13.9965
 30
0.0
 11
9.61719
 21
12.9653
 31
0.0
  0
LINE
  8
0
 62
     0
 10
9.61719
 20
12.9653
 30
0.0
 11
8.90603
 21
11.9202
 31
0.0
  0
LINE
  8
0
 62
     0
 10
8.90603
 20
11.9202
 30
0.0
 11
8.13889
 21
10.8611
 31
0.0
  0
LINE
  8
0
 62
     0
 10
8.13889
 20
10.8611
 30
0.0
 11
7.22569
 21
11.9091
 31
0.0
  0
LINE
  8
0
 62
     0
 10
7.22569
 20
11.9091
 30
0.0
 11
6.375
 21
12.9488
 31
0.0
  0
LINE
  8
0
 62
     0
 10
6.375
 20
12.9488
 30
0.0
 11
5.58681
 21
13.9803
 31
0.0
  0
LINE
  8
0
 62
     0
 10
5.58681
 20
13.9803
 30
0.0
 11
4.86111
 21
15.0035
 31
0.0
  0
LINE
  8
0
 62
     0
 10
4.86111
 20
15.0035
 30
0.0
 11
4.19786
 21
16.0185
 31
0.0
  0
LINE
  8
0
 62
     0
 10
4.19786
 20
16.0185
 30
0.0
 11
3.59717
 21
17.0253
 31
0.0
  0
LINE
  8
0
 62
     0
 10
3.59717
 20
17.0253
 30
0.0
 11
3.05897
 21
18.0237
 31
0.0
  0
LINE
  8
0
 62
     0
 10
3.05897
 20
18.0237
 30
0.0
 11
2.58333
 21
19.0139
 31
0.0
  0
LINE
  8
0
 62
     0
 10
2.58333
 20
19.0139
 30
0.0
 11
2.47396
 21
19.1824
 31
0.0
  0
LINE
  8
0
 62
     0
 10
2.47396
 20
19.1824
 30
0.0
 11
2.3125
 21
19.3125
 31
0.0
  0
LINE
  8
0
 62
     0
 10
2.3125
 20
19.3125
 30
0.0
 11
2.09896
 21
19.4046
 31
0.0
  0
LINE
  8
0
 62
     0
 10
2.09896
 20
19.4046
 30
0.0
 11
1.83333
 21
19.4583
 31
0.0
  0
LINE
  8
0
 62
     0
 10
1.83333
 20
19.4583
 30
0.0
 11
1.56939
 21
19.4771
 31
0.0
  0
LINE
  8
0
 62
     0
 10
1.56939
 20
19.4771
 30
0.0
 11
1.29161
 21
19.4649
 31
0.0
  0
LINE
  8
0
 62
     0
 10
1.29161
 20
19.4649
 30
0.0
 11
0.999946
 21
19.4215
 31
0.0
  0
LINE
  8
0
 62
     0
 10
0.999946
 20
19.4215
 30
0.0
 11
0.694444
 21
19.3472
 31
0.0
  0
LINE
  8
0
 62
     0
 10
0.694444
 20
19.3472
 30
0.0
 11
0.404514
 21
19.2483
 31
0.0
  0
LINE
  8
0
 62
     0
 10
0.404514
 20
19.2483
 30
0.0
 11
0.145833
 21
19.1319
 31
0.0
  0
LINE
  8
0
 62
     0
 10
0.145833
 20
19.1319
 30
0.0
 11
-0.0816515
 21
18.9983
 31
0.0
  0
LINE
  8
0
 62
     0
 10
-0.0816515
 20
18.9983
 30
0.0
 11
-0.277778
 21
18.8472
 31
0.0
  0
LINE
  8
0
 62
     0
 10
-0.277778
 20
18.8472
 30
0.0
 11
-0.438422
 21
18.6806
 31
0.0
  0
LINE
  8
0
 62
     0
 10
-0.438422
 20
18.6806
 30
0.0
 11
-0.53125
 21
18.5139
 31
0.0
  0
LINE
  8
0
 62
     0
 10
-0.53125
 20
18.5139
 30
0.0
 11
-0.556424
 21
18.3472
 31
0.0
  0
LINE
  8
0
 62
     0
 10
-0.556424
 20
18.3472
 30
0.0
 11
-0.513889
 21
18.1806
 31
0.0
  0
LINE
  8
0
 62
     0
 10
-0.513889
 20
18.1806
 30
0.0
 11
0.0262588
 21
17.0617
 31
0.0
  0
LINE
  8
0
 62
     0
 10
0.0262588
 20
17.0617
 30
0.0
 11
0.646701
 21
15.9271
 31
0.0
  0
LINE
  8
0
 62
     0
 10
0.646701
 20
15.9271
 30
0.0
 11
1.34744
 21
14.7769
 31
0.0
  0
LINE
  8
0
 62
     0
 10
1.34744
 20
14.7769
 30
0.0
 11
2.12847
 21
13.6112
 31
0.0
  0
LINE
  8
0
 62
     0
 10
2.12847
 20
13.6112
 30
0.0
 11
2.98981
 21
12.4297
 31
0.0
  0
LINE
  8
0
 62
     0
 10
2.98981
 20
12.4297
 30
0.0
 11
3.93143
 21
11.2327
 31
0.0
  0
LINE
  8
0
 62
     0
 10
3.93143
 20
11.2327
 30
0.0
 11
4.95335
 21
10.02
 31
0.0
  0
LINE
  8
0
 62
     0
 10
4.95335
 20
10.02
 30
0.0
 11
6.05556
 21
8.79167
 31
0.0
  0
LINE
  8
0
 62
     0
 10
6.05556
 20
8.79167
 30
0.0
 11
6.10764
 21
8.72917
 31
0.0
  0
LINE
  8
0
 62
     0
 10
6.10764
 20
8.72917
 30
0.0
 11
6.18056
 21
8.65278
 31
0.0
  0
LINE
  8
0
 62
     0
 10
6.18056
 20
8.65278
 30
0.0
 11
6.22483
 21
8.61372
 31
0.0
  0
LINE
  8
0
 62
     0
 10
6.22483
 20
8.61372
 30
0.0
 11
6.26042
 21
8.57986
 31
0.0
  0
LINE
  8
0
 62
     0
 10
6.26042
 20
8.57986
 30
0.0
 11
6.28733
 21
8.55122
 31
0.0
  0
LINE
  8
0
 62
     0
 10
6.28733
 20
8.55122
 30
0.0
 11
6.30556
 21
8.52778
 31
0.0
  0
LINE
  8
0
 62
     0
 10
6.30556
 20
8.52778
 30
0.0
 11
6.2315
 21
8.43668
 31
0.0
  0
LINE
  8
0
 62
     0
 10
6.2315
 20
8.43668
 30
0.0
 11
6.14128
 21
8.32644
 31
0.0
  0
LINE
  8
0
 62
     0
 10
6.14128
 20
8.32644
 30
0.0
 11
6.03489
 21
8.1971
 31
0.0
  0
LINE
  8
0
 62
     0
 10
6.03489
 20
8.1971
 30
0.0
 11
5.91233
 21
8.04867
 31
0.0
  0
LINE
  8
0
 62
     0
 10
5.91233
 20
8.04867
 30
0.0
 11
5.7736
 21
7.88112
 31
0.0
  0
LINE
  8
0
 62
     0
 10
5.7736
 20
7.88112
 30
0.0
 11
5.61871
 21
7.6945
 31
0.0
  0
LINE
  8
0
 62
     0
 10
5.61871
 20
7.6945
 30
0.0
 11
5.44764
 21
7.48876
 31
0.0
  0
LINE
  8
0
 62
     0
 10
5.44764
 20
7.48876
 30
0.0
 11
5.26042
 21
7.26394
 31
0.0
  0
LINE
  8
0
 62
     0
 10
5.26042
 20
7.26394
 30
0.0
 11
5.05701
 21
7.02001
 31
0.0
  0
LINE
  8
0
 62
     0
 10
5.05701
 20
7.02001
 30
0.0
 11
4.83746
 21
6.757
 31
0.0
  0
LINE
  8
0
 62
     0
 10
4.83746
 20
6.757
 30
0.0
 11
4.60172
 21
6.47488
 31
0.0
  0
LINE
  8
0
 62
     0
 10
4.60172
 20
6.47488
 30
0.0
 11
4.34983
 21
6.17367
 31
0.0
  0
LINE
  8
0
 62
     0
 10
4.34983
 20
6.17367
 30
0.0
 11
4.08176
 21
5.85335
 31
0.0
  0
LINE
  8
0
 62
     0
 10
4.08176
 20
5.85335
 30
0.0
 11
3.79753
 21
5.51394
 31
0.0
  0
LINE
  8
0
 62
     0
 10
3.79753
 20
5.51394
 30
0.0
 11
3.49713
 21
5.15543
 31
0.0
  0
LINE
  8
0
 62
     0
 10
3.49713
 20
5.15543
 30
0.0
 11
3.18056
 21
4.77778
 31
0.0
  0
LINE
  8
0
 62
     0
 10
3.18056
 20
4.77778
 30
0.0
 11
2.71044
 21
4.22054
 31
0.0
  0
LINE
  8
0
 62
     0
 10
2.71044
 20
4.22054
 30
0.0
 11
2.26557
 21
3.68756
 31
0.0
  0
LINE
  8
0
 62
     0
 10
2.26557
 20
3.68756
 30
0.0
 11
1.84586
 21
3.17887
 31
0.0
  0
LINE
  8
0
 62
     0
 10
1.84586
 20
3.17887
 30
0.0
 11
1.45133
 21
2.6945
 31
0.0
  0
LINE
  8
0
 62
     0
 10
1.45133
 20
2.6945
 30
0.0
 11
1.08198
 21
2.23443
 31
0.0
  0
LINE
  8
0
 62
     0
 10
1.08198
 20
2.23443
 30
0.0
 11
0.737793
 21
1.79867
 31
0.0
  0
LINE
  8
0
 62
     0
 10
0.737793
 20
1.79867
 30
0.0
 11
0.418782
 21
1.38721
 31
0.0
  0
LINE
  8
0
 62
     0
 10
0.418782
 20
1.38721
 30
0.0
 11
0.125
 21
1
 31
0.0
  0
LINE
  8
0
 62
     0
 10
0.125
 20
1
 30
0.0
 11
0.00949436
 21
0.810818
 31
0.0
  0
LINE
  8
0
 62
     0
 10
0.00949436
 20
0.810818
 30
0.0
 11
-0.0313043
 21
0.645887
 31
0.0
  0
LINE
  8
0
 62
     0
 10
-0.0313043
 20
0.645887
 30
0.0
 11
0.00254992
 21
0.505262
 31
0.0
  0
LINE
  8
0
 62
     0
 10
0.00254992
 20
0.505262
 30
0.0
 11
0.111111
 21
0.388889
 31
0.0
  0
LINE
  8
0
 62
     0
 10
0.111111
 20
0.388889
 30
0.0
 11
0.265625
 21
0.309896
 31
0.0
  0
LINE
  8
0
 62
     0
 10
0.265625
 20
0.309896
 30
0.0
 11
0.465278
 21
0.253472
 31
0.0
  0
LINE
  8
0
 62
     0
 10
0.465278
 20
0.253472
 30
0.0
 11
0.710069
 21
0.219618
 31
0.0
  0
LINE
  8
0
 62
     0
 10
0.710069
 20
0.219618
 30
0.0
 11
1
 21
0.208333
 31
0.0
  0
LINE
  8
0
 62
     0
 10
1
 20
0.208333
 30
0.0
 11
1.36263
 21
0.228353
 31
0.0
  0
LINE
  8
0
 62
     0
 10
1.36263
 20
0.228353
 30
0.0
 11
1.69358
 21
0.267415
 31
0.0
  0
LINE
  8
0
 62
     0
 10
1.69358
 20
0.267415
 30
0.0
 11
1.99283
 21
0.325575
 31
0.0
  0
LINE
  8
0
 62
     0
 10
1.99283
 20
0.325575
 30
0.0
 11
2.26042
 21
0.402832
 31
0.0
  0
LINE
  8
0
 62
     0
 10
2.26042
 20
0.402832
 30
0.0
 11
2.49631
 21
0.499186
 31
0.0
  0
LINE
  8
0
 62
     0
 10
2.49631
 20
0.499186
 30
0.0
 11
2.70053
 21
0.614637
 31
0.0
  0
LINE
  8
0
 62
     0
 10
2.70053
 20
0.614637
 30
0.0
 11
2.87304
 21
0.749186
 31
0.0
  0
LINE
  8
0
 62
     0
 10
2.87304
 20
0.749186
 30
0.0
 11
3.01389
 21
0.902778
 31
0.0
  0
LINE
  8
0
 62
     0
 10
3.01389
 20
0.902778
 30
0.0
 11
3.14214
 21
1.06961
 31
0.0
  0
LINE
  8
0
 62
     0
 10
3.14214
 20
1.06961
 30
0.0
 11
3.29428
 21
1.26438
 31
0.0
  0
LINE
  8
0
 62
     0
 10
3.29428
 20
1.26438
 30
0.0
 11
3.47026
 21
1.48714
 31
0.0
  0
LINE
  8
0
 62
     0
 10
3.47026
 20
1.48714
 30
0.0
 11
3.67014
 21
1.7379
 31
0.0
  0
LINE
  8
0
 62
     0
 10
3.67014
 20
1.7379
 30
0.0
 11
3.89388
 21
2.01665
 31
0.0
  0
LINE
  8
0
 62
     0
 10
3.89388
 20
2.01665
 30
0.0
 11
4.1415
 21
2.3234
 31
0.0
  0
LINE
  8
0
 62
     0
 10
4.1415
 20
2.3234
 30
0.0
 11
4.41297
 21
2.65815
 31
0.0
  0
LINE
  8
0
 62
     0
 10
4.41297
 20
2.65815
 30
0.0
 11
4.70833
 21
3.02083
 31
0.0
  0
LINE
  8
0
 62
     0
 10
4.70833
 20
3.02083
 30
0.0
 11
5.02756
 21
3.41157
 31
0.0
  0
LINE
  8
0
 62
     0
 10
5.02756
 20
3.41157
 30
0.0
 11
5.37067
 21
3.83029
 31
0.0
  0
LINE
  8
0
 62
     0
 10
5.37067
 20
3.83029
 30
0.0
 11
5.73763
 21
4.27701
 31
0.0
  0
LINE
  8
0
 62
     0
 10
5.73763
 20
4.27701
 30
0.0
 11
6.12847
 21
4.75174
 31
0.0
  0
LINE
  8
0
 62
     0
 10
6.12847
 20
4.75174
 30
0.0
 11
6.54318
 21
5.25444
 31
0.0
  0
LINE
  8
0
 62
     0
 10
6.54318
 20
5.25444
 30
0.0
 11
6.98178
 21
5.78515
 31
0.0
  0
LINE
  8
0
 62
     0
 10
6.98178
 20
5.78515
 30
0.0
 11
7.44422
 21
6.34386
 31
0.0
  0
LINE
  8
0
 62
     0
 10
7.44422
 20
6.34386
 30
0.0
 11
7.93056
 21
6.93056
 31
0.0
  0
LINE
  8
0
 62
     0
 10
7.93056
 20
6.93056
 30
0.0
 11
8.59293
 21
6.303
 31
0.0
  0
LINE
  8
0
 62
     0
 10
8.59293
 20
6.303
 30
0.0
 11
9.22244
 21
5.69797
 31
0.0
  0
LINE
  8
0
 62
     0
 10
9.22244
 20
5.69797
 30
0.0
 11
9.81907
 21
5.1155
 31
0.0
  0
LINE
  8
0
 62
     0
 10
9.81907
 20
5.1155
 30
0.0
 11
10.3828
 21
4.55561
 31
0.0
  0
LINE
  8
0
 62
     0
 10
10.3828
 20
4.55561
 30
0.0
 11
10.9137
 21
4.01828
 31
0.0
  0
LINE
  8
0
 62
     0
 10
10.9137
 20
4.01828
 30
0.0
 11
11.4117
 21
3.50353
 31
0.0
  0
LINE
  8
0
 62
     0
 10
11.4117
 20
3.50353
 30
0.0
 11
11.8768
 21
3.01133
 31
0.0
  0
LINE
  8
0
 62
     0
 10
11.8768
 20
3.01133
 30
0.0
 11
12.309
 21
2.54172
 31
0.0
  0
LINE
  8
0
 62
     0
 10
12.309
 20
2.54172
 30
0.0
 11
12.7083
 21
2.09467
 31
0.0
  0
LINE
  8
0
 62
     0
 10
12.7083
 20
2.09467
 30
0.0
 11
13.0748
 21
1.67019
 31
0.0
  0
LINE
  8
0
 62
     0
 10
13.0748
 20
1.67019
 30
0.0
 11
13.4084
 21
1.26828
 31
0.0
  0
LINE
  8
0
 62
     0
 10
13.4084
 20
1.26828
 30
0.0
 11
13.7092
 21
0.888943
 31
0.0
  0
LINE
  8
0
 62
     0
 10
13.7092
 20
0.888943
 30
0.0
 11
13.9769
 21
0.532172
 31
0.0
  0
LINE
  8
0
 62
     0
 10
13.9769
 20
0.532172
 30
0.0
 11
14.2119
 21
0.197971
 31
0.0
  0
LINE
  8
0
 62
     0
 10
14.2119
 20
0.197971
 30
0.0
 11
14.414
 21
-0.113661
 31
0.0
  0
LINE
  8
0
 62
     0
 10
14.414
 20
-0.113661
 30
0.0
 11
14.5833
 21
-0.402778
 31
0.0
  0
LINE
  8
0
 62
     0
 10
14.5833
 20
-0.402778
 30
0.0
 11
14.7118
 21
-0.564182
 31
0.0
  0
LINE
  8
0
 62
     0
 10
14.7118
 20
-0.564182
 30
0.0
 11
14.8889
 21
-0.687446
 31
0.0
  0
LINE
  8
0
 62
     0
 10
14.8889
 20
-0.687446
 30
0.0
 11
15.1146
 21
-0.772515
 31
0.0
  0
LINE
  8
0
 62
     0
 10
15.1146
 20
-0.772515
 30
0.0
 11
15.3889
 21
-0.819444
 31
0.0
  0
LINE
  8
0
 62
     0
 10
15.3889
 20
-0.819444
 30
0.0
 11
15.6528
 21
-0.831597
 31
0.0
  0
LINE
  8
0
 62
     0
 10
15.6528
 20
-0.831597
 30
0.0
 11
15.9306
 21
-0.8125
 31
0.0
  0
LINE
  8
0
 62
     0
 10
15.9306
 20
-0.8125
 30
0.0
 11
16.2222
 21
-0.762099
 31
0.0
  0
LINE
  8
0
 62
     0
 10
16.2222
 20
-0.762099
 30
0.0
 11
16.5278
 21
-0.680556
 31
0.0
  0
LINE
  8
0
 62
     0
 10
16.5278
 20
-0.680556
 30
0.0
 11
16.8168
 21
-0.582411
 31
0.0
  0
LINE
  8
0
 62
     0
 10
16.8168
 20
-0.582411
 30
0.0
 11
17.0729
 21
-0.46875
 31
0.0
  0
LINE
  8
0
 62
     0
 10
17.0729
 20
-0.46875
 30
0.0
 11
17.296
 21
-0.33941
 31
0.0
  0
LINE
  8
0
 62
     0
 10
17.296
 20
-0.33941
 30
0.0
 11
17.4861
 21
-0.194444
 31
0.0
  0
LINE
  8
0
 62
     0
 10
17.4861
 20
-0.194444
 30
0.0
 11
17.6397
 21
-0.0303819
 31
0.0
  0
LINE
  8
0
 62
     0
 10
17.6397
 20
-0.0303819
 30
0.0
 11
17.7257
 21
0.128472
 31
0.0
  0
LINE
  8
0
 62
     0
 10
17.7257
 20
0.128472
 30
0.0
 11
17.7439
 21
0.282118
 31
0.0
  0
LINE
  8
0
 62
     0
 10
17.7439
 20
0.282118
 30
0.0
 11
17.6944
 21
0.430556
 31
0.0
  0
LINE
  8
0
 62
     0
 10
17.6944
 20
0.430556
 30
0.0
 11
17.404
 21
0.920139
 31
0.0
  0
LINE
  8
0
 62
     0
 10
17.404
 20
0.920139
 30
0.0
 11
17.0815
 21
1.41667
 31
0.0
  0
LINE
  8
0
 62
     0
 10
17.0815
 20
1.41667
 30
0.0
 11
16.7269
 21
1.92014
 31
0.0
  0
LINE
  8
0
 62
     0
 10
16.7269
 20
1.92014
 30
0.0
 11
16.3403
 21
2.43056
 31
0.0
  0
LINE
  8
0
 62
     0
 10
16.3403
 20
2.43056
 30
0.0
 11
15.9214
 21
2.94792
 31
0.0
  0
LINE
  8
0
 62
     0
 10
15.9214
 20
2.94792
 30
0.0
 11
15.4704
 21
3.47222
 31
0.0
  0
LINE
  8
0
 62
     0
 10
15.4704
 20
3.47222
 30
0.0
 11
14.9874
 21
4.00347
 31
0.0
  0
LINE
  8
0
 62
     0
 10
14.9874
 20
4.00347
 30
0.0
 11
14.4722
 21
4.54167
 31
0.0
  0
LINE
  8
0
 62
     0
 10
14.4722
 20
4.54167
 30
0.0
 11
14.306
 21
4.70687
 31
0.0
  0
LINE
  8
0
 62
     0
 10
14.306
 20
4.70687
 30
0.0
 11
14.1199
 21
4.88981
 31
0.0
  0
LINE
  8
0
 62
     0
 10
14.1199
 20
4.88981
 30
0.0
 11
13.9136
 21
5.09056
 31
0.0
  0
LINE
  8
0
 62
     0
 10
13.9136
 20
5.09056
 30
0.0
 11
13.6875
 21
5.30908
 31
0.0
  0
LINE
  8
0
 62
     0
 10
13.6875
 20
5.30908
 30
0.0
 11
13.4414
 21
5.54542
 31
0.0
  0
LINE
  8
0
 62
     0
 10
13.4414
 20
5.54542
 30
0.0
 11
13.1753
 21
5.79953
 31
0.0
  0
LINE
  8
0
 62
     0
 10
13.1753
 20
5.79953
 30
0.0
 11
12.8893
 21
6.07146
 31
0.0
  0
LINE
  8
0
 62
     0
 10
12.8893
 20
6.07146
 30
0.0
 11
12.5833
 21
6.36111
 31
0.0
  0
LINE
  8
0
 62
     0
 10
12.5833
 20
6.36111
 30
0.0
 11
12.2713
 21
6.65392
 31
0.0
  0
LINE
  8
0
 62
     0
 10
12.2713
 20
6.65392
 30
0.0
 11
11.9809
 21
6.928
 31
0.0
  0
LINE
  8
0
 62
     0
 10
11.9809
 20
6.928
 30
0.0
 11
11.7122
 21
7.18343
 31
0.0
  0
LINE
  8
0
 62
     0
 10
11.7122
 20
7.18343
 30
0.0
 11
11.4653
 21
7.42019
 31
0.0
  0
LINE
  8
0
 62
     0
 10
11.4653
 20
7.42019
 30
0.0
 11
11.24
 21
7.63829
 31
0.0
  0
LINE
  8
0
 62
     0
 10
11.24
 20
7.63829
 30
0.0
 11
11.0365
 21
7.83772
 31
0.0
  0
LINE
  8
0
 62
     0
 10
11.0365
 20
7.83772
 30
0.0
 11
10.8546
 21
8.0185
 31
0.0
  0
LINE
  8
0
 62
     0
 10
10.8546
 20
8.0185
 30
0.0
 11
10.6944
 21
8.18056
 31
0.0
  0
LINE
  8
0
 62
     0
 10
10.6944
 20
8.18056
 30
0.0
 11
10.5096
 21
8.36111
 31
0.0
  0
LINE
  8
0
 62
     0
 10
10.5096
 20
8.36111
 30
0.0
 11
10.2882
 21
8.58333
 31
0.0
  0
LINE
  8
0
 62
     0
 10
10.2882
 20
8.58333
 30
0.0
 11
10.0304
 21
8.84728
 31
0.0
  0
LINE
  8
0
 62
     0
 10
10.0304
 20
8.84728
 30
0.0
 11
9.73611
 21
9.15278
 31
0.0
  0
ENDSEC
  0
EOF
