  0
SECTION
  2
HEADER
  9
$ACADVER
  1
AC1009
  9
$EXTMIN
 10
0.0
 20
0.0
 30
0.0
  9
$EXTMAX
 10
1000.0
 20
1000.0
 30
0.0
  9
$FILLMODE
 70
 0
  9
$SPLFRAME
 70
 1
  0
ENDSEC
  0
SECTION
  2
TABLES
  0
TABLE
  2
LAYER
 70
1
  0
LAYER
  2
0
 70
     0
 62
     7
  6
CONTINUOUS
  0
ENDTAB
  0
ENDSEC
  0
SECTION
  2
ENTITIES
  0
LINE
  8
0
 62
     0
 10
7.33333
 20
19.6528
 30
0.0
 11
7.29861
 21
19.5972
 31
0.0
  0
LINE
  8
0
 62
     0
 10
7.29861
 20
19.5972
 30
0.0
 11
7.27778
 21
19.5694
 31
0.0
  0
LINE
  8
0
 62
     0
 10
7.27778
 20
19.5694
 30
0.0
 11
7.27778
 21
19.5694
 31
0.0
  0
LINE
  8
0
 62
     0
 10
7.27778
 20
19.5694
 30
0.0
 11
7.27778
 21
19.5694
 31
0.0
  0
LINE
  8
0
 62
     0
 10
7.27778
 20
19.5694
 30
0.0
 11
7.27778
 21
19.5556
 31
0.0
  0
LINE
  8
0
 62
     0
 10
7.27778
 20
19.5556
 30
0.0
 11
7.27778
 21
19.5556
 31
0.0
  0
LINE
  8
0
 62
     0
 10
7.27778
 20
19.5556
 30
0.0
 11
7.07394
 21
19.2485
 31
0.0
  0
LINE
  8
0
 62
     0
 10
7.07394
 20
19.2485
 30
0.0
 11
6.8654
 21
18.9037
 31
0.0
  0
LINE
  8
0
 62
     0
 10
6.8654
 20
18.9037
 30
0.0
 11
6.65207
 21
18.5211
 31
0.0
  0
LINE
  8
0
 62
     0
 10
6.65207
 20
18.5211
 30
0.0
 11
6.43397
 21
18.1007
 31
0.0
  0
LINE
  8
0
 62
     0
 10
6.43397
 20
18.1007
 30
0.0
 11
6.2111
 21
17.6426
 31
0.0
  0
LINE
  8
0
 62
     0
 10
6.2111
 20
17.6426
 30
0.0
 11
5.98346
 21
17.1467
 31
0.0
  0
LINE
  8
0
 62
     0
 10
5.98346
 20
17.1467
 30
0.0
 11
5.75103
 21
16.6131
 31
0.0
  0
LINE
  8
0
 62
     0
 10
5.75103
 20
16.6131
 30
0.0
 11
5.51389
 21
16.0417
 31
0.0
  0
LINE
  8
0
 62
     0
 10
5.51389
 20
16.0417
 30
0.0
 11
5.25999
 21
15.4336
 31
0.0
  0
LINE
  8
0
 62
     0
 10
5.25999
 20
15.4336
 30
0.0
 11
5.0191
 21
14.8733
 31
0.0
  0
LINE
  8
0
 62
     0
 10
5.0191
 20
14.8733
 30
0.0
 11
4.79124
 21
14.3607
 31
0.0
  0
LINE
  8
0
 62
     0
 10
4.79124
 20
14.3607
 30
0.0
 11
4.57639
 21
13.8958
 31
0.0
  0
LINE
  8
0
 62
     0
 10
4.57639
 20
13.8958
 30
0.0
 11
4.37457
 21
13.4788
 31
0.0
  0
LINE
  8
0
 62
     0
 10
4.37457
 20
13.4788
 30
0.0
 11
4.18576
 21
13.1094
 31
0.0
  0
LINE
  8
0
 62
     0
 10
4.18576
 20
13.1094
 30
0.0
 11
4.00999
 21
12.7878
 31
0.0
  0
LINE
  8
0
 62
     0
 10
4.00999
 20
12.7878
 30
0.0
 11
3.84722
 21
12.5139
 31
0.0
  0
LINE
  8
0
 62
     0
 10
3.84722
 20
12.5139
 30
0.0
 11
3.72917
 21
12.7385
 31
0.0
  0
LINE
  8
0
 62
     0
 10
3.72917
 20
12.7385
 30
0.0
 11
3.59722
 21
13.0026
 31
0.0
  0
LINE
  8
0
 62
     0
 10
3.59722
 20
13.0026
 30
0.0
 11
3.45139
 21
13.3062
 31
0.0
  0
LINE
  8
0
 62
     0
 10
3.45139
 20
13.3062
 30
0.0
 11
3.29167
 21
13.6493
 31
0.0
  0
LINE
  8
0
 62
     0
 10
3.29167
 20
13.6493
 30
0.0
 11
3.11806
 21
14.0319
 31
0.0
  0
LINE
  8
0
 62
     0
 10
3.11806
 20
14.0319
 30
0.0
 11
2.93056
 21
14.454
 31
0.0
  0
LINE
  8
0
 62
     0
 10
2.93056
 20
14.454
 30
0.0
 11
2.72917
 21
14.9156
 31
0.0
  0
LINE
  8
0
 62
     0
 10
2.72917
 20
14.9156
 30
0.0
 11
2.51389
 21
15.4167
 31
0.0
  0
LINE
  8
0
 62
     0
 10
2.51389
 20
15.4167
 30
0.0
 11
2.31901
 21
15.875
 31
0.0
  0
LINE
  8
0
 62
     0
 10
2.31901
 20
15.875
 30
0.0
 11
2.13021
 21
16.3056
 31
0.0
  0
LINE
  8
0
 62
     0
 10
2.13021
 20
16.3056
 30
0.0
 11
1.94749
 21
16.7083
 31
0.0
  0
LINE
  8
0
 62
     0
 10
1.94749
 20
16.7083
 30
0.0
 11
1.77083
 21
17.0833
 31
0.0
  0
LINE
  8
0
 62
     0
 10
1.77083
 20
17.0833
 30
0.0
 11
1.60026
 21
17.4306
 31
0.0
  0
LINE
  8
0
 62
     0
 10
1.60026
 20
17.4306
 30
0.0
 11
1.43576
 21
17.75
 31
0.0
  0
LINE
  8
0
 62
     0
 10
1.43576
 20
17.75
 30
0.0
 11
1.27734
 21
18.0417
 31
0.0
  0
LINE
  8
0
 62
     0
 10
1.27734
 20
18.0417
 30
0.0
 11
1.125
 21
18.3056
 31
0.0
  0
LINE
  8
0
 62
     0
 10
1.125
 20
18.3056
 30
0.0
 11
1.03559
 21
18.4107
 31
0.0
  0
LINE
  8
0
 62
     0
 10
1.03559
 20
18.4107
 30
0.0
 11
0.920139
 21
18.4899
 31
0.0
  0
LINE
  8
0
 62
     0
 10
0.920139
 20
18.4899
 30
0.0
 11
0.778592
 21
18.5428
 31
0.0
  0
LINE
  8
0
 62
     0
 10
0.778592
 20
18.5428
 30
0.0
 11
0.611111
 21
18.5694
 31
0.0
  0
LINE
  8
0
 62
     0
 10
0.611111
 20
18.5694
 30
0.0
 11
0.274306
 21
18.5625
 31
0.0
  0
LINE
  8
0
 62
     0
 10
0.274306
 20
18.5625
 30
0.0
 11
-0.0694444
 21
18.4583
 31
0.0
  0
LINE
  8
0
 62
     0
 10
-0.0694444
 20
18.4583
 30
0.0
 11
-0.24311
 21
18.376
 31
0.0
  0
LINE
  8
0
 62
     0
 10
-0.24311
 20
18.376
 30
0.0
 11
-0.388943
 21
18.2813
 31
0.0
  0
LINE
  8
0
 62
     0
 10
-0.388943
 20
18.2813
 30
0.0
 11
-0.506999
 21
18.1746
 31
0.0
  0
LINE
  8
0
 62
     0
 10
-0.506999
 20
18.1746
 30
0.0
 11
-0.597222
 21
18.0556
 31
0.0
  0
LINE
  8
0
 62
     0
 10
-0.597222
 20
18.0556
 30
0.0
 11
-0.665853
 21
17.9167
 31
0.0
  0
LINE
  8
0
 62
     0
 10
-0.665853
 20
17.9167
 30
0.0
 11
-0.691026
 21
17.7778
 31
0.0
  0
LINE
  8
0
 62
     0
 10
-0.691026
 20
17.7778
 30
0.0
 11
-0.672797
 21
17.6389
 31
0.0
  0
LINE
  8
0
 62
     0
 10
-0.672797
 20
17.6389
 30
0.0
 11
-0.611111
 21
17.5
 31
0.0
  0
LINE
  8
0
 62
     0
 10
-0.611111
 20
17.5
 30
0.0
 11
-0.454644
 21
17.2297
 31
0.0
  0
LINE
  8
0
 62
     0
 10
-0.454644
 20
17.2297
 30
0.0
 11
-0.283854
 21
16.9115
 31
0.0
  0
LINE
  8
0
 62
     0
 10
-0.283854
 20
16.9115
 30
0.0
 11
-0.0987414
 21
16.5457
 31
0.0
  0
LINE
  8
0
 62
     0
 10
-0.0987414
 20
16.5457
 30
0.0
 11
0.100694
 21
16.1319
 31
0.0
  0
LINE
  8
0
 62
     0
 10
0.100694
 20
16.1319
 30
0.0
 11
0.314399
 21
15.6707
 31
0.0
  0
LINE
  8
0
 62
     0
 10
0.314399
 20
15.6707
 30
0.0
 11
0.542481
 21
15.1615
 31
0.0
  0
LINE
  8
0
 62
     0
 10
0.542481
 20
15.1615
 30
0.0
 11
0.784885
 21
14.6047
 31
0.0
  0
LINE
  8
0
 62
     0
 10
0.784885
 20
14.6047
 30
0.0
 11
1.04167
 21
14
 31
0.0
  0
LINE
  8
0
 62
     0
 10
1.04167
 20
14
 30
0.0
 11
1.2819
 21
13.448
 31
0.0
  0
LINE
  8
0
 62
     0
 10
1.2819
 20
13.448
 30
0.0
 11
1.5165
 21
12.9306
 31
0.0
  0
LINE
  8
0
 62
     0
 10
1.5165
 20
12.9306
 30
0.0
 11
1.74544
 21
12.448
 31
0.0
  0
LINE
  8
0
 62
     0
 10
1.74544
 20
12.448
 30
0.0
 11
1.96875
 21
12.0001
 31
0.0
  0
LINE
  8
0
 62
     0
 10
1.96875
 20
12.0001
 30
0.0
 11
2.18642
 21
11.5869
 31
0.0
  0
LINE
  8
0
 62
     0
 10
2.18642
 20
11.5869
 30
0.0
 11
2.39844
 21
11.2084
 31
0.0
  0
LINE
  8
0
 62
     0
 10
2.39844
 20
11.2084
 30
0.0
 11
2.60482
 21
10.8646
 31
0.0
  0
LINE
  8
0
 62
     0
 10
2.60482
 20
10.8646
 30
0.0
 11
2.80556
 21
10.5556
 31
0.0
  0
LINE
  8
0
 62
     0
 10
2.80556
 20
10.5556
 30
0.0
 11
2.94526
 21
10.4097
 31
0.0
  0
LINE
  8
0
 62
     0
 10
2.94526
 20
10.4097
 30
0.0
 11
3.12842
 21
10.3194
 31
0.0
  0
LINE
  8
0
 62
     0
 10
3.12842
 20
10.3194
 30
0.0
 11
3.35499
 21
10.2847
 31
0.0
  0
LINE
  8
0
 62
     0
 10
3.35499
 20
10.2847
 30
0.0
 11
3.625
 21
10.3056
 31
0.0
  0
LINE
  8
0
 62
     0
 10
3.625
 20
10.3056
 30
0.0
 11
3.87935
 21
10.3672
 31
0.0
  0
LINE
  8
0
 62
     0
 10
3.87935
 20
10.3672
 30
0.0
 11
4.10069
 21
10.4549
 31
0.0
  0
LINE
  8
0
 62
     0
 10
4.10069
 20
10.4549
 30
0.0
 11
4.28907
 21
10.5686
 31
0.0
  0
LINE
  8
0
 62
     0
 10
4.28907
 20
10.5686
 30
0.0
 11
4.44444
 21
10.7083
 31
0.0
  0
LINE
  8
0
 62
     0
 10
4.44444
 20
10.7083
 30
0.0
 11
4.44097
 21
10.7083
 31
0.0
  0
LINE
  8
0
 62
     0
 10
4.44097
 20
10.7083
 30
0.0
 11
4.44444
 21
10.7153
 31
0.0
  0
LINE
  8
0
 62
     0
 10
4.44444
 20
10.7153
 30
0.0
 11
4.45486
 21
10.7292
 31
0.0
  0
LINE
  8
0
 62
     0
 10
4.45486
 20
10.7292
 30
0.0
 11
4.47222
 21
10.75
 31
0.0
  0
LINE
  8
0
 62
     0
 10
4.47222
 20
10.75
 30
0.0
 11
4.49653
 21
10.7778
 31
0.0
  0
LINE
  8
0
 62
     0
 10
4.49653
 20
10.7778
 30
0.0
 11
4.52778
 21
10.8125
 31
0.0
  0
LINE
  8
0
 62
     0
 10
4.52778
 20
10.8125
 30
0.0
 11
4.56597
 21
10.8542
 31
0.0
  0
LINE
  8
0
 62
     0
 10
4.56597
 20
10.8542
 30
0.0
 11
4.61111
 21
10.9028
 31
0.0
  0
LINE
  8
0
 62
     0
 10
4.61111
 20
10.9028
 30
0.0
 11
4.31267
 21
9.5471
 31
0.0
  0
LINE
  8
0
 62
     0
 10
4.31267
 20
9.5471
 30
0.0
 11
4.04943
 21
8.19532
 31
0.0
  0
LINE
  8
0
 62
     0
 10
4.04943
 20
8.19532
 30
0.0
 11
3.82135
 21
6.84744
 31
0.0
  0
LINE
  8
0
 62
     0
 10
3.82135
 20
6.84744
 30
0.0
 11
3.62847
 21
5.50347
 31
0.0
  0
LINE
  8
0
 62
     0
 10
3.62847
 20
5.50347
 30
0.0
 11
3.47071
 21
4.16347
 31
0.0
  0
LINE
  8
0
 62
     0
 10
3.47071
 20
4.16347
 30
0.0
 11
3.3481
 21
2.82731
 31
0.0
  0
LINE
  8
0
 62
     0
 10
3.3481
 20
2.82731
 30
0.0
 11
3.26064
 21
1.49507
 31
0.0
  0
LINE
  8
0
 62
     0
 10
3.26064
 20
1.49507
 30
0.0
 11
3.20833
 21
0.166667
 31
0.0
  0
LINE
  8
0
 62
     0
 10
3.20833
 20
0.166667
 30
0.0
 11
3.22043
 21
0.0112847
 31
0.0
  0
LINE
  8
0
 62
     0
 10
3.22043
 20
0.0112847
 30
0.0
 11
3.27078
 21
-0.121528
 31
0.0
  0
LINE
  8
0
 62
     0
 10
3.27078
 20
-0.121528
 30
0.0
 11
3.35932
 21
-0.231771
 31
0.0
  0
LINE
  8
0
 62
     0
 10
3.35932
 20
-0.231771
 30
0.0
 11
3.48611
 21
-0.319444
 31
0.0
  0
LINE
  8
0
 62
     0
 10
3.48611
 20
-0.319444
 30
0.0
 11
3.62587
 21
-0.376736
 31
0.0
  0
LINE
  8
0
 62
     0
 10
3.62587
 20
-0.376736
 30
0.0
 11
3.78125
 21
-0.409722
 31
0.0
  0
LINE
  8
0
 62
     0
 10
3.78125
 20
-0.409722
 30
0.0
 11
3.95221
 21
-0.418403
 31
0.0
  0
LINE
  8
0
 62
     0
 10
3.95221
 20
-0.418403
 30
0.0
 11
4.13889
 21
-0.402778
 31
0.0
  0
LINE
  8
0
 62
     0
 10
4.13889
 20
-0.402778
 30
0.0
 11
4.32032
 21
-0.372342
 31
0.0
  0
LINE
  8
0
 62
     0
 10
4.32032
 20
-0.372342
 30
0.0
 11
4.48958
 21
-0.322862
 31
0.0
  0
LINE
  8
0
 62
     0
 10
4.48958
 20
-0.322862
 30
0.0
 11
4.64671
 21
-0.254286
 31
0.0
  0
LINE
  8
0
 62
     0
 10
4.64671
 20
-0.254286
 30
0.0
 11
4.79167
 21
-0.166667
 31
0.0
  0
LINE
  8
0
 62
     0
 10
4.79167
 20
-0.166667
 30
0.0
 11
4.92535
 21
-0.0572917
 31
0.0
  0
LINE
  8
0
 62
     0
 10
4.92535
 20
-0.0572917
 30
0.0
 11
5.02083
 21
0.0625
 31
0.0
  0
LINE
  8
0
 62
     0
 10
5.02083
 20
0.0625
 30
0.0
 11
5.07813
 21
0.192708
 31
0.0
  0
LINE
  8
0
 62
     0
 10
5.07813
 20
0.192708
 30
0.0
 11
5.09722
 21
0.333333
 31
0.0
  0
LINE
  8
0
 62
     0
 10
5.09722
 20
0.333333
 30
0.0
 11
5.14367
 21
1.51303
 31
0.0
  0
LINE
  8
0
 62
     0
 10
5.14367
 20
1.51303
 30
0.0
 11
5.21701
 21
2.69428
 31
0.0
  0
LINE
  8
0
 62
     0
 10
5.21701
 20
2.69428
 30
0.0
 11
5.31728
 21
3.87717
 31
0.0
  0
LINE
  8
0
 62
     0
 10
5.31728
 20
3.87717
 30
0.0
 11
5.44444
 21
5.06168
 31
0.0
  0
LINE
  8
0
 62
     0
 10
5.44444
 20
5.06168
 30
0.0
 11
5.59853
 21
6.24783
 31
0.0
  0
LINE
  8
0
 62
     0
 10
5.59853
 20
6.24783
 30
0.0
 11
5.77951
 21
7.4356
 31
0.0
  0
LINE
  8
0
 62
     0
 10
5.77951
 20
7.4356
 30
0.0
 11
5.98742
 21
8.625
 31
0.0
  0
LINE
  8
0
 62
     0
 10
5.98742
 20
8.625
 30
0.0
 11
6.22222
 21
9.81597
 31
0.0
  0
LINE
  8
0
 62
     0
 10
6.22222
 20
9.81597
 30
0.0
 11
6.48394
 21
11.0086
 31
0.0
  0
LINE
  8
0
 62
     0
 10
6.48394
 20
11.0086
 30
0.0
 11
6.77257
 21
12.2029
 31
0.0
  0
LINE
  8
0
 62
     0
 10
6.77257
 20
12.2029
 30
0.0
 11
7.08811
 21
13.3988
 31
0.0
  0
LINE
  8
0
 62
     0
 10
7.08811
 20
13.3988
 30
0.0
 11
7.43056
 21
14.5964
 31
0.0
  0
LINE
  8
0
 62
     0
 10
7.43056
 20
14.5964
 30
0.0
 11
7.79992
 21
15.7956
 31
0.0
  0
LINE
  8
0
 62
     0
 10
7.79992
 20
15.7956
 30
0.0
 11
8.19618
 21
16.9962
 31
0.0
  0
LINE
  8
0
 62
     0
 10
8.19618
 20
16.9962
 30
0.0
 11
8.61936
 21
18.1988
 31
0.0
  0
LINE
  8
0
 62
     0
 10
8.61936
 20
18.1988
 30
0.0
 11
9.06944
 21
19.4028
 31
0.0
  0
LINE
  8
0
 62
     0
 10
9.06944
 20
19.4028
 30
0.0
 11
9.11285
 21
19.5549
 31
0.0
  0
LINE
  8
0
 62
     0
 10
9.11285
 20
19.5549
 30
0.0
 11
9.11806
 21
19.6913
 31
0.0
  0
LINE
  8
0
 62
     0
 10
9.11806
 20
19.6913
 30
0.0
 11
9.08507
 21
19.8118
 31
0.0
  0
LINE
  8
0
 62
     0
 10
9.08507
 20
19.8118
 30
0.0
 11
9.01389
 21
19.9167
 31
0.0
  0
LINE
  8
0
 62
     0
 10
9.01389
 20
19.9167
 30
0.0
 11
8.92014
 21
19.9914
 31
0.0
  0
LINE
  8
0
 62
     0
 10
8.92014
 20
19.9914
 30
0.0
 11
8.80556
 21
20.0486
 31
0.0
  0
LINE
  8
0
 62
     0
 10
8.80556
 20
20.0486
 30
0.0
 11
8.67014
 21
20.0886
 31
0.0
  0
LINE
  8
0
 62
     0
 10
8.67014
 20
20.0886
 30
0.0
 11
8.51389
 21
20.1111
 31
0.0
  0
LINE
  8
0
 62
     0
 10
8.51389
 20
20.1111
 30
0.0
 11
8.32004
 21
20.1172
 31
0.0
  0
LINE
  8
0
 62
     0
 10
8.32004
 20
20.1172
 30
0.0
 11
8.14144
 21
20.1076
 31
0.0
  0
LINE
  8
0
 62
     0
 10
8.14144
 20
20.1076
 30
0.0
 11
7.97803
 21
20.0825
 31
0.0
  0
LINE
  8
0
 62
     0
 10
7.97803
 20
20.0825
 30
0.0
 11
7.82981
 21
20.0417
 31
0.0
  0
LINE
  8
0
 62
     0
 10
7.82981
 20
20.0417
 30
0.0
 11
7.69678
 21
19.9853
 31
0.0
  0
LINE
  8
0
 62
     0
 10
7.69678
 20
19.9853
 30
0.0
 11
7.57894
 21
19.9132
 31
0.0
  0
LINE
  8
0
 62
     0
 10
7.57894
 20
19.9132
 30
0.0
 11
7.47629
 21
19.8256
 31
0.0
  0
LINE
  8
0
 62
     0
 10
7.47629
 20
19.8256
 30
0.0
 11
7.38889
 21
19.7222
 31
0.0
  0
LINE
  8
0
 62
     0
 10
7.38889
 20
19.7222
 30
0.0
 11
7.368
 21
19.691
 31
0.0
  0
LINE
  8
0
 62
     0
 10
7.368
 20
19.691
 30
0.0
 11
7.33333
 21
19.6528
 31
0.0
  0
ENDSEC
  0
EOF
