  0
SECTION
  2
HEADER
  9
$ACADVER
  1
AC1009
  9
$EXTMIN
 10
0.0
 20
0.0
 30
0.0
  9
$EXTMAX
 10
1000.0
 20
1000.0
 30
0.0
  9
$FILLMODE
 70
 0
  9
$SPLFRAME
 70
 1
  0
ENDSEC
  0
SECTION
  2
TABLES
  0
TABLE
  2
LAYER
 70
1
  0
LAYER
  2
0
 70
     0
 62
     7
  6
CONTINUOUS
  0
ENDTAB
  0
ENDSEC
  0
SECTION
  2
ENTITIES
  0
LINE
  8
0
 62
     0
 10
5.83333
 20
11.7361
 30
0.0
 11
5.62494
 21
11.178
 31
0.0
  0
LINE
  8
0
 62
     0
 10
5.62494
 20
11.178
 30
0.0
 11
5.4305
 21
10.684
 31
0.0
  0
LINE
  8
0
 62
     0
 10
5.4305
 20
10.684
 30
0.0
 11
5.24994
 21
10.2543
 31
0.0
  0
LINE
  8
0
 62
     0
 10
5.24994
 20
10.2543
 30
0.0
 11
5.08333
 21
9.88889
 31
0.0
  0
LINE
  8
0
 62
     0
 10
5.08333
 20
9.88889
 30
0.0
 11
4.95394
 21
9.62608
 31
0.0
  0
LINE
  8
0
 62
     0
 10
4.95394
 20
9.62608
 30
0.0
 11
4.82633
 21
9.38976
 31
0.0
  0
LINE
  8
0
 62
     0
 10
4.82633
 20
9.38976
 30
0.0
 11
4.70047
 21
9.1799
 31
0.0
  0
LINE
  8
0
 62
     0
 10
4.70047
 20
9.1799
 30
0.0
 11
4.57633
 21
8.99653
 31
0.0
  0
LINE
  8
0
 62
     0
 10
4.57633
 20
8.99653
 30
0.0
 11
4.45394
 21
8.83963
 31
0.0
  0
LINE
  8
0
 62
     0
 10
4.45394
 20
8.83963
 30
0.0
 11
4.33328
 21
8.70921
 31
0.0
  0
LINE
  8
0
 62
     0
 10
4.33328
 20
8.70921
 30
0.0
 11
4.21436
 21
8.60525
 31
0.0
  0
LINE
  8
0
 62
     0
 10
4.21436
 20
8.60525
 30
0.0
 11
4.09717
 21
8.52778
 31
0.0
  0
LINE
  8
0
 62
     0
 10
4.09717
 20
8.52778
 30
0.0
 11
3.98172
 21
8.47678
 31
0.0
  0
LINE
  8
0
 62
     0
 10
3.98172
 20
8.47678
 30
0.0
 11
3.868
 21
8.45226
 31
0.0
  0
LINE
  8
0
 62
     0
 10
3.868
 20
8.45226
 30
0.0
 11
3.75603
 21
8.45421
 31
0.0
  0
LINE
  8
0
 62
     0
 10
3.75603
 20
8.45421
 30
0.0
 11
3.64578
 21
8.48264
 31
0.0
  0
LINE
  8
0
 62
     0
 10
3.64578
 20
8.48264
 30
0.0
 11
3.53728
 21
8.53754
 31
0.0
  0
LINE
  8
0
 62
     0
 10
3.53728
 20
8.53754
 30
0.0
 11
3.4305
 21
8.61893
 31
0.0
  0
LINE
  8
0
 62
     0
 10
3.4305
 20
8.61893
 30
0.0
 11
3.32547
 21
8.72678
 31
0.0
  0
LINE
  8
0
 62
     0
 10
3.32547
 20
8.72678
 30
0.0
 11
3.22222
 21
8.86111
 31
0.0
  0
LINE
  8
0
 62
     0
 10
3.22222
 20
8.86111
 30
0.0
 11
3.07443
 21
9.09765
 31
0.0
  0
LINE
  8
0
 62
     0
 10
3.07443
 20
9.09765
 30
0.0
 11
2.93664
 21
9.3559
 31
0.0
  0
LINE
  8
0
 62
     0
 10
2.93664
 20
9.3559
 30
0.0
 11
2.80881
 21
9.63585
 31
0.0
  0
LINE
  8
0
 62
     0
 10
2.80881
 20
9.63585
 30
0.0
 11
2.69097
 21
9.9375
 31
0.0
  0
LINE
  8
0
 62
     0
 10
2.69097
 20
9.9375
 30
0.0
 11
2.58311
 21
10.2608
 31
0.0
  0
LINE
  8
0
 62
     0
 10
2.58311
 20
10.2608
 30
0.0
 11
2.48525
 21
10.6059
 31
0.0
  0
LINE
  8
0
 62
     0
 10
2.48525
 20
10.6059
 30
0.0
 11
2.39735
 21
10.9727
 31
0.0
  0
LINE
  8
0
 62
     0
 10
2.39735
 20
10.9727
 30
0.0
 11
2.31944
 21
11.3611
 31
0.0
  0
LINE
  8
0
 62
     0
 10
2.31944
 20
11.3611
 30
0.0
 11
2.27078
 21
11.645
 31
0.0
  0
LINE
  8
0
 62
     0
 10
2.27078
 20
11.645
 30
0.0
 11
2.22222
 21
11.9688
 31
0.0
  0
LINE
  8
0
 62
     0
 10
2.22222
 20
11.9688
 30
0.0
 11
2.17361
 21
12.3325
 31
0.0
  0
LINE
  8
0
 62
     0
 10
2.17361
 20
12.3325
 30
0.0
 11
2.125
 21
12.7361
 31
0.0
  0
LINE
  8
0
 62
     0
 10
2.125
 20
12.7361
 30
0.0
 11
2.09196
 21
12.9902
 31
0.0
  0
LINE
  8
0
 62
     0
 10
2.09196
 20
12.9902
 30
0.0
 11
2.06244
 21
13.2179
 31
0.0
  0
LINE
  8
0
 62
     0
 10
2.06244
 20
13.2179
 30
0.0
 11
2.0364
 21
13.4191
 31
0.0
  0
LINE
  8
0
 62
     0
 10
2.0364
 20
13.4191
 30
0.0
 11
2.01383
 21
13.5938
 31
0.0
  0
LINE
  8
0
 62
     0
 10
2.01383
 20
13.5938
 30
0.0
 11
1.99474
 21
13.742
 31
0.0
  0
LINE
  8
0
 62
     0
 10
1.99474
 20
13.742
 30
0.0
 11
1.97911
 21
13.8637
 31
0.0
  0
LINE
  8
0
 62
     0
 10
1.97911
 20
13.8637
 30
0.0
 11
1.96696
 21
13.959
 31
0.0
  0
LINE
  8
0
 62
     0
 10
1.96696
 20
13.959
 30
0.0
 11
1.95833
 21
14.0278
 31
0.0
  0
LINE
  8
0
 62
     0
 10
1.95833
 20
14.0278
 30
0.0
 11
1.92275
 21
14.1086
 31
0.0
  0
LINE
  8
0
 62
     0
 10
1.92275
 20
14.1086
 30
0.0
 11
1.84375
 21
14.1701
 31
0.0
  0
LINE
  8
0
 62
     0
 10
1.84375
 20
14.1701
 30
0.0
 11
1.72136
 21
14.2128
 31
0.0
  0
LINE
  8
0
 62
     0
 10
1.72136
 20
14.2128
 30
0.0
 11
1.55556
 21
14.2361
 31
0.0
  0
LINE
  8
0
 62
     0
 10
1.55556
 20
14.2361
 30
0.0
 11
1.38108
 21
14.2353
 31
0.0
  0
LINE
  8
0
 62
     0
 10
1.38108
 20
14.2353
 30
0.0
 11
1.19097
 21
14.2188
 31
0.0
  0
LINE
  8
0
 62
     0
 10
1.19097
 20
14.2188
 30
0.0
 11
0.985243
 21
14.1867
 31
0.0
  0
LINE
  8
0
 62
     0
 10
0.985243
 20
14.1867
 30
0.0
 11
0.763889
 21
14.1389
 31
0.0
  0
LINE
  8
0
 62
     0
 10
0.763889
 20
14.1389
 30
0.0
 11
0.494792
 21
14.0699
 31
0.0
  0
LINE
  8
0
 62
     0
 10
0.494792
 20
14.0699
 30
0.0
 11
0.263889
 21
13.9949
 31
0.0
  0
LINE
  8
0
 62
     0
 10
0.263889
 20
13.9949
 30
0.0
 11
0.0711806
 21
13.9136
 31
0.0
  0
LINE
  8
0
 62
     0
 10
0.0711806
 20
13.9136
 30
0.0
 11
-0.0833333
 21
13.8264
 31
0.0
  0
LINE
  8
0
 62
     0
 10
-0.0833333
 20
13.8264
 30
0.0
 11
-0.199653
 21
13.7331
 31
0.0
  0
LINE
  8
0
 62
     0
 10
-0.199653
 20
13.7331
 30
0.0
 11
-0.277778
 21
13.6337
 31
0.0
  0
LINE
  8
0
 62
     0
 10
-0.277778
 20
13.6337
 30
0.0
 11
-0.317708
 21
13.5282
 31
0.0
  0
LINE
  8
0
 62
     0
 10
-0.317708
 20
13.5282
 30
0.0
 11
-0.319444
 21
13.4167
 31
0.0
  0
LINE
  8
0
 62
     0
 10
-0.319444
 20
13.4167
 30
0.0
 11
-0.201226
 21
12.623
 31
0.0
  0
LINE
  8
0
 62
     0
 10
-0.201226
 20
12.623
 30
0.0
 11
-0.089464
 21
11.9089
 31
0.0
  0
LINE
  8
0
 62
     0
 10
-0.089464
 20
11.9089
 30
0.0
 11
0.0157878
 21
11.2741
 31
0.0
  0
LINE
  8
0
 62
     0
 10
0.0157878
 20
11.2741
 30
0.0
 11
0.114583
 21
10.7188
 31
0.0
  0
LINE
  8
0
 62
     0
 10
0.114583
 20
10.7188
 30
0.0
 11
0.206814
 21
10.2428
 31
0.0
  0
LINE
  8
0
 62
     0
 10
0.206814
 20
10.2428
 30
0.0
 11
0.292535
 21
9.84636
 31
0.0
  0
LINE
  8
0
 62
     0
 10
0.292535
 20
9.84636
 30
0.0
 11
0.371744
 21
9.52929
 31
0.0
  0
LINE
  8
0
 62
     0
 10
0.371744
 20
9.52929
 30
0.0
 11
0.444444
 21
9.29167
 31
0.0
  0
LINE
  8
0
 62
     0
 10
0.444444
 20
9.29167
 30
0.0
 11
0.555176
 21
9.01269
 31
0.0
  0
LINE
  8
0
 62
     0
 10
0.555176
 20
9.01269
 30
0.0
 11
0.675564
 21
8.75217
 31
0.0
  0
LINE
  8
0
 62
     0
 10
0.675564
 20
8.75217
 30
0.0
 11
0.80561
 21
8.5101
 31
0.0
  0
LINE
  8
0
 62
     0
 10
0.80561
 20
8.5101
 30
0.0
 11
0.945313
 21
8.28646
 31
0.0
  0
LINE
  8
0
 62
     0
 10
0.945313
 20
8.28646
 30
0.0
 11
1.09467
 21
8.08128
 31
0.0
  0
LINE
  8
0
 62
     0
 10
1.09467
 20
8.08128
 30
0.0
 11
1.25369
 21
7.89453
 31
0.0
  0
LINE
  8
0
 62
     0
 10
1.25369
 20
7.89453
 30
0.0
 11
1.42236
 21
7.72624
 31
0.0
  0
LINE
  8
0
 62
     0
 10
1.42236
 20
7.72624
 30
0.0
 11
1.60069
 21
7.57639
 31
0.0
  0
LINE
  8
0
 62
     0
 10
1.60069
 20
7.57639
 30
0.0
 11
1.78868
 21
7.44499
 31
0.0
  0
LINE
  8
0
 62
     0
 10
1.78868
 20
7.44499
 30
0.0
 11
1.98633
 21
7.33203
 31
0.0
  0
LINE
  8
0
 62
     0
 10
1.98633
 20
7.33203
 30
0.0
 11
2.19362
 21
7.23753
 31
0.0
  0
LINE
  8
0
 62
     0
 10
2.19362
 20
7.23753
 30
0.0
 11
2.4106
 21
7.16146
 31
0.0
  0
LINE
  8
0
 62
     0
 10
2.4106
 20
7.16146
 30
0.0
 11
2.63721
 21
7.10385
 31
0.0
  0
LINE
  8
0
 62
     0
 10
2.63721
 20
7.10385
 30
0.0
 11
2.87349
 21
7.06467
 31
0.0
  0
LINE
  8
0
 62
     0
 10
2.87349
 20
7.06467
 30
0.0
 11
3.11942
 21
7.04394
 31
0.0
  0
LINE
  8
0
 62
     0
 10
3.11942
 20
7.04394
 30
0.0
 11
3.375
 21
7.04167
 31
0.0
  0
LINE
  8
0
 62
     0
 10
3.375
 20
7.04167
 30
0.0
 11
3.71094
 21
7.06256
 31
0.0
  0
LINE
  8
0
 62
     0
 10
3.71094
 20
7.06256
 30
0.0
 11
4.03819
 21
7.11117
 31
0.0
  0
LINE
  8
0
 62
     0
 10
4.03819
 20
7.11117
 30
0.0
 11
4.35678
 21
7.18756
 31
0.0
  0
LINE
  8
0
 62
     0
 10
4.35678
 20
7.18756
 30
0.0
 11
4.66667
 21
7.29167
 31
0.0
  0
LINE
  8
0
 62
     0
 10
4.66667
 20
7.29167
 30
0.0
 11
4.29872
 21
6.16368
 31
0.0
  0
LINE
  8
0
 62
     0
 10
4.29872
 20
6.16368
 30
0.0
 11
3.95182
 21
5.07818
 31
0.0
  0
LINE
  8
0
 62
     0
 10
3.95182
 20
5.07818
 30
0.0
 11
3.62597
 21
4.03521
 31
0.0
  0
LINE
  8
0
 62
     0
 10
3.62597
 20
4.03521
 30
0.0
 11
3.32118
 21
3.03478
 31
0.0
  0
LINE
  8
0
 62
     0
 10
3.32118
 20
3.03478
 30
0.0
 11
3.03743
 21
2.07688
 31
0.0
  0
LINE
  8
0
 62
     0
 10
3.03743
 20
2.07688
 30
0.0
 11
2.77474
 21
1.16151
 31
0.0
  0
LINE
  8
0
 62
     0
 10
2.77474
 20
1.16151
 30
0.0
 11
2.5331
 21
0.288683
 31
0.0
  0
LINE
  8
0
 62
     0
 10
2.5331
 20
0.288683
 30
0.0
 11
2.3125
 21
-0.541613
 31
0.0
  0
LINE
  8
0
 62
     0
 10
2.3125
 20
-0.541613
 30
0.0
 11
2.11296
 21
-1.32937
 31
0.0
  0
LINE
  8
0
 62
     0
 10
2.11296
 20
-1.32937
 30
0.0
 11
1.93446
 21
-2.0746
 31
0.0
  0
LINE
  8
0
 62
     0
 10
1.93446
 20
-2.0746
 30
0.0
 11
1.77701
 21
-2.77729
 31
0.0
  0
LINE
  8
0
 62
     0
 10
1.77701
 20
-2.77729
 30
0.0
 11
1.64063
 21
-3.43744
 31
0.0
  0
LINE
  8
0
 62
     0
 10
1.64063
 20
-3.43744
 30
0.0
 11
1.52528
 21
-4.05507
 31
0.0
  0
LINE
  8
0
 62
     0
 10
1.52528
 20
-4.05507
 30
0.0
 11
1.43099
 21
-4.63015
 31
0.0
  0
LINE
  8
0
 62
     0
 10
1.43099
 20
-4.63015
 30
0.0
 11
1.35775
 21
-5.16271
 31
0.0
  0
LINE
  8
0
 62
     0
 10
1.35775
 20
-5.16271
 30
0.0
 11
1.30556
 21
-5.65278
 31
0.0
  0
LINE
  8
0
 62
     0
 10
1.30556
 20
-5.65278
 30
0.0
 11
1.32113
 21
-5.70921
 31
0.0
  0
LINE
  8
0
 62
     0
 10
1.32113
 20
-5.70921
 30
0.0
 11
1.38189
 21
-5.75347
 31
0.0
  0
LINE
  8
0
 62
     0
 10
1.38189
 20
-5.75347
 30
0.0
 11
1.48779
 21
-5.7856
 31
0.0
  0
LINE
  8
0
 62
     0
 10
1.48779
 20
-5.7856
 30
0.0
 11
1.63889
 21
-5.80556
 31
0.0
  0
LINE
  8
0
 62
     0
 10
1.63889
 20
-5.80556
 30
0.0
 11
1.99647
 21
-5.79514
 31
0.0
  0
LINE
  8
0
 62
     0
 10
1.99647
 20
-5.79514
 30
0.0
 11
2.40278
 21
-5.73611
 31
0.0
  0
LINE
  8
0
 62
     0
 10
2.40278
 20
-5.73611
 30
0.0
 11
2.67036
 21
-5.67947
 31
0.0
  0
LINE
  8
0
 62
     0
 10
2.67036
 20
-5.67947
 30
0.0
 11
2.90365
 21
-5.61372
 31
0.0
  0
LINE
  8
0
 62
     0
 10
2.90365
 20
-5.61372
 30
0.0
 11
3.10265
 21
-5.53885
 31
0.0
  0
LINE
  8
0
 62
     0
 10
3.10265
 20
-5.53885
 30
0.0
 11
3.26736
 21
-5.45486
 31
0.0
  0
LINE
  8
0
 62
     0
 10
3.26736
 20
-5.45486
 30
0.0
 11
3.39779
 21
-5.36176
 31
0.0
  0
LINE
  8
0
 62
     0
 10
3.39779
 20
-5.36176
 30
0.0
 11
3.49393
 21
-5.25956
 31
0.0
  0
LINE
  8
0
 62
     0
 10
3.49393
 20
-5.25956
 30
0.0
 11
3.55578
 21
-5.14822
 31
0.0
  0
LINE
  8
0
 62
     0
 10
3.55578
 20
-5.14822
 30
0.0
 11
3.58333
 21
-5.02778
 31
0.0
  0
LINE
  8
0
 62
     0
 10
3.58333
 20
-5.02778
 30
0.0
 11
3.69054
 21
-4.07699
 31
0.0
  0
LINE
  8
0
 62
     0
 10
3.69054
 20
-4.07699
 30
0.0
 11
3.84549
 21
-3.06506
 31
0.0
  0
LINE
  8
0
 62
     0
 10
3.84549
 20
-3.06506
 30
0.0
 11
4.04818
 21
-1.99192
 31
0.0
  0
LINE
  8
0
 62
     0
 10
4.04818
 20
-1.99192
 30
0.0
 11
4.29861
 21
-0.857639
 31
0.0
  0
LINE
  8
0
 62
     0
 10
4.29861
 20
-0.857639
 30
0.0
 11
4.59679
 21
0.33789
 31
0.0
  0
LINE
  8
0
 62
     0
 10
4.59679
 20
0.33789
 30
0.0
 11
4.94271
 21
1.59463
 31
0.0
  0
LINE
  8
0
 62
     0
 10
4.94271
 20
1.59463
 30
0.0
 11
5.33637
 21
2.91254
 31
0.0
  0
LINE
  8
0
 62
     0
 10
5.33637
 20
2.91254
 30
0.0
 11
5.77778
 21
4.29167
 31
0.0
  0
LINE
  8
0
 62
     0
 10
5.77778
 20
4.29167
 30
0.0
 11
6.06386
 21
5.16249
 31
0.0
  0
LINE
  8
0
 62
     0
 10
6.06386
 20
5.16249
 30
0.0
 11
6.33529
 21
5.99371
 31
0.0
  0
LINE
  8
0
 62
     0
 10
6.33529
 20
5.99371
 30
0.0
 11
6.59207
 21
6.78532
 31
0.0
  0
LINE
  8
0
 62
     0
 10
6.59207
 20
6.78532
 30
0.0
 11
6.83421
 21
7.53733
 31
0.0
  0
LINE
  8
0
 62
     0
 10
6.83421
 20
7.53733
 30
0.0
 11
7.06168
 21
8.24972
 31
0.0
  0
LINE
  8
0
 62
     0
 10
7.06168
 20
8.24972
 30
0.0
 11
7.27453
 21
8.92253
 31
0.0
  0
LINE
  8
0
 62
     0
 10
7.27453
 20
8.92253
 30
0.0
 11
7.47271
 21
9.55572
 31
0.0
  0
LINE
  8
0
 62
     0
 10
7.47271
 20
9.55572
 30
0.0
 11
7.65625
 21
10.1493
 31
0.0
  0
LINE
  8
0
 62
     0
 10
7.65625
 20
10.1493
 30
0.0
 11
7.82514
 21
10.7033
 31
0.0
  0
LINE
  8
0
 62
     0
 10
7.82514
 20
10.7033
 30
0.0
 11
7.97939
 21
11.2177
 31
0.0
  0
LINE
  8
0
 62
     0
 10
7.97939
 20
11.2177
 30
0.0
 11
8.11897
 21
11.6924
 31
0.0
  0
LINE
  8
0
 62
     0
 10
8.11897
 20
11.6924
 30
0.0
 11
8.24393
 21
12.1276
 31
0.0
  0
LINE
  8
0
 62
     0
 10
8.24393
 20
12.1276
 30
0.0
 11
8.35422
 21
12.5232
 31
0.0
  0
LINE
  8
0
 62
     0
 10
8.35422
 20
12.5232
 30
0.0
 11
8.44987
 21
12.8791
 31
0.0
  0
LINE
  8
0
 62
     0
 10
8.44987
 20
12.8791
 30
0.0
 11
8.53088
 21
13.1955
 31
0.0
  0
LINE
  8
0
 62
     0
 10
8.53088
 20
13.1955
 30
0.0
 11
8.59722
 21
13.4722
 31
0.0
  0
LINE
  8
0
 62
     0
 10
8.59722
 20
13.4722
 30
0.0
 11
8.60146
 21
13.5721
 31
0.0
  0
LINE
  8
0
 62
     0
 10
8.60146
 20
13.5721
 30
0.0
 11
8.55892
 21
13.6494
 31
0.0
  0
LINE
  8
0
 62
     0
 10
8.55892
 20
13.6494
 30
0.0
 11
8.46951
 21
13.704
 31
0.0
  0
LINE
  8
0
 62
     0
 10
8.46951
 20
13.704
 30
0.0
 11
8.33333
 21
13.7361
 31
0.0
  0
LINE
  8
0
 62
     0
 10
8.33333
 20
13.7361
 30
0.0
 11
8.18918
 21
13.7491
 31
0.0
  0
LINE
  8
0
 62
     0
 10
8.18918
 20
13.7491
 30
0.0
 11
8.02078
 21
13.7465
 31
0.0
  0
LINE
  8
0
 62
     0
 10
8.02078
 20
13.7465
 30
0.0
 11
7.82807
 21
13.7283
 31
0.0
  0
LINE
  8
0
 62
     0
 10
7.82807
 20
13.7283
 30
0.0
 11
7.61111
 21
13.6944
 31
0.0
  0
LINE
  8
0
 62
     0
 10
7.61111
 20
13.6944
 30
0.0
 11
7.35439
 21
13.6363
 31
0.0
  0
LINE
  8
0
 62
     0
 10
7.35439
 20
13.6363
 30
0.0
 11
7.12587
 21
13.5729
 31
0.0
  0
LINE
  8
0
 62
     0
 10
7.12587
 20
13.5729
 30
0.0
 11
6.92557
 21
13.5043
 31
0.0
  0
LINE
  8
0
 62
     0
 10
6.92557
 20
13.5043
 30
0.0
 11
6.75347
 21
13.4306
 31
0.0
  0
LINE
  8
0
 62
     0
 10
6.75347
 20
13.4306
 30
0.0
 11
6.6096
 21
13.3516
 31
0.0
  0
LINE
  8
0
 62
     0
 10
6.6096
 20
13.3516
 30
0.0
 11
6.49393
 21
13.2674
 31
0.0
  0
LINE
  8
0
 62
     0
 10
6.49393
 20
13.2674
 30
0.0
 11
6.40647
 21
13.178
 31
0.0
  0
LINE
  8
0
 62
     0
 10
6.40647
 20
13.178
 30
0.0
 11
6.34722
 21
13.0833
 31
0.0
  0
LINE
  8
0
 62
     0
 10
6.34722
 20
13.0833
 30
0.0
 11
6.31787
 21
13.0228
 31
0.0
  0
LINE
  8
0
 62
     0
 10
6.31787
 20
13.0228
 30
0.0
 11
6.2786
 21
12.9314
 31
0.0
  0
LINE
  8
0
 62
     0
 10
6.2786
 20
12.9314
 30
0.0
 11
6.22933
 21
12.8092
 31
0.0
  0
LINE
  8
0
 62
     0
 10
6.22933
 20
12.8092
 30
0.0
 11
6.17008
 21
12.6563
 31
0.0
  0
LINE
  8
0
 62
     0
 10
6.17008
 20
12.6563
 30
0.0
 11
6.10086
 21
12.4724
 31
0.0
  0
LINE
  8
0
 62
     0
 10
6.10086
 20
12.4724
 30
0.0
 11
6.02165
 21
12.2578
 31
0.0
  0
LINE
  8
0
 62
     0
 10
6.02165
 20
12.2578
 30
0.0
 11
5.93246
 21
12.0124
 31
0.0
  0
LINE
  8
0
 62
     0
 10
5.93246
 20
12.0124
 30
0.0
 11
5.83333
 21
11.7361
 31
0.0
  0
LINE
  8
0
 62
     0
 10
0.333333
 20
15.6111
 30
0.0
 11
0.354981
 21
15.5076
 31
0.0
  0
LINE
  8
0
 62
     0
 10
0.354981
 20
15.5076
 30
0.0
 11
0.420085
 21
15.42
 31
0.0
  0
LINE
  8
0
 62
     0
 10
0.420085
 20
15.42
 30
0.0
 11
0.528592
 21
15.3479
 31
0.0
  0
LINE
  8
0
 62
     0
 10
0.528592
 20
15.3479
 30
0.0
 11
0.680556
 21
15.2917
 31
0.0
  0
LINE
  8
0
 62
     0
 10
0.680556
 20
15.2917
 30
0.0
 11
0.835938
 21
15.2578
 31
0.0
  0
LINE
  8
0
 62
     0
 10
0.835938
 20
15.2578
 30
0.0
 11
1.01042
 21
15.2396
 31
0.0
  0
LINE
  8
0
 62
     0
 10
1.01042
 20
15.2396
 30
0.0
 11
1.20399
 21
15.2369
 31
0.0
  0
LINE
  8
0
 62
     0
 10
1.20399
 20
15.2369
 30
0.0
 11
1.41667
 21
15.25
 31
0.0
  0
LINE
  8
0
 62
     0
 10
1.41667
 20
15.25
 30
0.0
 11
1.81597
 21
15.3264
 31
0.0
  0
LINE
  8
0
 62
     0
 10
1.81597
 20
15.3264
 30
0.0
 11
2.15278
 21
15.4444
 31
0.0
  0
LINE
  8
0
 62
     0
 10
2.15278
 20
15.4444
 30
0.0
 11
2.29861
 21
15.5165
 31
0.0
  0
LINE
  8
0
 62
     0
 10
2.29861
 20
15.5165
 30
0.0
 11
2.40278
 21
15.5938
 31
0.0
  0
LINE
  8
0
 62
     0
 10
2.40278
 20
15.5938
 30
0.0
 11
2.46528
 21
15.6762
 31
0.0
  0
LINE
  8
0
 62
     0
 10
2.46528
 20
15.6762
 30
0.0
 11
2.48611
 21
15.7639
 31
0.0
  0
LINE
  8
0
 62
     0
 10
2.48611
 20
15.7639
 30
0.0
 11
2.48611
 21
17.4444
 31
0.0
  0
LINE
  8
0
 62
     0
 10
2.48611
 20
17.4444
 30
0.0
 11
2.46528
 21
17.5469
 31
0.0
  0
LINE
  8
0
 62
     0
 10
2.46528
 20
17.5469
 30
0.0
 11
2.40278
 21
17.6319
 31
0.0
  0
LINE
  8
0
 62
     0
 10
2.40278
 20
17.6319
 30
0.0
 11
2.29861
 21
17.6997
 31
0.0
  0
LINE
  8
0
 62
     0
 10
2.29861
 20
17.6997
 30
0.0
 11
2.15278
 21
17.75
 31
0.0
  0
LINE
  8
0
 62
     0
 10
2.15278
 20
17.75
 30
0.0
 11
1.99735
 21
17.7839
 31
0.0
  0
LINE
  8
0
 62
     0
 10
1.99735
 20
17.7839
 30
0.0
 11
1.82286
 21
17.8021
 31
0.0
  0
LINE
  8
0
 62
     0
 10
1.82286
 20
17.8021
 30
0.0
 11
1.62929
 21
17.8047
 31
0.0
  0
LINE
  8
0
 62
     0
 10
1.62929
 20
17.8047
 30
0.0
 11
1.41667
 21
17.7917
 31
0.0
  0
LINE
  8
0
 62
     0
 10
1.41667
 20
17.7917
 30
0.0
 11
1.20915
 21
17.7649
 31
0.0
  0
LINE
  8
0
 62
     0
 10
1.20915
 20
17.7649
 30
0.0
 11
1.01736
 21
17.7257
 31
0.0
  0
LINE
  8
0
 62
     0
 10
1.01736
 20
17.7257
 30
0.0
 11
0.841146
 21
17.6746
 31
0.0
  0
LINE
  8
0
 62
     0
 10
0.841146
 20
17.6746
 30
0.0
 11
0.680556
 21
17.6111
 31
0.0
  0
LINE
  8
0
 62
     0
 10
0.680556
 20
17.6111
 30
0.0
 11
0.528592
 21
17.5331
 31
0.0
  0
LINE
  8
0
 62
     0
 10
0.528592
 20
17.5331
 30
0.0
 11
0.420085
 21
17.4514
 31
0.0
  0
LINE
  8
0
 62
     0
 10
0.420085
 20
17.4514
 30
0.0
 11
0.354981
 21
17.3664
 31
0.0
  0
LINE
  8
0
 62
     0
 10
0.354981
 20
17.3664
 30
0.0
 11
0.333333
 21
17.2778
 31
0.0
  0
LINE
  8
0
 62
     0
 10
0.333333
 20
17.2778
 30
0.0
 11
0.333333
 21
15.6111
 31
0.0
  0
LINE
  8
0
 62
     0
 10
6.16667
 20
15.875
 30
0.0
 11
6.1875
 21
15.7994
 31
0.0
  0
LINE
  8
0
 62
     0
 10
6.1875
 20
15.7994
 30
0.0
 11
6.25
 21
15.7396
 31
0.0
  0
LINE
  8
0
 62
     0
 10
6.25
 20
15.7396
 30
0.0
 11
6.35417
 21
15.6953
 31
0.0
  0
LINE
  8
0
 62
     0
 10
6.35417
 20
15.6953
 30
0.0
 11
6.5
 21
15.6667
 31
0.0
  0
LINE
  8
0
 62
     0
 10
6.5
 20
15.6667
 30
0.0
 11
6.6606
 21
15.6519
 31
0.0
  0
LINE
  8
0
 62
     0
 10
6.6606
 20
15.6519
 30
0.0
 11
6.83681
 21
15.6493
 31
0.0
  0
LINE
  8
0
 62
     0
 10
6.83681
 20
15.6493
 30
0.0
 11
7.0286
 21
15.6589
 31
0.0
  0
LINE
  8
0
 62
     0
 10
7.0286
 20
15.6589
 30
0.0
 11
7.23611
 21
15.6806
 31
0.0
  0
LINE
  8
0
 62
     0
 10
7.23611
 20
15.6806
 30
0.0
 11
7.44874
 21
15.7196
 31
0.0
  0
LINE
  8
0
 62
     0
 10
7.44874
 20
15.7196
 30
0.0
 11
7.64231
 21
15.7674
 31
0.0
  0
LINE
  8
0
 62
     0
 10
7.64231
 20
15.7674
 30
0.0
 11
7.81679
 21
15.8238
 31
0.0
  0
LINE
  8
0
 62
     0
 10
7.81679
 20
15.8238
 30
0.0
 11
7.97222
 21
15.8889
 31
0.0
  0
LINE
  8
0
 62
     0
 10
7.97222
 20
15.8889
 30
0.0
 11
8.11806
 21
15.974
 31
0.0
  0
LINE
  8
0
 62
     0
 10
8.11806
 20
15.974
 30
0.0
 11
8.22222
 21
16.0625
 31
0.0
  0
LINE
  8
0
 62
     0
 10
8.22222
 20
16.0625
 30
0.0
 11
8.28472
 21
16.1546
 31
0.0
  0
LINE
  8
0
 62
     0
 10
8.28472
 20
16.1546
 30
0.0
 11
8.30556
 21
16.25
 31
0.0
  0
LINE
  8
0
 62
     0
 10
8.30556
 20
16.25
 30
0.0
 11
8.30556
 21
17.9167
 31
0.0
  0
LINE
  8
0
 62
     0
 10
8.30556
 20
17.9167
 30
0.0
 11
8.28472
 21
17.9922
 31
0.0
  0
LINE
  8
0
 62
     0
 10
8.28472
 20
17.9922
 30
0.0
 11
8.22222
 21
18.0521
 31
0.0
  0
LINE
  8
0
 62
     0
 10
8.22222
 20
18.0521
 30
0.0
 11
8.11806
 21
18.0964
 31
0.0
  0
LINE
  8
0
 62
     0
 10
8.11806
 20
18.0964
 30
0.0
 11
7.97222
 21
18.125
 31
0.0
  0
LINE
  8
0
 62
     0
 10
7.97222
 20
18.125
 30
0.0
 11
7.81158
 21
18.1389
 31
0.0
  0
LINE
  8
0
 62
     0
 10
7.81158
 20
18.1389
 30
0.0
 11
7.63542
 21
18.1389
 31
0.0
  0
LINE
  8
0
 62
     0
 10
7.63542
 20
18.1389
 30
0.0
 11
7.44358
 21
18.125
 31
0.0
  0
LINE
  8
0
 62
     0
 10
7.44358
 20
18.125
 30
0.0
 11
7.23611
 21
18.0972
 31
0.0
  0
LINE
  8
0
 62
     0
 10
7.23611
 20
18.0972
 30
0.0
 11
6.83675
 21
18.0174
 31
0.0
  0
LINE
  8
0
 62
     0
 10
6.83675
 20
18.0174
 30
0.0
 11
6.5
 21
17.8889
 31
0.0
  0
LINE
  8
0
 62
     0
 10
6.5
 20
17.8889
 30
0.0
 11
6.35417
 21
17.81
 31
0.0
  0
LINE
  8
0
 62
     0
 10
6.35417
 20
17.81
 30
0.0
 11
6.25
 21
17.7257
 31
0.0
  0
LINE
  8
0
 62
     0
 10
6.25
 20
17.7257
 30
0.0
 11
6.1875
 21
17.6363
 31
0.0
  0
LINE
  8
0
 62
     0
 10
6.1875
 20
17.6363
 30
0.0
 11
6.16667
 21
17.5417
 31
0.0
  0
LINE
  8
0
 62
     0
 10
6.16667
 20
17.5417
 30
0.0
 11
6.16667
 21
15.875
 31
0.0
  0
ENDSEC
  0
EOF
