  0
SECTION
  2
HEADER
  9
$ACADVER
  1
AC1009
  9
$EXTMIN
 10
0.0
 20
0.0
 30
0.0
  9
$EXTMAX
 10
1000.0
 20
1000.0
 30
0.0
  9
$FILLMODE
 70
 0
  9
$SPLFRAME
 70
 1
  0
ENDSEC
  0
SECTION
  2
TABLES
  0
TABLE
  2
LAYER
 70
1
  0
LAYER
  2
0
 70
     0
 62
     7
  6
CONTINUOUS
  0
ENDTAB
  0
ENDSEC
  0
SECTION
  2
ENTITIES
  0
LINE
  8
0
 62
     0
 10
9.55556
 20
8.79167
 30
0.0
 11
8.94792
 21
8.77957
 31
0.0
  0
LINE
  8
0
 62
     0
 10
8.94792
 20
8.77957
 30
0.0
 11
8.44444
 21
8.77089
 31
0.0
  0
LINE
  8
0
 62
     0
 10
8.44444
 20
8.77089
 30
0.0
 11
8.04508
 21
8.76568
 31
0.0
  0
LINE
  8
0
 62
     0
 10
8.04508
 20
8.76568
 30
0.0
 11
7.75
 21
8.76389
 31
0.0
  0
LINE
  8
0
 62
     0
 10
7.75
 20
8.76389
 30
0.0
 11
7.94179
 21
9.66407
 31
0.0
  0
LINE
  8
0
 62
     0
 10
7.94179
 20
9.66407
 30
0.0
 11
8.15619
 21
10.5451
 31
0.0
  0
LINE
  8
0
 62
     0
 10
8.15619
 20
10.5451
 30
0.0
 11
8.39318
 21
11.4071
 31
0.0
  0
LINE
  8
0
 62
     0
 10
8.39318
 20
11.4071
 30
0.0
 11
8.65278
 21
12.25
 31
0.0
  0
LINE
  8
0
 62
     0
 10
8.65278
 20
12.25
 30
0.0
 11
8.91471
 21
12.5736
 31
0.0
  0
LINE
  8
0
 62
     0
 10
8.91471
 20
12.5736
 30
0.0
 11
9.17275
 21
12.9262
 31
0.0
  0
LINE
  8
0
 62
     0
 10
9.17275
 20
12.9262
 30
0.0
 11
9.42686
 21
13.3079
 31
0.0
  0
LINE
  8
0
 62
     0
 10
9.42686
 20
13.3079
 30
0.0
 11
9.67708
 21
13.7188
 31
0.0
  0
LINE
  8
0
 62
     0
 10
9.67708
 20
13.7188
 30
0.0
 11
9.92339
 21
14.1586
 31
0.0
  0
LINE
  8
0
 62
     0
 10
9.92339
 20
14.1586
 30
0.0
 11
10.1658
 21
14.6276
 31
0.0
  0
LINE
  8
0
 62
     0
 10
10.1658
 20
14.6276
 30
0.0
 11
10.4043
 21
15.1257
 31
0.0
  0
LINE
  8
0
 62
     0
 10
10.4043
 20
15.1257
 30
0.0
 11
10.6389
 21
15.6528
 31
0.0
  0
LINE
  8
0
 62
     0
 10
10.6389
 20
15.6528
 30
0.0
 11
10.6507
 21
15.6815
 31
0.0
  0
LINE
  8
0
 62
     0
 10
10.6507
 20
15.6815
 30
0.0
 11
10.6723
 21
15.7364
 31
0.0
  0
LINE
  8
0
 62
     0
 10
10.6723
 20
15.7364
 30
0.0
 11
10.7037
 21
15.8174
 31
0.0
  0
LINE
  8
0
 62
     0
 10
10.7037
 20
15.8174
 30
0.0
 11
10.7448
 21
15.9244
 31
0.0
  0
LINE
  8
0
 62
     0
 10
10.7448
 20
15.9244
 30
0.0
 11
10.7957
 21
16.0578
 31
0.0
  0
LINE
  8
0
 62
     0
 10
10.7957
 20
16.0578
 30
0.0
 11
10.8563
 21
16.2172
 31
0.0
  0
LINE
  8
0
 62
     0
 10
10.8563
 20
16.2172
 30
0.0
 11
10.9268
 21
16.4028
 31
0.0
  0
LINE
  8
0
 62
     0
 10
10.9268
 20
16.4028
 30
0.0
 11
11.0069
 21
16.6146
 31
0.0
  0
LINE
  8
0
 62
     0
 10
11.0069
 20
16.6146
 30
0.0
 11
11.0969
 21
16.8525
 31
0.0
  0
LINE
  8
0
 62
     0
 10
11.0969
 20
16.8525
 30
0.0
 11
11.1966
 21
17.1165
 31
0.0
  0
LINE
  8
0
 62
     0
 10
11.1966
 20
17.1165
 30
0.0
 11
11.3061
 21
17.4068
 31
0.0
  0
LINE
  8
0
 62
     0
 10
11.3061
 20
17.4068
 30
0.0
 11
11.4253
 21
17.7231
 31
0.0
  0
LINE
  8
0
 62
     0
 10
11.4253
 20
17.7231
 30
0.0
 11
11.5544
 21
18.0656
 31
0.0
  0
LINE
  8
0
 62
     0
 10
11.5544
 20
18.0656
 30
0.0
 11
11.6931
 21
18.4343
 31
0.0
  0
LINE
  8
0
 62
     0
 10
11.6931
 20
18.4343
 30
0.0
 11
11.8417
 21
18.829
 31
0.0
  0
LINE
  8
0
 62
     0
 10
11.8417
 20
18.829
 30
0.0
 11
12
 21
19.25
 31
0.0
  0
LINE
  8
0
 62
     0
 10
12
 20
19.25
 30
0.0
 11
12.0417
 21
19.4228
 31
0.0
  0
LINE
  8
0
 62
     0
 10
12.0417
 20
19.4228
 30
0.0
 11
12.0278
 21
19.566
 31
0.0
  0
LINE
  8
0
 62
     0
 10
12.0278
 20
19.566
 30
0.0
 11
11.9583
 21
19.6797
 31
0.0
  0
LINE
  8
0
 62
     0
 10
11.9583
 20
19.6797
 30
0.0
 11
11.8333
 21
19.7639
 31
0.0
  0
LINE
  8
0
 62
     0
 10
11.8333
 20
19.7639
 30
0.0
 11
11.6848
 21
19.8143
 31
0.0
  0
LINE
  8
0
 62
     0
 10
11.6848
 20
19.8143
 30
0.0
 11
11.5034
 21
19.8403
 31
0.0
  0
LINE
  8
0
 62
     0
 10
11.5034
 20
19.8403
 30
0.0
 11
11.289
 21
19.8421
 31
0.0
  0
LINE
  8
0
 62
     0
 10
11.289
 20
19.8421
 30
0.0
 11
11.0417
 21
19.8194
 31
0.0
  0
LINE
  8
0
 62
     0
 10
11.0417
 20
19.8194
 30
0.0
 11
10.7534
 21
19.7731
 31
0.0
  0
LINE
  8
0
 62
     0
 10
10.7534
 20
19.7731
 30
0.0
 11
10.493
 21
19.7171
 31
0.0
  0
LINE
  8
0
 62
     0
 10
10.493
 20
19.7171
 30
0.0
 11
10.2604
 21
19.6515
 31
0.0
  0
LINE
  8
0
 62
     0
 10
10.2604
 20
19.6515
 30
0.0
 11
10.0555
 21
19.5764
 31
0.0
  0
LINE
  8
0
 62
     0
 10
10.0555
 20
19.5764
 30
0.0
 11
9.87842
 21
19.4918
 31
0.0
  0
LINE
  8
0
 62
     0
 10
9.87842
 20
19.4918
 30
0.0
 11
9.72911
 21
19.3976
 31
0.0
  0
LINE
  8
0
 62
     0
 10
9.72911
 20
19.3976
 30
0.0
 11
9.60758
 21
19.2939
 31
0.0
  0
LINE
  8
0
 62
     0
 10
9.60758
 20
19.2939
 30
0.0
 11
9.51389
 21
19.1806
 31
0.0
  0
LINE
  8
0
 62
     0
 10
9.51389
 20
19.1806
 30
0.0
 11
9.01585
 21
18.4351
 31
0.0
  0
LINE
  8
0
 62
     0
 10
9.01585
 20
18.4351
 30
0.0
 11
8.54254
 21
17.664
 31
0.0
  0
LINE
  8
0
 62
     0
 10
8.54254
 20
17.664
 30
0.0
 11
8.09397
 21
16.8674
 31
0.0
  0
LINE
  8
0
 62
     0
 10
8.09397
 20
16.8674
 30
0.0
 11
7.67014
 21
16.0451
 31
0.0
  0
LINE
  8
0
 62
     0
 10
7.67014
 20
16.0451
 30
0.0
 11
7.27106
 21
15.1972
 31
0.0
  0
LINE
  8
0
 62
     0
 10
7.27106
 20
15.1972
 30
0.0
 11
6.89671
 21
14.3238
 31
0.0
  0
LINE
  8
0
 62
     0
 10
6.89671
 20
14.3238
 30
0.0
 11
6.5471
 21
13.4247
 31
0.0
  0
LINE
  8
0
 62
     0
 10
6.5471
 20
13.4247
 30
0.0
 11
6.22222
 21
12.5
 31
0.0
  0
LINE
  8
0
 62
     0
 10
6.22222
 20
12.5
 30
0.0
 11
5.96724
 21
12.2849
 31
0.0
  0
LINE
  8
0
 62
     0
 10
5.96724
 20
12.2849
 30
0.0
 11
5.71615
 21
12.1259
 31
0.0
  0
LINE
  8
0
 62
     0
 10
5.71615
 20
12.1259
 30
0.0
 11
5.46897
 21
12.0228
 31
0.0
  0
LINE
  8
0
 62
     0
 10
5.46897
 20
12.0228
 30
0.0
 11
5.22569
 21
11.9757
 31
0.0
  0
LINE
  8
0
 62
     0
 10
5.22569
 20
11.9757
 30
0.0
 11
4.98628
 21
11.9847
 31
0.0
  0
LINE
  8
0
 62
     0
 10
4.98628
 20
11.9847
 30
0.0
 11
4.75082
 21
12.0495
 31
0.0
  0
LINE
  8
0
 62
     0
 10
4.75082
 20
12.0495
 30
0.0
 11
4.51926
 21
12.1704
 31
0.0
  0
LINE
  8
0
 62
     0
 10
4.51926
 20
12.1704
 30
0.0
 11
4.29167
 21
12.3472
 31
0.0
  0
LINE
  8
0
 62
     0
 10
4.29167
 20
12.3472
 30
0.0
 11
4.05875
 21
12.5912
 31
0.0
  0
LINE
  8
0
 62
     0
 10
4.05875
 20
12.5912
 30
0.0
 11
3.84631
 21
12.8785
 31
0.0
  0
LINE
  8
0
 62
     0
 10
3.84631
 20
12.8785
 30
0.0
 11
3.65424
 21
13.2092
 31
0.0
  0
LINE
  8
0
 62
     0
 10
3.65424
 20
13.2092
 30
0.0
 11
3.48258
 21
13.5834
 31
0.0
  0
LINE
  8
0
 62
     0
 10
3.48258
 20
13.5834
 30
0.0
 11
3.33132
 21
14.001
 31
0.0
  0
LINE
  8
0
 62
     0
 10
3.33132
 20
14.001
 30
0.0
 11
3.20047
 21
14.4618
 31
0.0
  0
LINE
  8
0
 62
     0
 10
3.20047
 20
14.4618
 30
0.0
 11
3.09
 21
14.9662
 31
0.0
  0
LINE
  8
0
 62
     0
 10
3.09
 20
14.9662
 30
0.0
 11
3
 21
15.5139
 31
0.0
  0
LINE
  8
0
 62
     0
 10
3
 20
15.5139
 30
0.0
 11
2.98178
 21
15.6557
 31
0.0
  0
LINE
  8
0
 62
     0
 10
2.98178
 20
15.6557
 30
0.0
 11
2.96181
 21
15.8239
 31
0.0
  0
LINE
  8
0
 62
     0
 10
2.96181
 20
15.8239
 30
0.0
 11
2.94011
 21
16.0185
 31
0.0
  0
LINE
  8
0
 62
     0
 10
2.94011
 20
16.0185
 30
0.0
 11
2.91667
 21
16.2396
 31
0.0
  0
LINE
  8
0
 62
     0
 10
2.91667
 20
16.2396
 30
0.0
 11
2.8915
 21
16.4872
 31
0.0
  0
LINE
  8
0
 62
     0
 10
2.8915
 20
16.4872
 30
0.0
 11
2.86458
 21
16.7614
 31
0.0
  0
LINE
  8
0
 62
     0
 10
2.86458
 20
16.7614
 30
0.0
 11
2.83594
 21
17.0619
 31
0.0
  0
LINE
  8
0
 62
     0
 10
2.83594
 20
17.0619
 30
0.0
 11
2.80556
 21
17.3889
 31
0.0
  0
LINE
  8
0
 62
     0
 10
2.80556
 20
17.3889
 30
0.0
 11
2.74994
 21
17.9201
 31
0.0
  0
LINE
  8
0
 62
     0
 10
2.74994
 20
17.9201
 30
0.0
 11
2.69439
 21
18.375
 31
0.0
  0
LINE
  8
0
 62
     0
 10
2.69439
 20
18.375
 30
0.0
 11
2.63883
 21
18.7535
 31
0.0
  0
LINE
  8
0
 62
     0
 10
2.63883
 20
18.7535
 30
0.0
 11
2.58333
 21
19.0556
 31
0.0
  0
LINE
  8
0
 62
     0
 10
2.58333
 20
19.0556
 30
0.0
 11
2.52518
 21
19.2196
 31
0.0
  0
LINE
  8
0
 62
     0
 10
2.52518
 20
19.2196
 30
0.0
 11
2.42014
 21
19.3507
 31
0.0
  0
LINE
  8
0
 62
     0
 10
2.42014
 20
19.3507
 30
0.0
 11
2.26818
 21
19.4488
 31
0.0
  0
LINE
  8
0
 62
     0
 10
2.26818
 20
19.4488
 30
0.0
 11
2.06944
 21
19.5139
 31
0.0
  0
LINE
  8
0
 62
     0
 10
2.06944
 20
19.5139
 30
0.0
 11
1.86025
 21
19.5478
 31
0.0
  0
LINE
  8
0
 62
     0
 10
1.86025
 20
19.5478
 30
0.0
 11
1.63542
 21
19.5521
 31
0.0
  0
LINE
  8
0
 62
     0
 10
1.63542
 20
19.5521
 30
0.0
 11
1.39492
 21
19.5269
 31
0.0
  0
LINE
  8
0
 62
     0
 10
1.39492
 20
19.5269
 30
0.0
 11
1.13889
 21
19.4722
 31
0.0
  0
LINE
  8
0
 62
     0
 10
1.13889
 20
19.4722
 30
0.0
 11
0.894043
 21
19.3942
 31
0.0
  0
LINE
  8
0
 62
     0
 10
0.894043
 20
19.3942
 30
0.0
 11
0.673557
 21
19.2986
 31
0.0
  0
LINE
  8
0
 62
     0
 10
0.673557
 20
19.2986
 30
0.0
 11
0.477376
 21
19.1858
 31
0.0
  0
LINE
  8
0
 62
     0
 10
0.477376
 20
19.1858
 30
0.0
 11
0.305556
 21
19.0556
 31
0.0
  0
LINE
  8
0
 62
     0
 10
0.305556
 20
19.0556
 30
0.0
 11
0.15191
 21
18.8933
 31
0.0
  0
LINE
  8
0
 62
     0
 10
0.15191
 20
18.8933
 30
0.0
 11
0.0520833
 21
18.7257
 31
0.0
  0
LINE
  8
0
 62
     0
 10
0.0520833
 20
18.7257
 30
0.0
 11
0.00607639
 21
18.5529
 31
0.0
  0
LINE
  8
0
 62
     0
 10
0.00607639
 20
18.5529
 30
0.0
 11
0.0138889
 21
18.375
 31
0.0
  0
LINE
  8
0
 62
     0
 10
0.0138889
 20
18.375
 30
0.0
 11
0.0295139
 21
18.2917
 31
0.0
  0
LINE
  8
0
 62
     0
 10
0.0295139
 20
18.2917
 30
0.0
 11
0.0555556
 21
18.1389
 31
0.0
  0
LINE
  8
0
 62
     0
 10
0.0555556
 20
18.1389
 30
0.0
 11
0.0920139
 21
17.9167
 31
0.0
  0
LINE
  8
0
 62
     0
 10
0.0920139
 20
17.9167
 30
0.0
 11
0.138889
 21
17.625
 31
0.0
  0
LINE
  8
0
 62
     0
 10
0.138889
 20
17.625
 30
0.0
 11
0.196181
 21
17.2639
 31
0.0
  0
LINE
  8
0
 62
     0
 10
0.196181
 20
17.2639
 30
0.0
 11
0.263889
 21
16.8333
 31
0.0
  0
LINE
  8
0
 62
     0
 10
0.263889
 20
16.8333
 30
0.0
 11
0.342014
 21
16.3333
 31
0.0
  0
LINE
  8
0
 62
     0
 10
0.342014
 20
16.3333
 30
0.0
 11
0.430556
 21
15.7639
 31
0.0
  0
LINE
  8
0
 62
     0
 10
0.430556
 20
15.7639
 30
0.0
 11
0.567708
 21
14.935
 31
0.0
  0
LINE
  8
0
 62
     0
 10
0.567708
 20
14.935
 30
0.0
 11
0.715278
 21
14.1979
 31
0.0
  0
LINE
  8
0
 62
     0
 10
0.715278
 20
14.1979
 30
0.0
 11
0.87321
 21
13.553
 31
0.0
  0
LINE
  8
0
 62
     0
 10
0.87321
 20
13.553
 30
0.0
 11
1.04167
 21
13
 31
0.0
  0
LINE
  8
0
 62
     0
 10
1.04167
 20
13
 30
0.0
 11
1.18235
 21
12.6295
 31
0.0
  0
LINE
  8
0
 62
     0
 10
1.18235
 20
12.6295
 30
0.0
 11
1.33718
 21
12.2854
 31
0.0
  0
LINE
  8
0
 62
     0
 10
1.33718
 20
12.2854
 30
0.0
 11
1.50613
 21
11.9676
 31
0.0
  0
LINE
  8
0
 62
     0
 10
1.50613
 20
11.9676
 30
0.0
 11
1.68918
 21
11.6762
 31
0.0
  0
LINE
  8
0
 62
     0
 10
1.68918
 20
11.6762
 30
0.0
 11
1.88633
 21
11.4112
 31
0.0
  0
LINE
  8
0
 62
     0
 10
1.88633
 20
11.4112
 30
0.0
 11
2.0976
 21
11.1725
 31
0.0
  0
LINE
  8
0
 62
     0
 10
2.0976
 20
11.1725
 30
0.0
 11
2.32297
 21
10.9602
 31
0.0
  0
LINE
  8
0
 62
     0
 10
2.32297
 20
10.9602
 30
0.0
 11
2.56244
 21
10.7743
 31
0.0
  0
LINE
  8
0
 62
     0
 10
2.56244
 20
10.7743
 30
0.0
 11
2.81603
 21
10.6148
 31
0.0
  0
LINE
  8
0
 62
     0
 10
2.81603
 20
10.6148
 30
0.0
 11
3.08371
 21
10.4816
 31
0.0
  0
LINE
  8
0
 62
     0
 10
3.08371
 20
10.4816
 30
0.0
 11
3.3655
 21
10.3747
 31
0.0
  0
LINE
  8
0
 62
     0
 10
3.3655
 20
10.3747
 30
0.0
 11
3.6614
 21
10.2943
 31
0.0
  0
LINE
  8
0
 62
     0
 10
3.6614
 20
10.2943
 30
0.0
 11
3.9714
 21
10.2402
 31
0.0
  0
LINE
  8
0
 62
     0
 10
3.9714
 20
10.2402
 30
0.0
 11
4.29551
 21
10.2125
 31
0.0
  0
LINE
  8
0
 62
     0
 10
4.29551
 20
10.2125
 30
0.0
 11
4.63374
 21
10.2111
 31
0.0
  0
LINE
  8
0
 62
     0
 10
4.63374
 20
10.2111
 30
0.0
 11
4.98611
 21
10.2361
 31
0.0
  0
LINE
  8
0
 62
     0
 10
4.98611
 20
10.2361
 30
0.0
 11
5.10764
 21
10.2535
 31
0.0
  0
LINE
  8
0
 62
     0
 10
5.10764
 20
10.2535
 30
0.0
 11
5.25
 21
10.2778
 31
0.0
  0
LINE
  8
0
 62
     0
 10
5.25
 20
10.2778
 30
0.0
 11
5.41314
 21
10.309
 31
0.0
  0
LINE
  8
0
 62
     0
 10
5.41314
 20
10.309
 30
0.0
 11
5.59722
 21
10.3472
 31
0.0
  0
LINE
  8
0
 62
     0
 10
5.59722
 20
10.3472
 30
0.0
 11
5.40625
 21
9.57639
 31
0.0
  0
LINE
  8
0
 62
     0
 10
5.40625
 20
9.57639
 30
0.0
 11
5.22222
 21
8.70833
 31
0.0
  0
LINE
  8
0
 62
     0
 10
5.22222
 20
8.70833
 30
0.0
 11
5.00911
 21
8.71701
 31
0.0
  0
LINE
  8
0
 62
     0
 10
5.00911
 20
8.71701
 30
0.0
 11
4.82118
 21
8.72917
 31
0.0
  0
LINE
  8
0
 62
     0
 10
4.82118
 20
8.72917
 30
0.0
 11
4.65842
 21
8.74479
 31
0.0
  0
LINE
  8
0
 62
     0
 10
4.65842
 20
8.74479
 30
0.0
 11
4.52083
 21
8.76389
 31
0.0
  0
LINE
  8
0
 62
     0
 10
4.52083
 20
8.76389
 30
0.0
 11
4.40842
 21
8.78646
 31
0.0
  0
LINE
  8
0
 62
     0
 10
4.40842
 20
8.78646
 30
0.0
 11
4.32118
 21
8.8125
 31
0.0
  0
LINE
  8
0
 62
     0
 10
4.32118
 20
8.8125
 30
0.0
 11
4.25911
 21
8.84201
 31
0.0
  0
LINE
  8
0
 62
     0
 10
4.25911
 20
8.84201
 30
0.0
 11
4.22222
 21
8.875
 31
0.0
  0
LINE
  8
0
 62
     0
 10
4.22222
 20
8.875
 30
0.0
 11
4.11887
 21
8.98525
 31
0.0
  0
LINE
  8
0
 62
     0
 10
4.11887
 20
8.98525
 30
0.0
 11
3.97564
 21
9.06597
 31
0.0
  0
LINE
  8
0
 62
     0
 10
3.97564
 20
9.06597
 30
0.0
 11
3.79249
 21
9.11719
 31
0.0
  0
LINE
  8
0
 62
     0
 10
3.79249
 20
9.11719
 30
0.0
 11
3.56944
 21
9.13889
 31
0.0
  0
LINE
  8
0
 62
     0
 10
3.56944
 20
9.13889
 30
0.0
 11
3.34978
 21
9.13276
 31
0.0
  0
LINE
  8
0
 62
     0
 10
3.34978
 20
9.13276
 30
0.0
 11
3.12147
 21
9.10064
 31
0.0
  0
LINE
  8
0
 62
     0
 10
3.12147
 20
9.10064
 30
0.0
 11
2.8845
 21
9.04249
 31
0.0
  0
LINE
  8
0
 62
     0
 10
2.8845
 20
9.04249
 30
0.0
 11
2.63889
 21
8.95833
 31
0.0
  0
LINE
  8
0
 62
     0
 10
2.63889
 20
8.95833
 30
0.0
 11
2.40533
 21
8.86199
 31
0.0
  0
LINE
  8
0
 62
     0
 10
2.40533
 20
8.86199
 30
0.0
 11
2.20481
 21
8.75347
 31
0.0
  0
LINE
  8
0
 62
     0
 10
2.20481
 20
8.75347
 30
0.0
 11
2.03728
 21
8.63282
 31
0.0
  0
LINE
  8
0
 62
     0
 10
2.03728
 20
8.63282
 30
0.0
 11
1.90278
 21
8.5
 31
0.0
  0
LINE
  8
0
 62
     0
 10
1.90278
 20
8.5
 30
0.0
 11
1.79943
 21
8.34119
 31
0.0
  0
LINE
  8
0
 62
     0
 10
1.79943
 20
8.34119
 30
0.0
 11
1.75342
 21
8.18408
 31
0.0
  0
LINE
  8
0
 62
     0
 10
1.75342
 20
8.18408
 30
0.0
 11
1.76471
 21
8.02869
 31
0.0
  0
LINE
  8
0
 62
     0
 10
1.76471
 20
8.02869
 30
0.0
 11
1.83333
 21
7.875
 31
0.0
  0
LINE
  8
0
 62
     0
 10
1.83333
 20
7.875
 30
0.0
 11
1.97635
 21
7.72353
 31
0.0
  0
LINE
  8
0
 62
     0
 10
1.97635
 20
7.72353
 30
0.0
 11
2.19011
 21
7.59549
 31
0.0
  0
LINE
  8
0
 62
     0
 10
2.19011
 20
7.59549
 30
0.0
 11
2.47461
 21
7.49089
 31
0.0
  0
LINE
  8
0
 62
     0
 10
2.47461
 20
7.49089
 30
0.0
 11
2.82986
 21
7.40972
 31
0.0
  0
LINE
  8
0
 62
     0
 10
2.82986
 20
7.40972
 30
0.0
 11
3.25586
 21
7.352
 31
0.0
  0
LINE
  8
0
 62
     0
 10
3.25586
 20
7.352
 30
0.0
 11
3.75261
 21
7.31771
 31
0.0
  0
LINE
  8
0
 62
     0
 10
3.75261
 20
7.31771
 30
0.0
 11
4.3201
 21
7.30686
 31
0.0
  0
LINE
  8
0
 62
     0
 10
4.3201
 20
7.30686
 30
0.0
 11
4.95833
 21
7.31944
 31
0.0
  0
LINE
  8
0
 62
     0
 10
4.95833
 20
7.31944
 30
0.0
 11
4.75
 21
5.90978
 31
0.0
  0
LINE
  8
0
 62
     0
 10
4.75
 20
5.90978
 30
0.0
 11
4.59722
 21
4.48611
 31
0.0
  0
LINE
  8
0
 62
     0
 10
4.59722
 20
4.48611
 30
0.0
 11
4.43056
 21
4.52692
 31
0.0
  0
LINE
  8
0
 62
     0
 10
4.43056
 20
4.52692
 30
0.0
 11
4.29167
 21
4.57986
 31
0.0
  0
LINE
  8
0
 62
     0
 10
4.29167
 20
4.57986
 30
0.0
 11
4.18056
 21
4.64497
 31
0.0
  0
LINE
  8
0
 62
     0
 10
4.18056
 20
4.64497
 30
0.0
 11
4.09722
 21
4.72222
 31
0.0
  0
LINE
  8
0
 62
     0
 10
4.09722
 20
4.72222
 30
0.0
 11
4.00347
 21
4.81293
 31
0.0
  0
LINE
  8
0
 62
     0
 10
4.00347
 20
4.81293
 30
0.0
 11
3.88194
 21
4.87674
 31
0.0
  0
LINE
  8
0
 62
     0
 10
3.88194
 20
4.87674
 30
0.0
 11
3.73264
 21
4.91363
 31
0.0
  0
LINE
  8
0
 62
     0
 10
3.73264
 20
4.91363
 30
0.0
 11
3.55556
 21
4.92361
 31
0.0
  0
LINE
  8
0
 62
     0
 10
3.55556
 20
4.92361
 30
0.0
 11
3.35069
 21
4.90668
 31
0.0
  0
LINE
  8
0
 62
     0
 10
3.35069
 20
4.90668
 30
0.0
 11
3.11806
 21
4.86285
 31
0.0
  0
LINE
  8
0
 62
     0
 10
3.11806
 20
4.86285
 30
0.0
 11
2.85764
 21
4.7921
 31
0.0
  0
LINE
  8
0
 62
     0
 10
2.85764
 20
4.7921
 30
0.0
 11
2.56944
 21
4.69444
 31
0.0
  0
LINE
  8
0
 62
     0
 10
2.56944
 20
4.69444
 30
0.0
 11
2.33421
 21
4.60069
 31
0.0
  0
LINE
  8
0
 62
     0
 10
2.33421
 20
4.60069
 30
0.0
 11
2.12847
 21
4.5
 31
0.0
  0
LINE
  8
0
 62
     0
 10
2.12847
 20
4.5
 30
0.0
 11
1.95226
 21
4.39236
 31
0.0
  0
LINE
  8
0
 62
     0
 10
1.95226
 20
4.39236
 30
0.0
 11
1.80556
 21
4.27778
 31
0.0
  0
LINE
  8
0
 62
     0
 10
1.80556
 20
4.27778
 30
0.0
 11
1.69444
 21
4.15539
 31
0.0
  0
LINE
  8
0
 62
     0
 10
1.69444
 20
4.15539
 30
0.0
 11
1.63889
 21
4.03819
 31
0.0
  0
LINE
  8
0
 62
     0
 10
1.63889
 20
4.03819
 30
0.0
 11
1.63889
 21
3.92622
 31
0.0
  0
LINE
  8
0
 62
     0
 10
1.63889
 20
3.92622
 30
0.0
 11
1.69444
 21
3.81944
 31
0.0
  0
LINE
  8
0
 62
     0
 10
1.69444
 20
3.81944
 30
0.0
 11
1.8476
 21
3.67042
 31
0.0
  0
LINE
  8
0
 62
     0
 10
1.8476
 20
3.67042
 30
0.0
 11
2.05724
 21
3.54953
 31
0.0
  0
LINE
  8
0
 62
     0
 10
2.05724
 20
3.54953
 30
0.0
 11
2.32329
 21
3.45688
 31
0.0
  0
LINE
  8
0
 62
     0
 10
2.32329
 20
3.45688
 30
0.0
 11
2.64578
 21
3.39242
 31
0.0
  0
LINE
  8
0
 62
     0
 10
2.64578
 20
3.39242
 30
0.0
 11
3.02468
 21
3.35618
 31
0.0
  0
LINE
  8
0
 62
     0
 10
3.02468
 20
3.35618
 30
0.0
 11
3.46001
 21
3.34814
 31
0.0
  0
LINE
  8
0
 62
     0
 10
3.46001
 20
3.34814
 30
0.0
 11
3.95176
 21
3.36833
 31
0.0
  0
LINE
  8
0
 62
     0
 10
3.95176
 20
3.36833
 30
0.0
 11
4.5
 21
3.41667
 31
0.0
  0
LINE
  8
0
 62
     0
 10
4.5
 20
3.41667
 30
0.0
 11
4.42356
 21
2.02431
 31
0.0
  0
LINE
  8
0
 62
     0
 10
4.42356
 20
2.02431
 30
0.0
 11
4.38889
 21
0.680556
 31
0.0
  0
LINE
  8
0
 62
     0
 10
4.38889
 20
0.680556
 30
0.0
 11
4.41314
 21
0.49311
 31
0.0
  0
LINE
  8
0
 62
     0
 10
4.41314
 20
0.49311
 30
0.0
 11
4.48606
 21
0.333388
 31
0.0
  0
LINE
  8
0
 62
     0
 10
4.48606
 20
0.333388
 30
0.0
 11
4.60758
 21
0.201443
 31
0.0
  0
LINE
  8
0
 62
     0
 10
4.60758
 20
0.201443
 30
0.0
 11
4.77778
 21
0.0972222
 31
0.0
  0
LINE
  8
0
 62
     0
 10
4.77778
 20
0.0972222
 30
0.0
 11
4.96875
 21
0.0356446
 31
0.0
  0
LINE
  8
0
 62
     0
 10
4.96875
 20
0.0356446
 30
0.0
 11
5.18056
 21
0.00352647
 31
0.0
  0
LINE
  8
0
 62
     0
 10
5.18056
 20
0.00352647
 30
0.0
 11
5.41319
 21
0.00092231
 31
0.0
  0
LINE
  8
0
 62
     0
 10
5.41319
 20
0.00092231
 30
0.0
 11
5.66667
 21
0.0277778
 31
0.0
  0
LINE
  8
0
 62
     0
 10
5.66667
 20
0.0277778
 30
0.0
 11
5.91493
 21
0.0790474
 31
0.0
  0
LINE
  8
0
 62
     0
 10
5.91493
 20
0.0790474
 30
0.0
 11
6.14583
 21
0.14936
 31
0.0
  0
LINE
  8
0
 62
     0
 10
6.14583
 20
0.14936
 30
0.0
 11
6.35938
 21
0.238769
 31
0.0
  0
LINE
  8
0
 62
     0
 10
6.35938
 20
0.238769
 30
0.0
 11
6.55556
 21
0.347222
 31
0.0
  0
LINE
  8
0
 62
     0
 10
6.55556
 20
0.347222
 30
0.0
 11
6.73258
 21
0.489583
 31
0.0
  0
LINE
  8
0
 62
     0
 10
6.73258
 20
0.489583
 30
0.0
 11
6.86106
 21
0.638889
 31
0.0
  0
LINE
  8
0
 62
     0
 10
6.86106
 20
0.638889
 30
0.0
 11
6.94092
 21
0.795139
 31
0.0
  0
LINE
  8
0
 62
     0
 10
6.94092
 20
0.795139
 30
0.0
 11
6.97222
 21
0.958333
 31
0.0
  0
LINE
  8
0
 62
     0
 10
6.97222
 20
0.958333
 30
0.0
 11
7.00694
 21
2.3125
 31
0.0
  0
LINE
  8
0
 62
     0
 10
7.00694
 20
2.3125
 30
0.0
 11
7.08333
 21
3.70833
 31
0.0
  0
LINE
  8
0
 62
     0
 10
7.08333
 20
3.70833
 30
0.0
 11
7.51129
 21
3.76389
 31
0.0
  0
LINE
  8
0
 62
     0
 10
7.51129
 20
3.76389
 30
0.0
 11
7.91319
 21
3.8125
 31
0.0
  0
LINE
  8
0
 62
     0
 10
7.91319
 20
3.8125
 30
0.0
 11
8.28907
 21
3.85417
 31
0.0
  0
LINE
  8
0
 62
     0
 10
8.28907
 20
3.85417
 30
0.0
 11
8.63889
 21
3.88889
 31
0.0
  0
LINE
  8
0
 62
     0
 10
8.63889
 20
3.88889
 30
0.0
 11
8.96268
 21
3.91667
 31
0.0
  0
LINE
  8
0
 62
     0
 10
8.96268
 20
3.91667
 30
0.0
 11
9.26042
 21
3.9375
 31
0.0
  0
LINE
  8
0
 62
     0
 10
9.26042
 20
3.9375
 30
0.0
 11
9.53212
 21
3.95139
 31
0.0
  0
LINE
  8
0
 62
     0
 10
9.53212
 20
3.95139
 30
0.0
 11
9.77778
 21
3.95833
 31
0.0
  0
LINE
  8
0
 62
     0
 10
9.77778
 20
3.95833
 30
0.0
 11
10.1241
 21
4.00092
 31
0.0
  0
LINE
  8
0
 62
     0
 10
10.1241
 20
4.00092
 30
0.0
 11
10.4826
 21
4.11464
 31
0.0
  0
LINE
  8
0
 62
     0
 10
10.4826
 20
4.11464
 30
0.0
 11
10.8533
 21
4.29953
 31
0.0
  0
LINE
  8
0
 62
     0
 10
10.8533
 20
4.29953
 30
0.0
 11
11.2361
 21
4.55556
 31
0.0
  0
LINE
  8
0
 62
     0
 10
11.2361
 20
4.55556
 30
0.0
 11
11.3785
 21
4.67361
 31
0.0
  0
LINE
  8
0
 62
     0
 10
11.3785
 20
4.67361
 30
0.0
 11
11.4722
 21
4.77778
 31
0.0
  0
LINE
  8
0
 62
     0
 10
11.4722
 20
4.77778
 30
0.0
 11
11.5174
 21
4.86806
 31
0.0
  0
LINE
  8
0
 62
     0
 10
11.5174
 20
4.86806
 30
0.0
 11
11.5139
 21
4.94444
 31
0.0
  0
LINE
  8
0
 62
     0
 10
11.5139
 20
4.94444
 30
0.0
 11
11.4522
 21
5.02263
 31
0.0
  0
LINE
  8
0
 62
     0
 10
11.4522
 20
5.02263
 30
0.0
 11
11.3229
 21
5.07644
 31
0.0
  0
LINE
  8
0
 62
     0
 10
11.3229
 20
5.07644
 30
0.0
 11
11.1259
 21
5.10596
 31
0.0
  0
LINE
  8
0
 62
     0
 10
11.1259
 20
5.10596
 30
0.0
 11
10.8611
 21
5.11111
 31
0.0
  0
LINE
  8
0
 62
     0
 10
10.8611
 20
5.11111
 30
0.0
 11
10.7109
 21
5.10243
 31
0.0
  0
LINE
  8
0
 62
     0
 10
10.7109
 20
5.10243
 30
0.0
 11
10.4826
 21
5.08333
 31
0.0
  0
LINE
  8
0
 62
     0
 10
10.4826
 20
5.08333
 30
0.0
 11
10.1762
 21
5.05382
 31
0.0
  0
LINE
  8
0
 62
     0
 10
10.1762
 20
5.05382
 30
0.0
 11
9.79167
 21
5.01389
 31
0.0
  0
LINE
  8
0
 62
     0
 10
9.79167
 20
5.01389
 30
0.0
 11
9.32894
 21
4.96354
 31
0.0
  0
LINE
  8
0
 62
     0
 10
9.32894
 20
4.96354
 30
0.0
 11
8.78814
 21
4.90278
 31
0.0
  0
LINE
  8
0
 62
     0
 10
8.78814
 20
4.90278
 30
0.0
 11
8.16922
 21
4.8316
 31
0.0
  0
LINE
  8
0
 62
     0
 10
8.16922
 20
4.8316
 30
0.0
 11
7.47222
 21
4.75
 31
0.0
  0
LINE
  8
0
 62
     0
 10
7.47222
 20
4.75
 30
0.0
 11
7.35417
 21
4.73264
 31
0.0
  0
LINE
  8
0
 62
     0
 10
7.35417
 20
4.73264
 30
0.0
 11
7.16667
 21
4.70833
 31
0.0
  0
LINE
  8
0
 62
     0
 10
7.16667
 20
4.70833
 30
0.0
 11
7.3055
 21
6.02783
 31
0.0
  0
LINE
  8
0
 62
     0
 10
7.3055
 20
6.02783
 30
0.0
 11
7.5
 21
7.34722
 31
0.0
  0
LINE
  8
0
 62
     0
 10
7.5
 20
7.34722
 30
0.0
 11
8.02149
 21
7.36029
 31
0.0
  0
LINE
  8
0
 62
     0
 10
8.02149
 20
7.36029
 30
0.0
 11
8.49567
 21
7.37158
 31
0.0
  0
LINE
  8
0
 62
     0
 10
8.49567
 20
7.37158
 30
0.0
 11
8.92253
 21
7.38112
 31
0.0
  0
LINE
  8
0
 62
     0
 10
8.92253
 20
7.38112
 30
0.0
 11
9.30208
 21
7.38894
 31
0.0
  0
LINE
  8
0
 62
     0
 10
9.30208
 20
7.38894
 30
0.0
 11
9.63433
 21
7.39501
 31
0.0
  0
LINE
  8
0
 62
     0
 10
9.63433
 20
7.39501
 30
0.0
 11
9.91928
 21
7.39936
 31
0.0
  0
LINE
  8
0
 62
     0
 10
9.91928
 20
7.39936
 30
0.0
 11
10.1569
 21
7.40196
 31
0.0
  0
LINE
  8
0
 62
     0
 10
10.1569
 20
7.40196
 30
0.0
 11
10.3472
 21
7.40278
 31
0.0
  0
LINE
  8
0
 62
     0
 10
10.3472
 20
7.40278
 30
0.0
 11
10.638
 21
7.41368
 31
0.0
  0
LINE
  8
0
 62
     0
 10
10.638
 20
7.41368
 30
0.0
 11
10.9063
 21
7.44624
 31
0.0
  0
LINE
  8
0
 62
     0
 10
10.9063
 20
7.44624
 30
0.0
 11
11.1519
 21
7.50049
 31
0.0
  0
LINE
  8
0
 62
     0
 10
11.1519
 20
7.50049
 30
0.0
 11
11.375
 21
7.57644
 31
0.0
  0
LINE
  8
0
 62
     0
 10
11.375
 20
7.57644
 30
0.0
 11
11.5755
 21
7.6741
 31
0.0
  0
LINE
  8
0
 62
     0
 10
11.5755
 20
7.6741
 30
0.0
 11
11.7535
 21
7.79346
 31
0.0
  0
LINE
  8
0
 62
     0
 10
11.7535
 20
7.79346
 30
0.0
 11
11.9089
 21
7.93451
 31
0.0
  0
LINE
  8
0
 62
     0
 10
11.9089
 20
7.93451
 30
0.0
 11
12.0417
 21
8.09722
 31
0.0
  0
LINE
  8
0
 62
     0
 10
12.0417
 20
8.09722
 30
0.0
 11
12.1258
 21
8.25694
 31
0.0
  0
LINE
  8
0
 62
     0
 10
12.1258
 20
8.25694
 30
0.0
 11
12.1424
 21
8.40278
 31
0.0
  0
LINE
  8
0
 62
     0
 10
12.1424
 20
8.40278
 30
0.0
 11
12.0912
 21
8.53472
 31
0.0
  0
LINE
  8
0
 62
     0
 10
12.0912
 20
8.53472
 30
0.0
 11
11.9722
 21
8.65278
 31
0.0
  0
LINE
  8
0
 62
     0
 10
11.9722
 20
8.65278
 30
0.0
 11
11.8394
 21
8.73096
 31
0.0
  0
LINE
  8
0
 62
     0
 10
11.8394
 20
8.73096
 30
0.0
 11
11.691
 21
8.78478
 31
0.0
  0
LINE
  8
0
 62
     0
 10
11.691
 20
8.78478
 30
0.0
 11
11.5269
 21
8.81429
 31
0.0
  0
LINE
  8
0
 62
     0
 10
11.5269
 20
8.81429
 30
0.0
 11
11.3472
 21
8.81944
 31
0.0
  0
LINE
  8
0
 62
     0
 10
11.3472
 20
8.81944
 30
0.0
 11
10.9852
 21
8.81771
 31
0.0
  0
LINE
  8
0
 62
     0
 10
10.9852
 20
8.81771
 30
0.0
 11
10.566
 21
8.8125
 31
0.0
  0
LINE
  8
0
 62
     0
 10
10.566
 20
8.8125
 30
0.0
 11
10.0894
 21
8.80382
 31
0.0
  0
LINE
  8
0
 62
     0
 10
10.0894
 20
8.80382
 30
0.0
 11
9.55556
 21
8.79167
 31
0.0
  0
ENDSEC
  0
EOF
