  0
SECTION
  2
HEADER
  9
$ACADVER
  1
AC1009
  9
$EXTMIN
 10
0.0
 20
0.0
 30
0.0
  9
$EXTMAX
 10
1000.0
 20
1000.0
 30
0.0
  9
$FILLMODE
 70
 0
  9
$SPLFRAME
 70
 1
  0
ENDSEC
  0
SECTION
  2
TABLES
  0
TABLE
  2
LAYER
 70
1
  0
LAYER
  2
0
 70
     0
 62
     7
  6
CONTINUOUS
  0
ENDTAB
  0
ENDSEC
  0
SECTION
  2
ENTITIES
  0
LINE
  8
0
 62
     0
 10
15.4861
 20
2.15278
 30
0.0
 11
14.9642
 21
2.10613
 31
0.0
  0
LINE
  8
0
 62
     0
 10
14.9642
 20
2.10613
 30
0.0
 11
14.4817
 21
2.06338
 31
0.0
  0
LINE
  8
0
 62
     0
 10
14.4817
 20
2.06338
 30
0.0
 11
14.0387
 21
2.02453
 31
0.0
  0
LINE
  8
0
 62
     0
 10
14.0387
 20
2.02453
 30
0.0
 11
13.6354
 21
1.98958
 31
0.0
  0
LINE
  8
0
 62
     0
 10
13.6354
 20
1.98958
 30
0.0
 11
13.2714
 21
1.95856
 31
0.0
  0
LINE
  8
0
 62
     0
 10
13.2714
 20
1.95856
 30
0.0
 11
12.947
 21
1.93143
 31
0.0
  0
LINE
  8
0
 62
     0
 10
12.947
 20
1.93143
 30
0.0
 11
12.6621
 21
1.90821
 31
0.0
  0
LINE
  8
0
 62
     0
 10
12.6621
 20
1.90821
 30
0.0
 11
12.4167
 21
1.88889
 31
0.0
  0
LINE
  8
0
 62
     0
 10
12.4167
 20
1.88889
 30
0.0
 11
12.0495
 21
1.87349
 31
0.0
  0
LINE
  8
0
 62
     0
 10
12.0495
 20
1.87349
 30
0.0
 11
11.6285
 21
1.86893
 31
0.0
  0
LINE
  8
0
 62
     0
 10
11.6285
 20
1.86893
 30
0.0
 11
11.1537
 21
1.87522
 31
0.0
  0
LINE
  8
0
 62
     0
 10
11.1537
 20
1.87522
 30
0.0
 11
10.625
 21
1.89236
 31
0.0
  0
LINE
  8
0
 62
     0
 10
10.625
 20
1.89236
 30
0.0
 11
10.0425
 21
1.92036
 31
0.0
  0
LINE
  8
0
 62
     0
 10
10.0425
 20
1.92036
 30
0.0
 11
9.40625
 21
1.95921
 31
0.0
  0
LINE
  8
0
 62
     0
 10
9.40625
 20
1.95921
 30
0.0
 11
8.71615
 21
2.0089
 31
0.0
  0
LINE
  8
0
 62
     0
 10
8.71615
 20
2.0089
 30
0.0
 11
7.97222
 21
2.06944
 31
0.0
  0
LINE
  8
0
 62
     0
 10
7.97222
 20
2.06944
 30
0.0
 11
7.50846
 21
2.11257
 31
0.0
  0
LINE
  8
0
 62
     0
 10
7.50846
 20
2.11257
 30
0.0
 11
7.07915
 21
2.15864
 31
0.0
  0
LINE
  8
0
 62
     0
 10
7.07915
 20
2.15864
 30
0.0
 11
6.68425
 21
2.20763
 31
0.0
  0
LINE
  8
0
 62
     0
 10
6.68425
 20
2.20763
 30
0.0
 11
6.32374
 21
2.25956
 31
0.0
  0
LINE
  8
0
 62
     0
 10
6.32374
 20
2.25956
 30
0.0
 11
5.99761
 21
2.3144
 31
0.0
  0
LINE
  8
0
 62
     0
 10
5.99761
 20
2.3144
 30
0.0
 11
5.70589
 21
2.37218
 31
0.0
  0
LINE
  8
0
 62
     0
 10
5.70589
 20
2.37218
 30
0.0
 11
5.44857
 21
2.43289
 31
0.0
  0
LINE
  8
0
 62
     0
 10
5.44857
 20
2.43289
 30
0.0
 11
5.22564
 21
2.49653
 31
0.0
  0
LINE
  8
0
 62
     0
 10
5.22564
 20
2.49653
 30
0.0
 11
5.03711
 21
2.5631
 31
0.0
  0
LINE
  8
0
 62
     0
 10
5.03711
 20
2.5631
 30
0.0
 11
4.88297
 21
2.6326
 31
0.0
  0
LINE
  8
0
 62
     0
 10
4.88297
 20
2.6326
 30
0.0
 11
4.76324
 21
2.70503
 31
0.0
  0
LINE
  8
0
 62
     0
 10
4.76324
 20
2.70503
 30
0.0
 11
4.6779
 21
2.78039
 31
0.0
  0
LINE
  8
0
 62
     0
 10
4.6779
 20
2.78039
 30
0.0
 11
4.62696
 21
2.85867
 31
0.0
  0
LINE
  8
0
 62
     0
 10
4.62696
 20
2.85867
 30
0.0
 11
4.6104
 21
2.93989
 31
0.0
  0
LINE
  8
0
 62
     0
 10
4.6104
 20
2.93989
 30
0.0
 11
4.62825
 21
3.02403
 31
0.0
  0
LINE
  8
0
 62
     0
 10
4.62825
 20
3.02403
 30
0.0
 11
4.68056
 21
3.11111
 31
0.0
  0
LINE
  8
0
 62
     0
 10
4.68056
 20
3.11111
 30
0.0
 11
5.31787
 21
3.89518
 31
0.0
  0
LINE
  8
0
 62
     0
 10
5.31787
 20
3.89518
 30
0.0
 11
6.0286
 21
4.71268
 31
0.0
  0
LINE
  8
0
 62
     0
 10
6.0286
 20
4.71268
 30
0.0
 11
6.81267
 21
5.56358
 31
0.0
  0
LINE
  8
0
 62
     0
 10
6.81267
 20
5.56358
 30
0.0
 11
7.67008
 21
6.44792
 31
0.0
  0
LINE
  8
0
 62
     0
 10
7.67008
 20
6.44792
 30
0.0
 11
8.60086
 21
7.36567
 31
0.0
  0
LINE
  8
0
 62
     0
 10
8.60086
 20
7.36567
 30
0.0
 11
9.60499
 21
8.31685
 31
0.0
  0
LINE
  8
0
 62
     0
 10
9.60499
 20
8.31685
 30
0.0
 11
10.6825
 21
9.30143
 31
0.0
  0
LINE
  8
0
 62
     0
 10
10.6825
 20
9.30143
 30
0.0
 11
11.8333
 21
10.3194
 31
0.0
  0
LINE
  8
0
 62
     0
 10
11.8333
 20
10.3194
 30
0.0
 11
12.5775
 21
10.9678
 31
0.0
  0
LINE
  8
0
 62
     0
 10
12.5775
 20
10.9678
 30
0.0
 11
13.2856
 21
11.5862
 31
0.0
  0
LINE
  8
0
 62
     0
 10
13.2856
 20
11.5862
 30
0.0
 11
13.9576
 21
12.1748
 31
0.0
  0
LINE
  8
0
 62
     0
 10
13.9576
 20
12.1748
 30
0.0
 11
14.5938
 21
12.7336
 31
0.0
  0
LINE
  8
0
 62
     0
 10
14.5938
 20
12.7336
 30
0.0
 11
15.1937
 21
13.2625
 31
0.0
  0
LINE
  8
0
 62
     0
 10
15.1937
 20
13.2625
 30
0.0
 11
15.7578
 21
13.7616
 31
0.0
  0
LINE
  8
0
 62
     0
 10
15.7578
 20
13.7616
 30
0.0
 11
16.2858
 21
14.2308
 31
0.0
  0
LINE
  8
0
 62
     0
 10
16.2858
 20
14.2308
 30
0.0
 11
16.7778
 21
14.6701
 31
0.0
  0
LINE
  8
0
 62
     0
 10
16.7778
 20
14.6701
 30
0.0
 11
17.2337
 21
15.0797
 31
0.0
  0
LINE
  8
0
 62
     0
 10
17.2337
 20
15.0797
 30
0.0
 11
17.6536
 21
15.4594
 31
0.0
  0
LINE
  8
0
 62
     0
 10
17.6536
 20
15.4594
 30
0.0
 11
18.0375
 21
15.8093
 31
0.0
  0
LINE
  8
0
 62
     0
 10
18.0375
 20
15.8093
 30
0.0
 11
18.3854
 21
16.1294
 31
0.0
  0
LINE
  8
0
 62
     0
 10
18.3854
 20
16.1294
 30
0.0
 11
18.6972
 21
16.4196
 31
0.0
  0
LINE
  8
0
 62
     0
 10
18.6972
 20
16.4196
 30
0.0
 11
18.9731
 21
16.68
 31
0.0
  0
LINE
  8
0
 62
     0
 10
18.9731
 20
16.68
 30
0.0
 11
19.2129
 21
16.9104
 31
0.0
  0
LINE
  8
0
 62
     0
 10
19.2129
 20
16.9104
 30
0.0
 11
19.4167
 21
17.1111
 31
0.0
  0
LINE
  8
0
 62
     0
 10
19.4167
 20
17.1111
 30
0.0
 11
19.5546
 21
17.2943
 31
0.0
  0
LINE
  8
0
 62
     0
 10
19.5546
 20
17.2943
 30
0.0
 11
19.6076
 21
17.4688
 31
0.0
  0
LINE
  8
0
 62
     0
 10
19.6076
 20
17.4688
 30
0.0
 11
19.5754
 21
17.6346
 31
0.0
  0
LINE
  8
0
 62
     0
 10
19.5754
 20
17.6346
 30
0.0
 11
19.4583
 21
17.7917
 31
0.0
  0
LINE
  8
0
 62
     0
 10
19.4583
 20
17.7917
 30
0.0
 11
19.1885
 21
18.0161
 31
0.0
  0
LINE
  8
0
 62
     0
 10
19.1885
 20
18.0161
 30
0.0
 11
18.9032
 21
18.2276
 31
0.0
  0
LINE
  8
0
 62
     0
 10
18.9032
 20
18.2276
 30
0.0
 11
18.6025
 21
18.4264
 31
0.0
  0
LINE
  8
0
 62
     0
 10
18.6025
 20
18.4264
 30
0.0
 11
18.2864
 21
18.6121
 31
0.0
  0
LINE
  8
0
 62
     0
 10
18.2864
 20
18.6121
 30
0.0
 11
17.9549
 21
18.7849
 31
0.0
  0
LINE
  8
0
 62
     0
 10
17.9549
 20
18.7849
 30
0.0
 11
17.6081
 21
18.9447
 31
0.0
  0
LINE
  8
0
 62
     0
 10
17.6081
 20
18.9447
 30
0.0
 11
17.2457
 21
19.0917
 31
0.0
  0
LINE
  8
0
 62
     0
 10
17.2457
 20
19.0917
 30
0.0
 11
16.8681
 21
19.2257
 31
0.0
  0
LINE
  8
0
 62
     0
 10
16.8681
 20
19.2257
 30
0.0
 11
16.4749
 21
19.3469
 31
0.0
  0
LINE
  8
0
 62
     0
 10
16.4749
 20
19.3469
 30
0.0
 11
16.0664
 21
19.4551
 31
0.0
  0
LINE
  8
0
 62
     0
 10
16.0664
 20
19.4551
 30
0.0
 11
15.6424
 21
19.5504
 31
0.0
  0
LINE
  8
0
 62
     0
 10
15.6424
 20
19.5504
 30
0.0
 11
15.2031
 21
19.6329
 31
0.0
  0
LINE
  8
0
 62
     0
 10
15.2031
 20
19.6329
 30
0.0
 11
14.7483
 21
19.7024
 31
0.0
  0
LINE
  8
0
 62
     0
 10
14.7483
 20
19.7024
 30
0.0
 11
14.2782
 21
19.7589
 31
0.0
  0
LINE
  8
0
 62
     0
 10
14.2782
 20
19.7589
 30
0.0
 11
13.7926
 21
19.8026
 31
0.0
  0
LINE
  8
0
 62
     0
 10
13.7926
 20
19.8026
 30
0.0
 11
13.2917
 21
19.8333
 31
0.0
  0
LINE
  8
0
 62
     0
 10
13.2917
 20
19.8333
 30
0.0
 11
12.9702
 21
19.8453
 31
0.0
  0
LINE
  8
0
 62
     0
 10
12.9702
 20
19.8453
 30
0.0
 11
12.6171
 21
19.8533
 31
0.0
  0
LINE
  8
0
 62
     0
 10
12.6171
 20
19.8533
 30
0.0
 11
12.2324
 21
19.8575
 31
0.0
  0
LINE
  8
0
 62
     0
 10
12.2324
 20
19.8575
 30
0.0
 11
11.8159
 21
19.8576
 31
0.0
  0
LINE
  8
0
 62
     0
 10
11.8159
 20
19.8576
 30
0.0
 11
11.3678
 21
19.8539
 31
0.0
  0
LINE
  8
0
 62
     0
 10
11.3678
 20
19.8539
 30
0.0
 11
10.888
 21
19.8464
 31
0.0
  0
LINE
  8
0
 62
     0
 10
10.888
 20
19.8464
 30
0.0
 11
10.3765
 21
19.8349
 31
0.0
  0
LINE
  8
0
 62
     0
 10
10.3765
 20
19.8349
 30
0.0
 11
9.83333
 21
19.8194
 31
0.0
  0
LINE
  8
0
 62
     0
 10
9.83333
 20
19.8194
 30
0.0
 11
9.27214
 21
19.8006
 31
0.0
  0
LINE
  8
0
 62
     0
 10
9.27214
 20
19.8006
 30
0.0
 11
8.75521
 21
19.7856
 31
0.0
  0
LINE
  8
0
 62
     0
 10
8.75521
 20
19.7856
 30
0.0
 11
8.28256
 21
19.7746
 31
0.0
  0
LINE
  8
0
 62
     0
 10
8.28256
 20
19.7746
 30
0.0
 11
7.85417
 21
19.7674
 31
0.0
  0
LINE
  8
0
 62
     0
 10
7.85417
 20
19.7674
 30
0.0
 11
7.47006
 21
19.7642
 31
0.0
  0
LINE
  8
0
 62
     0
 10
7.47006
 20
19.7642
 30
0.0
 11
7.13021
 21
19.7647
 31
0.0
  0
LINE
  8
0
 62
     0
 10
7.13021
 20
19.7647
 30
0.0
 11
6.83464
 21
19.7693
 31
0.0
  0
LINE
  8
0
 62
     0
 10
6.83464
 20
19.7693
 30
0.0
 11
6.58333
 21
19.7778
 31
0.0
  0
LINE
  8
0
 62
     0
 10
6.58333
 20
19.7778
 30
0.0
 11
6.15186
 21
19.7776
 31
0.0
  0
LINE
  8
0
 62
     0
 10
6.15186
 20
19.7776
 30
0.0
 11
5.73953
 21
19.7492
 31
0.0
  0
LINE
  8
0
 62
     0
 10
5.73953
 20
19.7492
 30
0.0
 11
5.34631
 21
19.6925
 31
0.0
  0
LINE
  8
0
 62
     0
 10
5.34631
 20
19.6925
 30
0.0
 11
4.97217
 21
19.6076
 31
0.0
  0
LINE
  8
0
 62
     0
 10
4.97217
 20
19.6076
 30
0.0
 11
4.61714
 21
19.4946
 31
0.0
  0
LINE
  8
0
 62
     0
 10
4.61714
 20
19.4946
 30
0.0
 11
4.28119
 21
19.3533
 31
0.0
  0
LINE
  8
0
 62
     0
 10
4.28119
 20
19.3533
 30
0.0
 11
3.96436
 21
19.1839
 31
0.0
  0
LINE
  8
0
 62
     0
 10
3.96436
 20
19.1839
 30
0.0
 11
3.66667
 21
18.9861
 31
0.0
  0
LINE
  8
0
 62
     0
 10
3.66667
 20
18.9861
 30
0.0
 11
3.46436
 21
18.8108
 31
0.0
  0
LINE
  8
0
 62
     0
 10
3.46436
 20
18.8108
 30
0.0
 11
3.32986
 21
18.6319
 31
0.0
  0
LINE
  8
0
 62
     0
 10
3.32986
 20
18.6319
 30
0.0
 11
3.26303
 21
18.4497
 31
0.0
  0
LINE
  8
0
 62
     0
 10
3.26303
 20
18.4497
 30
0.0
 11
3.26389
 21
18.2639
 31
0.0
  0
LINE
  8
0
 62
     0
 10
3.26389
 20
18.2639
 30
0.0
 11
3.29318
 21
18.1756
 31
0.0
  0
LINE
  8
0
 62
     0
 10
3.29318
 20
18.1756
 30
0.0
 11
3.33942
 21
18.0981
 31
0.0
  0
LINE
  8
0
 62
     0
 10
3.33942
 20
18.0981
 30
0.0
 11
3.40256
 21
18.0315
 31
0.0
  0
LINE
  8
0
 62
     0
 10
3.40256
 20
18.0315
 30
0.0
 11
3.48264
 21
17.9757
 31
0.0
  0
LINE
  8
0
 62
     0
 10
3.48264
 20
17.9757
 30
0.0
 11
3.57964
 21
17.9308
 31
0.0
  0
LINE
  8
0
 62
     0
 10
3.57964
 20
17.9308
 30
0.0
 11
3.69358
 21
17.8967
 31
0.0
  0
LINE
  8
0
 62
     0
 10
3.69358
 20
17.8967
 30
0.0
 11
3.82443
 21
17.8735
 31
0.0
  0
LINE
  8
0
 62
     0
 10
3.82443
 20
17.8735
 30
0.0
 11
3.97222
 21
17.8611
 31
0.0
  0
LINE
  8
0
 62
     0
 10
3.97222
 20
17.8611
 30
0.0
 11
4.2595
 21
17.8518
 31
0.0
  0
LINE
  8
0
 62
     0
 10
4.2595
 20
17.8518
 30
0.0
 11
4.57981
 21
17.8447
 31
0.0
  0
LINE
  8
0
 62
     0
 10
4.57981
 20
17.8447
 30
0.0
 11
4.93311
 21
17.8397
 31
0.0
  0
LINE
  8
0
 62
     0
 10
4.93311
 20
17.8397
 30
0.0
 11
5.31939
 21
17.8368
 31
0.0
  0
LINE
  8
0
 62
     0
 10
5.31939
 20
17.8368
 30
0.0
 11
5.73867
 21
17.8362
 31
0.0
  0
LINE
  8
0
 62
     0
 10
5.73867
 20
17.8362
 30
0.0
 11
6.19092
 21
17.8378
 31
0.0
  0
LINE
  8
0
 62
     0
 10
6.19092
 20
17.8378
 30
0.0
 11
6.67617
 21
17.8414
 31
0.0
  0
LINE
  8
0
 62
     0
 10
6.67617
 20
17.8414
 30
0.0
 11
7.19444
 21
17.8472
 31
0.0
  0
LINE
  8
0
 62
     0
 10
7.19444
 20
17.8472
 30
0.0
 11
7.71897
 21
17.8533
 31
0.0
  0
LINE
  8
0
 62
     0
 10
7.71897
 20
17.8533
 30
0.0
 11
8.20921
 21
17.8576
 31
0.0
  0
LINE
  8
0
 62
     0
 10
8.20921
 20
17.8576
 30
0.0
 11
8.66515
 21
17.8603
 31
0.0
  0
LINE
  8
0
 62
     0
 10
8.66515
 20
17.8603
 30
0.0
 11
9.08681
 21
17.8611
 31
0.0
  0
LINE
  8
0
 62
     0
 10
9.08681
 20
17.8611
 30
0.0
 11
9.47418
 21
17.8603
 31
0.0
  0
LINE
  8
0
 62
     0
 10
9.47418
 20
17.8603
 30
0.0
 11
9.82726
 21
17.8576
 31
0.0
  0
LINE
  8
0
 62
     0
 10
9.82726
 20
17.8576
 30
0.0
 11
10.1461
 21
17.8533
 31
0.0
  0
LINE
  8
0
 62
     0
 10
10.1461
 20
17.8533
 30
0.0
 11
10.4306
 21
17.8472
 31
0.0
  0
LINE
  8
0
 62
     0
 10
10.4306
 20
17.8472
 30
0.0
 11
11.4123
 21
17.7831
 31
0.0
  0
LINE
  8
0
 62
     0
 10
11.4123
 20
17.7831
 30
0.0
 11
12.3576
 21
17.6597
 31
0.0
  0
LINE
  8
0
 62
     0
 10
12.3576
 20
17.6597
 30
0.0
 11
13.2665
 21
17.4775
 31
0.0
  0
LINE
  8
0
 62
     0
 10
13.2665
 20
17.4775
 30
0.0
 11
14.1389
 21
17.2361
 31
0.0
  0
LINE
  8
0
 62
     0
 10
14.1389
 20
17.2361
 30
0.0
 11
14.4343
 21
17.1253
 31
0.0
  0
LINE
  8
0
 62
     0
 10
14.4343
 20
17.1253
 30
0.0
 11
14.6675
 21
17.001
 31
0.0
  0
LINE
  8
0
 62
     0
 10
14.6675
 20
17.001
 30
0.0
 11
14.8388
 21
16.8631
 31
0.0
  0
LINE
  8
0
 62
     0
 10
14.8388
 20
16.8631
 30
0.0
 11
14.9479
 21
16.7118
 31
0.0
  0
LINE
  8
0
 62
     0
 10
14.9479
 20
16.7118
 30
0.0
 11
14.995
 21
16.5471
 31
0.0
  0
LINE
  8
0
 62
     0
 10
14.995
 20
16.5471
 30
0.0
 11
14.98
 21
16.369
 31
0.0
  0
LINE
  8
0
 62
     0
 10
14.98
 20
16.369
 30
0.0
 11
14.9031
 21
16.1774
 31
0.0
  0
LINE
  8
0
 62
     0
 10
14.9031
 20
16.1774
 30
0.0
 11
14.7639
 21
15.9722
 31
0.0
  0
LINE
  8
0
 62
     0
 10
14.7639
 20
15.9722
 30
0.0
 11
14.6328
 21
15.8239
 31
0.0
  0
LINE
  8
0
 62
     0
 10
14.6328
 20
15.8239
 30
0.0
 11
14.4618
 21
15.6563
 31
0.0
  0
LINE
  8
0
 62
     0
 10
14.4618
 20
15.6563
 30
0.0
 11
14.2508
 21
15.4697
 31
0.0
  0
LINE
  8
0
 62
     0
 10
14.2508
 20
15.4697
 30
0.0
 11
14
 21
15.2639
 31
0.0
  0
LINE
  8
0
 62
     0
 10
14
 20
15.2639
 30
0.0
 11
13.8359
 21
15.1292
 31
0.0
  0
LINE
  8
0
 62
     0
 10
13.8359
 20
15.1292
 30
0.0
 11
13.691
 21
15.0096
 31
0.0
  0
LINE
  8
0
 62
     0
 10
13.691
 20
15.0096
 30
0.0
 11
13.5651
 21
14.9053
 31
0.0
  0
LINE
  8
0
 62
     0
 10
13.5651
 20
14.9053
 30
0.0
 11
13.4583
 21
14.816
 31
0.0
  0
LINE
  8
0
 62
     0
 10
13.4583
 20
14.816
 30
0.0
 11
13.3707
 21
14.7421
 31
0.0
  0
LINE
  8
0
 62
     0
 10
13.3707
 20
14.7421
 30
0.0
 11
13.3021
 21
14.6832
 31
0.0
  0
LINE
  8
0
 62
     0
 10
13.3021
 20
14.6832
 30
0.0
 11
13.2526
 21
14.6396
 31
0.0
  0
LINE
  8
0
 62
     0
 10
13.2526
 20
14.6396
 30
0.0
 11
13.2222
 21
14.6111
 31
0.0
  0
LINE
  8
0
 62
     0
 10
13.2222
 20
14.6111
 30
0.0
 11
12.4838
 21
13.9194
 31
0.0
  0
LINE
  8
0
 62
     0
 10
12.4838
 20
13.9194
 30
0.0
 11
11.7667
 21
13.247
 31
0.0
  0
LINE
  8
0
 62
     0
 10
11.7667
 20
13.247
 30
0.0
 11
11.071
 21
12.5939
 31
0.0
  0
LINE
  8
0
 62
     0
 10
11.071
 20
12.5939
 30
0.0
 11
10.3967
 21
11.9601
 31
0.0
  0
LINE
  8
0
 62
     0
 10
10.3967
 20
11.9601
 30
0.0
 11
9.74376
 21
11.3456
 31
0.0
  0
LINE
  8
0
 62
     0
 10
9.74376
 20
11.3456
 30
0.0
 11
9.11219
 21
10.7504
 31
0.0
  0
LINE
  8
0
 62
     0
 10
9.11219
 20
10.7504
 30
0.0
 11
8.50201
 21
10.1746
 31
0.0
  0
LINE
  8
0
 62
     0
 10
8.50201
 20
10.1746
 30
0.0
 11
7.91319
 21
9.61806
 31
0.0
  0
LINE
  8
0
 62
     0
 10
7.91319
 20
9.61806
 30
0.0
 11
7.34576
 21
9.08083
 31
0.0
  0
LINE
  8
0
 62
     0
 10
7.34576
 20
9.08083
 30
0.0
 11
6.79969
 21
8.56293
 31
0.0
  0
LINE
  8
0
 62
     0
 10
6.79969
 20
8.56293
 30
0.0
 11
6.27501
 21
8.06435
 31
0.0
  0
LINE
  8
0
 62
     0
 10
6.27501
 20
8.06435
 30
0.0
 11
5.77171
 21
7.58507
 31
0.0
  0
LINE
  8
0
 62
     0
 10
5.77171
 20
7.58507
 30
0.0
 11
5.28976
 21
7.12511
 31
0.0
  0
LINE
  8
0
 62
     0
 10
5.28976
 20
7.12511
 30
0.0
 11
4.82921
 21
6.68446
 31
0.0
  0
LINE
  8
0
 62
     0
 10
4.82921
 20
6.68446
 30
0.0
 11
4.39003
 21
6.26313
 31
0.0
  0
LINE
  8
0
 62
     0
 10
4.39003
 20
6.26313
 30
0.0
 11
3.97222
 21
5.86111
 31
0.0
  0
LINE
  8
0
 62
     0
 10
3.97222
 20
5.86111
 30
0.0
 11
3.57579
 21
5.4784
 31
0.0
  0
LINE
  8
0
 62
     0
 10
3.57579
 20
5.4784
 30
0.0
 11
3.20074
 21
5.11501
 31
0.0
  0
LINE
  8
0
 62
     0
 10
3.20074
 20
5.11501
 30
0.0
 11
2.84706
 21
4.77094
 31
0.0
  0
LINE
  8
0
 62
     0
 10
2.84706
 20
4.77094
 30
0.0
 11
2.51476
 21
4.44618
 31
0.0
  0
LINE
  8
0
 62
     0
 10
2.51476
 20
4.44618
 30
0.0
 11
2.20383
 21
4.14074
 31
0.0
  0
LINE
  8
0
 62
     0
 10
2.20383
 20
4.14074
 30
0.0
 11
1.91428
 21
3.8546
 31
0.0
  0
LINE
  8
0
 62
     0
 10
1.91428
 20
3.8546
 30
0.0
 11
1.64611
 21
3.58778
 31
0.0
  0
LINE
  8
0
 62
     0
 10
1.64611
 20
3.58778
 30
0.0
 11
1.39931
 21
3.34028
 31
0.0
  0
LINE
  8
0
 62
     0
 10
1.39931
 20
3.34028
 30
0.0
 11
1.17388
 21
3.11208
 31
0.0
  0
LINE
  8
0
 62
     0
 10
1.17388
 20
3.11208
 30
0.0
 11
0.969835
 21
2.90321
 31
0.0
  0
LINE
  8
0
 62
     0
 10
0.969835
 20
2.90321
 30
0.0
 11
0.787164
 21
2.71365
 31
0.0
  0
LINE
  8
0
 62
     0
 10
0.787164
 20
2.71365
 30
0.0
 11
0.625868
 21
2.5434
 31
0.0
  0
LINE
  8
0
 62
     0
 10
0.625868
 20
2.5434
 30
0.0
 11
0.485949
 21
2.39247
 31
0.0
  0
LINE
  8
0
 62
     0
 10
0.485949
 20
2.39247
 30
0.0
 11
0.367404
 21
2.26085
 31
0.0
  0
LINE
  8
0
 62
     0
 10
0.367404
 20
2.26085
 30
0.0
 11
0.270236
 21
2.14854
 31
0.0
  0
LINE
  8
0
 62
     0
 10
0.270236
 20
2.14854
 30
0.0
 11
0.194444
 21
2.05556
 31
0.0
  0
LINE
  8
0
 62
     0
 10
0.194444
 20
2.05556
 30
0.0
 11
0.111762
 21
1.94185
 31
0.0
  0
LINE
  8
0
 62
     0
 10
0.111762
 20
1.94185
 30
0.0
 11
0.0512153
 21
1.83681
 31
0.0
  0
LINE
  8
0
 62
     0
 10
0.0512153
 20
1.83681
 30
0.0
 11
0.0128038
 21
1.74046
 31
0.0
  0
LINE
  8
0
 62
     0
 10
0.0128038
 20
1.74046
 30
0.0
 11
-0.00347222
 21
1.65278
 31
0.0
  0
LINE
  8
0
 62
     0
 10
-0.00347222
 20
1.65278
 30
0.0
 11
0.00238715
 21
1.57379
 31
0.0
  0
LINE
  8
0
 62
     0
 10
0.00238715
 20
1.57379
 30
0.0
 11
0.0303819
 21
1.50347
 31
0.0
  0
LINE
  8
0
 62
     0
 10
0.0303819
 20
1.50347
 30
0.0
 11
0.0805122
 21
1.44185
 31
0.0
  0
LINE
  8
0
 62
     0
 10
0.0805122
 20
1.44185
 30
0.0
 11
0.152778
 21
1.38889
 31
0.0
  0
LINE
  8
0
 62
     0
 10
0.152778
 20
1.38889
 30
0.0
 11
0.542806
 21
1.17084
 31
0.0
  0
LINE
  8
0
 62
     0
 10
0.542806
 20
1.17084
 30
0.0
 11
0.949001
 21
0.968099
 31
0.0
  0
LINE
  8
0
 62
     0
 10
0.949001
 20
0.968099
 30
0.0
 11
1.37137
 21
0.780653
 31
0.0
  0
LINE
  8
0
 62
     0
 10
1.37137
 20
0.780653
 30
0.0
 11
1.8099
 21
0.608507
 31
0.0
  0
LINE
  8
0
 62
     0
 10
1.8099
 20
0.608507
 30
0.0
 11
2.2646
 21
0.45166
 31
0.0
  0
LINE
  8
0
 62
     0
 10
2.2646
 20
0.45166
 30
0.0
 11
2.73546
 21
0.310113
 31
0.0
  0
LINE
  8
0
 62
     0
 10
2.73546
 20
0.310113
 30
0.0
 11
3.2225
 21
0.183865
 31
0.0
  0
LINE
  8
0
 62
     0
 10
3.2225
 20
0.183865
 30
0.0
 11
3.72569
 21
0.0729167
 31
0.0
  0
LINE
  8
0
 62
     0
 10
3.72569
 20
0.0729167
 30
0.0
 11
4.24507
 21
-0.0226779
 31
0.0
  0
LINE
  8
0
 62
     0
 10
4.24507
 20
-0.0226779
 30
0.0
 11
4.7806
 21
-0.103027
 31
0.0
  0
LINE
  8
0
 62
     0
 10
4.7806
 20
-0.103027
 30
0.0
 11
5.33231
 21
-0.168078
 31
0.0
  0
LINE
  8
0
 62
     0
 10
5.33231
 20
-0.168078
 30
0.0
 11
5.90018
 21
-0.217828
 31
0.0
  0
LINE
  8
0
 62
     0
 10
5.90018
 20
-0.217828
 30
0.0
 11
6.48421
 21
-0.252279
 31
0.0
  0
LINE
  8
0
 62
     0
 10
6.48421
 20
-0.252279
 30
0.0
 11
7.08442
 21
-0.271431
 31
0.0
  0
LINE
  8
0
 62
     0
 10
7.08442
 20
-0.271431
 30
0.0
 11
7.70079
 21
-0.275282
 31
0.0
  0
LINE
  8
0
 62
     0
 10
7.70079
 20
-0.275282
 30
0.0
 11
8.33333
 21
-0.263889
 31
0.0
  0
LINE
  8
0
 62
     0
 10
8.33333
 20
-0.263889
 30
0.0
 11
8.75694
 21
-0.249567
 31
0.0
  0
LINE
  8
0
 62
     0
 10
8.75694
 20
-0.249567
 30
0.0
 11
9.21528
 21
-0.227431
 31
0.0
  0
LINE
  8
0
 62
     0
 10
9.21528
 20
-0.227431
 30
0.0
 11
9.70833
 21
-0.197483
 31
0.0
  0
LINE
  8
0
 62
     0
 10
9.70833
 20
-0.197483
 30
0.0
 11
10.2361
 21
-0.159722
 31
0.0
  0
LINE
  8
0
 62
     0
 10
10.2361
 20
-0.159722
 30
0.0
 11
10.7986
 21
-0.114149
 31
0.0
  0
LINE
  8
0
 62
     0
 10
10.7986
 20
-0.114149
 30
0.0
 11
11.3958
 21
-0.0607639
 31
0.0
  0
LINE
  8
0
 62
     0
 10
11.3958
 20
-0.0607639
 30
0.0
 11
12.0278
 21
0.000434028
 31
0.0
  0
LINE
  8
0
 62
     0
 10
12.0278
 20
0.000434028
 30
0.0
 11
12.6944
 21
0.0694444
 31
0.0
  0
LINE
  8
0
 62
     0
 10
12.6944
 20
0.0694444
 30
0.0
 11
13.4429
 21
0.145182
 31
0.0
  0
LINE
  8
0
 62
     0
 10
13.4429
 20
0.145182
 30
0.0
 11
14.1258
 21
0.212674
 31
0.0
  0
LINE
  8
0
 62
     0
 10
14.1258
 20
0.212674
 30
0.0
 11
14.7433
 21
0.271918
 31
0.0
  0
LINE
  8
0
 62
     0
 10
14.7433
 20
0.271918
 30
0.0
 11
15.2951
 21
0.322917
 31
0.0
  0
LINE
  8
0
 62
     0
 10
15.2951
 20
0.322917
 30
0.0
 11
15.7815
 21
0.365668
 31
0.0
  0
LINE
  8
0
 62
     0
 10
15.7815
 20
0.365668
 30
0.0
 11
16.2022
 21
0.400174
 31
0.0
  0
LINE
  8
0
 62
     0
 10
16.2022
 20
0.400174
 30
0.0
 11
16.5575
 21
0.426432
 31
0.0
  0
LINE
  8
0
 62
     0
 10
16.5575
 20
0.426432
 30
0.0
 11
16.8472
 21
0.444444
 31
0.0
  0
LINE
  8
0
 62
     0
 10
16.8472
 20
0.444444
 30
0.0
 11
17.13
 21
0.476346
 31
0.0
  0
LINE
  8
0
 62
     0
 10
17.13
 20
0.476346
 30
0.0
 11
17.4157
 21
0.537326
 31
0.0
  0
LINE
  8
0
 62
     0
 10
17.4157
 20
0.537326
 30
0.0
 11
17.7046
 21
0.627388
 31
0.0
  0
LINE
  8
0
 62
     0
 10
17.7046
 20
0.627388
 30
0.0
 11
17.9965
 21
0.746528
 31
0.0
  0
LINE
  8
0
 62
     0
 10
17.9965
 20
0.746528
 30
0.0
 11
18.2914
 21
0.894749
 31
0.0
  0
LINE
  8
0
 62
     0
 10
18.2914
 20
0.894749
 30
0.0
 11
18.5893
 21
1.07205
 31
0.0
  0
LINE
  8
0
 62
     0
 10
18.5893
 20
1.07205
 30
0.0
 11
18.8904
 21
1.27843
 31
0.0
  0
LINE
  8
0
 62
     0
 10
18.8904
 20
1.27843
 30
0.0
 11
19.1944
 21
1.51389
 31
0.0
  0
LINE
  8
0
 62
     0
 10
19.1944
 20
1.51389
 30
0.0
 11
19.4194
 21
1.71099
 31
0.0
  0
LINE
  8
0
 62
     0
 10
19.4194
 20
1.71099
 30
0.0
 11
19.5663
 21
1.88547
 31
0.0
  0
LINE
  8
0
 62
     0
 10
19.5663
 20
1.88547
 30
0.0
 11
19.6347
 21
2.03737
 31
0.0
  0
LINE
  8
0
 62
     0
 10
19.6347
 20
2.03737
 30
0.0
 11
19.625
 21
2.16667
 31
0.0
  0
LINE
  8
0
 62
     0
 10
19.625
 20
2.16667
 30
0.0
 11
19.584
 21
2.2309
 31
0.0
  0
LINE
  8
0
 62
     0
 10
19.584
 20
2.2309
 30
0.0
 11
19.5165
 21
2.28472
 31
0.0
  0
LINE
  8
0
 62
     0
 10
19.5165
 20
2.28472
 30
0.0
 11
19.4225
 21
2.32813
 31
0.0
  0
LINE
  8
0
 62
     0
 10
19.4225
 20
2.32813
 30
0.0
 11
19.3021
 21
2.36111
 31
0.0
  0
LINE
  8
0
 62
     0
 10
19.3021
 20
2.36111
 30
0.0
 11
19.1551
 21
2.38374
 31
0.0
  0
LINE
  8
0
 62
     0
 10
19.1551
 20
2.38374
 30
0.0
 11
18.9818
 21
2.39589
 31
0.0
  0
LINE
  8
0
 62
     0
 10
18.9818
 20
2.39589
 30
0.0
 11
18.7819
 21
2.39762
 31
0.0
  0
LINE
  8
0
 62
     0
 10
18.7819
 20
2.39762
 30
0.0
 11
18.5556
 21
2.38889
 31
0.0
  0
LINE
  8
0
 62
     0
 10
18.5556
 20
2.38889
 30
0.0
 11
18.2646
 21
2.37007
 31
0.0
  0
LINE
  8
0
 62
     0
 10
18.2646
 20
2.37007
 30
0.0
 11
17.9471
 21
2.34814
 31
0.0
  0
LINE
  8
0
 62
     0
 10
17.9471
 20
2.34814
 30
0.0
 11
17.6031
 21
2.32319
 31
0.0
  0
LINE
  8
0
 62
     0
 10
17.6031
 20
2.32319
 30
0.0
 11
17.2326
 21
2.29519
 31
0.0
  0
LINE
  8
0
 62
     0
 10
17.2326
 20
2.29519
 30
0.0
 11
16.8357
 21
2.26417
 31
0.0
  0
LINE
  8
0
 62
     0
 10
16.8357
 20
2.26417
 30
0.0
 11
16.4124
 21
2.23008
 31
0.0
  0
LINE
  8
0
 62
     0
 10
16.4124
 20
2.23008
 30
0.0
 11
15.9625
 21
2.19299
 31
0.0
  0
LINE
  8
0
 62
     0
 10
15.9625
 20
2.19299
 30
0.0
 11
15.4861
 21
2.15278
 31
0.0
  0
ENDSEC
  0
EOF
