  0
SECTION
  2
HEADER
  9
$ACADVER
  1
AC1009
  9
$EXTMIN
 10
0.0
 20
0.0
 30
0.0
  9
$EXTMAX
 10
1000.0
 20
1000.0
 30
0.0
  9
$FILLMODE
 70
 0
  9
$SPLFRAME
 70
 1
  0
ENDSEC
  0
SECTION
  2
TABLES
  0
TABLE
  2
LAYER
 70
1
  0
LAYER
  2
0
 70
     0
 62
     7
  6
CONTINUOUS
  0
ENDTAB
  0
ENDSEC
  0
SECTION
  2
ENTITIES
  0
LINE
  8
0
 62
     0
 10
3.59722
 20
14.1389
 30
0.0
 11
3.72803
 21
14.5672
 31
0.0
  0
LINE
  8
0
 62
     0
 10
3.72803
 20
14.5672
 30
0.0
 11
3.85672
 21
14.9636
 31
0.0
  0
LINE
  8
0
 62
     0
 10
3.85672
 20
14.9636
 30
0.0
 11
3.98324
 21
15.3276
 31
0.0
  0
LINE
  8
0
 62
     0
 10
3.98324
 20
15.3276
 30
0.0
 11
4.10758
 21
15.6597
 31
0.0
  0
LINE
  8
0
 62
     0
 10
4.10758
 20
15.6597
 30
0.0
 11
4.22976
 21
15.9596
 31
0.0
  0
LINE
  8
0
 62
     0
 10
4.22976
 20
15.9596
 30
0.0
 11
4.34978
 21
16.2275
 31
0.0
  0
LINE
  8
0
 62
     0
 10
4.34978
 20
16.2275
 30
0.0
 11
4.46761
 21
16.4631
 31
0.0
  0
LINE
  8
0
 62
     0
 10
4.46761
 20
16.4631
 30
0.0
 11
4.58333
 21
16.6667
 31
0.0
  0
LINE
  8
0
 62
     0
 10
4.58333
 20
16.6667
 30
0.0
 11
4.829
 21
17.0263
 31
0.0
  0
LINE
  8
0
 62
     0
 10
4.829
 20
17.0263
 30
0.0
 11
5.07986
 21
17.2994
 31
0.0
  0
LINE
  8
0
 62
     0
 10
5.07986
 20
17.2994
 30
0.0
 11
5.33594
 21
17.4864
 31
0.0
  0
LINE
  8
0
 62
     0
 10
5.33594
 20
17.4864
 30
0.0
 11
5.59722
 21
17.5868
 31
0.0
  0
LINE
  8
0
 62
     0
 10
5.59722
 20
17.5868
 30
0.0
 11
5.86367
 21
17.601
 31
0.0
  0
LINE
  8
0
 62
     0
 10
5.86367
 20
17.601
 30
0.0
 11
6.13536
 21
17.5286
 31
0.0
  0
LINE
  8
0
 62
     0
 10
6.13536
 20
17.5286
 30
0.0
 11
6.41228
 21
17.37
 31
0.0
  0
LINE
  8
0
 62
     0
 10
6.41228
 20
17.37
 30
0.0
 11
6.69444
 21
17.125
 31
0.0
  0
LINE
  8
0
 62
     0
 10
6.69444
 20
17.125
 30
0.0
 11
6.86003
 21
16.9313
 31
0.0
  0
LINE
  8
0
 62
     0
 10
6.86003
 20
16.9313
 30
0.0
 11
7.0165
 21
16.6971
 31
0.0
  0
LINE
  8
0
 62
     0
 10
7.0165
 20
16.6971
 30
0.0
 11
7.16385
 21
16.4226
 31
0.0
  0
LINE
  8
0
 62
     0
 10
7.16385
 20
16.4226
 30
0.0
 11
7.30208
 21
16.1076
 31
0.0
  0
LINE
  8
0
 62
     0
 10
7.30208
 20
16.1076
 30
0.0
 11
7.43121
 21
15.7524
 31
0.0
  0
LINE
  8
0
 62
     0
 10
7.43121
 20
15.7524
 30
0.0
 11
7.55122
 21
15.3568
 31
0.0
  0
LINE
  8
0
 62
     0
 10
7.55122
 20
15.3568
 30
0.0
 11
7.66211
 21
14.9208
 31
0.0
  0
LINE
  8
0
 62
     0
 10
7.66211
 20
14.9208
 30
0.0
 11
7.76389
 21
14.4444
 31
0.0
  0
LINE
  8
0
 62
     0
 10
7.76389
 20
14.4444
 30
0.0
 11
7.85628
 21
13.8301
 31
0.0
  0
LINE
  8
0
 62
     0
 10
7.85628
 20
13.8301
 30
0.0
 11
7.9114
 21
13.1675
 31
0.0
  0
LINE
  8
0
 62
     0
 10
7.9114
 20
13.1675
 30
0.0
 11
7.92919
 21
12.4568
 31
0.0
  0
LINE
  8
0
 62
     0
 10
7.92919
 20
12.4568
 30
0.0
 11
7.90967
 21
11.6979
 31
0.0
  0
LINE
  8
0
 62
     0
 10
7.90967
 20
11.6979
 30
0.0
 11
7.85281
 21
10.8908
 31
0.0
  0
LINE
  8
0
 62
     0
 10
7.85281
 20
10.8908
 30
0.0
 11
7.75862
 21
10.0356
 31
0.0
  0
LINE
  8
0
 62
     0
 10
7.75862
 20
10.0356
 30
0.0
 11
7.62711
 21
9.13217
 31
0.0
  0
LINE
  8
0
 62
     0
 10
7.62711
 20
9.13217
 30
0.0
 11
7.45833
 21
8.18056
 31
0.0
  0
LINE
  8
0
 62
     0
 10
7.45833
 20
8.18056
 30
0.0
 11
7.34131
 21
7.61947
 31
0.0
  0
LINE
  8
0
 62
     0
 10
7.34131
 20
7.61947
 30
0.0
 11
7.21593
 21
7.0855
 31
0.0
  0
LINE
  8
0
 62
     0
 10
7.21593
 20
7.0855
 30
0.0
 11
7.08219
 21
6.57867
 31
0.0
  0
LINE
  8
0
 62
     0
 10
7.08219
 20
6.57867
 30
0.0
 11
6.94011
 21
6.09896
 31
0.0
  0
LINE
  8
0
 62
     0
 10
6.94011
 20
6.09896
 30
0.0
 11
6.78965
 21
5.64638
 31
0.0
  0
LINE
  8
0
 62
     0
 10
6.78965
 20
5.64638
 30
0.0
 11
6.63086
 21
5.22092
 31
0.0
  0
LINE
  8
0
 62
     0
 10
6.63086
 20
5.22092
 30
0.0
 11
6.46371
 21
4.8226
 31
0.0
  0
LINE
  8
0
 62
     0
 10
6.46371
 20
4.8226
 30
0.0
 11
6.28819
 21
4.45139
 31
0.0
  0
LINE
  8
0
 62
     0
 10
6.28819
 20
4.45139
 30
0.0
 11
6.10433
 21
4.10732
 31
0.0
  0
LINE
  8
0
 62
     0
 10
6.10433
 20
4.10732
 30
0.0
 11
5.91211
 21
3.79036
 31
0.0
  0
LINE
  8
0
 62
     0
 10
5.91211
 20
3.79036
 30
0.0
 11
5.71153
 21
3.50054
 31
0.0
  0
LINE
  8
0
 62
     0
 10
5.71153
 20
3.50054
 30
0.0
 11
5.50261
 21
3.23785
 31
0.0
  0
LINE
  8
0
 62
     0
 10
5.50261
 20
3.23785
 30
0.0
 11
5.28532
 21
3.00228
 31
0.0
  0
LINE
  8
0
 62
     0
 10
5.28532
 20
3.00228
 30
0.0
 11
5.05968
 21
2.79383
 31
0.0
  0
LINE
  8
0
 62
     0
 10
5.05968
 20
2.79383
 30
0.0
 11
4.82568
 21
2.61253
 31
0.0
  0
LINE
  8
0
 62
     0
 10
4.82568
 20
2.61253
 30
0.0
 11
4.58333
 21
2.45833
 31
0.0
  0
LINE
  8
0
 62
     0
 10
4.58333
 20
2.45833
 30
0.0
 11
4.25228
 21
3.16151
 31
0.0
  0
LINE
  8
0
 62
     0
 10
4.25228
 20
3.16151
 30
0.0
 11
3.95719
 21
3.86828
 31
0.0
  0
LINE
  8
0
 62
     0
 10
3.95719
 20
3.86828
 30
0.0
 11
3.69803
 21
4.57861
 31
0.0
  0
LINE
  8
0
 62
     0
 10
3.69803
 20
4.57861
 30
0.0
 11
3.47478
 21
5.29254
 31
0.0
  0
LINE
  8
0
 62
     0
 10
3.47478
 20
5.29254
 30
0.0
 11
3.28743
 21
6.01004
 31
0.0
  0
LINE
  8
0
 62
     0
 10
3.28743
 20
6.01004
 30
0.0
 11
3.13601
 21
6.73112
 31
0.0
  0
LINE
  8
0
 62
     0
 10
3.13601
 20
6.73112
 30
0.0
 11
3.02051
 21
7.45578
 31
0.0
  0
LINE
  8
0
 62
     0
 10
3.02051
 20
7.45578
 30
0.0
 11
2.94092
 21
8.18403
 31
0.0
  0
LINE
  8
0
 62
     0
 10
2.94092
 20
8.18403
 30
0.0
 11
2.89725
 21
8.9159
 31
0.0
  0
LINE
  8
0
 62
     0
 10
2.89725
 20
8.9159
 30
0.0
 11
2.88949
 21
9.65132
 31
0.0
  0
LINE
  8
0
 62
     0
 10
2.88949
 20
9.65132
 30
0.0
 11
2.91764
 21
10.3903
 31
0.0
  0
LINE
  8
0
 62
     0
 10
2.91764
 20
10.3903
 30
0.0
 11
2.98172
 21
11.1329
 31
0.0
  0
LINE
  8
0
 62
     0
 10
2.98172
 20
11.1329
 30
0.0
 11
3.08171
 21
11.879
 31
0.0
  0
LINE
  8
0
 62
     0
 10
3.08171
 20
11.879
 30
0.0
 11
3.21761
 21
12.6288
 31
0.0
  0
LINE
  8
0
 62
     0
 10
3.21761
 20
12.6288
 30
0.0
 11
3.38943
 21
13.3821
 31
0.0
  0
LINE
  8
0
 62
     0
 10
3.38943
 20
13.3821
 30
0.0
 11
3.59722
 21
14.1389
 31
0.0
  0
LINE
  8
0
 62
     0
 10
0.0138889
 20
9.25
 30
0.0
 11
0.0692275
 21
8.16564
 31
0.0
  0
LINE
  8
0
 62
     0
 10
0.0692275
 20
8.16564
 30
0.0
 11
0.186632
 21
7.09293
 31
0.0
  0
LINE
  8
0
 62
     0
 10
0.186632
 20
7.09293
 30
0.0
 11
0.366103
 21
6.03196
 31
0.0
  0
LINE
  8
0
 62
     0
 10
0.366103
 20
6.03196
 30
0.0
 11
0.607639
 21
4.98264
 31
0.0
  0
LINE
  8
0
 62
     0
 10
0.607639
 20
4.98264
 30
0.0
 11
0.911242
 21
3.9451
 31
0.0
  0
LINE
  8
0
 62
     0
 10
0.911242
 20
3.9451
 30
0.0
 11
1.27691
 21
2.91928
 31
0.0
  0
LINE
  8
0
 62
     0
 10
1.27691
 20
2.91928
 30
0.0
 11
1.70464
 21
1.90517
 31
0.0
  0
LINE
  8
0
 62
     0
 10
1.70464
 20
1.90517
 30
0.0
 11
2.19444
 21
0.902778
 31
0.0
  0
LINE
  8
0
 62
     0
 10
2.19444
 20
0.902778
 30
0.0
 11
2.19358
 21
0.704861
 31
0.0
  0
LINE
  8
0
 62
     0
 10
2.19358
 20
0.704861
 30
0.0
 11
2.23264
 21
0.527778
 31
0.0
  0
LINE
  8
0
 62
     0
 10
2.23264
 20
0.527778
 30
0.0
 11
2.31164
 21
0.371528
 31
0.0
  0
LINE
  8
0
 62
     0
 10
2.31164
 20
0.371528
 30
0.0
 11
2.43056
 21
0.236111
 31
0.0
  0
LINE
  8
0
 62
     0
 10
2.43056
 20
0.236111
 30
0.0
 11
2.61019
 21
0.11811
 31
0.0
  0
LINE
  8
0
 62
     0
 10
2.61019
 20
0.11811
 30
0.0
 11
2.82981
 21
0.0416667
 31
0.0
  0
LINE
  8
0
 62
     0
 10
2.82981
 20
0.0416667
 30
0.0
 11
3.08936
 21
0.00694444
 31
0.0
  0
LINE
  8
0
 62
     0
 10
3.08936
 20
0.00694444
 30
0.0
 11
3.38889
 21
0.0138889
 31
0.0
  0
LINE
  8
0
 62
     0
 10
3.38889
 20
0.0138889
 30
0.0
 11
3.96419
 21
0.0924479
 31
0.0
  0
LINE
  8
0
 62
     0
 10
3.96419
 20
0.0924479
 30
0.0
 11
4.52344
 21
0.230903
 31
0.0
  0
LINE
  8
0
 62
     0
 10
4.52344
 20
0.230903
 30
0.0
 11
5.06662
 21
0.429254
 31
0.0
  0
LINE
  8
0
 62
     0
 10
5.06662
 20
0.429254
 30
0.0
 11
5.59375
 21
0.6875
 31
0.0
  0
LINE
  8
0
 62
     0
 10
5.59375
 20
0.6875
 30
0.0
 11
6.10482
 21
1.0057
 31
0.0
  0
LINE
  8
0
 62
     0
 10
6.10482
 20
1.0057
 30
0.0
 11
6.59983
 21
1.38373
 31
0.0
  0
LINE
  8
0
 62
     0
 10
6.59983
 20
1.38373
 30
0.0
 11
7.07878
 21
1.82167
 31
0.0
  0
LINE
  8
0
 62
     0
 10
7.07878
 20
1.82167
 30
0.0
 11
7.54167
 21
2.31944
 31
0.0
  0
LINE
  8
0
 62
     0
 10
7.54167
 20
2.31944
 30
0.0
 11
7.93989
 21
2.80886
 31
0.0
  0
LINE
  8
0
 62
     0
 10
7.93989
 20
2.80886
 30
0.0
 11
8.31511
 21
3.33251
 31
0.0
  0
LINE
  8
0
 62
     0
 10
8.31511
 20
3.33251
 30
0.0
 11
8.66732
 21
3.89046
 31
0.0
  0
LINE
  8
0
 62
     0
 10
8.66732
 20
3.89046
 30
0.0
 11
8.99653
 21
4.48269
 31
0.0
  0
LINE
  8
0
 62
     0
 10
8.99653
 20
4.48269
 30
0.0
 11
9.30274
 21
5.10921
 31
0.0
  0
LINE
  8
0
 62
     0
 10
9.30274
 20
5.10921
 30
0.0
 11
9.58594
 21
5.77001
 31
0.0
  0
LINE
  8
0
 62
     0
 10
9.58594
 20
5.77001
 30
0.0
 11
9.84614
 21
6.46511
 31
0.0
  0
LINE
  8
0
 62
     0
 10
9.84614
 20
6.46511
 30
0.0
 11
10.0833
 21
7.19444
 31
0.0
  0
LINE
  8
0
 62
     0
 10
10.0833
 20
7.19444
 30
0.0
 11
10.284
 21
7.903
 31
0.0
  0
LINE
  8
0
 62
     0
 10
10.284
 20
7.903
 30
0.0
 11
10.4557
 21
8.61199
 31
0.0
  0
LINE
  8
0
 62
     0
 10
10.4557
 20
8.61199
 30
0.0
 11
10.5982
 21
9.3214
 31
0.0
  0
LINE
  8
0
 62
     0
 10
10.5982
 20
9.3214
 30
0.0
 11
10.7117
 21
10.0313
 31
0.0
  0
LINE
  8
0
 62
     0
 10
10.7117
 20
10.0313
 30
0.0
 11
10.7962
 21
10.7415
 31
0.0
  0
LINE
  8
0
 62
     0
 10
10.7962
 20
10.7415
 30
0.0
 11
10.8515
 21
11.4523
 31
0.0
  0
LINE
  8
0
 62
     0
 10
10.8515
 20
11.4523
 30
0.0
 11
10.8778
 21
12.1634
 31
0.0
  0
LINE
  8
0
 62
     0
 10
10.8778
 20
12.1634
 30
0.0
 11
10.875
 21
12.875
 31
0.0
  0
LINE
  8
0
 62
     0
 10
10.875
 20
12.875
 30
0.0
 11
10.8424
 21
13.5864
 31
0.0
  0
LINE
  8
0
 62
     0
 10
10.8424
 20
13.5864
 30
0.0
 11
10.7795
 21
14.2622
 31
0.0
  0
LINE
  8
0
 62
     0
 10
10.7795
 20
14.2622
 30
0.0
 11
10.6862
 21
14.9024
 31
0.0
  0
LINE
  8
0
 62
     0
 10
10.6862
 20
14.9024
 30
0.0
 11
10.5625
 21
15.5069
 31
0.0
  0
LINE
  8
0
 62
     0
 10
10.5625
 20
15.5069
 30
0.0
 11
10.4084
 21
16.076
 31
0.0
  0
LINE
  8
0
 62
     0
 10
10.4084
 20
16.076
 30
0.0
 11
10.224
 21
16.6094
 31
0.0
  0
LINE
  8
0
 62
     0
 10
10.224
 20
16.6094
 30
0.0
 11
10.0091
 21
17.1072
 31
0.0
  0
LINE
  8
0
 62
     0
 10
10.0091
 20
17.1072
 30
0.0
 11
9.76389
 21
17.5694
 31
0.0
  0
LINE
  8
0
 62
     0
 10
9.76389
 20
17.5694
 30
0.0
 11
9.41075
 21
18.1153
 31
0.0
  0
LINE
  8
0
 62
     0
 10
9.41075
 20
18.1153
 30
0.0
 11
9.02513
 21
18.586
 31
0.0
  0
LINE
  8
0
 62
     0
 10
9.02513
 20
18.586
 30
0.0
 11
8.60693
 21
18.9815
 31
0.0
  0
LINE
  8
0
 62
     0
 10
8.60693
 20
18.9815
 30
0.0
 11
8.15625
 21
19.3021
 31
0.0
  0
LINE
  8
0
 62
     0
 10
8.15625
 20
19.3021
 30
0.0
 11
7.67296
 21
19.5475
 31
0.0
  0
LINE
  8
0
 62
     0
 10
7.67296
 20
19.5475
 30
0.0
 11
7.15712
 21
19.7179
 31
0.0
  0
LINE
  8
0
 62
     0
 10
7.15712
 20
19.7179
 30
0.0
 11
6.60872
 21
19.8132
 31
0.0
  0
LINE
  8
0
 62
     0
 10
6.60872
 20
19.8132
 30
0.0
 11
6.02778
 21
19.8333
 31
0.0
  0
LINE
  8
0
 62
     0
 10
6.02778
 20
19.8333
 30
0.0
 11
5.45811
 21
19.7824
 31
0.0
  0
LINE
  8
0
 62
     0
 10
5.45811
 20
19.7824
 30
0.0
 11
4.91581
 21
19.6642
 31
0.0
  0
LINE
  8
0
 62
     0
 10
4.91581
 20
19.6642
 30
0.0
 11
4.40082
 21
19.4786
 31
0.0
  0
LINE
  8
0
 62
     0
 10
4.40082
 20
19.4786
 30
0.0
 11
3.91319
 21
19.2257
 31
0.0
  0
LINE
  8
0
 62
     0
 10
3.91319
 20
19.2257
 30
0.0
 11
3.4529
 21
18.9057
 31
0.0
  0
LINE
  8
0
 62
     0
 10
3.4529
 20
18.9057
 30
0.0
 11
3.01997
 21
18.5183
 31
0.0
  0
LINE
  8
0
 62
     0
 10
3.01997
 20
18.5183
 30
0.0
 11
2.61436
 21
18.0636
 31
0.0
  0
LINE
  8
0
 62
     0
 10
2.61436
 20
18.0636
 30
0.0
 11
2.23611
 21
17.5417
 31
0.0
  0
LINE
  8
0
 62
     0
 10
2.23611
 20
17.5417
 30
0.0
 11
1.95231
 21
17.0943
 31
0.0
  0
LINE
  8
0
 62
     0
 10
1.95231
 20
17.0943
 30
0.0
 11
1.68788
 21
16.6374
 31
0.0
  0
LINE
  8
0
 62
     0
 10
1.68788
 20
16.6374
 30
0.0
 11
1.44276
 21
16.1711
 31
0.0
  0
LINE
  8
0
 62
     0
 10
1.44276
 20
16.1711
 30
0.0
 11
1.21696
 21
15.6953
 31
0.0
  0
LINE
  8
0
 62
     0
 10
1.21696
 20
15.6953
 30
0.0
 11
1.01047
 21
15.2101
 31
0.0
  0
LINE
  8
0
 62
     0
 10
1.01047
 20
15.2101
 30
0.0
 11
0.823296
 21
14.7156
 31
0.0
  0
LINE
  8
0
 62
     0
 10
0.823296
 20
14.7156
 30
0.0
 11
0.655436
 21
14.2114
 31
0.0
  0
LINE
  8
0
 62
     0
 10
0.655436
 20
14.2114
 30
0.0
 11
0.50689
 21
13.6979
 31
0.0
  0
LINE
  8
0
 62
     0
 10
0.50689
 20
13.6979
 30
0.0
 11
0.377658
 21
13.175
 31
0.0
  0
LINE
  8
0
 62
     0
 10
0.377658
 20
13.175
 30
0.0
 11
0.26774
 21
12.6426
 31
0.0
  0
LINE
  8
0
 62
     0
 10
0.26774
 20
12.6426
 30
0.0
 11
0.177137
 21
12.1008
 31
0.0
  0
LINE
  8
0
 62
     0
 10
0.177137
 20
12.1008
 30
0.0
 11
0.105848
 21
11.5495
 31
0.0
  0
LINE
  8
0
 62
     0
 10
0.105848
 20
11.5495
 30
0.0
 11
0.0538738
 21
10.9888
 31
0.0
  0
LINE
  8
0
 62
     0
 10
0.0538738
 20
10.9888
 30
0.0
 11
0.0212131
 21
10.4186
 31
0.0
  0
LINE
  8
0
 62
     0
 10
0.0212131
 20
10.4186
 30
0.0
 11
0.00786675
 21
9.83903
 31
0.0
  0
LINE
  8
0
 62
     0
 10
0.00786675
 20
9.83903
 30
0.0
 11
0.0138889
 21
9.25
 31
0.0
  0
ENDSEC
  0
EOF
